<svg xmlns="http://www.w3.org/2000/svg" width="185" height="68" viewBox="0 0 185 68"><g><g><path fill="#14213a" d="M82.5 27.5c0 .1 0 .2-.1.3-.1.1-.2.1-.3.1h-7.3c-.1 0-.2.1-.2.2V31c0 .1.1.2.2.2h4.6c.1 0 .2 0 .3.1.1.1.1.2.1.3v2.5c0 .1 0 .2-.1.3-.1.1-.2.1-.3.1h-4.6c-.1 0-.2.1-.2.2v6.2c0 .1 0 .2-.1.3-.1.1-.2.1-.3.1h-3.1c-.1 0-.2 0-.3-.1-.1-.1-.1-.2-.1-.3V25c0-.1 0-.2.1-.3.1-.1.2-.1.3-.1h11c.1 0 .2 0 .3.1.1.1.1.2.1.3zm13.4 0c0 .1 0 .2-.1.3-.1.1-.2.1-.3.1h-7.3c-.2 0-.2.1-.2.2V31c0 .1.1.2.2.2h4.6c.1 0 .2 0 .3.1.1.1.1.2.1.3v2.5c0 .1 0 .2-.1.3-.1.1-.2.1-.3.1h-4.6c-.1 0-.2.1-.2.2v3.1c0 .1.1.2.2.2h7.3c.1 0 .2 0 .3.1.1.1.1.2.1.3v2.5c0 .1 0 .2-.1.3-.1.1-.2.1-.3.1H84.4c-.1 0-.2 0-.3-.1-.1-.1-.1-.2-.1-.3V25c0-.1 0-.2.1-.3.1-.1.2-.1.3-.1h11.1c.1 0 .2 0 .3.1.1.1.1.2.1.3zm13.9 0c0 .1 0 .2-.1.3-.1.1-.2.1-.3.1H102c-.1 0-.2.1-.2.2V31c0 .1.1.2.2.2h4.6c.1 0 .2 0 .3.1.1.1.1.2.1.3v2.5c0 .1 0 .2-.1.3-.1.1-.2.1-.3.1H102c-.1 0-.2.1-.2.2v3.1c0 .1.1.2.2.2h7.3c.1 0 .2 0 .3.1.1.1.1.2.1.3v2.5c0 .1 0 .2-.1.3-.1.1-.2.1-.3.1h-11c-.1 0-.2 0-.3-.1-.1-.1-.1-.2-.1-.3V25c0-.1 0-.2.1-.3.1-.1.2-.1.3-.1h11.1c.1 0 .2 0 .3.1.1.1.1.2.1.3zm2.3 13.8c-.1 0-.2 0-.3-.1-.1-.1-.1-.2-.1-.3V25c0-.1 0-.2.1-.3.1-.1.2-.1.3-.1h6c1.2 0 2.4.2 3.3.6 1 .4 1.7 1 2.2 1.8.5.8.8 1.7.8 2.8v6.3c0 1-.3 2-.8 2.8-.5.8-1.3 1.4-2.2 1.8-1 .4-2.1.6-3.3.6zm3.6-3.5c0 .1.1.2.2.2h2.4c.6 0 1.2-.2 1.6-.7.4-.5.6-1.1.6-1.8v-4.9c0-.8-.2-1.4-.6-1.8-.4-.5-.9-.7-1.6-.7h-2.4c-.1 0-.2.1-.2.2zm21.4-5.3c-.1 0-.1.1-.1.1s0 .1.1.1c1.4.8 2.1 2 2.1 3.8 0 1.6-.6 2.8-1.7 3.6-1.1.8-2.6 1.2-4.3 1.2H127c-.1 0-.2 0-.3-.1-.1-.1-.1-.2-.1-.3V25c0-.1 0-.2.1-.3.1-.1.2-.1.3-.1h6c2 0 3.4.4 4.4 1.1 1 .7 1.5 1.9 1.5 3.6 0 1.5-.6 2.6-1.8 3.2zm-6.4-4.6c-.1 0-.2.1-.2.2V31c0 .1.1.2.2.2h2.3c.7 0 1.2-.1 1.5-.4.4-.3.5-.7.5-1.2s-.2-.9-.5-1.2c-.4-.3-.9-.4-1.5-.4h-2.3zm2.5 10c.6 0 1.1-.1 1.5-.4.4-.3.5-.7.5-1.3 0-.5-.2-1-.5-1.2-.3-.3-.8-.5-1.5-.5h-2.5c-.1 0-.2.1-.2.2v3.1c0 .1.1.2.2.2h2.5zm18.2 3.4c-.3 0-.4-.1-.5-.4l-.6-2c0-.1-.1-.1-.2-.1h-5.4c-.1 0-.2 0-.2.1l-.6 2c-.1.2-.2.4-.5.4H140c-.2 0-.3 0-.3-.1-.1-.1-.1-.2 0-.4l5-16c.1-.2.2-.4.5-.4h4.2c.3 0 .4.1.5.4l5.1 16v.2c0 .2-.1.3-.4.3zm-5.9-5.7c0 .1 0 .1.1.1h3.7v-.1l-1.8-6.4c0-.1 0-.1-.1-.1 0 0-.1 0-.1.1zm17 5.9c-1.3 0-2.4-.2-3.4-.7-1-.5-1.7-1.2-2.3-2.1-.5-.9-.8-2-.8-3.2v-5.2c0-1.2.3-2.2.8-3.1.5-.9 1.3-1.6 2.3-2.1 1-.5 2.1-.7 3.4-.7 1.3 0 2.4.2 3.4.7 1 .5 1.7 1.1 2.3 2 .5.8.8 1.8.8 3 0 .1-.1.2-.4.3l-3.1.2h-.1c-.2 0-.3 0-.3-.1v-.1c0-.8-.2-1.4-.7-1.8-.4-.4-1-.7-1.8-.7-.7 0-1.3.2-1.8.7-.4.4-.7 1-.7 1.8v5.4c0 .7.2 1.3.7 1.8.4.4 1 .7 1.8.7.7 0 1.3-.2 1.8-.7.4-.4.7-1 .7-1.8 0-.1 0-.2.1-.2s.2-.1.3 0l3.1.2c.3 0 .4.1.4.1v.1c0 1.1-.3 2.1-.8 3-.5.9-1.3 1.5-2.3 2-1 .3-2.1.5-3.4.5zm8.9-.2c-.1 0-.2 0-.3-.1-.1-.1-.1-.2-.1-.3V25c0-.1 0-.2.1-.3.1-.1.2-.1.3-.1h3.1c.1 0 .2 0 .3.1.1.1.1.2.1.3v6c0 .1 0 .1.1.1 0 0 .1 0 .1-.1l4.7-6.2c.1-.2.3-.3.5-.3h3.6c.2 0 .4.1.4.3 0 .1 0 .2-.1.3l-5 6.7c0 .1-.1.2 0 .2l5.3 8.8c0 .1.1.2.1.2 0 .2-.1.3-.4.3h-3.5c-.2 0-.4-.1-.5-.3l-3.7-6.2-.1-.1s-.1 0-.1.1l-1.2 1.6s-.1.1-.1.2v4.3c0 .1 0 .2-.1.3-.1.1-.2.1-.3.1zM76.6 64.2c-1.3 0-2.4-.2-3.4-.6-1-.4-1.7-1-2.2-1.8-.5-.8-.8-1.7-.8-2.8v-.3c0-.1 0-.2.1-.3.1-.1.2-.1.3-.1h3c.1 0 .2 0 .3.1.1 0 .1.1.1.2v.3c0 .5.3 1 .8 1.4.5.4 1.2.6 2 .6.7 0 1.2-.2 1.6-.5.3-.3.5-.7.5-1.1 0-.4-.2-.8-.6-1-.4-.2-1.1-.5-2.1-.8l-.5-.2c-1-.3-1.9-.7-2.7-1.1-.8-.4-1.4-.9-2-1.6-.5-.7-.8-1.6-.8-2.6s.3-1.9.8-2.6c.5-.8 1.2-1.3 2.2-1.7.9-.4 2-.6 3.1-.6 1.2 0 2.3.2 3.3.7 1 .4 1.8 1.1 2.3 1.9.6.8.8 1.8.8 2.8v.2c0 .1 0 .2-.1.3h-3.5c-.1 0-.1-.1-.1-.2v-.2c0-.6-.2-1.1-.7-1.5-.5-.4-1.2-.6-2-.6-.6 0-1.1.1-1.5.4-.4.3-.5.6-.5 1.1 0 .4.1.6.3.9.2.2.6.4 1 .6.5.2 1.2.4 2.2.8 1.1.4 2 .7 2.6 1 .6.3 1.2.8 1.8 1.4.6.6.8 1.5.8 2.5s-.3 1.9-.8 2.7c-.5.8-1.3 1.3-2.2 1.8-1 .3-2.1.5-3.4.5zm17-16.6c0-.1 0-.2.1-.3.1-.1.2-.1.3-.1h3.1c.1 0 .2 0 .3.1.1.1.1.2.1.3v15.9c0 .1 0 .2-.1.3 0 .2-.1.2-.2.2H94c-.1 0-.2 0-.3-.1-.1-.1-.1-.2-.1-.3v-6.2c0-.1-.1-.2-.2-.2H89c-.1 0-.2.1-.2.2v6.2c0 .1 0 .2-.1.3 0 .1-.1.1-.2.1h-3.1c-.1 0-.2 0-.3-.1-.1-.1-.1-.2-.1-.3v-16c0-.1 0-.2.1-.3.1-.1.2-.1.3-.1h3.1c.1 0 .2 0 .3.1.1.1.1.2.1.3v6c0 .1.1.2.2.2h4.4c.1 0 .2-.1.2-.2v-6zM106 64.3c-1.3 0-2.4-.3-3.4-.8s-1.7-1.3-2.3-2.2c-.5-.9-.8-2-.8-3.3v-4.8c0-1.2.3-2.3.8-3.2.5-.9 1.3-1.7 2.3-2.2 1-.5 2.1-.8 3.4-.8 1.3 0 2.4.3 3.4.8s1.8 1.2 2.3 2.2c.5.9.8 2 .8 3.2V58c0 1.2-.3 2.3-.8 3.3-.5.9-1.3 1.7-2.3 2.2-.9.5-2.1.8-3.4.8zm0-3.4c.8 0 1.4-.2 1.8-.7.5-.5.7-1.2.7-2v-5c0-.8-.2-1.5-.7-2-.5-.5-1.1-.8-1.8-.8-.8 0-1.4.3-1.8.8-.5.5-.7 1.2-.7 2v5c0 .8.2 1.5.7 2 .5.4 1.1.7 1.8.7zm20.4-13.7c.1 0 .2 0 .3.1.1.1.1.2.1.3v2.6c0 .1 0 .2-.1.3-.1.1-.2.1-.3.1h-4c-.1 0-.2.1-.2.2v12.8c0 .1 0 .2-.1.3-.1.1-.2.1-.3.1h-3.1c-.1 0-.2 0-.3-.1-.1-.1-.1-.2-.1-.3V50.8c0-.1-.1-.2-.2-.2h-3.9c-.1 0-.2 0-.3-.1-.1-.1-.1-.2-.1-.3v-2.6c0-.1 0-.2.1-.3.1-.1.2-.1.3-.1zm8 17c-1.3 0-2.4-.2-3.4-.6-1-.4-1.7-1-2.2-1.8-.5-.8-.8-1.7-.8-2.8v-.3c0-.1 0-.2.1-.3.1-.1.2-.1.3-.1h3c.1 0 .2 0 .3.1.1 0 .1.1.1.2v.3c0 .5.3 1 .8 1.4.5.4 1.2.6 2 .6.7 0 1.2-.2 1.6-.5.3-.3.5-.7.5-1.1 0-.4-.2-.8-.6-1-.4-.2-1.1-.5-2.1-.8l-.5-.2c-1-.3-1.9-.7-2.7-1.1-.8-.4-1.4-.9-2-1.6-.5-.7-.8-1.6-.8-2.6s.3-1.9.8-2.6c.5-.8 1.2-1.3 2.2-1.7.9-.4 2-.6 3.1-.6 1.2 0 2.3.2 3.3.7 1 .4 1.8 1.1 2.3 1.9.6.8.8 1.8.8 2.8v.2c0 .1 0 .2-.1.3-.1.1-.2.1-.3.1h-3.3c-.1 0-.1-.1-.1-.2v-.2c0-.6-.2-1.1-.7-1.5-.5-.4-1.2-.6-2-.6-.6 0-1.1.1-1.5.4-.4.3-.5.6-.5 1.1 0 .4.1.6.3.9.2.2.6.4 1 .6.5.2 1.2.4 2.2.8 1.1.4 2 .7 2.6 1 .6.3 1.2.8 1.8 1.4.6.6.8 1.5.8 2.5s-.3 1.9-.8 2.7c-.5.8-1.3 1.3-2.2 1.8-.9.2-2 .4-3.3.4z"/></g><g><path fill="#ef4458" d="M37.1 32.1c2.5-.9 4-2.1 4-3.3 0-2.2-5.3-4.4-12.4-4.9l.5-.6c.7-.8 1.3-1.7 1.8-2.5 7.1.8 12.6 3.3 13.3 7.2 4.1.4 6.6 3.9 6.1 8s-3.9 7.1-8.9 7.5c0 .1-.1.2-.1.3 6.7 2.2 11.2 6 11.2 11 0 8.2-12.1 13.1-26.3 13.1-14.2 0-26.3-4.8-26.3-13 0-5 4.5-8.8 11.2-11l-3-13.6v-1.5c0-4.4 6.1-7.3 14.1-8 0 1-.1 2.2-.4 3.4-6 .7-10.3 2.7-10.3 4.7 0 1.2 1.5 2.4 4 3.3 2.7-1 6.5-1.6 10.8-1.6 4.3 0 8 .5 10.7 1.5zm7.1-.8c-.5 2.4-1.2 5.3-1.9 8.8 2.9-.5 4.6-2.3 4.9-4.5.2-2.2-1-4-3-4.3zM15.7 50.2c.5 3.1 2.4 6.3 10.6 6.3s10-3.1 10.6-6.3L40 34.4c-3.4 1.7-8.3 2.6-13.7 2.6-5.4 0-10.3-.9-13.7-2.6zm-3.8-2.9c-5.3 1.9-8.6 4.7-8.6 7.6 0 4.9 10.1 9.9 23 9.9s23-4.9 23-9.9c0-2.8-3.3-5.7-8.6-7.6-.3 1.2-.5 2.4-.8 3.7-1 5.3-5 8.7-13.5 8.7S13.8 56.3 12.9 51zM30.3 0c-2 3.8-2.1 7.1-.1 10 2.4 3.6 1.7 7.6-2.2 12.2 1.4-4.3 1.1-8-.7-11.1-2-3.2-1-6.9 3-11.1zm-5 4c-2 3.8-2.1 7.1-.1 10 2.4 3.6 1.7 7.6-2.2 12.2 1.4-4.3 1.1-8-.7-11.1-1.9-3.2-.9-6.9 3-11.1z"/></g></g></svg>