<svg xmlns="http://www.w3.org/2000/svg" width="18" height="18" viewBox="0 0 18 18"><g><g><path fill="#fff" d="M13.672 11.9c-.587-.58-1.32-.58-1.905 0-.445.441-.89.883-1.328 1.332-.12.124-.221.15-.367.067-.288-.157-.595-.284-.872-.456-1.29-.812-2.372-1.856-3.33-3.031-.476-.584-.899-1.209-1.194-1.913-.06-.142-.049-.235.067-.351.445-.43.88-.872 1.317-1.314.61-.614.61-1.332-.003-1.95-.348-.351-.696-.696-1.044-1.047-.36-.36-.715-.723-1.078-1.078-.588-.573-1.321-.573-1.905.004-.449.441-.88.894-1.336 1.328-.423.4-.636.89-.681 1.463-.071.932.157 1.812.479 2.669.659 1.773 1.662 3.349 2.878 4.793a17.808 17.808 0 0 0 5.897 4.614c1.033.502 2.104.887 3.267.951.801.045 1.497-.157 2.055-.782.382-.427.812-.816 1.216-1.224.599-.606.603-1.34.008-1.938-.711-.715-1.426-1.426-2.14-2.137z"/></g><g><path fill="#fff" d="M12.957 8.911l1.38-.235a6.172 6.172 0 0 0-1.725-3.33A6.139 6.139 0 0 0 9.095 3.59L8.9 4.978a4.762 4.762 0 0 1 2.724 1.359 4.762 4.762 0 0 1 1.333 2.574z"/></g><g><path fill="#fff" d="M15.112 2.911A10.182 10.182 0 0 0 9.275 0L9.08 1.388a8.829 8.829 0 0 1 5.044 2.515 8.822 8.822 0 0 1 2.474 4.771l1.381-.235a10.257 10.257 0 0 0-2.867-5.528z"/></g></g></svg>