<?xml version="1.0" encoding="UTF-8"?>
<svg width="57px" height="56px" viewBox="0 0 57 56" version="1.1" xmlns="http://www.w3.org/2000/svg" xmlns:xlink="http://www.w3.org/1999/xlink">
    <!-- Generator: Sketch 61 (89581) - https://sketch.com -->
    <title>edit</title>
    <desc>Created with Sketch.</desc>
    <g id="Wireframes" stroke="none" stroke-width="1" fill="none" fill-rule="evenodd">
        <g id="01-Home-Page" transform="translate(-691.000000, -1758.000000)" fill="#0091FF" fill-rule="nonzero">
            <g id="Group-14" transform="translate(165.000000, 1597.000000)">
                <g id="Group-12" transform="translate(0.000000, 118.000000)">
                    <g id="Group-10" transform="translate(385.000000, 0.000000)">
                        <g id="edit" transform="translate(141.000000, 43.000000)">
                            <path d="M51.8825782,35.1361718 C51.1092968,35.1361718 50.4825782,35.7628907 50.4825782,36.5361718 L50.4825782,48.9666407 C50.4798437,51.2853907 48.6013282,53.1644532 46.2825782,53.1666407 L7,53.1666407 C4.68125,53.1644532 2.80273434,51.2853907 2.8,48.9666407 L2.8,12.4840625 C2.80273434,10.1658593 4.68125,8.28679684 7,8.2840625 L19.4304687,8.2840625 C20.20375,8.2840625 20.8304687,7.65734368 20.8304687,6.8840625 C20.8304687,6.11132816 20.20375,5.4840625 19.4304687,5.4840625 L7,5.4840625 C3.13578132,5.4884375 0.004375,8.61984368 0,12.4840625 L0,48.9671875 C0.004375,52.8314063 3.13578132,55.9628125 7,55.9671875 L46.2825782,55.9671875 C50.1467968,55.9628125 53.2782032,52.8314063 53.2825782,48.9671875 L53.2825782,36.5361718 C53.2825782,35.7628907 52.6558593,35.1361718 51.8825782,35.1361718 Z" id="Path"></path>
                            <path d="M52.7280468,1.88179684 C50.2676563,-0.57859368 46.27875,-0.57859368 43.8183593,1.88179684 L18.8414843,26.8586718 C18.6703125,27.0298437 18.5467187,27.2420313 18.4821875,27.475 L15.1976563,39.3328907 C15.0625782,39.8190625 15.1998437,40.3396875 15.5564063,40.6967968 C15.9135157,41.0533593 16.4341407,41.190625 16.9203125,41.0560937 L28.7782032,37.7710157 C29.0111718,37.7064843 29.2233593,37.5828907 29.3945313,37.4117187 L54.3708593,12.4342968 C56.8274218,9.97226566 56.8274218,5.98664066 54.3708593,3.52460934 L52.7280468,1.88179684 Z M21.8919532,27.7686718 L42.3335937,7.32648434 L48.9261718,13.9190625 L28.4839843,34.36125 L21.8919532,27.7686718 Z M20.5750782,30.4111718 L25.8420313,35.6786718 L18.5565625,37.6971875 L20.5750782,30.4111718 Z M52.3911718,10.4546093 L50.9064063,11.939375 L44.3132813,5.34625 L45.7985937,3.86148434 C47.1652343,2.49484368 49.3811718,2.49484368 50.7478125,3.86148434 L52.3911718,5.50429684 C53.755625,6.87257816 53.755625,9.086875 52.3911718,10.4546093 L52.3911718,10.4546093 Z" id="Shape"></path>
                        </g>
                    </g>
                </g>
            </g>
        </g>
    </g>
</svg>