<svg xmlns="http://www.w3.org/2000/svg" width="28" height="28" viewBox="0 0 28 28"><g><g><path fill="#0091ff" d="M19.624 25.14H8.327a5.515 5.515 0 0 1-5.515-5.516V8.327a5.515 5.515 0 0 1 5.515-5.515h11.297a5.515 5.515 0 0 1 5.515 5.515v11.297a5.515 5.515 0 0 1-5.515 5.515zm0-25.14H8.327C3.735 0 0 3.735 0 8.327v11.297c0 4.592 3.735 8.327 8.327 8.327h11.297c4.592 0 8.327-3.735 8.327-8.327V8.327C27.951 3.735 24.216 0 19.624 0z"/></g><g><path fill="#0091ff" d="M13.984 18.408a4.424 4.424 0 1 1 0-8.848 4.424 4.424 0 0 1 0 8.848zM13.98 6.75c-3.986 0-7.229 3.243-7.229 7.23 0 3.985 3.243 7.228 7.23 7.228 3.985 0 7.228-3.243 7.228-7.229S17.965 6.75 13.98 6.75z"/></g><g><path fill="#0091ff" d="M21.222 8.534a1.732 1.732 0 1 0 0-3.464 1.732 1.732 0 0 0 0 3.464z"/></g></g></svg>