<svg xmlns="http://www.w3.org/2000/svg" width="325" height="638" viewBox="0 0 325 638"><defs><clipPath id="ov7ya"><path fill="#fff" d="M321.42 145.2h2.3a1 1 0 0 1 1 1v69.28a1 1 0 0 1-1 1h-2.3z"/></clipPath><clipPath id="ov7yb"><path fill="#fff" d="M0 187.12a1 1 0 0 1 1-1h2.3V231H1a1 1 0 0 1-1-1z"/></clipPath><clipPath id="ov7yc"><path fill="#fff" d="M0 131.68a1 1 0 0 1 1-1h2.3v44.88H1a1 1 0 0 1-1-1z"/></clipPath><clipPath id="ov7yd"><path fill="#fff" d="M0 88.12a1 1 0 0 1 1-1h2.3v23.76H1a1 1 0 0 1-1-1z"/></clipPath><clipPath id="ov7ye"><path fill="#fff" d="M2.64 47.52C2.64 21.275 23.915 0 50.16 0h224.4c26.245 0 47.52 21.275 47.52 47.52v542.52c0 26.245-21.275 47.52-47.52 47.52H50.16c-26.245 0-47.52-21.275-47.52-47.52z"/></clipPath><clipPath id="ov7yf"><path fill="#fff" d="M7.92 47.52c0-23.329 18.911-42.24 42.24-42.24h224.4c23.329 0 42.24 18.911 42.24 42.24v542.52c0 23.329-18.911 42.24-42.24 42.24H50.16c-23.329 0-42.24-18.911-42.24-42.24z"/></clipPath><clipPath id="ov7yg"><path fill="#fff" d="M25.74 49.5c0-14.58 11.82-26.4 26.4-26.4h19.456a3.96 3.96 0 0 0 1.97-7.395S78.22 18.374 86.46 28.38c0 12.54 9.922 17.16 18.48 17.16 56.727 7.301 106.26 0 114.84 0 8.58 0 18.48-4.62 18.48-17.16.882-1.07.505-2.87.505-2.87a2 2 0 0 1 1.957-2.41h31.858c14.58 0 26.4 11.82 26.4 26.4v538.56c0 14.58-11.82 26.4-26.4 26.4H52.14c-14.58 0-26.4-11.82-26.4-26.4z"/></clipPath><clipPath id="ov7yh"><path fill="#fff" d="M11.88 48.84c0-21.87 17.73-39.6 39.6-39.6h221.76c21.87 0 39.6 17.73 39.6 39.6v539.88c0 21.87-17.73 39.6-39.6 39.6H51.48c-21.87 0-39.6-17.73-39.6-39.6z"/></clipPath><clipPath id="ov7yi"><path fill="#fff" d="M113.52 606.88a1 1 0 0 1 1-1h95.68a1 1 0 0 1 1 1v1.96a1 1 0 0 1-1 1h-95.68a1 1 0 0 1-1-1z"/></clipPath><clipPath id="ov7yj"><path fill="#fff" d="M143.88 27.74a2 2 0 0 1 2-2h32.96a2 2 0 0 1 2 2v1.28a2 2 0 0 1-2 2h-32.96a2 2 0 0 1-2-2z"/></clipPath><clipPath id="ov7yk"><path fill="#fff" d="M194.7 33a4.62 4.62 0 1 0 0-9.24 4.62 4.62 0 0 0 0 9.24z"/></clipPath><clipPath id="ov7yl"><path fill="#fff" d="M194.7 31.02a2.64 2.64 0 1 0 0-5.28 2.64 2.64 0 0 0 0 5.28z"/></clipPath></defs><g><g><g><g><path fill="none" stroke="#333" stroke-miterlimit="50" stroke-width="1.32" d="M321.42 145.2v0h2.3a1 1 0 0 1 1 1v69.28a1 1 0 0 1-1 1h-2.3v0z" clip-path="url(&quot;#ov7ya&quot;)"/></g><g><path fill="none" stroke="#333" stroke-miterlimit="50" stroke-width="1.32" d="M0 187.12a1 1 0 0 1 1-1h2.3V231H1a1 1 0 0 1-1-1z" clip-path="url(&quot;#ov7yb&quot;)"/></g><g><path fill="none" stroke="#333" stroke-miterlimit="50" stroke-width="1.32" d="M0 131.68a1 1 0 0 1 1-1h2.3v44.88H1a1 1 0 0 1-1-1z" clip-path="url(&quot;#ov7yc&quot;)"/></g><g><path fill="none" stroke="#333" stroke-miterlimit="50" stroke-width="1.32" d="M0 88.12a1 1 0 0 1 1-1h2.3v23.76H1a1 1 0 0 1-1-1z" clip-path="url(&quot;#ov7yd&quot;)"/></g><g><path fill="none" stroke="#333" stroke-miterlimit="50" stroke-width="1.32" d="M2.64 47.52C2.64 21.275 23.915 0 50.16 0h224.4c26.245 0 47.52 21.275 47.52 47.52v542.52c0 26.245-21.275 47.52-47.52 47.52H50.16c-26.245 0-47.52-21.275-47.52-47.52z" clip-path="url(&quot;#ov7ye&quot;)"/></g><g><path fill="none" stroke="#ccc" stroke-miterlimit="50" stroke-width="1.32" d="M7.92 47.52c0-23.329 18.911-42.24 42.24-42.24h224.4c23.329 0 42.24 18.911 42.24 42.24v542.52c0 23.329-18.911 42.24-42.24 42.24H50.16c-23.329 0-42.24-18.911-42.24-42.24z" clip-path="url(&quot;#ov7yf&quot;)"/></g></g><g><g><path fill="#ddd" d="M25.74 49.5c0-14.58 11.82-26.4 26.4-26.4h19.456a3.96 3.96 0 0 0 1.97-7.395S78.22 18.374 86.46 28.38c0 12.54 9.922 17.16 18.48 17.16 56.727 7.301 106.26 0 114.84 0 8.58 0 18.48-4.62 18.48-17.16.882-1.07.505-2.87.505-2.87a2 2 0 0 1 1.957-2.41h31.858c14.58 0 26.4 11.82 26.4 26.4v538.56c0 14.58-11.82 26.4-26.4 26.4H52.14c-14.58 0-26.4-11.82-26.4-26.4z"/><path fill="none" stroke="#333" stroke-miterlimit="50" stroke-width="1.32" d="M25.74 49.5c0-14.58 11.82-26.4 26.4-26.4h19.456a3.96 3.96 0 0 0 1.97-7.395S78.22 18.374 86.46 28.38c0 12.54 9.922 17.16 18.48 17.16 56.727 7.301 106.26 0 114.84 0 8.58 0 18.48-4.62 18.48-17.16.882-1.07.505-2.87.505-2.87a2 2 0 0 1 1.957-2.41h31.858c14.58 0 26.4 11.82 26.4 26.4v538.56c0 14.58-11.82 26.4-26.4 26.4H52.14c-14.58 0-26.4-11.82-26.4-26.4z" clip-path="url(&quot;#ov7yg&quot;)"/></g><g><path fill="none" stroke="#ccc" stroke-miterlimit="50" stroke-width="1.32" d="M11.88 48.84c0-21.87 17.73-39.6 39.6-39.6h221.76c21.87 0 39.6 17.73 39.6 39.6v539.88c0 21.87-17.73 39.6-39.6 39.6H51.48c-21.87 0-39.6-17.73-39.6-39.6z" clip-path="url(&quot;#ov7yh&quot;)"/></g></g><g><g><path fill="none" stroke="#333" stroke-miterlimit="50" stroke-width="1.32" d="M113.52 606.88a1 1 0 0 1 1-1h95.68a1 1 0 0 1 1 1v1.96a1 1 0 0 1-1 1h-95.68a1 1 0 0 1-1-1z" clip-path="url(&quot;#ov7yi&quot;)"/></g><g><path fill="none" stroke="#ccc" stroke-miterlimit="50" stroke-width="1.32" d="M143.88 27.74a2 2 0 0 1 2-2h32.96a2 2 0 0 1 2 2v1.28a2 2 0 0 1-2 2h-32.96a2 2 0 0 1-2-2z" clip-path="url(&quot;#ov7yj&quot;)"/></g><g><g><path fill="none" stroke="#ccc" stroke-miterlimit="50" stroke-width="1.32" d="M194.7 33a4.62 4.62 0 1 0 0-9.24 4.62 4.62 0 0 0 0 9.24z" clip-path="url(&quot;#ov7yk&quot;)"/></g><g><path fill="none" stroke="#ccc" stroke-miterlimit="50" stroke-width="1.32" d="M194.7 31.02a2.64 2.64 0 1 0 0-5.28 2.64 2.64 0 0 0 0 5.28z" clip-path="url(&quot;#ov7yl&quot;)"/></g></g></g></g></g></svg>