<svg xmlns="http://www.w3.org/2000/svg" width="64" height="16" viewBox="0 0 64 16"><g><g><path fill="#fff" d="M5.657 15.348c-1.152 0-2.217-.24-3.196-.72A5.967 5.967 0 0 1 .1 12.59l1.687-2.058c.979 1.372 2.275 2.058 3.889 2.058.609 0 1.112-.146 1.508-.44.397-.293.596-.672.596-1.139 0-.612-.444-1.125-1.33-1.538-.106-.054-.589-.247-1.449-.58a14.446 14.446 0 0 1-1.726-.8C1.727 7.202.953 5.976.953 4.418c0-1.24.463-2.265 1.39-3.078C3.281.513 4.484.1 5.952.1c1.906 0 3.513.666 4.823 1.998L9.208 4.257a4.08 4.08 0 0 0-1.488-1 4.307 4.307 0 0 0-1.727-.38c-.581 0-1.044.134-1.388.4-.331.254-.497.593-.497 1.02 0 .573.397 1.059 1.191 1.459l1.448.639c.82.346 1.416.606 1.787.78 1.666.812 2.5 2.038 2.5 3.677 0 1.318-.496 2.398-1.488 3.237-.993.84-2.289 1.259-3.89 1.259z"/></g><g><path fill="#fff" d="M17.317 3.078h2.52c.648 0 1.164.2 1.548.598.397.399.595.897.595 1.495 0 .625-.205 1.143-.615 1.555-.397.4-.96.598-1.687.598h-2.361zm-2.937 12.03h2.937v-5.096h2.262c1.8 0 3.149-.453 4.048-1.359.9-.932 1.35-2.078 1.35-3.437 0-1.372-.437-2.525-1.31-3.457-.86-.946-2.15-1.419-3.87-1.419H14.38z"/></g><g><path fill="#fff" d="M38.448 15.108H28.05V.34h2.956v11.93h7.442z"/></g><g><path fill="#ff4141" d="M41.34 15.108L45.756.34h3.312L44.65 15.108z"/></g><g><path fill="#fff" d="M56.697 15.108V3.198H52.51V.34h11.35v2.858h-4.187v11.91z"/></g></g></svg>