<svg width="36" height="36" viewBox="0 0 36 36" fill="none" xmlns="http://www.w3.org/2000/svg">
<path d="M8.99744 29.4725L8.49064 30.3346H8.49064L8.99744 29.4725ZM13.9806 28.9356L14.6859 29.6445L14.6868 29.6435L13.9806 28.9356ZM8.00033 22.9868L8.7055 23.6959L8.70768 23.6937L8.00033 22.9868ZM7.50183 27.9758L6.64044 28.4837L7.50183 27.9758ZM13.6911 18.7069C14.0815 18.3162 14.0813 17.683 13.6906 17.2927C13.3 16.9023 12.6668 16.9025 12.2764 17.2931L13.6911 18.7069ZM19.9577 22.9732L19.2582 22.2584L19.2515 22.2652L19.9577 22.9732ZM21.3161 17.4897C21.0343 17.0148 20.4208 16.8582 19.9458 17.14C19.4708 17.4218 19.3142 18.0353 19.5961 18.5103L21.3161 17.4897ZM8.49064 30.3346C9.57343 30.9711 10.812 31.0968 11.8942 30.9371C12.9624 30.7795 14.0016 30.3252 14.6859 29.6445L13.2753 28.2266C12.9631 28.5372 12.3545 28.8475 11.6022 28.9585C10.8638 29.0675 10.109 28.966 9.50425 28.6105L8.49064 30.3346ZM7.29516 22.2778C6.67004 22.8995 6.23719 23.9561 6.07455 25.01C5.90817 26.0882 5.9898 27.3803 6.64044 28.4837L8.36323 27.4679C8.01948 26.8849 7.9299 26.1007 8.05115 25.315C8.17613 24.5052 8.48972 23.9104 8.70549 23.6959L7.29516 22.2778ZM6.64044 28.4837C7.1453 29.3399 7.63017 29.8287 8.49064 30.3346L9.50425 28.6105C8.94028 28.2789 8.69791 28.0355 8.36323 27.4679L6.64044 28.4837ZM20.6571 23.6879C21.3585 23.0015 21.8022 21.9487 21.9469 20.8808C22.0936 19.7973 21.9519 18.5614 21.3161 17.4897L19.5961 18.5103C19.9542 19.1139 20.065 19.8737 19.965 20.6124C19.8628 21.3668 19.5603 21.9629 19.2583 22.2584L20.6571 23.6879ZM14.6868 29.6435L20.6639 23.6811L19.2515 22.2652L13.2744 28.2276L14.6868 29.6435ZM8.70768 23.6937L13.6911 18.7069L12.2764 17.2931L7.29298 22.2799L8.70768 23.6937Z" fill="#378AFF"/>
<path d="M28.0026 7.52748L28.5094 6.66542L28.5094 6.66542L28.0026 7.52748ZM23.0194 8.06443L22.3141 7.35549L22.3132 7.35645L23.0194 8.06443ZM28.9997 14.0132L28.2945 13.3041L28.2923 13.3063L28.9997 14.0132ZM29.4982 9.02419L30.3596 8.51625L29.4982 9.02419ZM23.3089 18.2931C22.9185 18.6838 22.9187 19.317 23.3094 19.7073C23.7 20.0977 24.3332 20.0975 24.7236 19.7069L23.3089 18.2931ZM17.0423 14.0268L17.7418 14.7416L17.7485 14.7348L17.0423 14.0268ZM15.6839 19.5103C15.9657 19.9852 16.5792 20.1418 17.0542 19.86C17.5292 19.5782 17.6858 18.9647 17.4039 18.4897L15.6839 19.5103ZM28.5094 6.66542C27.4266 6.02886 26.188 5.90318 25.1058 6.06289C24.0376 6.22054 22.9984 6.67477 22.3141 7.35549L23.7247 8.77336C24.0369 8.46279 24.6455 8.15249 25.3978 8.04146C26.1362 7.93249 26.891 8.03399 27.4958 8.38954L28.5094 6.66542ZM29.7048 14.7222C30.33 14.1005 30.7628 13.0439 30.9255 11.99C31.0918 10.9118 31.0102 9.61966 30.3596 8.51625L28.6368 9.53212C28.9805 10.1151 29.0701 10.8993 28.9489 11.685C28.8239 12.4948 28.5103 13.0896 28.2945 13.3041L29.7048 14.7222ZM30.3596 8.51625C29.8547 7.66007 29.3698 7.17129 28.5094 6.66542L27.4958 8.38954C28.0597 8.7211 28.3021 8.96454 28.6368 9.53212L30.3596 8.51625ZM16.3429 13.3121C15.6415 13.9985 15.1978 15.0513 15.0531 16.1192C14.9063 17.2027 15.0481 18.4386 15.6839 19.5103L17.4039 18.4897C17.0458 17.8861 16.935 17.1263 17.035 16.3876C17.1372 15.6332 17.4397 15.0371 17.7417 14.7416L16.3429 13.3121ZM22.3132 7.35645L16.3361 13.3189L17.7485 14.7348L23.7256 8.7724L22.3132 7.35645ZM28.2923 13.3063L23.3089 18.2931L24.7236 19.7069L29.707 14.7201L28.2923 13.3063Z" fill="#378AFF"/>
</svg>
