<svg width="36" height="36" viewBox="0 0 36 36" fill="none" xmlns="http://www.w3.org/2000/svg">
<path fill-rule="evenodd" clip-rule="evenodd" d="M27 9C27 10.1046 26.1046 11 25 11C23.8954 11 23 10.1046 23 9C23 7.89543 23.8954 7 25 7C26.1046 7 27 7.89543 27 9ZM29 9C29 11.2091 27.2091 13 25 13C23.672 13 22.4952 12.3529 21.7677 11.3567L14.5552 16.165C14.8395 16.7146 15 17.3386 15 18C15 18.6614 14.8395 19.2854 14.5552 19.835L21.7677 24.6433C22.4952 23.6471 23.672 23 25 23C27.2091 23 29 24.7909 29 27C29 29.2091 27.2091 31 25 31C22.7909 31 21 29.2091 21 27C21 26.8485 21.0084 26.6989 21.0248 26.5517L13.2045 21.3382C12.5725 21.7565 11.8147 22 11 22C8.79086 22 7 20.2091 7 18C7 15.7909 8.79086 14 11 14C11.8147 14 12.5725 14.2435 13.2045 14.6618L21.0248 9.44826C21.0084 9.3011 21 9.15154 21 9C21 6.79086 22.7909 5 25 5C27.2091 5 29 6.79086 29 9ZM27 27C27 28.1046 26.1046 29 25 29C23.8954 29 23 28.1046 23 27C23 25.8954 23.8954 25 25 25C26.1046 25 27 25.8954 27 27ZM11 20C12.1046 20 13 19.1046 13 18C13 16.8954 12.1046 16 11 16C9.89543 16 9 16.8954 9 18C9 19.1046 9.89543 20 11 20Z" fill="#378AFF"/>
</svg>
