<svg xmlns="http://www.w3.org/2000/svg" width="20" height="12" viewBox="0 0 20 12"><g><g><path fill="#898989" d="M10 .039c3.821 0 7.286 2.09 9.844 5.486a.792.792 0 0 1 0 .945c-2.558 3.4-6.023 5.49-9.844 5.49-3.821 0-7.286-2.09-9.843-5.486a.792.792 0 0 1 0-.945C2.714 2.13 6.179.04 10 .04zm-.274 10.158a4.209 4.209 0 0 0 4.472-4.471 4.216 4.216 0 0 0-3.924-3.924 4.209 4.209 0 0 0-4.472 4.472 4.23 4.23 0 0 0 3.924 3.923zM7.737 6.143a2.261 2.261 0 0 1 2.406-2.406 2.275 2.275 0 0 1 2.115 2.116 2.261 2.261 0 0 1-2.405 2.405 2.275 2.275 0 0 1-2.116-2.115z"/></g></g></svg>