<svg xmlns="http://www.w3.org/2000/svg" width="50" height="39" viewBox="0 0 50 39"><g><g><g><path fill="#e5960d" d="M37.26 2.95l9.797 9.811-4.27 4.279-9.797-9.812zm-.963 20.399l-6.17-6.16-3.137-1.912-2.963.762-1.986 1.85-.027.027a1.156 1.156 0 0 1-1.637 0 1.163 1.163 0 0 1 0-1.64l3.545-3.554 8.37-3.238 8.257 8.276zm-.629 3.937a1.138 1.138 0 0 1-.809.335 1.14 1.14 0 0 1-.787-.313l-2.841-2.848a1.037 1.037 0 0 0-1.473 0 1.043 1.043 0 0 0 0 1.474l2.844 2.85c.422.446.41 1.164-.024 1.599a1.142 1.142 0 0 1-1.596.022l-2.841-2.849a1.037 1.037 0 0 0-1.473 0 1.043 1.043 0 0 0 0 1.474l2.842 2.85a1.155 1.155 0 0 1-.024 1.599 1.149 1.149 0 0 1-1.393.178 3.206 3.206 0 0 0-.87-1.6 3.202 3.202 0 0 0-2.153-.944 3.234 3.234 0 0 0-3.091-3.103 3.226 3.226 0 0 0-3.094-3.1 3.23 3.23 0 0 0-3.225-3.104c-.863 0-1.674.337-2.283.948l-.28.28-3.423-5.436 7.69-7.705 4.581 1.85-3.04 3.047a3.254 3.254 0 0 0 0 4.591 3.217 3.217 0 0 0 2.29.951c.858 0 1.666-.332 2.276-.935l1.584-1.476 1.601-.411 1.545.941.633.386 6.617 6.604.217.217c.45.452.45 1.18 0 1.628zM24.94 33.19c.306 0 .593.12.81.337.217.217.336.506.336.812 0 .307-.12.596-.336.814l-1.078 1.08a1.137 1.137 0 0 1-.81.336c-.307 0-.594-.12-.811-.337a1.14 1.14 0 0 1-.336-.812c0-.307.12-.594.336-.811l1.078-1.08a1.13 1.13 0 0 1 .81-.339zm-3.094-3.097a1.15 1.15 0 0 1 .81 1.96l-1.078 1.08a1.145 1.145 0 0 1-1.957-.812c0-.306.12-.596.336-.813l1.078-1.08c.217-.215.504-.335.81-.335zm-3.094-3.1c.307 0 .594.119.81.336.217.217.337.505.337.812 0 .307-.12.595-.336.812l-1.078 1.082a1.145 1.145 0 0 1-1.622 0 1.154 1.154 0 0 1 0-1.624l1.079-1.08c.216-.219.505-.338.81-.338zm-4.982-1.68l1.078-1.083c.216-.217.504-.336.81-.336a1.15 1.15 0 0 1 .81 1.96l-1.077 1.082a1.137 1.137 0 0 1-.81.336 1.145 1.145 0 0 1-1.146-1.15c-.001-.305.118-.595.335-.81zM2.945 12.835l9.788-9.812 4.269 4.277-9.788 9.811zm39.84 7.154L50 12.763 37.26 0l-7.215 7.229.639.642-6.526 2.521-5.193-2.097.992-.994L12.74.072 0 12.835l7.217 7.23.947-.95 3.518 5.582c-.215.438-.33.926-.33 1.426 0 .865.336 1.679.945 2.29.578.578 1.34.91 2.152.942a3.22 3.22 0 0 0 .942 2.156 3.2 3.2 0 0 0 2.152.945c.031.814.363 1.575.942 2.156.578.579 1.337.912 2.152.945.031.814.363 1.575.941 2.156a3.208 3.208 0 0 0 2.537.935c.45.229.948.352 1.467.352.862 0 1.674-.336 2.283-.947.596-.597.91-1.37.94-2.154a3.2 3.2 0 0 0 2.152-.945A3.21 3.21 0 0 0 31.9 32.8a3.2 3.2 0 0 0 2.15-.943c.577-.579.911-1.34.942-2.154a3.193 3.193 0 0 0 2.15-.944 3.242 3.242 0 0 0 .56-3.82l4.335-5.694z"/></g><g><path fill="#e5960d" d="M6.293 13.293a1.001 1.001 0 1 0 1.416 1.414 1.001 1.001 0 0 0-1.416-1.414z"/></g></g></g></svg>