<svg xmlns="http://www.w3.org/2000/svg" width="48" height="50" viewBox="0 0 48 50"><g><g><g><path fill="#44b2d9" d="M2.159 22.915v3.02l27.839 15.927 15.79-9.21v-2.917L30 38.845l-.58-.313-1.632-.938zm0-5.519v2.967l27.892 15.98 15.788-9.266.002-2.914L30 33.273l-.58-.313-1.632-.938zm5.472-8.44c1.474.835 1.474 2.188 0 3.022-.158.104-.316.207-.526.26L26.419 23.33c.106-.05.211-.154.316-.207 1.474-.834 3.843-.834 5.316 0 .212.103.422.26.58.417l8.104-4.635a1.854 1.854 0 0 1-.736-.313c-1.474-.834-1.474-2.187 0-3.021.21-.106.473-.21.736-.314L21.263 4.113c-.105.106-.263.21-.422.313-1.474.834-3.842.834-5.316 0-.158-.106-.317-.21-.422-.313L7.105 8.697c.21.103.368.156.526.26zm38.262 12.71v-3.125l-15.315 8.801c-.368.208-1 .208-1.421 0L2.159 11.925v2.917L29.997 30.78l15.842-9.114zm-.052 16.618v-3.021L30 44.377l-.58-.313-1.632-.938L2.158 28.49v2.968l27.893 15.989zM.053 21.666V10.52c-.053-.154.054-.364.264-.468L17.474.156c.368-.208 1-.208 1.42 0L47.63 16.615c.212.103.317.207.317.364v17.083H48l-.053.053v5.572L30 50l-.58-.313-1.632-.938L0 32.81v-5.573zM14.21 7.446c.21-.103.526-.103.684 0l2.21 1.25c.21.104.21.313 0 .417l-1.262.728c-.21.104-.526.104-.685 0l-2.21-1.249a.243.243 0 0 1 0-.417zm17.893 10.21c.21-.104.526-.104.684 0l2.21 1.25c.21.103.21.313 0 .416l-1.262.729c-.21.103-.526.103-.685 0l-2.21-1.25c-.21-.105-.21-.313 0-.417zm-12.368-3.751c-.314.103-.368.156-.37.474.158.26.421.52.684.728.21.207.21.207-.053.364-.105.05-.263.155-.368.208-.158.052-.158.156 0 .26.051.053.156.104.21.157l.316.156a.397.397 0 0 0 .472 0c.21-.106.368-.21.526-.313.158-.106.316-.106.525-.053.473.155.998.26 1.577.208 1.524-.104 2.47-.938 2.05-1.823a6.943 6.943 0 0 0-.526-.782c-.105-.154-.156-.31-.21-.467-.05-.314.422-.521.947-.418.105.053.263.104.368.157.053 0 .105.053.158.053.37.26.684.468.842.781.051.051.051.104.105.104.053.053.158.053.316 0 .316-.104.579-.157.842-.26.211-.053.211-.157.158-.26-.105-.21-.316-.418-.526-.575-.314-.21-.314-.21.054-.417.472-.313.472-.313 0-.573-.054-.051-.105-.051-.159-.104l-.053-.053c-.21-.157-.263-.104-.526 0l-.316.157c-.263.156-.263.156-.684.053-.998-.26-1.89-.21-2.733.207-.684.366-.788.834-.579 1.355.158.364.421.625.63.938.054.104.159.26.159.364.05.364-.526.625-1.105.468a1.786 1.786 0 0 1-.63-.26c-.054 0-.105-.051-.159-.104-.314-.208-.577-.468-.735-.781-.051-.104-.051-.157-.105-.157-.104-.053-.209-.053-.367 0-.263.05-.472.155-.735.207zm-1.42 3.124c-3.158-1.823-3.21-4.738-.054-6.563 3.158-1.823 8.316-1.823 11.473 0 3.212 1.823 3.212 4.74.054 6.563-3.158 1.823-8.316 1.823-11.473 0z"/></g></g></g></svg>