<svg xmlns="http://www.w3.org/2000/svg" width="35" height="42" viewBox="0 0 35 42"><g><g opacity="1"><path fill="#232323" d="M34.352 24.864v7.606c0 6.544-3.749 9.187-9.4 9.187H10.265c-5.652 0-9.4-2.643-9.4-9.187v-7.606zm-16.739 4.985a.715.715 0 0 0 .713-.717.715.715 0 0 0-.713-.718.715.715 0 0 0-.713.718c0 .395.32.717.713.717zm13.395-5.735H4.218c-1.832-1.082-3.13-2.777-3.337-5.111-.118-1.326.25-3.034 1.29-4.177.24-.262 1.474-1.63 3.801-1.968v1.819c-.845.397-1.582 1.113-1.98 2.282-.422 1.23-.71 2.14-.61 3.12.072.918.83 1.93 2.08 2.419.471.185 1.112.279 1.905.279.984 0 1.85-.15 1.86-.151 1.4-.21 2.937-.408 4.462-.85 2.14-.617 3.222-2.226 2.906-4.226-.359-1.792-1.713-2.575-2.488-2.882-.016-.006-.87-.365-2.946-.391l-.407-.003v-1.542c.416 0 .7.003.7.003h12.32l.698-.003v1.542c-.137 0-.26 0-.407.003-2.074.026-2.929.385-2.945.39-.776.308-2.13 1.09-2.489 2.883-.315 2 .767 3.609 2.907 4.227 1.524.44 3.063.639 4.463.849.01.002.875.15 1.86.15.791 0 1.432-.093 1.905-.278 1.25-.49 2.007-1.501 2.078-2.42.101-.98-.188-1.89-.608-3.12-.399-1.168-1.137-1.885-1.982-2.281v-1.82c2.328.339 3.563 1.707 3.802 1.969 1.041 1.143 1.408 2.85 1.29 4.177-.207 2.334-1.505 4.029-3.338 5.11zM6.722 9.457c1.18.595 1.854.774 3.282.874v6.11a1.18 1.18 0 0 1-1.025 1.076H7.805a1.23 1.23 0 0 1-1.083-1.255zM4.756 1.583C5.552.553 6.473.086 7.568.01c1.214-.084 2.39.336 3.435.958a9.516 9.516 0 0 1 2.573 2.266c-.575.102-1.098.3-1.582.656-.548.369-1.02.976-1.386 1.525-.435.652-.947 1.72-1.009 2.424-.054.599-.026 1.198.183 1.717-.998-.082-1.798-.287-2.69-.741-.823-.42-1.24-.718-1.958-1.521-.656-.735-1.183-1.773-1.254-2.757-.079-1.084.211-2.095.876-2.955zm1.965.6l-.02-.017-.003-.002c-.296-.216-.692-.133-.907.163l-.019.03a.677.677 0 0 0 .122.945l1.654 1.18.003.004a.663.663 0 0 0 .926-.148L8.5 4.3a.677.677 0 0 0-.183-.937zm9.673 5.607c-.039.14-.086.277-.143.412a4.582 4.582 0 0 1-.51.89c-.25.376-.559.708-.913.984a3.113 3.113 0 0 1-2.13.61 2.885 2.885 0 0 1-1.226-.282 1.767 1.767 0 0 1-.86-.762 2.594 2.594 0 0 1-.274-1.768c.148-.836.54-1.593 1.027-2.287.302-.428.633-.834 1.05-1.15.345-.261.752-.43 1.18-.488.332-.055.673-.013.981.122.732.348 1.335.918 1.659 1.66.15.365.241.752.266 1.145.012.308-.024.616-.107.914zm-2.506 1.62c.383-.004.932-.387 1.225-.822.285-.421.52-1.052.406-1.418-.09-.288-.472-.285-.695.02-.283.388-.848 1.164-1.129 1.552-.223.306-.109.67.193.668zm14.627.047zm0 6.805a1.23 1.23 0 0 1-1.087 1.255H26.25a1.182 1.182 0 0 1-1.029-1.075V10.33c1.433-.1 2.11-.28 3.292-.874zm-.38-7.446c-.892.454-1.693.659-2.69.74.208-.518.236-1.117.183-1.716-.062-.703-.574-1.772-1.009-2.424-.366-.55-.839-1.156-1.386-1.525a3.678 3.678 0 0 0-1.582-.656A9.516 9.516 0 0 1 24.224.969C25.27.347 26.445-.073 27.66.01c1.095.075 2.016.542 2.812 1.572.664.86.954 1.87.876 2.955-.07.984-.598 2.022-1.255 2.757-.718.803-1.134 1.102-1.958 1.52zm-1.386-4.478c.216.297.63.363.926.148l.004-.003 1.654-1.181a.678.678 0 0 0 .122-.945l-.02-.03c-.215-.296-.61-.38-.906-.163l-.004.002-.019.017-1.597 1.18a.678.678 0 0 0-.183.937zm-6.105-.267c.308-.135.65-.177.983-.122.428.059.835.227 1.181.488.418.316.75.722 1.052 1.15.488.694.88 1.45 1.028 2.287.122.603.025 1.23-.274 1.768a1.766 1.766 0 0 1-.86.762 2.897 2.897 0 0 1-1.228.282 3.121 3.121 0 0 1-2.134-.61 4.214 4.214 0 0 1-.915-.983 4.576 4.576 0 0 1-.51-.891 3.415 3.415 0 0 1-.145-.412 2.942 2.942 0 0 1-.106-.914 3.58 3.58 0 0 1 .266-1.144c.324-.743.93-1.313 1.662-1.661zm-.936 3.099c-.115.366.12.997.405 1.418.294.435.842.818 1.226.822.301.003.416-.362.193-.668a878.13 878.13 0 0 0-1.129-1.551c-.224-.306-.605-.31-.695-.021z"/></g></g></svg>
