<svg xmlns="http://www.w3.org/2000/svg" width="38" height="42" viewBox="0 0 38 42"><g><g opacity="1"><g><g opacity="1"><path fill="#0091ff" d="M32.634 28.558a.654.654 0 0 1-.232-.045c-.327-.12-.517-.484-.394-.8 0 0 .018-.055.056-.147.019-.051 1.831-4.306 1.228-9.486-.031-.312-.144-.802-.197-1.085-.179-.894-.439-1.517-.179-2.813.047-.201.09-.404.146-.593.215-.831.39-1.554-.111-2.638-2.048-4.416-7.056-8.322-11.054-9.02-1.479-.261-2.591-.338-3.409-.338-1.041 0-1.605.126-1.842.163-.836.144-1.666.347-2.441.565-.383.115-.759.235-1.119.378-.364.133-.711.283-1.048.442l-.127.055-.052.025s-.004.009-.006.009l-.018.008-.033.014c-.086.048-.174.089-.251.137-.09.042-.174.088-.258.131l-.127.064-.112.064c-.15.086-.303.171-.453.259-.144.091-.29.183-.431.267-.572.37-1.093.748-1.549 1.138-.232.191-.449.395-.653.581-.197.197-.403.377-.567.581-.361.374-.652.76-.905 1.1-.138.175-.258.36-.38.543-.103.162-.201.32-.294.484a4.67 4.67 0 0 0-.244.484 9.517 9.517 0 0 1-.242.472c-.033.068-.076.145-.108.222-.074.143-.153.29-.246.416a1.237 1.237 0 0 1-.415.344 1.095 1.095 0 0 1-.609.087 1.1 1.1 0 0 1-.758-.431 1.128 1.128 0 0 1-.22-.659c0-.034.004-.067.004-.105.025-.245.14-.451.248-.627.053-.076.108-.168.19-.269.115-.177.236-.354.362-.529.032-.05.082-.104.123-.157.254-.361.515-.722.8-1.065.103-.12.206-.249.312-.372.158-.175.325-.372.514-.565l.277-.304c.095-.097.195-.196.299-.297.106-.109.202-.217.317-.316.111-.101.221-.21.337-.319.236-.204.475-.429.747-.636.52-.433 1.105-.842 1.746-1.234a10.455 10.455 0 0 1 1.01-.589l.125-.074.137-.067c.081-.038.161-.084.252-.126l.264-.129.081-.039.069-.031.14-.061C12.845.94 14.358.524 16.211.2c.276-.048 1.145-.2 2.41-.2.855 0 1.892.07 3.048.289 5.345 1.003 10.379 5.254 12.602 10.047.726 1.562.434 2.694.197 3.611-.045.183-.092.351-.119.525-.213 1.016-.094 1.65.07 2.45.06.306.12.612.167.955.763 5.403-1.302 10.041-1.407 10.278-.119.264-.317.403-.545.403"/></g><g opacity="1"><path fill="#0091ff" d="M37.657 25.454c-.12.619-.5 1.08-.876 1.08a.458.458 0 0 1-.083-.008.711.711 0 0 0-.103-.017l-.014.055c-.149.593-.37 1.184-.57 1.773-.697 1.998-1.687 3.84-2.945 5.609-1.263 1.765-2.82 3.337-4.609 4.553-1.785 1.224-4.072 2.061-6.092 2.496-1.002.223-2.012.335-2.999.395-.24.004-.491.014-.733.017h-.367c-.115-.003-.234-.007-.351-.007-.493-.01-.969-.043-1.439-.098a16.827 16.827 0 0 1-5.141-1.368l-.141-.068-.068-.036-.081-.038c-.092-.039-.176-.081-.264-.123a2.86 2.86 0 0 1-.253-.135l-.137-.058-.125-.078a16.045 16.045 0 0 1-.522-.284c-.165-.098-.329-.202-.487-.293-.641-.4-1.226-.814-1.746-1.243-.272-.204-.511-.431-.748-.637-.116-.109-.225-.215-.336-.322-.116-.096-.211-.209-.318-.312-.103-.102-.203-.201-.299-.302-.098-.101-.184-.2-.276-.302a8.543 8.543 0 0 1-.515-.569 16.27 16.27 0 0 1-1.111-1.429c-.041-.049-.092-.109-.123-.159a17.29 17.29 0 0 1-.362-.531c-.082-.099-.137-.187-.191-.267-.107-.176-.222-.382-.248-.627 0-.036-.004-.071-.004-.105 0-.221.073-.456.221-.663.188-.24.456-.395.758-.429a.933.933 0 0 1 .148-.012c.166 0 .326.042.46.105.174.078.308.207.415.336.094.132.172.275.246.42.033.08.075.156.109.227.084.15.166.303.242.468.072.165.147.326.243.483.094.166.191.326.295.482.122.185.241.366.38.545.253.346.544.724.904 1.102.164.197.37.382.568.583.204.184.42.392.653.571.456.397.976.774 1.549 1.14.14.088.287.18.43.273.151.084.303.173.453.255l.113.072.127.063c.084.039.168.08.258.126.077.046.165.089.251.135l.033.016.017.01h.006l.053.032.127.059c.337.158.683.299 1.048.438.359.143.735.263 1.119.372.774.226 1.595.375 2.44.476.431.045.867.08 1.294.091.117.01.237.01.35.01H18.621c.219 0 .45 0 .677-.014a17.225 17.225 0 0 0 2.73-.337c1.832-.383 3.924-1.127 5.556-2.227 1.631-1.095 3.075-2.528 4.257-4.161 1.178-1.622 2.125-3.345 2.789-5.219.013-.064.037-.104.052-.16.513-1.423 1.712-5.378 1.079-9.851a13.053 13.053 0 0 0-.174-.971c-.152-.802-.271-1.377-.071-2.33.03-.126.061-.258.082-.382.482.491 1.053 1.381 1.262 1.983.842 2.428.715 5.321.245 7.977.028 0 .053 0 .061.004h.004c.399.08.624.675.487 1.34"/></g><g opacity="1"><path fill="#0091ff" d="M3.335 13.86c-.979 0-1.775.797-1.775 1.776s.796 1.776 1.775 1.776c.979 0 1.776-.797 1.776-1.776s-.797-1.776-1.776-1.776"/></g><g opacity="1"><path fill="#0091ff" d="M6.713 10.666c.208.641.274 1.142.274 1.887v16.185c0 .745-.066 1.246-.274 1.887a5.662 5.662 0 0 1-.453.985c-.013-.024-.026-.053-.039-.076l-.032-.066c-.01-.021-.023-.043-.033-.067l-.015-.037-.022-.044a4.179 4.179 0 0 0-.322-.545l-.02-.03-.025-.029a2.14 2.14 0 0 0-.776-.61 2.079 2.079 0 0 0-1.17-.169 2.084 2.084 0 0 0-1.392.802 2.182 2.182 0 0 0-.433 1.279l.003.106v.052l.006.05c.051.49.28.864.39 1.044l.047.074c.02.03.048.065.07.098a2.858 2.858 0 0 1-.54-.184 3.118 3.118 0 0 1-.829-.559s-.193-.201-.25-.268a3.24 3.24 0 0 1-.6-1.08 3.738 3.738 0 0 1-.142-.606c-.092-.578-.075-1.543-.075-1.543V12.089s-.017-.963.075-1.542c.04-.247.086-.438.142-.607a3.25 3.25 0 0 1 .6-1.08c.057-.066.25-.267.25-.267.25-.218.436-.373.828-.559.26-.121.514-.182.75-.224-.03.047-.065.093-.095.139-.062.08-.113.155-.159.224l-.036.053-.019.028-.018.028c-.11.181-.338.555-.389 1.044l-.005.051v.052l-.002.028-.002.078a2.102 2.102 0 0 0 1.872 2.084 2.11 2.11 0 0 0 1.131-.172c.327-.165.58-.373.786-.637a4.03 4.03 0 0 0 .347-.572l.02-.037.014-.038c.012-.027.026-.052.04-.077l.03-.063c.038-.069.073-.142.11-.214.133.248.284.556.382.857zM5.027 22.924a5.14 5.14 0 0 0-.03-.689c-.058-.416-.213-.763-.465-1.032-.656-.695-1.814-.696-2.468.001-.252.266-.408.614-.464 1.031a5.52 5.52 0 0 0-.032.776v3.396c0 .179-.002.436.032.674.056.419.212.766.464 1.036.316.334.766.526 1.233.526a1.7 1.7 0 0 0 1.236-.529c.25-.266.405-.613.464-1.035.032-.247.031-.511.03-.771zm-1.69-4.517a2.779 2.779 0 0 0 2.776-2.775 2.779 2.779 0 0 0-2.776-2.777 2.779 2.779 0 0 0-2.775 2.777 2.778 2.778 0 0 0 2.775 2.775z"/></g><g opacity="1"><path fill="#0091ff" d="M3.806 21.884a.682.682 0 0 0-1.012.002c-.105.111-.173.273-.201.48-.026.193-.023.396-.022.615v3.418c-.001.151-.004.354.022.544.028.21.096.372.2.485.258.268.759.268 1.014-.002.104-.111.172-.273.2-.483.027-.201.024-.417.022-.634v-3.384c.002-.153.005-.363-.022-.561a.858.858 0 0 0-.201-.48"/></g><g opacity="1"><path fill="#0091ff" d="M31.707 14.32c.05-.207.096-.422.146-.603.207-.808.373-1.44-.087-2.436l-.17-.374a2.461 2.461 0 0 0-.138-.255c-.047-.093-.09-.19-.137-.267a16.661 16.661 0 0 0-1.154-1.754c-.4-.53-.9-1.013-1.282-1.437-.4-.416-.776-.68-1.125-1-.175-.162-.35-.303-.51-.438-.16-.14-.318-.27-.461-.382-.151-.11-.284-.21-.413-.307-.327-.236-.655-.45-.992-.662a.624.624 0 0 0-.867.176.615.615 0 0 0 .179.864s.054.034.157.11c.053.037.12.08.196.13.04.03.088.057.135.088.037.03.079.056.13.088.093.066.193.14.312.217.114.094.235.195.378.301.129.101.274.217.425.34.144.135.299.276.464.418.32.3.77.657 1.168 1.05.377.367.68.711 1.044 1.215.36.493.73 1.043 1.054 1.632.047.088.086.158.115.233.043.055.077.126.112.2a12.475 12.475 0 0 1 .561 1.528c.059.19.112.377.206.604.157.426.452.76.53.848a.73.73 0 0 1 .024-.128"/></g></g></g></g></svg>
