<svg xmlns="http://www.w3.org/2000/svg" width="31" height="45" viewBox="0 0 31 45"><defs><clipPath id="e45sa"><path d="M0 0h31v45H0z"/></clipPath></defs><g><g opacity="1"><g><g opacity="1"/><g clip-path="url(#e45sa)" opacity="1"><path fill="#0091ff" d="M15.5 42.803a.59.59 0 0 1 .586.59.59.59 0 0 1-.586.593.59.59 0 0 1-.586-.592.59.59 0 0 1 .586-.59zm15.5.033C31 44.464 30.23 45 28.83 45H2.168C.767 45 0 44.464 0 42.836V2.165C0 .537.768 0 2.167 0h26.665C30.232 0 31 .535 31 2.162zM15.496 1.246a.47.47 0 0 0-.469.472c0 .262.21.473.469.473a.47.47 0 0 0 .468-.473.47.47 0 0 0-.468-.472zm0 43.169c.56 0 1.015-.46 1.015-1.026 0-.566-.456-1.025-1.016-1.025-.561 0-1.017.459-1.017 1.025 0 .566.456 1.026 1.017 1.026zm14.35-41.033a.144.144 0 0 0-.143-.145H1.3a.144.144 0 0 0-.143.145v38.234c0 .08.064.144.143.144h28.403a.144.144 0 0 0 .143-.144z"/></g></g></g></g></svg>
