<svg width="13" height="14" viewBox="0 0 13 14" fill="none" xmlns="http://www.w3.org/2000/svg">
<path d="M6.24549 0C3.03864 0 0.40667 2.1568 0.40667 4.78752C0.40667 5.80704 0.803683 6.75712 1.47316 7.53536L1.44922 7.50464L5.18679 12.8163L5.20586 12.8366C5.35649 12.9982 5.50557 13.1285 5.68598 13.2266C5.86638 13.3246 6.09739 13.3866 6.32431 13.3678C6.77776 13.3304 7.04127 13.0728 7.28474 12.8014L7.29991 12.7846L11.4207 7.0192L11.424 7.0144C11.5227 6.868 11.5941 6.72032 11.6552 6.57728C11.9378 6.00917 12.0833 5.4013 12.0835 4.78752C12.0835 2.1568 9.45235 0 6.24549 0ZM6.24549 0.8C8.92222 0.8 11.1105 2.59488 11.1105 4.78752C11.1106 5.29966 10.989 5.80688 10.7524 6.28064L10.7475 6.29056L10.7432 6.30096C10.692 6.42208 10.6364 6.532 10.5722 6.62736L6.49324 12.3339C6.31264 12.5294 6.18672 12.5755 6.2272 12.572C6.24802 12.5704 6.26729 12.5838 6.22272 12.5595C6.1801 12.5365 6.09311 12.4683 5.98996 12.3602L2.28081 7.088L2.26796 7.07312C1.70845 6.42352 1.37974 5.6368 1.37974 4.78752C1.37974 2.59504 3.56877 0.8 6.24549 0.8ZM6.24549 2.056C4.40405 2.056 2.91467 3.27616 2.91467 4.78752C2.91467 6.29888 4.40425 7.51904 6.24549 7.51904C8.08674 7.51904 9.57554 6.29872 9.57554 4.78752C9.57554 3.27616 8.08674 2.056 6.24549 2.056V2.056ZM6.24549 2.856C7.57218 2.856 8.60247 3.7016 8.60247 4.78752C8.60247 5.87344 7.57238 6.71904 6.24549 6.71904C4.91861 6.71904 3.88774 5.87328 3.88774 4.78752C3.88774 3.7016 4.91881 2.856 6.24549 2.856V2.856Z" fill="black"/>
</svg>
