<svg id="Layer_1" data-name="Layer 1" xmlns="http://www.w3.org/2000/svg" viewBox="0 0 1556.79 1297.32">
  <defs>
    <style>
      .cls-1 {
        fill: #427a15;
      }
    </style>
  </defs>
  <title>Artboard 3</title>
  <path class="cls-1" d="M1183.78,516.73c-11.78-65.35-40.59-119.33-90.67-169.87-105.85-106.86-197.5-34.92-241.53-.34L849.75,348c-4.56,3.58-15.8,11.57-21.74,8.52-18.49-9.48-35.39-87.42-31.08-188.33a20.73,20.73,0,0,0-41.42-1.78,828,828,0,0,0,2.42,96.9c9.63,108.79,40.89,124.83,51.16,130.09,13.8,7.08,36.49,10.6,66.25-12.79l1.83-1.44c45-35.33,106.63-83.71,186.49-3.09,43.9,44.3,69.11,91.35,79.32,148.05,11.22,62.27,3.4,136.89-23.21,222.43a72.22,72.22,0,0,0-40.84-15.19c-23.94-1.09-48,9.92-67.75,31s-63.52,15-99.6-13.85c-30-24-66.72-24.31-93.92-19.7q19.77-39.43,27.07-94.42c.48-3.58,1-7.22,1.57-10.93,7-47.36,16.62-112.24-82.28-180.51-35-24.18-65.32-45.06-63-275.41a20.72,20.72,0,0,0-20.51-20.94h-.22A20.73,20.73,0,0,0,659.58,167c-2.38,235.39,29,274.13,80.9,310,77.66,53.61,71.13,97.69,64.81,140.32-.58,3.92-1.15,7.78-1.65,11.57-8.14,61.66-29.18,105.24-62.53,129.53C687.3,797.61,610,783.52,553.49,773.23c-9.29-1.69-18.06-3.29-26-4.49-35.38-5.37-66.59,3.45-92.78,26.23-86,74.78-84.63,281.27-84.53,290a20.73,20.73,0,0,0,20.72,20.49h.24a20.72,20.72,0,0,0,20.49-21c-.62-54.3,10.8-206.54,70.28-258.27,16.82-14.63,36.24-20,59.36-16.53,7.29,1.11,15.77,2.65,24.75,4.29,60.25,11,151.29,27.57,219.46-22.1a154.78,154.78,0,0,0,16-13.43,20.63,20.63,0,0,0,14.49-.85c.55-.25,56-23.74,89.65,3.16,29.22,23.38,62.34,35.3,92.12,35.3,25,0,47.63-8.4,63.62-25.46,11.15-11.89,24.18-18.41,35.64-17.9,9.91.45,19.08,6,27.28,16.48.2.27.43.5.64.75q-3.62,9.84-7.53,19.83c-30.23,77-100.76,175.53-200.05,199.91-81.15,19.93-169.8-11.22-263.47-92.58-19.47-16.91-71.19-61.82-119.6-40.5C470,896.13,446.93,964,443.76,1084.21a20.72,20.72,0,0,0,20.17,21.26h.56a20.71,20.71,0,0,0,20.7-20.18c1.21-45.8,8.09-154.13,45.84-170.75,24.36-10.71,63,22.84,75.72,33.87,104.43,90.7,205.54,124.86,300.53,101.54,53.92-13.24,103.41-44.47,147.11-92.84,33.93-37.55,62.92-84.5,81.64-132.19C1183.66,703.58,1199.28,602.77,1183.78,516.73Z"/>
</svg>
