<?xml version="1.0" encoding="UTF-8"?>
<svg width="26px" height="36px" viewBox="0 0 26 36" version="1.1" xmlns="http://www.w3.org/2000/svg" xmlns:xlink="http://www.w3.org/1999/xlink">
    <!-- Generator: Sketch 61 (89581) - https://sketch.com -->
    <title>np_next-arrow_2984809_FFFFFF</title>
    <desc>Created with Sketch.</desc>
    <g id="Design-Concepts" stroke="none" stroke-width="1" fill="none" fill-rule="evenodd">
        <g id="Financial-Advisors" transform="translate(-805.000000, -501.000000)" fill="#C5CDDF" fill-rule="nonzero">
            <g id="np_next-arrow_2984809_FFFFFF" transform="translate(818.000000, 519.000000) rotate(-270.000000) translate(-818.000000, -519.000000) translate(800.000000, 506.000000)">
                <path d="M35.431284,14.274244 L23.6362103,25.4628435 C23.2565986,25.8214789 22.7833706,26 22.3101034,26 C21.8368362,26 21.361913,25.8214872 20.9839965,25.4628435 C20.226464,24.74717 20.226464,23.6278572 20.9839965,22.9121837 L29.5585872,14.8114005 L1.89468122,14.8114005 C0.852883276,14.8114005 0,14.0056863 0,13.021414 C0,12.0371417 0.852839697,11.2314275 1.89468122,11.2314275 L29.5572798,11.2314275 L20.9369313,3.08741489 C20.1793987,2.37174141 20.1793987,1.25242859 20.9369313,0.536755109 C21.6944639,-0.17891837 22.8792443,-0.17891837 23.6367769,0.536755109 L35.4318506,11.7253546 C36.1893831,12.4394224 36.1893831,13.6037762 35.4318506,14.2744087 L35.431284,14.274244 Z" id="Path"></path>
            </g>
        </g>
    </g>
</svg>