<svg xmlns="http://www.w3.org/2000/svg" width="23" height="46" viewBox="0 0 23 46"><g><g><path fill="#0091ff" d="M0 3.926C0 1.328 1.444 0 3.99 0h15.02C21.556 0 23 1.328 23 3.944v38.113C23 44.672 21.557 46 19.01 46H3.99C1.444 46 0 44.672 0 42.039zm17.572-2.713a.967.967 0 0 0-.247.022.417.417 0 0 0-.308.301c-.022.08-.022.148-.028.251a1.188 1.188 0 0 1-.076.384.998.998 0 0 1-.721.608 1.533 1.533 0 0 1-.265.03c-.084.002-.198.002-.31.002H7.395c-.111 0-.227 0-.31-.002a1.558 1.558 0 0 1-.266-.03 1.007 1.007 0 0 1-.721-.608 1.187 1.187 0 0 1-.075-.384c-.007-.103-.006-.171-.027-.25a.418.418 0 0 0-.309-.302.972.972 0 0 0-.248-.022H4.375c-.412 0-.662 0-.895.015a3.34 3.34 0 0 0-.614.095c-.377.1-.706.282-.97.544a2.103 2.103 0 0 0-.55.958c-.05.186-.08.382-.096.606-.015.231-.016.478-.016.885v37.363c0 .407.001.652.016.884.016.224.045.42.096.606.102.372.286.696.55.958.264.26.593.443.97.544.19.05.388.078.614.094.233.014.483.015.895.015h14.263c.412 0 .66 0 .895-.015a3.34 3.34 0 0 0 .615-.094c.377-.1.704-.284.969-.544.264-.262.449-.586.55-.958a3.2 3.2 0 0 0 .096-.606c.015-.232.015-.477.015-.884V4.316c0-.407 0-.654-.015-.885a3.199 3.199 0 0 0-.096-.606 2.103 2.103 0 0 0-.55-.958 2.138 2.138 0 0 0-.97-.544 3.34 3.34 0 0 0-.614-.095c-.234-.015-.483-.015-.895-.015zm-2.988-.147a.566.566 0 1 0 0 1.134c.316 0 .57-.252.57-.567a.568.568 0 0 0-.57-.567zm-4.49.85h2.81c.046 0 .088 0 .131-.01a.279.279 0 0 0 .233-.276.28.28 0 0 0-.114-.226.295.295 0 0 0-.119-.049.661.661 0 0 0-.131-.01h-2.81a.684.684 0 0 0-.134.01.286.286 0 0 0-.116.049.28.28 0 0 0 .117.503c.044.01.086.01.132.01z"/></g></g></svg>