<svg xmlns="http://www.w3.org/2000/svg" width="42" height="42" viewBox="0 0 42 42"><g><g opacity="1"><path fill="#0091ff" d="M31.069 0c.381.009.771.012 1.154.019.837.022 1.679.071 2.498.223a8.36 8.36 0 0 1 2.385.783 8.094 8.094 0 0 1 2.024 1.471 8.055 8.055 0 0 1 1.475 2.028c.385.755.634 1.542.775 2.381.154.827.207 1.666.234 2.499.002.387.002.768.002 1.152.014.452.014.907.014 1.365v17.788c0 .464 0 .913-.014 1.365 0 .387 0 .768-.002 1.155-.027.836-.08 1.675-.234 2.502a8.225 8.225 0 0 1-.775 2.384 7.923 7.923 0 0 1-1.475 2.016 7.817 7.817 0 0 1-2.024 1.474 8.4 8.4 0 0 1-2.385.787c-.819.148-1.661.197-2.498.222-.383.01-.773.013-1.154.013-.449.003-.905.003-1.353.003H11.92c-.458 0-.911 0-1.367-.003-.384 0-.762-.003-1.151-.013-.831-.025-1.671-.074-2.506-.222a8.336 8.336 0 0 1-2.375-.787 7.728 7.728 0 0 1-2.023-1.474 7.703 7.703 0 0 1-1.472-2.016 8.184 8.184 0 0 1-.784-2.384c-.151-.827-.203-1.666-.222-2.502-.012-.387-.014-.768-.02-1.155V10.556c.006-.384.008-.765.02-1.152.019-.833.071-1.672.222-2.499a8.107 8.107 0 0 1 .784-2.381 8 8 0 0 1 3.495-3.499A8.297 8.297 0 0 1 6.896.242C7.731.09 8.571.041 9.402.019c.389-.007.767-.01 1.151-.019zM13.648 16.819c.506.043 1.004-.209 1.337-.499.375-.327.57-.697.671-.954.121-.305.197-.668.154-1.034a2.17 2.17 0 0 0-.932.287 2.528 2.528 0 0 0-.848.782c-.25.364-.449.895-.382 1.418zm4.407 5.628a2.367 2.367 0 0 1-1.263-3.102c.146-.333.402-.763.981-1.136a2.43 2.43 0 0 0-.826-.751 2.568 2.568 0 0 0-1.255-.327c-.927 0-1.51.501-1.969.501-.26 0-.509-.148-.914-.293-.383-.136-.657-.173-.87-.173-.341 0-.643.074-.912.186a2.729 2.729 0 0 0-1.015.751c-.56.659-.745 1.503-.745 2.304 0 .445.077 1.338.486 2.321a7.175 7.175 0 0 0 1.047 1.774c.46.562.845.821 1.277.821.649 0 .967-.445 1.807-.445.335 0 .611.088.852.191.246.104.521.239.873.239.433 0 .708-.188.906-.356.34-.288.699-.812.864-1.072a6.294 6.294 0 0 0 .676-1.433zm2.734-7.223v1.916h-1.177v1.316h1.177v4.639c0 1.57.639 2.185 2.278 2.185.369 0 .738-.03.923-.077v-1.307a5.17 5.17 0 0 1-.546.038c-.677 0-.985-.324-.985-1.016v-4.462h1.539V17.14h-1.539v-1.916zm11.574 1.916h-1.738l-2.032 6.47h-.03l-2.032-6.47h-1.769l2.916 8.094h1.785z"/></g></g></svg>
