<?xml version="1.0" encoding="UTF-8"?>
<svg width="113px" height="225px" viewBox="0 0 113 225" version="1.1" xmlns="http://www.w3.org/2000/svg" xmlns:xlink="http://www.w3.org/1999/xlink">
    <!-- Generator: Sketch 61 (89581) - https://sketch.com -->
    <title>5 Passive</title>
    <desc>Created with Sketch.</desc>
    <g id="Wireframes" stroke="none" stroke-width="1" fill="none" fill-rule="evenodd">
        <g id="02-Repair" transform="translate(-909.000000, -1677.000000)" stroke-width="0.5">
            <g id="Group-8" transform="translate(120.000000, 768.000000)">
                <g id="Group-10">
                    <g id="Group-21-Copy-6" transform="translate(736.000000, 822.000000)">
                        <g id="iPhone-8-Plus" transform="translate(53.000000, 87.000000)">
                            <g id="Group-11">
                                <g id="5-Passive">
                                    <g id="Body">
                                        <rect id="Outside" stroke="#333333" x="1.1895004" y="0.25" width="110.126172" height="224.040595" rx="15.0320064"></rect>
                                        <rect id="Inside" stroke="#CCCCCC" x="2.59875099" y="1.6592506" width="107.307671" height="221.222094" rx="14.092506"></rect>
                                        <path d="M111.580797,43.2321432 L111.580797,57.7641495 L111.800547,57.7641495 C112.05163,57.7641495 112.255173,57.5606068 112.255173,57.3095242 L112.255173,43.6867685 C112.255173,43.4356858 112.05163,43.2321432 111.800547,43.2321432 L111.580797,43.2321432 Z" id="Botton-4" stroke="#333333"></path>
                                        <path d="M0.924375496,62.5826507 L0.924375496,55.0826507 L0.704625298,55.0826507 C0.453542679,55.0826507 0.25,55.2861934 0.25,55.537276 L0.25,62.1280254 C0.25,62.379108 0.453542679,62.5826507 0.704625298,62.5826507 L0.924375496,62.5826507 Z" id="Botton-3" stroke="#333333"></path>
                                        <path d="M0.924375496,50.7321432 L0.924375496,43.2321432 L0.704625298,43.2321432 C0.453542679,43.2321432 0.25,43.4356858 0.25,43.6867685 L0.25,50.2775179 C0.25,50.5286005 0.453542679,50.7321432 0.704625298,50.7321432 L0.924375496,50.7321432 Z" id="Botton-2" stroke="#333333"></path>
                                        <path d="M0.924375496,34.7463898 L0.924375496,26.7908862 L0.704625298,26.7908862 C0.453542679,26.7908862 0.25,26.9944289 0.25,27.2455115 L0.25,34.2917645 C0.25,34.5428471 0.453542679,34.7463898 0.704625298,34.7463898 L0.924375496,34.7463898 Z" id="Botton-1" stroke="#333333"></path>
                                    </g>
                                    <g id="Accessories-" transform="translate(35.231265, 6.576503)">
                                        <circle id="Sensor" stroke="#CCCCCC" cx="21.0213214" cy="1.05693795" r="1"></circle>
                                        <g id="Camera" transform="translate(0.000000, 5.402127)" stroke="#CCCCCC">
                                            <circle id="Outside" cx="1.87900079" cy="1.87900079" r="1.62900079"></circle>
                                            <circle id="Inside" cx="1.87900079" cy="1.87900079" r="1"></circle>
                                        </g>
                                        <rect id="Speaker" stroke="#CCCCCC" x="11.0542546" y="6.59162768" width="19.9341336" height="1.37900079" rx="0.689500397"></rect>
                                        <g id="Botton" transform="translate(13.387881, 195.885833)">
                                            <circle id="Outside" stroke="#333333" cx="7.86831582" cy="7.86831582" r="7.61831582"></circle>
                                            <circle id="Inside" stroke="#CCCCCC" cx="7.86831582" cy="7.86831582" r="6.67881543"></circle>
                                        </g>
                                    </g>
                                    <rect id="Screen_414x736" stroke="#333333" fill="#E3E3E3" x="8.00087827" y="26.0862609" width="96.7382911" height="172.368073"></rect>
                                </g>
                            </g>
                        </g>
                    </g>
                </g>
            </g>
        </g>
    </g>
</svg>