<?xml version="1.0" encoding="UTF-8"?>
<svg width="139px" height="270px" viewBox="0 0 139 270" version="1.1" xmlns="http://www.w3.org/2000/svg" xmlns:xlink="http://www.w3.org/1999/xlink">
    <!-- Generator: Sketch 61 (89581) - https://sketch.com -->
    <title>XR Passive</title>
    <desc>Created with Sketch.</desc>
    <g id="Wireframes" stroke="none" stroke-width="1" fill="none" fill-rule="evenodd">
        <g id="02-Repair" transform="translate(-408.000000, -810.000000)" stroke-width="0.5">
            <g id="Group-8" transform="translate(120.000000, 768.000000)">
                <g id="Group-10">
                    <g id="Group-19" transform="translate(248.000000, 0.000000)">
                        <g id="iPhone-XS" transform="translate(40.000000, 42.000000)">
                            <g id="XR-Passive">
                                <g id="Body">
                                    <path d="M137.392857,67.5969388 L137.392857,100.158163 L137.755102,100.158163 C138.124231,100.158163 138.423469,99.858925 138.423469,99.4897959 L138.423469,68.2653061 C138.423469,67.896177 138.124231,67.5969388 137.755102,67.5969388 L137.392857,67.5969388 Z" id="Botton-4" stroke="#333333"></path>
                                    <path d="M1.28061224,106.892857 L1.28061224,86.5765306 L0.918367347,86.5765306 C0.549238254,86.5765306 0.25,86.8757689 0.25,87.244898 L0.25,106.22449 C0.25,106.593619 0.549238254,106.892857 0.918367347,106.892857 L1.28061224,106.892857 Z" id="Botton-3" stroke="#333333"></path>
                                    <path d="M1.28061224,81.1785714 L1.28061224,60.8622449 L0.918367347,60.8622449 C0.549238254,60.8622449 0.25,61.1614832 0.25,61.5306122 L0.25,80.5102041 C0.25,80.8793332 0.549238254,81.1785714 0.918367347,81.1785714 L1.28061224,81.1785714 Z" id="Botton-2" stroke="#333333"></path>
                                    <path d="M1.28061224,51.1785714 L1.28061224,40.6581633 L0.918367347,40.6581633 C0.549238254,40.6581633 0.25,40.9574015 0.25,41.3265306 L0.25,50.5102041 C0.25,50.8793332 0.549238254,51.1785714 0.918367347,51.1785714 L1.28061224,51.1785714 Z" id="Botton-1" stroke="#333333"></path>
                                    <rect id="Outside" stroke="#333333" x="1.4744898" y="0.25" width="135.72449" height="269.5" rx="22.0408163"></rect>
                                    <rect id="Inside" stroke="#CCCCCC" x="3.92346939" y="2.69897959" width="130.826531" height="264.602041" rx="19.5918367"></rect>
                                </g>
                                <g id="Screen_375x812" transform="translate(5.510204, 4.285714)">
                                    <path d="M17.6020408,6.67857143 C11.5691753,6.67857143 6.67857143,11.5691753 6.67857143,17.6020408 L6.67857143,242.755102 C6.67857143,249.379701 12.0488702,254.75 18.6734694,254.75 L108.979592,254.75 C115.604191,254.75 120.97449,249.379701 120.97449,242.755102 L120.97449,17.6020408 C120.97449,11.5691753 116.083886,6.67857143 110.05102,6.67857143 L101.020408,6.67857143 C99.975012,6.67857143 99.127551,7.52603244 99.127551,8.57142857 L99.127551,8.64795918 C99.127551,13.454696 95.3082906,16.1109694 90.3061224,16.1109694 L37.3469388,16.1109694 C32.3511098,16.1109694 28.5255102,13.4523928 28.5255102,8.64795918 L28.5255102,8.26530612 C28.5255102,7.38897675 27.8151049,6.67857143 26.9387755,6.67857143 L17.6020408,6.67857143 Z" id="Inside" stroke="#333333" fill="#E3E3E3"></path>
                                    <rect id="Outside" stroke="#CCCCCC" x="0.25" y="0.25" width="127.153061" height="260.928571" rx="18.3673469"></rect>
                                </g>
                                <g id="Accessories" transform="translate(46.836735, 11.020408)">
                                    <rect id="Botton" stroke="#333333" x="0.25" y="244.535714" width="44.5" height="1.33673469" rx="0.668367347"></rect>
                                    <rect id="Speaker" stroke="#CCCCCC" x="14.3316327" y="1.16836735" width="16.3367347" height="1.94897959" rx="0.974489796"></rect>
                                    <g id="Camera" transform="translate(35.204082, 0.000000)" stroke="#CCCCCC">
                                        <circle id="Outside" cx="2.14285714" cy="2.14285714" r="1.89285714"></circle>
                                        <circle id="Inside" cx="2.14285714" cy="2.14285714" r="1"></circle>
                                    </g>
                                </g>
                            </g>
                        </g>
                    </g>
                </g>
            </g>
        </g>
    </g>
</svg>