<svg width="628" height="138" xmlns="http://www.w3.org/2000/svg" xmlns:xlink="http://www.w3.org/1999/xlink" xmlns:svgjs="http://svgjs.com/svgjs" viewBox="1049 2 628 138"><svg x="1371" y="2" width="171" height="100" overflow="visible"><svg width="171" height="100" xmlns="http://www.w3.org/2000/svg" xmlns:xlink="http://www.w3.org/1999/xlink" xmlns:svgjs="http://svgjs.com/svgjs" viewBox="0 0.218 171 99.565"><svg xmlns="http://www.w3.org/2000/svg" xmlns:xlink="http://www.w3.org/1999/xlink" width="171" height="100" viewBox="2.994 70 170.025 98.997" fill="#fff"><path fill="#86B13E" paint-order="stroke fill markers" fill-rule="evenodd" d="M85.24 168.948c-46.925-1.567-83.727-39.972-82.2-85.78C4.568 70 43.847 70 90.773 70s83.728 0 82.2 18.841c-1.527 45.808-40.807 81.673-87.732 80.107z"/></svg></svg></svg>
  <svg x="1550" y="8" width="91" height="91" overflow="visible"><svg width="91" height="91" xmlns="http://www.w3.org/2000/svg" xmlns:xlink="http://www.w3.org/1999/xlink" xmlns:svgjs="http://svgjs.com/svgjs" viewBox="0 0.006 91 90.987"><svg xmlns="http://www.w3.org/2000/svg" xmlns:xlink="http://www.w3.org/1999/xlink" width="91" height="91" viewBox="2.006 2.012 89.992 89.979" fill="#fff"><path fill="#86B13E" paint-order="stroke fill markers" fill-rule="evenodd" d="M45.496 91.966C20.66 91.14 1.2 70.34 2.032 45.506c.832-24.832 21.64-44.294 46.476-43.468 24.837.825 44.296 21.625 43.464 46.458-.831 24.834-21.64 44.295-46.476 43.47z"/></svg></svg></svg>
  <svg x="1196" y="2" width="171" height="138" overflow="visible"><svg width="171" height="138" xmlns="http://www.w3.org/2000/svg" xmlns:xlink="http://www.w3.org/1999/xlink" xmlns:svgjs="http://svgjs.com/svgjs" viewBox="0 0.109 171 137.782"><svg xmlns="http://www.w3.org/2000/svg" xmlns:xlink="http://www.w3.org/1999/xlink" width="171" height="138" viewBox="2.994 32 170.025 136.997" fill="#fff"><path fill="#86B13E" paint-order="stroke fill markers" fill-rule="evenodd" d="M85.24 168.947c-46.925-1.566-83.727-39.97-82.2-85.778C4.568 37.36 43.847 32 90.773 32s83.728 11.034 82.2 56.841c-1.527 45.808-40.807 81.673-87.732 80.106z"/></svg></svg></svg>
  <svg x="1049" y="26" width="62" height="60" overflow="visible"><svg width="62" height="60" xmlns="http://www.w3.org/2000/svg" xmlns:xlink="http://www.w3.org/1999/xlink" xmlns:svgjs="http://svgjs.com/svgjs" viewBox="0.008 0 61.983 60"><svg xmlns="http://www.w3.org/2000/svg" xmlns:xlink="http://www.w3.org/1999/xlink" width="62" height="60" viewBox="1.998 1.974 61.009 59.057" fill="#fff"><path fill="#86B13E" paint-order="stroke fill markers" fill-rule="evenodd" d="M31.51 61.013C14.672 60.455 1.466 46.79 2.014 30.493 2.563 14.194 16.657 1.433 33.495 1.99c16.838.557 30.044 14.222 29.495 30.52-.548 16.298-14.642 29.059-31.48 28.502z"/></svg></svg></svg>
  <svg x="1070" y="8" width="253" height="123" overflow="visible"><svg width="253" height="123" xmlns="http://www.w3.org/2000/svg" xmlns:xlink="http://www.w3.org/1999/xlink" xmlns:svgjs="http://svgjs.com/svgjs" viewBox="0 0.281 253 122.438"><svg xmlns="http://www.w3.org/2000/svg" xmlns:xlink="http://www.w3.org/1999/xlink" width="253" height="123" viewBox="8.95 133 250.949 121.445" fill="#fff"><path fill="#649621" paint-order="stroke fill markers" fill-rule="evenodd" d="M119.115 253.423C50.342 244.76 1.445 183.318 9.9 133h139.834c68.773 0 117.67 0 109.214 14.568-8.455 67.127-71.06 114.52-139.833 105.855z"/></svg></svg></svg>
  <svg x="1537" y="5" width="140" height="49" overflow="visible"><svg width="140" height="49" xmlns="http://www.w3.org/2000/svg" xmlns:xlink="http://www.w3.org/1999/xlink" xmlns:svgjs="http://svgjs.com/svgjs" viewBox="0 0.32 140 48.36"><svg xmlns="http://www.w3.org/2000/svg" xmlns:xlink="http://www.w3.org/1999/xlink" width="140" height="49" viewBox="6.02 94 138.975 48.006" fill="#fff"><path fill="#649621" paint-order="stroke fill markers" fill-rule="evenodd" d="M67.031 141.433C28.945 136.624 1.865 102.535 6.546 94h137.922c-4.68 25.948-39.35 52.241-77.437 47.433z"/></svg></svg></svg>
  <svg x="1443" y="5" width="140" height="120" overflow="visible"><svg width="140" height="120" xmlns="http://www.w3.org/2000/svg" xmlns:xlink="http://www.w3.org/1999/xlink" xmlns:svgjs="http://svgjs.com/svgjs" viewBox="0 0.061 140 119.879"><svg xmlns="http://www.w3.org/2000/svg" xmlns:xlink="http://www.w3.org/1999/xlink" width="140" height="120" viewBox="6.02 23 138.974 119" fill="#fff"><path fill="#649621" paint-order="stroke fill markers" fill-rule="evenodd" d="M67.031 141.433c-38.086-4.809-65.166-38.898-60.485-76.14C11.226 28.05 45.896 23 83.983 23c38.086 0 65.166 22.463 60.485 59.706-4.68 37.242-39.35 63.536-77.437 58.727z"/></svg></svg></svg>
  <svg x="1240" y="8" width="253" height="110" overflow="visible"><svg width="253" height="110" xmlns="http://www.w3.org/2000/svg" xmlns:xlink="http://www.w3.org/1999/xlink" xmlns:svgjs="http://svgjs.com/svgjs" viewBox="0 0.334 253 109.332"><svg xmlns="http://www.w3.org/2000/svg" width="253" height="110" viewBox="8.95 146 250.949 108.445" fill="#fff"><path fill="#649621" paint-order="stroke fill markers" fill-rule="evenodd" d="M119.115 253.423C50.342 244.76 1.445 183.318 9.9 146h139.834c68.773 0 117.67 0 109.214 1.568-8.455 67.127-71.06 114.52-139.833 105.855z"/></svg></svg></svg>
</svg>
