<svg width="24" height="24" fill="none" xmlns="http://www.w3.org/2000/svg"><path d="M22.231 1.762c-2.341-2.341-6.177-2.341-8.519 0l-4.6 4.6a6.891 6.891 0 0 1 4.783.365l2.391-2.39a2.384 2.384 0 0 1 3.371 3.37l-3.005 3.006-1.977 1.976c-.93.93-2.44.93-3.37 0L8.73 15.263a5.87 5.87 0 0 0 2.026 1.329 6.08 6.08 0 0 0 5.995-.88c.166-.133.349-.283.498-.45l3.106-3.104 1.876-1.877c2.358-2.341 2.358-6.16 0-8.519z" fill="#AE2573"/><path d="M9.993 17.372L7.7 19.664c-.93.93-2.441.93-3.371 0a2.385 2.385 0 0 1 0-3.371l4.982-4.982c.93-.93 2.44-.93 3.37 0l2.575-2.574a5.871 5.871 0 0 0-2.026-1.329 6.038 6.038 0 0 0-6.26 1.113c-.084.066-.167.15-.233.216l-4.982 4.982c-2.341 2.341-2.341 6.177 0 8.519 2.342 2.341 6.178 2.341 8.52 0l4.5-4.55c-2.292.53-2.824.465-4.783-.316z" fill="#AE2573"/></svg>