<svg width="56" height="74" viewBox="0 0 56 74" fill="none" xmlns="http://www.w3.org/2000/svg">
<path d="M28 0C12.7005 0 0.25 12.5368 0.25 27.9504C0.25 49.8513 25.3915 72.4645 26.4614 73.4142C26.9023 73.8057 27.4512 74 28 74C28.5488 74 29.0977 73.8057 29.5386 73.4173C30.6085 72.4645 55.75 49.8513 55.75 27.9504C55.75 12.5368 43.2995 0 28 0ZM28 43.1667C19.4993 43.1667 12.5833 36.2507 12.5833 27.75C12.5833 19.2493 19.4993 12.3333 28 12.3333C36.5007 12.3333 43.4167 19.2493 43.4167 27.75C43.4167 36.2507 36.5007 43.1667 28 43.1667Z" fill="#AE2573"/>
</svg>
