<svg xmlns="http://www.w3.org/2000/svg" width="1151" height="699" viewBox="0 0 1151 699"><g><g opacity=".11" transform="matrix(-1 0 0 1 1151 0)"><g opacity=".11"><path fill="#2e3032" d="M1016.881 490.063l.238.133-.238.14v-.273"/></g><g opacity=".11"><path fill="#2e3032" d="M977.974 490.195l1.252-.713v1.436l-1.252-.723"/></g><g opacity=".11"><path fill="#2e3032" d="M1032.81 457.796l1.98-1.137v2.282l-1.98-1.145"/></g><g opacity=".11"><path fill="#2e3032" d="M960 457.2l3.6 1.798-3.6 1.802v-3.6"/></g><g opacity=".11"><path fill="#2e3032" d="M924.335 523.8l.53-.306v.612l-.53-.306"/></g><g opacity=".11"><path fill="#2e3032" d="M1016.4 424.8l3.6 1.799-3.6 1.801v-3.6"/></g><g opacity=".11"><path fill="#2e3032" d="M975.6 427.199l4.8-2.399v4.8l-4.8-2.401"/></g><g opacity=".11"><path fill="#2e3032" d="M919.2 458.399l3.6-2.399v4.8l-3.6-2.401"/></g><g opacity=".11"><path fill="#2e3032" d="M903.6 488.4l3.6 1.797-3.6 1.803v-3.6"/></g><g opacity=".11"><path fill="#2e3032" d="M1073.101 457.449l.598.353-.598.349v-.702"/></g><g opacity=".11"><path fill="#2e3032" d="M1071.6 391.2l3.6 2.401-3.6 2.399v-4.8"/></g><g opacity=".11"><path fill="#2e3032" d="M1030.8 394.799l4.8-3.599v7.2l-4.8-3.601"/></g><g opacity=".11"><path fill="#2e3032" d="M956.4 388.8l9.6 4.801-9.6 4.799v-9.6"/></g><g opacity=".11"><path fill="#2e3032" d="M915.6 393.599l9.6-5.999v12l-9.6-6.001"/></g><g opacity=".11"><path fill="#2e3032" d="M901.2 422.4l8.4 4.799-8.4 4.801v-9.6"/></g><g opacity=".11"><path fill="#2e3032" d="M864 489.6l4.8-2.4v4.8l-4.8-2.4"/></g><g opacity=".11"><path fill="#2e3032" d="M847.2 522l3.6 1.798-3.6 1.802V522"/></g><g opacity=".11"><path fill="#2e3032" d="M866.602 556.204l.796-.465v.922l-.796-.457"/></g><g opacity=".11"><path fill="#2e3032" d="M1090.525 427.798l1.75-1.004v2.012l-1.75-1.008"/></g><g opacity=".11"><path fill="#2e3032" d="M1087.2 362.403l4.8-3.603v7.2l-4.8-3.597"/></g><g opacity=".11"><path fill="#2e3032" d="M1012.8 357.6l9.6 4.8-9.6 4.8v-9.6"/></g><g opacity=".11"><path fill="#2e3032" d="M970.8 362.999l12-6.599v13.2l-12-6.601"/></g><g opacity=".11"><path fill="#2e3032" d="M900 352.8l15.6 8.402L900 369.6v-16.8"/></g><g opacity=".11"><path fill="#2e3032" d="M861.6 427.196l9.6-5.996v12l-9.6-6.004"/></g><g opacity=".11"><path fill="#2e3032" d="M846 454.8l8.4 4.801-8.4 4.799v-9.6"/></g><g opacity=".11"><path fill="#2e3032" d="M810 521.994l4.8-3.594v7.2l-4.8-3.606"/></g><g opacity=".11"><path fill="#2e3032" d="M1128.584 427.78l.032.018-.032.022v-.04"/></g><g opacity=".11"><path fill="#2e3032" d="M1070.4 326.4l8.4 4.801-8.4 4.799v-9.6"/></g><g opacity=".11"><path fill="#2e3032" d="M1026 329.402l12-6.602V336l-12-6.598"/></g><g opacity=".11"><path fill="#2e3032" d="M956.4 321.6l15.6 9.002-15.6 8.998v-18"/></g><g opacity=".11"><path fill="#2e3032" d="M912 331.2l16.8-9.6v19.2l-16.8-9.6"/></g><g opacity=".11"><path fill="#2e3032" d="M856.8 361.2l16.8-9.6v19.2l-16.8-9.6"/></g><g opacity=".11"><path fill="#2e3032" d="M843.6 385.2l15.6 8.401L843.6 402v-16.8"/></g><g opacity=".11"><path fill="#2e3032" d="M805.2 458.398l9.6-5.998v12l-9.6-6.002"/></g><g opacity=".11"><path fill="#2e3032" d="M789.6 486l9.6 5.995-9.6 6.005v-12"/></g><g opacity=".11"><path fill="#2e3032" d="M792 552l4.8 3.601-4.8 3.599V552"/></g><g opacity=".11"><path fill="#2e3032" d="M810.544 588.605l2.512-1.454v2.898l-2.512-1.444"/></g><g opacity=".11"><path fill="#2e3032" d="M1146.035 394.2l1.13-.655v1.31l-1.13-.655"/></g><g opacity=".11"><path fill="#2e3032" d="M1126.8 358.8l3.6 1.802-3.6 1.798v-3.6"/></g><g opacity=".11"><path fill="#2e3032" d="M1126.8 294l7.2 4.2-7.2 4.2V294"/></g><g opacity=".11"><path fill="#2e3032" d="M1084.8 297.606l9.6-4.806v9.6l-9.6-4.794"/></g><g opacity=".11"><path fill="#2e3032" d="M1010.4 290.4l15.6 8.404-15.6 8.396v-16.8"/></g><g opacity=".11"><path fill="#2e3032" d="M967.2 298.804L984 289.2v19.2l-16.8-9.596"/></g><g opacity=".11"><path fill="#2e3032" d="M896.4 286.8l21.6 12.005-21.6 11.995v-24"/></g><g opacity=".11"><path fill="#2e3032" d="M853.2 296.404L876 283.2v26.4l-22.8-13.196"/></g><g opacity=".11"><path fill="#2e3032" d="M842.4 318l21.6 12.002L842.4 342v-24"/></g><g opacity=".11"><path fill="#2e3032" d="M800.4 393.599L817.2 384v19.2l-16.8-9.601"/></g><g opacity=".11"><path fill="#2e3032" d="M787.2 418.8l15.6 8.398-15.6 8.402v-16.8"/></g><g opacity=".11"><path fill="#2e3032" d="M745.2 490.199l15.6-7.799V498l-15.6-7.801"/></g><g opacity=".11"><path fill="#2e3032" d="M734.4 516l13.2 7.795-13.2 7.805V516"/></g><g opacity=".11"><path fill="#2e3032" d="M748.8 556.803l9.6-4.803v9.6l-9.6-4.797"/></g><g opacity=".11"><path fill="#2e3032" d="M792.857 618.711l1.886 1.09-1.886 1.088v-2.178"/></g><g opacity=".11"><path fill="#2e3032" d="M1143.6 330.602l3.6-1.802v3.6l-3.6-1.798"/></g><g opacity=".11"><path fill="#2e3032" d="M1141.2 265.803l7.2-4.203v8.4l-7.2-4.197"/></g><g opacity=".11"><path fill="#2e3032" d="M1068 258l13.2 7.801-13.2 7.799V258"/></g><g opacity=".11"><path fill="#2e3032" d="M1023.6 264.601l15.6-9.001v18l-15.6-8.999"/></g><g opacity=".11"><path fill="#2e3032" d="M952.8 253.2l21.6 12.001-21.6 11.999v-24"/></g><g opacity=".11"><path fill="#2e3032" d="M907.2 264.599L930 252v25.2l-22.8-12.601"/></g><g opacity=".11"><path fill="#2e3032" d="M840 250.8l25.2 13.801L840 278.4v-27.6"/></g><g opacity=".11"><path fill="#2e3032" d="M795.6 328.805l22.8-13.205V342l-22.8-13.195"/></g><g opacity=".11"><path fill="#2e3032" d="M786 349.2l21.6 12.603L786 374.4v-25.2"/></g><g opacity=".11"><path fill="#2e3032" d="M744 426.599l18-11.399V438l-18-11.401"/></g><g opacity=".11"><path fill="#2e3032" d="M729.6 447.6l18 10.801-18 10.799v-21.6"/></g><g opacity=".11"><path fill="#2e3032" d="M688.8 521.995l18-10.795v21.6l-18-10.805"/></g><g opacity=".11"><path fill="#2e3032" d="M734.4 584.4l9.6 4.801-9.6 4.799v-9.6"/></g><g opacity=".11"><path fill="#2e3032" d="M752.4 620.4l3.6-2.4v4.8l-3.6-2.4"/></g><g opacity=".11"><path fill="#2e3032" d="M1124.4 228l9.6 5.999-9.6 6.001v-12"/></g><g opacity=".11"><path fill="#2e3032" d="M1081.2 233.4l13.2-7.8v15.6l-13.2-7.8"/></g><g opacity=".11"><path fill="#2e3032" d="M1011.6 222l18 10.8-18 10.8V222"/></g><g opacity=".11"><path fill="#2e3032" d="M963.6 232.8l21.6-12v24l-21.6-12"/></g><g opacity=".11"><path fill="#2e3032" d="M895.2 218.4l24 13.8-24 13.8v-27.6"/></g><g opacity=".11"><path fill="#2e3032" d="M850.8 233.996L876 219.6v28.8l-25.2-14.404"/></g><g opacity=".11"><path fill="#2e3032" d="M796.8 266.399L822 252v28.8l-25.2-14.401"/></g><g opacity=".11"><path fill="#2e3032" d="M784.8 283.2l25.2 14.406L784.8 312v-28.8"/></g><g opacity=".11"><path fill="#2e3032" d="M739.2 363l24-13.8v27.6l-24-13.8"/></g><g opacity=".11"><path fill="#2e3032" d="M728.4 381.6l24 13.8-24 13.8v-27.6"/></g><g opacity=".11"><path fill="#2e3032" d="M685.2 458.398l24-13.198v26.4l-24-13.202"/></g><g opacity=".11"><path fill="#2e3032" d="M672 476.4l24 13.8-24 13.8v-27.6"/></g><g opacity=".11"><path fill="#2e3032" d="M674.4 544.8l18 11.403-18 11.397v-22.8"/></g><g opacity=".11"><path fill="#2e3032" d="M692.4 588.601l13.2-7.801v15.6l-13.2-7.799"/></g><g opacity=".11"><path fill="#2e3032" d="M736.8 650.4l3.6 1.804-3.6 1.796v-3.6"/></g><g opacity=".11"><path fill="#2e3032" d="M756.044 683.402l1.112-.641v1.278l-1.112-.637"/></g><g opacity=".11"><path fill="#2e3032" d="M1141.2 201.6l9.6-6v12l-9.6-6"/></g><g opacity=".11"><path fill="#2e3032" d="M1068 192l15.6 9-15.6 9v-18"/></g><g opacity=".11"><path fill="#2e3032" d="M1022.4 201.6l18-10.8v21.6l-18-10.8"/></g><g opacity=".11"><path fill="#2e3032" d="M952.8 187.2l22.8 13.2-22.8 13.2v-26.4"/></g><g opacity=".11"><path fill="#2e3032" d="M907.2 200.999l24-13.799v27.6l-24-13.801"/></g><g opacity=".11"><path fill="#2e3032" d="M841.2 187.2l25.2 14.4-25.2 14.4v-28.8"/></g><g opacity=".11"><path fill="#2e3032" d="M795.6 201.601L822 187.2V216l-26.4-14.399"/></g><g opacity=".11"><path fill="#2e3032" d="M784.8 218.4l26.4 14.4-26.4 14.4v-28.8"/></g><g opacity=".11"><path fill="#2e3032" d="M739.2 298.803l26.4-14.403v28.8l-26.4-14.397"/></g><g opacity=".11"><path fill="#2e3032" d="M728.4 315.6l26.4 14.402-26.4 14.398v-28.8"/></g><g opacity=".11"><path fill="#2e3032" d="M681.6 394.799l27.6-15.599v31.2l-27.6-15.601"/></g><g opacity=".11"><path fill="#2e3032" d="M673.2 411.6l27.6 15.599-27.6 15.601v-31.2"/></g><g opacity=".11"><path fill="#2e3032" d="M625.2 490.8l28.8-15.6v31.2l-28.8-15.6"/></g><g opacity=".11"><path fill="#2e3032" d="M618 507.6l28.8 15.595L618 538.8v-31.2"/></g><g opacity=".11"><path fill="#2e3032" d="M628.8 555.004l24-13.804v27.6l-24-13.796"/></g><g opacity=".11"><path fill="#2e3032" d="M678 613.2l13.2 7.8-13.2 7.8v-15.6"/></g><g opacity=".11"><path fill="#2e3032" d="M693.6 652.805L702 648v9.6l-8.4-4.795"/></g><g opacity=".11"><path fill="#2e3032" d="M1123.2 162l13.2 7.797-13.2 7.803V162"/></g><g opacity=".11"><path fill="#2e3032" d="M1080 169.196l15.6-8.396v16.8l-15.6-8.404"/></g><g opacity=".11"><path fill="#2e3032" d="M1011.6 157.2l19.2 11.999-19.2 12.001v-24"/></g><g opacity=".11"><path fill="#2e3032" d="M963.6 167.999l22.8-13.199v26.4l-22.8-13.201"/></g><g opacity=".11"><path fill="#2e3032" d="M896.4 154.8l25.2 14.399-25.2 14.401v-28.8"/></g><g opacity=".11"><path fill="#2e3032" d="M850.8 169.198L876 154.8v28.8l-25.2-14.402"/></g><g opacity=".11"><path fill="#2e3032" d="M784.8 154.8l25.2 14.401-25.2 14.399v-28.8"/></g><g opacity=".11"><path fill="#2e3032" d="M738 234l27.6-15.6v31.2L738 234"/></g><g opacity=".11"><path fill="#2e3032" d="M727.2 249.6l27.6 15.602-27.6 15.598v-31.2"/></g><g opacity=".11"><path fill="#2e3032" d="M682.8 330.601l28.8-16.201v32.4l-28.8-16.199"/></g><g opacity=".11"><path fill="#2e3032" d="M673.2 343.2l28.8 18-28.8 18v-36"/></g><g opacity=".11"><path fill="#2e3032" d="M624 427.199l31.2-17.999v36L624 427.199"/></g><g opacity=".11"><path fill="#2e3032" d="M616.8 441.6l31.2 18.598-31.2 18.602v-37.2"/></g><g opacity=".11"><path fill="#2e3032" d="M566.4 524.395l32.4-19.195v38.4l-32.4-19.205"/></g><g opacity=".11"><path fill="#2e3032" d="M619.2 576l22.8 13.2-22.8 13.2V576"/></g><g opacity=".11"><path fill="#2e3032" d="M634.8 620.4l16.8-9.6V630l-16.8-9.6"/></g><g opacity=".11"><path fill="#2e3032" d="M679.2 679.2l7.2 4.201-7.2 4.199v-8.4"/></g><g opacity=".11"><path fill="#2e3032" d="M1137.6 137.399l13.2-7.799v15.6l-13.2-7.801"/></g><g opacity=".11"><path fill="#2e3032" d="M1066.8 127.2l16.8 9.599-16.8 9.601v-19.2"/></g><g opacity=".11"><path fill="#2e3032" d="M1021.2 136.801l19.2-12.001v24l-19.2-11.999"/></g><g opacity=".11"><path fill="#2e3032" d="M952.8 123.6l22.8 13.195L952.8 150v-26.4"/></g><g opacity=".11"><path fill="#2e3032" d="M907.2 138.599l24-13.799v27.6l-24-13.801"/></g><g opacity=".11"><path fill="#2e3032" d="M841.2 124.8l24 13.801-24 13.799v-27.6"/></g><g opacity=".11"><path fill="#2e3032" d="M795.6 138.599l24-13.799v27.6l-24-13.801"/></g><g opacity=".11"><path fill="#2e3032" d="M740.4 169.198l25.2-14.398v28.8l-25.2-14.402"/></g><g opacity=".11"><path fill="#2e3032" d="M728.4 187.2l26.4 14.401L728.4 216v-28.8"/></g><g opacity=".11"><path fill="#2e3032" d="M681.6 265.201l28.8-15.601v31.2l-28.8-15.599"/></g><g opacity=".11"><path fill="#2e3032" d="M673.2 280.8l28.8 16.203-28.8 16.197v-32.4"/></g><g opacity=".11"><path fill="#2e3032" d="M622.8 361.8l32.4-18.6v37.2l-32.4-18.6"/></g><g opacity=".11"><path fill="#2e3032" d="M614.4 375.6l36 19.8-36 19.8v-39.6"/></g><g opacity=".11"><path fill="#2e3032" d="M565.2 459.599l36-20.399V480l-36-20.401"/></g><g opacity=".11"><path fill="#2e3032" d="M558 470.4l37.2 21.598L558 513.6v-43.2"/></g><g opacity=".11"><path fill="#2e3032" d="M560.4 537.6l31.2 18.601-31.2 18.599v-37.2"/></g><g opacity=".11"><path fill="#2e3032" d="M571.2 589.201l27.6-15.601v31.2l-27.6-15.599"/></g><g opacity=".11"><path fill="#2e3032" d="M621.6 643.2l15.6 9.005-15.6 8.995v-18"/></g><g opacity=".11"><path fill="#2e3032" d="M637.2 682.804l9.6-6.004v12l-9.6-5.996"/></g><g opacity=".11"><path fill="#2e3032" d="M1122 96l15.6 8.396-15.6 8.404V96"/></g><g opacity=".11"><path fill="#2e3032" d="M1080 104.394l16.8-9.594V114l-16.8-9.606"/></g><g opacity=".11"><path fill="#2e3032" d="M1011.6 93.6l19.2 11.997-19.2 12.003v-24"/></g><g opacity=".11"><path fill="#2e3032" d="M963.6 104.999L985.2 92.4v25.2l-21.6-12.601"/></g><g opacity=".11"><path fill="#2e3032" d="M895.2 92.4l22.8 12.596-22.8 12.604V92.4"/></g><g opacity=".11"><path fill="#2e3032" d="M853.2 104.996L876 92.4v25.2l-22.8-12.604"/></g><g opacity=".11"><path fill="#2e3032" d="M786 92.4l21.6 12.596L786 117.6V92.4"/></g><g opacity=".11"><path fill="#2e3032" d="M742.8 105.594L762 93.6v24l-19.2-12.006"/></g><g opacity=".11"><path fill="#2e3032" d="M729.6 123.6l22.8 13.198L729.6 150v-26.4"/></g><g opacity=".11"><path fill="#2e3032" d="M682.8 201.6l26.4-15.6v31.2l-26.4-15.6"/></g><g opacity=".11"><path fill="#2e3032" d="M673.2 217.2l27.6 15.6-27.6 15.6v-31.2"/></g><g opacity=".11"><path fill="#2e3032" d="M624 296.404l31.2-18.004v36L624 296.404"/></g><g opacity=".11"><path fill="#2e3032" d="M614.4 310.8l32.4 19.205-32.4 19.195v-38.4"/></g><g opacity=".11"><path fill="#2e3032" d="M564 394.8l37.2-21.6v43.2L564 394.8"/></g><g opacity=".11"><path fill="#2e3032" d="M558 403.2l38.4 22.796L558 448.8v-45.6"/></g><g opacity=".11"><path fill="#2e3032" d="M505.2 492.6l39.6-23.4V516l-39.6-23.4"/></g><g opacity=".11"><path fill="#2e3032" d="M502.8 500.4l39.6 23.395-39.6 23.405v-46.8"/></g><g opacity=".11"><path fill="#2e3032" d="M507.6 555.604L544.8 534v43.2l-37.2-21.596"/></g><g opacity=".11"><path fill="#2e3032" d="M562.8 606l26.4 14.4-26.4 14.4V606"/></g><g opacity=".11"><path fill="#2e3032" d="M577.2 651.603l19.2-12.003v24l-19.2-11.997"/></g><g opacity=".11"><path fill="#2e3032" d="M1137.6 72.596l13.2-7.796v15.6l-13.2-7.804"/></g><g opacity=".11"><path fill="#2e3032" d="M1066.8 62.4l16.8 9.6-16.8 9.6V62.4"/></g><g opacity=".11"><path fill="#2e3032" d="M1022.4 73.197l18-10.797V84l-18-10.803"/></g><g opacity=".11"><path fill="#2e3032" d="M955.2 61.2l19.2 11.397L955.2 84V61.2"/></g><g opacity=".11"><path fill="#2e3032" d="M910.8 72.599L930 61.2V84l-19.2-11.401"/></g><g opacity=".11"><path fill="#2e3032" d="M842.4 62.4l18 10.798L842.4 84V62.4"/></g><g opacity=".11"><path fill="#2e3032" d="M800.4 73.2l18-10.8V84l-18-10.8"/></g><g opacity=".11"><path fill="#2e3032" d="M732 62.4l16.8 9.6-16.8 9.6V62.4"/></g><g opacity=".11"><path fill="#2e3032" d="M685.2 136.795L708 123.6V150l-22.8-13.205"/></g><g opacity=".11"><path fill="#2e3032" d="M673.2 154.8l25.2 14.396-25.2 14.404v-28.8"/></g><g opacity=".11"><path fill="#2e3032" d="M625.2 233.999L654 218.4v31.2l-28.8-15.601"/></g><g opacity=".11"><path fill="#2e3032" d="M618 247.2l28.8 18.002L618 283.2v-36"/></g><g opacity=".11"><path fill="#2e3032" d="M564 330l36-20.4v40.8L564 330"/></g><g opacity=".11"><path fill="#2e3032" d="M558 340.8l37.2 21.602L558 384v-43.2"/></g><g opacity=".11"><path fill="#2e3032" d="M505.2 427.199L546 403.2v48l-40.8-24.001"/></g><g opacity=".11"><path fill="#2e3032" d="M502.8 435.6l40.8 23.998-40.8 24.002v-48"/></g><g opacity=".11"><path fill="#2e3032" d="M448.8 523.197L492 498v50.4l-43.2-25.203"/></g><g opacity=".11"><path fill="#2e3032" d="M502.8 567.6l36 20.401-36 20.399v-40.8"/></g><g opacity=".11"><path fill="#2e3032" d="M513.6 619.8l30-17.4v34.8l-30-17.4"/></g><g opacity=".11"><path fill="#2e3032" d="M565.2 674.4l16.8 10.2-16.8 10.2v-20.4"/></g><g opacity=".11"><path fill="#2e3032" d="M1123.2 31.2l13.2 7.8-13.2 7.8V31.2"/></g><g opacity=".11"><path fill="#2e3032" d="M1081.2 40.8l15.6-8.4v16.8l-15.6-8.4"/></g><g opacity=".11"><path fill="#2e3032" d="M1012.8 31.2l15.6 9.001-15.6 8.999v-18"/></g><g opacity=".11"><path fill="#2e3032" d="M967.2 40.801L984 31.2v19.2l-16.8-9.599"/></g><g opacity=".11"><path fill="#2e3032" d="M900 31.2l15.6 9-15.6 9v-18"/></g><g opacity=".11"><path fill="#2e3032" d="M856.8 40.198l15.6-8.998v18l-15.6-9.002"/></g><g opacity=".11"><path fill="#2e3032" d="M787.2 32.4l15.6 8.401-15.6 8.399V32.4"/></g><g opacity=".11"><path fill="#2e3032" d="M745.2 38.999l15.6-7.799v15.6l-15.6-7.801"/></g><g opacity=".11"><path fill="#2e3032" d="M690 74.998L705.6 66v18L690 74.998"/></g><g opacity=".11"><path fill="#2e3032" d="M674.4 93.6l19.2 11.396-19.2 11.404V93.6"/></g><g opacity=".11"><path fill="#2e3032" d="M627.6 169.199l25.2-14.399v28.8l-25.2-14.401"/></g><g opacity=".11"><path fill="#2e3032" d="M618 186l27.6 15.6-27.6 15.6V186"/></g><g opacity=".11"><path fill="#2e3032" d="M568.8 265.2l31.2-18v36l-31.2-18"/></g><g opacity=".11"><path fill="#2e3032" d="M560.4 277.2l32.4 19.206-32.4 19.194v-38.4"/></g><g opacity=".11"><path fill="#2e3032" d="M507.6 361.2l38.4-22.8V384l-38.4-22.8"/></g><g opacity=".11"><path fill="#2e3032" d="M502.8 369.6l40.8 23.999-40.8 24.001v-48"/></g><g opacity=".11"><path fill="#2e3032" d="M448.8 458.4l43.2-25.2v50.4l-43.2-25.2"/></g><g opacity=".11"><path fill="#2e3032" d="M444 466.8l43.2 25.196L444 517.2v-50.4"/></g><g opacity=".11"><path fill="#2e3032" d="M446.4 532.8l40.8 23.405-40.8 23.395v-46.8"/></g><g opacity=".11"><path fill="#2e3032" d="M452.4 588.001l37.2-21.601v43.2l-37.2-21.599"/></g><g opacity=".11"><path fill="#2e3032" d="M505.2 637.2l27.6 15.605-27.6 15.595v-31.2"/></g><g opacity=".11"><path fill="#2e3032" d="M519.6 684.001L541.2 672v24l-21.6-11.999"/></g><g opacity=".11"><path fill="#2e3032" d="M1138.8 7.8l12-6.6v13.2l-12-6.6"/></g><g opacity=".11"><path fill="#2e3032" d="M1068 0l13.2 7.8-13.2 7.8V0"/></g><g opacity=".11"><path fill="#2e3032" d="M1026 7.804L1039.2 0v15.6L1026 7.804"/></g><g opacity=".11"><path fill="#2e3032" d="M957.6 0l13.2 7.8-13.2 7.8V0"/></g><g opacity=".11"><path fill="#2e3032" d="M914.4 7.801L927.6 0v15.6l-13.2-7.799"/></g><g opacity=".11"><path fill="#2e3032" d="M844.8 0L858 7.801 844.8 15.6V0"/></g><g opacity=".11"><path fill="#2e3032" d="M802.8 7.803L814.8 0v15.6l-12-7.797"/></g><g opacity=".11"><path fill="#2e3032" d="M734.4 1.2l9.6 6.601-9.6 6.599V1.2"/></g><g opacity=".11"><path fill="#2e3032" d="M693.6 7.801l9.6-6.601v13.2l-9.6-6.599"/></g><g opacity=".11"><path fill="#2e3032" d="M678 31.2l13.2 7.8-13.2 7.8V31.2"/></g><g opacity=".11"><path fill="#2e3032" d="M633.6 104.996l18-11.396v22.8l-18-11.404"/></g><g opacity=".11"><path fill="#2e3032" d="M618 124.8l22.8 12.596L618 150v-25.2"/></g><g opacity=".11"><path fill="#2e3032" d="M571.2 201.602L598.8 186v31.2l-27.6-15.598"/></g><g opacity=".11"><path fill="#2e3032" d="M560.4 217.2l28.8 16.199-28.8 16.201v-32.4"/></g><g opacity=".11"><path fill="#2e3032" d="M510 297.002l36-19.802v39.6l-36-19.798"/></g><g opacity=".11"><path fill="#2e3032" d="M502.8 308.4l37.2 21.602-37.2 21.598v-43.2"/></g><g opacity=".11"><path fill="#2e3032" d="M448.8 393.601l40.8-24.001v48l-40.8-23.999"/></g><g opacity=".11"><path fill="#2e3032" d="M444 402l43.2 25.199L444 452.4V402"/></g><g opacity=".11"><path fill="#2e3032" d="M392.4 491.996l43.2-25.196v50.4l-43.2-25.204"/></g><g opacity=".11"><path fill="#2e3032" d="M387.6 498l43.2 25.195-43.2 25.205V498"/></g><g opacity=".11"><path fill="#2e3032" d="M393.6 555.601l40.8-24.001v48l-40.8-23.999"/></g><g opacity=".11"><path fill="#2e3032" d="M447.6 601.2l36 19.801-36 19.799v-39.6"/></g><g opacity=".11"><path fill="#2e3032" d="M457.2 651.002L486 634.8v32.4l-28.8-16.198"/></g><g opacity=".11"><path fill="#2e3032" d="M636 39l13.2-7.8v15.6L636 39"/></g><g opacity=".11"><path fill="#2e3032" d="M621.6 66l15.6 8.999L621.6 84V66"/></g><g opacity=".11"><path fill="#2e3032" d="M574.8 137.399l21.6-12.599V150l-21.6-12.601"/></g><g opacity=".11"><path fill="#2e3032" d="M562.8 154.8l25.2 14.399-25.2 14.401v-28.8"/></g><g opacity=".11"><path fill="#2e3032" d="M512.4 233.399l28.8-16.199v32.4l-28.8-16.201"/></g><g opacity=".11"><path fill="#2e3032" d="M505.2 247.2l31.2 17.999-31.2 18.001v-36"/></g><g opacity=".11"><path fill="#2e3032" d="M452.4 331.204l36-21.604v43.2l-36-21.596"/></g><g opacity=".11"><path fill="#2e3032" d="M445.2 338.4l38.4 22.8-38.4 22.8v-45.6"/></g><g opacity=".11"><path fill="#2e3032" d="M392.4 427.199L435.6 402v50.4l-43.2-25.201"/></g><g opacity=".11"><path fill="#2e3032" d="M387.6 433.2l43.2 25.2-43.2 25.2v-50.4"/></g><g opacity=".11"><path fill="#2e3032" d="M336 523.198l40.8-23.998v48L336 523.198"/></g><g opacity=".11"><path fill="#2e3032" d="M391.2 566.4l37.2 21.601-37.2 21.599v-43.2"/></g><g opacity=".11"><path fill="#2e3032" d="M398.4 619.8l34.8-19.8v39.6l-34.8-19.8"/></g><g opacity=".11"><path fill="#2e3032" d="M451.2 668.4l24 14.4-24 14.4v-28.8"/></g><g opacity=".11"><path fill="#2e3032" d="M620.4 1.2l12 6.6-12 6.6V1.2"/></g><g opacity=".11"><path fill="#2e3032" d="M577.2 75l15.6-9v18l-15.6-9"/></g><g opacity=".11"><path fill="#2e3032" d="M565.2 94.8l18 10.796-18 10.804V94.8"/></g><g opacity=".11"><path fill="#2e3032" d="M517.2 168.596l24-13.796v27.6l-24-13.804"/></g><g opacity=".11"><path fill="#2e3032" d="M506.4 187.2l26.4 14.402L506.4 216v-28.8"/></g><g opacity=".11"><path fill="#2e3032" d="M457.2 265.201L486 247.2v36l-28.8-17.999"/></g><g opacity=".11"><path fill="#2e3032" d="M448.8 278.4l31.2 18.602-31.2 18.598v-37.2"/></g><g opacity=".11"><path fill="#2e3032" d="M397.2 362.4l38.4-21.6V384l-38.4-21.6"/></g><g opacity=".11"><path fill="#2e3032" d="M388.8 370.8l39.6 23.399-39.6 23.401v-46.8"/></g><g opacity=".11"><path fill="#2e3032" d="M336 459.601l40.8-24.001v48L336 459.601"/></g><g opacity=".11"><path fill="#2e3032" d="M333.6 468l40.8 24.001L333.6 516v-48"/></g><g opacity=".11"><path fill="#2e3032" d="M333.6 532.8l38.4 22.801-38.4 22.799v-45.6"/></g><g opacity=".11"><path fill="#2e3032" d="M340.8 586.8l36-21.6v43.2l-36-21.6"/></g><g opacity=".11"><path fill="#2e3032" d="M392.4 633.6l30 17.405-30 17.395v-34.8"/></g><g opacity=".11"><path fill="#2e3032" d="M404.4 684.001l24-14.401v28.8l-24-14.399"/></g><g opacity=".11"><path fill="#2e3032" d="M580.8 7.801l12-6.601v13.2l-12-6.599"/></g><g opacity=".11"><path fill="#2e3032" d="M566.4 31.2l13.2 7.801-13.2 7.799V31.2"/></g><g opacity=".11"><path fill="#2e3032" d="M519.6 105.595l18-10.795v21.6l-18-10.805"/></g><g opacity=".11"><path fill="#2e3032" d="M507.6 124.8l19.2 11.997-19.2 12.003v-24"/></g><g opacity=".11"><path fill="#2e3032" d="M460.8 201.6l25.2-14.4V216l-25.2-14.4"/></g><g opacity=".11"><path fill="#2e3032" d="M450 218.4l26.4 14.4-26.4 14.4v-28.8"/></g><g opacity=".11"><path fill="#2e3032" d="M399.6 296.405l31.2-18.005v36l-31.2-17.995"/></g><g opacity=".11"><path fill="#2e3032" d="M390 312l36 19.802-36 19.798V312"/></g><g opacity=".11"><path fill="#2e3032" d="M340.8 393.599l38.4-22.799v45.6l-38.4-22.801"/></g><g opacity=".11"><path fill="#2e3032" d="M332.4 403.2l39.6 23.399L332.4 450v-46.8"/></g><g opacity=".11"><path fill="#2e3032" d="M283.2 491.998l39.6-22.798v45.6l-39.6-22.802"/></g><g opacity=".11"><path fill="#2e3032" d="M279.6 502.8l37.2 21.595L279.6 546v-43.2"/></g><g opacity=".11"><path fill="#2e3032" d="M285.6 554.402l36-21.602V576l-36-21.598"/></g><g opacity=".11"><path fill="#2e3032" d="M336 601.2l31.2 18.598L336 638.4v-37.2"/></g><g opacity=".11"><path fill="#2e3032" d="M346.8 652.801l28.8-15.601v31.2l-28.8-15.599"/></g><g opacity=".11"><path fill="#2e3032" d="M524.4 39l13.2-7.8v15.6L524.4 39"/></g><g opacity=".11"><path fill="#2e3032" d="M508.8 63.6l15.6 8.398-15.6 8.402V63.6"/></g><g opacity=".11"><path fill="#2e3032" d="M464.4 137.996l18-10.796v21.6l-18-10.804"/></g><g opacity=".11"><path fill="#2e3032" d="M451.2 157.2l21.6 11.998-21.6 12.002v-24"/></g><g opacity=".11"><path fill="#2e3032" d="M404.4 233.999l25.2-14.399v28.8l-25.2-14.401"/></g><g opacity=".11"><path fill="#2e3032" d="M393.6 249.6l27.6 15.602-27.6 15.598v-31.2"/></g><g opacity=".11"><path fill="#2e3032" d="M344.4 331.801l31.2-18.601v37.2l-31.2-18.599"/></g><g opacity=".11"><path fill="#2e3032" d="M333.6 342l36 20.4-36 20.4V342"/></g><g opacity=".11"><path fill="#2e3032" d="M283.2 425.999l38.4-22.799v45.6l-38.4-22.801"/></g><g opacity=".11"><path fill="#2e3032" d="M278.4 435.6l38.4 22.798-38.4 22.802v-45.6"/></g><g opacity=".11"><path fill="#2e3032" d="M229.2 523.196l36-20.396v40.8l-36-20.404"/></g><g opacity=".11"><path fill="#2e3032" d="M280.8 568.8l31.2 18.601L280.8 606v-37.2"/></g><g opacity=".11"><path fill="#2e3032" d="M290.4 620.401l30-16.801v33.6l-30-16.799"/></g><g opacity=".11"><path fill="#2e3032" d="M339.6 670.8l24 12.601-24 12.599v-25.2"/></g><g opacity=".11"><path fill="#2e3032" d="M510 0l12 7.801-12 7.799V0"/></g><g opacity=".11"><path fill="#2e3032" d="M468 72.6l15.6-7.8v15.6L468 72.6"/></g><g opacity=".11"><path fill="#2e3032" d="M453.6 96l15.6 8.398-15.6 8.402V96"/></g><g opacity=".11"><path fill="#2e3032" d="M410.4 169.797l18-11.397v22.8l-18-11.403"/></g><g opacity=".11"><path fill="#2e3032" d="M394.8 189.6l21.6 12-21.6 12v-24"/></g><g opacity=".11"><path fill="#2e3032" d="M349.2 266.399L374.4 252v28.8l-25.2-14.401"/></g><g opacity=".11"><path fill="#2e3032" d="M337.2 283.2l28.8 15.606-28.8 15.594v-31.2"/></g><g opacity=".11"><path fill="#2e3032" d="M288 362.4l32.4-19.2v38.4L288 362.4"/></g><g opacity=".11"><path fill="#2e3032" d="M278.4 375.6l36 20.4-36 20.4v-40.8"/></g><g opacity=".11"><path fill="#2e3032" d="M229.2 458.399l37.2-21.599V480l-37.2-21.601"/></g><g opacity=".11"><path fill="#2e3032" d="M222 469.2l36 21.6-36 21.6v-43.2"/></g><g opacity=".11"><path fill="#2e3032" d="M224.4 537.6l31.2 18.604-31.2 18.596v-37.2"/></g><g opacity=".11"><path fill="#2e3032" d="M236.4 588.6l28.8-16.2v32.4l-28.8-16.2"/></g><g opacity=".11"><path fill="#2e3032" d="M284.4 639.6l24 13.805-24 13.795v-27.6"/></g><g opacity=".11"><path fill="#2e3032" d="M297.6 685.203L318 673.2v24l-20.4-11.997"/></g><g opacity=".11"><path fill="#2e3032" d="M469.2 7.801l12-6.601v13.2l-12-6.599"/></g><g opacity=".11"><path fill="#2e3032" d="M454.8 31.2l12 7.801-12 7.799V31.2"/></g><g opacity=".11"><path fill="#2e3032" d="M412.8 104.996L426 97.2v15.6l-13.2-7.804"/></g><g opacity=".11"><path fill="#2e3032" d="M398.4 128.4l15.6 8.399-15.6 8.401v-16.8"/></g><g opacity=".11"><path fill="#2e3032" d="M352.8 201.6l18-10.8v21.6l-18-10.8"/></g><g opacity=".11"><path fill="#2e3032" d="M340.8 220.8l19.2 11.999-19.2 12.001v-24"/></g><g opacity=".11"><path fill="#2e3032" d="M291.6 298.803L318 284.4v28.8l-26.4-14.397"/></g><g opacity=".11"><path fill="#2e3032" d="M282 314.4l28.8 16.201L282 346.8v-32.4"/></g><g opacity=".11"><path fill="#2e3032" d="M230.4 395.401l36-19.801v39.6l-36-19.799"/></g><g opacity=".11"><path fill="#2e3032" d="M222 406.8l36 20.398-36 20.402v-40.8"/></g><g opacity=".11"><path fill="#2e3032" d="M175.2 491.999l36-20.399v40.8l-36-20.401"/></g><g opacity=".11"><path fill="#2e3032" d="M169.2 505.2l32.4 19.195-32.4 19.205v-38.4"/></g><g opacity=".11"><path fill="#2e3032" d="M178.8 555.601L210 537.6v36l-31.2-17.999"/></g><g opacity=".11"><path fill="#2e3032" d="M226.8 606l24 13.8-24 13.8V606"/></g><g opacity=".11"><path fill="#2e3032" d="M240 651.6l21.6-12v24l-21.6-12"/></g><g opacity=".11"><path fill="#2e3032" d="M415.2 40.8l9.6-6v12l-9.6-6"/></g><g opacity=".11"><path fill="#2e3032" d="M399.6 64.8l9.6 5.999-9.6 6.001v-12"/></g><g opacity=".11"><path fill="#2e3032" d="M356.4 137.399l13.2-7.799v15.6l-13.2-7.801"/></g><g opacity=".11"><path fill="#2e3032" d="M340.8 160.8l15.6 7.796-15.6 7.804v-15.6"/></g><g opacity=".11"><path fill="#2e3032" d="M298.8 232.8l18-10.8v21.6l-18-10.8"/></g><g opacity=".11"><path fill="#2e3032" d="M284.4 253.2l21.6 12.001-21.6 11.999v-24"/></g><g opacity=".11"><path fill="#2e3032" d="M235.2 331.201L264 315.6v31.2l-28.8-15.599"/></g><g opacity=".11"><path fill="#2e3032" d="M225.6 344.4l31.2 18.002-31.2 17.998v-36"/></g><g opacity=".11"><path fill="#2e3032" d="M175.2 427.198l36-20.398v40.8l-36-20.402"/></g><g opacity=".11"><path fill="#2e3032" d="M168 438l36 20.399-36 20.401V438"/></g><g opacity=".11"><path fill="#2e3032" d="M121.2 524.399l32.4-19.199v38.4l-32.4-19.201"/></g><g opacity=".11"><path fill="#2e3032" d="M170.4 573.6l26.4 14.401-26.4 14.399v-28.8"/></g><g opacity=".11"><path fill="#2e3032" d="M184.8 619.798l22.8-12.598v25.2l-22.8-12.602"/></g><g opacity=".11"><path fill="#2e3032" d="M231.6 675.6l15.6 8.402-15.6 8.398v-16.8"/></g><g opacity=".11"><path fill="#2e3032" d="M399.6 2.4l9.6 4.803L399.6 12V2.4"/></g><g opacity=".11"><path fill="#2e3032" d="M361.2 73.199l9.6-4.799V78l-9.6-4.801"/></g><g opacity=".11"><path fill="#2e3032" d="M343.2 100.8l9.6 4.794-9.6 4.806v-9.6"/></g><g opacity=".11"><path fill="#2e3032" d="M302.4 168.599l12-6.599v13.2l-12-6.601"/></g><g opacity=".11"><path fill="#2e3032" d="M288 193.2l13.2 7.802L288 208.8v-15.6"/></g><g opacity=".11"><path fill="#2e3032" d="M241.2 264.601l18-11.401V276l-18-11.399"/></g><g opacity=".11"><path fill="#2e3032" d="M226.8 283.2l24 13.2-24 13.2v-26.4"/></g><g opacity=".11"><path fill="#2e3032" d="M178.8 361.2l31.2-18v36l-31.2-18"/></g><g opacity=".11"><path fill="#2e3032" d="M169.2 375.6l32.4 19.201L169.2 414v-38.4"/></g><g opacity=".11"><path fill="#2e3032" d="M118.8 458.401l36-20.401v40.8l-36-20.399"/></g><g opacity=".11"><path fill="#2e3032" d="M111.6 471.6l36 19.795-36 19.805v-39.6"/></g><g opacity=".11"><path fill="#2e3032" d="M115.2 540l28.8 16.203-28.8 16.197V540"/></g><g opacity=".11"><path fill="#2e3032" d="M126 589.201l25.2-14.401v28.8L126 589.201"/></g><g opacity=".11"><path fill="#2e3032" d="M174 643.2l16.8 9.605L174 662.4v-19.2"/></g><g opacity=".11"><path fill="#2e3032" d="M189.6 682.201l13.2-7.801V690l-13.2-7.799"/></g><g opacity=".11"><path fill="#2e3032" d="M361.2 8.401l8.4-4.801v9.6l-8.4-4.799"/></g><g opacity=".11"><path fill="#2e3032" d="M344.4 34.8l7.2 4.2-7.2 4.2v-8.4"/></g><g opacity=".11"><path fill="#2e3032" d="M304.8 104.994l7.2-4.194v8.4l-7.2-4.206"/></g><g opacity=".11"><path fill="#2e3032" d="M289.2 132l8.4 4.796-8.4 4.804V132"/></g><g opacity=".11"><path fill="#2e3032" d="M247.2 201l12-6.6v13.2l-12-6.6"/></g><g opacity=".11"><path fill="#2e3032" d="M231.6 225.6l15.6 7.799-15.6 7.801v-15.6"/></g><g opacity=".11"><path fill="#2e3032" d="M184.8 298.201l22.8-12.601v25.2l-22.8-12.599"/></g><g opacity=".11"><path fill="#2e3032" d="M170.4 315.6l26.4 14.405-26.4 14.395v-28.8"/></g><g opacity=".11"><path fill="#2e3032" d="M121.2 395.399l32.4-18.599V414l-32.4-18.601"/></g><g opacity=".11"><path fill="#2e3032" d="M111.6 408l36 19.799-36 19.801V408"/></g><g opacity=".11"><path fill="#2e3032" d="M62.4 490.8l36-20.4v40.8l-36-20.4"/></g><g opacity=".11"><path fill="#2e3032" d="M58.8 502.8l32.4 19.795L58.8 542.4v-39.6"/></g><g opacity=".11"><path fill="#2e3032" d="M68.4 555.604L97.2 537.6v36l-28.8-17.996"/></g><g opacity=".11"><path fill="#2e3032" d="M118.8 608.4l19.2 11.4-19.2 11.4v-22.8"/></g><g opacity=".11"><path fill="#2e3032" d="M133.2 652.204l15.6-9.004v18l-15.6-8.996"/></g><g opacity=".11"><path fill="#2e3032" d="M307.2 40.801L312 38.4v4.8l-4.8-2.399"/></g><g opacity=".11"><path fill="#2e3032" d="M289.2 72l4.8 2.399-4.8 2.401V72"/></g><g opacity=".11"><path fill="#2e3032" d="M250.8 137.997l4.8-3.597v7.2l-4.8-3.603"/></g><g opacity=".11"><path fill="#2e3032" d="M232.8 165.6l8.4 4.196-8.4 4.204v-8.4"/></g><g opacity=".11"><path fill="#2e3032" d="M190.8 233.399l12-7.799v15.6l-12-7.801"/></g><g opacity=".11"><path fill="#2e3032" d="M175.2 255.6l15.6 8.999-15.6 9.001v-18"/></g><g opacity=".11"><path fill="#2e3032" d="M126 330l26.4-14.4v28.8L126 330"/></g><g opacity=".11"><path fill="#2e3032" d="M115.2 343.2l28.8 18-28.8 18v-36"/></g><g opacity=".11"><path fill="#2e3032" d="M62.4 427.199l36-20.399v40.8l-36-20.401"/></g><g opacity=".11"><path fill="#2e3032" d="M56.4 436.8l37.2 21.601L56.4 480v-43.2"/></g><g opacity=".11"><path fill="#2e3032" d="M8.4 524.399L44.4 504v40.8l-36-20.401"/></g><g opacity=".11"><path fill="#2e3032" d="M61.2 574.8l25.2 14.4-25.2 14.4v-28.8"/></g><g opacity=".11"><path fill="#2e3032" d="M75.6 619.8l19.2-11.4v22.8l-19.2-11.4"/></g><g opacity=".11"><path fill="#2e3032" d="M121.2 676.8l9.6 6.001-9.6 5.999v-12"/></g><g opacity=".11"><path fill="#2e3032" d="M291.6 6l3.6 1.801-3.6 1.799V6"/></g><g opacity=".11"><path fill="#2e3032" d="M253.2 73.797L256.8 72v3.6l-3.6-1.803"/></g><g opacity=".11"><path fill="#2e3032" d="M236.4 102l3.6 1.796-3.6 1.804V102"/></g><g opacity=".11"><path fill="#2e3032" d="M195.6 169.196l4.8-3.596v7.2l-4.8-3.604"/></g><g opacity=".11"><path fill="#2e3032" d="M177.6 196.8l8.4 4.8-8.4 4.8v-9.6"/></g><g opacity=".11"><path fill="#2e3032" d="M133.2 265.2l15.6-8.4v16.8l-15.6-8.4"/></g><g opacity=".11"><path fill="#2e3032" d="M117.6 286.8l21.6 12.004-21.6 11.996v-24"/></g><g opacity=".11"><path fill="#2e3032" d="M68.4 361.202L97.2 343.2v36l-28.8-17.997"/></g><g opacity=".11"><path fill="#2e3032" d="M58.8 375.6l32.4 19.2L58.8 414v-38.4"/></g><g opacity=".11"><path fill="#2e3032" d="M7.2 457.199L44.4 435.6v43.2L7.2 457.199"/></g><g opacity=".11"><path fill="#2e3032" d="M0 470.4L38.4 492 0 513.6v-43.2"/></g><g opacity=".11"><path fill="#2e3032" d="M2.4 537.6l31.2 18.604L2.4 574.8v-37.2"/></g><g opacity=".11"><path fill="#2e3032" d="M14.4 588.001L40.8 573.6v28.8l-26.4-14.399"/></g><g opacity=".11"><path fill="#2e3032" d="M63.6 644.4l15.6 8.402-15.6 8.398v-16.8"/></g><g opacity=".11"><path fill="#2e3032" d="M80.4 682.801L90 676.8v12l-9.6-5.999"/></g><g opacity=".11"><path fill="#2e3032" d="M253.2 7.802L256.8 6v3.6l-3.6-1.798"/></g><g opacity=".11"><path fill="#2e3032" d="M235.862 38.888l2.276 1.314-2.276 1.31v-2.624"/></g><g opacity=".11"><path fill="#2e3032" d="M198.614 104.996l2.372-1.368v2.744l-2.372-1.376"/></g><g opacity=".11"><path fill="#2e3032" d="M178.8 135.6l3.6 1.798-3.6 1.802v-3.6"/></g><g opacity=".11"><path fill="#2e3032" d="M138 202.203l7.2-4.203v8.4l-7.2-4.197"/></g><g opacity=".11"><path fill="#2e3032" d="M121.2 228l9.6 5.998-9.6 6.002v-12"/></g><g opacity=".11"><path fill="#2e3032" d="M73.2 298.806L94.8 286.8v24l-21.6-11.994"/></g><g opacity=".11"><path fill="#2e3032" d="M60 315.6l26.4 14.401L60 344.4v-28.8"/></g><g opacity=".11"><path fill="#2e3032" d="M8.4 395.4l36-19.8v39.6l-36-19.8"/></g><g opacity=".11"><path fill="#2e3032" d="M0 405.6l37.2 21.598L0 448.8v-43.2"/></g><g opacity=".11"><path fill="#2e3032" d="M6 608.4L27.6 621 6 633.6v-25.2"/></g><g opacity=".11"><path fill="#2e3032" d="M20.4 652.204L36 643.2v18l-15.6-8.996"/></g><g opacity=".11"><path fill="#2e3032" d="M199.489 40.2l.622-.356v.712l-.622-.356"/></g><g opacity=".11"><path fill="#2e3032" d="M180.377 73.544l.446.252-.446.26v-.512"/></g><g opacity=".11"><path fill="#2e3032" d="M142.248 137.402l2.304-1.329v2.654l-2.304-1.325"/></g><g opacity=".11"><path fill="#2e3032" d="M123.6 168l3.6 1.799-3.6 1.801V168"/></g><g opacity=".11"><path fill="#2e3032" d="M80.4 233.999L90 228v12l-9.6-6.001"/></g><g opacity=".11"><path fill="#2e3032" d="M63.6 256.8l15.6 8.401-15.6 8.399v-16.8"/></g><g opacity=".11"><path fill="#2e3032" d="M14.4 330.005L40.8 315.6v28.8l-26.4-14.395"/></g><g opacity=".11"><path fill="#2e3032" d="M3.6 344.4l31.2 17.999L3.6 380.4v-36"/></g><g opacity=".11"><path fill="#2e3032" d="M10.8 676.8l9.6 6.599L10.8 690v-13.2"/></g><g opacity=".11"><path fill="#2e3032" d="M180.258 7.41l.684.392-.684.389v-.782"/></g><g opacity=".11"><path fill="#2e3032" d="M125.386 104.982l.028.014-.028.022v-.036"/></g><g opacity=".11"><path fill="#2e3032" d="M84 169.795L87.6 168v3.6l-3.6-1.805"/></g><g opacity=".11"><path fill="#2e3032" d="M68.4 199.2l4.8 3.601-4.8 3.599v-7.2"/></g><g opacity=".11"><path fill="#2e3032" d="M20.4 265.199L36 256.8v16.8l-15.6-8.401"/></g><g opacity=".11"><path fill="#2e3032" d="M4.8 286.8l21.6 12.002L4.8 310.8v-24"/></g><g opacity=".11"><path fill="#2e3032" d="M143.396 7.8h.008-.008"/></g><g opacity=".11"><path fill="#2e3032" d="M68.606 136.946l.788.45-.788.458v-.908"/></g><g opacity=".11"><path fill="#2e3032" d="M27.6 202.8l4.8-3.6v7.2l-4.8-3.6"/></g><g opacity=".11"><path fill="#2e3032" d="M9.6 229.2l9.6 4.8-9.6 4.8v-9.6"/></g><g opacity=".11"><path fill="#2e3032" d="M30.339 137.395l.522-.296v.602l-.522-.306"/></g><g opacity=".11"><path fill="#2e3032" d="M10.8 166.8l3.6 1.799-3.6 1.801v-3.6"/></g><g opacity=".11"><path fill="#2e3032" d="M1100.82 654.393l.36.205-.36.209v-.414"/></g><g opacity=".11"><path fill="#2e3032" d="M1120.04 623.402l.32-.191v.378l-.32-.187"/></g><g opacity=".11"><path fill="#2e3032" d="M1119.473 688.204l1.454-.846v1.684l-1.454-.838"/></g></g></g></svg>