<svg xmlns="http://www.w3.org/2000/svg" width="115" height="43" viewBox="0 0 115 43"><g><g><g><path fill="#fff" d="M6.583 36.816c.652 0 1.16.218 1.522.653.363.435.546.975.546 1.617 0 .663-.183 1.212-.546 1.648-.363.435-.87.653-1.522.653h-1.46v-4.57zm2.653 5.002c.666-.656.999-1.556.999-2.702 0-1.145-.327-2.052-.978-2.722-.645-.67-1.539-1.004-2.685-1.004H3.6v7.423h2.911c1.16 0 2.068-.332 2.725-.995z"/></g><g><path fill="#fff" d="M19.554 42.813H14.4V35.39h5.154v1.386h-3.62v1.597h3.352v1.386h-3.352v1.668h3.62z"/></g><g><path fill="#fff" d="M26.754 40.523l1.996-5.133h1.728l-3.116 7.423h-1.215L22.99 35.39h1.758z"/></g><g><path fill="#fff" d="M39.423 42.813H34.27V35.39h5.153v1.386h-3.62v1.597h3.352v1.386h-3.353v1.668h3.62z"/></g><g><path fill="#fff" d="M49.09 42.813H43.7V35.39h1.532v5.997h3.857z"/></g><g><path fill="#fff" d="M57.837 40.794c-.461.45-1.029.673-1.702.673s-1.24-.224-1.7-.673c-.454-.448-.681-1.01-.681-1.687 0-.683.23-1.249.69-1.698a2.337 2.337 0 0 1 1.691-.683c.66 0 1.223.228 1.69.683.461.45.691 1.015.691 1.698.007.676-.22 1.239-.68 1.687zm1.101 1.025c.768-.743 1.152-1.647 1.152-2.712 0-1.065-.384-1.972-1.152-2.722-.76-.75-1.697-1.125-2.808-1.125-1.111 0-2.05.375-2.818 1.125-.762.75-1.142 1.664-1.142 2.742 0 1.071.377 1.975 1.132 2.712.747.73 1.687 1.095 2.818 1.095 1.118 0 2.057-.372 2.818-1.115z"/></g><g><path fill="#fff" d="M65.742 36.766h1.306c.336 0 .604.1.803.301.205.201.309.452.309.754 0 .314-.107.576-.32.783-.205.201-.496.302-.874.302h-1.224zm-1.522 6.047h1.522V40.25h1.173c.933 0 1.632-.227 2.098-.683.467-.468.7-1.044.7-1.727 0-.69-.226-1.27-.68-1.738-.445-.475-1.113-.713-2.005-.713H64.22z"/></g><g><path fill="#fff" d="M75.162 42.813H73.66V35.39h1.008l2.983 4.209 2.952-4.209h1.03v7.423H80.11v-4.209l-2.212 3.104h-.524l-2.212-3.104z"/></g><g><path fill="#fff" d="M91.364 42.813H86.21V35.39h5.154v1.386h-3.62v1.597h3.352v1.386h-3.352v1.668h3.62z"/></g><g><path fill="#fff" d="M100.619 39.98v-4.59h1.502v7.423h-1.039l-3.94-4.55v4.55H95.64V35.39h.967z"/></g><g><path fill="#fff" d="M108.16 42.813v-5.987h-2.17V35.39h5.884v1.436h-2.171v5.987z"/></g><g><path fill="#fff" d="M10.4 27.735c-2.06 0-3.965-.43-5.716-1.287-1.751-.858-3.16-2.073-4.224-3.646l3.017-3.682c1.752 2.454 4.07 3.682 6.957 3.682 1.089 0 1.989-.262 2.698-.787.71-.524 1.065-1.203 1.065-2.037 0-1.097-.793-2.014-2.378-2.753-.19-.095-1.054-.44-2.592-1.036-1.206-.477-2.236-.954-3.088-1.43-2.768-1.597-4.153-3.79-4.153-6.578 0-2.216.829-4.05 2.485-5.505C6.151 1.2 8.304.46 10.931.46c3.408 0 6.283 1.192 8.626 3.575l-2.805 3.86c-.709-.762-1.597-1.358-2.661-1.787-1.042-.453-2.072-.68-3.09-.68-1.04 0-1.868.24-2.483.716-.592.453-.888 1.06-.888 1.823 0 1.025.71 1.894 2.13 2.61l2.59 1.143c1.468.62 2.533 1.085 3.196 1.394 2.981 1.454 4.473 3.647 4.473 6.578 0 2.359-.888 4.29-2.663 5.79-1.775 1.502-4.093 2.253-6.957 2.253z"/></g><g><path fill="#fff" d="M31.244 5.777h4.507c1.16 0 2.083.358 2.77 1.073.709.715 1.064 1.608 1.064 2.68 0 1.12-.367 2.05-1.1 2.789-.711.715-1.717 1.072-3.017 1.072h-4.224zm-5.254 21.52h5.254V18.18h4.046c3.218 0 5.632-.81 7.24-2.43 1.61-1.668 2.415-3.718 2.415-6.149 0-2.454-.781-4.516-2.343-6.184C41.063 1.726 38.757.88 35.68.88h-9.69z"/></g><g><path fill="#fff" d="M69.039 27.297H50.44V.88h5.288v21.34h13.31z"/></g><g><path fill="#ff4141" d="M74.22 27.297L82.12.88h5.923l-7.9 26.417z"/></g><g><path fill="#fff" d="M101.69 27.297V5.992H94.2V.88h20.303v5.112h-7.49v21.305z"/></g></g></g></svg>