<svg xmlns="http://www.w3.org/2000/svg" viewBox="0 0 106.95 114.82">
  <defs>
    <style>
      .cls-1 {
        fill: none;
        stroke: #d11742;
        stroke-linecap: round;
        stroke-linejoin: round;
        stroke-width: 5px;
      }
    </style>
  </defs>
  <title>Headache</title>
  <g id="Слой_2" data-name="Слой 2">
    <g id="Layer_1" data-name="Layer 1">
      <g>
        <polyline class="cls-1" points="16.85 64.98 35.78 63.93 25.37 74.09 44.9 73.01"/>
        <polyline class="cls-1" points="26.16 22.44 48.51 37.93 27.78 40.26 50.84 56.24"/>
        <polyline class="cls-1" points="65.04 15.57 72.78 32.87 59.58 26.78 67.56 44.63"/>
        <path class="cls-1" d="M22.09,112.32V86.14l-1.24-.86A46,46,0,1,1,93.91,41l10.32,30.32a3.62,3.62,0,0,1-3.41,4.84l-6.72.36c0,15-4.77,22.22-4.77,22.22-4.18,1.74-20.49,1-20.49,1l0,12.61"/>
      </g>
    </g>
  </g>
</svg>
