<svg xmlns="http://www.w3.org/2000/svg" viewBox="0 0 106.95 114.82">
  <defs>
    <style>
      .cls-1, .cls-2 {
        fill: none;
        stroke: #d11742;
        stroke-linecap: round;
        stroke-linejoin: round;
      }

      .cls-1 {
        stroke-width: 5px;
      }

      .cls-2 {
        stroke-width: 0.75px;
      }
    </style>
  </defs>
  <title>Temperature</title>
  <g id="Слой_2" data-name="Слой 2">
    <g id="Layer_1" data-name="Layer 1">
      <g>
        <path class="cls-1" d="M22.09,112.32V86.14l-1.24-.86A46,46,0,1,1,93.91,41l10.32,30.32a3.62,3.62,0,0,1-3.41,4.84l-6.72.36c0,15-4.77,22.22-4.77,22.22-4.18,1.74-20.49,1-20.49,1l0,12.61"/>
        <polyline class="cls-1" points="67.21 82.61 67.21 39.34 77.63 49.76"/>
        <path class="cls-1" d="M44.18,63.76v-40a4.43,4.43,0,0,0-8.85,0v40a10,10,0,1,0,8.85,0Z"/>
        <circle class="cls-1" cx="39.75" cy="72.69" r="2.97"/>
        <line class="cls-2" x1="39.75" y1="72.69" x2="39.75" y2="42.54"/>
      </g>
    </g>
  </g>
</svg>
