<svg xmlns="http://www.w3.org/2000/svg" width="50" height="50" viewBox="0 0 50 50"><g>
  <g><path d="M20.894 20.69c0-1.9-1.293-1.9-1.293-1.9H14.28v4.078h4.991c.863 0 1.623-.275 1.623-2.178z"/></g>
  <g><path d="M33.225 22.86c-2.821 0-3.215 2.814-3.215 2.814h6.002c0 .002.037-2.814-2.787-2.814z"/></g>
  <g><path d="M19.598 25.68H14.28v4.886h4.711c.08 0 .198.004.339 0 .757-.019 2.196-.235 2.196-2.374 0-2.536-1.928-2.512-1.928-2.512z"/></g>
  <g><path d="M39.502 28.119h-9.464c0 3.396 3.215 3.182 3.215 3.182 3.033 0 2.928-1.966 2.928-1.966h3.216c0 5.218-6.25 4.859-6.25 4.859-7.497 0-7.015-6.985-7.015-6.985s-.007-7.022 7.016-7.022c7.39 0 6.352 7.932 6.354 7.932zm-14.095.293c0 5.574-5.806 5.392-5.806 5.392h-9.508V15.539h9.508c2.891 0 5.172 1.596 5.172 4.864s-2.788 3.475-2.788 3.475c3.675 0 3.422 4.534 3.422 4.534zm3.812-11.797h7.539v2.251h-7.539zM24.826 0C11.137 0 0 11.137 0 24.826c0 13.688 11.137 24.826 24.826 24.826 13.688 0 24.826-11.138 24.826-24.826C49.652 11.137 38.516 0 24.826 0z"/></g>
</g>
</svg>
