<svg xmlns="http://www.w3.org/2000/svg" width="50" height="50" viewBox="0 0 50 50"><g><g><path d="M29.78 24.995a4.785 4.785 0 1 1-9.57 0 4.785 4.785 0 0 1 9.57 0z"/></g><g><path d="M32.657 19.058a1.72 1.72 0 0 1-1.718-1.722c0-.952.77-1.723 1.718-1.723a1.72 1.72 0 0 1 1.718 1.723 1.72 1.72 0 0 1-1.718 1.722zM25 32.37a7.372 7.372 0 1 1 0-14.743 7.372 7.372 0 0 1 0 14.743zm10.117-17.488a4.445 4.445 0 0 0-1.65-1.074c-.506-.197-1.266-.43-2.666-.494-1.514-.07-1.968-.084-5.8-.084-3.834 0-4.288.015-5.802.084-1.4.064-2.16.297-2.665.494a4.442 4.442 0 0 0-1.65 1.074 4.45 4.45 0 0 0-1.075 1.65c-.197.506-.43 1.266-.494 2.666-.07 1.514-.084 1.968-.084 5.801s.015 4.287.084 5.801c.064 1.4.297 2.16.494 2.665a4.45 4.45 0 0 0 1.074 1.651 4.445 4.445 0 0 0 1.65 1.074c.506.197 1.266.43 2.666.494 1.514.07 1.967.084 5.8.084 3.834 0 4.288-.015 5.802-.084 1.4-.063 2.16-.297 2.665-.494a4.754 4.754 0 0 0 2.725-2.725c.196-.505.43-1.265.494-2.665.07-1.514.084-1.968.084-5.8 0-3.834-.015-4.288-.084-5.802-.063-1.4-.297-2.16-.494-2.666a4.448 4.448 0 0 0-1.074-1.65z"/></g><g><path d="M38.611 34.412a7.343 7.343 0 0 1-4.2 4.2c-.913.354-1.957.597-3.485.667-1.531.07-2.02.086-5.92.086-3.901 0-4.39-.016-5.922-.086-1.528-.07-2.572-.313-3.485-.668a7.036 7.036 0 0 1-2.544-1.656 7.038 7.038 0 0 1-1.656-2.543c-.355-.914-.598-1.958-.667-3.486-.071-1.532-.087-2.021-.087-5.921 0-3.9.016-4.39.086-5.92.07-1.53.312-2.573.667-3.486a7.035 7.035 0 0 1 1.657-2.544A7.034 7.034 0 0 1 15.6 11.4c.913-.355 1.957-.598 3.485-.668 1.532-.07 2.021-.086 5.921-.086 3.9 0 4.39.016 5.92.087 1.53.069 2.573.312 3.487.666a7.04 7.04 0 0 1 2.543 1.657 7.036 7.036 0 0 1 1.656 2.544c.356.913.598 1.957.668 3.485.07 1.532.086 2.021.086 5.921 0 3.9-.016 4.39-.086 5.92-.07 1.53-.313 2.573-.668 3.487zM25 0C11.195 0 0 11.195 0 25s11.195 25 25 25 25-11.195 25-25S38.805 0 25 0z"/></g></g></svg>