<svg xmlns="http://www.w3.org/2000/svg" width="50" height="50" viewBox="0 0 50 50"><g><g><path d="M39.7 37.783h-6.092v-9.794c0-2.462-.882-4.14-3.086-4.14-1.683 0-2.685 1.132-3.125 2.225-.161.391-.2.938-.2 1.485v10.224h-6.092s.08-16.59 0-18.308h6.091v2.592c.81-1.247 2.258-3.022 5.49-3.022 4.008 0 7.014 2.617 7.014 8.24zM14.69 16.973h-.04c-2.043 0-3.364-1.406-3.364-3.163 0-1.798 1.362-3.165 3.445-3.165 2.082 0 3.364 1.367 3.404 3.165 0 1.757-1.322 3.164-3.445 3.164zm3.044 20.81h-6.088V19.475h6.088zM25 0C11.195 0 0 11.195 0 25s11.195 25 25 25 25-11.195 25-25S38.805 0 25 0z"/></g></g></svg>