<svg xmlns="http://www.w3.org/2000/svg" width="34" height="34" viewBox="0 0 34 34"><defs><clipPath id="jvjba"><path fill="#fff" d="M0 17C0 7.611 7.611 0 17 0s17 7.611 17 17-7.611 17-17 17S0 26.389 0 17z"/></clipPath></defs><g><g><path fill="#fff" d="M17.813 25.12v-7.344h2.507l.359-2.866h-2.866v-1.79c0-.807.268-1.433 1.433-1.433h1.522V9.09c-.358 0-1.254-.09-2.239-.09-2.149 0-3.671 1.343-3.671 3.761v2.15H12.35v2.865h2.508v7.344z"/></g><g><path fill="none" stroke="#fff" stroke-miterlimit="50" stroke-width="4" d="M0 17C0 7.611 7.611 0 17 0s17 7.611 17 17-7.611 17-17 17S0 26.389 0 17z" clip-path="url(&quot;#jvjba&quot;)"/></g></g></svg>