<svg xmlns="http://www.w3.org/2000/svg" width="96" height="56" viewBox="0 0 96 56"><defs><clipPath id="dfk4a"><path d="M59.915 0C78.505.11 93.39 6.902 95.697 17.95c.206.991.305 1.994.303 2.994C95.983 34.533 77.37 48.92 53.047 54c-5.823 1.21-11.53 1.792-16.905 1.805a70.173 70.173 0 0 1-8.08-.438L36.057 24.6h5.005l-3.498 13.058h5.104c.624-2.324 2.863-10.834 4.187-15.623H36.743l1.53-5.956c.303-1.138.541-1.8.74-2.294.834-2.134 2.115-3.36 3.66-3.6 1.247-.19 1.705.582 1.707 1.082.008.974-.77 1.178-.758 2.492.01.97.633 2.434 2.63 2.434 1.95 0 3.17-1.331 3.264-3.33.05-.957-.129-2.023-1.575-3.034-1.529-1.073-4.257-1.301-6.09-1.134-3.376.301-5.78 2.398-7.282 4.935-1.155 1.962-1.803 3.705-2.971 8.204 0 0-5.935 22.805-8.515 32.766C10.866 52.17 2.07 46.19.317 37.774a14.78 14.78 0 0 1-.318-2.872v-.413C.184 20.993 18.02 6.861 42.17 1.824 47.92.622 53.599.032 58.975 0zM8.203 37.657h5.14c.322-1.182 1.215-4.505 2.258-8.334 10.517-.017 12.986-2.96 13.945-7.078.777-3.327.133-8.01-9.03-8.01h-5.975zm52.442-5.518c0 3.608 2.633 6.036 6.525 6.036 1.792 0 3.43-.397 4.86-1.142.907-.474 1.705-1.122 2.42-1.859l-.888-2.378c-.262.26-2.526 2.458-4.922 2.458-1.788 0-3.065-1.288-3.065-2.793 0-.322-.026-.553.036-1.144 2.825 0 4.506-.33 6.17-.888 2.67-.867 4.438-3.15 4.438-5.37 0-2.14-2.335-3.394-5.044-3.394-5.441 0-10.53 4.823-10.53 10.474m28.497-10.375c-2.017 0-4.215 1.98-5.385 3.402l.895-3.132h-4.988l-4.22 15.623h5.143l1.983-7.286c.153-.524.412-1.247.768-2.018.51-1.114 1.213-2.275 2.042-3.009.61-.541 1.197-.83 1.916-.717.496.081.64.502.698.932.056.373.12.815.556 1.247.167.17.586.551 1.524.551 1.24 0 2.329-1.058 2.329-2.599 0-1.303-.43-2.994-3.26-2.994m-33.525 2.835c-1.571 2.421-9.839 8.124-9.839 13.058h13.09l.84-3.142h-8.053c1.906-3.674 8.834-7.62 10.305-12.48H49.177l-.693 2.562 7.134.002m-35.675-8.03c4.849 0 5.25 2.207 4.222 5.508-1.253 4.035-3.818 4.744-7.892 4.752.998-3.692 2.041-7.538 2.773-10.26zm48.676 8.434c.762-.584 1.682-.885 2.253-.885 1.25 0 1.524.694 1.524 1.138 0 .807-.485 1.766-1.577 2.616-1.2.949-2.514 1.292-4.838 1.376.378-1.726 1.36-3.267 2.638-4.245"/></clipPath></defs><g><g><g><g><path fill="#cbd5db" d="M59.915 0C78.505.11 93.39 6.902 95.697 17.95c.206.991.305 1.994.303 2.994C95.983 34.533 77.37 48.92 53.047 54c-5.823 1.21-11.53 1.792-16.905 1.805a70.173 70.173 0 0 1-8.08-.438L36.057 24.6h5.005l-3.498 13.058h5.104c.624-2.324 2.863-10.834 4.187-15.623H36.743l1.53-5.956c.303-1.138.541-1.8.74-2.294.834-2.134 2.115-3.36 3.66-3.6 1.247-.19 1.705.582 1.707 1.082.008.974-.77 1.178-.758 2.492.01.97.633 2.434 2.63 2.434 1.95 0 3.17-1.331 3.264-3.33.05-.957-.129-2.023-1.575-3.034-1.529-1.073-4.257-1.301-6.09-1.134-3.376.301-5.78 2.398-7.282 4.935-1.155 1.962-1.803 3.705-2.971 8.204 0 0-5.935 22.805-8.515 32.766C10.866 52.17 2.07 46.19.317 37.774a14.78 14.78 0 0 1-.318-2.872v-.413C.184 20.993 18.02 6.861 42.17 1.824 47.92.622 53.599.032 58.975 0zM8.203 37.657h5.14c.322-1.182 1.215-4.505 2.258-8.334 10.517-.017 12.986-2.96 13.945-7.078.777-3.327.133-8.01-9.03-8.01h-5.975zm52.442-5.518c0 3.608 2.633 6.036 6.525 6.036 1.792 0 3.43-.397 4.86-1.142.907-.474 1.705-1.122 2.42-1.859l-.888-2.378c-.262.26-2.526 2.458-4.922 2.458-1.788 0-3.065-1.288-3.065-2.793 0-.322-.026-.553.036-1.144 2.825 0 4.506-.33 6.17-.888 2.67-.867 4.438-3.15 4.438-5.37 0-2.14-2.335-3.394-5.044-3.394-5.441 0-10.53 4.823-10.53 10.474m28.497-10.375c-2.017 0-4.215 1.98-5.385 3.402l.895-3.132h-4.988l-4.22 15.623h5.143l1.983-7.286c.153-.524.412-1.247.768-2.018.51-1.114 1.213-2.275 2.042-3.009.61-.541 1.197-.83 1.916-.717.496.081.64.502.698.932.056.373.12.815.556 1.247.167.17.586.551 1.524.551 1.24 0 2.329-1.058 2.329-2.599 0-1.303-.43-2.994-3.26-2.994m-33.525 2.835c-1.571 2.421-9.839 8.124-9.839 13.058h13.09l.84-3.142h-8.053c1.906-3.674 8.834-7.62 10.305-12.48H49.177l-.693 2.562 7.134.002m-35.675-8.03c4.849 0 5.25 2.207 4.222 5.508-1.253 4.035-3.818 4.744-7.892 4.752.998-3.692 2.041-7.538 2.773-10.26zm48.676 8.434c.762-.584 1.682-.885 2.253-.885 1.25 0 1.524.694 1.524 1.138 0 .807-.485 1.766-1.577 2.616-1.2.949-2.514 1.292-4.838 1.376.378-1.726 1.36-3.267 2.638-4.245"/></g><g clip-path="url(#dfk4a)"><path fill="#cbd5db" d="M0 55.812V0h96.002v55.812z"/></g></g></g></g></svg>