<svg xmlns="http://www.w3.org/2000/svg" width="225" height="56" viewBox="0 0 225 56"><defs><clipPath id="j3bsa"><path d="M189.876.618c18.124.109 32.636 6.73 34.886 17.5.2.967.297 1.945.295 2.92-.017 13.248-18.164 27.275-41.878 32.228-5.677 1.18-11.241 1.747-16.48 1.76-2.721.006-5.356-.14-7.878-.427l7.793-29.998h4.88l-3.41 12.732h4.976c.609-2.267 2.791-10.564 4.082-15.232h-9.858l1.492-5.807c.295-1.11.527-1.756.722-2.237.812-2.08 2.061-3.275 3.568-3.51 1.216-.186 1.661.568 1.664 1.055.008.95-.752 1.149-.74 2.43.011.946.618 2.373 2.564 2.373 1.902 0 3.091-1.298 3.183-3.246.048-.933-.126-1.973-1.536-2.959-1.49-1.046-4.15-1.268-5.937-1.105-3.291.293-5.635 2.338-7.1 4.81-1.126 1.914-1.758 3.613-2.896 7.999 0 0-5.786 22.234-8.301 31.946-11.911-2.37-20.487-8.2-22.197-16.404a14.396 14.396 0 0 1-.31-2.8v-.402c.18-13.158 17.57-26.936 41.114-31.847 5.608-1.172 11.143-1.748 16.385-1.78zm-50.417 36.715h5.012c.313-1.153 1.184-4.393 2.2-8.126 10.255-.017 12.661-2.886 13.596-6.901.758-3.244.13-7.81-8.803-7.81h-5.826zm51.128-5.38c0 3.517 2.568 5.884 6.362 5.884 1.747 0 3.344-.387 4.737-1.113.886-.463 1.664-1.095 2.36-1.812l-.866-2.319c-.255.253-2.462 2.396-4.798 2.396-1.743 0-2.988-1.256-2.988-2.722 0-.314-.025-.54.036-1.116 2.753 0 4.392-.322 6.014-.866 2.603-.846 4.327-3.07 4.327-5.236 0-2.086-2.277-3.308-4.918-3.308-5.304 0-10.266 4.702-10.266 10.212m27.784-10.116c-1.967 0-4.11 1.931-5.25 3.317l.872-3.053h-4.863l-4.114 15.232h5.014l1.933-7.105c.149-.51.402-1.215.75-1.967.495-1.086 1.182-2.218 1.99-2.933.594-.528 1.167-.81 1.868-.7.483.08.624.49.68.909.054.364.117.795.542 1.215.163.166.571.538 1.486.538 1.21 0 2.27-1.031 2.27-2.534 0-1.27-.418-2.92-3.178-2.92m-32.685 2.765c-1.532 2.36-9.592 7.92-9.592 12.732h12.763l.818-3.064h-7.852c1.858-3.582 8.613-7.429 10.047-12.168h-12.464l-.675 2.498 6.955.002m-34.78-7.828c4.726 0 5.118 2.151 4.115 5.37-1.222 3.934-3.722 4.624-7.694 4.632.973-3.599 1.99-7.349 2.704-10.002zm47.455 8.222c.743-.57 1.64-.862 2.197-.862 1.218 0 1.486.675 1.486 1.108 0 .787-.473 1.723-1.538 2.551-1.17.926-2.45 1.26-4.717 1.342.369-1.683 1.327-3.185 2.572-4.14"/></clipPath><clipPath id="j3bsb"><path d="M189.876.618c18.124.109 32.636 6.73 34.886 17.5.2.967.297 1.945.295 2.92-.017 13.248-18.164 27.275-41.878 32.228-5.677 1.18-11.241 1.747-16.48 1.76-2.721.006-5.356-.14-7.878-.427l7.793-29.998h4.88l-3.41 12.732h4.976c.609-2.267 2.791-10.564 4.082-15.232h-9.858l1.492-5.807c.295-1.11.527-1.756.722-2.237.812-2.08 2.061-3.275 3.568-3.51 1.216-.186 1.661.568 1.664 1.055.008.95-.752 1.149-.74 2.43.011.946.618 2.373 2.564 2.373 1.902 0 3.091-1.298 3.183-3.246.048-.933-.126-1.973-1.536-2.959-1.49-1.046-4.15-1.268-5.937-1.105-3.291.293-5.635 2.338-7.1 4.81-1.126 1.914-1.758 3.613-2.896 7.999 0 0-5.786 22.234-8.301 31.946-11.911-2.37-20.487-8.2-22.197-16.404a14.396 14.396 0 0 1-.31-2.8v-.402c.18-13.158 17.57-26.936 41.114-31.847 5.608-1.172 11.143-1.748 16.385-1.78zm-50.417 36.715h5.012c.313-1.153 1.184-4.393 2.2-8.126 10.255-.017 12.661-2.886 13.596-6.901.758-3.244.13-7.81-8.803-7.81h-5.826zm51.128-5.38c0 3.517 2.568 5.884 6.362 5.884 1.747 0 3.344-.387 4.737-1.113.886-.463 1.664-1.095 2.36-1.812l-.866-2.319c-.255.253-2.462 2.396-4.798 2.396-1.743 0-2.988-1.256-2.988-2.722 0-.314-.025-.54.036-1.116 2.753 0 4.392-.322 6.014-.866 2.603-.846 4.327-3.07 4.327-5.236 0-2.086-2.277-3.308-4.918-3.308-5.304 0-10.266 4.702-10.266 10.212m27.784-10.116c-1.967 0-4.11 1.931-5.25 3.317l.872-3.053h-4.863l-4.114 15.232h5.014l1.933-7.105c.149-.51.402-1.215.75-1.967.495-1.086 1.182-2.218 1.99-2.933.594-.528 1.167-.81 1.868-.7.483.08.624.49.68.909.054.364.117.795.542 1.215.163.166.571.538 1.486.538 1.21 0 2.27-1.031 2.27-2.534 0-1.27-.418-2.92-3.178-2.92m-32.685 2.765c-1.532 2.36-9.592 7.92-9.592 12.732h12.763l.818-3.064h-7.852c1.858-3.582 8.613-7.429 10.047-12.168h-12.464l-.675 2.498 6.955.002m-34.78-7.828c4.726 0 5.118 2.151 4.115 5.37-1.222 3.934-3.722 4.624-7.694 4.632.973-3.599 1.99-7.349 2.704-10.002zm47.455 8.222c.743-.57 1.64-.862 2.197-.862 1.218 0 1.486.675 1.486 1.108 0 .787-.473 1.723-1.538 2.551-1.17.926-2.45 1.26-4.717 1.342.369-1.683 1.327-3.185 2.572-4.14"/></clipPath></defs><g><g><g><g><path fill="#fff" d="M121.575 55.644a.618.618 0 0 1-.617-.618V.618a.618.618 0 1 1 1.235 0v54.408a.618.618 0 0 1-.618.618z"/></g></g><g><g><path fill="#fff" d="M189.876.618c18.124.109 32.636 6.73 34.886 17.5.2.967.297 1.945.295 2.92-.017 13.248-18.164 27.275-41.878 32.228-5.677 1.18-11.241 1.747-16.48 1.76-2.721.006-5.356-.14-7.878-.427l7.793-29.998h4.88l-3.41 12.732h4.976c.609-2.267 2.791-10.564 4.082-15.232h-9.858l1.492-5.807c.295-1.11.527-1.756.722-2.237.812-2.08 2.061-3.275 3.568-3.51 1.216-.186 1.661.568 1.664 1.055.008.95-.752 1.149-.74 2.43.011.946.618 2.373 2.564 2.373 1.902 0 3.091-1.298 3.183-3.246.048-.933-.126-1.973-1.536-2.959-1.49-1.046-4.15-1.268-5.937-1.105-3.291.293-5.635 2.338-7.1 4.81-1.126 1.914-1.758 3.613-2.896 7.999 0 0-5.786 22.234-8.301 31.946-11.911-2.37-20.487-8.2-22.197-16.404a14.396 14.396 0 0 1-.31-2.8v-.402c.18-13.158 17.57-26.936 41.114-31.847 5.608-1.172 11.143-1.748 16.385-1.78zm-50.417 36.715h5.012c.313-1.153 1.184-4.393 2.2-8.126 10.255-.017 12.661-2.886 13.596-6.901.758-3.244.13-7.81-8.803-7.81h-5.826zm51.128-5.38c0 3.517 2.568 5.884 6.362 5.884 1.747 0 3.344-.387 4.737-1.113.886-.463 1.664-1.095 2.36-1.812l-.866-2.319c-.255.253-2.462 2.396-4.798 2.396-1.743 0-2.988-1.256-2.988-2.722 0-.314-.025-.54.036-1.116 2.753 0 4.392-.322 6.014-.866 2.603-.846 4.327-3.07 4.327-5.236 0-2.086-2.277-3.308-4.918-3.308-5.304 0-10.266 4.702-10.266 10.212m27.784-10.116c-1.967 0-4.11 1.931-5.25 3.317l.872-3.053h-4.863l-4.114 15.232h5.014l1.933-7.105c.149-.51.402-1.215.75-1.967.495-1.086 1.182-2.218 1.99-2.933.594-.528 1.167-.81 1.868-.7.483.08.624.49.68.909.054.364.117.795.542 1.215.163.166.571.538 1.486.538 1.21 0 2.27-1.031 2.27-2.534 0-1.27-.418-2.92-3.178-2.92m-32.685 2.765c-1.532 2.36-9.592 7.92-9.592 12.732h12.763l.818-3.064h-7.852c1.858-3.582 8.613-7.429 10.047-12.168h-12.464l-.675 2.498 6.955.002m-34.78-7.828c4.726 0 5.118 2.151 4.115 5.37-1.222 3.934-3.722 4.624-7.694 4.632.973-3.599 1.99-7.349 2.704-10.002zm47.455 8.222c.743-.57 1.64-.862 2.197-.862 1.218 0 1.486.675 1.486 1.108 0 .787-.473 1.723-1.538 2.551-1.17.926-2.45 1.26-4.717 1.342.369-1.683 1.327-3.185 2.572-4.14"/></g><g><g><path fill="#fff" d="M189.876.618c18.124.109 32.636 6.73 34.886 17.5.2.967.297 1.945.295 2.92-.017 13.248-18.164 27.275-41.878 32.228-5.677 1.18-11.241 1.747-16.48 1.76-2.721.006-5.356-.14-7.878-.427l7.793-29.998h4.88l-3.41 12.732h4.976c.609-2.267 2.791-10.564 4.082-15.232h-9.858l1.492-5.807c.295-1.11.527-1.756.722-2.237.812-2.08 2.061-3.275 3.568-3.51 1.216-.186 1.661.568 1.664 1.055.008.95-.752 1.149-.74 2.43.011.946.618 2.373 2.564 2.373 1.902 0 3.091-1.298 3.183-3.246.048-.933-.126-1.973-1.536-2.959-1.49-1.046-4.15-1.268-5.937-1.105-3.291.293-5.635 2.338-7.1 4.81-1.126 1.914-1.758 3.613-2.896 7.999 0 0-5.786 22.234-8.301 31.946-11.911-2.37-20.487-8.2-22.197-16.404a14.396 14.396 0 0 1-.31-2.8v-.402c.18-13.158 17.57-26.936 41.114-31.847 5.608-1.172 11.143-1.748 16.385-1.78zm-50.417 36.715h5.012c.313-1.153 1.184-4.393 2.2-8.126 10.255-.017 12.661-2.886 13.596-6.901.758-3.244.13-7.81-8.803-7.81h-5.826zm51.128-5.38c0 3.517 2.568 5.884 6.362 5.884 1.747 0 3.344-.387 4.737-1.113.886-.463 1.664-1.095 2.36-1.812l-.866-2.319c-.255.253-2.462 2.396-4.798 2.396-1.743 0-2.988-1.256-2.988-2.722 0-.314-.025-.54.036-1.116 2.753 0 4.392-.322 6.014-.866 2.603-.846 4.327-3.07 4.327-5.236 0-2.086-2.277-3.308-4.918-3.308-5.304 0-10.266 4.702-10.266 10.212m27.784-10.116c-1.967 0-4.11 1.931-5.25 3.317l.872-3.053h-4.863l-4.114 15.232h5.014l1.933-7.105c.149-.51.402-1.215.75-1.967.495-1.086 1.182-2.218 1.99-2.933.594-.528 1.167-.81 1.868-.7.483.08.624.49.68.909.054.364.117.795.542 1.215.163.166.571.538 1.486.538 1.21 0 2.27-1.031 2.27-2.534 0-1.27-.418-2.92-3.178-2.92m-32.685 2.765c-1.532 2.36-9.592 7.92-9.592 12.732h12.763l.818-3.064h-7.852c1.858-3.582 8.613-7.429 10.047-12.168h-12.464l-.675 2.498 6.955.002m-34.78-7.828c4.726 0 5.118 2.151 4.115 5.37-1.222 3.934-3.722 4.624-7.694 4.632.973-3.599 1.99-7.349 2.704-10.002zm47.455 8.222c.743-.57 1.64-.862 2.197-.862 1.218 0 1.486.675 1.486 1.108 0 .787-.473 1.723-1.538 2.551-1.17.926-2.45 1.26-4.717 1.342.369-1.683 1.327-3.185 2.572-4.14"/></g><g clip-path="url(#j3bsa)"><g><path fill="#fff" d="M131.46 55.032V.618h93.599v54.414z"/></g></g></g></g><g><g><path fill="#fff" d="M13.78 10.044c0-2.135.742-3.202 2.223-3.202.728 0 1.275.26 1.642.782.367.52.55 1.328.55 2.42 0 1.087-.18 1.888-.542 2.401-.362.514-.917.771-1.665.771-1.472 0-2.207-1.057-2.207-3.172zm7.528 0c0-1.845-.45-3.244-1.347-4.197-.898-.953-2.217-1.43-3.958-1.43-1.736 0-3.059.48-3.969 1.44-.91.961-1.365 2.352-1.365 4.172 0 1.84.457 3.242 1.372 4.205.916.962 2.231 1.443 3.947 1.443 1.74 0 3.062-.478 3.965-1.436.903-.957 1.355-2.356 1.355-4.197z"/></g><g><path fill="#fff" d="M27.355 15.528V4.59h2.97v10.938z"/></g><g><path fill="#fff" d="M43.15 15.528h-3.876l-3.995-7.706h-.067c.094 1.212.142 2.137.142 2.776v4.93h-2.619V4.59h3.86l3.98 7.601h.046a44.131 44.131 0 0 1-.105-2.656V4.59h2.634z"/></g><g><path fill="#fff" d="M45.56 15.528V4.59h2.97v10.938z"/></g><g><path fill="#fff" d="M52.638 18.917h1.751c.484-.703.903-1.466 1.257-2.29v-.164H52.99c-.01.314-.051.696-.123 1.145a9.79 9.79 0 0 1-.229 1.092zm3.128-11.91h2.663V4.59h-8.29v2.416h2.672v8.522h2.955z"/></g><g><path fill="#fff" d="M60.039 15.528V4.59h2.97v10.938z"/></g><g><path fill="#fff" d="M68.651 11.054c.454-1.716.747-2.865.88-3.45.131-.583.22-1.002.265-1.256.05.274.153.728.31 1.362.158.633.291 1.15.4 1.548l.472 1.796zm6.711 4.474L71.75 4.545h-3.943l-3.569 10.983h3.247l.554-2.05h3.554l.538 2.05z"/></g><g><path fill="#fff" d="M81.416 15.528h-2.955V7.006H75.79V4.59h8.29v2.416h-2.664z"/></g><g><path fill="#fff" d="M85.689 15.528V4.59h2.97v10.938z"/></g><g><path fill="#fff" d="M97.212 4.59h3.307l-3.584 10.938h-3.48L89.888 4.59h3.322l1.489 5.544c.31 1.232.479 2.09.509 2.573.035-.348.104-.785.21-1.309.104-.524.196-.935.276-1.234z"/></g><g><path fill="#fff" d="M104.979 11.054c.454-1.716.747-2.866.879-3.45.132-.583.22-1.002.266-1.256.05.275.153.728.31 1.361.157.634.29 1.15.4 1.55l.472 1.795zM107.523.939c-.095.34-.253.587-.475.744-.223.157-.535.236-.94.236-.473 0-.804-.066-.99-.198-.188-.132-.331-.393-.431-.782h-1.578c.044.903.322 1.59.834 2.065.51.474 1.233.71 2.165.71.908 0 1.632-.249 2.17-.748.539-.498.833-1.174.883-2.027zm4.167 14.589l-3.614-10.983h-3.943l-3.568 10.983h3.247l.553-2.05h3.554l.539 2.05z"/></g><g><path fill="#fff" d="M23.943 27.725c0 1.073-.21 1.87-.628 2.39-.42.522-1.078.783-1.976.783h-.658V24.77h.86c.808 0 1.41.242 1.807.726s.595 1.227.595 2.23zm1.635-3.995c-.955-.897-2.31-1.346-4.066-1.346h-3.786v10.938h3.539c1.82 0 3.233-.494 4.238-1.482 1.005-.987 1.508-2.394 1.508-4.22 0-1.695-.478-2.992-1.433-3.89z"/></g><g><path fill="#fff" d="M35.51 33.322h-6.493V22.384h6.494v2.371h-3.54v1.721h3.278v2.372h-3.277v2.065h3.539z"/></g><g><path fill="#fff" d="M47.992 33.322h-6.494V22.384h6.494v2.371h-3.539v1.721h3.277v2.372h-3.277v2.065h3.54z"/></g><g><path fill="#fff" d="M56.17 27.725c0 1.073-.209 1.87-.628 2.39-.418.522-1.077.783-1.975.783h-.658V24.77h.86c.808 0 1.41.242 1.807.726s.595 1.227.595 2.23zm1.636-3.995c-.956-.897-2.311-1.346-4.067-1.346h-3.785v10.938h3.538c1.82 0 3.234-.494 4.239-1.482 1.005-.987 1.507-2.394 1.507-4.22 0-1.695-.477-2.992-1.432-3.89z"/></g><g><path fill="#fff" d="M70.544 22.384v6.583c0 1.432-.405 2.54-1.216 3.326-.81.786-1.978 1.178-3.505 1.178-1.491 0-2.637-.381-3.438-1.144-.8-.763-1.2-1.86-1.2-3.292v-6.651h2.97v6.419c0 .773.144 1.334.434 1.683.289.35.715.524 1.28.524.603 0 1.04-.173 1.312-.52.272-.347.408-.914.408-1.702v-6.404z"/></g><g><path fill="#fff" d="M77.757 24.65c-.703 0-1.251.288-1.646.865-.393.576-.59 1.37-.59 2.382 0 2.105.8 3.158 2.401 3.158.484 0 .953-.067 1.407-.202.453-.135.91-.297 1.369-.487v2.5c-.913.403-1.945.605-3.098.605-1.65 0-2.916-.478-3.797-1.436-.88-.958-1.32-2.342-1.32-4.153 0-1.132.213-2.127.64-2.985a4.578 4.578 0 0 1 1.84-1.979c.8-.461 1.742-.692 2.825-.692 1.182 0 2.311.258 3.389.771l-.906 2.327c-.404-.19-.808-.349-1.212-.479a4.242 4.242 0 0 0-1.302-.194z"/></g><g><path fill="#fff" d="M86.108 28.847c.454-1.715.747-2.865.88-3.448.131-.584.22-1.003.265-1.257.05.274.153.728.31 1.361.157.634.29 1.15.4 1.549l.472 1.795zm6.711 4.475l-3.614-10.983h-3.942l-3.569 10.983h3.247l.554-2.05h3.553l.539 2.05z"/></g><g><path fill="#fff" d="M97.002 24.62h.584c1.012 0 1.519.377 1.519 1.13 0 .913-.517 1.37-1.55 1.37h-.553zm.748 4.722l2.32 3.98h3.352l-3.188-4.766c1.237-.693 1.856-1.673 1.856-2.94 0-2.155-1.487-3.232-4.46-3.232h-3.583v10.938h2.955v-3.98z"/></g><g><path fill="#fff" d="M110.957 33.322h-6.494V22.384h6.494v2.371h-3.54v1.721h3.278v2.372h-3.277v2.065h3.539z"/></g><g><path fill="#fff" d="M7.66 47.794c0 .678-.171 1.28-.515 1.806-.345.527-.84.936-1.49 1.227-.648.292-1.408.438-2.281.438-.728 0-1.34-.051-1.833-.154A6.786 6.786 0 0 1 0 50.577v-2.634c.563.29 1.15.515 1.758.677a6.557 6.557 0 0 0 1.676.244c.439 0 .76-.077.965-.229a.702.702 0 0 0 .307-.587c0-.15-.042-.28-.124-.393a1.446 1.446 0 0 0-.396-.34c-.182-.115-.668-.35-1.455-.704-.714-.324-1.249-.638-1.605-.942a2.893 2.893 0 0 1-.793-1.048c-.172-.393-.258-.86-.258-1.399 0-1.007.366-1.793 1.1-2.357.733-.563 1.74-.845 3.022-.845 1.132 0 2.287.262 3.464.786l-.905 2.282c-1.023-.47-1.906-.704-2.649-.704-.384 0-.663.068-.838.202a.612.612 0 0 0-.262.502c0 .214.111.406.333.576.222.17.825.478 1.807.927.943.424 1.597.88 1.964 1.366.367.486.55 1.099.55 1.837z"/></g><g><path fill="#fff" d="M18.697 40.177v6.584c0 1.432-.405 2.54-1.215 3.326-.811.785-1.98 1.178-3.506 1.178-1.491 0-2.637-.382-3.437-1.145-.8-.763-1.201-1.86-1.201-3.292v-6.65h2.97v6.419c0 .773.145 1.334.434 1.683.29.35.716.523 1.28.523.603 0 1.04-.173 1.313-.52.271-.346.407-.913.407-1.701v-6.405z"/></g><g><path fill="#fff" d="M28.193 47.794c0 .678-.172 1.28-.517 1.806-.344.527-.84.936-1.488 1.227-.649.292-1.41.438-2.282.438-.729 0-1.34-.051-1.833-.154a6.786 6.786 0 0 1-1.542-.534v-2.634c.564.29 1.15.515 1.759.677a6.556 6.556 0 0 0 1.675.244c.44 0 .761-.077.966-.229a.702.702 0 0 0 .306-.587c0-.15-.04-.28-.123-.393a1.447 1.447 0 0 0-.397-.34c-.182-.115-.667-.35-1.455-.704-.713-.324-1.248-.638-1.605-.942a2.894 2.894 0 0 1-.793-1.048c-.172-.393-.258-.86-.258-1.399 0-1.007.367-1.793 1.1-2.357.733-.563 1.74-.845 3.023-.845 1.132 0 2.287.262 3.464.786l-.906 2.282c-1.022-.47-1.905-.704-2.648-.704-.384 0-.664.068-.838.202a.612.612 0 0 0-.262.502c0 .214.111.406.333.576.222.17.824.478 1.807.927.942.424 1.597.88 1.964 1.366.366.486.55 1.099.55 1.837z"/></g><g><path fill="#fff" d="M31.628 54.505h1.75c.484-.704.903-1.467 1.258-2.29v-.164H31.98c-.01.314-.052.696-.124 1.144a9.799 9.799 0 0 1-.228 1.093zm3.127-11.91h2.663v-2.418h-8.29v2.417H31.8v8.521h2.955z"/></g><g><path fill="#fff" d="M39.028 51.115V40.177h2.97v10.938z"/></g><g><path fill="#fff" d="M54.823 51.115h-3.875l-3.996-7.706h-.067c.095 1.213.142 2.138.142 2.776v4.93h-2.618V40.177h3.86l3.98 7.602h.045a43.968 43.968 0 0 1-.105-2.656v-4.946h2.634z"/></g><g><path fill="#fff" d="M66.533 40.177v6.584c0 1.432-.406 2.54-1.216 3.326-.81.785-1.979 1.178-3.505 1.178-1.491 0-2.637-.382-3.438-1.145-.8-.763-1.2-1.86-1.2-3.292v-6.65h2.97v6.419c0 .773.144 1.334.434 1.683.289.35.715.523 1.279.523.603 0 1.041-.173 1.313-.52.272-.346.408-.913.408-1.701v-6.405z"/></g><g><path fill="#fff" d="M73.701 51.115h-2.955v-8.52h-2.67v-2.418h8.289v2.417H73.7z"/></g><g><path fill="#fff" d="M81.206 46.641c.454-1.715.747-2.865.88-3.449.132-.583.22-1.002.265-1.257.05.275.154.729.31 1.362.158.634.291 1.15.4 1.549l.472 1.795zm2.544-10.115c-.095.34-.253.588-.475.745-.222.157-.535.235-.939.235-.474 0-.804-.066-.991-.198-.187-.132-.33-.393-.43-.782h-1.579c.045.903.323 1.591.834 2.065.512.474 1.233.711 2.166.711.908 0 1.631-.25 2.17-.748.538-.499.833-1.175.883-2.028zm4.167 14.59l-3.613-10.983H80.36l-3.569 10.983h3.247l.554-2.05h3.554l.538 2.05z"/></g><g><path fill="#fff" d="M98.76 47.91c-.418.52-1.077.781-1.975.781h-.658v-6.127h.86c.808 0 1.41.242 1.807.726s.595 1.227.595 2.23c0 1.072-.21 1.868-.629 2.39zm2.264-6.386c-.955-.898-2.311-1.347-4.067-1.347h-3.785v10.938h3.538c1.821 0 3.234-.493 4.239-1.481 1.005-.987 1.507-2.394 1.507-4.22 0-1.695-.477-2.992-1.432-3.89z"/></g><g><path fill="#fff" d="M110.957 51.115h-6.494V40.177h6.494v2.372h-3.54v1.72h3.278v2.372h-3.277v2.065h3.539z"/></g></g></g><g><g><g><path fill="#fff" d="M121.575 55.644a.618.618 0 0 1-.617-.618V.618a.618.618 0 1 1 1.235 0v54.408a.618.618 0 0 1-.618.618z"/></g></g><g><g><path fill="#fff" d="M189.876.618c18.124.109 32.636 6.73 34.886 17.5.2.967.297 1.945.295 2.92-.017 13.248-18.164 27.275-41.878 32.228-5.677 1.18-11.241 1.747-16.48 1.76-2.721.006-5.356-.14-7.878-.427l7.793-29.998h4.88l-3.41 12.732h4.976c.609-2.267 2.791-10.564 4.082-15.232h-9.858l1.492-5.807c.295-1.11.527-1.756.722-2.237.812-2.08 2.061-3.275 3.568-3.51 1.216-.186 1.661.568 1.664 1.055.008.95-.752 1.149-.74 2.43.011.946.618 2.373 2.564 2.373 1.902 0 3.091-1.298 3.183-3.246.048-.933-.126-1.973-1.536-2.959-1.49-1.046-4.15-1.268-5.937-1.105-3.291.293-5.635 2.338-7.1 4.81-1.126 1.914-1.758 3.613-2.896 7.999 0 0-5.786 22.234-8.301 31.946-11.911-2.37-20.487-8.2-22.197-16.404a14.396 14.396 0 0 1-.31-2.8v-.402c.18-13.158 17.57-26.936 41.114-31.847 5.608-1.172 11.143-1.748 16.385-1.78zm-50.417 36.715h5.012c.313-1.153 1.184-4.393 2.2-8.126 10.255-.017 12.661-2.886 13.596-6.901.758-3.244.13-7.81-8.803-7.81h-5.826zm51.128-5.38c0 3.517 2.568 5.884 6.362 5.884 1.747 0 3.344-.387 4.737-1.113.886-.463 1.664-1.095 2.36-1.812l-.866-2.319c-.255.253-2.462 2.396-4.798 2.396-1.743 0-2.988-1.256-2.988-2.722 0-.314-.025-.54.036-1.116 2.753 0 4.392-.322 6.014-.866 2.603-.846 4.327-3.07 4.327-5.236 0-2.086-2.277-3.308-4.918-3.308-5.304 0-10.266 4.702-10.266 10.212m27.784-10.116c-1.967 0-4.11 1.931-5.25 3.317l.872-3.053h-4.863l-4.114 15.232h5.014l1.933-7.105c.149-.51.402-1.215.75-1.967.495-1.086 1.182-2.218 1.99-2.933.594-.528 1.167-.81 1.868-.7.483.08.624.49.68.909.054.364.117.795.542 1.215.163.166.571.538 1.486.538 1.21 0 2.27-1.031 2.27-2.534 0-1.27-.418-2.92-3.178-2.92m-32.685 2.765c-1.532 2.36-9.592 7.92-9.592 12.732h12.763l.818-3.064h-7.852c1.858-3.582 8.613-7.429 10.047-12.168h-12.464l-.675 2.498 6.955.002m-34.78-7.828c4.726 0 5.118 2.151 4.115 5.37-1.222 3.934-3.722 4.624-7.694 4.632.973-3.599 1.99-7.349 2.704-10.002zm47.455 8.222c.743-.57 1.64-.862 2.197-.862 1.218 0 1.486.675 1.486 1.108 0 .787-.473 1.723-1.538 2.551-1.17.926-2.45 1.26-4.717 1.342.369-1.683 1.327-3.185 2.572-4.14"/></g><g><g><path fill="#fff" d="M189.876.618c18.124.109 32.636 6.73 34.886 17.5.2.967.297 1.945.295 2.92-.017 13.248-18.164 27.275-41.878 32.228-5.677 1.18-11.241 1.747-16.48 1.76-2.721.006-5.356-.14-7.878-.427l7.793-29.998h4.88l-3.41 12.732h4.976c.609-2.267 2.791-10.564 4.082-15.232h-9.858l1.492-5.807c.295-1.11.527-1.756.722-2.237.812-2.08 2.061-3.275 3.568-3.51 1.216-.186 1.661.568 1.664 1.055.008.95-.752 1.149-.74 2.43.011.946.618 2.373 2.564 2.373 1.902 0 3.091-1.298 3.183-3.246.048-.933-.126-1.973-1.536-2.959-1.49-1.046-4.15-1.268-5.937-1.105-3.291.293-5.635 2.338-7.1 4.81-1.126 1.914-1.758 3.613-2.896 7.999 0 0-5.786 22.234-8.301 31.946-11.911-2.37-20.487-8.2-22.197-16.404a14.396 14.396 0 0 1-.31-2.8v-.402c.18-13.158 17.57-26.936 41.114-31.847 5.608-1.172 11.143-1.748 16.385-1.78zm-50.417 36.715h5.012c.313-1.153 1.184-4.393 2.2-8.126 10.255-.017 12.661-2.886 13.596-6.901.758-3.244.13-7.81-8.803-7.81h-5.826zm51.128-5.38c0 3.517 2.568 5.884 6.362 5.884 1.747 0 3.344-.387 4.737-1.113.886-.463 1.664-1.095 2.36-1.812l-.866-2.319c-.255.253-2.462 2.396-4.798 2.396-1.743 0-2.988-1.256-2.988-2.722 0-.314-.025-.54.036-1.116 2.753 0 4.392-.322 6.014-.866 2.603-.846 4.327-3.07 4.327-5.236 0-2.086-2.277-3.308-4.918-3.308-5.304 0-10.266 4.702-10.266 10.212m27.784-10.116c-1.967 0-4.11 1.931-5.25 3.317l.872-3.053h-4.863l-4.114 15.232h5.014l1.933-7.105c.149-.51.402-1.215.75-1.967.495-1.086 1.182-2.218 1.99-2.933.594-.528 1.167-.81 1.868-.7.483.08.624.49.68.909.054.364.117.795.542 1.215.163.166.571.538 1.486.538 1.21 0 2.27-1.031 2.27-2.534 0-1.27-.418-2.92-3.178-2.92m-32.685 2.765c-1.532 2.36-9.592 7.92-9.592 12.732h12.763l.818-3.064h-7.852c1.858-3.582 8.613-7.429 10.047-12.168h-12.464l-.675 2.498 6.955.002m-34.78-7.828c4.726 0 5.118 2.151 4.115 5.37-1.222 3.934-3.722 4.624-7.694 4.632.973-3.599 1.99-7.349 2.704-10.002zm47.455 8.222c.743-.57 1.64-.862 2.197-.862 1.218 0 1.486.675 1.486 1.108 0 .787-.473 1.723-1.538 2.551-1.17.926-2.45 1.26-4.717 1.342.369-1.683 1.327-3.185 2.572-4.14"/></g><g clip-path="url(#j3bsb)"><g><path fill="#fff" d="M131.46 55.032V.618h93.599v54.414z"/></g></g></g></g><g><g><path fill="#fff" d="M13.78 10.044c0-2.135.742-3.202 2.223-3.202.728 0 1.275.26 1.642.782.367.52.55 1.328.55 2.42 0 1.087-.18 1.888-.542 2.401-.362.514-.917.771-1.665.771-1.472 0-2.207-1.057-2.207-3.172zm7.528 0c0-1.845-.45-3.244-1.347-4.197-.898-.953-2.217-1.43-3.958-1.43-1.736 0-3.059.48-3.969 1.44-.91.961-1.365 2.352-1.365 4.172 0 1.84.457 3.242 1.372 4.205.916.962 2.231 1.443 3.947 1.443 1.74 0 3.062-.478 3.965-1.436.903-.957 1.355-2.356 1.355-4.197z"/></g><g><path fill="#fff" d="M27.355 15.528V4.59h2.97v10.938z"/></g><g><path fill="#fff" d="M43.15 15.528h-3.876l-3.995-7.706h-.067c.094 1.212.142 2.137.142 2.776v4.93h-2.619V4.59h3.86l3.98 7.601h.046a44.131 44.131 0 0 1-.105-2.656V4.59h2.634z"/></g><g><path fill="#fff" d="M45.56 15.528V4.59h2.97v10.938z"/></g><g><path fill="#fff" d="M52.638 18.917h1.751c.484-.703.903-1.466 1.257-2.29v-.164H52.99c-.01.314-.051.696-.123 1.145a9.79 9.79 0 0 1-.229 1.092zm3.128-11.91h2.663V4.59h-8.29v2.416h2.672v8.522h2.955z"/></g><g><path fill="#fff" d="M60.039 15.528V4.59h2.97v10.938z"/></g><g><path fill="#fff" d="M68.651 11.054c.454-1.716.747-2.865.88-3.45.131-.583.22-1.002.265-1.256.05.274.153.728.31 1.362.158.633.291 1.15.4 1.548l.472 1.796zm6.711 4.474L71.75 4.545h-3.943l-3.569 10.983h3.247l.554-2.05h3.554l.538 2.05z"/></g><g><path fill="#fff" d="M81.416 15.528h-2.955V7.006H75.79V4.59h8.29v2.416h-2.664z"/></g><g><path fill="#fff" d="M85.689 15.528V4.59h2.97v10.938z"/></g><g><path fill="#fff" d="M97.212 4.59h3.307l-3.584 10.938h-3.48L89.888 4.59h3.322l1.489 5.544c.31 1.232.479 2.09.509 2.573.035-.348.104-.785.21-1.309.104-.524.196-.935.276-1.234z"/></g><g><path fill="#fff" d="M104.979 11.054c.454-1.716.747-2.866.879-3.45.132-.583.22-1.002.266-1.256.05.275.153.728.31 1.361.157.634.29 1.15.4 1.55l.472 1.795zM107.523.939c-.095.34-.253.587-.475.744-.223.157-.535.236-.94.236-.473 0-.804-.066-.99-.198-.188-.132-.331-.393-.431-.782h-1.578c.044.903.322 1.59.834 2.065.51.474 1.233.71 2.165.71.908 0 1.632-.249 2.17-.748.539-.498.833-1.174.883-2.027zm4.167 14.589l-3.614-10.983h-3.943l-3.568 10.983h3.247l.553-2.05h3.554l.539 2.05z"/></g><g><path fill="#fff" d="M23.943 27.725c0 1.073-.21 1.87-.628 2.39-.42.522-1.078.783-1.976.783h-.658V24.77h.86c.808 0 1.41.242 1.807.726s.595 1.227.595 2.23zm1.635-3.995c-.955-.897-2.31-1.346-4.066-1.346h-3.786v10.938h3.539c1.82 0 3.233-.494 4.238-1.482 1.005-.987 1.508-2.394 1.508-4.22 0-1.695-.478-2.992-1.433-3.89z"/></g><g><path fill="#fff" d="M35.51 33.322h-6.493V22.384h6.494v2.371h-3.54v1.721h3.278v2.372h-3.277v2.065h3.539z"/></g><g><path fill="#fff" d="M47.992 33.322h-6.494V22.384h6.494v2.371h-3.539v1.721h3.277v2.372h-3.277v2.065h3.54z"/></g><g><path fill="#fff" d="M56.17 27.725c0 1.073-.209 1.87-.628 2.39-.418.522-1.077.783-1.975.783h-.658V24.77h.86c.808 0 1.41.242 1.807.726s.595 1.227.595 2.23zm1.636-3.995c-.956-.897-2.311-1.346-4.067-1.346h-3.785v10.938h3.538c1.82 0 3.234-.494 4.239-1.482 1.005-.987 1.507-2.394 1.507-4.22 0-1.695-.477-2.992-1.432-3.89z"/></g><g><path fill="#fff" d="M70.544 22.384v6.583c0 1.432-.405 2.54-1.216 3.326-.81.786-1.978 1.178-3.505 1.178-1.491 0-2.637-.381-3.438-1.144-.8-.763-1.2-1.86-1.2-3.292v-6.651h2.97v6.419c0 .773.144 1.334.434 1.683.289.35.715.524 1.28.524.603 0 1.04-.173 1.312-.52.272-.347.408-.914.408-1.702v-6.404z"/></g><g><path fill="#fff" d="M77.757 24.65c-.703 0-1.251.288-1.646.865-.393.576-.59 1.37-.59 2.382 0 2.105.8 3.158 2.401 3.158.484 0 .953-.067 1.407-.202.453-.135.91-.297 1.369-.487v2.5c-.913.403-1.945.605-3.098.605-1.65 0-2.916-.478-3.797-1.436-.88-.958-1.32-2.342-1.32-4.153 0-1.132.213-2.127.64-2.985a4.578 4.578 0 0 1 1.84-1.979c.8-.461 1.742-.692 2.825-.692 1.182 0 2.311.258 3.389.771l-.906 2.327c-.404-.19-.808-.349-1.212-.479a4.242 4.242 0 0 0-1.302-.194z"/></g><g><path fill="#fff" d="M86.108 28.847c.454-1.715.747-2.865.88-3.448.131-.584.22-1.003.265-1.257.05.274.153.728.31 1.361.157.634.29 1.15.4 1.549l.472 1.795zm6.711 4.475l-3.614-10.983h-3.942l-3.569 10.983h3.247l.554-2.05h3.553l.539 2.05z"/></g><g><path fill="#fff" d="M97.002 24.62h.584c1.012 0 1.519.377 1.519 1.13 0 .913-.517 1.37-1.55 1.37h-.553zm.748 4.722l2.32 3.98h3.352l-3.188-4.766c1.237-.693 1.856-1.673 1.856-2.94 0-2.155-1.487-3.232-4.46-3.232h-3.583v10.938h2.955v-3.98z"/></g><g><path fill="#fff" d="M110.957 33.322h-6.494V22.384h6.494v2.371h-3.54v1.721h3.278v2.372h-3.277v2.065h3.539z"/></g><g><path fill="#fff" d="M7.66 47.794c0 .678-.171 1.28-.515 1.806-.345.527-.84.936-1.49 1.227-.648.292-1.408.438-2.281.438-.728 0-1.34-.051-1.833-.154A6.786 6.786 0 0 1 0 50.577v-2.634c.563.29 1.15.515 1.758.677a6.557 6.557 0 0 0 1.676.244c.439 0 .76-.077.965-.229a.702.702 0 0 0 .307-.587c0-.15-.042-.28-.124-.393a1.446 1.446 0 0 0-.396-.34c-.182-.115-.668-.35-1.455-.704-.714-.324-1.249-.638-1.605-.942a2.893 2.893 0 0 1-.793-1.048c-.172-.393-.258-.86-.258-1.399 0-1.007.366-1.793 1.1-2.357.733-.563 1.74-.845 3.022-.845 1.132 0 2.287.262 3.464.786l-.905 2.282c-1.023-.47-1.906-.704-2.649-.704-.384 0-.663.068-.838.202a.612.612 0 0 0-.262.502c0 .214.111.406.333.576.222.17.825.478 1.807.927.943.424 1.597.88 1.964 1.366.367.486.55 1.099.55 1.837z"/></g><g><path fill="#fff" d="M18.697 40.177v6.584c0 1.432-.405 2.54-1.215 3.326-.811.785-1.98 1.178-3.506 1.178-1.491 0-2.637-.382-3.437-1.145-.8-.763-1.201-1.86-1.201-3.292v-6.65h2.97v6.419c0 .773.145 1.334.434 1.683.29.35.716.523 1.28.523.603 0 1.04-.173 1.313-.52.271-.346.407-.913.407-1.701v-6.405z"/></g><g><path fill="#fff" d="M28.193 47.794c0 .678-.172 1.28-.517 1.806-.344.527-.84.936-1.488 1.227-.649.292-1.41.438-2.282.438-.729 0-1.34-.051-1.833-.154a6.786 6.786 0 0 1-1.542-.534v-2.634c.564.29 1.15.515 1.759.677a6.556 6.556 0 0 0 1.675.244c.44 0 .761-.077.966-.229a.702.702 0 0 0 .306-.587c0-.15-.04-.28-.123-.393a1.447 1.447 0 0 0-.397-.34c-.182-.115-.667-.35-1.455-.704-.713-.324-1.248-.638-1.605-.942a2.894 2.894 0 0 1-.793-1.048c-.172-.393-.258-.86-.258-1.399 0-1.007.367-1.793 1.1-2.357.733-.563 1.74-.845 3.023-.845 1.132 0 2.287.262 3.464.786l-.906 2.282c-1.022-.47-1.905-.704-2.648-.704-.384 0-.664.068-.838.202a.612.612 0 0 0-.262.502c0 .214.111.406.333.576.222.17.824.478 1.807.927.942.424 1.597.88 1.964 1.366.366.486.55 1.099.55 1.837z"/></g><g><path fill="#fff" d="M31.628 54.505h1.75c.484-.704.903-1.467 1.258-2.29v-.164H31.98c-.01.314-.052.696-.124 1.144a9.799 9.799 0 0 1-.228 1.093zm3.127-11.91h2.663v-2.418h-8.29v2.417H31.8v8.521h2.955z"/></g><g><path fill="#fff" d="M39.028 51.115V40.177h2.97v10.938z"/></g><g><path fill="#fff" d="M54.823 51.115h-3.875l-3.996-7.706h-.067c.095 1.213.142 2.138.142 2.776v4.93h-2.618V40.177h3.86l3.98 7.602h.045a43.968 43.968 0 0 1-.105-2.656v-4.946h2.634z"/></g><g><path fill="#fff" d="M66.533 40.177v6.584c0 1.432-.406 2.54-1.216 3.326-.81.785-1.979 1.178-3.505 1.178-1.491 0-2.637-.382-3.438-1.145-.8-.763-1.2-1.86-1.2-3.292v-6.65h2.97v6.419c0 .773.144 1.334.434 1.683.289.35.715.523 1.279.523.603 0 1.041-.173 1.313-.52.272-.346.408-.913.408-1.701v-6.405z"/></g><g><path fill="#fff" d="M73.701 51.115h-2.955v-8.52h-2.67v-2.418h8.289v2.417H73.7z"/></g><g><path fill="#fff" d="M81.206 46.641c.454-1.715.747-2.865.88-3.449.132-.583.22-1.002.265-1.257.05.275.154.729.31 1.362.158.634.291 1.15.4 1.549l.472 1.795zm2.544-10.115c-.095.34-.253.588-.475.745-.222.157-.535.235-.939.235-.474 0-.804-.066-.991-.198-.187-.132-.33-.393-.43-.782h-1.579c.045.903.323 1.591.834 2.065.512.474 1.233.711 2.166.711.908 0 1.631-.25 2.17-.748.538-.499.833-1.175.883-2.028zm4.167 14.59l-3.613-10.983H80.36l-3.569 10.983h3.247l.554-2.05h3.554l.538 2.05z"/></g><g><path fill="#fff" d="M98.76 47.91c-.418.52-1.077.781-1.975.781h-.658v-6.127h.86c.808 0 1.41.242 1.807.726s.595 1.227.595 2.23c0 1.072-.21 1.868-.629 2.39zm2.264-6.386c-.955-.898-2.311-1.347-4.067-1.347h-3.785v10.938h3.538c1.821 0 3.234-.493 4.239-1.481 1.005-.987 1.507-2.394 1.507-4.22 0-1.695-.477-2.992-1.432-3.89z"/></g><g><path fill="#fff" d="M110.957 51.115h-6.494V40.177h6.494v2.372h-3.54v1.72h3.278v2.372h-3.277v2.065h3.539z"/></g></g></g></g></svg>