<?xml version="1.0" encoding="UTF-8"?>
<svg width="42px" height="42px" viewBox="0 0 42 42" version="1.1" xmlns="http://www.w3.org/2000/svg" xmlns:xlink="http://www.w3.org/1999/xlink">
    <!-- Generator: Sketch 59 (86127) - https://sketch.com -->
    <title>gulp-1</title>
    <desc>Created with Sketch.</desc>
    <g id="Wireframes" stroke="none" stroke-width="1" fill="none" fill-rule="evenodd">
        <g id="Home---Wireframe" transform="translate(-413.000000, -2171.000000)">
            <g id="What-use" transform="translate(0.000000, 1734.000000)">
                <g id="Group-4" transform="translate(217.000000, 291.000000)">
                    <g id="Group-16" transform="translate(183.000000, 133.000000)">
                        <g id="git-icon" transform="translate(13.600000, 13.600000)">
                            <g id="gulp-1">
                                <circle id="Oval" fill="#CF4547" cx="20.5" cy="20.5" r="20.5"></circle>
                                <path d="M14.1781077,20.7611158 C14.158845,20.7892072 14.1251354,20.8766917 14.0753736,21.0251746 C14.0256117,21.1736574 13.965416,21.3590604 13.8947863,21.582186 C13.8241566,21.8053116 13.747106,22.0557259 13.6652398,22.3318238 C13.582571,22.6079217 13.4974943,22.8904405 13.4108124,23.1777749 C13.3233279,23.4659119 13.2398564,23.7476281 13.1595954,24.0245285 C13.0793344,24.3006264 13.0070995,24.5510408 12.9436933,24.7741664 C12.8802871,24.997292 12.8273148,25.1843002 12.7847765,25.3359935 C12.7422382,25.4868842 12.7165546,25.5759739 12.7069233,25.6040653 C12.6836476,25.693155 12.645925,25.7926786 12.5937553,25.9018336 C12.5415856,26.0109886 12.4805873,26.1137227 12.4099576,26.2116411 C12.3393279,26.3095595 12.2614747,26.3906232 12.176398,26.454832 C12.0913214,26.5190408 12.0038369,26.5511452 11.9147471,26.5511452 C11.7638564,26.5511452 11.6538989,26.5005808 11.585677,26.4002545 C11.5174551,26.2999282 11.4829429,26.1153279 11.4829429,25.8472561 L11.4829429,25.730075 C11.4829429,25.6907471 11.4853507,25.6490114 11.4901664,25.6048679 C11.4949821,25.5157781 11.5302969,25.3480326 11.5961109,25.1016313 C11.661925,24.8560326 11.7413834,24.5783295 11.8328809,24.2677194 C11.9243785,23.9571093 12.0239021,23.6368679 12.1298467,23.3037847 C12.2357912,22.9715041 12.3313018,22.6737357 12.4163785,22.4112822 C12.1659641,22.6905905 11.8954845,22.9682936 11.6025318,23.2451941 C11.3103817,23.5220946 11.0102055,23.7701011 10.7044111,23.9908189 C10.397814,24.2115367 10.0888091,24.392124 9.77739641,24.5309755 C9.46598369,24.6706297 9.16661011,24.7404568 8.87927569,24.7404568 C8.54940294,24.7404568 8.26527896,24.6674192 8.02690375,24.5229494 C7.78852855,24.377677 7.59188907,24.1874584 7.43618271,23.9530962 C7.28047635,23.7187341 7.16490049,23.4530701 7.08945514,23.156907 C7.01400979,22.8607439 6.97628711,22.5645808 6.97628711,22.2684176 L6.97628711,22.1592626 C6.97628711,22.125553 6.97869494,22.092646 6.9835106,22.0589364 C7.01160196,21.5227928 7.08865253,20.9722023 7.2130571,20.4079674 C7.33826427,19.8437325 7.50199674,19.2819054 7.7050571,18.7240914 C7.90811746,18.1654747 8.14247961,17.6196998 8.40894617,17.0859641 C8.67541272,16.5522284 8.96515498,16.0481892 9.27897553,15.5738467 C9.59279608,15.0995041 9.92587928,14.6620816 10.2798303,14.2623817 C10.6337814,13.8626819 10.9965612,13.5191648 11.3689723,13.2318303 C11.7413834,12.9444959 12.1178075,12.7197651 12.4974421,12.5576378 C12.8770767,12.3955106 13.2535008,12.314447 13.6259119,12.314447 C14.0553083,12.314447 14.4702577,12.4316281 14.8707602,12.6659902 C15.2712626,12.9003524 15.6460816,13.2807896 15.995217,13.8056966 C16.075478,13.9228777 16.1260424,14.0416639 16.1469103,14.1620555 C16.1677781,14.282447 16.1790147,14.395615 16.1790147,14.5015595 C16.1790147,14.7527765 16.1188189,14.9510212 15.9984274,15.0962936 C15.8780359,15.2415661 15.7351713,15.313801 15.5706362,15.313801 C15.4197455,15.313801 15.2792887,15.2343426 15.1500685,15.0746232 C15.0200457,14.9157064 14.8755759,14.6877651 14.7150538,14.391602 C14.5641631,14.1235302 14.3980228,13.9292985 14.216633,13.808907 C14.0352431,13.6885155 13.837801,13.6291223 13.6259119,13.6291223 C13.2960392,13.6291223 12.9428907,13.7663687 12.5680718,14.0400587 C12.1932529,14.3137488 11.8216444,14.6757259 11.4540489,15.1251876 C11.0864535,15.5746493 10.7333051,16.0883197 10.3962088,16.6670016 C10.0591126,17.2448809 9.7605416,17.8372072 9.50129853,18.4431778 C9.24205546,19.0491485 9.03578467,19.647093 8.88248613,20.2362088 C8.7291876,20.8253246 8.65293964,21.3550473 8.65293964,21.8245742 C8.65293964,21.9810832 8.66337357,22.1416052 8.68504405,22.3061403 C8.70671452,22.4706754 8.74604241,22.6207635 8.80543556,22.7547993 C8.8640261,22.8888352 8.94428711,22.9995954 9.0462186,23.0854747 C9.14734747,23.1721566 9.27576509,23.2154976 9.43147145,23.2154976 C9.60563785,23.2154976 9.80388254,23.156907 10.0254029,23.0397259 C10.2469233,22.9225449 10.4772724,22.7692463 10.714845,22.5790277 C10.9532202,22.3888091 11.192398,22.1737096 11.4331811,21.9337292 C11.6739641,21.6937488 11.8978923,21.4505579 12.1049657,21.2049592 C12.3120392,20.9593605 12.4966395,20.7233931 12.6563589,20.4970571 C12.8168809,20.270721 12.9372724,20.0740816 13.0167308,19.9063361 L13.6748711,17.9375334 C13.7551321,17.7256444 13.8602741,17.5747537 13.9894943,17.4848613 C14.1195171,17.3957716 14.2527504,17.3508254 14.3891941,17.3508254 C14.4550082,17.3508254 14.5208222,17.362062 14.5874388,17.3845351 C14.6532529,17.4070082 14.712646,17.4415204 14.7640131,17.489677 C14.8161827,17.537031 14.8571158,17.598832 14.887615,17.6742773 C14.9181142,17.7497227 14.9333638,17.8380098 14.9333638,17.9383361 C14.9333638,18.2064078 14.9100881,18.4576248 14.8627341,18.6927896 C14.8153801,18.9279543 14.7551843,19.1566982 14.6821468,19.3798238 C14.6091093,19.6029494 14.5280457,19.8284829 14.4381533,20.0540163 C14.3498662,20.2787471 14.2623817,20.5147145 14.1781077,20.7611158 L14.1781077,20.7611158 Z M23.0983165,22.4032561 C22.8904405,22.6825644 22.6488548,22.9546493 22.3735595,23.2203132 C22.0974617,23.4859772 21.8133377,23.7219445 21.5211876,23.9282153 C21.2290375,24.1344861 20.9409005,24.3006264 20.6583817,24.4266362 C20.3750604,24.552646 20.120633,24.6152496 19.8942969,24.6152496 C19.6679608,24.6152496 19.4841631,24.5398042 19.3421011,24.3889135 C19.2008418,24.2380228 19.1302121,23.9811876 19.1302121,23.6176052 C19.1302121,23.36077 19.1679347,23.0613964 19.2433801,22.7210897 C19.1205808,22.9393997 18.9672822,23.1601175 18.7834845,23.3832431 C18.5996868,23.6063687 18.3894029,23.8102316 18.1534356,23.994832 C17.9174682,24.1794323 17.6534095,24.3287178 17.3612594,24.4426884 C17.0691093,24.5574617 16.7504731,24.614447 16.4061533,24.614447 C16.250447,24.614447 16.1003589,24.5951843 15.9566917,24.5558564 C15.8130245,24.5165285 15.6870147,24.4499119 15.5786623,24.3552039 C15.47031,24.2604959 15.3828254,24.1336835 15.3170114,23.9739641 C15.2511974,23.8150473 15.2182904,23.6151974 15.2182904,23.375217 C15.2182904,23.3695987 15.2279217,23.284522 15.2463817,23.1199869 C15.2648418,22.9554519 15.3250375,22.6954062 15.426969,22.3406525 C15.5280979,21.9858989 15.6854095,21.5268059 15.8972985,20.962571 C16.1099902,20.3983361 16.4093638,19.7145122 16.7954192,18.9094943 C16.8941403,18.6976052 17.0089135,18.5451093 17.1381338,18.4528091 C17.2681566,18.360509 17.4078108,18.3147602 17.5587015,18.3147602 C17.6245155,18.3147602 17.6927374,18.3243915 17.7641697,18.3436542 C17.8347993,18.3637194 17.9006134,18.3942186 17.9624144,18.4359543 C18.0234127,18.47769 18.0731746,18.5306623 18.1108972,18.5948711 C18.1486199,18.6590799 18.1678825,18.7329201 18.1678825,18.8171941 C18.1678825,18.8733768 18.1606591,18.9263491 18.1462121,18.9761109 C18.1229364,19.0716215 18.0723719,19.1952235 17.9937162,19.3493246 C17.915863,19.5034258 17.825168,19.6791974 17.7216313,19.8774421 C17.6180946,20.0756868 17.508137,20.2891811 17.3925612,20.5187276 C17.2769853,20.7474715 17.1694356,20.985044 17.0707145,21.2306427 C16.9719935,21.4762414 16.8869168,21.7266558 16.8162871,21.9802806 C16.7456574,22.234708 16.7055269,22.4819119 16.6958956,22.7218923 C16.6958956,22.8222186 16.7191713,22.9145188 16.7665253,22.9987928 C16.8138793,23.0822643 16.8917325,23.1248026 17.0000848,23.1248026 C17.3066819,23.1248026 17.598832,23.0244763 17.8773377,22.8230212 C18.1558434,22.6223687 18.4126786,22.3719543 18.648646,22.0733834 C18.8846134,21.7748124 19.0981077,21.4537684 19.2891289,21.1094486 C19.4801501,20.7659315 19.6398695,20.4521109 19.7666819,20.1671843 C19.8565742,19.9769657 19.93523,19.7731028 20.0034519,19.5555954 C20.0716737,19.3380881 20.1463165,19.136633 20.2265775,18.9520326 C20.3068385,18.7674323 20.3983361,18.6141338 20.5026754,18.4913344 C20.6062121,18.3685351 20.7362349,18.3067341 20.8919413,18.3067341 C21.061292,18.3067341 21.1961305,18.3709429 21.2948515,18.4993605 C21.3935726,18.6277781 21.4433344,18.7818793 21.4433344,18.9600587 C21.4433344,19.060385 21.4120326,19.1992365 21.3478238,19.3750082 C21.283615,19.5507798 21.2041566,19.7522349 21.1070408,19.978571 C21.0107276,20.204907 20.9055856,20.4464927 20.7924176,20.7033279 C20.6792496,20.9601631 20.5741077,21.221814 20.4777945,21.4866754 C20.3806786,21.7523393 20.3012202,22.0115824 20.2370114,22.2660098 C20.1736052,22.5204372 20.1415008,22.7564046 20.1415008,22.9739119 C20.1415008,23.175367 20.2450375,23.2756933 20.4529135,23.2756933 C20.5989886,23.2756933 20.7803785,23.2251289 20.9978858,23.1248026 C21.2153931,23.0244763 21.4425318,22.883217 21.680907,22.7018271 C21.9192822,22.5204372 22.1568548,22.3069429 22.39523,22.0605416 C22.6336052,21.8149429 22.8446917,21.549279 23.0284894,21.2643524 L23.0983165,22.4032561 L23.0983165,22.4032561 Z" id="Shape" stroke="#FFFFFF" stroke-width="0.854166667" fill="#FFFFFF" fill-rule="nonzero"></path>
                                <path d="M23.3182316,21.9842936 C23.266062,22.1127113 23.2154976,22.2619967 23.1657357,22.4329527 C23.1159739,22.603106 23.0918956,22.755602 23.0918956,22.8896378 C23.0918956,22.9731093 23.1063426,23.0405285 23.1344339,23.091093 C23.1625253,23.1416574 23.2171028,23.1665383 23.2973638,23.1665383 C23.3960848,23.1665383 23.5196868,23.1320261 23.6689723,23.0613964 C23.8174551,22.9915693 23.9779772,22.8992692 24.1497357,22.7844959 C24.3222969,22.6705253 24.501279,22.5388972 24.6874845,22.3904144 C24.87369,22.2427341 25.059093,22.088633 25.2428907,21.9297162 C25.4266884,21.7699967 25.60246,21.6110799 25.7702055,21.4521631 C25.9379511,21.2924437 26.0872365,21.1463687 26.2196672,21.0123328 C26.2573899,20.9730049 26.3023361,20.9449135 26.3537031,20.9288613 C26.4050701,20.9120065 26.4500163,20.9039804 26.487739,20.9039804 C26.5816444,20.9039804 26.6603002,20.9433083 26.7212985,21.0211615 C26.7822969,21.0990147 26.8127961,21.2025514 26.8127961,21.330969 C26.8127961,21.4481501 26.7798891,21.5797781 26.714075,21.7250506 C26.648261,21.870323 26.5326852,22.0131876 26.3673475,22.1520392 C26.0655661,22.4819119 25.7613768,22.7941272 25.4547798,23.0902904 C25.1481827,23.3864535 24.8431909,23.6473018 24.5390016,23.8736378 C24.2348124,24.0999739 23.933031,24.2797586 23.6336574,24.4145971 C23.3342838,24.548633 23.0429364,24.6152496 22.759615,24.6152496 C22.566186,24.6152496 22.4048613,24.5847504 22.2748385,24.5229494 C22.1448157,24.4611485 22.041279,24.377677 21.9634258,24.2717325 C21.8855726,24.1657879 21.8301925,24.0397781 21.7972855,23.8945057 C21.7643785,23.7492333 21.7475237,23.5959347 21.7475237,23.4338075 C21.7475237,23.1601175 21.7820359,22.8792039 21.8502577,22.5918695 C21.9184796,22.3045351 21.9995432,22.0404763 22.0942512,21.8004959 C22.2595889,21.3646786 22.4265318,20.9320718 22.5966852,20.5018728 C22.7660359,20.0716737 22.9217423,19.6775922 23.0638042,19.3204307 L25.2067732,13.9156542 C25.2918499,13.6981468 25.4058206,13.5440457 25.5502904,13.454956 C25.6939576,13.3658662 25.83923,13.3209201 25.9853051,13.3209201 C26.1313801,13.3209201 26.2646134,13.3682741 26.3850049,13.4629821 C26.5053964,13.55769 26.5655922,13.7117912 26.5655922,13.9236803 C26.5655922,14.0240065 26.5455269,14.1307537 26.5053964,14.2423165 C26.4652659,14.3538793 26.4147015,14.4742708 26.3537031,14.6026884 C26.2357194,14.8651419 26.0952626,15.186186 25.9331354,15.5658206 C25.7702055,15.9454551 25.5960392,16.3587993 25.4098336,16.8058532 C25.2236281,17.252907 25.0326069,17.7176183 24.83677,18.2007896 C24.6409331,18.6839608 24.4499119,19.1542904 24.2637064,19.6125808 C24.0775008,20.0708711 23.9033344,20.5050832 23.7404046,20.915217 C23.5758695,21.3261533 23.4354127,21.6825122 23.3182316,21.9842936 L23.3182316,21.9842936 Z" id="Path" stroke="#FFFFFF" stroke-width="0.854166667" fill="#FFFFFF" fill-rule="nonzero"></path>
                                <path d="M33.3420294,20.4673605 C33.4078434,20.4224144 33.4696444,20.3862969 33.5258271,20.3582055 C33.5820098,20.3301142 33.6365873,20.3164698 33.6887569,20.3164698 C33.7922936,20.3164698 33.8701468,20.3630212 33.9223165,20.4545188 C33.9744861,20.5468189 34.0001697,20.6599869 34.0001697,20.7940228 C34.0001697,20.9392953 33.9688679,21.0869755 33.9046591,21.2378662 C33.8412529,21.3887569 33.7457423,21.5139641 33.6181272,21.615093 C33.1132855,22.0621468 32.6630212,22.4698728 32.2673344,22.8382708 C31.870845,23.2066688 31.4976313,23.5236998 31.1460881,23.7893638 C30.7945449,24.0550277 30.4518303,24.2596933 30.1171419,24.4049657 C29.7824535,24.5502382 29.4236868,24.6224731 29.0416444,24.6224731 C28.6828777,24.6224731 28.4059772,24.5438173 28.2101403,24.3881109 C28.0143034,24.231602 27.916385,24.0165024 27.916385,23.7428124 L27.916385,23.6802088 C27.916385,23.6609462 27.9187928,23.6368679 27.9236085,23.6087765 C27.9420685,23.441031 28.0159086,23.2484046 28.142721,23.0308972 C28.2703361,22.8133899 28.4236346,22.5870538 28.6026166,22.3518891 C28.7815987,22.1167243 28.9726199,21.8799543 29.1756803,21.6399739 C29.3787406,21.3999935 29.5657488,21.1720522 29.73831,20.9569527 C29.9100685,20.7418532 30.0529331,20.5452137 30.1661011,20.3662316 C30.2792692,20.1872496 30.3362545,20.0427798 30.3362545,19.9304144 C30.3362545,19.8629951 30.3121762,19.8100228 30.2656248,19.7714976 C30.2182708,19.7321697 30.1404176,19.712907 30.0320653,19.712907 C29.8434519,19.712907 29.6492202,19.7618662 29.4485677,19.8597847 C29.2479152,19.9577031 29.0496705,20.0885285 28.8546362,20.2530636 C28.6587993,20.4175987 28.4677781,20.6062121 28.2815726,20.8189038 C28.095367,21.0315954 27.9212007,21.2515106 27.7582708,21.4810571 C27.5953409,21.7106036 27.4468581,21.9401501 27.3128222,22.1721044 C27.1787863,22.4040587 27.0640131,22.617553 26.9701077,22.8133899 C26.9420163,22.8751909 26.9018858,22.9618728 26.8497162,23.0734356 C26.7975465,23.1849984 26.7413638,23.3110082 26.6803654,23.4506623 C26.6185644,23.5903165 26.5543556,23.7339837 26.4853312,23.8816639 C26.4171093,24.0301468 26.3545057,24.169801 26.298323,24.3006264 C26.2413377,24.4322545 26.1907732,24.548633 26.1458271,24.6529723 C26.1008809,24.756509 26.0687765,24.8271387 26.0503165,24.8664666 C26.0262382,24.917031 25.9877129,25.011739 25.9331354,25.1513931 C25.8785579,25.2910473 25.8167569,25.4539772 25.7453246,25.6417879 C25.6746949,25.8287961 25.6000522,26.0254356 25.5230016,26.232509 C25.4451485,26.4395824 25.3721109,26.6346166 25.3038891,26.819217 C25.2356672,27.0038173 25.1754715,27.1651419 25.1233018,27.3047961 C25.0711321,27.4444502 25.0382251,27.5391582 25.0237781,27.5897227 C24.9764241,27.7349951 24.921044,27.8714388 24.8576378,28.0006591 C24.7942316,28.1290767 24.7211941,28.2422447 24.6385253,28.3401631 C24.5558564,28.4380816 24.4619511,28.5159347 24.3552039,28.5745253 C24.2492594,28.6331158 24.1296705,28.6620098 23.9980424,28.6620098 C23.8278891,28.6620098 23.6882349,28.6210767 23.5766721,28.5408157 C23.4659119,28.459752 23.4105318,28.3048483 23.4105318,28.0761044 C23.4105318,27.9645416 23.4249788,27.8497684 23.4530701,27.7325873 C23.4811615,27.6154062 23.517279,27.4990277 23.5590147,27.3850571 C23.601553,27.2702838 23.644894,27.158721 23.6898401,27.0503687 C23.7347863,26.9412137 23.7757194,26.8368744 23.8134421,26.7357455 C24.0678695,26.1771289 24.3279152,25.616907 24.5919739,25.0558825 C24.8560326,24.4940555 25.1096574,23.9386493 25.3520457,23.3880587 C25.5952365,22.8382708 25.8199674,22.2973116 26.0278434,21.7667863 C26.2349168,21.236261 26.407478,20.7274062 26.5439217,20.2418271 C26.5816444,20.1415008 26.633814,19.9986362 26.6996281,19.8140359 C26.7654421,19.6294356 26.8408874,19.4480457 26.9259641,19.2690636 C27.0110408,19.0900816 27.1065514,18.9351778 27.2124959,18.8043524 C27.3184405,18.6727243 27.4332137,18.6077129 27.5552104,18.6077129 C27.7438238,18.6077129 27.8802675,18.6510538 27.9653442,18.7377357 C28.0504209,18.8244176 28.0929592,18.95123 28.0929592,19.1189755 C28.0929592,19.1526852 28.0881436,19.2056574 28.0785122,19.2778923 C28.0688809,19.3501272 28.0568418,19.4271778 28.0431974,19.5082414 C28.0287504,19.5893051 28.0135008,19.6663556 27.9974486,19.7385905 C27.9805938,19.8108254 27.9653442,19.8637977 27.9516998,19.8975073 C28.1258662,19.7072887 28.3144796,19.519478 28.51754,19.3316672 C28.7206003,19.1446591 28.9300816,18.9753083 29.1475889,18.8244176 C29.3642936,18.6735269 29.585814,18.5507276 29.8121501,18.455217 C30.0384861,18.360509 30.2648222,18.313155 30.4911582,18.313155 C30.6468646,18.313155 30.8009657,18.3356281 30.9542643,18.3805742 C31.1075628,18.4255204 31.2440065,18.4905318 31.364398,18.5772137 C31.4847896,18.6638956 31.582708,18.7730506 31.6581533,18.903876 C31.7335987,19.0355041 31.7713214,19.1871974 31.7713214,19.3605612 C31.7713214,19.5901077 31.7135334,19.8341011 31.5979576,20.0941468 C31.4823817,20.3541925 31.3371093,20.6150408 31.1629429,20.8774943 C30.9879739,21.1399478 30.7993605,21.3959804 30.5971028,21.6439869 C30.3940424,21.8927961 30.2046264,22.1191321 30.0272496,22.3229951 C29.8506754,22.5268581 29.7021925,22.7002219 29.581801,22.8422838 C29.4614095,22.9851485 29.3988059,23.0814617 29.3939902,23.1312235 C29.3939902,23.1986427 29.4156607,23.2524176 29.4573964,23.294956 C29.4991321,23.3374943 29.5705644,23.3575595 29.6700881,23.3575595 C29.7503491,23.3575595 29.8683328,23.3126134 30.0240392,23.2235237 C30.1797455,23.1344339 30.3980555,22.9795302 30.6781664,22.7588124 C30.9582773,22.5380946 31.3146362,22.2419315 31.7464405,21.870323 C32.1782447,21.4995171 32.7103752,21.0315954 33.3420294,20.4673605 L33.3420294,20.4673605 Z" id="Path" stroke="#FFFFFF" stroke-width="0.854166667" fill="#FFFFFF" fill-rule="nonzero"></path>
                            </g>
                        </g>
                    </g>
                </g>
            </g>
        </g>
    </g>
</svg>