<svg xmlns="http://www.w3.org/2000/svg" width="43" height="43" viewBox="0 0 43 43"><g><g><g><path fill="#dc395f" d="M38.429.6H4.37A3.771 3.771 0 0 0 .6 4.371V38.43A3.771 3.771 0 0 0 4.371 42.2H38.43a3.771 3.771 0 0 0 3.771-3.771V4.37A3.771 3.771 0 0 0 38.429.6"/></g><g><path fill="#fff" d="M9.237 27.097l1.905-7.786H8.19l.897-3.309h7.1l-2.803 11.119c-.186.71-.261 1.3-.261 1.71 0 .711.35.92.897 1.043.333.074 2.99.022 4.435-3.192l1.841-7.37h-2.99l.897-3.31h6.39l-.822 3.757c1.121-2.093 3.364-4.082 5.569-4.082 2.354 0 4.298 1.677 4.298 4.891 0 .822-.113 1.717-.412 2.726L32.03 27.59c-.112.45-.187.823-.187 1.159 0 .747.3 1.12.86 1.12s1.27-.412 2.093-2.69l1.644.635c-.972 3.4-2.728 4.82-4.933 4.82-2.579 0-3.811-1.531-3.811-3.625 0-.597.074-1.233.26-1.868l1.234-4.41c.15-.486.187-.934.187-1.345 0-1.42-.86-2.28-2.242-2.28-1.757 0-2.915 1.261-3.513 3.69L21.23 32.39h-4.185l.75-3.015c-1.23 2.021-2.938 3.273-5.046 3.273-2.541 0-3.737-1.464-3.737-3.67a8.6 8.6 0 0 1 .224-1.88m5.275-13.41c-1.386 0-2.546-1.084-2.546-2.505 0-1.42 1.16-2.503 2.546-2.503 1.385 0 2.546 1.084 2.546 2.503 0 1.42-1.16 2.505-2.546 2.505"/></g></g></g></svg>