<svg xmlns="http://www.w3.org/2000/svg" width="35" height="48" viewBox="0 0 35 48"><defs><linearGradient id="hplwa" x1="17.52" x2="17.52" y1="0" y2="30.05" gradientUnits="userSpaceOnUse"><stop offset="0" stop-color="#d378e5"/><stop offset="1" stop-color="#7526c2"/></linearGradient></defs><g><g><path fill="url(#hplwa)" d="M14.473 30.089a3.428 3.428 0 1 1 6.856 0 3.428 3.428 0 0 1-6.856 0zM1.143 40.372a3.428 3.428 0 0 1 .963 6.719 4.951 4.951 0 0 0 7.797-4.052V17.52a7.617 7.617 0 1 1 7.922 7.611v.007a4.951 4.951 0 0 0 .076 9.902v-.004c9.5-.203 17.139-7.967 17.139-17.516C35.04 7.844 27.196 0 17.52 0 7.844 0 0 7.844 0 17.52v23.047a3.423 3.423 0 0 1 1.143-.195z"/></g></g></svg>