<svg xmlns="http://www.w3.org/2000/svg" width="61" height="32" viewBox="0 0 61 32"><defs><radialGradient id="d5ysb" cx="18.78" cy="25.4" r="39.52" gradientUnits="userSpaceOnUse"><stop offset="0" stop-color="#aeb2d5"/><stop offset=".3" stop-color="#aeb2d5"/><stop offset=".75" stop-color="#484c89"/><stop offset="1" stop-color="#484c89"/></radialGradient><clipPath id="d5ysa"><path d="M.71 15.143C.71 6.399 14.186-.69 30.809-.69c16.622 0 30.098 7.089 30.098 15.833S47.431 30.976 30.81 30.976C14.186 30.976.71 23.887.71 15.143"/></clipPath><clipPath id="d5ysc"><path d="M-.55 32.782h62.705V-2.49H-.55z"/></clipPath><clipPath id="d5ysd"><path d="M1.85 32.03h58.525V-.89H1.85z"/></clipPath></defs><g><g><g transform="matrix(1 0 0 -1 0 32)"><g><g><g/><g clip-path="url(#d5ysa)"><g><g><g><path fill="url(#d5ysb)" d="M.71 15.143C.71 6.399 14.186-.69 30.809-.69c16.622 0 30.098 7.089 30.098 15.833S47.431 30.976 30.81 30.976C14.186 30.976.71 23.887.71 15.143"/></g></g></g></g></g></g><g><g><g/><g clip-path="url(#d5ysc)"><g><g><path fill="#777bb3" d="M30.803.48c15.973 0 28.923 6.562 28.923 14.657 0 8.095-12.95 14.658-28.923 14.658-15.974 0-28.923-6.563-28.923-14.658C1.88 7.042 14.83.48 30.803.48"/></g></g></g></g></g><g><g><g/><g clip-path="url(#d5ysd)"><g><g><path d="M15.1 6.99c.147 0 .272.103.3.247l.717 3.69h2.512c1.247 0 2.29.135 3.104.4a6.022 6.022 0 0 1 2.26 1.353 6.943 6.943 0 0 1 1.372 1.72c.35.625.6 1.323.746 2.074.359 1.844.075 3.311-.842 4.361-.912 1.044-2.363 1.574-4.312 1.574h-6.204a.305.305 0 0 1-.3-.247l-2.877-14.81a.305.305 0 0 1 .299-.362zm1.59 6.88l1.086 5.594h1.959c1.13 0 1.878-.195 2.224-.579.339-.375.413-1.072.22-2.07-.208-1.067-.604-1.832-1.177-2.273-.579-.446-1.494-.673-2.72-.673z"/></g></g><g><g><path fill="#fff" d="M20.961 22.099c1.867 0 3.228-.49 4.084-1.47.855-.98 1.113-2.347.772-4.102a6.63 6.63 0 0 0-.713-1.983 6.614 6.614 0 0 0-1.313-1.645 5.698 5.698 0 0 0-2.147-1.288c-.788-.256-1.79-.384-3.01-.384h-2.763l-.765-3.937H11.88l2.878 14.809h6.203m-4.636-8.535h1.962c1.3 0 2.27.245 2.906.735.637.49 1.066 1.308 1.29 2.454.213 1.1.116 1.878-.292 2.33-.409.452-1.226.679-2.451.679h-2.21l-1.205-6.198m4.636 9.144h-6.203a.61.61 0 0 1-.598-.493L11.28 7.405a.61.61 0 0 1 .599-.725h3.226a.61.61 0 0 1 .598.493l.67 3.444h2.26c1.278 0 2.355.14 3.198.414.868.282 1.667.76 2.373 1.421a7.25 7.25 0 0 1 1.431 1.794c.365.653.627 1.382.78 2.165.377 1.94.07 3.495-.912 4.62-.973 1.113-2.501 1.677-4.543 1.677m-2.929-3.556h1.708c1.363 0 1.837-.3 1.998-.477.267-.297.318-.92.146-1.806-.193-.99-.55-1.693-1.063-2.087-.524-.404-1.377-.609-2.534-.609h-1.223z"/></g></g><g><g><path d="M33.515 10.92a.304.304 0 0 0-.3.363l1.274 6.552c.12.624.09 1.07-.084 1.26-.108.115-.43.31-1.383.31h-2.307l-1.6-8.238a.305.305 0 0 0-.3-.247h-3.2a.305.305 0 0 0-.3.363l2.879 14.81a.305.305 0 0 0 .3.246h3.2a.305.305 0 0 0 .299-.363l-.695-3.575h2.482c1.89 0 3.172-.333 3.919-1.018.76-.7.998-1.818.705-3.325l-1.339-6.891a.305.305 0 0 0-.299-.247z"/></g></g><g><g><path fill="#fff" d="M31.689 26.039h-3.201l-2.878-14.81h3.2l1.649 8.485h2.558c.819 0 1.354-.136 1.606-.407.251-.271.305-.78.16-1.525L33.51 11.23h3.25l1.34 6.891c.272 1.402.068 2.416-.613 3.042-.68.625-1.918.938-3.712.938h-2.852l.766 3.938m0 .61a.61.61 0 0 0 .598-.727l-.624-3.21h2.112c1.97 0 3.32-.36 4.125-1.1.844-.776 1.113-1.99.798-3.607l-1.339-6.892a.61.61 0 0 0-.598-.493H33.51a.61.61 0 0 0-.599.726l1.273 6.552c.126.645.05.932-.008.994-.008.009-.208.212-1.16.212h-2.054l-1.553-7.99a.61.61 0 0 0-.599-.494h-3.2a.61.61 0 0 0-.599.726l2.878 14.809a.61.61 0 0 0 .599.493h3.2"/></g></g><g><g><path d="M40.28 6.99c.147 0 .272.103.3.247l.717 3.69h2.512c1.247 0 2.29.135 3.104.4a6.022 6.022 0 0 1 2.26 1.353 6.943 6.943 0 0 1 1.372 1.72c.35.625.6 1.323.746 2.074.359 1.844.076 3.312-.841 4.361-.913 1.044-2.364 1.574-4.313 1.574h-6.204a.305.305 0 0 1-.3-.247l-2.877-14.81a.305.305 0 0 1 .299-.362zm1.59 6.88l1.086 5.594h1.959c1.13 0 1.878-.195 2.224-.579.34-.375.413-1.072.22-2.07-.208-1.067-.604-1.832-1.177-2.273-.579-.446-1.494-.673-2.72-.673z"/></g></g><g><g><path fill="#fff" d="M46.141 22.099c1.867 0 3.228-.49 4.084-1.47.855-.98 1.113-2.347.772-4.102a6.63 6.63 0 0 0-.713-1.983 6.614 6.614 0 0 0-1.313-1.645 5.698 5.698 0 0 0-2.147-1.288c-.788-.256-1.79-.384-3.01-.384H41.05l-.765-3.937H37.06l2.878 14.809h6.203m-4.636-8.535h1.962c1.3 0 2.27.245 2.906.735.637.49 1.066 1.308 1.29 2.454.213 1.1.116 1.878-.292 2.33-.409.452-1.226.679-2.451.679h-2.21l-1.205-6.198m4.636 9.144h-6.203a.61.61 0 0 1-.598-.493L36.46 7.405a.61.61 0 0 1 .599-.725h3.226a.61.61 0 0 1 .598.493l.67 3.444h2.26c1.278 0 2.355.14 3.198.414.868.282 1.667.76 2.373 1.422a7.247 7.247 0 0 1 1.43 1.793c.366.653.628 1.382.78 2.165.377 1.941.07 3.495-.911 4.62-.973 1.113-2.501 1.677-4.543 1.677m-2.93-3.556h1.709c1.363 0 1.837-.3 1.998-.477.267-.297.318-.92.146-1.806-.193-.99-.55-1.693-1.063-2.087-.524-.404-1.377-.609-2.534-.609h-1.223z"/></g></g></g></g></g></g></g></g></svg>