<svg xmlns="http://www.w3.org/2000/svg" width="43" height="43" viewBox="0 0 43 43"><defs><linearGradient id="dsfqa" x1=".93" x2="18.39" y1="28.43" y2="5.37" gradientUnits="userSpaceOnUse"><stop offset=".02" stop-color="#765af8"/><stop offset=".38" stop-color="#b345f1"/><stop offset=".76" stop-color="#fa3293"/><stop offset=".94" stop-color="#ff318c"/></linearGradient><linearGradient id="dsfqb" x1="2.21" x2="19.65" y1="29.34" y2="6.31" gradientUnits="userSpaceOnUse"><stop offset=".02" stop-color="#765af8"/><stop offset=".38" stop-color="#b345f1"/><stop offset=".76" stop-color="#fa3293"/><stop offset=".94" stop-color="#ff318c"/></linearGradient><linearGradient id="dsfqc" x1="30.82" x2="20.97" y1="28.18" y2="4.79" gradientUnits="userSpaceOnUse"><stop offset=".18" stop-color="#765af8"/><stop offset=".24" stop-color="#8655f6"/><stop offset=".35" stop-color="#9f4cf3"/><stop offset=".44" stop-color="#ae47f2"/><stop offset=".52" stop-color="#b345f1"/></linearGradient><linearGradient id="dsfqd" x1="38.19" x2="15.27" y1="34.69" y2="16.97" gradientUnits="userSpaceOnUse"><stop offset=".02" stop-color="#765af8"/><stop offset=".38" stop-color="#b345f1"/></linearGradient></defs><g><g><g><path fill="url(#dsfqa)" d="M24.134 9.633L22.173 3.69 7.672.6.6 8.623l22.107 11.291z"/></g><g><path fill="url(#dsfqb)" d="M17.24 25.2l-.416-12.36L.6 8.62l3.982 23.83 12.658-.118z"/></g><g><path fill="url(#dsfqc)" d="M13.73 24.97l.773-9.806L26.269 3.1l10.52 1.902 5.407 13.49-5.645 5.586-9.212-1.485-5.705 6.002z"/></g><g><path fill="url(#dsfqd)" d="M26.278 3.1L9.4 18.076l3.269 19.255 14.025 4.873 15.51-9.27z"/></g><g><g><path d="M8.56 8.56h25.673v25.673H8.56z"/></g><g><path fill="#fff" d="M19.913 21.037l1.367-1.664c.95.773 1.961 1.307 3.21 1.307.95 0 1.544-.356 1.544-1.01v-.059c0-.594-.356-.891-2.14-1.366-2.139-.535-3.565-1.13-3.565-3.268v-.06c0-1.96 1.545-3.207 3.744-3.207 1.545 0 2.912.475 3.982 1.366l-1.248 1.783c-.951-.654-1.902-1.07-2.793-1.07-.892 0-1.367.416-1.367.95v.06c0 .713.475.95 2.318 1.426 2.139.594 3.387 1.366 3.387 3.208v.06c0 2.138-1.605 3.326-3.922 3.326a7.325 7.325 0 0 1-4.517-1.782m-2.971-5.408v-.059c0-1.067-.713-1.6-1.902-1.6h-1.783v3.26H15.1c1.189 0 1.843-.712 1.843-1.6zm-6.062-3.74h4.338c2.556 0 4.1 1.484 4.1 3.682v.06c0 2.495-1.9 3.742-4.337 3.742h-1.783v3.208H10.88zm.119 17.54h9.627v1.595H11z"/></g></g></g></g></svg>