<svg xmlns="http://www.w3.org/2000/svg" width="46" height="42" viewBox="0 0 46 42"><g><g><g><path fill="#fdb300" d="M10.129 1.556L22.954.2l12.825 1.356 9.93 13.329-22.755 26.497L.2 14.885z"/></g><g><g><path fill="#ea6c00" d="M9.417 14.88l13.537 26.497L.2 14.88z"/></g><g><path fill="#ea6c00" d="M36.488 14.88L22.95 41.377 45.704 14.88z"/></g><g><path fill="#fdad00" d="M9.42 14.88h27.075L22.958 41.377z"/></g></g><g><g><path fill="#fdd231" d="M22.958.2L10.132 1.556 9.42 14.885z"/></g><g><path fill="#fdd231" d="M22.95.2l12.825 1.356.713 13.329z"/></g><g><path fill="#fdad00" d="M45.71 14.889L35.78 1.56l.713 13.329z"/></g><g><path fill="#fdad00" d="M.2 14.889L10.129 1.56l-.712 13.329z"/></g><g><path fill="#feeeb7" d="M22.958.2L9.42 14.885h27.075z"/></g></g></g></g></svg>