<?xml version="1.0" encoding="UTF-8"?>
<svg width="41px" height="47px" viewBox="0 0 41 47" version="1.1" xmlns="http://www.w3.org/2000/svg" xmlns:xlink="http://www.w3.org/1999/xlink">
    <!-- Generator: Sketch 59 (86127) - https://sketch.com -->
    <title>webpack-icon</title>
    <desc>Created with Sketch.</desc>
    <g id="Wireframes" stroke="none" stroke-width="1" fill="none" fill-rule="evenodd">
        <g id="Home---Wireframe" transform="translate(-264.000000, -2293.000000)" fill-rule="nonzero">
            <g id="What-use" transform="translate(0.000000, 1734.000000)">
                <g id="Group-4" transform="translate(217.000000, 291.000000)">
                    <g id="Group-19" transform="translate(33.000000, 258.000000)">
                        <g id="webpack-icon" transform="translate(14.000000, 10.000000)">
                            <polygon id="Path" fill="#FFFFFF" points="20.4953641 0 40.982229 11.5897784 40.982229 34.7693351 20.4953641 46.3591135 0.00849917081 34.7693351 0.00849917081 11.5897784"></polygon>
                            <path d="M37.3237223,33.9696404 L21.1714345,43.1062491 L21.1714345,35.9901251 L31.2352254,30.4540743 L37.3237223,33.9696404 Z M38.4286145,32.9690562 L38.4286145,13.8613749 L32.5178275,17.272633 L32.5178275,29.5539349 L38.4286145,32.9690562 Z M3.60133047,33.9696404 L19.7536183,43.1062491 L19.7536183,35.9901251 L9.68982738,30.4540743 L3.60133047,33.9696404 L3.60133047,33.9696404 Z M2.49643826,32.9690562 L2.49643826,13.8613749 L8.40722524,17.272633 L8.40722524,29.5539349 L2.49643826,32.9690562 Z M3.18796171,12.6251319 L19.7536183,3.25286447 L19.7536183,10.1333296 L9.14124453,15.9707146 L9.06011609,16.0170737 L3.18796171,12.6251319 L3.18796171,12.6251319 Z M37.7370911,12.6251319 L21.1714345,3.25286447 L21.1714345,10.1333296 L31.7838082,15.9707146 L31.8649367,16.0170737 L37.7370911,12.6251319 L37.7370911,12.6251319 Z" id="Shape" fill="#8ED6FB"></path>
                            <path d="M19.7536183,34.3714194 L9.82504146,28.9126338 L9.82504146,18.0955073 L19.7536183,23.8285844 L19.7536183,34.3714194 M21.1714345,34.3714194 L31.1000113,28.9126338 L31.1000113,18.0955073 L21.1714345,23.8285844 L21.1714345,34.3714194 M10.4972486,16.8438112 L20.464458,11.3618461 L30.4316674,16.8438112 L20.464458,22.6000678 L10.4972486,16.8438112" id="Shape" fill="#1C78C0"></path>
                        </g>
                    </g>
                </g>
            </g>
        </g>
    </g>
</svg>