<svg xmlns="http://www.w3.org/2000/svg" width="49" height="37" viewBox="0 0 49 37"><g><g><path fill="#fff" d="M43.386 30.967a1.916 1.916 0 1 1-3.833.002 1.916 1.916 0 0 1 3.833-.002zm-1.917-8.001a.959.959 0 1 1-1.918-.001.959.959 0 0 1 1.918 0zm-27.54 8.033a1.916 1.916 0 1 1-3.832 0 1.916 1.916 0 0 1 3.833 0zm35.083-8.22v5.375c0 1.251-.74 2.318-1.859 2.712.002.055.005.11.005.164a5.758 5.758 0 0 1-5.752 5.751 5.757 5.757 0 0 1-5.75-5.751h-17.83a5.757 5.757 0 0 1-5.751 5.751 5.758 5.758 0 0 1-5.751-5.751H2.873a2.879 2.879 0 0 1-2.876-2.876V2.982c0-1.586 1.29-2.97 2.876-2.97h27.99c1.585 0 3.125 1.384 3.125 2.97v3.032h7.23c1.587 0 2.876 1.321 2.876 2.907 0 .77-.301 1.578-.888 2.14l1.84 6.986c2.28.367 3.966 2.348 3.966 4.731zM33.988 11.983v4.27l1.948-2.197a.958.958 0 1 1 1.355 1.355l-1.948 2.573h7.711l-1.469-6zm7.262-3.96h-7.262v1.918h7.262a.96.96 0 0 0 0-1.917zM15.909 31.03a3.84 3.84 0 0 0-3.834-3.834c-2.083 0-3.834 1.691-3.834 3.834a3.839 3.839 0 0 0 3.834 3.834 3.839 3.839 0 0 0 3.834-3.834zm16.068-2.011V2.982a.96.96 0 0 0-.958-.958H2.935a.96.96 0 0 0-.958.958V28.06c0 .53.43.959.958.959h3.717c.8-2.26 2.967-3.74 5.423-3.74 2.455 0 4.622 1.478 5.422 3.74zm13.264 2.01a3.84 3.84 0 0 0-3.835-3.833c-2.083 0-3.834 1.691-3.834 3.834a3.839 3.839 0 0 0 3.834 3.834 3.839 3.839 0 0 0 3.835-3.834zM47 28.155v-4.168h-2.72a.958.958 0 0 1-.958-.958c0-.53.43-1.115.959-1.115h2.71a2.88 2.88 0 0 0-2.71-1.917H33.988v9.117h1.996a5.771 5.771 0 0 1 5.422-3.834 5.772 5.772 0 0 1 5.354 3.65c.24-.174.241-.456.241-.775zM25.073 14.54c0 4.71-3.832 8.541-8.541 8.541-4.71 0-8.541-3.831-8.541-8.54 0-4.71 3.831-8.542 8.54-8.542 4.71 0 8.542 3.832 8.542 8.541zm-1.898 0a6.65 6.65 0 0 0-6.643-6.643 6.65 6.65 0 0 0-6.643 6.643 6.65 6.65 0 0 0 6.643 6.643 6.65 6.65 0 0 0 6.643-6.643zm-2.148.47c0 .523-.425.98-.949.98h-4.109a.95.95 0 0 1-.949-.95v-4.17c0-.525.425-.95.95-.95.524 0 1.042.425 1.042.95v3.127h3.066c.524 0 .949.488.949 1.012z"/></g></g></svg>