<svg xmlns="http://www.w3.org/2000/svg" width="46" height="46" viewBox="0 0 46 46"><g><g><path fill="#fff" d="M30.904 31.03a.889.889 0 1 1-1.778-.002.889.889 0 0 1 1.778.001zm-10.79 1.692c0 1.112-.713 2.06-1.705 2.412v1a.853.853 0 1 1-1.706 0v-.996c-.568-.19-1.104-.568-1.56-1.11a.853.853 0 0 1 1.305-1.098c.35.416.743.645 1.108.645a.854.854 0 0 0 0-1.706 2.561 2.561 0 0 1-2.559-2.558c0-1.112.713-2.06 1.706-2.412v-1a.853.853 0 1 1 1.706 0v.994c.39.13.822.366 1.255.785a.852.852 0 1 1-1.186 1.226c-.301-.292-.62-.446-.922-.446a.854.854 0 0 0 0 1.706 2.561 2.561 0 0 1 2.558 2.558zM9.994 14.207V10.84c0-.491.507-.889.998-.889s.982.398.982.889v3.367c0 .49-.491.889-.982.889-.49 0-.998-.398-.998-.89zM46 24.465v8.873c0 1.47-1.665 2.666-3.135 2.666h-.889v2.029c0 2.45-2.024 3.975-4.474 3.975H35.99c-.412 2.026-2.208 4.023-4.353 4.023H4.443A4.448 4.448 0 0 1 0 41.588V14.394c0-2.45 1.68-4.443 4.13-4.443h.89v-.889c0-1.47 1.508-3.04 2.978-3.04h2.978V2.915c0-1.47 1.196-2.885 2.666-2.885h16.686c1.47 0 2.666 1.415 2.666 2.885v7.066h4.351c2.45 0 4.631 1.962 4.631 4.412v6.516c1.96 0 4.024 1.595 4.024 3.555zM41.976 23v2.992c.982 0 2.028-.577 2.028-1.558 0-.98-1.048-1.434-2.028-1.434zm-8.982-11.022v5.172c2.026.413 3.023 1.927 3.023 3.76v5.082h3.995V14.644a2.67 2.67 0 0 0-2.666-2.666zM12.972 6.021h11.022c1.47 0 2.978 1.571 2.978 3.041v7.967h4.026V2.916a.89.89 0 0 0-.889-.889H13.861a.89.89 0 0 0-.889.889zM24.976 17.03V8.906a.89.89 0 0 0-.888-.889h-2.104v9.012zm-4.988 0V8.017h-3.992v9.012zm-13.004 0H14V8.017H7.873a.89.89 0 0 0-.889.89zm-4.988-2.635c0 1.603.856 2.635 2.325 2.635h.698v-5.3h-.888c-1.47 0-2.135 1.195-2.135 2.665zM34.02 41.338v-5.334h-6.158c-1.47 0-2.853-1.196-2.853-2.666v-4.43c0-1.47 1.383-2.916 2.853-2.916h6.158v-4.707c0-1.47-1.196-2.291-2.666-2.291H4.633c-1.063 0-1.843-.352-2.637-.944v23.288c0 1.47.977 2.666 2.447 2.666h27.194c1.47 0 2.384-1.196 2.384-2.666zm5.99-5.334h-3.994v3.976h1.485c1.47 0 2.51-.477 2.51-1.947zm3.993-2.916v-5.545c-.535.31-1.425.476-2.059.476H27.863a.89.89 0 0 0-.888.889v4.18c0 .49.398.888.888.888h14.97c.49 0 1.17-.398 1.17-.888zm-4.989-2.09c0 .49-.397.982-.888.982h-5.244c-.491 0-.889-.491-.889-.982s.398-.983.889-.983h5.244c.49 0 .888.492.888.983z"/></g></g></svg>