<svg xmlns="http://www.w3.org/2000/svg" width="59" height="59" viewBox="0 0 59 59"><g><g><g><g><path fill="#fff" d="M29.516 4.778c13.622 0 24.706 11.083 24.706 24.706 0 13.624-11.084 24.707-24.706 24.707-13.623 0-24.707-11.083-24.707-24.707 0-13.623 11.084-24.706 24.707-24.706zm0 54.191C45.773 58.969 59 45.743 59 29.484 59 13.227 45.773 0 29.516 0 13.258 0 .03 13.227.03 29.484c0 16.259 13.227 29.485 29.485 29.485z"/></g></g><g><g><path fill="#fff" d="M15.933 31.874h29.053a2.39 2.39 0 1 0 0-4.779H15.933a2.39 2.39 0 0 0 0 4.779z"/></g></g><g><g/></g><g><g><path fill="#fff" d="M15.93 31.874c.8 0 1.58-.401 2.033-1.13l6.672-10.76a2.39 2.39 0 1 0-4.061-2.518l-6.672 10.76a2.39 2.39 0 0 0 2.028 3.648z"/></g></g><g><g><path fill="#fff" d="M22.606 42.633a2.39 2.39 0 0 0 2.028-3.649l-6.67-10.759a2.39 2.39 0 1 0-4.062 2.519l6.672 10.759a2.388 2.388 0 0 0 2.032 1.13z"/></g></g></g></g></svg>