<svg xmlns="http://www.w3.org/2000/svg" width="59" height="59" viewBox="0 0 59 59"><g><g><g><g><path fill="#fff" d="M54.19 29.484c0 13.624-11.083 24.707-24.706 24.707S4.778 43.108 4.778 29.484c0-13.623 11.083-24.706 24.706-24.706S54.19 15.861 54.19 29.484zm4.779 0C58.969 13.226 45.742 0 29.484 0 13.227 0 0 13.226 0 29.484 0 45.742 13.227 58.97 29.484 58.97c16.258 0 29.485-13.227 29.485-29.485z"/></g></g><g><g><path fill="#fff" d="M43.067 31.874H14.014a2.39 2.39 0 1 1 0-4.779h29.053a2.39 2.39 0 0 1 0 4.779z"/></g></g><g><g/></g><g><g><path fill="#fff" d="M43.07 31.874c-.8 0-1.581-.401-2.033-1.13l-6.672-10.76a2.39 2.39 0 1 1 4.061-2.518l6.672 10.76a2.39 2.39 0 0 1-2.029 3.648z"/></g></g><g><g><path fill="#fff" d="M36.393 42.633a2.39 2.39 0 0 1-2.028-3.649l6.672-10.759a2.39 2.39 0 1 1 4.06 2.519l-6.67 10.759a2.388 2.388 0 0 1-2.034 1.13z"/></g></g></g></g></svg>