<svg width="92" height="61" viewBox="0 0 92 61" fill="none" xmlns="http://www.w3.org/2000/svg">
<path transform="rotate(180 40 30)" d="M25.5313 47.597C25.9048 47.598 26.2738 47.5153 26.6111 47.355C26.9485 47.1947 27.2456 46.9608 27.4807 46.6706L39.545 31.662C39.9124 31.2144 40.113 30.6532 40.1126 30.0741C40.1122 29.4951 39.9108 28.9341 39.5428 28.487L27.0321 13.4959C26.6074 12.9857 25.9974 12.665 25.3363 12.6046C24.6752 12.5441 24.0172 12.7487 23.5069 13.1734C22.9967 13.5981 22.676 14.2081 22.6156 14.8692C22.5551 15.5303 22.7597 16.1884 23.1844 16.6986L34.3689 30.0907L23.5784 43.4984C23.273 43.8655 23.0791 44.3125 23.0197 44.7864C22.9604 45.2604 23.038 45.7414 23.2435 46.1725C23.4489 46.6037 23.7736 46.967 24.179 47.2194C24.5845 47.4719 25.0538 47.6029 25.5313 47.597Z" fill="#5C5C5C" fill-opacity="0.77"/>
<path transform="rotate(180 40 30)" d="M56.5312 47.6346C56.9047 47.6356 57.2737 47.5529 57.611 47.3926C57.9483 47.2323 58.2455 46.9984 58.4806 46.7082L70.5449 31.6996C70.9123 31.252 71.1129 30.6908 71.1125 30.1117C71.1121 29.5327 70.9107 28.9717 70.5427 28.5246L58.032 13.5335C57.6073 13.0233 56.9973 12.7026 56.3362 12.6421C55.6751 12.5817 55.017 12.7863 54.5068 13.211C53.9966 13.6357 53.6759 14.2457 53.6154 14.9068C53.555 15.5679 53.7596 16.226 54.1843 16.7362L65.3688 30.1283L54.5783 43.536C54.2729 43.9031 54.079 44.3501 54.0196 44.824C53.9603 45.2979 54.0379 45.779 54.2433 46.2101C54.4488 46.6413 54.7734 47.0046 55.1789 47.257C55.5844 47.5095 56.0536 47.6405 56.5312 47.6346Z" fill="#5C5C5C" fill-opacity="0.77"/>
</svg>
