<svg width="19" height="36" viewBox="0 0 19 36" fill="none" xmlns="http://www.w3.org/2000/svg">
<path d="M15.575 35.5C15.2016 35.5013 14.8325 35.4188 14.4951 35.2588C14.1576 35.0987 13.8603 34.8651 13.625 34.575L1.55004 19.575C1.18234 19.1277 0.981323 18.5666 0.981323 17.9875C0.981323 17.4084 1.18234 16.8473 1.55004 16.4L14.05 1.4C14.4744 0.889461 15.0842 0.5684 15.7452 0.507451C16.4063 0.446501 17.0645 0.650656 17.575 1.075C18.0856 1.49935 18.4066 2.10913 18.4676 2.77019C18.5285 3.43126 18.3244 4.08946 17.9 4.6L6.72504 18L17.525 31.4C17.8307 31.767 18.0249 32.2138 18.0846 32.6877C18.1443 33.1616 18.067 33.6426 17.8619 34.0739C17.6568 34.5053 17.3324 34.8688 16.9271 35.1215C16.5218 35.3742 16.0526 35.5056 15.575 35.5Z" fill="#5C5C5C" fill-opacity="0.77"/>
</svg>
