<svg width="19" height="36" viewBox="0 0 19 36" fill="none" xmlns="http://www.w3.org/2000/svg">
<path d="M3.42502 35.5C3.79851 35.5013 4.16753 35.4188 4.50498 35.2588C4.84243 35.0987 5.13972 34.8651 5.37502 34.575L17.45 19.575C17.8177 19.1277 18.0187 18.5666 18.0187 17.9875C18.0187 17.4084 17.8177 16.8473 17.45 16.4L4.95002 1.4C4.52567 0.889461 3.91589 0.5684 3.25483 0.507451C2.59376 0.446501 1.93556 0.650656 1.42502 1.075C0.914476 1.49935 0.593416 2.10913 0.532467 2.77019C0.471518 3.43126 0.675671 4.08946 1.10002 4.6L12.275 18L1.47502 31.4C1.16931 31.767 0.975119 32.2138 0.915421 32.6877C0.855721 33.1616 0.933014 33.6426 1.13815 34.0739C1.34329 34.5053 1.66769 34.8688 2.07297 35.1215C2.47824 35.3742 2.94743 35.5056 3.42502 35.5Z" fill="#5C5C5C" fill-opacity="0.77"/>
</svg>
