<svg xmlns="http://www.w3.org/2000/svg" viewBox="0 0 145.71 208.71">
  <defs>
    <style>
      .cls-1, .cls-2 {
        fill: none;
        stroke: #d11742;
        stroke-linecap: round;
        stroke-linejoin: round;
        stroke-width: 5px;
      }

      .cls-2 {
        stroke-dasharray: 9.9 9.9;
      }

      .cls-3 {
        fill: #d11742;
      }
    </style>
  </defs>
  <title>Illuminati</title>
  <g id="Слой_2" data-name="Слой 2">
    <g id="Layer_1" data-name="Layer 1">
      <g>
        <g>
          <polyline class="cls-1" points="2.5 174.88 11.46 154.69 16.47 170.87 25.71 150.04"/>
          <polyline class="cls-1" points="120 150.04 128.96 170.23 133.97 154.05 143.21 174.88"/>
          <polyline class="cls-1" points="66.75 206.21 65.71 179.08 80 194.23 78.93 166.23"/>
        </g>
        <g>
          <circle class="cls-1" cx="72.86" cy="126.07" r="21.07"/>
          <g>
            <path class="cls-1" d="M59.59,124.93a13.25,13.25,0,0,1,1.33-5.8"/>
            <path class="cls-2" d="M68,112.56a13.28,13.28,0,0,1,13.85,2.62"/>
            <path class="cls-1" d="M84.82,119.13a13.25,13.25,0,0,1,1.33,5.8"/>
          </g>
          <circle class="cls-1" cx="72.87" cy="125.99" r="4.52"/>
          <path class="cls-1" d="M122.2,126.05s-25.08,31-48.7,31-50-31-50-31S49.25,94.77,72.87,94.77,122.2,126.05,122.2,126.05Z"/>
        </g>
        <g>
          <circle class="cls-1" cx="72.86" cy="41.94" r="16.73"/>
          <rect class="cls-1" x="64.82" y="6.49" width="16.08" height="27.31" rx="4.74" transform="translate(145.71 40.29) rotate(180)"/>
          <circle class="cls-3" cx="72.86" cy="4.02" r="4.02"/>
          <line class="cls-1" x1="72.86" y1="67.71" x2="72.86" y2="78.39"/>
          <g>
            <line class="cls-1" x1="98.62" y1="41.94" x2="109.3" y2="41.94"/>
            <line class="cls-1" x1="36.42" y1="41.94" x2="47.1" y2="41.94"/>
          </g>
          <line class="cls-1" x1="91.07" y1="60.16" x2="98.62" y2="67.71"/>
          <line class="cls-1" x1="47.09" y1="67.71" x2="54.64" y2="60.16"/>
          <line class="cls-1" x1="72.86" y1="33.8" x2="72.86" y2="44.26"/>
        </g>
      </g>
    </g>
  </g>
</svg>
