<svg xmlns="http://www.w3.org/2000/svg" width="28" height="28" viewBox="0 0 28 28"><g><g><path fill="#fa333c" d="M14.976 15.711c0 .037-.006.074-.011.11-.004.029-.005.057-.012.084-.006.028-.017.056-.026.084-.01.035-.02.069-.035.1l-.006.018a.959.959 0 0 1-.073.127l-.005.007a.964.964 0 0 1-.102.124l-.032.03a.927.927 0 0 1-.102.084l-.033.024a.97.97 0 0 1-.146.08l-.033.011a.976.976 0 0 1-.352.069c-.012 0-.024-.004-.036-.005a.978.978 0 0 1-.166-.018c-.017-.003-.033-.01-.05-.015a.985.985 0 0 1-.145-.05l-.016-.005-5.376-2.532a.968.968 0 1 1 .827-1.752l3.993 1.88V5.81a.969.969 0 0 1 1.939 0v9.884l-.002.017zM14 0C6.268 0 0 6.268 0 14c0 7.731 6.268 14 14 14 7.731 0 14-6.269 14-14C28 6.268 21.73 0 14 0z"/></g></g></svg>