<svg xmlns="http://www.w3.org/2000/svg" viewBox="0 0 140.04 152.26">
  <defs>
    <style>
      .cls-1 {
        fill: none;
        stroke: #d11742;
        stroke-linecap: round;
        stroke-linejoin: round;
        stroke-width: 5px;
      }
    </style>
  </defs>
  <title>Lungs</title>
  <g id="Слой_2" data-name="Слой 2">
    <g id="Layer_1" data-name="Layer 1">
      <g>
        <g>
          <path class="cls-1" d="M43.25,60.35,63.41,49.1s7-3.41,13.09,0L96.8,60.36"/>
          <g>
            <path class="cls-1" d="M77.31,2.5s-.9,20.91-.9,24.07.7,9,12.3,14.5l14.06,7.82"/>
            <path class="cls-1" d="M62.74,2.5s.89,20.91.89,24.07-.7,9-12.3,14.5l-14,7.82"/>
          </g>
          <g>
            <path class="cls-1" d="M51.79,17c-4.22-3.28-10.47-5.23-18.47.28,0,0-35.84,25-30.22,81.17,0,0,.35,8.09,9.49,7.38L51.1,95.63s10.69-3.08,11.6-16.87v-29"/>
            <path class="cls-1" d="M88.26,17c4.22-3.28,10.46-5.23,18.46.28,0,0,35.85,25,30.23,81.17,0,0-.36,8.09-9.49,7.38L88.94,95.63S78.26,92.55,77.35,78.76v-29"/>
          </g>
        </g>
        <line class="cls-1" x1="51.47" y1="149.76" x2="88.58" y2="112.65"/>
        <line class="cls-1" x1="88.58" y1="149.76" x2="51.47" y2="112.65"/>
      </g>
    </g>
  </g>
</svg>
