<svg xmlns="http://www.w3.org/2000/svg" width="28" height="28" viewBox="0 0 28 28"><g><g><path fill="#fa333c" d="M22.238 15.755c0 .273-.312.505-.682.505h-.283v-3.98c0-1.077-.955-1.953-2.13-1.953H8.757v-.46c0-.274.312-.505.682-.505h12.119c.369 0 .681.231.681.505zm-2.402 2.413c0 .274-.313.505-.683.505H7.026c-.37 0-.683-.232-.683-.505V12.28c0-.274.313-.505.683-.505h12.127c.37 0 .683.231.683.505v5.888zM13.953 0C6.247 0 0 6.247 0 13.953c0 7.706 6.247 13.954 13.953 13.954 7.706 0 13.954-6.247 13.954-13.954C27.907 6.247 21.66 0 13.953 0z"/></g></g></svg>