<svg width="122" height="64" viewBox="0 0 122 64" fill="none" xmlns="http://www.w3.org/2000/svg">
<g clip-path="url(#clip0_268:58)">
<path fill-rule="evenodd" clip-rule="evenodd" d="M34.8387 43.5484C36.0219 43.5484 36.9421 43.9355 37.7309 44.7097C38.4539 45.4839 38.8484 46.3871 38.8484 47.4839C38.8484 48.6452 38.4539 49.5484 37.7309 50.3225C37.0079 51.0968 36.0219 51.4839 34.8387 51.4839H15.7762C14.9873 51.4193 14.2643 51.2259 13.6727 50.8387C13.0811 50.4516 12.621 50 12.2923 49.4193C11.9637 48.8387 11.8322 48.1936 11.8322 47.4839C11.8322 46.7741 12.0294 46.0645 12.4238 45.3548L27.4766 21.9355H15.6448C14.593 21.9355 13.607 21.5484 12.8182 20.8387C12.0294 20.1291 11.635 19.1613 11.635 18C11.635 16.9032 12.0294 16 12.8182 15.1613C13.607 14.3871 14.5272 14 15.6448 14H34.7072C35.4302 14.0645 36.1534 14.2581 36.7449 14.6452C37.3365 15.0323 37.8623 15.5484 38.191 16.1291C38.5196 16.7097 38.7169 17.4193 38.7169 18.1291C38.7169 18.8387 38.5196 19.5484 38.0595 20.2581L23.1383 43.4839H34.8387V43.5484ZM56.3332 14.0645C58.1738 14.0645 59.8829 14.3871 61.4605 15.0968C63.038 15.8064 64.4842 16.7097 65.6673 17.9355C66.8505 19.1613 67.8365 20.5807 68.5595 22.1291C69.2827 23.742 69.677 25.4839 69.8085 27.3548V38.1291C69.7428 39.8709 69.3484 41.5484 68.6254 43.2259C67.9022 44.8387 66.982 46.2581 65.7988 47.4839C64.6156 48.7097 63.2352 49.6775 61.5919 50.3871C59.9486 51.0968 58.2395 51.4839 56.3332 51.4839C54.4928 51.4839 52.7837 51.1613 51.1403 50.4516C49.4971 49.742 48.1167 48.8387 46.8678 47.6129C45.6188 46.3871 44.6329 44.9677 43.9098 43.3548C43.1867 41.742 42.7923 40 42.6608 38.1291V27.3548C42.7266 25.6129 43.0552 23.9355 43.7784 22.2581C44.5014 20.6452 45.4873 19.2259 46.6706 18C47.8537 16.7741 49.2999 15.8064 50.9433 15.0968C52.718 14.4516 54.4928 14.0645 56.3332 14.0645ZM56.3332 43.5484C57.0564 43.5484 57.7794 43.4193 58.4367 43.1613C59.0941 42.9032 59.6857 42.5161 60.1458 42C60.6716 41.4839 61.066 40.9032 61.3289 40.2581C61.6577 39.6129 61.7891 38.9032 61.7891 38.1291V27.3548C61.7891 26.6452 61.6577 25.9355 61.3289 25.2259C61.0003 24.5807 60.6059 24 60.1458 23.4839C59.6199 22.9677 59.0941 22.6452 58.4367 22.3225C57.7794 22.0645 57.0564 21.9355 56.3332 21.9355C55.5445 21.9355 54.8214 22.0645 54.1641 22.3225C53.5067 22.5807 52.9152 22.9677 52.3893 23.4839C51.8635 24 51.4691 24.5161 51.2062 25.2259C50.9433 25.8709 50.8117 26.5807 50.8117 27.3548V38.1291C50.8117 39.6775 51.3375 40.9677 52.455 42C53.441 43.0323 54.7557 43.5484 56.3332 43.5484ZM92.1577 43.2903C93.2093 43.2903 94.1296 43.6775 94.9184 44.4516C95.7072 45.2259 96.1016 46.1291 96.1016 47.2259C96.1016 48.3871 95.7072 49.2903 94.9184 50.0645C94.1296 50.8387 93.2093 51.2259 92.1577 51.2259H77.1706C75.9873 51.2259 75.0671 50.8387 74.2784 50.0645C73.5552 49.2903 73.0951 48.3871 73.0294 47.2259V17.742C73.0294 16.6452 73.4238 15.742 74.2125 14.9677C75.0014 14.1936 75.9873 13.8064 77.1049 13.8064C78.1565 13.8064 79.0769 14.1936 79.8656 14.9677C80.6544 15.742 81.1145 16.6452 81.1145 17.742V43.2903H92.1577ZM122 25.6775C122 25.6775 122 25.6775 122 25.8064V30.5161V38.4516V47.5484C122 48.6452 121.606 49.5484 120.817 50.3225C120.028 51.0968 119.108 51.4839 117.991 51.4839C116.807 51.4839 115.887 51.0968 115.098 50.3225C114.31 49.5484 113.915 48.6452 113.915 47.5484V40.7097H106.093V47.5484C106.093 48.6452 105.699 49.5484 104.91 50.3225C104.121 51.0968 103.135 51.4839 102.018 51.4839C100.9 51.4839 99.9799 51.0968 99.191 50.3225C98.468 49.5484 98.0736 48.6452 98.0736 47.5484V38.4516V30.5161V25.8064V25.6775C98.0736 24.0645 98.4022 22.5807 99.0595 21.1613C99.7169 19.742 100.571 18.5161 101.623 17.4839C102.675 16.4516 103.99 15.6129 105.436 14.9677C106.882 14.3871 108.459 14.0645 110.037 14.0645C111.68 14.0645 113.192 14.3871 114.638 14.9677C116.084 15.5484 117.333 16.3871 118.451 17.4839C119.502 18.5161 120.357 19.742 121.014 21.1613C121.606 22.5807 122 24.0645 122 25.6775ZM113.981 25.8064C113.981 24.7743 113.587 23.8709 112.798 23.0968C112.009 22.3225 111.089 21.9355 110.037 21.9355C108.985 21.9355 108.065 22.3225 107.276 23.0968C106.487 23.8709 106.159 24.7743 106.159 25.8064V32.7743H113.981V25.8064Z" fill="white"/>
<path fill-rule="evenodd" clip-rule="evenodd" d="M4.33836 22.3225C6.77048 22.3225 8.67672 20.3871 8.67672 18.0645C8.67672 15.6775 6.70474 13.8064 4.33836 13.8064C1.97199 13.8064 0 15.6775 0 18.0645C0 20.3871 1.97199 22.3225 4.33836 22.3225Z" fill="#AE2573"/>
<path fill-rule="evenodd" clip-rule="evenodd" d="M56.991 8.51613C59.4231 8.51613 61.3293 6.58064 61.3293 4.25807C61.3293 1.87097 59.3574 0 56.991 0C54.5589 0 52.5869 1.93548 52.5869 4.25807C52.5869 6.64516 54.5589 8.51613 56.991 8.51613Z" fill="#AE2573"/>
<path fill-rule="evenodd" clip-rule="evenodd" d="M109.708 64C112.141 64 114.047 62.0645 114.047 59.7419C114.047 57.3548 112.075 55.4839 109.708 55.4839C107.342 55.4839 105.37 57.4194 105.37 59.7419C105.37 62.1291 107.276 64 109.708 64Z" fill="#AE2573"/>
</g>
<defs>
<clipPath id="clip0_268:58">
<rect width="122" height="64" fill="white"/>
</clipPath>
</defs>
</svg>
