<svg xmlns="http://www.w3.org/2000/svg" width="31" height="46" viewBox="0 0 31 46"><g><g><g><path fill="#0acf83" d="M7.8 45.8c4.195 0 7.6-3.405 7.6-7.6v-7.6H7.8a7.603 7.603 0 0 0-7.6 7.6c0 4.195 3.405 7.6 7.6 7.6z"/></g><g><path fill="#a259ff" d="M.2 23c0-4.195 3.405-7.6 7.6-7.6h7.6v15.2H7.8A7.603 7.603 0 0 1 .2 23z"/></g><g><path fill="#f24e1e" d="M.2 7.8C.2 3.605 3.605.2 7.8.2h7.6v15.2H7.8A7.603 7.603 0 0 1 .2 7.8z"/></g><g><path fill="#ff7262" d="M15.4.2H23c4.195 0 7.6 3.405 7.6 7.6s-3.405 7.6-7.6 7.6h-7.6z"/></g><g><path fill="#1abcfe" d="M30.6 23c0 4.195-3.405 7.6-7.6 7.6a7.603 7.603 0 0 1-7.6-7.6c0-4.195 3.405-7.6 7.6-7.6s7.6 3.405 7.6 7.6z"/></g></g></g></svg>