<svg xmlns="http://www.w3.org/2000/svg" width="42" height="29" viewBox="0 0 42 29"><g><g><g/><g><path fill="#5d87a1" d="M17.193 19.023h-1.537c-.278 2.202-.766 4.238-1.466 6.106.048-.374-.071-1.03-.359-1.97l-1.278-4.136h-1.595l1.781 5.531c.268.833.402 1.384.402 1.653 0 .392-.172.747-.516 1.062-.288.26-.666.389-1.136.389-.258 0-.483-.016-.675-.044v.865c.392.16.723.242.992.242 1.006 0 1.93-.627 2.772-1.88 1.083-1.626 1.955-4.232 2.615-7.818zm-7.04 7.155c-.076-2.93-.325-6.164-.746-9.698H7.482l-2.356 7.126H5.11L2.77 16.48H.758C.375 19.497.135 22.73.04 26.178h1.48c.047-2.835.162-5.412.344-7.73h.014l2.457 7.73h1.236l2.471-7.73h.015a90.55 90.55 0 0 1 .474 7.73h1.623"/></g><g><path fill="#f8981d" d="M24.317 23.477c0 .822-.302 1.496-.906 2.024-.604.526-1.414.79-2.43.79-.95 0-1.87-.304-2.761-.906l.417-.832c.767.384 1.462.574 2.085.574.585 0 1.042-.13 1.374-.386.331-.258.529-.619.529-1.076 0-.575-.403-1.067-1.14-1.48-.681-.372-2.042-1.152-2.042-1.152-.738-.536-1.107-1.112-1.107-2.061 0-.785.275-1.42.826-1.902.552-.484 1.264-.725 2.137-.725.901 0 1.72.241 2.458.718l-.374.832a4.762 4.762 0 0 0-1.869-.401c-.498 0-.882.12-1.15.359-.269.239-.435.544-.435.919 0 .573.411 1.071 1.17 1.491.689.374 2.084 1.167 2.084 1.167.756.535 1.134 1.106 1.134 2.047m2.893.755c.365.586.935.877 1.713.877 1.487 0 2.23-1.231 2.23-3.693 0-1.38-.197-2.385-.59-3.017-.365-.584-.935-.876-1.712-.876-1.488 0-2.231 1.222-2.231 3.664 0 1.399.197 2.413.59 3.045m5.148 3.264l-2.323-1.35c-.386.113-.81.17-1.27.17-1.238 0-2.163-.36-2.776-1.079-.671-.793-1.007-2.044-1.007-3.748 0-1.735.379-3.046 1.136-3.937.69-.815 1.654-1.222 2.89-1.222 2.522 0 3.782 1.605 3.782 4.814 0 1.743-.379 3.06-1.137 3.95a3.315 3.315 0 0 1-.446.433l1.784.88zm6.448-1.323h-4.618v-9.699h1.553v8.505h3.065z"/></g><g><path fill="#5d87a1" d="M28.791 3.048c-.16-.002-.32.018-.474.059v.023h.022c.093.187.256.317.371.48.094.189.175.375.266.562L29 4.15c.163-.117.245-.304.245-.586-.07-.082-.082-.163-.14-.246-.069-.117-.22-.175-.313-.27M40.75 13.23c-.938-.023-1.664.071-2.274.329-.176.07-.456.07-.48.293.095.094.106.245.189.375.14.235.385.55.609.714.245.188.492.375.75.539.456.282.973.446 1.417.727.259.163.516.375.775.55.127.094.209.247.374.305v-.036c-.083-.105-.106-.257-.188-.375l-.351-.34a5.577 5.577 0 0 0-1.219-1.182c-.375-.258-1.195-.61-1.348-1.042l-.023-.024c.257-.024.563-.117.808-.19.399-.104.762-.08 1.171-.186.189-.047.375-.106.564-.164v-.105c-.212-.211-.363-.492-.586-.691a15.603 15.603 0 0 0-1.934-1.442c-.363-.235-.831-.386-1.219-.585-.14-.071-.375-.106-.457-.223-.21-.258-.328-.597-.48-.903a29.33 29.33 0 0 1-.96-2.04c-.212-.456-.34-.912-.599-1.334-1.207-1.992-2.519-3.198-4.534-4.383-.433-.246-.949-.351-1.5-.48l-.878-.047c-.188-.082-.376-.305-.54-.41-.668-.422-2.39-1.336-2.882-.13-.317.763.469 1.513.738 1.9.2.268.458.574.597.879.083.199.106.41.188.62.188.516.363 1.09.61 1.571.128.245.268.503.433.725.094.13.258.188.293.4-.163.233-.176.585-.27.878-.421 1.324-.257 2.964.341 3.937.187.293.633.938 1.23.69.528-.21.41-.878.563-1.464.034-.141.012-.234.082-.327v.023c.163.328.328.644.48.973.363.573.996 1.171 1.523 1.569.281.212.504.574.855.704v-.035h-.023c-.071-.106-.175-.153-.269-.234a5.69 5.69 0 0 1-.61-.703 15.093 15.093 0 0 1-1.311-2.133c-.189-.364-.352-.762-.504-1.125-.07-.14-.07-.352-.188-.422-.177.257-.433.48-.562.796-.223.504-.246 1.125-.33 1.77l-.045.023c-.373-.093-.503-.48-.645-.807-.351-.833-.41-2.169-.105-3.13.081-.245.434-1.019.293-1.253-.07-.224-.305-.351-.434-.528a4.763 4.763 0 0 1-.422-.75c-.28-.656-.422-1.382-.725-2.038-.142-.305-.387-.622-.586-.903-.223-.316-.469-.539-.646-.914-.058-.129-.14-.34-.046-.48.023-.094.07-.129.164-.152.152-.129.586.034.738.105.434.176.798.34 1.16.586.164.117.34.34.55.399h.247c.374.081.796.022 1.148.128.621.2 1.184.492 1.688.808 1.535.974 2.8 2.356 3.655 4.008.14.27.2.516.328.797.246.574.552 1.16.797 1.723.246.55.48 1.112.832 1.57.175.245.88.374 1.196.503.233.105.597.199.808.328.399.245.796.527 1.17.797.187.14.774.434.809.668"/></g><g><path fill="#f8981d" d="M39.91 26.178h.257v-.986h.336v-.202h-.943v.202h.35zm1.964 0h.245V24.99h-.367l-.3.811-.324-.81h-.354v1.187h.231v-.904h.013l.34.904h.177l.34-.904z"/></g></g></g></svg>