<svg xmlns="http://www.w3.org/2000/svg" width="38" height="37" viewBox="0 0 38 37"><g><g><g><path fill="#001d26" d="M1.58 1.58h34.79v33.84H1.58z"/></g><g><path fill="#00c8ff" d="M25.586 15.181c1.028 0 2.056.269 2.752.712.158.047.237-.032.237-.159v-2.166c0-.11-.032-.237-.158-.316-.522-.237-1.47-.443-2.83-.443-2.768 0-4.365 1.692-4.365 3.732 0 1.819.933 2.91 3.178 3.985 1.597.822 1.961 1.328 1.961 1.898 0 .711-.522 1.233-1.771 1.233a5.87 5.87 0 0 1-3.178-.933c-.111-.079-.19-.032-.19.127v2.324c0 .127.016.206.126.253.68.395 1.866.68 3.242.68 2.61 0 4.539-1.36 4.539-3.89 0-1.692-.775-2.846-3.258-4.048-1.676-.87-1.961-1.265-1.961-1.835 0-.521.427-1.154 1.676-1.154zm-13.6 1.882v-6.104c.285-.016.886-.048 1.519-.048 2.103 0 3.352 1.012 3.352 3.02 0 2.515-1.74 3.163-3.59 3.163-.632 0-.917 0-1.28-.031zM9.173 8.666v17c0 .142.063.19.19.19h2.42c.141 0 .189-.064.189-.19v-6.073c.427 0 .632.032 1.233.032 3.574 0 6.484-1.724 6.484-5.74 0-3.084-1.708-5.488-6.088-5.488a94.47 94.47 0 0 0-4.08.08c-.127 0-.348.078-.348.189zM1.582 1.58h34.79v33.841H1.581zM0 0v37.004h37.952V0z"/></g></g></g></svg>