<svg xmlns="http://www.w3.org/2000/svg" width="43" height="43" viewBox="0 0 43 43"><defs><clipPath id="bgofa"><path d="M.6.6h41.583v41.584H.6z"/></clipPath></defs><g><g><g/><g clip-path="url(#bgofa)"><g><path fill="#00749a" d="M80.9 23.66c0 2.661-1.29 5.967-5.04 5.967-3.707 0-4.997-3.306-4.997-5.967 0-2.621 1.29-5.966 4.998-5.966 3.748 0 5.038 3.345 5.038 5.966zm3.022 0c0-3.95-3.628-7.216-8.061-7.216s-8.06 3.265-8.06 7.216c0 3.99 3.627 7.255 8.06 7.255 4.433 0 8.06-3.264 8.06-7.255zm-21.764 1.372l-3.99-12.092h-.766l-4.07 12.092-2.701-8.223c-.847-2.498-.202-3.062 2.176-3.062v-.807H43.86v.807c2.338 0 2.983.604 3.95 3.546l4.473 13.784h.525l4.191-12.615 4.111 12.615h.524l4.595-13.784c1.008-2.942 1.612-3.547 4.151-3.547v-.806h-7.577v.806c2.58 0 2.942.685 2.136 3.063zm44.575 4.111c-1.45 0-1.652-.362-1.652-2.217v-8.749h1.935c4.191 0 4.956 3.064 4.956 5.443 0 2.459-.765 5.523-4.956 5.523zm-16.725-5.6v-5.366h1.652c1.813 0 2.62 1.251 2.62 2.704 0 1.413-.807 2.663-2.62 2.663zm9.672-6.575v.766c2.257 0 2.62.484 2.62 3.346v5.16c0 2.862-.363 3.387-2.62 3.387-1.732-.242-2.902-1.17-4.514-2.944l-1.854-2.015c2.499-.444 3.829-2.016 3.829-3.79 0-2.216-1.894-3.91-5.441-3.91h-7.094v.766c2.257 0 2.62.484 2.62 3.346v5.16c0 2.862-.363 3.387-2.62 3.387v.765h8.02v-.765c-2.256 0-2.619-.525-2.619-3.387v-1.45h.685l4.474 5.602h11.729c5.763 0 8.262-3.063 8.262-6.732 0-3.668-2.499-6.692-8.262-6.692z"/></g><g><path fill="#464342" d="M175.327 29.545c-.202.202-.564.807-.644 1.37h-.766v-5.562h.806c.322 2.66 2.176 4.233 4.554 4.233 1.29 0 2.338-.726 2.338-1.935 0-1.048-.927-1.854-2.58-2.62l-2.297-1.088c-1.613-.767-2.821-2.097-2.821-3.87 0-1.935 1.813-3.587 4.312-3.587 1.33 0 2.458.484 3.144 1.048.201-.162.403-.605.523-1.089h.766v4.757h-.846c-.282-1.895-1.33-3.467-3.466-3.467-1.128 0-2.176.645-2.176 1.653 0 1.048.846 1.612 2.78 2.499l2.217 1.088c1.935.927 2.7 2.42 2.7 3.628 0 2.54-2.217 4.313-4.916 4.313-1.613 0-3.024-.847-3.628-1.37zm-12.412 0c-.202.202-.565.807-.645 1.37h-.767v-5.562h.807c.323 2.66 2.178 4.233 4.559 4.233 1.291 0 2.34-.726 2.34-1.935 0-1.048-.927-1.854-2.582-2.62l-2.3-1.088c-1.614-.767-2.824-2.097-2.824-3.87 0-1.935 1.816-3.587 4.317-3.587 1.332 0 2.46.484 3.147 1.048.202-.162.404-.605.525-1.089h.766v4.757h-.847c-.283-1.895-1.332-3.467-3.47-3.467-1.13 0-2.178.645-2.178 1.653 0 1.048.847 1.612 2.784 2.499l2.218 1.088c1.937.927 2.703 2.42 2.703 3.628 0 2.54-2.219 4.313-4.922 4.313-1.614 0-3.026-.847-3.63-1.37zm-24.264-6c1.814 0 2.62-1.251 2.62-2.664 0-1.453-.806-2.704-2.62-2.704H137v5.367zm19.709 3.058l.605.001-.242 3.789H142.16l-4.474-5.603H137v1.45c0 2.862.363 3.387 2.62 3.387v.766h-8.021v-.766c2.257 0 2.62-.525 2.62-3.387v-5.16c0-2.862-.364-3.346-2.62-3.346v-.765h7.093c3.547 0 5.44 1.693 5.44 3.91 0 1.774-1.33 3.345-3.828 3.79l1.854 2.015c1.589 1.748 2.75 2.67 4.441 2.929 1.78-.095 2.087-.754 2.087-3.373v-5.16c0-2.862-.363-3.345-2.62-3.345v-.766h11.85l.282 3.79h-.644l-.203-.767c-.362-1.33-.805-1.814-3.667-1.814h-2.217v4.515c3.144 0 3.386-.282 3.386-2.379h.766v6.008h-.766c0-2.097-.242-2.379-3.386-2.379v1.854c0 2.862.363 3.346 2.459 3.346h.564c2.861 0 3.306-.484 3.668-1.814zM124.227 14.39h-2.302v7.02h2.302c2.26 0 3.31-1.574 3.31-3.47 0-1.936-1.049-3.55-3.31-3.55zm.883 16.002h-9.23v-.806c2.7 0 3.184-.685 3.184-4.716v-6.448c0-4.031-.483-4.675-3.184-4.675v-.807h8.343c4.15 0 6.449 2.136 6.449 4.998 0 2.781-2.298 4.958-6.45 4.958h-2.297v1.974c0 4.031.484 4.716 3.185 4.716z"/></g><g><g><path fill="#00749a" d="M33.438 20.497c0 1.527-.587 3.299-1.359 5.766l-1.778 5.945-6.446-19.174a35.909 35.909 0 0 0 2.041-.17c.961-.114.848-1.526-.114-1.47 0 0-2.888.227-4.754.227-1.752 0-4.698-.227-4.698-.227-.961-.056-1.074 1.413-.113 1.47 0 0 .91.113 1.87.17l2.78 7.614-3.904 11.707-6.495-19.321a35.73 35.73 0 0 0 2.042-.17c.96-.114.847-1.526-.115-1.47 0 0-2.888.227-4.753.227-.335 0-.73-.008-1.148-.021 3.189-4.843 8.671-8.04 14.903-8.04 4.643 0 8.871 1.775 12.045 4.683-.078-.005-.153-.015-.232-.015-1.751 0-2.995 1.527-2.995 3.166 0 1.47.848 2.714 1.752 4.183.679 1.189 1.47 2.715 1.47 4.92zM5.104 14.134l8.509 23.315C7.663 34.557 3.56 28.455 3.56 21.394a17.773 17.773 0 0 1 1.544-7.26z"/></g><g><path fill="#00749a" d="M37.153 14.664c0 1.81-.337 3.845-1.353 6.389L30.36 36.805c5.293-3.092 8.854-8.837 8.854-15.417a17.765 17.765 0 0 0-2.181-8.558c.076.568.12 1.178.12 1.834zM21.7 22.948l-5.349 15.55a17.807 17.807 0 0 0 10.957-.284 1.51 1.51 0 0 1-.127-.246z"/></g><g><path fill="#00749a" d="M21.392 41.23c-10.939 0-19.839-8.9-19.839-19.839 0-10.938 8.9-19.837 19.839-19.837 10.938 0 19.838 8.899 19.838 19.837 0 10.94-8.9 19.84-19.838 19.84zm0-40.63C9.928.6.6 9.927.6 21.391c0 11.466 9.327 20.793 20.792 20.793 11.464 0 20.793-9.327 20.793-20.793C42.185 9.927 32.856.6 21.392.6z"/></g></g></g></g></g></svg>