<svg id="Layer_1" data-name="Layer 1" xmlns="http://www.w3.org/2000/svg" viewBox="0 0 1556.79 1297.32">
  <defs>
    <style>
      .cls-1 {
        fill: none;
        stroke: #126650;
        stroke-linejoin: round;
        stroke-width: 29.11px;
      }
    </style>
  </defs>
  <title>Artboard 7</title>
  <g>
    <path class="cls-1" d="M749.29,459.48a106,106,0,0,0,31.86,75.77L793,546.79H385.47l11.8-11.54a106,106,0,0,0,31.86-75.77Z"/>
    <polyline class="cls-1" points="429.13 546.79 458.24 983.37 545.55 983.37"/>
    <line class="cls-1" x1="749.29" y1="546.79" x2="740.59" y2="677.85"/>
    <polyline class="cls-1" points="560.1 459.48 560.1 255.74 618.32 255.74 618.32 459.48"/>
    <path class="cls-1" d="M1012.15,983.37h130.06l29.1-291-52,31.21A87.13,87.13,0,0,1,1074.36,736H953.93"/>
    <polyline class="cls-1" points="967.58 692.32 967.58 546.79 1025.79 546.79 1025.79 677.77"/>
    <polyline class="cls-1" points="1025.79 590.45 1084 590.45 1084 692.32"/>
    <polyline class="cls-1" points="1084 590.45 1084 546.79 1142.21 546.79 1142.21 709.78"/>
    <polyline class="cls-1" points="967.58 605 909.37 605 909.37 706.87"/>
    <polyline class="cls-1" points="909.37 605 909.37 561.35 851.16 561.35 851.16 692.32"/>
    <path class="cls-1" d="M589.21,968.82A72.76,72.76,0,0,0,662,1041.58H894.81a72.77,72.77,0,0,0,72.77-72.76A14.54,14.54,0,0,0,953,954.27H603.76A14.54,14.54,0,0,0,589.21,968.82Z"/>
    <path class="cls-1" d="M953,954.27V910.61a14.55,14.55,0,0,0-14.56-14.55H618.31a14.54,14.54,0,0,0-14.55,14.55v43.66"/>
    <path class="cls-1" d="M591.48,831a14,14,0,0,1-.65-14.17c30.67-58.44,93.4-95.36,162-95.36H804c68.59,0,131.32,36.92,162,95.36A14,14,0,0,1,965.3,831a15.48,15.48,0,0,1-13,6.9H604.49A15.51,15.51,0,0,1,591.48,831Z"/>
    <path class="cls-1" d="M618.31,837.85c40,0,40,58.21,80,58.21s40-58.21,80-58.21,40.05,58.21,80.08,58.21,40-58.21,80.08-58.21"/>
    <path class="cls-1" d="M944.53,896.06c12.13,0,21.83-58.21,0-58.21"/>
    <path class="cls-1" d="M612.06,896.06c-12.12,0-21.83-58.21,0-58.21"/>
  </g>
</svg>
