<svg id="Layer_1" data-name="Layer 1" xmlns="http://www.w3.org/2000/svg" viewBox="0 0 1556.79 1297.32">
  <defs>
    <style>
      .cls-1 {
        fill: #126650;
      }
    </style>
  </defs>
  <title>Artboard 4</title>
  <path class="cls-1" d="M1208.12,447.07l-6.7-13.32C1173.84,378.7,1183.55,276,1183.65,275a15.56,15.56,0,0,0-2.15-9.57c-9.61-16-21.42-25.06-35.15-26.79-18.4-2.38-31.43,9.86-32.82,11.28a15.73,15.73,0,0,0-4.45,8.48c-5.84,33.43-5.47,65.08-3.85,87.49-25.15-10.68-66.11-19.86-122-6.07a15.6,15.6,0,0,0-10.54,8.82c-1,2.14-9.33,21.48-6.79,38.45,2.78,18.68,17.36,31.19,19,32.58a15.85,15.85,0,0,0,14,3.07c78.81-20.82,125.49,26.64,135.55,44.92,9.33,16.74,26.62,49,38,77,14.8,36.33,30.58,90.55,26.9,151.36-7.37-8.62-16.13-25.6-20.84-58.84-2.15-15.11-3.24-26.44-4.1-35.48-1.87-19.24-3-30.86-11.63-44.62-9.39-15.08-30.56-33.3-59.16-34.84-20.25-.82-51.58,6.11-84,47.26a169.63,169.63,0,0,0-25.24,43.71C949.67,542.47,875.78,557,830.5,565.77l-12.62,2.41c-16.25,2.73-35.26-7.58-61.56-22.08-34.27-18.87-81.21-44.7-151.38-55.56-135.05-20.93-236.27,24.18-277.66,123.6-30,71.84-18.58,157.47,29,218.14,26.74,34.1,84.89,85.53,192.52,85.5a383.06,383.06,0,0,0,58.8-4.73c80.84-12.5,120.75-34.47,149.89-50.5,19.38-10.63,33.37-18.36,52.81-20.23,32.57-3.2,59.31-13,79.91-27.87,37.11,26.37,68.61,36,94.62,36,26.22,0,46.86-9.58,62.22-21.06,36.46-27.33,58.56-76.47,71.32-117.23,10.94,29.1,29.51,59.2,60.26,72.46-17,54.5-45.13,95.07-86.3,122.6a24.27,24.27,0,0,0-6.21,5.09c-.31.37-.46.79-.74,1.15a15.08,15.08,0,0,0-.85,1.41c-9.74,15-3.13,37.75,9.42,53.57,10.06,12.66,22.6,19.91,34.32,19.91a24.85,24.85,0,0,0,19.39-8.85c.49-.58.74-1.24,1.17-1.81,7.52-6.68,80.47-73.43,115.7-180.54C1312.13,652.65,1247,523.94,1208.12,447.07Zm26.65,340.33C1212,856.5,1171.46,908,1147.14,934.63a70.31,70.31,0,0,0-7.2-11.25,61.4,61.4,0,0,0-7.21-7.58c38.43-33.42,65.69-79.24,80.93-137.13.06-.15,0-.36,0-.53s.15-.29.18-.43a14.14,14.14,0,0,0,0-2.52,16.51,16.51,0,0,0,0-3.22,16.88,16.88,0,0,0-1-2.8,13.09,13.09,0,0,0-1.18-2.73,13.68,13.68,0,0,0-2-2.24,15.09,15.09,0,0,0-2.11-2.12,16,16,0,0,0-2.72-1.33,15.57,15.57,0,0,0-2.42-1.2,3.38,3.38,0,0,0-.55,0c-.15,0-.27-.14-.43-.17-58.47-11.49-67.4-116.82-67.5-117.88a15.61,15.61,0,0,0-15.17-14.42c-8-.95-14.87,5.58-15.94,13.54-.19,1.2-16.82,120.42-74.63,163.74-31.31,23.3-69,19.2-114.88-12,13.71-18,21.47-42.66,22-68.18.16-8.62-6.7-18.68-15.35-18.68h-.3c-8.53,0-15.51,9.57-15.67,18.08-1.35,68.18-68.16,83.39-96.84,86.17-25.86,2.54-43.94,13.16-64.89,24.7-28.6,15.76-64.19,35.66-139.56,47.31-96.34,14.91-175.21-9.44-221.87-69-40.65-51.89-50.37-125.11-24.71-186.69,35.94-86.26,122.61-123.35,244-104.64,64.73,10,107.05,33.35,141.07,52.07,30.73,17,55,30.31,82.17,25.49l13.12-2.51c47-9.14,105.55-20.58,138.22,45.62,14.23,28.57,13.83,47.06,13.4,66.62-.09,4.59-.21,9.09-.12,13.67.15,7.94-3.27,24.09-5.48,32.38a15.67,15.67,0,0,0,30.29,8c.71-2.63,6.79-26,6.52-41-.06-4.13,0-8.21.12-12.39.25-11.93.18-25-2.66-40.07,0-.38.06-.71,0-1.07-.28-1.45-6.85-35.79,27.47-79.45,19-24.16,39.07-36,57.67-35.35,17.77,1,29.91,13.11,34.31,20.17s5.21,12.8,7,31.05c.92,9.36,2,21.15,4.3,36.88,13.41,94.58,61,95.06,66,94.55a15.68,15.68,0,0,0,14.68-13.47c10.68-76.68-8.59-145.57-26.67-189.85-12-29.52-30-63-39.6-80.35-18.88-34.22-78.72-79.77-161.59-62.29a19.58,19.58,0,0,1-3.4-7.74c-.54-3.7.46-9.2,1.9-14.07,75.34-15.57,113.61,17,115.14,18.41a15.68,15.68,0,0,0,26-14.52c-.1-.5-9-48.46-1-102a9.06,9.06,0,0,1,3.51-.57c2.82.36,6.21,3.18,9.61,7.85-1.81,23.59-6.54,114.47,21.38,170.28l6.79,13.44C1219.26,538.46,1278.3,655.18,1234.77,787.4Z"/>
</svg>
