<svg id="Layer_1" data-name="Layer 1" xmlns="http://www.w3.org/2000/svg" viewBox="0 0 1556.79 1297.32">
  <defs>
    <style>
      .cls-1 {
        fill: #126650;
      }
    </style>
  </defs>
  <title>Artboard 8</title>
  <g>
    <path class="cls-1" d="M1205.45,440.88h-71a175.86,175.86,0,0,0-39.48-100l50.57-50.58a17.64,17.64,0,0,0-25-24.93L1070,315.93a175.67,175.67,0,0,0-94.73-39.1V217.21c0-9.73-7.38-17.63-17.1-17.63s-17.1,7.9-17.1,17.63v59.66a175.7,175.7,0,0,0-94.28,39.06l-50.58-50.58a17.63,17.63,0,0,0-24.93,24.93l50.58,50.58a175.63,175.63,0,0,0-39.52,100H711.45c-9.77,0-17.67,7.37-17.67,17.1s7.9,17.1,17.67,17.1h71.93a175.6,175.6,0,0,0,38.46,89l-50.58,50.58a17.64,17.64,0,0,0,24.93,25L846.8,589a175.52,175.52,0,0,0,94.25,39.07v83.18c0,9.73,7.37,17.63,17.1,17.63s17.1-7.9,17.1-17.63V628.1a175.46,175.46,0,0,0,94.69-39.1l50.62,50.62a17.65,17.65,0,0,0,25-25L1095,564.07a175.87,175.87,0,0,0,38.41-89h72.09c9.77,0,17.63-7.38,17.63-17.1S1215.22,440.88,1205.45,440.88ZM958.37,593.64c-77.82,0-141.13-63.35-141.13-141.17s63.31-141.13,141.13-141.13,141.17,63.3,141.17,141.13S1036.2,593.64,958.37,593.64Z"/>
    <path class="cls-1" d="M1140.77,966.84l-34.2-10.49a110.24,110.24,0,0,0-5-51.83v0l31.76-16.8a17.65,17.65,0,0,0-16.53-31.19l-31.95,16.9A110.83,110.83,0,0,0,1045.55,841l10.52-34.2a17.65,17.65,0,0,0-33.74-10.38l-10.49,34.2a117.7,117.7,0,0,0-15.58-1.06,111.65,111.65,0,0,0-36.33,6.12l-16.11-30.44a17.65,17.65,0,0,0-31.2,16.53l16.23,30.59a110.16,110.16,0,0,0-32.3,39.37l-34.24-10.56a17.63,17.63,0,0,0-10.38,33.7l34.24,10.53a111,111,0,0,0,4.64,50.77l-31.43,16.64a17.63,17.63,0,1,0,16.5,31.16l31.31-16.57a110.55,110.55,0,0,0,40,33.33l-10.48,34.16a17.63,17.63,0,1,0,33.7,10.38l10.49-34.17a116.83,116.83,0,0,0,15.58,1.07,111.66,111.66,0,0,0,35.11-5.74l17.37,32.83a17.65,17.65,0,0,0,15.62,9.39,18,18,0,0,0,8.24-2.06,17.67,17.67,0,0,0,7.34-23.86l-17.29-32.61a109.51,109.51,0,0,0,33.36-40.09l34.2,10.53a17.65,17.65,0,0,0,10.37-33.74ZM1069,963.23a76,76,0,1,1-5.47-57.91A75.52,75.52,0,0,1,1069,963.23Z"/>
    <path class="cls-1" d="M729.08,819.09l-50.5-15.54A141.12,141.12,0,0,0,670.86,728l47.28-25a17.64,17.64,0,1,0-16.54-31.16L654.14,697a142.25,142.25,0,0,0-58.25-47.73l15.92-51.72a17.65,17.65,0,0,0-33.74-10.37L562.15,639a142.27,142.27,0,0,0-74.75,7l-25.35-47.84a17.64,17.64,0,0,0-31.2,16.49l25.27,47.77a140.48,140.48,0,0,0-48.41,57.8l-51.19-15.73a17.63,17.63,0,0,0-10.37,33.7L397,753.84a141.4,141.4,0,0,0,6.62,75.78l-46.52,24.62a17.64,17.64,0,1,0,16.49,31.2L420,860.93a141.9,141.9,0,0,0,58.78,49.14l-15.27,49.66a17.63,17.63,0,1,0,33.7,10.37l15.24-49.58a142.75,142.75,0,0,0,76.5-7.3l24.32,45.94a17.63,17.63,0,0,0,15.61,9.39,17.39,17.39,0,0,0,8.25-2.06,17.68,17.68,0,0,0,7.34-23.86l-24.4-46a140.9,140.9,0,0,0,48.45-59.21l50.24,15.47a17.65,17.65,0,0,0,10.37-33.75Zm-88.58-7.64a107.67,107.67,0,1,1-7.75-82A107.61,107.61,0,0,1,640.5,811.45Z"/>
    <path class="cls-1" d="M1058.92,459a34.7,34.7,0,0,1-56.62-40.13c10.68-15.08,33.29-19,48.41-8.24A34.57,34.57,0,0,1,1058.92,459Z"/>
    <path class="cls-1" d="M988.35,388.48a34.7,34.7,0,0,1-56.62-40.14c10.68-15.08,33.29-19,48.42-8.28A34.67,34.67,0,0,1,988.35,388.48Z"/>
    <path class="cls-1" d="M953.05,471.92a34.7,34.7,0,1,1-56.62-40.13c10.68-15.08,33.33-19,48.42-8.24A34.57,34.57,0,0,1,953.05,471.92Z"/>
    <path class="cls-1" d="M566.63,746.24A34.7,34.7,0,1,1,510,706.12c10.68-15,33.29-19,48.41-8.25A34.73,34.73,0,0,1,566.63,746.24Z"/>
    <path class="cls-1" d="M569.1,832.24a34.72,34.72,0,0,1-56.66-40.16c10.68-15.05,33.33-19,48.41-8.25A34.67,34.67,0,0,1,569.1,832.24Z"/>
    <path class="cls-1" d="M1035.4,942.44a34.71,34.71,0,1,1-56.62-40.16c10.68-15,33.29-19,48.41-8.25A34.67,34.67,0,0,1,1035.4,942.44Z"/>
  </g>
</svg>
