<?xml version="1.0" standalone="no"?>
<!DOCTYPE svg PUBLIC "-//W3C//DTD SVG 1.1//EN" "http://www.w3.org/Graphics/SVG/1.1/DTD/svg11.dtd" >
<svg xmlns="http://www.w3.org/2000/svg" xmlns:xlink="http://www.w3.org/1999/xlink" version="1.1">
<metadata>
Created by FontForge 20170731 at Sat Jun  9 21:22:51 2012
 By Aleksey,,,
Copyright (c) 2010, 2012, Khaled Hosny &#60;khaledhosny@eglug.org&#62;.
Portions copyright (c) 2010, Sebastian Kosch &#60;sebastian@aldusleaf.org&#62;

This Font Software is licensed under the Open Font License, Version 1.1.
</metadata>
<defs>
<font id="Amiri-BoldSlanted" horiz-adv-x="449" >
  <font-face 
    font-family="Amiri"
    font-weight="700"
    font-style="oblique"
    font-stretch="normal"
    units-per-em="2048"
    panose-1="0 0 5 0 0 0 0 0 0 0"
    ascent="1638"
    descent="-410"
    x-height="898"
    cap-height="1324"
    bbox="-1033.67 -1728 23631.7 3729.33"
    underline-thickness="102"
    underline-position="-1304"
    slope="7"
    unicode-range="U+0020-FEFC"
  />
<missing-glyph horiz-adv-x="748" 
d="M68 0v1365h544v-1365h-544zM136 68h408v1229h-408v-1229z" />
    <glyph glyph-name="uni08F0" unicode="&#x64e;&#x64e;" horiz-adv-x="0" 
d="M425 2085q35 26 58 19t14 -53l-13 -64q-8 -37 -33 -54l-331 -220q-22 -13 -43.5 -9t-20.5 43l2 39q2 35 34 58zM550 2390q31 20 49 16q28 -8 21 -50l-8 -52q-7 -39 -41 -62l-337 -211q-40 -23 -62 -14t-8 53l13 39q13 34 32 48z" />
    <glyph glyph-name="uni08F1" unicode="&#x64f;&#x64f;" horiz-adv-x="0" 
d="M457 2301q38 10 67 -23q23 -29 31 -78q7 -48 -19 -141q32 -18 47 -26q25 -14 14 -46l-19 -51q-12 -30 -90 11q-96 -145 -182 -196q-47 -26 -68 -2q-19 27 33 69q86 68 151 166q-128 65 -95 167q43 124 130 150zM456 2149q-14 18 -40 6q-16 -8 -21 -14q20 -20 71 -47
q3 35 -10 55zM123 2296q38 10 67 -23q23 -29 31 -78q7 -48 -19 -141q32 -18 47 -26q25 -14 14 -46l-19 -51q-12 -30 -90 11q-96 -145 -182 -196q-47 -26 -68 -2q-19 27 33 69q86 68 151 166q-128 65 -95 167q43 124 130 150zM122 2144q-14 18 -40 6q-16 -8 -21 -14
q20 -20 71 -47q3 35 -10 55z" />
    <glyph glyph-name="uni08F2" unicode="&#x650;&#x650;" horiz-adv-x="0" 
d="M795 -932q35 26 58 19t14 -53l-13 -64q-8 -37 -33 -54l-331 -220q-22 -13 -43.5 -9t-20.5 43l2 39q2 35 34 58zM920 -627q31 20 49 16q28 -8 21 -50l-8 -52q-7 -39 -41 -62l-337 -211q-40 -23 -62 -14t-8 53l13 39q13 34 32 48z" />
    <glyph glyph-name="f_f" unicode="ff" horiz-adv-x="1196" 
d="M1135 1356q63 34 111 34q99 0 148 -36q18 -29 18 -67t-21.5 -67.5t-62.5 -29.5q-44 0 -82 56q-5 8 -6.5 10t-6.5 9t-7.5 9t-7.5 7t-9 7t-9 5q-8 5 -22 5q-44 0 -74.5 -95.5t-81.5 -354.5h200q10 0 10 -28.5t-22 -63.5h-206q-62 -388 -110 -640q-23 -118 -74.5 -223.5
t-114.5 -176t-132 -111.5t-123 -41q-105 0 -154 36q-18 29 -18 67t21.5 67.5t62.5 29.5q44 0 82 -56q5 -8 6.5 -10t6.5 -9t7.5 -9t7.5 -7t9 -7t9 -5q8 -5 22 -5q45 0 67 63.5t47.5 200.5t35.5 188l112 648h-330q-62 -388 -110 -640q-23 -118 -74.5 -223.5t-114.5 -176
t-132 -111.5t-123 -41q-105 0 -154 36q-18 29 -18 67t21.5 67.5t62.5 29.5q44 0 82 -56q5 -8 6.5 -10t6.5 -9t7.5 -9t7.5 -7t9 -7t9 -5q8 -5 22 -5q45 0 67 63.5t47.5 200.5t35.5 188l112 648h-130q-4 0 -4 12t32.5 46t63.5 34h54q31 159 114 278.5t191.5 179.5t208.5 60
t169.5 -31.5t96.5 -74.5q62 62 125 96zM790 848q29 149 110 276q-74 151 -192 154q-78 2 -141 -108.5t-105 -321.5h328z" />
    <glyph glyph-name="f_i" unicode="fi" horiz-adv-x="1156" 
d="M945 436.5q-29 -140.5 -36 -172.5t-7 -70t28 -38t80.5 52t61.5 70q9 0 18.5 -21t9.5 -33q-19 -35 -72 -90t-124.5 -102.5t-123.5 -47.5t-88 35t-36 95t18 132l62 312q0 3 4.5 26t5 34t1.5 32.5t-4 33.5t-14 26q-18 26 -69 24l-222 -10q-56 -356 -104 -608
q-23 -118 -74.5 -223.5t-114.5 -176t-132 -111.5t-123 -41q-105 0 -154 36q-18 29 -18 67t21.5 67.5t62.5 29.5q44 0 82 -56q5 -8 6.5 -10t6.5 -9t7.5 -9t7.5 -7t9 -7t9 -5q8 -5 22 -5q45 0 67 63.5t47.5 200.5t35.5 188l106 616h-130q-4 0 -4 12t32.5 46t63.5 34h54
q40 245 189.5 396.5t348.5 153.5q58 0 116 -17q84 -24 132 -59q18 -29 18 -66q0 -102 -58 -118q-36 -11 -74.5 5.5t-55 39.5t-29 51t-19.5 42q-18 34 -92.5 34t-140 -121.5t-103.5 -340.5q94 2 247.5 11t252.5 9q7 0 27.5 -21t20.5 -44t-15 -108.5t-44 -226z" />
    <glyph glyph-name="f_l" unicode="fl" horiz-adv-x="1202" 
d="M944 198q0 -42 28 -42t80.5 52t61.5 70q9 0 18.5 -21t9.5 -33q-19 -35 -72 -90t-124.5 -102.5t-123.5 -47.5t-88 35t-36 95t18 132l170 874q1 4 2 13t2 13q-26 62 -76.5 97t-105.5 35q-78 2 -141 -108.5t-105 -321.5h200q10 0 10 -28.5t-22 -63.5h-206
q-62 -388 -110 -640q-23 -118 -74.5 -223.5t-114.5 -176t-132 -111.5t-123 -41q-105 0 -154 36q-18 29 -18 67t21.5 67.5t62.5 29.5q44 0 82 -56q5 -8 6.5 -10t6.5 -9t7.5 -9t7.5 -7t9 -7t9 -5q8 -5 22 -5q45 0 67 63.5t47.5 200.5t35.5 188l112 648h-130q-4 0 -4 12
t32.5 46t63.5 34h54q31 159 114 278.5t191.5 179.5t207 60t163.5 -28q181 26 284 64q12 -7 12 -26t-30 -82.5t-36 -89.5l-184 -940q-8 -48 -8 -66z" />
    <glyph glyph-name="f_f_i" unicode="ffi" horiz-adv-x="1716" 
d="M1505 436.5q-29 -140.5 -36 -172.5t-7 -70t28 -38t80.5 52t61.5 70q9 0 18.5 -21t9.5 -33q-19 -35 -72 -90t-124.5 -102.5t-123.5 -47.5t-88 35t-36 95t18 132l62 312q0 3 4.5 26t5 34t1.5 32.5t-4 33.5t-14 26q-18 26 -69 24l-222 -10q-56 -356 -104 -608
q-23 -118 -74.5 -223.5t-114.5 -176t-132 -111.5t-123 -41q-105 0 -154 36q-18 29 -18 67t21.5 67.5t62.5 29.5q44 0 82 -56q5 -8 6.5 -10t6.5 -9t7.5 -9t7.5 -7t9 -7t9 -5q8 -5 22 -5q45 0 67 63.5t47.5 200.5t35.5 188l106 616h-330q-56 -356 -104 -608
q-23 -118 -74.5 -223.5t-114.5 -176t-132 -111.5t-123 -41q-105 0 -154 36q-18 29 -18 67t21.5 67.5t62.5 29.5q44 0 82 -56q5 -8 6.5 -10t6.5 -9t7.5 -9t7.5 -7t9 -7t9 -5q8 -5 22 -5q45 0 67 63.5t47.5 200.5t35.5 188l106 616h-130q-4 0 -4 12t32.5 46t63.5 34h54
q46 267 206 413q151 137 332 137q86 0 157 -34.5t95 -79.5q139 114 308 114q58 0 116 -17q84 -24 132 -59q18 -29 18 -66q0 -102 -58 -118q-36 -11 -74.5 5.5t-55 39.5t-29 51t-19.5 42q-18 34 -92.5 34t-140 -121.5t-103.5 -340.5q94 2 247.5 11t252.5 9q7 0 27.5 -21
t20.5 -44t-15 -108.5t-44 -226zM784 816q30 180 116 308q-74 151 -192 154q-79 2 -144.5 -117t-107.5 -345h328z" />
    <glyph glyph-name="f_f_l" unicode="ffl" horiz-adv-x="1762" 
d="M1504 198q0 -42 28 -42t80.5 52t61.5 70q9 0 18.5 -21t9.5 -33q-19 -35 -72 -90t-124.5 -102.5t-123.5 -47.5t-88 35t-36 95t18 132l170 874q1 4 2 13t2 13q-26 62 -76.5 97t-105.5 35q-78 2 -141 -108.5t-105 -321.5h200q10 0 10 -28.5t-22 -63.5h-206
q-62 -388 -110 -640q-23 -118 -74.5 -223.5t-114.5 -176t-132 -111.5t-123 -41q-105 0 -154 36q-18 29 -18 67t21.5 67.5t62.5 29.5q44 0 82 -56q5 -8 6.5 -10t6.5 -9t7.5 -9t7.5 -7t9 -7t9 -5q8 -5 22 -5q45 0 67 63.5t47.5 200.5t35.5 188l112 648h-330
q-62 -388 -110 -640q-23 -118 -74.5 -223.5t-114.5 -176t-132 -111.5t-123 -41q-105 0 -154 36q-18 29 -18 67t21.5 67.5t62.5 29.5q44 0 82 -56q5 -8 6.5 -10t6.5 -9t7.5 -9t7.5 -7t9 -7t9 -5q8 -5 22 -5q45 0 67 63.5t47.5 200.5t35.5 188l112 648h-130q-4 0 -4 12
t32.5 46t63.5 34h54q31 159 114 278.5t191.5 179.5t210.5 60t175 -35.5t95 -80.5q140 116 306 116q79 0 144 -28q181 26 284 64q12 -7 12 -26t-30 -82.5t-36 -89.5l-184 -940q-8 -48 -8 -66zM902 1122q-75 153 -194 156q-78 2 -141 -108.5t-105 -321.5h328q29 152 112 274z
" />
    <glyph glyph-name="uni0640.2" unicode="&#x640;&#x640;" horiz-adv-x="700" 
d="M706 -30q-350 -16 -704 0q-40 3 -60 53l-37 89q-29 81 37 99q16 4 201 -2t366.5 0t197.5 3q70 -18 60 -100l-15 -89q-9 -50 -46 -53z" />
    <glyph glyph-name="uni0640.3" unicode="&#x640;&#x640;&#x640;" horiz-adv-x="1500" 
d="M1506 -30q-325 -26 -756 -26t-748 26q-39 3 -60 53l-37 89q-18 51 1 79q21 27 70 24q315 -26 744.5 -26t751.5 26q87 4 95 -74q2 -15 0 -29l-15 -89q-9 -50 -46 -53z" />
    <glyph glyph-name="uni0640.4" unicode="&#x640;&#x640;&#x640;&#x640;" horiz-adv-x="2500" 
d="M2471 215q58 3 79 -29.5t17 -72.5l-15 -90q-8 -49 -49 -53q-1267 -121 -2501 0q-41 5 -60 53l-37 89q-7 20 -9 36q-4 52 44 65q17 4 37 2q1234 -119 2494 0z" />
    <glyph glyph-name="f_b" unicode="fb" horiz-adv-x="1578" 
d="M1028 672q47 73 146 149.5t175 76.5t124.5 -58t48.5 -179.5t-57.5 -251.5t-143 -220t-185.5 -145.5t-191.5 -55.5t-159 62.5t-67.5 163.5q0 54 12 110l156 796l6 24q-25 62 -76.5 98t-107.5 36q-78 2 -141 -108.5t-105 -321.5h200q10 0 10 -28.5t-22 -63.5h-206
q-62 -388 -110 -640q-23 -118 -74.5 -223.5t-114.5 -176t-132 -111.5t-123 -41q-105 0 -154 36q-18 29 -18 67t21.5 67.5t62.5 29.5q44 0 82 -56q5 -8 6.5 -10t6.5 -9t7.5 -9t7.5 -7t9 -7t9 -5q8 -5 22 -5q45 0 67 63.5t47.5 200.5t35.5 188l112 648h-130q-4 0 -4 12
t32.5 46t63.5 34h54q31 159 114 278.5t191.5 179.5t207 60t163.5 -28q213 35 284 64q12 -7 12 -26t-30 -82.5t-36 -89.5zM1208 722q-65 0 -141 -126q-111 -183 -117 -378q-1 -56 14.5 -98t49.5 -42q60 0 120 92t95 214.5t35 230t-56 107.5z" />
    <glyph glyph-name="f_f_b" unicode="ffb" horiz-adv-x="2138" 
d="M1588 672q47 73 146 149.5t175 76.5t124.5 -58t48.5 -179.5t-57.5 -251.5t-143 -220t-185.5 -145.5t-191.5 -55.5t-159 62.5t-67.5 163.5q0 54 12 110l156 796l6 24q-25 62 -76.5 98t-107.5 36q-78 2 -141 -108.5t-105 -321.5h200q10 0 10 -28.5t-22 -63.5h-206
q-62 -388 -110 -640q-23 -118 -74.5 -223.5t-114.5 -176t-132 -111.5t-123 -41q-105 0 -154 36q-18 29 -18 67t21.5 67.5t62.5 29.5q44 0 82 -56q5 -8 6.5 -10t6.5 -9t7.5 -9t7.5 -7t9 -7t9 -5q8 -5 22 -5q45 0 67 63.5t47.5 200.5t35.5 188l112 648h-330
q-62 -388 -110 -640q-23 -118 -74.5 -223.5t-114.5 -176t-132 -111.5t-123 -41q-105 0 -154 36q-18 29 -18 67t21.5 67.5t62.5 29.5q44 0 82 -56q5 -8 6.5 -10t6.5 -9t7.5 -9t7.5 -7t9 -7t9 -5q8 -5 22 -5q45 0 67 63.5t47.5 200.5t35.5 188l112 648h-130q-4 0 -4 12
t32.5 46t63.5 34h54q31 159 114 278.5t191.5 179.5t210.5 60t175 -35.5t95 -80.5q140 116 306 116q79 0 144 -28q213 35 284 64q12 -7 12 -26t-30 -82.5t-36 -89.5zM1768 722q-65 0 -141 -126q-111 -183 -117 -378q-1 -56 14.5 -98t49.5 -42q60 0 120 92t95 214.5t35 230
t-56 107.5zM902 1122q-75 153 -194 156q-78 2 -141 -108.5t-105 -321.5h328q29 152 112 274z" />
    <glyph glyph-name="f_k" unicode="fk" horiz-adv-x="1648" 
d="M1300 684q0 64 -62 64q-35 0 -81.5 -32.5t-79.5 -75.5q-77 -100 -77 -144q64 0 132.5 24t118 68.5t49.5 95.5zM1394 898q164 0 164 -144q0 -131 -226 -245q-58 -29 -118 -49q31 -88 71 -160q76 -136 137 -136q22 0 54 25q46 37 82 87q13 0 20.5 -19.5t7.5 -32.5
q-20 -53 -121 -142.5t-181 -89.5q-44 0 -86.5 31.5t-73.5 76.5t-60 106q-47 97 -80 210l-82 -416q-40 -12 -111 -12t-119 12q197 1017 214 1120l6 24q-25 62 -76.5 98t-107.5 36q-78 2 -141 -108.5t-105 -321.5h200q10 0 10 -28.5t-22 -63.5h-206q-62 -388 -110 -640
q-23 -118 -74.5 -223.5t-114.5 -176t-132 -111.5t-123 -41q-105 0 -154 36q-18 29 -18 67t21.5 67.5t62.5 29.5q44 0 82 -56q5 -8 6.5 -10t6.5 -9t7.5 -9t7.5 -7t9 -7t9 -5q8 -5 22 -5q45 0 67 63.5t47.5 200.5t35.5 188l112 648h-130q-4 0 -4 12t32.5 46t63.5 34h54
q31 159 114 278.5t191.5 179.5t207 60t163.5 -28q186 29 284 64q12 -7 12 -26.5t-31.5 -88.5t-34.5 -83l-98 -522q22 49 123 128q47 36 110.5 62t122.5 26z" />
    <glyph glyph-name="f_f_k" unicode="ffk" horiz-adv-x="2208" 
d="M1860 684q0 64 -62 64q-35 0 -81.5 -32.5t-79.5 -75.5q-77 -100 -77 -144q64 0 132.5 24t118 68.5t49.5 95.5zM1954 898q164 0 164 -144q0 -131 -226 -245q-58 -29 -118 -49q31 -88 71 -160q76 -136 137 -136q22 0 54 25q46 37 82 87q13 0 20.5 -19.5t7.5 -32.5
q-20 -53 -121 -142.5t-181 -89.5q-44 0 -86.5 31.5t-73.5 76.5t-60 106q-47 97 -80 210l-82 -416q-40 -12 -111 -12t-119 12q197 1017 214 1120l6 24q-25 62 -76.5 98t-107.5 36q-78 2 -141 -108.5t-105 -321.5h200q10 0 10 -28.5t-22 -63.5h-206q-62 -388 -110 -640
q-23 -118 -74.5 -223.5t-114.5 -176t-132 -111.5t-123 -41q-105 0 -154 36q-18 29 -18 67t21.5 67.5t62.5 29.5q44 0 82 -56q5 -8 6.5 -10t6.5 -9t7.5 -9t7.5 -7t9 -7t9 -5q8 -5 22 -5q45 0 67 63.5t47.5 200.5t35.5 188l112 648h-330q-62 -388 -110 -640
q-23 -118 -74.5 -223.5t-114.5 -176t-132 -111.5t-123 -41q-105 0 -154 36q-18 29 -18 67t21.5 67.5t62.5 29.5q44 0 82 -56q5 -8 6.5 -10t6.5 -9t7.5 -9t7.5 -7t9 -7t9 -5q8 -5 22 -5q45 0 67 63.5t47.5 200.5t35.5 188l112 648h-130q-4 0 -4 12t32.5 46t63.5 34h54
q31 159 114 278.5t191.5 179.5t210.5 60t175 -35.5t95 -80.5q140 116 306 116q79 0 144 -28q186 29 284 64q12 -7 12 -26.5t-31.5 -88.5t-34.5 -83l-98 -522q22 49 123 128q47 36 110.5 62t122.5 26zM902 1122q-75 153 -194 156q-78 2 -141 -108.5t-105 -321.5h328
q29 152 112 274z" />
    <glyph glyph-name="f_h" unicode="fh" horiz-adv-x="1650" 
d="M1244 636q0 42 -30.5 42t-83.5 -69.5t-107.5 -188t-80.5 -238.5l-40 -182q-40 -12 -111 -12t-119 12q197 1017 214 1120l6 24q-25 62 -76.5 98t-107.5 36q-78 2 -141 -108.5t-105 -321.5h200q10 0 10 -28.5t-22 -63.5h-206q-62 -388 -110 -640q-23 -118 -74.5 -223.5
t-114.5 -176t-132 -111.5t-123 -41q-105 0 -154 36q-18 29 -18 67t21.5 67.5t62.5 29.5q44 0 82 -56q5 -8 6.5 -10t6.5 -9t7.5 -9t7.5 -7t9 -7t9 -5q8 -5 22 -5q45 0 67 63.5t47.5 200.5t35.5 188l112 648h-130q-4 0 -4 12t32.5 46t63.5 34h54q31 159 114 278.5t191.5 179.5
t207 60t163.5 -28q208 35 284 64q12 -7 12 -26.5t-31.5 -88.5t-34.5 -83q-110 -558 -114 -576l-16 -80q31 69 91 150t130 140.5t117 59.5q81 0 112.5 -42t31.5 -112t-40 -278l-38 -202q-8 -32 -8 -70t28 -38t80.5 52t61.5 70q9 0 18.5 -21t9.5 -33q-19 -35 -72 -90
t-124.5 -102.5t-123.5 -47.5t-88 35t-36 95t18 132l46 238q5 20 14.5 79t9.5 73z" />
    <glyph glyph-name="f_f_h" unicode="ffh" horiz-adv-x="2210" 
d="M1804 636q0 42 -30.5 42t-83.5 -69.5t-107.5 -188t-80.5 -238.5l-40 -182q-40 -12 -111 -12t-119 12q197 1017 214 1120l6 24q-25 62 -76.5 98t-107.5 36q-78 2 -141 -108.5t-105 -321.5h200q10 0 10 -28.5t-22 -63.5h-206q-62 -388 -110 -640q-23 -118 -74.5 -223.5
t-114.5 -176t-132 -111.5t-123 -41q-105 0 -154 36q-18 29 -18 67t21.5 67.5t62.5 29.5q44 0 82 -56q5 -8 6.5 -10t6.5 -9t7.5 -9t7.5 -7t9 -7t9 -5q8 -5 22 -5q45 0 67 63.5t47.5 200.5t35.5 188l112 648h-330q-62 -388 -110 -640q-23 -118 -74.5 -223.5t-114.5 -176
t-132 -111.5t-123 -41q-105 0 -154 36q-18 29 -18 67t21.5 67.5t62.5 29.5q44 0 82 -56q5 -8 6.5 -10t6.5 -9t7.5 -9t7.5 -7t9 -7t9 -5q8 -5 22 -5q45 0 67 63.5t47.5 200.5t35.5 188l112 648h-130q-4 0 -4 12t32.5 46t63.5 34h54q31 159 114 278.5t191.5 179.5t210.5 60
t175 -35.5t95 -80.5q140 116 306 116q79 0 144 -28q208 35 284 64q12 -7 12 -26.5t-31.5 -88.5t-34.5 -83q-110 -558 -114 -576l-16 -80q31 69 91 150t130 140.5t117 59.5q81 0 112.5 -42t31.5 -112t-40 -278l-38 -202q-8 -32 -8 -70t28 -38t80.5 52t61.5 70q9 0 18.5 -21
t9.5 -33q-19 -35 -72 -90t-124.5 -102.5t-123.5 -47.5t-88 35t-36 95t18 132l46 238q5 20 14.5 79t9.5 73zM902 1122q-75 153 -194 156q-78 2 -141 -108.5t-105 -321.5h328q29 152 112 274z" />
    <glyph glyph-name="f_j" unicode="fj" horiz-adv-x="1088" 
d="M668 200l68 358q0 3 4.5 26t5 34t1.5 32.5t-4 33.5t-14 26q-18 26 -69 24l-222 -10q-56 -356 -104 -608q-23 -118 -74.5 -223.5t-114.5 -176t-132 -111.5t-123 -41q-105 0 -154 36q-18 29 -18 67t21.5 67.5t62.5 29.5q44 0 82 -56q5 -8 6.5 -10t6.5 -9t7.5 -9t7.5 -7
t9 -7t9 -5q8 -5 22 -5q45 0 67 63.5t47.5 200.5t35.5 188l106 616h-130q-4 0 -4 12t32.5 46t63.5 34h54q40 245 189.5 396.5t348.5 153.5q58 0 116 -17q84 -24 132 -59q18 -29 18 -66q0 -102 -58 -118q-36 -11 -74.5 5.5t-55 39.5t-29 51t-19.5 42q-18 34 -92.5 34
t-140 -121.5t-103.5 -340.5q94 2 247.5 11t252.5 9q8 0 30.5 -21t21.5 -33q-35 -219 -100 -542q-41 -214 -174 -390q-59 -78 -192.5 -175t-183.5 -111q-7 0 -12.5 14.5t-5.5 29.5q153 118 218 239.5t110 352.5z" />
    <glyph glyph-name="f_f_j" unicode="ffj" horiz-adv-x="1648" 
d="M1228 200l68 358q0 3 4.5 26t5 34t1.5 32.5t-4 33.5t-14 26q-18 26 -69 24l-222 -10q-56 -356 -104 -608q-23 -118 -74.5 -223.5t-114.5 -176t-132 -111.5t-123 -41q-105 0 -154 36q-18 29 -18 67t21.5 67.5t62.5 29.5q44 0 82 -56q5 -8 6.5 -10t6.5 -9t7.5 -9t7.5 -7
t9 -7t9 -5q8 -5 22 -5q45 0 67 63.5t47.5 200.5t35.5 188l106 616h-330q-56 -356 -104 -608q-23 -118 -74.5 -223.5t-114.5 -176t-132 -111.5t-123 -41q-105 0 -154 36q-18 29 -18 67t21.5 67.5t62.5 29.5q44 0 82 -56q5 -8 6.5 -10t6.5 -9t7.5 -9t7.5 -7t9 -7t9 -5
q8 -5 22 -5q45 0 67 63.5t47.5 200.5t35.5 188l106 616h-130q-4 0 -4 12t32.5 46t63.5 34h54q46 267 206 413q151 137 332 137q86 0 157 -34.5t95 -79.5q139 114 308 114q58 0 116 -17q84 -24 132 -59q18 -29 18 -66q0 -102 -58 -118q-36 -11 -74.5 5.5t-55 39.5t-29 51
t-19.5 42q-18 34 -92.5 34t-140 -121.5t-103.5 -340.5q94 2 247.5 11t252.5 9q8 0 30.5 -21t21.5 -33q-35 -219 -100 -542q-41 -214 -174 -390q-59 -78 -192.5 -175t-183.5 -111q-7 0 -12.5 14.5t-5.5 29.5q153 118 218 239.5t110 352.5zM784 816q30 180 116 308
q-74 151 -192 154q-79 2 -144.5 -117t-107.5 -345h328z" />
    <glyph glyph-name="T_h" unicode="Th" horiz-adv-x="2050" 
d="M1644 636q0 42 -30.5 42t-83.5 -69.5t-107.5 -188t-80.5 -238.5l-40 -182q-40 -12 -111 -12t-119 12l206 1066q16 79 -16 119.5t-92 40.5h-310l-182 -936q-2 -10 -6.5 -34.5t-6.5 -34t-5 -28.5t-4 -28t-2 -23q-2 -25 2 -40q4 -27 112 -36q4 -10 -1 -37.5t-13 -36.5
q-122 14 -260 14t-268 -14q-5 9 0 36.5t14 37.5q112 9 126 36q26 47 52 188l182 936h-174q-69 0 -141.5 -76t-106.5 -176q-5 -10 -18.5 -10t-31 5t-20.5 9l120 368q12 6 23.5 6t30.5 -10q59 -28 156 -28h290q486 0 684 38q99 19 178 50q12 -7 12 -26.5t-31.5 -88.5
t-34.5 -83q-110 -558 -114 -576l-16 -80q31 69 91 150t130 140.5t117 59.5q81 0 112.5 -42t31.5 -112t-40 -278l-38 -202q-8 -32 -8 -70t28 -38t80.5 52t61.5 70q9 0 18.5 -21t9.5 -33q-19 -35 -72 -90t-124.5 -102.5t-123.5 -47.5t-88 35t-36 95t18 132l46 238
q5 20 14.5 79t9.5 73z" />
    <glyph glyph-name="uniFB50" unicode="&#x671;" horiz-adv-x="446" arabic-form="isolated" 
d="M3 1832q-20 -24 -31 -48q91 -15 176 30q6 72 -52 75q-45 0 -93 -57zM-79 1810q55 96 100.5 140.5t103.5 46.5q92 -1 119 -79q24 -76 -16 -140q-103 -163 -260 -153q-73 6 -146 50q-17 7 -28 -4l-15 -15q-26 -22 -43 -13q-25 17 -15 48q70 178 161 135q19 -9 39 -16z
M28 1418q31 91 59 -41l110 -500q144 -675 75 -847q-15 -38 -35 -31t-29 99q-16 158 -159 712l-86 341q-12 44 2 84z" />
    <glyph glyph-name="uniFB51" unicode="&#x671;" horiz-adv-x="570" arabic-form="final" 
d="M63 1832q-20 -24 -31 -48q91 -15 176 30q6 72 -52 75q-45 0 -93 -57zM-19 1810q55 96 100.5 140.5t103.5 46.5q92 -1 119 -79q24 -76 -16 -140q-103 -163 -260 -153q-73 6 -146 50q-17 7 -28 -4l-15 -15q-26 -22 -43 -13q-25 17 -15 48q70 178 161 135q19 -9 39 -16z
M80 1485q31 68 51 -14q90 -380 136.5 -697t59.5 -386q30 -160 215 -172q63 -4 80 -62q7 -23 4.5 -76t-12.5 -80t-40 -28q-290 0 -342 277q-24 127 -69 432q-42 276 -143 592q-16 51 0 85z" />
    <glyph glyph-name="uniFB52" unicode="&#x67b;" horiz-adv-x="1897" arabic-form="isolated" 
d="M988 -272q10 17 34 10q87 -30 160 -88q19 -17 11 -37l-46 -91q52 -26 99 -62q19 -17 10 -37l-79 -155q-13 -21 -36 -4.5t-160 92.5q-22 13 -11 34l53 97q-39 23 -105 59q-22 13 -11 34zM169 151q-116 125 -72 319q19 78 87 167q25 32 48 11q23 -20 -1 -49
q-63 -78 -44 -146q68 -236 644 -236q488 -1 786 179q-26 75 -108 139q-21 17 -15 48l39 181q12 56 65 -12q123 -161 113 -397q-5 -116 -68 -159q-309 -212 -788 -238q-482 -26 -686 193z" />
    <glyph glyph-name="uniFB53" unicode="&#x67b;" horiz-adv-x="1810" arabic-form="final" 
d="M894 -322q10 17 34 10q87 -30 160 -88q19 -17 11 -37l-46 -91q52 -26 99 -62q19 -17 10 -37l-79 -155q-13 -21 -36 -4.5t-160 92.5q-22 13 -11 34l53 97q-39 23 -105 59q-22 13 -11 34zM166 516q25 40 53 16q23 -21 4 -54q-54 -93 -31 -155q98 -263 638 -247
q383 11 679 138q51 22 55 86q2 39 36 40q33 0 41 -53q10 -65 145 -72q58 -3 77 -56q8 -20 9 -81q2 -108 -58 -108q-92 0 -188 111q-343 -273 -846 -273q-521 -1 -647 264q-65 137 -32 268q32 118 65 176z" />
    <glyph glyph-name="uniFB54" unicode="&#x67b;" horiz-adv-x="390" arabic-form="initial" 
d="M151 -222q10 17 34 10q87 -30 160 -88q19 -17 11 -37l-46 -91q52 -26 99 -62q19 -17 10 -37l-79 -155q-13 -21 -36 -4.5t-160 92.5q-22 13 -11 34l53 97q-39 23 -105 59q-22 13 -11 34zM51 436l43 127q23 68 51 27q121 -173 95 -396.5t-236 -223.5q-42 0 -68 68.5
t-30.5 111t36.5 59.5q15 6 32 6q119 -3 167 47q-17 51 -60 92t-30 82z" />
    <glyph glyph-name="uniFB55" unicode="&#x67b;" horiz-adv-x="500" arabic-form="medial" 
d="M241 -222q10 17 34 10q87 -30 160 -88q19 -17 11 -37l-46 -91q52 -26 99 -62q19 -17 10 -37l-79 -155q-13 -21 -36 -4.5t-160 92.5q-22 13 -11 34l53 97q-39 23 -105 59q-22 13 -11 34zM336 296q70 -77 138 -82q56 -5 71 -42q9 -26 9 -86t-10 -87.5t-40 -28.5
q-119 0 -238 130q-110 -130 -262 -130q-44 1 -62 55l-28 83q-11 34 6.5 69t53.5 38q240 18 284 120q13 31 35 31q30 0 35.5 -33.5t7.5 -36.5z" />
    <glyph glyph-name="uniFB56" unicode="&#x67e;" horiz-adv-x="1897" arabic-form="isolated" 
d="M1197 -712q-10 -16 -34 -10q-88 30 -161 88q-19 16 -10 36l79 156q13 21 36 4.5t159 -92.5q23 -14 12 -34zM1026 -486q-10 -16 -34 -10q-88 30 -161 88q-19 16 -10 36l79 156q12 22 33.5 6t102.5 -62l51 102q14 21 37 4.5t159 -92.5q23 -14 11 -34l-81 -148
q-20 -34 -140 40zM169 151q-116 125 -72 319q19 78 87 167q25 32 48 11q23 -20 -1 -49q-63 -78 -44 -146q68 -236 644 -236q488 -1 786 179q-26 75 -108 139q-21 17 -15 48l39 181q12 56 65 -12q123 -161 113 -397q-5 -116 -68 -159q-309 -212 -788 -238q-482 -26 -686 193z
" />
    <glyph glyph-name="uniFB57" unicode="&#x67e;" horiz-adv-x="1810" arabic-form="final" 
d="M1093 -772q-10 -16 -34 -10q-88 30 -161 88q-19 16 -10 36l79 156q13 21 36 4.5t159 -92.5q23 -14 12 -34zM922 -546q-10 -16 -34 -10q-88 30 -161 88q-19 16 -10 36l79 156q12 22 33.5 6t102.5 -62l51 102q14 21 37 4.5t159 -92.5q23 -14 11 -34l-81 -148
q-20 -34 -140 40zM166 516q25 40 53 16q23 -21 4 -54q-54 -93 -31 -155q98 -263 638 -247q383 11 679 138q51 22 55 86q2 39 36 40q33 0 41 -53q10 -65 145 -72q58 -3 77 -56q8 -20 9 -81q2 -108 -58 -108q-92 0 -188 111q-343 -273 -846 -273q-521 -1 -647 264
q-65 137 -32 268q32 118 65 176z" />
    <glyph glyph-name="uniFB58" unicode="&#x67e;" horiz-adv-x="390" arabic-form="initial" 
d="M423 -762q-10 -16 -34 -10q-88 30 -161 88q-19 16 -10 36l79 156q13 21 36 4.5t159 -92.5q23 -14 12 -34zM252 -536q-10 -16 -34 -10q-88 30 -161 88q-19 16 -10 36l79 156q12 22 33.5 6t102.5 -62l51 102q14 21 37 4.5t159 -92.5q23 -14 11 -34l-81 -148
q-20 -34 -140 40zM51 436l43 127q23 68 51 27q121 -173 95 -396.5t-236 -223.5q-42 0 -68 68.5t-30.5 111t36.5 59.5q15 6 32 6q119 -3 167 47q-17 51 -60 92t-30 82z" />
    <glyph glyph-name="uniFB59" unicode="&#x67e;" horiz-adv-x="500" arabic-form="medial" 
d="M451 -662q-10 -16 -34 -10q-88 30 -161 88q-19 16 -10 36l79 156q13 21 36 4.5t159 -92.5q23 -14 12 -34zM280 -436q-10 -16 -34 -10q-88 30 -161 88q-19 16 -10 36l79 156q12 22 33.5 6t102.5 -62l51 102q14 21 37 4.5t159 -92.5q23 -14 11 -34l-81 -148
q-20 -34 -140 40zM336 296q70 -77 138 -82q56 -5 71 -42q9 -26 9 -86t-10 -87.5t-40 -28.5q-119 0 -238 130q-110 -130 -262 -130q-44 1 -62 55l-28 83q-11 34 6.5 69t53.5 38q240 18 284 120q13 31 35 31q30 0 35.5 -33.5t7.5 -36.5z" />
    <glyph glyph-name="uniFB5A" unicode="&#x680;" horiz-adv-x="1897" arabic-form="isolated" 
d="M1082 -126q10 17 34 10q87 -30 161 -88q19 -17 10 -37l-68 -132q63 -28 117 -71q19 -17 11 -37l-79 -155q-14 -21 -35.5 -5.5t-116.5 69.5l-56 -110q-13 -21 -36 -4.5t-160 92.5q-22 13 -11 34l75 136q-41 24 -123 70q-23 13 -11 34l81 148q10 17 33 10q65 -22 122 -59z
M1012 -419q40 -18 77 -42l46 84q-29 18 -79 45zM169 151q-116 125 -72 319q19 78 87 167q25 32 48 11q23 -20 -1 -49q-63 -78 -44 -146q68 -236 644 -236q488 -1 786 179q-26 75 -108 139q-21 17 -15 48l39 181q12 56 65 -12q123 -161 113 -397q-5 -116 -68 -159
q-309 -212 -788 -238q-482 -26 -686 193z" />
    <glyph glyph-name="uniFB5B" unicode="&#x680;" horiz-adv-x="1810" arabic-form="final" 
d="M979 -186q10 17 34 10q87 -30 161 -88q19 -17 10 -37l-68 -132q63 -28 117 -71q19 -17 11 -37l-79 -155q-14 -21 -35.5 -5.5t-116.5 69.5l-56 -110q-13 -21 -36 -4.5t-160 92.5q-22 13 -11 34l75 136q-41 24 -123 70q-23 13 -11 34l81 148q10 17 33 10q65 -22 122 -59z
M909 -479q40 -18 77 -42l46 84q-29 18 -79 45zM166 516q25 40 53 16q23 -21 4 -54q-54 -93 -31 -155q98 -263 638 -247q383 11 679 138q51 22 55 86q2 39 36 40q33 0 41 -53q10 -65 145 -72q58 -3 77 -56q8 -20 9 -81q2 -108 -58 -108q-92 0 -188 111q-343 -273 -846 -273
q-521 -1 -647 264q-65 137 -32 268q32 118 65 176z" />
    <glyph glyph-name="uniFB5C" unicode="&#x680;" horiz-adv-x="390" arabic-form="initial" 
d="M309 -176q10 17 34 10q87 -30 161 -88q19 -17 10 -37l-68 -132q63 -28 117 -71q19 -17 11 -37l-79 -155q-14 -21 -35.5 -5.5t-116.5 69.5l-56 -110q-13 -21 -36 -4.5t-160 92.5q-22 13 -11 34l75 136q-41 24 -123 70q-23 13 -11 34l81 148q10 17 33 10q65 -22 122 -59z
M239 -469q40 -18 77 -42l46 84q-29 18 -79 45zM51 436l43 127q23 68 51 27q121 -173 95 -396.5t-236 -223.5q-42 0 -68 68.5t-30.5 111t36.5 59.5q15 6 32 6q119 -3 167 47q-17 51 -60 92t-30 82z" />
    <glyph glyph-name="uniFB5D" unicode="&#x680;" horiz-adv-x="500" arabic-form="medial" 
d="M336 -76q10 17 34 10q87 -30 161 -88q19 -17 10 -37l-68 -132q63 -28 117 -71q19 -17 11 -37l-79 -155q-14 -21 -35.5 -5.5t-116.5 69.5l-56 -110q-13 -21 -36 -4.5t-160 92.5q-22 13 -11 34l75 136q-41 24 -123 70q-23 13 -11 34l81 148q10 17 33 10q65 -22 122 -59z
M266 -369q40 -18 77 -42l46 84q-29 18 -79 45zM336 296q70 -77 138 -82q56 -5 71 -42q9 -26 9 -86t-10 -87.5t-40 -28.5q-119 0 -238 130q-110 -130 -262 -130q-44 1 -62 55l-28 83q-11 34 6.5 69t53.5 38q240 18 284 120q13 31 35 31q30 0 35.5 -33.5t7.5 -36.5z" />
    <glyph glyph-name="uniFB5E" unicode="&#x67a;" horiz-adv-x="1897" arabic-form="isolated" 
d="M713 1188q10 17 34 10q87 -30 160 -88q19 -17 11 -37l-46 -91q52 -26 99 -62q19 -17 10 -37l-79 -155q-13 -21 -36 -4.5t-160 92.5q-22 13 -11 34l53 97q-39 23 -105 59q-22 13 -11 34zM169 151q-116 125 -72 319q19 78 87 167q25 32 48 11q23 -20 -1 -49
q-63 -78 -44 -146q68 -236 644 -236q488 -1 786 179q-26 75 -108 139q-21 17 -15 48l39 181q12 56 65 -12q123 -161 113 -397q-5 -116 -68 -159q-309 -212 -788 -238q-482 -26 -686 193z" />
    <glyph glyph-name="uniFB5F" unicode="&#x67a;" horiz-adv-x="1810" arabic-form="final" 
d="M713 1188q10 17 34 10q87 -30 160 -88q19 -17 11 -37l-46 -91q52 -26 99 -62q19 -17 10 -37l-79 -155q-13 -21 -36 -4.5t-160 92.5q-22 13 -11 34l53 97q-39 23 -105 59q-22 13 -11 34zM166 516q25 40 53 16q23 -21 4 -54q-54 -93 -31 -155q98 -263 638 -247
q383 11 679 138q51 22 55 86q2 39 36 40q33 0 41 -53q10 -65 145 -72q58 -3 77 -56q8 -20 9 -81q2 -108 -58 -108q-92 0 -188 111q-343 -273 -846 -273q-521 -1 -647 264q-65 137 -32 268q32 118 65 176z" />
    <glyph glyph-name="uniFB60" unicode="&#x67a;" horiz-adv-x="390" arabic-form="initial" 
d="M-60 1218q10 17 34 10q87 -30 160 -88q19 -17 11 -37l-46 -91q52 -26 99 -62q19 -17 10 -37l-79 -155q-13 -21 -36 -4.5t-160 92.5q-22 13 -11 34l53 97q-39 23 -105 59q-22 13 -11 34zM51 436l43 127q23 68 51 27q121 -173 95 -396.5t-236 -223.5q-42 0 -68 68.5
t-30.5 111t36.5 59.5q15 6 32 6q119 -3 167 47q-17 51 -60 92t-30 82z" />
    <glyph glyph-name="uniFB61" unicode="&#x67a;" horiz-adv-x="500" arabic-form="medial" 
d="M18 1188q10 17 34 10q87 -30 160 -88q19 -17 11 -37l-46 -91q52 -26 99 -62q19 -17 10 -37l-79 -155q-13 -21 -36 -4.5t-160 92.5q-22 13 -11 34l53 97q-39 23 -105 59q-22 13 -11 34zM336 296q70 -77 138 -82q56 -5 71 -42q9 -26 9 -86t-10 -87.5t-40 -28.5
q-119 0 -238 130q-110 -130 -262 -130q-44 1 -62 55l-28 83q-11 34 6.5 69t53.5 38q240 18 284 120q13 31 35 31q30 0 35.5 -33.5t7.5 -36.5z" />
    <glyph glyph-name="uniFB62" unicode="&#x67f;" horiz-adv-x="1897" arabic-form="isolated" 
d="M813 1284q10 17 34 10q87 -30 161 -88q19 -17 10 -37l-68 -132q63 -28 117 -71q19 -17 11 -37l-79 -155q-14 -21 -35.5 -5.5t-116.5 69.5l-56 -110q-13 -21 -36 -4.5t-160 92.5q-22 13 -11 34l75 136q-41 24 -123 70q-23 13 -11 34l81 148q10 17 33 10q65 -22 122 -59z
M743 991q40 -18 77 -42l46 84q-29 18 -79 45zM169 151q-116 125 -72 319q19 78 87 167q25 32 48 11q23 -20 -1 -49q-63 -78 -44 -146q68 -236 644 -236q488 -1 786 179q-26 75 -108 139q-21 17 -15 48l39 181q12 56 65 -12q123 -161 113 -397q-5 -116 -68 -159
q-309 -212 -788 -238q-482 -26 -686 193z" />
    <glyph glyph-name="uniFB63" unicode="&#x67f;" horiz-adv-x="1810" arabic-form="final" 
d="M813 1284q10 17 34 10q87 -30 161 -88q19 -17 10 -37l-68 -132q63 -28 117 -71q19 -17 11 -37l-79 -155q-14 -21 -35.5 -5.5t-116.5 69.5l-56 -110q-13 -21 -36 -4.5t-160 92.5q-22 13 -11 34l75 136q-41 24 -123 70q-23 13 -11 34l81 148q10 17 33 10q65 -22 122 -59z
M743 991q40 -18 77 -42l46 84q-29 18 -79 45zM166 516q25 40 53 16q23 -21 4 -54q-54 -93 -31 -155q98 -263 638 -247q383 11 679 138q51 22 55 86q2 39 36 40q33 0 41 -53q10 -65 145 -72q58 -3 77 -56q8 -20 9 -81q2 -108 -58 -108q-92 0 -188 111q-343 -273 -846 -273
q-521 -1 -647 264q-65 137 -32 268q32 118 65 176z" />
    <glyph glyph-name="uniFB64" unicode="&#x67f;" horiz-adv-x="390" arabic-form="initial" 
d="M48 1214q10 17 34 10q87 -30 161 -88q19 -17 10 -37l-68 -132q63 -28 117 -71q19 -17 11 -37l-79 -155q-14 -21 -35.5 -5.5t-116.5 69.5l-56 -110q-13 -21 -36 -4.5t-160 92.5q-22 13 -11 34l75 136q-41 24 -123 70q-23 13 -11 34l81 148q10 17 33 10q65 -22 122 -59z
M-22 921q40 -18 77 -42l46 84q-29 18 -79 45zM51 436l43 127q23 68 51 27q121 -173 95 -396.5t-236 -223.5q-42 0 -68 68.5t-30.5 111t36.5 59.5q15 6 32 6q119 -3 167 47q-17 51 -60 92t-30 82z" />
    <glyph glyph-name="uniFB65" unicode="&#x67f;" horiz-adv-x="500" arabic-form="medial" 
d="M115 1154q10 17 34 10q87 -30 161 -88q19 -17 10 -37l-68 -132q63 -28 117 -71q19 -17 11 -37l-79 -155q-14 -21 -35.5 -5.5t-116.5 69.5l-56 -110q-13 -21 -36 -4.5t-160 92.5q-22 13 -11 34l75 136q-41 24 -123 70q-23 13 -11 34l81 148q10 17 33 10q65 -22 122 -59z
M45 861q40 -18 77 -42l46 84q-29 18 -79 45zM336 296q70 -77 138 -82q56 -5 71 -42q9 -26 9 -86t-10 -87.5t-40 -28.5q-119 0 -238 130q-110 -130 -262 -130q-44 1 -62 55l-28 83q-11 34 6.5 69t53.5 38q240 18 284 120q13 31 35 31q30 0 35.5 -33.5t7.5 -36.5z" />
    <glyph glyph-name="uniFB66" unicode="&#x679;" horiz-adv-x="1897" arabic-form="isolated" 
d="M712 1300q32 16 46 -36q64 -247 72 -373q43 48 95 90q53 42 107.5 22t87 -82t-35.5 -164q-16 -24 -129.5 -60t-236.5 -42h-4q-58 10 -107 49t-51 63q2 17 23 16q73 -7 146 -2l41 46q-12 144 -82 391q-3 11 6 42.5t22 39.5zM939 882q-29 -12 -102 -87q100 21 192 67
q-35 41 -90 20zM169 151q-116 125 -72 319q19 78 87 167q25 32 48 11q23 -20 -1 -49q-63 -78 -44 -146q68 -236 644 -236q488 -1 786 179q-26 75 -108 139q-21 17 -15 48l39 181q12 56 65 -12q123 -161 113 -397q-5 -116 -68 -159q-309 -212 -788 -238q-482 -26 -686 193z
" />
    <glyph glyph-name="uniFB67" unicode="&#x679;" horiz-adv-x="1810" arabic-form="final" 
d="M712 1300q32 16 46 -36q64 -247 72 -373q43 48 95 90q53 42 107.5 22t87 -82t-35.5 -164q-16 -24 -129.5 -60t-236.5 -42h-4q-58 10 -107 49t-51 63q2 17 23 16q73 -7 146 -2l41 46q-12 144 -82 391q-3 11 6 42.5t22 39.5zM939 882q-29 -12 -102 -87q100 21 192 67
q-35 41 -90 20zM166 516q25 40 53 16q23 -21 4 -54q-54 -93 -31 -155q98 -263 638 -247q383 11 679 138q51 22 55 86q2 39 36 40q33 0 41 -53q10 -65 145 -72q58 -3 77 -56q8 -20 9 -81q2 -108 -58 -108q-92 0 -188 111q-343 -273 -846 -273q-521 -1 -647 264
q-65 137 -32 268q32 118 65 176z" />
    <glyph glyph-name="uniFB68" unicode="&#x679;" horiz-adv-x="390" arabic-form="initial" 
d="M-62 1330q32 16 46 -36q64 -247 72 -373q43 48 95 90q53 42 107.5 22t87 -82t-35.5 -164q-16 -24 -129.5 -60t-236.5 -42h-4q-58 10 -107 49t-51 63q2 17 23 16q73 -7 146 -2l41 46q-12 144 -82 391q-3 11 6 42.5t22 39.5zM165 912q-29 -12 -102 -87q100 21 192 67
q-35 41 -90 20zM51 436l43 127q23 68 51 27q121 -173 95 -396.5t-236 -223.5q-42 0 -68 68.5t-30.5 111t36.5 59.5q15 6 32 6q119 -3 167 47q-17 51 -60 92t-30 82z" />
    <glyph glyph-name="uniFB69" unicode="&#x679;" horiz-adv-x="500" arabic-form="medial" 
d="M17 1300q32 16 46 -36q64 -247 72 -373q43 48 95 90q53 42 107.5 22t87 -82t-35.5 -164q-16 -24 -129.5 -60t-236.5 -42h-4q-58 10 -107 49t-51 63q2 17 23 16q73 -7 146 -2l41 46q-12 144 -82 391q-3 11 6 42.5t22 39.5zM244 882q-29 -12 -102 -87q100 21 192 67
q-35 41 -90 20zM336 296q70 -77 138 -82q56 -5 71 -42q9 -26 9 -86t-10 -87.5t-40 -28.5q-119 0 -238 130q-110 -130 -262 -130q-44 1 -62 55l-28 83q-11 34 6.5 69t53.5 38q240 18 284 120q13 31 35 31q30 0 35.5 -33.5t7.5 -36.5z" />
    <glyph glyph-name="uniFB6A" unicode="&#x6a4;" horiz-adv-x="2015" arabic-form="isolated" 
d="M987 1753q10 17 34 10q88 -30 161 -88q19 -17 10 -37l-79 -155q-13 -21 -36 -4.5t-159 92.5q-23 13 -11 33zM1160 1524q10 17 34 10q88 -30 161 -88q19 -17 11 -37l-79 -155q-13 -22 -34.5 -6.5t-101.5 61.5l-52 -102q-13 -21 -36 -4.5t-159 92.5q-23 13 -12 34l81 148
q20 34 140 -39zM1537 773q18 19 -7 38q-80 62 -112 -12q-8 -18 5 -29q65 -50 114 3zM1658 983q111 -154 156 -405q16 -91 -3 -156q-42 -138 -219 -244t-431 -165t-472 -60q-516 -3 -595 350q-18 81 -2.5 184t45 148.5t54 30t3.5 -67.5q-80 -190 55 -279q223 -147 663 -93
q389 48 716 235q98 56 98 104q-3 22 -48 69q-28 -90 -136 -114q-183 -34 -216 156q-21 142 81 334q47 91 110 89t141 -116z" />
    <glyph glyph-name="uniFB6B" unicode="&#x6a4;" horiz-adv-x="2060" arabic-form="final" 
d="M1141 1403q10 17 34 10q88 -30 161 -88q19 -17 10 -37l-79 -155q-13 -21 -36 -4.5t-159 92.5q-23 13 -11 33zM1314 1174q10 17 34 10q88 -30 161 -88q19 -17 11 -37l-79 -155q-13 -22 -34.5 -6.5t-101.5 61.5l-52 -102q-13 -21 -36 -4.5t-159 92.5q-23 13 -12 34l81 148
q20 34 140 -39zM1517 615q118 217 241 115.5t107 -363.5q-4 -66 -31 -145q70 -14 200 -7q57 3 80 -54q9 -22 11 -39q15 -146 -61 -152q-184 -14 -362 62q-407 -252 -923 -252q-646 1 -666 360q-8 140 66 299q31 66 67 39q21 -15 4 -59q-52 -127 -22 -171
q132 -200 544.5 -192.5t714.5 116.5q-57 58 -52 181.5t82 261.5zM1659 479q-86 7 -120 -125q41 -81 115 -81.5t113 56.5q-25 143 -108 150z" />
    <glyph glyph-name="uniFB6C" unicode="&#x6a4;" horiz-adv-x="605" arabic-form="initial" 
d="M-57 1553q10 17 34 10q88 -30 161 -88q19 -17 10 -37l-79 -155q-13 -21 -36 -4.5t-159 92.5q-23 13 -11 33zM116 1324q10 17 34 10q88 -30 161 -88q19 -17 11 -37l-79 -155q-13 -22 -34.5 -6.5t-101.5 61.5l-52 -102q-13 -21 -36 -4.5t-159 92.5q-23 13 -12 34l81 148
q20 34 140 -39zM77 656q-47 0 -41 -91q31 -10 79 -5t56 24q-55 72 -94 72zM98 908q62 0 108 -41q183 -165 218 -449q20 -164 -30 -242q-139 -211 -389 -206q-50 1 -74 62q-23 62 -16 120q8 60 57 63q255 18 360 128q-16 69 -26 79q-15 15 -26 -10q-30 -69 -90 -83
q-196 -48 -227 106q-37 178 12 325.5t123 147.5z" />
    <glyph glyph-name="uniFB6D" unicode="&#x6a4;" horiz-adv-x="775" arabic-form="medial" 
d="M117 1603q10 17 34 10q88 -30 161 -88q19 -17 10 -37l-79 -155q-13 -21 -36 -4.5t-159 92.5q-23 13 -11 33zM290 1374q10 17 34 10q88 -30 161 -88q19 -17 11 -37l-79 -155q-13 -22 -34.5 -6.5t-101.5 61.5l-52 -102q-13 -21 -36 -4.5t-159 92.5q-23 13 -12 34l81 148
q20 34 140 -39zM480 806q23 -1 37 -8q65 -38 93 -133q49 -166 0 -310q-17 -52 -42 -103q105 -33 182 -37q45 -2 64.5 -94t4.5 -126q-12 -22 -37 -25q-171 -17 -441 114q-70 -34 -182.5 -73.5t-157.5 -40.5t-67 59.5t-16 119t52 66.5q98 15 182 43q-17 88 7 184
q45 178 203 310q65 54 118 54zM417 530q-109 3 -168 -93q105 -172 263 -42q-16 132 -95 135z" />
    <glyph glyph-name="uniFB6E" unicode="&#x6a6;" horiz-adv-x="2015" arabic-form="isolated" 
d="M1109 1764q10 17 34 10q87 -30 161 -88q19 -17 10 -37l-68 -132q63 -28 117 -71q19 -17 11 -37l-79 -155q-14 -21 -35.5 -5.5t-116.5 69.5l-56 -110q-13 -21 -36 -4.5t-160 92.5q-22 13 -11 34l75 136q-41 24 -123 70q-23 13 -11 34l81 148q10 17 33 10q65 -22 122 -59z
M1039 1471q40 -18 77 -42l46 84q-29 18 -79 45zM1537 773q18 19 -7 38q-80 62 -112 -12q-8 -18 5 -29q65 -50 114 3zM1658 983q111 -154 156 -405q16 -91 -3 -156q-42 -138 -219 -244t-431 -165t-472 -60q-516 -3 -595 350q-18 81 -2.5 184t45 148.5t54 30t3.5 -67.5
q-80 -190 55 -279q223 -147 663 -93q389 48 716 235q98 56 98 104q-3 22 -48 69q-28 -90 -136 -114q-183 -34 -216 156q-21 142 81 334q47 91 110 89t141 -116z" />
    <glyph glyph-name="uniFB6F" unicode="&#x6a6;" horiz-adv-x="2060" arabic-form="final" 
d="M1263 1414q10 17 34 10q87 -30 161 -88q19 -17 10 -37l-68 -132q63 -28 117 -71q19 -17 11 -37l-79 -155q-14 -21 -35.5 -5.5t-116.5 69.5l-56 -110q-13 -21 -36 -4.5t-160 92.5q-22 13 -11 34l75 136q-41 24 -123 70q-23 13 -11 34l81 148q10 17 33 10q65 -22 122 -59z
M1193 1121q40 -18 77 -42l46 84q-29 18 -79 45zM1517 615q118 217 241 115.5t107 -363.5q-4 -66 -31 -145q70 -14 200 -7q57 3 80 -54q9 -22 11 -39q15 -146 -61 -152q-184 -14 -362 62q-407 -252 -923 -252q-646 1 -666 360q-8 140 66 299q31 66 67 39q21 -15 4 -59
q-52 -127 -22 -171q132 -200 544.5 -192.5t714.5 116.5q-57 58 -52 181.5t82 261.5zM1659 479q-86 7 -120 -125q41 -81 115 -81.5t113 56.5q-25 143 -108 150z" />
    <glyph glyph-name="uniFB70" unicode="&#x6a6;" horiz-adv-x="605" arabic-form="initial" 
d="M65 1564q10 17 34 10q87 -30 161 -88q19 -17 10 -37l-68 -132q63 -28 117 -71q19 -17 11 -37l-79 -155q-14 -21 -35.5 -5.5t-116.5 69.5l-56 -110q-13 -21 -36 -4.5t-160 92.5q-22 13 -11 34l75 136q-41 24 -123 70q-23 13 -11 34l81 148q10 17 33 10q65 -22 122 -59z
M-5 1271q40 -18 77 -42l46 84q-29 18 -79 45zM77 656q-47 0 -41 -91q31 -10 79 -5t56 24q-55 72 -94 72zM98 908q62 0 108 -41q183 -165 218 -449q20 -164 -30 -242q-139 -211 -389 -206q-50 1 -74 62q-23 62 -16 120q8 60 57 63q255 18 360 128q-16 69 -26 79
q-15 15 -26 -10q-30 -69 -90 -83q-196 -48 -227 106q-37 178 12 325.5t123 147.5z" />
    <glyph glyph-name="uniFB71" unicode="&#x6a6;" horiz-adv-x="775" arabic-form="medial" 
d="M239 1614q10 17 34 10q87 -30 161 -88q19 -17 10 -37l-68 -132q63 -28 117 -71q19 -17 11 -37l-79 -155q-14 -21 -35.5 -5.5t-116.5 69.5l-56 -110q-13 -21 -36 -4.5t-160 92.5q-22 13 -11 34l75 136q-41 24 -123 70q-23 13 -11 34l81 148q10 17 33 10q65 -22 122 -59z
M169 1321q40 -18 77 -42l46 84q-29 18 -79 45zM480 806q23 -1 37 -8q65 -38 93 -133q49 -166 0 -310q-17 -52 -42 -103q105 -33 182 -37q45 -2 64.5 -94t4.5 -126q-12 -22 -37 -25q-171 -17 -441 114q-70 -34 -182.5 -73.5t-157.5 -40.5t-67 59.5t-16 119t52 66.5
q98 15 182 43q-17 88 7 184q45 178 203 310q65 54 118 54zM417 530q-109 3 -168 -93q105 -172 263 -42q-16 132 -95 135z" />
    <glyph glyph-name="uniFB72" unicode="&#x684;" horiz-adv-x="1355" arabic-form="isolated" 
d="M766 -92q10 17 34 10q87 -30 160 -88q19 -17 11 -37l-46 -91q52 -26 99 -62q19 -17 10 -37l-79 -155q-13 -21 -36 -4.5t-160 92.5q-22 13 -11 34l53 97q-39 23 -105 59q-22 13 -11 34zM537 121q-177 -113 -233 -267.5t-15 -295.5q90 -304 460 -376q311 -60 814 3
q80 10 85 -29q3 -30 -78.5 -58t-153.5 -85.5t-91.5 -67.5t-42.5 -13q-601 -73 -866 120q-212 154 -229 489q-25 527 329 769q-190 28 -300 -31q-49 -26 -55 42q-23 237 236 242q47 1 212 -27q271 -47 541 -1q105 18 86 -47l-41 -142q-12 -39 -41 -42q-385 -35 -617 -183z
" />
    <glyph glyph-name="uniFB73" unicode="&#x684;" horiz-adv-x="1310" arabic-form="final" 
d="M778 -192q10 17 34 10q87 -30 160 -88q19 -17 11 -37l-46 -91q52 -26 99 -62q19 -17 10 -37l-79 -155q-13 -21 -36 -4.5t-160 92.5q-22 13 -11 34l53 97q-39 23 -105 59q-22 13 -11 34zM132 310q-23 249 235 253q75 1 242 -27q271 -47 541 -1q106 18 86 -47l-41 -142
q-10 -33 -42 -37q-123 -11 -207 -36q69 -79 335 -58q63 5 88 -69q18 -57 3.5 -116t-56.5 -60q-275 -1 -368 73t-98 203q-175 -37 -313 -125q-177 -113 -233 -267.5t-15 -295.5q90 -304 460 -376q320 -62 814 3q80 10 85 -29q3 -30 -78.5 -58t-153.5 -85.5t-91.5 -67.5
t-42.5 -13q-601 -73 -866 120q-212 154 -229 489q-25 527 329 769q-195 28 -329 -42q-49 -26 -55 42z" />
    <glyph glyph-name="uniFB74" unicode="&#x684;" horiz-adv-x="1343" arabic-form="initial" 
d="M573 -74q10 17 34 10q87 -30 160 -88q19 -17 11 -37l-46 -91q52 -26 99 -62q19 -17 10 -37l-79 -155q-13 -21 -36 -4.5t-160 92.5q-22 13 -11 34l53 97q-39 23 -105 59q-22 13 -11 34zM-43 455q10 72 75.5 143t137.5 72t350.5 -109.5t599.5 -96.5q60 3 32 -80l-42 -126
q-12 -38 -37 -35q-241 39 -439.5 -25.5t-352.5 -146t-277 -81.5q-33 1 -54 39q-36 73 -28 129t23 65.5t26 11.5q313 19 515 119q-309 131 -482 75q-55 -20 -47 46z" />
    <glyph glyph-name="uniFB75" unicode="&#x684;" horiz-adv-x="1250" arabic-form="medial" 
d="M562 -62q10 17 34 10q87 -30 160 -88q19 -17 11 -37l-46 -91q52 -26 99 -62q19 -17 10 -37l-79 -155q-13 -21 -36 -4.5t-160 92.5q-22 13 -11 34l53 97q-39 23 -105 59q-22 13 -11 34zM-31 454q27 222 241 222q97 0 312 -97q103 -46 274 -72t328 -8q70 9 60 -45l-27 -151
q-7 -36 -53 -32q-83 7 -143 9q-20 -76 264 -69q120 3 88 -174q-12 -61 -55 -67q-167 -21 -272 16q-149 52 -112 288q-164 -15 -302.5 -69t-310.5 -145.5t-257 -89.5q-48 1 -76.5 54.5t-22 116.5t64.5 74q168 31 286 82t192 72q-300 95 -407 37q-36 -20 -57 -12t-15 60z" />
    <glyph glyph-name="uniFB76" unicode="&#x683;" horiz-adv-x="1355" arabic-form="isolated" 
d="M926 -133q10 17 34 10q88 -30 161 -88q19 -17 11 -37l-79 -155q-14 -21 -35.5 -5.5t-116.5 69.5l-56 -110q-13 -21 -36 -4.5t-160 92.5q-22 13 -11 34l81 148q10 17 34 10q65 -22 121 -59zM537 121q-177 -113 -233 -267.5t-15 -295.5q90 -304 460 -376q311 -60 814 3
q80 10 85 -29q3 -30 -78.5 -58t-153.5 -85.5t-91.5 -67.5t-42.5 -13q-601 -73 -866 120q-212 154 -229 489q-25 527 329 769q-190 28 -300 -31q-49 -26 -55 42q-23 237 236 242q47 1 212 -27q271 -47 541 -1q105 18 86 -47l-41 -142q-12 -39 -41 -42q-385 -35 -617 -183z
" />
    <glyph glyph-name="uniFB77" unicode="&#x683;" horiz-adv-x="1310" arabic-form="final" 
d="M883 -193q10 17 34 10q88 -30 161 -88q19 -17 11 -37l-79 -155q-14 -21 -35.5 -5.5t-116.5 69.5l-56 -110q-13 -21 -36 -4.5t-160 92.5q-22 13 -11 34l81 148q10 17 34 10q65 -22 121 -59zM132 310q-23 249 235 253q75 1 242 -27q271 -47 541 -1q106 18 86 -47l-41 -142
q-10 -33 -42 -37q-123 -11 -207 -36q69 -79 335 -58q63 5 88 -69q18 -57 3.5 -116t-56.5 -60q-275 -1 -368 73t-98 203q-175 -37 -313 -125q-177 -113 -233 -267.5t-15 -295.5q90 -304 460 -376q320 -62 814 3q80 10 85 -29q3 -30 -78.5 -58t-153.5 -85.5t-91.5 -67.5
t-42.5 -13q-601 -73 -866 120q-212 154 -229 489q-25 527 329 769q-195 28 -329 -42q-49 -26 -55 42z" />
    <glyph glyph-name="uniFB78" unicode="&#x683;" horiz-adv-x="1343" arabic-form="initial" 
d="M679 -75q10 17 34 10q88 -30 161 -88q19 -17 11 -37l-79 -155q-14 -21 -35.5 -5.5t-116.5 69.5l-56 -110q-13 -21 -36 -4.5t-160 92.5q-22 13 -11 34l81 148q10 17 34 10q65 -22 121 -59zM-43 455q10 72 75.5 143t137.5 72t350.5 -109.5t599.5 -96.5q60 3 32 -80
l-42 -126q-12 -38 -37 -35q-241 39 -439.5 -25.5t-352.5 -146t-277 -81.5q-33 1 -54 39q-36 73 -28 129t23 65.5t26 11.5q313 19 515 119q-309 131 -482 75q-55 -20 -47 46z" />
    <glyph glyph-name="uniFB79" unicode="&#x683;" horiz-adv-x="1250" arabic-form="medial" 
d="M667 -63q10 17 34 10q88 -30 161 -88q19 -17 11 -37l-79 -155q-14 -21 -35.5 -5.5t-116.5 69.5l-56 -110q-13 -21 -36 -4.5t-160 92.5q-22 13 -11 34l81 148q10 17 34 10q65 -22 121 -59zM-31 454q27 222 241 222q97 0 312 -97q103 -46 274 -72t328 -8q70 9 60 -45
l-27 -151q-7 -36 -53 -32q-83 7 -143 9q-20 -76 264 -69q120 3 88 -174q-12 -61 -55 -67q-167 -21 -272 16q-149 52 -112 288q-164 -15 -302.5 -69t-310.5 -145.5t-257 -89.5q-48 1 -76.5 54.5t-22 116.5t64.5 74q168 31 286 82t192 72q-300 95 -407 37q-36 -20 -57 -12
t-15 60z" />
    <glyph glyph-name="uniFB7A" unicode="&#x686;" horiz-adv-x="1355" arabic-form="isolated" 
d="M969 -572q-10 -16 -34 -10q-88 30 -161 88q-19 16 -10 36l79 156q13 21 36 4.5t159 -92.5q23 -14 12 -34zM798 -346q-10 -16 -34 -10q-88 30 -161 88q-19 16 -10 36l79 156q12 22 33.5 6t102.5 -62l51 102q14 21 37 4.5t159 -92.5q23 -14 11 -34l-81 -148
q-20 -34 -140 40zM537 121q-177 -113 -233 -267.5t-15 -295.5q90 -304 460 -376q311 -60 814 3q80 10 85 -29q3 -30 -78.5 -58t-153.5 -85.5t-91.5 -67.5t-42.5 -13q-601 -73 -866 120q-212 154 -229 489q-25 527 329 769q-190 28 -300 -31q-49 -26 -55 42q-23 237 236 242
q47 1 212 -27q271 -47 541 -1q105 18 86 -47l-41 -142q-12 -39 -41 -42q-385 -35 -617 -183z" />
    <glyph glyph-name="uniFB7B" unicode="&#x686;" horiz-adv-x="1310" arabic-form="final" 
d="M982 -682q-10 -16 -34 -10q-88 30 -161 88q-19 16 -10 36l79 156q13 21 36 4.5t159 -92.5q23 -14 12 -34zM811 -456q-10 -16 -34 -10q-88 30 -161 88q-19 16 -10 36l79 156q12 22 33.5 6t102.5 -62l51 102q14 21 37 4.5t159 -92.5q23 -14 11 -34l-81 -148
q-20 -34 -140 40zM132 310q-23 249 235 253q75 1 242 -27q271 -47 541 -1q106 18 86 -47l-41 -142q-10 -33 -42 -37q-123 -11 -207 -36q69 -79 335 -58q63 5 88 -69q18 -57 3.5 -116t-56.5 -60q-275 -1 -368 73t-98 203q-175 -37 -313 -125q-177 -113 -233 -267.5
t-15 -295.5q90 -304 460 -376q320 -62 814 3q80 10 85 -29q3 -30 -78.5 -58t-153.5 -85.5t-91.5 -67.5t-42.5 -13q-601 -73 -866 120q-212 154 -229 489q-25 527 329 769q-195 28 -329 -42q-49 -26 -55 42z" />
    <glyph glyph-name="uniFB7C" unicode="&#x686;" horiz-adv-x="1343" arabic-form="initial" 
d="M784 -614q-10 -16 -34 -10q-88 30 -161 88q-19 16 -10 36l79 156q13 21 36 4.5t159 -92.5q23 -14 12 -34zM613 -388q-10 -16 -34 -10q-88 30 -161 88q-19 16 -10 36l79 156q12 22 33.5 6t102.5 -62l51 102q14 21 37 4.5t159 -92.5q23 -14 11 -34l-81 -148
q-20 -34 -140 40zM-43 455q10 72 75.5 143t137.5 72t350.5 -109.5t599.5 -96.5q60 3 32 -80l-42 -126q-12 -38 -37 -35q-241 39 -439.5 -25.5t-352.5 -146t-277 -81.5q-33 1 -54 39q-36 73 -28 129t23 65.5t26 11.5q313 19 515 119q-309 131 -482 75q-55 -20 -47 46z" />
    <glyph glyph-name="uniFB7D" unicode="&#x686;" horiz-adv-x="1250" arabic-form="medial" 
d="M772 -602q-10 -16 -34 -10q-88 30 -161 88q-19 16 -10 36l79 156q13 21 36 4.5t159 -92.5q23 -14 12 -34zM601 -376q-10 -16 -34 -10q-88 30 -161 88q-19 16 -10 36l79 156q12 22 33.5 6t102.5 -62l51 102q14 21 37 4.5t159 -92.5q23 -14 11 -34l-81 -148
q-20 -34 -140 40zM-31 454q27 222 241 222q97 0 312 -97q103 -46 274 -72t328 -8q70 9 60 -45l-27 -151q-7 -36 -53 -32q-83 7 -143 9q-20 -76 264 -69q120 3 88 -174q-12 -61 -55 -67q-167 -21 -272 16q-149 52 -112 288q-164 -15 -302.5 -69t-310.5 -145.5t-257 -89.5
q-48 1 -76.5 54.5t-22 116.5t64.5 74q168 31 286 82t192 72q-300 95 -407 37q-36 -20 -57 -12t-15 60z" />
    <glyph glyph-name="uniFB7E" unicode="&#x687;" horiz-adv-x="1355" arabic-form="isolated" 
d="M859 -26q10 17 34 10q87 -30 161 -88q19 -17 10 -37l-68 -132q63 -28 117 -71q19 -17 11 -37l-79 -155q-14 -21 -35.5 -5.5t-116.5 69.5l-56 -110q-13 -21 -36 -4.5t-160 92.5q-22 13 -11 34l75 136q-41 24 -123 70q-23 13 -11 34l81 148q10 17 33 10q65 -22 122 -59z
M789 -319q40 -18 77 -42l46 84q-29 18 -79 45zM537 121q-177 -113 -233 -267.5t-15 -295.5q90 -304 460 -376q311 -60 814 3q80 10 85 -29q3 -30 -78.5 -58t-153.5 -85.5t-91.5 -67.5t-42.5 -13q-601 -73 -866 120q-212 154 -229 489q-25 527 329 769q-190 28 -300 -31
q-49 -26 -55 42q-23 237 236 242q47 1 212 -27q271 -47 541 -1q105 18 86 -47l-41 -142q-12 -39 -41 -42q-385 -35 -617 -183z" />
    <glyph glyph-name="uniFB7F" unicode="&#x687;" horiz-adv-x="1310" arabic-form="final" 
d="M868 -96q10 17 34 10q87 -30 161 -88q19 -17 10 -37l-68 -132q63 -28 117 -71q19 -17 11 -37l-79 -155q-14 -21 -35.5 -5.5t-116.5 69.5l-56 -110q-13 -21 -36 -4.5t-160 92.5q-22 13 -11 34l75 136q-41 24 -123 70q-23 13 -11 34l81 148q10 17 33 10q65 -22 122 -59z
M798 -389q40 -18 77 -42l46 84q-29 18 -79 45zM132 310q-23 249 235 253q75 1 242 -27q271 -47 541 -1q106 18 86 -47l-41 -142q-10 -33 -42 -37q-123 -11 -207 -36q69 -79 335 -58q63 5 88 -69q18 -57 3.5 -116t-56.5 -60q-275 -1 -368 73t-98 203q-175 -37 -313 -125
q-177 -113 -233 -267.5t-15 -295.5q90 -304 460 -376q320 -62 814 3q80 10 85 -29q3 -30 -78.5 -58t-153.5 -85.5t-91.5 -67.5t-42.5 -13q-601 -73 -866 120q-212 154 -229 489q-25 527 329 769q-195 28 -329 -42q-49 -26 -55 42z" />
    <glyph glyph-name="uniFB80" unicode="&#x687;" horiz-adv-x="1343" arabic-form="initial" 
d="M669 -28q10 17 34 10q87 -30 161 -88q19 -17 10 -37l-68 -132q63 -28 117 -71q19 -17 11 -37l-79 -155q-14 -21 -35.5 -5.5t-116.5 69.5l-56 -110q-13 -21 -36 -4.5t-160 92.5q-22 13 -11 34l75 136q-41 24 -123 70q-23 13 -11 34l81 148q10 17 33 10q65 -22 122 -59z
M599 -321q40 -18 77 -42l46 84q-29 18 -79 45zM-43 455q10 72 75.5 143t137.5 72t350.5 -109.5t599.5 -96.5q60 3 32 -80l-42 -126q-12 -38 -37 -35q-241 39 -439.5 -25.5t-352.5 -146t-277 -81.5q-33 1 -54 39q-36 73 -28 129t23 65.5t26 11.5q313 19 515 119
q-309 131 -482 75q-55 -20 -47 46z" />
    <glyph glyph-name="uniFB81" unicode="&#x687;" horiz-adv-x="1250" arabic-form="medial" 
d="M658 -16q10 17 34 10q87 -30 161 -88q19 -17 10 -37l-68 -132q63 -28 117 -71q19 -17 11 -37l-79 -155q-14 -21 -35.5 -5.5t-116.5 69.5l-56 -110q-13 -21 -36 -4.5t-160 92.5q-22 13 -11 34l75 136q-41 24 -123 70q-23 13 -11 34l81 148q10 17 33 10q65 -22 122 -59z
M588 -309q40 -18 77 -42l46 84q-29 18 -79 45zM-31 454q27 222 241 222q97 0 312 -97q103 -46 274 -72t328 -8q70 9 60 -45l-27 -151q-7 -36 -53 -32q-83 7 -143 9q-20 -76 264 -69q120 3 88 -174q-12 -61 -55 -67q-167 -21 -272 16q-149 52 -112 288q-164 -15 -302.5 -69
t-310.5 -145.5t-257 -89.5q-48 1 -76.5 54.5t-22 116.5t64.5 74q168 31 286 82t192 72q-300 95 -407 37q-36 -20 -57 -12t-15 60z" />
    <glyph glyph-name="uniFB82" unicode="&#x68d;" horiz-adv-x="923" arabic-form="isolated" 
d="M581 -173q10 17 34 10q88 -30 161 -88q19 -17 11 -37l-79 -155q-14 -21 -35.5 -5.5t-116.5 69.5l-56 -110q-13 -21 -36 -4.5t-160 92.5q-22 13 -11 34l81 148q10 17 34 10q65 -22 121 -59zM296 584q-44 18 -26.5 89t37.5 119.5t61 26.5q273 -150 360 -424
q47 -146 22 -258q-15 -67 -51 -83q-203 -86 -357 -96q-223 -15 -191 245q6 50 33 50q20 1 38 -24.5t186 -3.5t258 68q-49 156 -370 291z" />
    <glyph glyph-name="uniFB83" unicode="&#x68d;" horiz-adv-x="965" arabic-form="final" 
d="M575 -123q10 17 34 10q88 -30 161 -88q19 -17 11 -37l-79 -155q-14 -21 -35.5 -5.5t-116.5 69.5l-56 -110q-13 -21 -36 -4.5t-160 92.5q-22 13 -11 34l81 148q10 17 34 10q65 -22 121 -59zM1014.5 141q22.5 -59 13.5 -107q-12 -65 -60 -64q-159 2 -244 273
q-46 -155 -131 -195q-82 -39 -267 -38q-282 0 -206 309q9 33 31 33t40 -38q19 -39 52 -44q195 -32 340 27q78 32 84 91q-2 21 -53 212t-59.5 232t8.5 92l34 104q9 28 31 28t29 -31q123 -502 180 -651t102 -160q53 -14 75.5 -73z" />
    <glyph glyph-name="uniFB84" unicode="&#x68c;" horiz-adv-x="923" arabic-form="isolated" 
d="M307 1374q10 17 34 10q88 -30 161 -88q19 -17 11 -37l-79 -155q-14 -21 -35.5 -5.5t-116.5 69.5l-56 -110q-13 -21 -36 -4.5t-160 92.5q-22 13 -11 34l81 148q10 17 34 10q65 -22 121 -59zM296 584q-44 18 -26.5 89t37.5 119.5t61 26.5q273 -150 360 -424
q47 -146 22 -258q-15 -67 -51 -83q-203 -86 -357 -96q-223 -15 -191 245q6 50 33 50q20 1 38 -24.5t186 -3.5t258 68q-49 156 -370 291z" />
    <glyph glyph-name="uniFB85" unicode="&#x68c;" horiz-adv-x="965" arabic-form="final" 
d="M560 1474q10 17 34 10q88 -30 161 -88q19 -17 11 -37l-79 -155q-14 -21 -35.5 -5.5t-116.5 69.5l-56 -110q-13 -21 -36 -4.5t-160 92.5q-22 13 -11 34l81 148q10 17 34 10q65 -22 121 -59zM1014.5 141q22.5 -59 13.5 -107q-12 -65 -60 -64q-159 2 -244 273
q-46 -155 -131 -195q-82 -39 -267 -38q-282 0 -206 309q9 33 31 33t40 -38q19 -39 52 -44q195 -32 340 27q78 32 84 91q-2 21 -53 212t-59.5 232t8.5 92l34 104q9 28 31 28t29 -31q123 -502 180 -651t102 -160q53 -14 75.5 -73z" />
    <glyph glyph-name="uniFB86" unicode="&#x68e;" horiz-adv-x="923" arabic-form="isolated" 
d="M126 1603q10 17 34 10q88 -30 161 -88q19 -17 10 -37l-79 -155q-13 -21 -36 -4.5t-159 92.5q-23 13 -11 33zM299 1374q10 17 34 10q88 -30 161 -88q19 -17 11 -37l-79 -155q-13 -22 -34.5 -6.5t-101.5 61.5l-52 -102q-13 -21 -36 -4.5t-159 92.5q-23 13 -12 34l81 148
q20 34 140 -39zM296 584q-44 18 -26.5 89t37.5 119.5t61 26.5q273 -150 360 -424q47 -146 22 -258q-15 -67 -51 -83q-203 -86 -357 -96q-223 -15 -191 245q6 50 33 50q20 1 38 -24.5t186 -3.5t258 68q-49 156 -370 291z" />
    <glyph glyph-name="uniFB87" unicode="&#x68e;" horiz-adv-x="965" arabic-form="final" 
d="M379 1703q10 17 34 10q88 -30 161 -88q19 -17 10 -37l-79 -155q-13 -21 -36 -4.5t-159 92.5q-23 13 -11 33zM552 1474q10 17 34 10q88 -30 161 -88q19 -17 11 -37l-79 -155q-13 -22 -34.5 -6.5t-101.5 61.5l-52 -102q-13 -21 -36 -4.5t-159 92.5q-23 13 -12 34l81 148
q20 34 140 -39zM1014.5 141q22.5 -59 13.5 -107q-12 -65 -60 -64q-159 2 -244 273q-46 -155 -131 -195q-82 -39 -267 -38q-282 0 -206 309q9 33 31 33t40 -38q19 -39 52 -44q195 -32 340 27q78 32 84 91q-2 21 -53 212t-59.5 232t8.5 92l34 104q9 28 31 28t29 -31
q123 -502 180 -651t102 -160q53 -14 75.5 -73z" />
    <glyph glyph-name="uniFB88" unicode="&#x688;" horiz-adv-x="923" arabic-form="isolated" 
d="M134 1730q32 16 46 -36q64 -247 72 -373q43 48 95 90q53 42 107.5 22t87 -82t-35.5 -164q-16 -24 -129.5 -60t-236.5 -42h-4q-58 10 -107 49t-51 63q2 17 23 16q73 -7 146 -2l41 46q-12 144 -82 391q-3 11 6 42.5t22 39.5zM361 1312q-29 -12 -102 -87q100 21 192 67
q-35 41 -90 20zM296 584q-44 18 -26.5 89t37.5 119.5t61 26.5q273 -150 360 -424q47 -146 22 -258q-15 -67 -51 -83q-203 -86 -357 -96q-223 -15 -191 245q6 50 33 50q20 1 38 -24.5t186 -3.5t258 68q-49 156 -370 291z" />
    <glyph glyph-name="uniFB89" unicode="&#x688;" horiz-adv-x="965" arabic-form="final" 
d="M387 1830q32 16 46 -36q64 -247 72 -373q43 48 95 90q53 42 107.5 22t87 -82t-35.5 -164q-16 -24 -129.5 -60t-236.5 -42h-4q-58 10 -107 49t-51 63q2 17 23 16q73 -7 146 -2l41 46q-12 144 -82 391q-3 11 6 42.5t22 39.5zM614 1412q-29 -12 -102 -87q100 21 192 67
q-35 41 -90 20zM1014.5 141q22.5 -59 13.5 -107q-12 -65 -60 -64q-159 2 -244 273q-46 -155 -131 -195q-82 -39 -267 -38q-282 0 -206 309q9 33 31 33t40 -38q19 -39 52 -44q195 -32 340 27q78 32 84 91q-2 21 -53 212t-59.5 232t8.5 92l34 104q9 28 31 28t29 -31
q123 -502 180 -651t102 -160q53 -14 75.5 -73z" />
    <glyph glyph-name="uniFB8A" unicode="&#x698;" horiz-adv-x="819" arabic-form="isolated" 
d="M115 1341q10 17 34 10q88 -30 161 -88q19 -17 10 -37l-79 -155q-13 -21 -36 -4.5t-159 92.5q-23 13 -11 33zM288 1112q10 17 34 10q88 -30 161 -88q19 -17 11 -37l-79 -155q-13 -22 -34.5 -6.5t-101.5 61.5l-52 -102q-13 -21 -36 -4.5t-159 92.5q-23 13 -12 34l81 148
q20 34 140 -39zM411 604q7 55 82.5 -23.5t138.5 -231.5q137 -344 -46 -628q-106 -164 -284 -212q-67 -18 -116 3q-191 78 -297 128q-37 17 -28.5 41.5t43.5 14.5q139 -41 223.5 -20.5t213.5 104.5q222 145 258 284q1 6 1 11q-31 96 -207 258q-17 16 -14 40z" />
    <glyph glyph-name="uniFB8B" unicode="&#x698;" horiz-adv-x="703" arabic-form="final" 
d="M110 1217q10 17 34 10q88 -30 161 -88q19 -17 10 -37l-79 -155q-13 -21 -36 -4.5t-159 92.5q-23 13 -11 33zM283 988q10 17 34 10q88 -30 161 -88q19 -17 11 -37l-79 -155q-13 -22 -34.5 -6.5t-101.5 61.5l-52 -102q-13 -21 -36 -4.5t-159 92.5q-23 13 -12 34l81 148
q20 34 140 -39zM425 139l53 178q21 69 63 4.5t56 -84t81 -22.5q74 -3 92 -121q14 -122 -60 -124q-31 -1 -71 -1q12 -230 -92 -390t-226.5 -179t-254 35t-163.5 72.5t-24 40.5q7 20 42 12q123 -31 220 -6q168 42 287.5 186t120.5 207q0 24 -99 114q-38 34 -25 78z" />
    <glyph glyph-name="uniFB8C" unicode="&#x691;" horiz-adv-x="819" arabic-form="isolated" 
d="M68 1518q32 16 46 -36q64 -247 72 -373q43 48 95 90q53 42 107.5 22t87 -82t-35.5 -164q-16 -24 -129.5 -60t-236.5 -42h-4q-58 10 -107 49t-51 63q2 17 23 16q73 -7 146 -2l41 46q-12 144 -82 391q-3 11 6 42.5t22 39.5zM295 1100q-29 -12 -102 -87q100 21 192 67
q-35 41 -90 20zM411 604q7 55 82.5 -23.5t138.5 -231.5q137 -344 -46 -628q-106 -164 -284 -212q-67 -18 -116 3q-191 78 -297 128q-37 17 -28.5 41.5t43.5 14.5q139 -41 223.5 -20.5t213.5 104.5q222 145 258 284q1 6 1 11q-31 96 -207 258q-17 16 -14 40z" />
    <glyph glyph-name="uniFB8D" unicode="&#x691;" horiz-adv-x="703" arabic-form="final" 
d="M130 1244q32 16 46 -36q64 -247 72 -373q43 48 95 90q53 42 107.5 22t87 -82t-35.5 -164q-16 -24 -129.5 -60t-236.5 -42h-4q-58 10 -107 49t-51 63q2 17 23 16q73 -7 146 -2l41 46q-12 144 -82 391q-3 11 6 42.5t22 39.5zM357 826q-29 -12 -102 -87q100 21 192 67
q-35 41 -90 20zM425 139l53 178q21 69 63 4.5t56 -84t81 -22.5q74 -3 92 -121q14 -122 -60 -124q-31 -1 -71 -1q12 -230 -92 -390t-226.5 -179t-254 35t-163.5 72.5t-24 40.5q7 20 42 12q123 -31 220 -6q168 42 287.5 186t120.5 207q0 24 -99 114q-38 34 -25 78z" />
    <glyph glyph-name="uniFB8E" unicode="&#x6a9;" horiz-adv-x="1347" arabic-form="isolated" 
d="M446 1188q18 3 29 -12t7 -29l-30 -109q-10 -33 -29 -38q-47 -11 -65 -35q33 -23 96.5 -32t84.5 -23q83 -56 -19 -227q-41 -66 -84 -78t-149 -1.5t-172 34.5q-33 13 -35.5 34t5 30.5t41.5 11.5t147.5 5t155.5 17l-61 14q-56 13 -92 48t-32 77q31 265 202 313zM844 1814
q253 156 949 349q58 15 79 -13.5t13 -56.5l-33 -102q-10 -26 -43 -36q-499 -143 -950 -348q-69 -31 -91 20q-6 16 -2 41t78 146zM761 1646q22 57 72.5 -27t119.5 -137q46 -35 18 -79l-42 -66q224 -722 254 -979q15 -134 -29 -269q-29 -89 -270 -110q-151 -12 -380.5 -8.5
t-358.5 23.5q-37 6 -41 31q-20 106 -31 211q-4 39 31 29q143 -38 289 -41q572 -10 703 65q-3 37 -309 1039q-7 27 -56 122q-26 51 -10 94z" />
    <glyph glyph-name="uniFB8F" unicode="&#x6a9;" horiz-adv-x="1685" arabic-form="final" 
d="M755 1194q18 3 29 -12t7 -29l-30 -109q-10 -33 -29 -38q-47 -11 -65 -35q33 -23 96.5 -32t84.5 -23q83 -56 -19 -227q-41 -66 -84 -78t-149 -1.5t-172 34.5q-33 13 -35.5 34t5 30.5t41.5 11.5t147.5 5t155.5 17l-61 14q-56 13 -92 48t-32 77q31 265 202 313zM1309 1651
q253 156 949 349q58 15 79 -13.5t13 -56.5l-33 -102q-10 -26 -43 -36q-499 -143 -950 -348q-69 -31 -91 20q-6 16 -2 41t78 146zM1689 -30q-221 0 -295 372q-117 -408 -697 -429q-449 -16 -558 206t29 454q34 57 59.5 32.5t0.5 -69.5q-66 -127 -50 -177q63 -188 454 -193
q273 -4 533 106q106 45 136 109q8 17 5 79t-67 373.5t-66 321.5q-32 138 -11 175l56 103q56 103 79 -43q9 -56 98 -501q84 -421 138.5 -535.5t124.5 -137.5t88.5 -81t-1 -111.5t-56.5 -53.5z" />
    <glyph glyph-name="uniFB90" unicode="&#x6a9;" horiz-adv-x="1350" arabic-form="initial" 
d="M-22 215q331 -44 490 124q-213 247 -430 326q-52 19 -76 171q-24 154 44 225q276 282 993 507q52 16 44 -35l-27 -180q-7 -45 -40 -57q-759 -277 -936 -413q456 -230 493 -530q38 -310 -165 -362q-216 -55 -386 -24q-49 9 -65 71q-23 93 -20 111q12 75 81 66z" />
    <glyph glyph-name="uniFB91" unicode="&#x6a9;" horiz-adv-x="1206" arabic-form="medial" 
d="M-101 122q-12 99 101 90q320 -26 479 133q-62 149 -467 341q-49 68 -62 197q-10 85 11 119q199 354 945 693q65 30 56 -49l-20 -178q-4 -32 -37 -49q-627 -331 -851 -544q392 -162 758 -461q228 -186 369 -200q114 -12 80 -188q-11 -57 -54 -57q-170 1 -484 293
q-106 99 -182 152q9 -78 8 -114q-9 -344 -447 -343q-75 0 -120 10q-66 15 -83 155z" />
    <glyph glyph-name="uniFB92" unicode="&#x6af;" horiz-adv-x="1347" arabic-form="isolated" 
d="M446 1188q18 3 29 -12t7 -29l-30 -109q-10 -33 -29 -38q-47 -11 -65 -35q33 -23 96.5 -32t84.5 -23q83 -56 -19 -227q-41 -66 -84 -78t-149 -1.5t-172 34.5q-33 13 -35.5 34t5 30.5t41.5 11.5t147.5 5t155.5 17l-61 14q-56 13 -92 48t-32 77q31 265 202 313zM844 1814
q253 156 949 349q58 15 79 -13.5t13 -56.5l-33 -102q-10 -26 -43 -36q-499 -143 -950 -348q-69 -31 -91 20q-6 16 -2 41t78 146zM913 1902q-24 -11 -43 0q-37 22 -13 64q50 87 102 113q327 165 871 331q19 6 45 -16.5t-17 -80.5q-11 -16 -14 -20q-42 -57 -83 -69
q-354 -98 -848 -322zM761 1646q22 57 72.5 -27t119.5 -137q46 -35 18 -79l-42 -66q224 -722 254 -979q15 -134 -29 -269q-29 -89 -270 -110q-151 -12 -380.5 -8.5t-358.5 23.5q-37 6 -41 31q-20 106 -31 211q-4 39 31 29q143 -38 289 -41q572 -10 703 65q-3 37 -309 1039
q-7 27 -56 122q-26 51 -10 94z" />
    <glyph glyph-name="uniFB93" unicode="&#x6af;" horiz-adv-x="1685" arabic-form="final" 
d="M755 1194q18 3 29 -12t7 -29l-30 -109q-10 -33 -29 -38q-47 -11 -65 -35q33 -23 96.5 -32t84.5 -23q83 -56 -19 -227q-41 -66 -84 -78t-149 -1.5t-172 34.5q-33 13 -35.5 34t5 30.5t41.5 11.5t147.5 5t155.5 17l-61 14q-56 13 -92 48t-32 77q31 265 202 313zM1309 1651
q253 156 949 349q58 15 79 -13.5t13 -56.5l-33 -102q-10 -26 -43 -36q-499 -143 -950 -348q-69 -31 -91 20q-6 16 -2 41t78 146zM1378 1739q-24 -11 -43 0q-37 22 -13 64q50 87 102 113q327 165 871 331q19 6 45 -16.5t-17 -80.5q-11 -16 -14 -20q-42 -57 -83 -69
q-354 -98 -848 -322zM1689 -30q-221 0 -295 372q-117 -408 -697 -429q-449 -16 -558 206t29 454q34 57 59.5 32.5t0.5 -69.5q-66 -127 -50 -177q63 -188 454 -193q273 -4 533 106q106 45 136 109q8 17 5 79t-67 373.5t-66 321.5q-32 138 -11 175l56 103q56 103 79 -43
q9 -56 98 -501q84 -421 138.5 -535.5t124.5 -137.5t88.5 -81t-1 -111.5t-56.5 -53.5z" />
    <glyph glyph-name="uniFB94" unicode="&#x6af;" horiz-adv-x="1350" arabic-form="initial" 
d="M73 1284q-24 -11 -43 0q-37 22 -13 64q50 87 102 113q327 165 871 331q19 6 45 -16.5t-17 -80.5q-11 -16 -14 -20q-42 -57 -83 -69q-354 -98 -848 -322zM-22 215q331 -44 490 124q-213 247 -430 326q-52 19 -76 171q-24 154 44 225q276 282 993 507q52 16 44 -35
l-27 -180q-7 -45 -40 -57q-759 -277 -936 -413q456 -230 493 -530q38 -310 -165 -362q-216 -55 -386 -24q-49 9 -65 71q-23 93 -20 111q12 75 81 66z" />
    <glyph glyph-name="uniFB95" unicode="&#x6af;" horiz-adv-x="1206" arabic-form="medial" 
d="M70 1362q-21 -13 -40 -6q-41 16 -22 63q39 94 88 127q302 201 819 426q19 8 46 -12.5t-9 -83.5l-12 -20q-35 -62 -73 -79q-337 -137 -797 -415zM-101 122q-12 99 101 90q320 -26 479 133q-62 149 -467 341q-49 68 -62 197q-10 85 11 119q199 354 945 693q65 30 56 -49
l-20 -178q-4 -32 -37 -49q-627 -331 -851 -544q392 -162 758 -461q228 -186 369 -200q114 -12 80 -188q-11 -57 -54 -57q-170 1 -484 293q-106 99 -182 152q9 -78 8 -114q-9 -344 -447 -343q-75 0 -120 10q-66 15 -83 155z" />
    <glyph glyph-name="uniFB96" unicode="&#x6b3;" horiz-adv-x="1347" arabic-form="isolated" 
d="M563 -72q10 17 34 10q87 -30 160 -88q19 -17 11 -37l-46 -91q52 -26 99 -62q19 -17 10 -37l-79 -155q-13 -21 -36 -4.5t-160 92.5q-22 13 -11 34l53 97q-39 23 -105 59q-22 13 -11 34zM446 1188q18 3 29 -12t7 -29l-30 -109q-10 -33 -29 -38q-47 -11 -65 -35
q33 -23 96.5 -32t84.5 -23q83 -56 -19 -227q-41 -66 -84 -78t-149 -1.5t-172 34.5q-33 13 -35.5 34t5 30.5t41.5 11.5t147.5 5t155.5 17l-61 14q-56 13 -92 48t-32 77q31 265 202 313zM844 1814q253 156 949 349q58 15 79 -13.5t13 -56.5l-33 -102q-10 -26 -43 -36
q-499 -143 -950 -348q-69 -31 -91 20q-6 16 -2 41t78 146zM913 1902q-24 -11 -43 0q-37 22 -13 64q50 87 102 113q327 165 871 331q19 6 45 -16.5t-17 -80.5q-11 -16 -14 -20q-42 -57 -83 -69q-354 -98 -848 -322zM761 1646q22 57 72.5 -27t119.5 -137q46 -35 18 -79
l-42 -66q224 -722 254 -979q15 -134 -29 -269q-29 -89 -270 -110q-151 -12 -380.5 -8.5t-358.5 23.5q-37 6 -41 31q-20 106 -31 211q-4 39 31 29q143 -38 289 -41q572 -10 703 65q-3 37 -309 1039q-7 27 -56 122q-26 51 -10 94z" />
    <glyph glyph-name="uniFB97" unicode="&#x6b3;" horiz-adv-x="1685" arabic-form="final" 
d="M699 -122q10 17 34 10q87 -30 160 -88q19 -17 11 -37l-46 -91q52 -26 99 -62q19 -17 10 -37l-79 -155q-13 -21 -36 -4.5t-160 92.5q-22 13 -11 34l53 97q-39 23 -105 59q-22 13 -11 34zM755 1194q18 3 29 -12t7 -29l-30 -109q-10 -33 -29 -38q-47 -11 -65 -35
q33 -23 96.5 -32t84.5 -23q83 -56 -19 -227q-41 -66 -84 -78t-149 -1.5t-172 34.5q-33 13 -35.5 34t5 30.5t41.5 11.5t147.5 5t155.5 17l-61 14q-56 13 -92 48t-32 77q31 265 202 313zM1309 1651q253 156 949 349q58 15 79 -13.5t13 -56.5l-33 -102q-10 -26 -43 -36
q-499 -143 -950 -348q-69 -31 -91 20q-6 16 -2 41t78 146zM1378 1739q-24 -11 -43 0q-37 22 -13 64q50 87 102 113q327 165 871 331q19 6 45 -16.5t-17 -80.5q-11 -16 -14 -20q-42 -57 -83 -69q-354 -98 -848 -322zM1689 -30q-221 0 -295 372q-117 -408 -697 -429
q-449 -16 -558 206t29 454q34 57 59.5 32.5t0.5 -69.5q-66 -127 -50 -177q63 -188 454 -193q273 -4 533 106q106 45 136 109q8 17 5 79t-67 373.5t-66 321.5q-32 138 -11 175l56 103q56 103 79 -43q9 -56 98 -501q84 -421 138.5 -535.5t124.5 -137.5t88.5 -81t-1 -111.5
t-56.5 -53.5z" />
    <glyph glyph-name="uniFB98" unicode="&#x6b3;" horiz-adv-x="1350" arabic-form="initial" 
d="M229 -36q10 17 34 10q87 -30 160 -88q19 -17 11 -37l-46 -91q52 -26 99 -62q19 -17 10 -37l-79 -155q-13 -21 -36 -4.5t-160 92.5q-22 13 -11 34l53 97q-39 23 -105 59q-22 13 -11 34zM73 1284q-24 -11 -43 0q-37 22 -13 64q50 87 102 113q327 165 871 331q19 6 45 -16.5
t-17 -80.5q-11 -16 -14 -20q-42 -57 -83 -69q-354 -98 -848 -322zM-22 215q331 -44 490 124q-213 247 -430 326q-52 19 -76 171q-24 154 44 225q276 282 993 507q52 16 44 -35l-27 -180q-7 -45 -40 -57q-759 -277 -936 -413q456 -230 493 -530q38 -310 -165 -362
q-216 -55 -386 -24q-49 9 -65 71q-23 93 -20 111q12 75 81 66z" />
    <glyph glyph-name="uniFB99" unicode="&#x6b3;" horiz-adv-x="1206" arabic-form="medial" 
d="M70 1362q-21 -13 -40 -6q-41 16 -22 63q39 94 88 127q302 201 819 426q19 8 46 -12.5t-9 -83.5l-12 -20q-35 -62 -73 -79q-337 -137 -797 -415zM722 -72q10 17 34 10q87 -30 160 -88q19 -17 11 -37l-46 -91q52 -26 99 -62q19 -17 10 -37l-79 -155q-13 -21 -36 -4.5
t-160 92.5q-22 13 -11 34l53 97q-39 23 -105 59q-22 13 -11 34zM-101 122q-12 99 101 90q320 -26 479 133q-62 149 -467 341q-49 68 -62 197q-10 85 11 119q199 354 945 693q65 30 56 -49l-20 -178q-4 -32 -37 -49q-627 -331 -851 -544q392 -162 758 -461q228 -186 369 -200
q114 -12 80 -188q-11 -57 -54 -57q-170 1 -484 293q-106 99 -182 152q9 -78 8 -114q-9 -344 -447 -343q-75 0 -120 10q-66 15 -83 155z" />
    <glyph glyph-name="uniFB9A" unicode="&#x6b1;" horiz-adv-x="1347" arabic-form="isolated" 
d="M377 1614q10 17 34 10q88 -30 161 -88q19 -17 11 -37l-79 -155q-14 -21 -35.5 -5.5t-116.5 69.5l-56 -110q-13 -21 -36 -4.5t-160 92.5q-22 13 -11 34l81 148q10 17 34 10q65 -22 121 -59zM446 1188q18 3 29 -12t7 -29l-30 -109q-10 -33 -29 -38q-47 -11 -65 -35
q33 -23 96.5 -32t84.5 -23q83 -56 -19 -227q-41 -66 -84 -78t-149 -1.5t-172 34.5q-33 13 -35.5 34t5 30.5t41.5 11.5t147.5 5t155.5 17l-61 14q-56 13 -92 48t-32 77q31 265 202 313zM844 1814q253 156 949 349q58 15 79 -13.5t13 -56.5l-33 -102q-10 -26 -43 -36
q-499 -143 -950 -348q-69 -31 -91 20q-6 16 -2 41t78 146zM913 1902q-24 -11 -43 0q-37 22 -13 64q50 87 102 113q327 165 871 331q19 6 45 -16.5t-17 -80.5q-11 -16 -14 -20q-42 -57 -83 -69q-354 -98 -848 -322zM761 1646q22 57 72.5 -27t119.5 -137q46 -35 18 -79
l-42 -66q224 -722 254 -979q15 -134 -29 -269q-29 -89 -270 -110q-151 -12 -380.5 -8.5t-358.5 23.5q-37 6 -41 31q-20 106 -31 211q-4 39 31 29q143 -38 289 -41q572 -10 703 65q-3 37 -309 1039q-7 27 -56 122q-26 51 -10 94z" />
    <glyph glyph-name="uniFB9B" unicode="&#x6b1;" horiz-adv-x="1685" arabic-form="final" 
d="M687 1620q10 17 34 10q88 -30 161 -88q19 -17 11 -37l-79 -155q-14 -21 -35.5 -5.5t-116.5 69.5l-56 -110q-13 -21 -36 -4.5t-160 92.5q-22 13 -11 34l81 148q10 17 34 10q65 -22 121 -59zM755 1194q18 3 29 -12t7 -29l-30 -109q-10 -33 -29 -38q-47 -11 -65 -35
q33 -23 96.5 -32t84.5 -23q83 -56 -19 -227q-41 -66 -84 -78t-149 -1.5t-172 34.5q-33 13 -35.5 34t5 30.5t41.5 11.5t147.5 5t155.5 17l-61 14q-56 13 -92 48t-32 77q31 265 202 313zM1309 1651q253 156 949 349q58 15 79 -13.5t13 -56.5l-33 -102q-10 -26 -43 -36
q-499 -143 -950 -348q-69 -31 -91 20q-6 16 -2 41t78 146zM1378 1739q-24 -11 -43 0q-37 22 -13 64q50 87 102 113q327 165 871 331q19 6 45 -16.5t-17 -80.5q-11 -16 -14 -20q-42 -57 -83 -69q-354 -98 -848 -322zM1689 -30q-221 0 -295 372q-117 -408 -697 -429
q-449 -16 -558 206t29 454q34 57 59.5 32.5t0.5 -69.5q-66 -127 -50 -177q63 -188 454 -193q273 -4 533 106q106 45 136 109q8 17 5 79t-67 373.5t-66 321.5q-32 138 -11 175l56 103q56 103 79 -43q9 -56 98 -501q84 -421 138.5 -535.5t124.5 -137.5t88.5 -81t-1 -111.5
t-56.5 -53.5z" />
    <glyph glyph-name="uniFB9C" unicode="&#x6b1;" horiz-adv-x="1350" arabic-form="initial" 
d="M168 1324q-24 -11 -43 0q-37 22 -13 64q50 87 102 113q327 165 871 331q19 6 45 -16.5t-17 -80.5q-11 -16 -14 -20q-42 -57 -83 -69q-354 -98 -848 -322zM-44 1600q10 17 34 10q88 -30 161 -88q19 -17 11 -37l-79 -155q-14 -21 -35.5 -5.5t-116.5 69.5l-56 -110
q-13 -21 -36 -4.5t-160 92.5q-22 13 -11 34l81 148q10 17 34 10q65 -22 121 -59zM-22 215q331 -44 490 124q-213 247 -430 326q-52 19 -76 171q-24 154 44 225q276 282 993 507q52 16 44 -35l-27 -180q-7 -45 -40 -57q-759 -277 -936 -413q456 -230 493 -530
q38 -310 -165 -362q-216 -55 -386 -24q-49 9 -65 71q-23 93 -20 111q12 75 81 66z" />
    <glyph glyph-name="uniFB9D" unicode="&#x6b1;" horiz-adv-x="1206" arabic-form="medial" 
d="M174 1411q-21 -13 -40 -6q-41 16 -22 63q39 94 88 127q302 201 819 426q19 8 46 -12.5t-9 -83.5l-12 -20q-35 -62 -73 -79q-337 -137 -797 -415zM-47 1624q10 17 34 10q88 -30 161 -88q19 -17 11 -37l-79 -155q-14 -21 -35.5 -5.5t-116.5 69.5l-56 -110q-13 -21 -36 -4.5
t-160 92.5q-22 13 -11 34l81 148q10 17 34 10q65 -22 121 -59zM-101 122q-12 99 101 90q320 -26 479 133q-62 149 -467 341q-49 68 -62 197q-10 85 11 119q199 354 945 693q65 30 56 -49l-20 -178q-4 -32 -37 -49q-627 -331 -851 -544q392 -162 758 -461q228 -186 369 -200
q114 -12 80 -188q-11 -57 -54 -57q-170 1 -484 293q-106 99 -182 152q9 -78 8 -114q-9 -344 -447 -343q-75 0 -120 10q-66 15 -83 155z" />
    <glyph glyph-name="uniFB9E" unicode="&#x6ba;" horiz-adv-x="1173" arabic-form="isolated" 
d="M819 937q193 -309 193 -691q-1 -95 -44 -178q-106 -198 -389 -229q-197 -21 -327 89t-148 292q-19 188 74 355q20 35 40.5 18t5.5 -52q-86 -196 2 -318q84 -118 306 -116q270 2 405 165q-33 181 -228 453q-27 37 -19 63l55 172q19 64 74 -23z" />
    <glyph glyph-name="uniFB9F" unicode="&#x6ba;" horiz-adv-x="1260" arabic-form="final" 
d="M1022 315q19 53 62 24q23 -16 87 -99q16 -25 63 -25t75 -48t12 -113.5t-31 -74.5t-26 -9h-45q4 -145 -66 -338q-125 -342 -534 -351q-177 -3 -306.5 109t-141.5 277.5t97 423.5q15 36 36 23t8 -46q-71 -181 -58 -257q44 -246 355 -248q339 -2 486 171q-1 227 -104 405
q-18 31 -3 75z" />
    <glyph glyph-name="uniFBA0" unicode="&#x6bb;" horiz-adv-x="1173" arabic-form="isolated" 
d="M276 1630q32 16 46 -36q64 -247 72 -373q43 48 95 90q53 42 107.5 22t87 -82t-35.5 -164q-16 -24 -129.5 -60t-236.5 -42h-4q-58 10 -107 49t-51 63q2 17 23 16q73 -7 146 -2l41 46q-12 144 -82 391q-3 11 6 42.5t22 39.5zM503 1212q-29 -12 -102 -87q100 21 192 67
q-35 41 -90 20zM819 937q193 -309 193 -691q-1 -95 -44 -178q-106 -198 -389 -229q-197 -21 -327 89t-148 292q-19 188 74 355q20 35 40.5 18t5.5 -52q-86 -196 2 -318q84 -118 306 -116q270 2 405 165q-33 181 -228 453q-27 37 -19 63l55 172q19 64 74 -23z" />
    <glyph glyph-name="uniFBA1" unicode="&#x6bb;" horiz-adv-x="1260" arabic-form="final" 
d="M480 1030q32 16 46 -36q64 -247 72 -373q43 48 95 90q53 42 107.5 22t87 -82t-35.5 -164q-16 -24 -129.5 -60t-236.5 -42h-4q-58 10 -107 49t-51 63q2 17 23 16q73 -7 146 -2l41 46q-12 144 -82 391q-3 11 6 42.5t22 39.5zM707 612q-29 -12 -102 -87q100 21 192 67
q-35 41 -90 20zM1022 315q19 53 62 24q23 -16 87 -99q16 -25 63 -25t75 -48t12 -113.5t-31 -74.5t-26 -9h-45q4 -145 -66 -338q-125 -342 -534 -351q-177 -3 -306.5 109t-141.5 277.5t97 423.5q15 36 36 23t8 -46q-71 -181 -58 -257q44 -246 355 -248q339 -2 486 171
q-1 227 -104 405q-18 31 -3 75z" />
    <glyph glyph-name="uniFBA2" unicode="&#x6bb;" horiz-adv-x="390" arabic-form="initial" 
d="M-62 1330q32 16 46 -36q64 -247 72 -373q43 48 95 90q53 42 107.5 22t87 -82t-35.5 -164q-16 -24 -129.5 -60t-236.5 -42h-4q-58 10 -107 49t-51 63q2 17 23 16q73 -7 146 -2l41 46q-12 144 -82 391q-3 11 6 42.5t22 39.5zM165 912q-29 -12 -102 -87q100 21 192 67
q-35 41 -90 20zM51 436l43 127q23 68 51 27q121 -173 95 -396.5t-236 -223.5q-42 0 -68 68.5t-30.5 111t36.5 59.5q15 6 32 6q119 -3 167 47q-17 51 -60 92t-30 82z" />
    <glyph glyph-name="uniFBA3" unicode="&#x6bb;" horiz-adv-x="500" arabic-form="medial" 
d="M17 1300q32 16 46 -36q64 -247 72 -373q43 48 95 90q53 42 107.5 22t87 -82t-35.5 -164q-16 -24 -129.5 -60t-236.5 -42h-4q-58 10 -107 49t-51 63q2 17 23 16q73 -7 146 -2l41 46q-12 144 -82 391q-3 11 6 42.5t22 39.5zM244 882q-29 -12 -102 -87q100 21 192 67
q-35 41 -90 20zM336 296q70 -77 138 -82q56 -5 71 -42q9 -26 9 -86t-10 -87.5t-40 -28.5q-119 0 -238 130q-110 -130 -262 -130q-44 1 -62 55l-28 83q-11 34 6.5 69t53.5 38q240 18 284 120q13 31 35 31q30 0 35.5 -33.5t7.5 -36.5z" />
    <glyph glyph-name="uniFBA4" unicode="&#x6c0;" horiz-adv-x="756" arabic-form="isolated" 
d="M386 1109q-107 -22 -151.5 -36.5t-162.5 -69.5q-36 -14 -59 13q-34 46 50 109q-66 38 -81 84q-27 90 47 213t180 115q78 -6 80 -80.5t-16.5 -105t-27.5 -37.5q-28 -20 -52.5 10.5t-57.5 33.5t-46.5 -15t4.5 -34q73 -60 197 -64q20 0 60.5 10t62 9t35.5 -20q14 -20 9 -37
q-32 -89 -71 -98zM221 691q48 35 117 -3q152 -84 217 -213t48 -271q-32 -281 -256 -283q-159 -1 -214 113.5t-28.5 294t101.5 298.5q-3 51 15 64zM497 249q-91 120 -216 124q-54 2 -74 -44q-53 -123 122 -123q114 0 168 43z" />
    <glyph glyph-name="uniFBA5" unicode="&#x6c0;" horiz-adv-x="777" arabic-form="final" 
d="M417 1119q-107 -22 -151.5 -36.5t-162.5 -69.5q-36 -14 -59 13q-34 46 50 109q-66 38 -81 84q-27 90 47 213t180 115q78 -6 80 -80.5t-16.5 -105t-27.5 -37.5q-28 -20 -52.5 10.5t-57.5 33.5t-46.5 -15t4.5 -34q73 -60 197 -64q20 0 60.5 10t62 9t35.5 -20q14 -20 9 -37
q-32 -89 -71 -98zM414 535q-150 -49 -196 -132q-8 -13 7 -21q108 -42 230 -7q-16 65 -41 160zM414 950q40 57 64 -56l119 -490q47 -192 153 -189q47 1 72 -46q25 -51 12.5 -124.5t-53.5 -74.5q-129 0 -190 65.5t-101 222.5q-64 -115 -93 -130t-102 -10q-98 7 -174 52
q-52 31 -51.5 88t30.5 132t52 104q87 106 224 189q-36 160 -13 192z" />
    <glyph glyph-name="uniFBA6" unicode="&#x6c1;" horiz-adv-x="756" arabic-form="isolated" 
d="M221 691q48 35 117 -3q152 -84 217 -213t48 -271q-32 -281 -256 -283q-159 -1 -214 113.5t-28.5 294t101.5 298.5q-3 51 15 64zM497 249q-91 120 -216 124q-54 2 -74 -44q-53 -123 122 -123q114 0 168 43z" />
    <glyph glyph-name="uniFBA7" unicode="&#x6c1;" horiz-adv-x="777" arabic-form="final" 
d="M414 535q-150 -49 -196 -132q-8 -13 7 -21q108 -42 230 -7q-16 65 -41 160zM414 950q40 57 64 -56l119 -490q47 -192 153 -189q47 1 72 -46q25 -51 12.5 -124.5t-53.5 -74.5q-129 0 -190 65.5t-101 222.5q-64 -115 -93 -130t-102 -10q-98 7 -174 52q-52 31 -51.5 88
t30.5 132t52 104q87 106 224 189q-36 160 -13 192z" />
    <glyph glyph-name="uniFBA8" unicode="&#x6c1;" horiz-adv-x="926" arabic-form="initial" 
d="M435 475q16 -77 -56 -150q197 -72 302 -74q19 0 7 24q-41 93 -253 200zM288 360q64 34 62 45q-24 118 -79 128q-85 17 -136 -61q-17 -25 21 -48q61 -38 132 -64zM258 161q-149 -190 -254 -191q-40 0 -66 48q-95 182 35 198q85 10 123 32q-67 48 -47 148t96 199
q-13 6 -37.5 9t-34 25.5t-8.5 37.5q28 203 131.5 202.5t324 -188.5t256.5 -306q44 -152 -39 -262q-48 -65 -126 -57q-155 17 -354 105z" />
    <glyph glyph-name="uniFBA9" unicode="&#x6c1;" horiz-adv-x="800" arabic-form="medial" 
d="M502 745q63 -27 79 -111q53 -281 -94 -469q113 7 287 49q41 8 61 -39q34 -83 17 -151q-20 -44 -48 -53q-74 -17 -135 -19q40 -81 43.5 -188t-40.5 -185.5t-128 -79.5q-224 -1 -328 417l-80 11l-8 76q-73 -33 -126.5 -33t-85.5 95q-8 26 -20 75t41 68q17 5 36 7
q94 5 232 53q42 214 171 391q50 66 73.5 81.5t52.5 4.5zM484 436q-36 50 -80 34q-89 -35 -130 -180q169 76 210 146zM316 -88q59 -121 151 -157.5t160 9.5q-87 126 -311 148z" />
    <glyph glyph-name="uniFBAA" unicode="&#x6be;" horiz-adv-x="1246" arabic-form="isolated" 
d="M771 318q-9 -67 -40 -125q100 -12 171.5 -11t73.5 3q-60 61 -205 133zM556 224q76 36 89 61t-12 86t-46 61.5t-65.5 -43.5t-69.5 -108q19 -36 104 -57zM365 138q-22 82 -9.5 175.5t107.5 216.5t171 145q80 23 136 -124q6 -10 15 -15q209 -96 289 -172q31 -30 45 -92.5
t2 -141t-57 -129.5t-267 -41q-145 7 -251 39q-98 -60 -228 -90q-53 -13 -87 2l-110 52q-42 21 -52 47q-17 49 59 68q7 2 74.5 16t162.5 44z" />
    <glyph glyph-name="uniFBAB" unicode="&#x6be;" horiz-adv-x="1070" arabic-form="final" 
d="M399 -18q-114 -34 -172 5l-124 83q-51 33 -59 64q-11 47 53 61q12 2 27 4q271 31 331 56q57 221 191 404q46 63 72 80t54 5q59 -26 79 -109q61 -284 -106 -470q116 7 292 49q41 8 67 -39q38 -70 18 -151q-12 -45 -42 -53q-74 -17 -141 -19q48 -81 54 -213
q3 -82 -45.5 -160t-133.5 -80q-241 -1 -345 419l-63 9zM739 429q-15 20 -32.5 20t-21.5 -2q-82 -51 -111 -146q127 62 165 128zM623 -104q49 -108 117 -136t129 9q-74 86 -246 127z" />
    <glyph glyph-name="uniFBAC" unicode="&#x6be;" horiz-adv-x="926" arabic-form="initial" 
d="M51 231q-15 72 -3.5 159t107 211t172.5 144q80 22 135 -125q5 -9 15 -14q208 -96 289 -172q30 -30 44.5 -92.5t2 -141.5t-57 -129t-224 -42.5t-306.5 42.5q-98 -67 -214 -100q-50 -11 -78 55q-59 141 3 179q14 8 48.5 11t66.5 15zM247 294q76 36 89.5 61t-11.5 86
t-46 61.5t-66 -43.5t-70 -108q19 -36 104 -57zM463 388q-9 -67 -41 -125q101 -12 172 -11t73 3q-60 61 -204 133z" />
    <glyph glyph-name="uniFBAD" unicode="&#x6be;" horiz-adv-x="800" arabic-form="medial" 
d="M502 745q63 -27 79 -111q53 -281 -94 -469q113 7 287 49q41 8 61 -39q34 -83 17 -151q-20 -44 -48 -53q-74 -17 -135 -19q40 -81 43.5 -188t-40.5 -185.5t-128 -79.5q-224 -1 -328 417l-80 11l-8 76q-73 -33 -126.5 -33t-85.5 95q-8 26 -20 75t41 68q17 5 36 7
q94 5 232 53q42 214 171 391q50 66 73.5 81.5t52.5 4.5zM484 436q-36 50 -80 34q-89 -35 -130 -180q169 76 210 146zM316 -88q59 -121 151 -157.5t160 9.5q-87 126 -311 148z" />
    <glyph glyph-name="uniFBAE" unicode="&#x6d2;" horiz-adv-x="2375" arabic-form="isolated" 
d="M851 558q-11 129 -37 159q-21 -6 -43.5 -47.5t-58 -114.5t-81.5 -126t-190.5 -116.5t-178.5 -99.5q32 -33 105 -41q158 -18 800.5 10t1009.5 27q28 -1 44 -9q50 -26 27 -81l-34 -83q-27 -66 -81 -66q-349 1 -899.5 -23t-798.5 -22t-319 94q-33 46 -26 96q25 192 160 325
q45 42 165.5 92.5t163 87t72.5 113.5q96 248 211 229q94 -17 105 -204q4 -79 -4 -204q-4 -53 -51 -54q-37 0 -54 37q-5 11 -7 21z" />
    <glyph glyph-name="uniFBAF" unicode="&#x6d2;" horiz-adv-x="1170" arabic-form="final" 
d="M1144 215q101 -2 90 -129q-7 -79 -23 -97.5t-37 -18.5q-534 -1 -845 -284l-2 -2q30 -33 105 -41q214 -22 911 14q29 1 47 -8q48 -23 25 -82l-34 -83q-26 -62 -80 -66q-553 -24 -801 -22t-319 94q-33 46 -26 96q24 178 159 324q283 304 830 305z" />
    <glyph glyph-name="uniFBB0" unicode="&#x6d3;" horiz-adv-x="2375" arabic-form="isolated" 
d="M665 698q84 32 48 -142q-16 -72 -66 -123.5t-203 -119.5t-182 -100q32 -33 105 -41q158 -18 800.5 10t1009.5 27q28 -1 44 -9q50 -26 27 -81l-34 -83q-27 -66 -81 -66q-349 1 -899.5 -23t-798.5 -22t-319 94q-33 46 -26 96q25 192 160 325q45 42 165.5 92.5t158.5 82.5
t58 55t33 28zM423 1543q-107 -22 -151.5 -36.5t-162.5 -69.5q-36 -14 -59 13q-34 46 50 109q-66 38 -81 84q-27 90 47 213t180 115q78 -6 80 -80.5t-16.5 -105t-27.5 -37.5q-28 -20 -52.5 10.5t-57.5 33.5t-46.5 -15t4.5 -34q73 -60 197 -64q20 0 60.5 10t62 9t35.5 -20
q14 -20 9 -37q-32 -89 -71 -98zM319 1137q-4 32 28.5 45t107.5 -54q11 -10 110 -106q178 -174 163 -361q-5 -60 -9 -71q-13 -39 -47 -33q-45 9 -56 83q-14 110 -224 284q-28 24 -37.5 38t-15.5 38z" />
    <glyph glyph-name="uniFBB1" unicode="&#x6d3;" horiz-adv-x="1670" arabic-form="final" 
d="M1144 215q101 -2 90 -129q-7 -79 -23 -97.5t-37 -18.5q-534 -1 -845 -284l-2 -2q30 -33 105 -41q214 -22 911 14q29 1 47 -8q48 -23 25 -82l-34 -83q-26 -62 -80 -66q-553 -24 -801 -22t-319 94q-33 46 -26 96q24 178 159 324q283 304 830 305zM1481 759
q-107 -22 -151.5 -36.5t-162.5 -69.5q-36 -14 -59 13q-34 46 50 109q-66 38 -81 84q-27 90 47 213t180 115q78 -6 80 -80.5t-16.5 -105t-27.5 -37.5q-28 -20 -52.5 10.5t-57.5 33.5t-46.5 -15t4.5 -34q73 -60 197 -64q20 0 60.5 10t62 9t35.5 -20q14 -20 9 -37
q-32 -89 -71 -98zM1506 296q70 -77 138 -82q56 -5 71 -42q9 -26 9 -86t-10 -87.5t-40 -28.5q-119 0 -238 130q-110 -130 -262 -130q-44 1 -62 55l-28 83q-11 34 6.5 69t53.5 38q240 18 284 120q13 31 35 31q30 0 35.5 -33.5t7.5 -36.5z" />
    <glyph glyph-name="uniFBD3" unicode="&#x6ad;" horiz-adv-x="1347" arabic-form="isolated" 
d="M196 1843q10 17 34 10q88 -30 161 -88q19 -17 10 -37l-79 -155q-13 -21 -36 -4.5t-159 92.5q-23 13 -11 33zM369 1614q10 17 34 10q88 -30 161 -88q19 -17 11 -37l-79 -155q-13 -22 -34.5 -6.5t-101.5 61.5l-52 -102q-13 -21 -36 -4.5t-159 92.5q-23 13 -12 34l81 148
q20 34 140 -39zM446 1188q18 3 29 -12t7 -29l-30 -109q-10 -33 -29 -38q-47 -11 -65 -35q33 -23 96.5 -32t84.5 -23q83 -56 -19 -227q-41 -66 -84 -78t-149 -1.5t-172 34.5q-33 13 -35.5 34t5 30.5t41.5 11.5t147.5 5t155.5 17l-61 14q-56 13 -92 48t-32 77q31 265 202 313z
M761 1646q22 57 72.5 -27t119.5 -137q46 -35 18 -79l-42 -66q224 -722 254 -979q15 -134 -29 -269q-29 -89 -270 -110q-151 -12 -380.5 -8.5t-358.5 23.5q-37 6 -41 31q-20 106 -31 211q-4 39 31 29q143 -38 289 -41q572 -10 703 65q-3 37 -309 1039q-7 27 -56 122
q-26 51 -10 94z" />
    <glyph glyph-name="uniFBD4" unicode="&#x6ad;" horiz-adv-x="1685" arabic-form="final" 
d="M506 1849q10 17 34 10q88 -30 161 -88q19 -17 10 -37l-79 -155q-13 -21 -36 -4.5t-159 92.5q-23 13 -11 33zM679 1620q10 17 34 10q88 -30 161 -88q19 -17 11 -37l-79 -155q-13 -22 -34.5 -6.5t-101.5 61.5l-52 -102q-13 -21 -36 -4.5t-159 92.5q-23 13 -12 34l81 148
q20 34 140 -39zM755 1194q18 3 29 -12t7 -29l-30 -109q-10 -33 -29 -38q-47 -11 -65 -35q33 -23 96.5 -32t84.5 -23q83 -56 -19 -227q-41 -66 -84 -78t-149 -1.5t-172 34.5q-33 13 -35.5 34t5 30.5t41.5 11.5t147.5 5t155.5 17l-61 14q-56 13 -92 48t-32 77q31 265 202 313z
M1689 -30q-221 0 -295 372q-117 -408 -697 -429q-449 -16 -558 206t29 454q34 57 59.5 32.5t0.5 -69.5q-66 -127 -50 -177q63 -188 454 -193q273 -4 533 106q106 45 136 109q8 17 5 79t-67 373.5t-66 321.5q-32 138 -11 175l56 103q56 103 79 -43q9 -56 98 -501
q84 -421 138.5 -535.5t124.5 -137.5t88.5 -81t-1 -111.5t-56.5 -53.5z" />
    <glyph glyph-name="uniFBD5" unicode="&#x6ad;" horiz-adv-x="1350" arabic-form="initial" 
d="M-39 1829q10 17 34 10q88 -30 161 -88q19 -17 10 -37l-79 -155q-13 -21 -36 -4.5t-159 92.5q-23 13 -11 33zM134 1600q10 17 34 10q88 -30 161 -88q19 -17 11 -37l-79 -155q-13 -22 -34.5 -6.5t-101.5 61.5l-52 -102q-13 -21 -36 -4.5t-159 92.5q-23 13 -12 34l81 148
q20 34 140 -39zM-22 215q331 -44 490 124q-213 247 -430 326q-52 19 -76 171q-24 154 44 225q276 282 993 507q52 16 44 -35l-27 -180q-7 -45 -40 -57q-759 -277 -936 -413q456 -230 493 -530q38 -310 -165 -362q-216 -55 -386 -24q-49 9 -65 71q-23 93 -20 111q12 75 81 66
z" />
    <glyph glyph-name="uniFBD6" unicode="&#x6ad;" horiz-adv-x="1206" arabic-form="medial" 
d="M-109 1853q10 17 34 10q88 -30 161 -88q19 -17 10 -37l-79 -155q-13 -21 -36 -4.5t-159 92.5q-23 13 -11 33zM64 1624q10 17 34 10q88 -30 161 -88q19 -17 11 -37l-79 -155q-13 -22 -34.5 -6.5t-101.5 61.5l-52 -102q-13 -21 -36 -4.5t-159 92.5q-23 13 -12 34l81 148
q20 34 140 -39zM-101 122q-12 99 101 90q320 -26 479 133q-62 149 -467 341q-49 68 -62 197q-10 85 11 119q199 354 945 693q65 30 56 -49l-20 -178q-4 -32 -37 -49q-627 -331 -851 -544q392 -162 758 -461q228 -186 369 -200q114 -12 80 -188q-11 -57 -54 -57
q-170 1 -484 293q-106 99 -182 152q9 -78 8 -114q-9 -344 -447 -343q-75 0 -120 10q-66 15 -83 155z" />
    <glyph glyph-name="uniFBD7" unicode="&#x6c7;" horiz-adv-x="821" arabic-form="isolated" 
d="M333 1376q38 10 67 -23q23 -29 31 -78q7 -48 -19 -141q32 -18 47 -26q25 -14 14 -46l-19 -51q-12 -30 -90 11q-96 -145 -182 -196q-47 -26 -68 -2q-19 27 33 69q86 68 151 166q-128 65 -95 167q43 124 130 150zM332 1224q-14 18 -40 6q-16 -8 -21 -14q20 -20 71 -47
q3 35 -10 55zM492 321q-71 96 -129 9q60 -58 129 -9zM286 418q53 219 150 216q75 -2 140.5 -92.5t88.5 -204t-1 -300.5t-136 -347q-112 -158 -202 -168q-70 -8 -220 22q-144 29 -219 58q-24 9 -21 34.5t36 20.5q123 -19 290 22q79 19 226 159.5t168 228.5q-7 23 -25 60
q-73 -110 -201 -55q-143 61 -74 346z" />
    <glyph glyph-name="uniFBD8" unicode="&#x6c7;" horiz-adv-x="708" arabic-form="final" 
d="M342 1249q38 10 67 -23q23 -29 31 -78q7 -48 -19 -141q32 -18 47 -26q25 -14 14 -46l-19 -51q-12 -30 -90 11q-96 -145 -182 -196q-47 -26 -68 -2q-19 27 33 69q86 68 151 166q-128 65 -95 167q43 124 130 150zM341 1097q-14 18 -40 6q-16 -8 -21 -14q20 -20 71 -47
q3 35 -10 55zM542 206q-50 86 -109 84q-35 -5 -47.5 -24t3.5 -37q37 -41 146 -39q13 0 7 16zM678 -31q-25 -390 -319 -529q-84 -40 -162 -40q-104 0 -294 144q-34 24 -25 44t50 5q192 -64 403 75.5t257 311.5q-156 7 -224 46q-87 50 -75 178q21 202 108 260q94 61 171 -26
q57 -64 94 -221q75 3 94 -73q13 -51 4 -112q-9 -60 -47 -62q-17 -1 -35 -1z" />
    <glyph glyph-name="uniFBD9" unicode="&#x6c6;" horiz-adv-x="821" arabic-form="isolated" 
d="M502 1207l45 -56q22 -30 6 -54q-79 -164 -98 -283q-2 -5 -4 -8l-18 -14q-22 -16 -47 10q-136 146 -223 311q-27 53 11.5 66.5t63.5 -33.5q33 -66 108 -174q27 134 96 232q15 19 31.5 18.5t28.5 -15.5zM492 321q-71 96 -129 9q60 -58 129 -9zM286 418q53 219 150 216
q75 -2 140.5 -92.5t88.5 -204t-1 -300.5t-136 -347q-112 -158 -202 -168q-70 -8 -220 22q-144 29 -219 58q-24 9 -21 34.5t36 20.5q123 -19 290 22q79 19 226 159.5t168 228.5q-7 23 -25 60q-73 -110 -201 -55q-143 61 -74 346z" />
    <glyph glyph-name="uniFBDA" unicode="&#x6c6;" horiz-adv-x="708" arabic-form="final" 
d="M511 1077l45 -56q22 -30 6 -54q-79 -164 -98 -283q-2 -5 -4 -8l-18 -14q-22 -16 -47 10q-136 146 -223 311q-27 53 11.5 66.5t63.5 -33.5q33 -66 108 -174q27 134 96 232q15 19 31.5 18.5t28.5 -15.5zM542 206q-50 86 -109 84q-35 -5 -47.5 -24t3.5 -37q37 -41 146 -39
q13 0 7 16zM678 -31q-25 -390 -319 -529q-84 -40 -162 -40q-104 0 -294 144q-34 24 -25 44t50 5q192 -64 403 75.5t257 311.5q-156 7 -224 46q-87 50 -75 178q21 202 108 260q94 61 171 -26q57 -64 94 -221q75 3 94 -73q13 -51 4 -112q-9 -60 -47 -62q-17 -1 -35 -1z" />
    <glyph glyph-name="uniFBDB" unicode="&#x6c8;" horiz-adv-x="821" arabic-form="isolated" 
d="M164 1299q15 55 63 4q226 -222 206 -561q-4 -30 -23 -32q-40 -6 -48 32q-53 209 -201 367q-25 27 -20 59zM492 321q-71 96 -129 9q60 -58 129 -9zM286 418q53 219 150 216q75 -2 140.5 -92.5t88.5 -204t-1 -300.5t-136 -347q-112 -158 -202 -168q-70 -8 -220 22
q-144 29 -219 58q-24 9 -21 34.5t36 20.5q123 -19 290 22q79 19 226 159.5t168 228.5q-7 23 -25 60q-73 -110 -201 -55q-143 61 -74 346z" />
    <glyph glyph-name="uniFBDC" unicode="&#x6c8;" horiz-adv-x="708" arabic-form="final" 
d="M173 1172q15 55 63 4q226 -222 206 -561q-4 -30 -23 -32q-40 -6 -48 32q-53 209 -201 367q-25 27 -20 59zM542 206q-50 86 -109 84q-35 -5 -47.5 -24t3.5 -37q37 -41 146 -39q13 0 7 16zM678 -31q-25 -390 -319 -529q-84 -40 -162 -40q-104 0 -294 144q-34 24 -25 44
t50 5q192 -64 403 75.5t257 311.5q-156 7 -224 46q-87 50 -75 178q21 202 108 260q94 61 171 -26q57 -64 94 -221q75 3 94 -73q13 -51 4 -112q-9 -60 -47 -62q-17 -1 -35 -1z" />
    <glyph glyph-name="uniFBDD" unicode="&#x677;" horiz-adv-x="1021" arabic-form="isolated" 
d="M695 919q-107 -22 -151.5 -36.5t-162.5 -69.5q-36 -14 -59 13q-34 46 50 109q-66 38 -81 84q-27 90 47 213t180 115q78 -6 80 -80.5t-16.5 -105t-27.5 -37.5q-28 -20 -52.5 10.5t-57.5 33.5t-46.5 -15t4.5 -34q73 -60 197 -64q20 0 60.5 10t62 9t35.5 -20q14 -20 9 -37
q-32 -89 -71 -98zM114 1376q38 10 67 -23q23 -29 31 -78q7 -48 -19 -141q32 -18 47 -26q25 -14 14 -46l-19 -51q-12 -30 -90 11q-96 -145 -182 -196q-47 -26 -68 -2q-19 27 33 69q86 68 151 166q-128 65 -95 167q43 124 130 150zM113 1224q-14 18 -40 6q-16 -8 -21 -14
q20 -20 71 -47q3 35 -10 55zM692 321q-71 96 -129 9q60 -58 129 -9zM486 418q53 219 150 216q75 -2 140.5 -92.5t88.5 -204t-1 -300.5t-136 -347q-112 -158 -202 -168q-70 -8 -220 22q-144 29 -219 58q-24 9 -21 34.5t36 20.5q123 -19 290 22q79 19 226 159.5t168 228.5
q-7 23 -25 60q-73 -110 -201 -55q-143 61 -74 346z" />
    <glyph glyph-name="uniFBDE" unicode="&#x6cb;" horiz-adv-x="821" arabic-form="isolated" 
d="M153 1303q10 17 34 10q88 -30 161 -88q19 -17 10 -37l-79 -155q-13 -21 -36 -4.5t-159 92.5q-23 13 -11 33zM326 1074q10 17 34 10q88 -30 161 -88q19 -17 11 -37l-79 -155q-13 -22 -34.5 -6.5t-101.5 61.5l-52 -102q-13 -21 -36 -4.5t-159 92.5q-23 13 -12 34l81 148
q20 34 140 -39zM492 321q-71 96 -129 9q60 -58 129 -9zM286 418q53 219 150 216q75 -2 140.5 -92.5t88.5 -204t-1 -300.5t-136 -347q-112 -158 -202 -168q-70 -8 -220 22q-144 29 -219 58q-24 9 -21 34.5t36 20.5q123 -19 290 22q79 19 226 159.5t168 228.5q-7 23 -25 60
q-73 -110 -201 -55q-143 61 -74 346z" />
    <glyph glyph-name="uniFBDF" unicode="&#x6cb;" horiz-adv-x="708" arabic-form="final" 
d="M161 1176q10 17 34 10q88 -30 161 -88q19 -17 10 -37l-79 -155q-13 -21 -36 -4.5t-159 92.5q-23 13 -11 33zM334 947q10 17 34 10q88 -30 161 -88q19 -17 11 -37l-79 -155q-13 -22 -34.5 -6.5t-101.5 61.5l-52 -102q-13 -21 -36 -4.5t-159 92.5q-23 13 -12 34l81 148
q20 34 140 -39zM542 206q-50 86 -109 84q-35 -5 -47.5 -24t3.5 -37q37 -41 146 -39q13 0 7 16zM678 -31q-25 -390 -319 -529q-84 -40 -162 -40q-104 0 -294 144q-34 24 -25 44t50 5q192 -64 403 75.5t257 311.5q-156 7 -224 46q-87 50 -75 178q21 202 108 260q94 61 171 -26
q57 -64 94 -221q75 3 94 -73q13 -51 4 -112q-9 -60 -47 -62q-17 -1 -35 -1z" />
    <glyph glyph-name="uniFBE0" unicode="&#x6c5;" horiz-adv-x="821" arabic-form="isolated" 
d="M350 69h514l-51 -185h-514zM492 321q-71 96 -129 9q60 -58 129 -9zM286 418q53 219 150 216q75 -2 140.5 -92.5t88.5 -204t-1 -300.5t-136 -347q-112 -158 -202 -168q-70 -8 -220 22q-144 29 -219 58q-24 9 -21 34.5t36 20.5q123 -19 290 22q79 19 226 159.5t168 228.5
q-7 23 -25 60q-73 -110 -201 -55q-143 61 -74 346z" />
    <glyph glyph-name="uniFBE1" unicode="&#x6c5;" horiz-adv-x="708" arabic-form="final" 
d="M320 -101h514l-51 -185h-514zM542 206q-50 86 -109 84q-35 -5 -47.5 -24t3.5 -37q37 -41 146 -39q13 0 7 16zM678 -31q-25 -390 -319 -529q-84 -40 -162 -40q-104 0 -294 144q-34 24 -25 44t50 5q192 -64 403 75.5t257 311.5q-156 7 -224 46q-87 50 -75 178
q21 202 108 260q94 61 171 -26q57 -64 94 -221q75 3 94 -73q13 -51 4 -112q-9 -60 -47 -62q-17 -1 -35 -1z" />
    <glyph glyph-name="uniFBE2" unicode="&#x6c9;" horiz-adv-x="821" arabic-form="isolated" 
d="M287 854q-6 -42 -43 -41t-44 37q-1 12 2 28q28 173 109 330q18 28 43.5 14t28.5 -18q62 -116 195 -267q24 -24 12 -55l-24 -60q-7 -16 -24 -18t-37 15q-101 89 -173 217q-36 -115 -45 -182zM492 321q-71 96 -129 9q60 -58 129 -9zM286 418q53 219 150 216
q75 -2 140.5 -92.5t88.5 -204t-1 -300.5t-136 -347q-112 -158 -202 -168q-70 -8 -220 22q-144 29 -219 58q-24 9 -21 34.5t36 20.5q123 -19 290 22q79 19 226 159.5t168 228.5q-7 23 -25 60q-73 -110 -201 -55q-143 61 -74 346z" />
    <glyph glyph-name="uniFBE3" unicode="&#x6c9;" horiz-adv-x="708" arabic-form="final" 
d="M296 724q-6 -42 -43 -41t-44 37q-1 12 2 28q28 173 109 330q18 28 43.5 14t28.5 -18q62 -116 195 -267q24 -24 12 -55l-24 -60q-7 -16 -24 -18t-37 15q-101 89 -173 217q-36 -115 -45 -182zM542 206q-50 86 -109 84q-35 -5 -47.5 -24t3.5 -37q37 -41 146 -39q13 0 7 16z
M678 -31q-25 -390 -319 -529q-84 -40 -162 -40q-104 0 -294 144q-34 24 -25 44t50 5q192 -64 403 75.5t257 311.5q-156 7 -224 46q-87 50 -75 178q21 202 108 260q94 61 171 -26q57 -64 94 -221q75 3 94 -73q13 -51 4 -112q-9 -60 -47 -62q-17 -1 -35 -1z" />
    <glyph glyph-name="uniFBE4" unicode="&#x6d0;" horiz-adv-x="1566" arabic-form="isolated" 
d="M753 -581q10 17 34 10q87 -30 160 -88q19 -17 11 -37l-46 -91q52 -26 99 -62q19 -17 10 -37l-79 -155q-13 -21 -36 -4.5t-160 92.5q-22 13 -11 34l53 97q-39 23 -105 59q-22 13 -11 34zM1292 564q-110 54 -278 -40q-137 -77 -154 -187q-3 -15 7 -32q45 -80 269 -91.5
t249 -111.5q52 -197 -48 -285q-273 -243 -654 -258q-474 -19 -552 358q-39 190 35 392q40 109 98 196q28 42 51 19t-4 -71q-147 -266 -60 -434q109 -212 419 -207q369 7 578 183q-50 17 -205 27q-200 14 -250.5 120t-24.5 223q58 253 231 391q147 116 269.5 84.5
t94.5 -224.5q-12 -80 -71 -52z" />
    <glyph glyph-name="uniFBE5" unicode="&#x6d0;" horiz-adv-x="1200" arabic-form="final" 
d="M810 -869q10 17 34 10q87 -30 160 -88q19 -17 11 -37l-46 -91q52 -26 99 -62q19 -17 10 -37l-79 -155q-13 -21 -36 -4.5t-160 92.5q-22 13 -11 34l53 97q-39 23 -105 59q-22 13 -11 34zM153 -255q-2 194 91 407q17 38 48 21t12 -61q-116 -278 -26 -416q129 -203 425 -190
q333 16 558 219q-50 16 -181.5 25t-153.5 17q-56 21 -79 68q-40 85 6 170q78 143 313 209q36 10 68.5 -11t32.5 -106.5t-20.5 -105t-101 -20.5t-86.5 -14q293 -14 346 -145q19 -46 -7 -129t-53 -117q-258 -298 -622 -313q-275 -11 -434 131q-133 118 -136 361z" />
    <glyph glyph-name="uniFBE6" unicode="&#x6d0;" horiz-adv-x="390" arabic-form="initial" 
d="M151 -222q10 17 34 10q87 -30 160 -88q19 -17 11 -37l-46 -91q52 -26 99 -62q19 -17 10 -37l-79 -155q-13 -21 -36 -4.5t-160 92.5q-22 13 -11 34l53 97q-39 23 -105 59q-22 13 -11 34zM51 436l43 127q23 68 51 27q121 -173 95 -396.5t-236 -223.5q-42 0 -68 68.5
t-30.5 111t36.5 59.5q15 6 32 6q119 -3 167 47q-17 51 -60 92t-30 82z" />
    <glyph glyph-name="uniFBE7" unicode="&#x6d0;" horiz-adv-x="500" arabic-form="medial" 
d="M241 -222q10 17 34 10q87 -30 160 -88q19 -17 11 -37l-46 -91q52 -26 99 -62q19 -17 10 -37l-79 -155q-13 -21 -36 -4.5t-160 92.5q-22 13 -11 34l53 97q-39 23 -105 59q-22 13 -11 34zM336 296q70 -77 138 -82q56 -5 71 -42q9 -26 9 -86t-10 -87.5t-40 -28.5
q-119 0 -238 130q-110 -130 -262 -130q-44 1 -62 55l-28 83q-11 34 6.5 69t53.5 38q240 18 284 120q13 31 35 31q30 0 35.5 -33.5t7.5 -36.5z" />
    <glyph glyph-name="uniFBE8" unicode="&#x649;" horiz-adv-x="390" arabic-form="initial" 
d="M51 436l43 127q23 68 51 27q121 -173 95 -396.5t-236 -223.5q-42 0 -68 68.5t-30.5 111t36.5 59.5q15 6 32 6q119 -3 167 47q-17 51 -60 92t-30 82z" />
    <glyph glyph-name="uniFBE9" unicode="&#x649;" horiz-adv-x="500" arabic-form="medial" 
d="M336 296q70 -77 138 -82q56 -5 71 -42q9 -26 9 -86t-10 -87.5t-40 -28.5q-119 0 -238 130q-110 -130 -262 -130q-44 1 -62 55l-28 83q-11 34 6.5 69t53.5 38q240 18 284 120q13 31 35 31q30 0 35.5 -33.5t7.5 -36.5z" />
    <glyph glyph-name="uniFBEA" unicode="&#xfbea;" horiz-adv-x="860" arabic-form="isolated" 
d="M-20 1485q31 68 51 -14q90 -380 136.5 -697t59.5 -386q30 -160 215 -172q63 -4 80 -62q7 -23 4.5 -76t-12.5 -80t-40 -28q-290 0 -342 277q-24 127 -69 432q-42 276 -143 592q-16 51 0 85zM698 819q-107 -22 -151.5 -36.5t-162.5 -69.5q-36 -14 -59 13q-34 46 50 109
q-66 38 -81 84q-27 90 47 213t180 115q78 -6 80 -80.5t-16.5 -105t-27.5 -37.5q-28 -20 -52.5 10.5t-57.5 33.5t-46.5 -15t4.5 -34q73 -60 197 -64q20 0 60.5 10t62 9t35.5 -20q14 -20 9 -37q-32 -89 -71 -98zM521 436l43 127q23 68 51 27q121 -173 95 -396.5t-236 -223.5
q-42 0 -68 68.5t-30.5 111t36.5 59.5q15 6 32 6q119 -3 167 47q-17 51 -60 92t-30 82z" />
    <glyph glyph-name="uniFBEB" unicode="&#xfbeb;" horiz-adv-x="970" arabic-form="final" 
d="M-20 1485q31 68 51 -14q90 -380 136.5 -697t59.5 -386q30 -160 215 -172q63 -4 80 -62q7 -23 4.5 -76t-12.5 -80t-40 -28q-290 0 -342 277q-24 127 -69 432q-42 276 -143 592q-16 51 0 85zM781 759q-107 -22 -151.5 -36.5t-162.5 -69.5q-36 -14 -59 13q-34 46 50 109
q-66 38 -81 84q-27 90 47 213t180 115q78 -6 80 -80.5t-16.5 -105t-27.5 -37.5q-28 -20 -52.5 10.5t-57.5 33.5t-46.5 -15t4.5 -34q73 -60 197 -64q20 0 60.5 10t62 9t35.5 -20q14 -20 9 -37q-32 -89 -71 -98zM806 296q70 -77 138 -82q56 -5 71 -42q9 -26 9 -86t-10 -87.5
t-40 -28.5q-119 0 -238 130q-110 -130 -262 -130q-44 1 -62 55l-28 83q-11 34 6.5 69t53.5 38q240 18 284 120q13 31 35 31q30 0 35.5 -33.5t7.5 -36.5z" />
    <glyph glyph-name="uniFBEC" unicode="&#xfbec;" horiz-adv-x="1167" arabic-form="isolated" 
d="M414 535q-150 -49 -196 -132q-8 -13 7 -21q108 -42 230 -7q-16 65 -41 160zM414 950q40 57 64 -56l119 -490q47 -192 153 -189q47 1 72 -46q25 -51 12.5 -124.5t-53.5 -74.5q-129 0 -190 65.5t-101 222.5q-64 -115 -93 -130t-102 -10q-98 7 -174 52q-52 31 -51.5 88
t30.5 132t52 104q87 106 224 189q-36 160 -13 192zM1005 819q-107 -22 -151.5 -36.5t-162.5 -69.5q-36 -14 -59 13q-34 46 50 109q-66 38 -81 84q-27 90 47 213t180 115q78 -6 80 -80.5t-16.5 -105t-27.5 -37.5q-28 -20 -52.5 10.5t-57.5 33.5t-46.5 -15t4.5 -34
q73 -60 197 -64q20 0 60.5 10t62 9t35.5 -20q14 -20 9 -37q-32 -89 -71 -98zM828 436l43 127q23 68 51 27q121 -173 95 -396.5t-236 -223.5q-42 0 -68 68.5t-30.5 111t36.5 59.5q15 6 32 6q119 -3 167 47q-17 51 -60 92t-30 82z" />
    <glyph glyph-name="uniFBED" unicode="&#xfbed;" horiz-adv-x="1277" arabic-form="final" 
d="M414 535q-150 -49 -196 -132q-8 -13 7 -21q108 -42 230 -7q-16 65 -41 160zM414 950q40 57 64 -56l119 -490q47 -192 153 -189q47 1 72 -46q25 -51 12.5 -124.5t-53.5 -74.5q-129 0 -190 65.5t-101 222.5q-64 -115 -93 -130t-102 -10q-98 7 -174 52q-52 31 -51.5 88
t30.5 132t52 104q87 106 224 189q-36 160 -13 192zM1088 759q-107 -22 -151.5 -36.5t-162.5 -69.5q-36 -14 -59 13q-34 46 50 109q-66 38 -81 84q-27 90 47 213t180 115q78 -6 80 -80.5t-16.5 -105t-27.5 -37.5q-28 -20 -52.5 10.5t-57.5 33.5t-46.5 -15t4.5 -34
q73 -60 197 -64q20 0 60.5 10t62 9t35.5 -20q14 -20 9 -37q-32 -89 -71 -98zM1113 296q70 -77 138 -82q56 -5 71 -42q9 -26 9 -86t-10 -87.5t-40 -28.5q-119 0 -238 130q-110 -130 -262 -130q-44 1 -62 55l-28 83q-11 34 6.5 69t53.5 38q240 18 284 120q13 31 35 31
q30 0 35.5 -33.5t7.5 -36.5z" />
    <glyph glyph-name="uniFBEE" unicode="&#xfbee;" horiz-adv-x="1098" arabic-form="isolated" 
d="M542 206q-50 86 -109 84q-35 -5 -47.5 -24t3.5 -37q37 -41 146 -39q13 0 7 16zM678 -31q-25 -390 -319 -529q-84 -40 -162 -40q-104 0 -294 144q-34 24 -25 44t50 5q192 -64 403 75.5t257 311.5q-156 7 -224 46q-87 50 -75 178q21 202 108 260q94 61 171 -26
q57 -64 94 -221q75 3 94 -73q13 -51 4 -112q-9 -60 -47 -62q-17 -1 -35 -1zM936 819q-107 -22 -151.5 -36.5t-162.5 -69.5q-36 -14 -59 13q-34 46 50 109q-66 38 -81 84q-27 90 47 213t180 115q78 -6 80 -80.5t-16.5 -105t-27.5 -37.5q-28 -20 -52.5 10.5t-57.5 33.5
t-46.5 -15t4.5 -34q73 -60 197 -64q20 0 60.5 10t62 9t35.5 -20q14 -20 9 -37q-32 -89 -71 -98zM759 436l43 127q23 68 51 27q121 -173 95 -396.5t-236 -223.5q-42 0 -68 68.5t-30.5 111t36.5 59.5q15 6 32 6q119 -3 167 47q-17 51 -60 92t-30 82z" />
    <glyph glyph-name="uniFBEF" unicode="&#xfbef;" horiz-adv-x="1208" arabic-form="final" 
d="M542 206q-50 86 -109 84q-35 -5 -47.5 -24t3.5 -37q37 -41 146 -39q13 0 7 16zM678 -31q-25 -390 -319 -529q-84 -40 -162 -40q-104 0 -294 144q-34 24 -25 44t50 5q192 -64 403 75.5t257 311.5q-156 7 -224 46q-87 50 -75 178q21 202 108 260q94 61 171 -26
q57 -64 94 -221q75 3 94 -73q13 -51 4 -112q-9 -60 -47 -62q-17 -1 -35 -1zM1019 759q-107 -22 -151.5 -36.5t-162.5 -69.5q-36 -14 -59 13q-34 46 50 109q-66 38 -81 84q-27 90 47 213t180 115q78 -6 80 -80.5t-16.5 -105t-27.5 -37.5q-28 -20 -52.5 10.5t-57.5 33.5
t-46.5 -15t4.5 -34q73 -60 197 -64q20 0 60.5 10t62 9t35.5 -20q14 -20 9 -37q-32 -89 -71 -98zM1044 296q70 -77 138 -82q56 -5 71 -42q9 -26 9 -86t-10 -87.5t-40 -28.5q-119 0 -238 130q-110 -130 -262 -130q-44 1 -62 55l-28 83q-11 34 6.5 69t53.5 38q240 18 284 120
q13 31 35 31q30 0 35.5 -33.5t7.5 -36.5z" />
    <glyph glyph-name="uniFBF0" unicode="&#xfbf0;" horiz-adv-x="1098" arabic-form="isolated" 
d="M342 1249q38 10 67 -23q23 -29 31 -78q7 -48 -19 -141q32 -18 47 -26q25 -14 14 -46l-19 -51q-12 -30 -90 11q-96 -145 -182 -196q-47 -26 -68 -2q-19 27 33 69q86 68 151 166q-128 65 -95 167q43 124 130 150zM341 1097q-14 18 -40 6q-16 -8 -21 -14q20 -20 71 -47
q3 35 -10 55zM542 206q-50 86 -109 84q-35 -5 -47.5 -24t3.5 -37q37 -41 146 -39q13 0 7 16zM678 -31q-25 -390 -319 -529q-84 -40 -162 -40q-104 0 -294 144q-34 24 -25 44t50 5q192 -64 403 75.5t257 311.5q-156 7 -224 46q-87 50 -75 178q21 202 108 260q94 61 171 -26
q57 -64 94 -221q75 3 94 -73q13 -51 4 -112q-9 -60 -47 -62q-17 -1 -35 -1zM936 819q-107 -22 -151.5 -36.5t-162.5 -69.5q-36 -14 -59 13q-34 46 50 109q-66 38 -81 84q-27 90 47 213t180 115q78 -6 80 -80.5t-16.5 -105t-27.5 -37.5q-28 -20 -52.5 10.5t-57.5 33.5
t-46.5 -15t4.5 -34q73 -60 197 -64q20 0 60.5 10t62 9t35.5 -20q14 -20 9 -37q-32 -89 -71 -98zM759 436l43 127q23 68 51 27q121 -173 95 -396.5t-236 -223.5q-42 0 -68 68.5t-30.5 111t36.5 59.5q15 6 32 6q119 -3 167 47q-17 51 -60 92t-30 82z" />
    <glyph glyph-name="uniFBF1" unicode="&#xfbf1;" horiz-adv-x="1208" arabic-form="final" 
d="M342 1249q38 10 67 -23q23 -29 31 -78q7 -48 -19 -141q32 -18 47 -26q25 -14 14 -46l-19 -51q-12 -30 -90 11q-96 -145 -182 -196q-47 -26 -68 -2q-19 27 33 69q86 68 151 166q-128 65 -95 167q43 124 130 150zM341 1097q-14 18 -40 6q-16 -8 -21 -14q20 -20 71 -47
q3 35 -10 55zM542 206q-50 86 -109 84q-35 -5 -47.5 -24t3.5 -37q37 -41 146 -39q13 0 7 16zM678 -31q-25 -390 -319 -529q-84 -40 -162 -40q-104 0 -294 144q-34 24 -25 44t50 5q192 -64 403 75.5t257 311.5q-156 7 -224 46q-87 50 -75 178q21 202 108 260q94 61 171 -26
q57 -64 94 -221q75 3 94 -73q13 -51 4 -112q-9 -60 -47 -62q-17 -1 -35 -1zM1019 759q-107 -22 -151.5 -36.5t-162.5 -69.5q-36 -14 -59 13q-34 46 50 109q-66 38 -81 84q-27 90 47 213t180 115q78 -6 80 -80.5t-16.5 -105t-27.5 -37.5q-28 -20 -52.5 10.5t-57.5 33.5
t-46.5 -15t4.5 -34q73 -60 197 -64q20 0 60.5 10t62 9t35.5 -20q14 -20 9 -37q-32 -89 -71 -98zM1044 296q70 -77 138 -82q56 -5 71 -42q9 -26 9 -86t-10 -87.5t-40 -28.5q-119 0 -238 130q-110 -130 -262 -130q-44 1 -62 55l-28 83q-11 34 6.5 69t53.5 38q240 18 284 120
q13 31 35 31q30 0 35.5 -33.5t7.5 -36.5z" />
    <glyph glyph-name="uniFBF2" unicode="&#xfbf2;" horiz-adv-x="1098" arabic-form="isolated" 
d="M511 1077l45 -56q22 -30 6 -54q-79 -164 -98 -283q-2 -5 -4 -8l-18 -14q-22 -16 -47 10q-136 146 -223 311q-27 53 11.5 66.5t63.5 -33.5q33 -66 108 -174q27 134 96 232q15 19 31.5 18.5t28.5 -15.5zM542 206q-50 86 -109 84q-35 -5 -47.5 -24t3.5 -37q37 -41 146 -39
q13 0 7 16zM678 -31q-25 -390 -319 -529q-84 -40 -162 -40q-104 0 -294 144q-34 24 -25 44t50 5q192 -64 403 75.5t257 311.5q-156 7 -224 46q-87 50 -75 178q21 202 108 260q94 61 171 -26q57 -64 94 -221q75 3 94 -73q13 -51 4 -112q-9 -60 -47 -62q-17 -1 -35 -1z
M936 819q-107 -22 -151.5 -36.5t-162.5 -69.5q-36 -14 -59 13q-34 46 50 109q-66 38 -81 84q-27 90 47 213t180 115q78 -6 80 -80.5t-16.5 -105t-27.5 -37.5q-28 -20 -52.5 10.5t-57.5 33.5t-46.5 -15t4.5 -34q73 -60 197 -64q20 0 60.5 10t62 9t35.5 -20q14 -20 9 -37
q-32 -89 -71 -98zM759 436l43 127q23 68 51 27q121 -173 95 -396.5t-236 -223.5q-42 0 -68 68.5t-30.5 111t36.5 59.5q15 6 32 6q119 -3 167 47q-17 51 -60 92t-30 82z" />
    <glyph glyph-name="uniFBF3" unicode="&#xfbf3;" horiz-adv-x="1208" arabic-form="final" 
d="M511 1077l45 -56q22 -30 6 -54q-79 -164 -98 -283q-2 -5 -4 -8l-18 -14q-22 -16 -47 10q-136 146 -223 311q-27 53 11.5 66.5t63.5 -33.5q33 -66 108 -174q27 134 96 232q15 19 31.5 18.5t28.5 -15.5zM542 206q-50 86 -109 84q-35 -5 -47.5 -24t3.5 -37q37 -41 146 -39
q13 0 7 16zM678 -31q-25 -390 -319 -529q-84 -40 -162 -40q-104 0 -294 144q-34 24 -25 44t50 5q192 -64 403 75.5t257 311.5q-156 7 -224 46q-87 50 -75 178q21 202 108 260q94 61 171 -26q57 -64 94 -221q75 3 94 -73q13 -51 4 -112q-9 -60 -47 -62q-17 -1 -35 -1z
M1019 759q-107 -22 -151.5 -36.5t-162.5 -69.5q-36 -14 -59 13q-34 46 50 109q-66 38 -81 84q-27 90 47 213t180 115q78 -6 80 -80.5t-16.5 -105t-27.5 -37.5q-28 -20 -52.5 10.5t-57.5 33.5t-46.5 -15t4.5 -34q73 -60 197 -64q20 0 60.5 10t62 9t35.5 -20q14 -20 9 -37
q-32 -89 -71 -98zM1044 296q70 -77 138 -82q56 -5 71 -42q9 -26 9 -86t-10 -87.5t-40 -28.5q-119 0 -238 130q-110 -130 -262 -130q-44 1 -62 55l-28 83q-11 34 6.5 69t53.5 38q240 18 284 120q13 31 35 31q30 0 35.5 -33.5t7.5 -36.5z" />
    <glyph glyph-name="uniFBF4" unicode="&#xfbf4;" horiz-adv-x="1098" arabic-form="isolated" 
d="M173 1172q15 55 63 4q226 -222 206 -561q-4 -30 -23 -32q-40 -6 -48 32q-53 209 -201 367q-25 27 -20 59zM542 206q-50 86 -109 84q-35 -5 -47.5 -24t3.5 -37q37 -41 146 -39q13 0 7 16zM678 -31q-25 -390 -319 -529q-84 -40 -162 -40q-104 0 -294 144q-34 24 -25 44
t50 5q192 -64 403 75.5t257 311.5q-156 7 -224 46q-87 50 -75 178q21 202 108 260q94 61 171 -26q57 -64 94 -221q75 3 94 -73q13 -51 4 -112q-9 -60 -47 -62q-17 -1 -35 -1zM936 819q-107 -22 -151.5 -36.5t-162.5 -69.5q-36 -14 -59 13q-34 46 50 109q-66 38 -81 84
q-27 90 47 213t180 115q78 -6 80 -80.5t-16.5 -105t-27.5 -37.5q-28 -20 -52.5 10.5t-57.5 33.5t-46.5 -15t4.5 -34q73 -60 197 -64q20 0 60.5 10t62 9t35.5 -20q14 -20 9 -37q-32 -89 -71 -98zM759 436l43 127q23 68 51 27q121 -173 95 -396.5t-236 -223.5q-42 0 -68 68.5
t-30.5 111t36.5 59.5q15 6 32 6q119 -3 167 47q-17 51 -60 92t-30 82z" />
    <glyph glyph-name="uniFBF5" unicode="&#xfbf5;" horiz-adv-x="1208" arabic-form="final" 
d="M173 1172q15 55 63 4q226 -222 206 -561q-4 -30 -23 -32q-40 -6 -48 32q-53 209 -201 367q-25 27 -20 59zM542 206q-50 86 -109 84q-35 -5 -47.5 -24t3.5 -37q37 -41 146 -39q13 0 7 16zM678 -31q-25 -390 -319 -529q-84 -40 -162 -40q-104 0 -294 144q-34 24 -25 44
t50 5q192 -64 403 75.5t257 311.5q-156 7 -224 46q-87 50 -75 178q21 202 108 260q94 61 171 -26q57 -64 94 -221q75 3 94 -73q13 -51 4 -112q-9 -60 -47 -62q-17 -1 -35 -1zM1019 759q-107 -22 -151.5 -36.5t-162.5 -69.5q-36 -14 -59 13q-34 46 50 109q-66 38 -81 84
q-27 90 47 213t180 115q78 -6 80 -80.5t-16.5 -105t-27.5 -37.5q-28 -20 -52.5 10.5t-57.5 33.5t-46.5 -15t4.5 -34q73 -60 197 -64q20 0 60.5 10t62 9t35.5 -20q14 -20 9 -37q-32 -89 -71 -98zM1044 296q70 -77 138 -82q56 -5 71 -42q9 -26 9 -86t-10 -87.5t-40 -28.5
q-119 0 -238 130q-110 -130 -262 -130q-44 1 -62 55l-28 83q-11 34 6.5 69t53.5 38q240 18 284 120q13 31 35 31q30 0 35.5 -33.5t7.5 -36.5z" />
    <glyph glyph-name="uniFBF6" unicode="&#xfbf6;" horiz-adv-x="1504" arabic-form="isolated" 
d="M757 -611q10 17 34 10q87 -30 160 -88q19 -17 11 -37l-46 -91q52 -26 99 -62q19 -17 10 -37l-79 -155q-13 -21 -36 -4.5t-160 92.5q-22 13 -11 34l53 97q-39 23 -105 59q-22 13 -11 34zM868 295q137 14 272 -2t205 -74q45 -40 46 -119q-1 -139 -36.5 -193.5
t-101.5 -110.5q-346 -291 -690 -266q-526 38 -444 634q22 166 103 289q24 34 51 14q26 -22 2 -66q-97 -181 -73 -319q52 -294 403 -296t651 277q-94 48 -386 48q-28 0 -37 23t-5 36zM1090 1319q-107 -22 -151.5 -36.5t-162.5 -69.5q-36 -14 -59 13q-34 46 50 109
q-66 38 -81 84q-27 90 47 213t180 115q78 -6 80 -80.5t-16.5 -105t-27.5 -37.5q-28 -20 -52.5 10.5t-57.5 33.5t-46.5 -15t4.5 -34q73 -60 197 -64q20 0 60.5 10t62 9t35.5 -20q14 -20 9 -37q-32 -89 -71 -98zM963 968q15 64 68 35q53 -30 118 -141q147 -249 103 -457
q-19 -88 -67 -150q-110 -144 -319 -152q-14 0 -24 4q-37 16 -21 59l44 120q15 17 37 20q161 22 249 127q-9 92 -68 172.5t-125 127.5q-38 30 -28 78z" />
    <glyph glyph-name="uniFBF7" unicode="&#xfbf7;" horiz-adv-x="1494" arabic-form="final" 
d="M814 -863q10 17 34 10q87 -30 160 -88q19 -17 11 -37l-46 -91q52 -26 99 -62q19 -17 10 -37l-79 -155q-13 -21 -36 -4.5t-160 92.5q-22 13 -11 34l53 97q-39 23 -105 59q-22 13 -11 34zM911 -223q-186 66 -58 283q1 4 15 36q14 33 38 24q33 -12 18 -56q-15 -42 54 -75
t214 -53t202 -39.5t88 -77t30.5 -118t-24.5 -104.5q-46 -78 -237 -178t-447 -129q-462 -52 -615 271q-50 105 -41 281q10 180 111 381q18 37 53.5 18.5t3.5 -81.5q-107 -221 -57 -359q103 -289 483 -264q297 19 608 177q-46 8 -179 18q-168 13 -260 45zM1117 819
q-107 -22 -151.5 -36.5t-162.5 -69.5q-36 -14 -59 13q-34 46 50 109q-66 38 -81 84q-27 90 47 213t180 115q78 -6 80 -80.5t-16.5 -105t-27.5 -37.5q-28 -20 -52.5 10.5t-57.5 33.5t-46.5 -15t4.5 -34q73 -60 197 -64q20 0 60.5 10t62 9t35.5 -20q14 -20 9 -37
q-32 -89 -71 -98zM1331 311q60 -83 131 -95q105 -18 94.5 -105t-10.5 -89q-13 -54 -49 -52q-147 9 -251 136q-60 74 -103.5 76.5t-129 -50t-92.5 -79.5q-23 -128 -57 -184q-16 -15 -30 -18q-22 -4 -31 38q-18 83 47 217q63 132 162 221.5t169.5 91t149.5 -107.5z" />
    <glyph glyph-name="uniFBF8" unicode="&#xfbf8;" horiz-adv-x="965" arabic-form="initial" 
d="M75 -172q10 17 34 10q87 -30 160 -88q19 -17 11 -37l-46 -91q52 -26 99 -62q19 -17 10 -37l-79 -155q-13 -21 -36 -4.5t-160 92.5q-22 13 -11 34l53 97q-39 23 -105 59q-22 13 -11 34zM395 142q-45 -106 -114 -63q-28 17 -55 34q-116 -141 -221 -143q-69 -1 -101 116
q-30 117 65 130q177 20 238 109q31 44 70 14q35 -26 57 -41q95 -73 61 -156zM665 844q-107 -22 -151.5 -36.5t-162.5 -69.5q-36 -14 -59 13q-34 46 50 109q-66 38 -81 84q-27 90 47 213t180 115q78 -6 80 -80.5t-16.5 -105t-27.5 -37.5q-28 -20 -52.5 10.5t-57.5 33.5
t-46.5 -15t4.5 -34q73 -60 197 -64q20 0 60.5 10t62 9t35.5 -20q14 -20 9 -37q-32 -89 -71 -98zM269 82q-82 53 -54 155q48 110 113 66q132 -92 266 -105q-3 16 -31 45.5t-22 57.5l30 141q23 110 82 5q58 -114 62 -251q6 -197 -110 -217q-146 -23 -336 103z" />
    <glyph glyph-name="uniFBF9" unicode="&#xfbf9;" horiz-adv-x="1504" arabic-form="isolated" 
d="M868 295q137 14 272 -2t205 -74q45 -40 46 -119q-1 -139 -36.5 -193.5t-101.5 -110.5q-346 -291 -690 -266q-526 38 -444 634q22 166 103 289q24 34 51 14q26 -22 2 -66q-97 -181 -73 -319q52 -294 403 -296t651 277q-94 48 -386 48q-28 0 -37 23t-5 36zM1090 1319
q-107 -22 -151.5 -36.5t-162.5 -69.5q-36 -14 -59 13q-34 46 50 109q-66 38 -81 84q-27 90 47 213t180 115q78 -6 80 -80.5t-16.5 -105t-27.5 -37.5q-28 -20 -52.5 10.5t-57.5 33.5t-46.5 -15t4.5 -34q73 -60 197 -64q20 0 60.5 10t62 9t35.5 -20q14 -20 9 -37
q-32 -89 -71 -98zM963 968q15 64 68 35q53 -30 118 -141q147 -249 103 -457q-19 -88 -67 -150q-110 -144 -319 -152q-14 0 -24 4q-37 16 -21 59l44 120q15 17 37 20q161 22 249 127q-9 92 -68 172.5t-125 127.5q-38 30 -28 78z" />
    <glyph glyph-name="uniFBFA" unicode="&#xfbfa;" horiz-adv-x="1494" arabic-form="final" 
d="M911 -223q-186 66 -58 283q1 4 15 36q14 33 38 24q33 -12 18 -56q-15 -42 54 -75t214 -53t202 -39.5t88 -77t30.5 -118t-24.5 -104.5q-46 -78 -237 -178t-447 -129q-462 -52 -615 271q-50 105 -41 281q10 180 111 381q18 37 53.5 18.5t3.5 -81.5q-107 -221 -57 -359
q103 -289 483 -264q297 19 608 177q-46 8 -179 18q-168 13 -260 45zM1117 819q-107 -22 -151.5 -36.5t-162.5 -69.5q-36 -14 -59 13q-34 46 50 109q-66 38 -81 84q-27 90 47 213t180 115q78 -6 80 -80.5t-16.5 -105t-27.5 -37.5q-28 -20 -52.5 10.5t-57.5 33.5t-46.5 -15
t4.5 -34q73 -60 197 -64q20 0 60.5 10t62 9t35.5 -20q14 -20 9 -37q-32 -89 -71 -98zM1331 311q60 -83 131 -95q105 -18 94.5 -105t-10.5 -89q-13 -54 -49 -52q-147 9 -251 136q-60 74 -103.5 76.5t-129 -50t-92.5 -79.5q-23 -128 -57 -184q-16 -15 -30 -18q-22 -4 -31 38
q-18 83 47 217q63 132 162 221.5t169.5 91t149.5 -107.5z" />
    <glyph glyph-name="uniFBFB" unicode="&#xfbfb;" horiz-adv-x="965" arabic-form="initial" 
d="M395 142q-45 -106 -114 -63q-28 17 -55 34q-116 -141 -221 -143q-69 -1 -101 116q-30 117 65 130q177 20 238 109q31 44 70 14q35 -26 57 -41q95 -73 61 -156zM665 844q-107 -22 -151.5 -36.5t-162.5 -69.5q-36 -14 -59 13q-34 46 50 109q-66 38 -81 84q-27 90 47 213
t180 115q78 -6 80 -80.5t-16.5 -105t-27.5 -37.5q-28 -20 -52.5 10.5t-57.5 33.5t-46.5 -15t4.5 -34q73 -60 197 -64q20 0 60.5 10t62 9t35.5 -20q14 -20 9 -37q-32 -89 -71 -98zM269 82q-82 53 -54 155q48 110 113 66q132 -92 266 -105q-3 16 -31 45.5t-22 57.5l30 141
q23 110 82 5q58 -114 62 -251q6 -197 -110 -217q-146 -23 -336 103z" />
    <glyph glyph-name="uniFBFC" unicode="&#x6cc;" horiz-adv-x="1566" arabic-form="isolated" 
d="M1292 564q-110 54 -278 -40q-137 -77 -154 -187q-3 -15 7 -32q45 -80 269 -91.5t249 -111.5q52 -197 -48 -285q-273 -243 -654 -258q-474 -19 -552 358q-39 190 35 392q40 109 98 196q28 42 51 19t-4 -71q-147 -266 -60 -434q109 -212 419 -207q369 7 578 183
q-50 17 -205 27q-200 14 -250.5 120t-24.5 223q58 253 231 391q147 116 269.5 84.5t94.5 -224.5q-12 -80 -71 -52z" />
    <glyph glyph-name="uniFBFD" unicode="&#x6cc;" horiz-adv-x="1200" arabic-form="final" 
d="M153 -255q-2 194 91 407q17 38 48 21t12 -61q-116 -278 -26 -416q129 -203 425 -190q333 16 558 219q-50 16 -181.5 25t-153.5 17q-56 21 -79 68q-40 85 6 170q78 143 313 209q36 10 68.5 -11t32.5 -106.5t-20.5 -105t-101 -20.5t-86.5 -14q293 -14 346 -145
q19 -46 -7 -129t-53 -117q-258 -298 -622 -313q-275 -11 -434 131q-133 118 -136 361z" />
    <glyph glyph-name="uniFBFE" unicode="&#x6cc;" horiz-adv-x="390" arabic-form="initial" 
d="M318 -223q10 17 34 10q88 -30 161 -88q19 -17 11 -37l-79 -155q-14 -21 -35.5 -5.5t-116.5 69.5l-56 -110q-13 -21 -36 -4.5t-160 92.5q-22 13 -11 34l81 148q10 17 34 10q65 -22 121 -59zM51 436l43 127q23 68 51 27q121 -173 95 -396.5t-236 -223.5q-42 0 -68 68.5
t-30.5 111t36.5 59.5q15 6 32 6q119 -3 167 47q-17 51 -60 92t-30 82z" />
    <glyph glyph-name="uniFBFF" unicode="&#x6cc;" horiz-adv-x="500" arabic-form="medial" 
d="M346 -123q10 17 34 10q88 -30 161 -88q19 -17 11 -37l-79 -155q-14 -21 -35.5 -5.5t-116.5 69.5l-56 -110q-13 -21 -36 -4.5t-160 92.5q-22 13 -11 34l81 148q10 17 34 10q65 -22 121 -59zM336 296q70 -77 138 -82q56 -5 71 -42q9 -26 9 -86t-10 -87.5t-40 -28.5
q-119 0 -238 130q-110 -130 -262 -130q-44 1 -62 55l-28 83q-11 34 6.5 69t53.5 38q240 18 284 120q13 31 35 31q30 0 35.5 -33.5t7.5 -36.5z" />
    <glyph glyph-name="uniFC00" unicode="&#xfc00;" horiz-adv-x="1327" arabic-form="isolated" 
d="M799 -232q10 17 34 10q88 -30 161 -88q19 -17 10 -37l-79 -155q-13 -21 -36 -4.5t-160 92.5q-22 13 -11 34zM341 508q569 -28 812 6q61 4 56 -40l-18 -132q-4 -37 -48 -43q-454 -55 -687 -304q-152 -163 -136 -343q29 -318 318 -413.5t977 -57.5q40 2 45 -30
q5 -26 -12 -35q-231 -104 -362.5 -145.5t-246.5 -39.5q-432 12 -618.5 178t-197.5 438q-20 481 271 729l-381 3q-104 1 -53 91l72 130q9 17 209 8zM858 1446q-107 -22 -151.5 -36.5t-162.5 -69.5q-36 -14 -59 13q-34 46 50 109q-66 38 -81 84q-27 90 47 213t180 115
q78 -6 80 -80.5t-16.5 -105t-27.5 -37.5q-28 -20 -52.5 10.5t-57.5 33.5t-46.5 -15t4.5 -34q73 -60 197 -64q20 0 60.5 10t62 9t35.5 -20q14 -20 9 -37q-32 -89 -71 -98zM101 462q41 59 140 118q218 133 283.5 208.5t90.5 172.5t52.5 161t89 64t114.5 -69q72 -95 96 -385
q3 -37 -24 -51q-10 -5 -22 -4q-46 1 -61 54q-38 163 -85 195q-15 9 -27 -12t-41 -95q-75 -205 -329 -358q-8 -5 -76 -49q-91 -57 -190 6l-28 19z" />
    <glyph glyph-name="uniFC01" unicode="&#xfc01;" horiz-adv-x="1327" arabic-form="isolated" 
d="M341 508q569 -28 812 6q61 4 56 -40l-18 -132q-4 -37 -48 -43q-454 -55 -687 -304q-152 -163 -136 -343q29 -318 318 -413.5t977 -57.5q40 2 45 -30q5 -26 -12 -35q-231 -104 -362.5 -145.5t-246.5 -39.5q-432 12 -618.5 178t-197.5 438q-20 481 271 729l-381 3
q-104 1 -53 91l72 130q9 17 209 8zM858 1446q-107 -22 -151.5 -36.5t-162.5 -69.5q-36 -14 -59 13q-34 46 50 109q-66 38 -81 84q-27 90 47 213t180 115q78 -6 80 -80.5t-16.5 -105t-27.5 -37.5q-28 -20 -52.5 10.5t-57.5 33.5t-46.5 -15t4.5 -34q73 -60 197 -64
q20 0 60.5 10t62 9t35.5 -20q14 -20 9 -37q-32 -89 -71 -98zM101 462q41 59 140 118q218 133 283.5 208.5t90.5 172.5t52.5 161t89 64t114.5 -69q72 -95 96 -385q3 -37 -24 -51q-10 -5 -22 -4q-46 1 -61 54q-38 163 -85 195q-15 9 -27 -12t-41 -95q-75 -205 -329 -358
q-8 -5 -76 -49q-91 -57 -190 6l-28 19z" />
    <glyph glyph-name="uniFC02" unicode="&#xfc02;" horiz-adv-x="1217" arabic-form="isolated" 
d="M218 199q-49 21 -37 75q28 119 41 137t19 23q30 27 122 -2q193 -60 349 -167q58 -40 44 -108q-21 -93 -24 -104q-16 -59 -65 -55q-206 26 -375 -17q-107 -27 -135 -61q6 -31 89.5 -319t93.5 -340q25 -142 5 -291q-5 -42 -39 -36.5t-39 99t-162 585.5q-52 164 -29.5 304.5
t59 192t83.5 84.5zM875 1150q-107 -22 -151.5 -36.5t-162.5 -69.5q-36 -14 -59 13q-34 46 50 109q-66 38 -81 84q-27 90 47 213t180 115q78 -6 80 -80.5t-16.5 -105t-27.5 -37.5q-28 -20 -52.5 10.5t-57.5 33.5t-46.5 -15t4.5 -34q73 -60 197 -64q20 0 60.5 10t62 9
t35.5 -20q14 -20 9 -37q-32 -89 -71 -98zM1053 577q-7 -45 -46 -105t-60 -67q-55 -17 -82 46q-18 45 -76 51q-126 11 -386 -151q-102 -63 -161 18q-27 40 -8 64q33 38 151 119q284 197 459 195q83 -1 152 -49t57 -121z" />
    <glyph glyph-name="uniFC03" unicode="&#xfc03;" horiz-adv-x="1504" arabic-form="isolated" 
d="M868 295q137 14 272 -2t205 -74q45 -40 46 -119q-1 -139 -36.5 -193.5t-101.5 -110.5q-346 -291 -690 -266q-526 38 -444 634q22 166 103 289q24 34 51 14q26 -22 2 -66q-97 -181 -73 -319q52 -294 403 -296t651 277q-94 48 -386 48q-28 0 -37 23t-5 36zM1090 1319
q-107 -22 -151.5 -36.5t-162.5 -69.5q-36 -14 -59 13q-34 46 50 109q-66 38 -81 84q-27 90 47 213t180 115q78 -6 80 -80.5t-16.5 -105t-27.5 -37.5q-28 -20 -52.5 10.5t-57.5 33.5t-46.5 -15t4.5 -34q73 -60 197 -64q20 0 60.5 10t62 9t35.5 -20q14 -20 9 -37
q-32 -89 -71 -98zM963 968q15 64 68 35q53 -30 118 -141q147 -249 103 -457q-19 -88 -67 -150q-110 -144 -319 -152q-14 0 -24 4q-37 16 -21 59l44 120q15 17 37 20q161 22 249 127q-9 92 -68 172.5t-125 127.5q-38 30 -28 78z" />
    <glyph glyph-name="uniFC04" unicode="&#xfc04;" horiz-adv-x="1504" arabic-form="isolated" 
d="M863 -612q10 17 34 10q88 -30 161 -88q19 -17 11 -37l-79 -155q-14 -21 -35.5 -5.5t-116.5 69.5l-56 -110q-13 -21 -36 -4.5t-160 92.5q-22 13 -11 34l81 148q10 17 34 10q65 -22 121 -59zM868 295q137 14 272 -2t205 -74q45 -40 46 -119q-1 -139 -36.5 -193.5
t-101.5 -110.5q-346 -291 -690 -266q-526 38 -444 634q22 166 103 289q24 34 51 14q26 -22 2 -66q-97 -181 -73 -319q52 -294 403 -296t651 277q-94 48 -386 48q-28 0 -37 23t-5 36zM1090 1319q-107 -22 -151.5 -36.5t-162.5 -69.5q-36 -14 -59 13q-34 46 50 109
q-66 38 -81 84q-27 90 47 213t180 115q78 -6 80 -80.5t-16.5 -105t-27.5 -37.5q-28 -20 -52.5 10.5t-57.5 33.5t-46.5 -15t4.5 -34q73 -60 197 -64q20 0 60.5 10t62 9t35.5 -20q14 -20 9 -37q-32 -89 -71 -98zM963 968q15 64 68 35q53 -30 118 -141q147 -249 103 -457
q-19 -88 -67 -150q-110 -144 -319 -152q-14 0 -24 4q-37 16 -21 59l44 120q15 17 37 20q161 22 249 127q-9 92 -68 172.5t-125 127.5q-38 30 -28 78z" />
    <glyph glyph-name="uniFC05" unicode="&#xfc05;" horiz-adv-x="1327" arabic-form="isolated" 
d="M799 -232q10 17 34 10q88 -30 161 -88q19 -17 10 -37l-79 -155q-13 -21 -36 -4.5t-160 92.5q-22 13 -11 34zM341 508q569 -28 812 6q61 4 56 -40l-18 -132q-4 -37 -48 -43q-454 -55 -687 -304q-152 -163 -136 -343q29 -318 318 -413.5t977 -57.5q40 2 45 -30
q5 -26 -12 -35q-231 -104 -362.5 -145.5t-246.5 -39.5q-432 12 -618.5 178t-197.5 438q-20 481 271 729l-381 3q-104 1 -53 91l72 130q9 17 209 8zM1093 145q10 17 34 10q88 -30 161 -88q19 -17 10 -37l-79 -155q-13 -21 -36 -4.5t-160 92.5q-22 13 -11 34zM101 462
q41 59 140 118q218 133 283.5 208.5t90.5 172.5t52.5 161t89 64t114.5 -69q72 -95 96 -385q3 -37 -24 -51q-10 -5 -22 -4q-46 1 -61 54q-38 163 -85 195q-15 9 -27 -12t-41 -95q-75 -205 -329 -358q-8 -5 -76 -49q-91 -57 -190 6l-28 19z" />
    <glyph glyph-name="uniFC06" unicode="&#xfc06;" horiz-adv-x="1327" arabic-form="isolated" 
d="M341 508q569 -28 812 6q61 4 56 -40l-18 -132q-4 -37 -48 -43q-454 -55 -687 -304q-152 -163 -136 -343q29 -318 318 -413.5t977 -57.5q40 2 45 -30q5 -26 -12 -35q-231 -104 -362.5 -145.5t-246.5 -39.5q-432 12 -618.5 178t-197.5 438q-20 481 271 729l-381 3
q-104 1 -53 91l72 130q9 17 209 8zM1093 145q10 17 34 10q88 -30 161 -88q19 -17 10 -37l-79 -155q-13 -21 -36 -4.5t-160 92.5q-22 13 -11 34zM101 462q41 59 140 118q218 133 283.5 208.5t90.5 172.5t52.5 161t89 64t114.5 -69q72 -95 96 -385q3 -37 -24 -51
q-10 -5 -22 -4q-46 1 -61 54q-38 163 -85 195q-15 9 -27 -12t-41 -95q-75 -205 -329 -358q-8 -5 -76 -49q-91 -57 -190 6l-28 19z" />
    <glyph glyph-name="uniFC07" unicode="&#xfc07;" horiz-adv-x="1327" arabic-form="isolated" 
d="M129 1238q10 17 34 10q88 -30 161 -88q19 -17 10 -37l-79 -155q-13 -21 -36 -4.5t-160 92.5q-22 13 -11 34zM341 508q569 -28 812 6q61 4 56 -40l-18 -132q-4 -37 -48 -43q-454 -55 -687 -304q-152 -163 -136 -343q29 -318 318 -413.5t977 -57.5q40 2 45 -30
q5 -26 -12 -35q-231 -104 -362.5 -145.5t-246.5 -39.5q-432 12 -618.5 178t-197.5 438q-20 481 271 729l-381 3q-104 1 -53 91l72 130q9 17 209 8zM1093 145q10 17 34 10q88 -30 161 -88q19 -17 10 -37l-79 -155q-13 -21 -36 -4.5t-160 92.5q-22 13 -11 34zM101 462
q41 59 140 118q218 133 283.5 208.5t90.5 172.5t52.5 161t89 64t114.5 -69q72 -95 96 -385q3 -37 -24 -51q-10 -5 -22 -4q-46 1 -61 54q-38 163 -85 195q-15 9 -27 -12t-41 -95q-75 -205 -329 -358q-8 -5 -76 -49q-91 -57 -190 6l-28 19z" />
    <glyph glyph-name="uniFC08" unicode="&#xfc08;" horiz-adv-x="1217" arabic-form="isolated" 
d="M218 199q-49 21 -37 75q28 119 41 137t19 23q30 27 122 -2q193 -60 349 -167q58 -40 44 -108q-21 -93 -24 -104q-16 -59 -65 -55q-206 26 -375 -17q-107 -27 -135 -61q6 -31 89.5 -319t93.5 -340q25 -142 5 -291q-5 -42 -39 -36.5t-39 99t-162 585.5q-52 164 -29.5 304.5
t59 192t83.5 84.5zM1000 -219q10 17 34 10q88 -30 161 -88q19 -17 10 -37l-79 -155q-13 -21 -36 -4.5t-160 92.5q-22 13 -11 34zM1053 577q-7 -45 -46 -105t-60 -67q-55 -17 -82 46q-18 45 -76 51q-126 11 -386 -151q-102 -63 -161 18q-27 40 -8 64q33 38 151 119
q284 197 459 195q83 -1 152 -49t57 -121z" />
    <glyph glyph-name="uniFC09" unicode="&#xfc09;" horiz-adv-x="1504" arabic-form="isolated" 
d="M868 295q137 14 272 -2t205 -74q45 -40 46 -119q-1 -139 -36.5 -193.5t-101.5 -110.5q-346 -291 -690 -266q-526 38 -444 634q22 166 103 289q24 34 51 14q26 -22 2 -66q-97 -181 -73 -319q52 -294 403 -296t651 277q-94 48 -386 48q-28 0 -37 23t-5 36zM1329 -462
q10 17 34 10q88 -30 161 -88q19 -17 10 -37l-79 -155q-13 -21 -36 -4.5t-160 92.5q-22 13 -11 34zM963 968q15 64 68 35q53 -30 118 -141q147 -249 103 -457q-19 -88 -67 -150q-110 -144 -319 -152q-14 0 -24 4q-37 16 -21 59l44 120q15 17 37 20q161 22 249 127
q-9 92 -68 172.5t-125 127.5q-38 30 -28 78z" />
    <glyph glyph-name="uniFC0A" unicode="&#xfc0a;" horiz-adv-x="1504" arabic-form="isolated" 
d="M863 -612q10 17 34 10q88 -30 161 -88q19 -17 11 -37l-79 -155q-14 -21 -35.5 -5.5t-116.5 69.5l-56 -110q-13 -21 -36 -4.5t-160 92.5q-22 13 -11 34l81 148q10 17 34 10q65 -22 121 -59zM868 295q137 14 272 -2t205 -74q45 -40 46 -119q-1 -139 -36.5 -193.5
t-101.5 -110.5q-346 -291 -690 -266q-526 38 -444 634q22 166 103 289q24 34 51 14q26 -22 2 -66q-97 -181 -73 -319q52 -294 403 -296t651 277q-94 48 -386 48q-28 0 -37 23t-5 36zM1329 -462q10 17 34 10q88 -30 161 -88q19 -17 10 -37l-79 -155q-13 -21 -36 -4.5
t-160 92.5q-22 13 -11 34zM963 968q15 64 68 35q53 -30 118 -141q147 -249 103 -457q-19 -88 -67 -150q-110 -144 -319 -152q-14 0 -24 4q-37 16 -21 59l44 120q15 17 37 20q161 22 249 127q-9 92 -68 172.5t-125 127.5q-38 30 -28 78z" />
    <glyph glyph-name="uniFC0B" unicode="&#xfc0b;" horiz-adv-x="1327" arabic-form="isolated" 
d="M799 -232q10 17 34 10q88 -30 161 -88q19 -17 10 -37l-79 -155q-13 -21 -36 -4.5t-160 92.5q-22 13 -11 34zM341 508q569 -28 812 6q61 4 56 -40l-18 -132q-4 -37 -48 -43q-454 -55 -687 -304q-152 -163 -136 -343q29 -318 318 -413.5t977 -57.5q40 2 45 -30
q5 -26 -12 -35q-231 -104 -362.5 -145.5t-246.5 -39.5q-432 12 -618.5 178t-197.5 438q-20 481 271 729l-381 3q-104 1 -53 91l72 130q9 17 209 8zM741 1601q10 17 34 10q88 -30 161 -88q19 -17 11 -37l-79 -155q-14 -21 -35.5 -5.5t-116.5 69.5l-56 -110q-13 -21 -36 -4.5
t-160 92.5q-22 13 -11 34l81 148q10 17 34 10q65 -22 121 -59zM101 462q41 59 140 118q218 133 283.5 208.5t90.5 172.5t52.5 161t89 64t114.5 -69q72 -95 96 -385q3 -37 -24 -51q-10 -5 -22 -4q-46 1 -61 54q-38 163 -85 195q-15 9 -27 -12t-41 -95q-75 -205 -329 -358
q-8 -5 -76 -49q-91 -57 -190 6l-28 19z" />
    <glyph glyph-name="uniFC0C" unicode="&#xfc0c;" horiz-adv-x="1327" arabic-form="isolated" 
d="M341 508q569 -28 812 6q61 4 56 -40l-18 -132q-4 -37 -48 -43q-454 -55 -687 -304q-152 -163 -136 -343q29 -318 318 -413.5t977 -57.5q40 2 45 -30q5 -26 -12 -35q-231 -104 -362.5 -145.5t-246.5 -39.5q-432 12 -618.5 178t-197.5 438q-20 481 271 729l-381 3
q-104 1 -53 91l72 130q9 17 209 8zM741 1601q10 17 34 10q88 -30 161 -88q19 -17 11 -37l-79 -155q-14 -21 -35.5 -5.5t-116.5 69.5l-56 -110q-13 -21 -36 -4.5t-160 92.5q-22 13 -11 34l81 148q10 17 34 10q65 -22 121 -59zM101 462q41 59 140 118q218 133 283.5 208.5
t90.5 172.5t52.5 161t89 64t114.5 -69q72 -95 96 -385q3 -37 -24 -51q-10 -5 -22 -4q-46 1 -61 54q-38 163 -85 195q-15 9 -27 -12t-41 -95q-75 -205 -329 -358q-8 -5 -76 -49q-91 -57 -190 6l-28 19z" />
    <glyph glyph-name="uniFC0D" unicode="&#xfc0d;" horiz-adv-x="1327" arabic-form="isolated" 
d="M129 1238q10 17 34 10q88 -30 161 -88q19 -17 10 -37l-79 -155q-13 -21 -36 -4.5t-160 92.5q-22 13 -11 34zM341 508q569 -28 812 6q61 4 56 -40l-18 -132q-4 -37 -48 -43q-454 -55 -687 -304q-152 -163 -136 -343q29 -318 318 -413.5t977 -57.5q40 2 45 -30
q5 -26 -12 -35q-231 -104 -362.5 -145.5t-246.5 -39.5q-432 12 -618.5 178t-197.5 438q-20 481 271 729l-381 3q-104 1 -53 91l72 130q9 17 209 8zM741 1601q10 17 34 10q88 -30 161 -88q19 -17 11 -37l-79 -155q-14 -21 -35.5 -5.5t-116.5 69.5l-56 -110q-13 -21 -36 -4.5
t-160 92.5q-22 13 -11 34l81 148q10 17 34 10q65 -22 121 -59zM101 462q41 59 140 118q218 133 283.5 208.5t90.5 172.5t52.5 161t89 64t114.5 -69q72 -95 96 -385q3 -37 -24 -51q-10 -5 -22 -4q-46 1 -61 54q-38 163 -85 195q-15 9 -27 -12t-41 -95q-75 -205 -329 -358
q-8 -5 -76 -49q-91 -57 -190 6l-28 19z" />
    <glyph glyph-name="uniFC0E" unicode="&#xfc0e;" horiz-adv-x="1217" arabic-form="isolated" 
d="M218 199q-49 21 -37 75q28 119 41 137t19 23q30 27 122 -2q193 -60 349 -167q58 -40 44 -108q-21 -93 -24 -104q-16 -59 -65 -55q-206 26 -375 -17q-107 -27 -135 -61q6 -31 89.5 -319t93.5 -340q25 -142 5 -291q-5 -42 -39 -36.5t-39 99t-162 585.5q-52 164 -29.5 304.5
t59 192t83.5 84.5zM757 1305q10 17 34 10q88 -30 161 -88q19 -17 11 -37l-79 -155q-14 -21 -35.5 -5.5t-116.5 69.5l-56 -110q-13 -21 -36 -4.5t-160 92.5q-22 13 -11 34l81 148q10 17 34 10q65 -22 121 -59zM1053 577q-7 -45 -46 -105t-60 -67q-55 -17 -82 46
q-18 45 -76 51q-126 11 -386 -151q-102 -63 -161 18q-27 40 -8 64q33 38 151 119q284 197 459 195q83 -1 152 -49t57 -121z" />
    <glyph glyph-name="uniFC0F" unicode="&#xfc0f;" horiz-adv-x="1504" arabic-form="isolated" 
d="M868 295q137 14 272 -2t205 -74q45 -40 46 -119q-1 -139 -36.5 -193.5t-101.5 -110.5q-346 -291 -690 -266q-526 38 -444 634q22 166 103 289q24 34 51 14q26 -22 2 -66q-97 -181 -73 -319q52 -294 403 -296t651 277q-94 48 -386 48q-28 0 -37 23t-5 36zM934 1474
q10 17 34 10q88 -30 161 -88q19 -17 11 -37l-79 -155q-14 -21 -35.5 -5.5t-116.5 69.5l-56 -110q-13 -21 -36 -4.5t-160 92.5q-22 13 -11 34l81 148q10 17 34 10q65 -22 121 -59zM963 968q15 64 68 35q53 -30 118 -141q147 -249 103 -457q-19 -88 -67 -150
q-110 -144 -319 -152q-14 0 -24 4q-37 16 -21 59l44 120q15 17 37 20q161 22 249 127q-9 92 -68 172.5t-125 127.5q-38 30 -28 78z" />
    <glyph glyph-name="uniFC10" unicode="&#xfc10;" horiz-adv-x="1504" arabic-form="isolated" 
d="M863 -612q10 17 34 10q88 -30 161 -88q19 -17 11 -37l-79 -155q-14 -21 -35.5 -5.5t-116.5 69.5l-56 -110q-13 -21 -36 -4.5t-160 92.5q-22 13 -11 34l81 148q10 17 34 10q65 -22 121 -59zM868 295q137 14 272 -2t205 -74q45 -40 46 -119q-1 -139 -36.5 -193.5
t-101.5 -110.5q-346 -291 -690 -266q-526 38 -444 634q22 166 103 289q24 34 51 14q26 -22 2 -66q-97 -181 -73 -319q52 -294 403 -296t651 277q-94 48 -386 48q-28 0 -37 23t-5 36zM934 1474q10 17 34 10q88 -30 161 -88q19 -17 11 -37l-79 -155q-14 -21 -35.5 -5.5
t-116.5 69.5l-56 -110q-13 -21 -36 -4.5t-160 92.5q-22 13 -11 34l81 148q10 17 34 10q65 -22 121 -59zM963 968q15 64 68 35q53 -30 118 -141q147 -249 103 -457q-19 -88 -67 -150q-110 -144 -319 -152q-14 0 -24 4q-37 16 -21 59l44 120q15 17 37 20q161 22 249 127
q-9 92 -68 172.5t-125 127.5q-38 30 -28 78z" />
    <glyph glyph-name="uniFC11" unicode="&#xfc11;" horiz-adv-x="1327" arabic-form="isolated" 
d="M799 -232q10 17 34 10q88 -30 161 -88q19 -17 10 -37l-79 -155q-13 -21 -36 -4.5t-160 92.5q-22 13 -11 34zM341 508q569 -28 812 6q61 4 56 -40l-18 -132q-4 -37 -48 -43q-454 -55 -687 -304q-152 -163 -136 -343q29 -318 318 -413.5t977 -57.5q40 2 45 -30
q5 -26 -12 -35q-231 -104 -362.5 -145.5t-246.5 -39.5q-432 12 -618.5 178t-197.5 438q-20 481 271 729l-381 3q-104 1 -53 91l72 130q9 17 209 8zM560 1830q10 17 34 10q88 -30 161 -88q19 -17 10 -37l-79 -155q-13 -21 -36 -4.5t-159 92.5q-23 13 -11 33zM733 1601
q10 17 34 10q88 -30 161 -88q19 -17 11 -37l-79 -155q-13 -22 -34.5 -6.5t-101.5 61.5l-52 -102q-13 -21 -36 -4.5t-159 92.5q-23 13 -12 34l81 148q20 34 140 -39zM101 462q41 59 140 118q218 133 283.5 208.5t90.5 172.5t52.5 161t89 64t114.5 -69q72 -95 96 -385
q3 -37 -24 -51q-10 -5 -22 -4q-46 1 -61 54q-38 163 -85 195q-15 9 -27 -12t-41 -95q-75 -205 -329 -358q-8 -5 -76 -49q-91 -57 -190 6l-28 19z" />
    <glyph glyph-name="uniFC12" unicode="&#xfc12;" horiz-adv-x="1217" arabic-form="isolated" 
d="M218 199q-49 21 -37 75q28 119 41 137t19 23q30 27 122 -2q193 -60 349 -167q58 -40 44 -108q-21 -93 -24 -104q-16 -59 -65 -55q-206 26 -375 -17q-107 -27 -135 -61q6 -31 89.5 -319t93.5 -340q25 -142 5 -291q-5 -42 -39 -36.5t-39 99t-162 585.5q-52 164 -29.5 304.5
t59 192t83.5 84.5zM576 1534q10 17 34 10q88 -30 161 -88q19 -17 10 -37l-79 -155q-13 -21 -36 -4.5t-159 92.5q-23 13 -11 33zM749 1305q10 17 34 10q88 -30 161 -88q19 -17 11 -37l-79 -155q-13 -22 -34.5 -6.5t-101.5 61.5l-52 -102q-13 -21 -36 -4.5t-159 92.5
q-23 13 -12 34l81 148q20 34 140 -39zM1053 577q-7 -45 -46 -105t-60 -67q-55 -17 -82 46q-18 45 -76 51q-126 11 -386 -151q-102 -63 -161 18q-27 40 -8 64q33 38 151 119q284 197 459 195q83 -1 152 -49t57 -121z" />
    <glyph glyph-name="uniFC13" unicode="&#xfc13;" horiz-adv-x="1504" arabic-form="isolated" 
d="M868 295q137 14 272 -2t205 -74q45 -40 46 -119q-1 -139 -36.5 -193.5t-101.5 -110.5q-346 -291 -690 -266q-526 38 -444 634q22 166 103 289q24 34 51 14q26 -22 2 -66q-97 -181 -73 -319q52 -294 403 -296t651 277q-94 48 -386 48q-28 0 -37 23t-5 36zM753 1703
q10 17 34 10q88 -30 161 -88q19 -17 10 -37l-79 -155q-13 -21 -36 -4.5t-159 92.5q-23 13 -11 33zM926 1474q10 17 34 10q88 -30 161 -88q19 -17 11 -37l-79 -155q-13 -22 -34.5 -6.5t-101.5 61.5l-52 -102q-13 -21 -36 -4.5t-159 92.5q-23 13 -12 34l81 148q20 34 140 -39z
M963 968q15 64 68 35q53 -30 118 -141q147 -249 103 -457q-19 -88 -67 -150q-110 -144 -319 -152q-14 0 -24 4q-37 16 -21 59l44 120q15 17 37 20q161 22 249 127q-9 92 -68 172.5t-125 127.5q-38 30 -28 78z" />
    <glyph glyph-name="uniFC14" unicode="&#xfc14;" horiz-adv-x="1504" arabic-form="isolated" 
d="M863 -612q10 17 34 10q88 -30 161 -88q19 -17 11 -37l-79 -155q-14 -21 -35.5 -5.5t-116.5 69.5l-56 -110q-13 -21 -36 -4.5t-160 92.5q-22 13 -11 34l81 148q10 17 34 10q65 -22 121 -59zM868 295q137 14 272 -2t205 -74q45 -40 46 -119q-1 -139 -36.5 -193.5
t-101.5 -110.5q-346 -291 -690 -266q-526 38 -444 634q22 166 103 289q24 34 51 14q26 -22 2 -66q-97 -181 -73 -319q52 -294 403 -296t651 277q-94 48 -386 48q-28 0 -37 23t-5 36zM753 1703q10 17 34 10q88 -30 161 -88q19 -17 10 -37l-79 -155q-13 -21 -36 -4.5
t-159 92.5q-23 13 -11 33zM926 1474q10 17 34 10q88 -30 161 -88q19 -17 11 -37l-79 -155q-13 -22 -34.5 -6.5t-101.5 61.5l-52 -102q-13 -21 -36 -4.5t-159 92.5q-23 13 -12 34l81 148q20 34 140 -39zM963 968q15 64 68 35q53 -30 118 -141q147 -249 103 -457
q-19 -88 -67 -150q-110 -144 -319 -152q-14 0 -24 4q-37 16 -21 59l44 120q15 17 37 20q161 22 249 127q-9 92 -68 172.5t-125 127.5q-38 30 -28 78z" />
    <glyph glyph-name="uniFC15" unicode="&#xfc15;" horiz-adv-x="1711" arabic-form="isolated" 
d="M341 508q569 -28 812 6q61 4 56 -40l-18 -132q-4 -37 -48 -43q-454 -55 -687 -304q-152 -163 -136 -343q29 -318 318 -413.5t977 -57.5q40 2 45 -30q5 -26 -12 -35q-231 -104 -362.5 -145.5t-246.5 -39.5q-432 12 -618.5 178t-197.5 438q-20 481 271 729l-381 3
q-104 1 -53 91l72 130q9 17 209 8zM1433 8q10 17 34 10q88 -30 161 -88q19 -17 10 -37l-79 -155q-13 -21 -36 -4.5t-160 92.5q-22 13 -11 34zM377 990q19 195 189 211q90 7 286 -99q263 -139 578 -164q37 -4 56 -29t6 -64l-29 -85q-17 -53 -74 -43q-144 30 -364 21
t-552 -175q-183 -92 -281 -226h-151l13 42q22 69 50 131q265 234 712 377q-143 65 -216.5 79.5t-148.5 -20.5q-20 -8 -36 -6q-39 5 -38 50z" />
    <glyph glyph-name="uniFC16" unicode="&#xfc16;" horiz-adv-x="2413" arabic-form="isolated" 
d="M504 436q203 -209 540 -221q100 -4 94.5 -124t-64.5 -121q-180 -2 -334 67q23 -195 -56 -266q-37 -32 -80 2q-132 107 -185 311q-111 -16 -187 -106q-5 -42 50 -244q201 -738 189 -860q-8 -78 -50 -78q-44 1 -57 91q-22 143 -147 577t-72.5 624t264.5 291q29 126 95 57z
M1643 -74q10 17 34 10q88 -30 161 -88q19 -17 10 -37l-79 -155q-13 -21 -36 -4.5t-160 92.5q-22 13 -11 34zM1027 455q10 72 75.5 143t137.5 72t350.5 -109.5t599.5 -96.5q60 3 32 -80l-42 -126q-12 -38 -37 -35q-241 39 -439.5 -25.5t-352.5 -146t-277 -81.5q-33 1 -54 39
q-36 73 -28 129t23 65.5t26 11.5q313 19 515 119q-309 131 -482 75q-55 -20 -47 46z" />
    <glyph glyph-name="uniFC17" unicode="&#xfc17;" horiz-adv-x="1711" arabic-form="isolated" 
d="M799 -232q10 17 34 10q88 -30 161 -88q19 -17 10 -37l-79 -155q-13 -21 -36 -4.5t-160 92.5q-22 13 -11 34zM341 508q569 -28 812 6q61 4 56 -40l-18 -132q-4 -37 -48 -43q-454 -55 -687 -304q-152 -163 -136 -343q29 -318 318 -413.5t977 -57.5q40 2 45 -30
q5 -26 -12 -35q-231 -104 -362.5 -145.5t-246.5 -39.5q-432 12 -618.5 178t-197.5 438q-20 481 271 729l-381 3q-104 1 -53 91l72 130q9 17 209 8zM377 990q19 195 189 211q90 7 286 -99q263 -139 578 -164q37 -4 56 -29t6 -64l-29 -85q-17 -53 -74 -43q-144 30 -364 21
t-552 -175q-183 -92 -281 -226h-151l13 42q22 69 50 131q265 234 712 377q-143 65 -216.5 79.5t-148.5 -20.5q-20 -8 -36 -6q-39 5 -38 50z" />
    <glyph glyph-name="uniFC18" unicode="&#xfc18;" horiz-adv-x="2413" arabic-form="isolated" 
d="M504 436q203 -209 540 -221q100 -4 94.5 -124t-64.5 -121q-180 -2 -334 67q23 -195 -56 -266q-37 -32 -80 2q-132 107 -185 311q-111 -16 -187 -106q-5 -42 50 -244q201 -738 189 -860q-8 -78 -50 -78q-44 1 -57 91q-22 143 -147 577t-72.5 624t264.5 291q29 126 95 57z
M1027 455q10 72 75.5 143t137.5 72t350.5 -109.5t599.5 -96.5q60 3 32 -80l-42 -126q-12 -38 -37 -35q-241 39 -439.5 -25.5t-352.5 -146t-277 -81.5q-33 1 -54 39q-36 73 -28 129t23 65.5t26 11.5q313 19 515 119q-309 131 -482 75q-55 -20 -47 46z" />
    <glyph glyph-name="uniFC19" unicode="&#xfc19;" horiz-adv-x="1711" arabic-form="isolated" 
d="M799 -232q10 17 34 10q88 -30 161 -88q19 -17 10 -37l-79 -155q-13 -21 -36 -4.5t-160 92.5q-22 13 -11 34zM341 508q569 -28 812 6q61 4 56 -40l-18 -132q-4 -37 -48 -43q-454 -55 -687 -304q-152 -163 -136 -343q29 -318 318 -413.5t977 -57.5q40 2 45 -30
q5 -26 -12 -35q-231 -104 -362.5 -145.5t-246.5 -39.5q-432 12 -618.5 178t-197.5 438q-20 481 271 729l-381 3q-104 1 -53 91l72 130q9 17 209 8zM1254 1467q10 17 34 10q88 -30 161 -88q19 -17 10 -37l-79 -155q-13 -21 -36 -4.5t-160 92.5q-22 13 -11 34zM377 990
q19 195 189 211q90 7 286 -99q263 -139 578 -164q37 -4 56 -29t6 -64l-29 -85q-17 -53 -74 -43q-144 30 -364 21t-552 -175q-183 -92 -281 -226h-151l13 42q22 69 50 131q265 234 712 377q-143 65 -216.5 79.5t-148.5 -20.5q-20 -8 -36 -6q-39 5 -38 50z" />
    <glyph glyph-name="uniFC1A" unicode="&#xfc1a;" horiz-adv-x="1711" arabic-form="isolated" 
d="M341 508q569 -28 812 6q61 4 56 -40l-18 -132q-4 -37 -48 -43q-454 -55 -687 -304q-152 -163 -136 -343q29 -318 318 -413.5t977 -57.5q40 2 45 -30q5 -26 -12 -35q-231 -104 -362.5 -145.5t-246.5 -39.5q-432 12 -618.5 178t-197.5 438q-20 481 271 729l-381 3
q-104 1 -53 91l72 130q9 17 209 8zM1254 1467q10 17 34 10q88 -30 161 -88q19 -17 10 -37l-79 -155q-13 -21 -36 -4.5t-160 92.5q-22 13 -11 34zM377 990q19 195 189 211q90 7 286 -99q263 -139 578 -164q37 -4 56 -29t6 -64l-29 -85q-17 -53 -74 -43q-144 30 -364 21
t-552 -175q-183 -92 -281 -226h-151l13 42q22 69 50 131q265 234 712 377q-143 65 -216.5 79.5t-148.5 -20.5q-20 -8 -36 -6q-39 5 -38 50z" />
    <glyph glyph-name="uniFC1B" unicode="&#xfc1b;" horiz-adv-x="2413" arabic-form="isolated" 
d="M504 436q203 -209 540 -221q100 -4 94.5 -124t-64.5 -121q-180 -2 -334 67q23 -195 -56 -266q-37 -32 -80 2q-132 107 -185 311q-111 -16 -187 -106q-5 -42 50 -244q201 -738 189 -860q-8 -78 -50 -78q-44 1 -57 91q-22 143 -147 577t-72.5 624t264.5 291q29 126 95 57z
M1502 1078q10 17 34 10q88 -30 161 -88q19 -17 10 -37l-79 -155q-13 -21 -36 -4.5t-160 92.5q-22 13 -11 34zM1027 455q10 72 75.5 143t137.5 72t350.5 -109.5t599.5 -96.5q60 3 32 -80l-42 -126q-12 -38 -37 -35q-241 39 -439.5 -25.5t-352.5 -146t-277 -81.5q-33 1 -54 39
q-36 73 -28 129t23 65.5t26 11.5q313 19 515 119q-309 131 -482 75q-55 -20 -47 46z" />
    <glyph glyph-name="uniFC1C" unicode="&#xfc1c;" horiz-adv-x="1589" arabic-form="isolated" 
d="M799 -232q10 17 34 10q88 -30 161 -88q19 -17 10 -37l-79 -155q-13 -21 -36 -4.5t-160 92.5q-22 13 -11 34zM341 508q569 -28 812 6q61 4 56 -40l-18 -132q-4 -37 -48 -43q-454 -55 -687 -304q-152 -163 -136 -343q29 -318 318 -413.5t977 -57.5q40 2 45 -30
q5 -26 -12 -35q-231 -104 -362.5 -145.5t-246.5 -39.5q-432 12 -618.5 178t-197.5 438q-20 481 271 729l-381 3q-104 1 -53 91l72 130q9 17 209 8zM1234 1066q16 68 58.5 16.5t56.5 -122.5q35 -189 -75 -318q-33 -36 -81 -31q-112 11 -188 104q-76 -151 -193 -156
q-151 -6 -271 203q-35 58 -51 7q-82 -278 -335 -417q-42 -23 -65 -12q-49 23 -20 99q3 10 15.5 44t36.5 43q215 74 311 343q33 82 60 109q38 39 79 -22q119 -151 230 -151q146 0 216 227q11 34 39.5 21t16.5 -54.5t-11 -57.5q19 -91 192 -89q-17 21 -38 36.5t-12 58.5z" />
    <glyph glyph-name="uniFC1D" unicode="&#xfc1d;" horiz-adv-x="1589" arabic-form="isolated" 
d="M341 508q569 -28 812 6q61 4 56 -40l-18 -132q-4 -37 -48 -43q-454 -55 -687 -304q-152 -163 -136 -343q29 -318 318 -413.5t977 -57.5q40 2 45 -30q5 -26 -12 -35q-231 -104 -362.5 -145.5t-246.5 -39.5q-432 12 -618.5 178t-197.5 438q-20 481 271 729l-381 3
q-104 1 -53 91l72 130q9 17 209 8zM1234 1066q16 68 58.5 16.5t56.5 -122.5q35 -189 -75 -318q-33 -36 -81 -31q-112 11 -188 104q-76 -151 -193 -156q-151 -6 -271 203q-35 58 -51 7q-82 -278 -335 -417q-42 -23 -65 -12q-49 23 -20 99q3 10 15.5 44t36.5 43
q215 74 311 343q33 82 60 109q38 39 79 -22q119 -151 230 -151q146 0 216 227q11 34 39.5 21t16.5 -54.5t-11 -57.5q19 -91 192 -89q-17 21 -38 36.5t-12 58.5z" />
    <glyph glyph-name="uniFC1E" unicode="&#xfc1e;" horiz-adv-x="1589" arabic-form="isolated" 
d="M129 1238q10 17 34 10q88 -30 161 -88q19 -17 10 -37l-79 -155q-13 -21 -36 -4.5t-160 92.5q-22 13 -11 34zM341 508q569 -28 812 6q61 4 56 -40l-18 -132q-4 -37 -48 -43q-454 -55 -687 -304q-152 -163 -136 -343q29 -318 318 -413.5t977 -57.5q40 2 45 -30
q5 -26 -12 -35q-231 -104 -362.5 -145.5t-246.5 -39.5q-432 12 -618.5 178t-197.5 438q-20 481 271 729l-381 3q-104 1 -53 91l72 130q9 17 209 8zM1234 1066q16 68 58.5 16.5t56.5 -122.5q35 -189 -75 -318q-33 -36 -81 -31q-112 11 -188 104q-76 -151 -193 -156
q-151 -6 -271 203q-35 58 -51 7q-82 -278 -335 -417q-42 -23 -65 -12q-49 23 -20 99q3 10 15.5 44t36.5 43q215 74 311 343q33 82 60 109q38 39 79 -22q119 -151 230 -151q146 0 216 227q11 34 39.5 21t16.5 -54.5t-11 -57.5q19 -91 192 -89q-17 21 -38 36.5t-12 58.5z" />
    <glyph glyph-name="uniFC1F" unicode="&#xfc1f;" horiz-adv-x="1864" arabic-form="isolated" 
d="M848 416q85 -1 206 -143q47 -53 75 -58q97 -18 107 -92q8 -54 -13.5 -103t-68.5 -50q-119 1 -227 146q-66 89 -205.5 72t-233.5 -98q-47 -41 -82 -7q-55 51 -34.5 83.5t92.5 84.5q239 167 384 165zM363 -51q-49 21 -37 75q28 119 41 137t19 23q30 27 122 -2
q193 -60 349 -167q58 -40 44 -108q-21 -93 -24 -104q-16 -59 -65 -55q-206 26 -375 -17q-107 -27 -135 -61q6 -31 89.5 -319t93.5 -340q25 -142 5 -291q-5 -42 -39 -36.5t-39 99t-162 585.5q-52 164 -29.5 304.5t59 192t83.5 84.5zM1583 545q14 70 65 19q83 -84 68 -285
q-6 -76 -40.5 -146.5t-74.5 -74.5q-123 -12 -259 94q-67 -182 -180 -182q-43 1 -63 66q-54 169 30 179q94 10 159 71.5t83 204.5q4 33 34 28t26 -39q-9 -84 -3 -103q12 -22 61 -46.5t109 -35.5q-9 21 -31 39q-23 18 -17 44z" />
    <glyph glyph-name="uniFC20" unicode="&#xfc20;" horiz-adv-x="1952" arabic-form="isolated" 
d="M341 508q569 -28 812 6q61 4 56 -40l-18 -132q-4 -37 -48 -43q-454 -55 -687 -304q-152 -163 -136 -343q29 -318 318 -413.5t977 -57.5q40 2 45 -30q5 -26 -12 -35q-231 -104 -362.5 -145.5t-246.5 -39.5q-432 12 -618.5 178t-197.5 438q-20 481 271 729l-381 3
q-104 1 -53 91l72 130q9 17 209 8zM1428 1230q67 -1 168 -80.5t112 -147.5t-73 -206t-142 -161q-307 -123 -687 -65q-22 -40 -27 -48q-23 -32 -46.5 -16.5t2.5 87.5q-108 42 -182 128q-114 -208 -355 -382q-57 -41 -94 -28q-66 24 -24 169q7 27 25 35q178 74 295 186
t160 241q12 34 35.5 35.5t51.5 -38.5q61 -89 226 -130q127 158 283.5 290t271.5 131zM1519 880q-117 109 -229 92q-185 -28 -321 -177q389 -9 550 85z" />
    <glyph glyph-name="uniFC21" unicode="&#xfc21;" horiz-adv-x="2250" arabic-form="isolated" 
d="M848 416q85 -1 206 -143q47 -53 75 -58q97 -18 107 -92q8 -54 -13.5 -103t-68.5 -50q-119 1 -227 146q-66 89 -205.5 72t-233.5 -98q-47 -41 -82 -7q-55 51 -34.5 83.5t92.5 84.5q239 167 384 165zM363 -51q-49 21 -37 75q28 119 41 137t19 23q30 27 122 -2
q193 -60 349 -167q58 -40 44 -108q-21 -93 -24 -104q-16 -59 -65 -55q-206 26 -375 -17q-107 -27 -135 -61q6 -31 89.5 -319t93.5 -340q25 -142 5 -291q-5 -42 -39 -36.5t-39 99t-162 585.5q-52 164 -29.5 304.5t59 192t83.5 84.5zM1267 219q289 502 526 508q91 2 212 -99
q66 -57 65.5 -125t-34.5 -172t-57 -127q-200 -207 -715 -237q-11 -75 -24 -99q-21 -26 -51.5 -10t-15.5 113q-69 8 -93 65q-78 181 61 179q80 -1 126 4zM1909 384q-144 74 -233 53q-163 -40 -287 -206q398 57 520 153z" />
    <glyph glyph-name="uniFC22" unicode="&#xfc22;" horiz-adv-x="1952" arabic-form="isolated" 
d="M799 -232q10 17 34 10q88 -30 161 -88q19 -17 10 -37l-79 -155q-13 -21 -36 -4.5t-160 92.5q-22 13 -11 34zM341 508q569 -28 812 6q61 4 56 -40l-18 -132q-4 -37 -48 -43q-454 -55 -687 -304q-152 -163 -136 -343q29 -318 318 -413.5t977 -57.5q40 2 45 -30
q5 -26 -12 -35q-231 -104 -362.5 -145.5t-246.5 -39.5q-432 12 -618.5 178t-197.5 438q-20 481 271 729l-381 3q-104 1 -53 91l72 130q9 17 209 8zM907 1534q10 17 34 10q88 -30 161 -88q19 -17 10 -37l-79 -155q-13 -21 -36 -4.5t-160 92.5q-22 13 -11 34zM1428 1230
q67 -1 168 -80.5t112 -147.5t-73 -206t-142 -161q-307 -123 -687 -65q-22 -40 -27 -48q-23 -32 -46.5 -16.5t2.5 87.5q-108 42 -182 128q-114 -208 -355 -382q-57 -41 -94 -28q-66 24 -24 169q7 27 25 35q178 74 295 186t160 241q12 34 35.5 35.5t51.5 -38.5
q61 -89 226 -130q127 158 283.5 290t271.5 131zM1519 880q-117 109 -229 92q-185 -28 -321 -177q389 -9 550 85z" />
    <glyph glyph-name="uniFC23" unicode="&#xfc23;" horiz-adv-x="1952" arabic-form="isolated" 
d="M341 508q569 -28 812 6q61 4 56 -40l-18 -132q-4 -37 -48 -43q-454 -55 -687 -304q-152 -163 -136 -343q29 -318 318 -413.5t977 -57.5q40 2 45 -30q5 -26 -12 -35q-231 -104 -362.5 -145.5t-246.5 -39.5q-432 12 -618.5 178t-197.5 438q-20 481 271 729l-381 3
q-104 1 -53 91l72 130q9 17 209 8zM907 1534q10 17 34 10q88 -30 161 -88q19 -17 10 -37l-79 -155q-13 -21 -36 -4.5t-160 92.5q-22 13 -11 34zM1428 1230q67 -1 168 -80.5t112 -147.5t-73 -206t-142 -161q-307 -123 -687 -65q-22 -40 -27 -48q-23 -32 -46.5 -16.5t2.5 87.5
q-108 42 -182 128q-114 -208 -355 -382q-57 -41 -94 -28q-66 24 -24 169q7 27 25 35q178 74 295 186t160 241q12 34 35.5 35.5t51.5 -38.5q61 -89 226 -130q127 158 283.5 290t271.5 131zM1519 880q-117 109 -229 92q-185 -28 -321 -177q389 -9 550 85z" />
    <glyph glyph-name="uniFC24" unicode="&#xfc24;" horiz-adv-x="1952" arabic-form="isolated" 
d="M129 1238q10 17 34 10q88 -30 161 -88q19 -17 10 -37l-79 -155q-13 -21 -36 -4.5t-160 92.5q-22 13 -11 34zM341 508q569 -28 812 6q61 4 56 -40l-18 -132q-4 -37 -48 -43q-454 -55 -687 -304q-152 -163 -136 -343q29 -318 318 -413.5t977 -57.5q40 2 45 -30
q5 -26 -12 -35q-231 -104 -362.5 -145.5t-246.5 -39.5q-432 12 -618.5 178t-197.5 438q-20 481 271 729l-381 3q-104 1 -53 91l72 130q9 17 209 8zM907 1534q10 17 34 10q88 -30 161 -88q19 -17 10 -37l-79 -155q-13 -21 -36 -4.5t-160 92.5q-22 13 -11 34zM1428 1230
q67 -1 168 -80.5t112 -147.5t-73 -206t-142 -161q-307 -123 -687 -65q-22 -40 -27 -48q-23 -32 -46.5 -16.5t2.5 87.5q-108 42 -182 128q-114 -208 -355 -382q-57 -41 -94 -28q-66 24 -24 169q7 27 25 35q178 74 295 186t160 241q12 34 35.5 35.5t51.5 -38.5
q61 -89 226 -130q127 158 283.5 290t271.5 131zM1519 880q-117 109 -229 92q-185 -28 -321 -177q389 -9 550 85z" />
    <glyph glyph-name="uniFC25" unicode="&#xfc25;" horiz-adv-x="2250" arabic-form="isolated" 
d="M848 416q85 -1 206 -143q47 -53 75 -58q97 -18 107 -92q8 -54 -13.5 -103t-68.5 -50q-119 1 -227 146q-66 89 -205.5 72t-233.5 -98q-47 -41 -82 -7q-55 51 -34.5 83.5t92.5 84.5q239 167 384 165zM363 -51q-49 21 -37 75q28 119 41 137t19 23q30 27 122 -2
q193 -60 349 -167q58 -40 44 -108q-21 -93 -24 -104q-16 -59 -65 -55q-206 26 -375 -17q-107 -27 -135 -61q6 -31 89.5 -319t93.5 -340q25 -142 5 -291q-5 -42 -39 -36.5t-39 99t-162 585.5q-52 164 -29.5 304.5t59 192t83.5 84.5zM1273 1128q10 17 34 10q88 -30 161 -88
q19 -17 10 -37l-79 -155q-13 -21 -36 -4.5t-160 92.5q-22 13 -11 34zM1267 219q289 502 526 508q91 2 212 -99q66 -57 65.5 -125t-34.5 -172t-57 -127q-200 -207 -715 -237q-11 -75 -24 -99q-21 -26 -51.5 -10t-15.5 113q-69 8 -93 65q-78 181 61 179q80 -1 126 4zM1909 384
q-144 74 -233 53q-163 -40 -287 -206q398 57 520 153z" />
    <glyph glyph-name="uniFC26" unicode="&#xfc26;" horiz-adv-x="2473" arabic-form="isolated" 
d="M132 310q-23 249 235 253q75 1 242 -27q271 -47 541 -1q106 18 86 -47l-41 -142q-10 -33 -42 -37q-123 -11 -207 -36q69 -79 335 -58q63 5 88 -69q18 -57 3.5 -116t-56.5 -60q-275 -1 -368 73t-98 203q-175 -37 -313 -125q-177 -113 -233 -267.5t-15 -295.5
q90 -304 460 -376q320 -62 814 3q80 10 85 -29q3 -30 -78.5 -58t-153.5 -85.5t-91.5 -67.5t-42.5 -13q-601 -73 -866 120q-212 154 -229 489q-25 527 329 769q-195 28 -329 -42q-49 -26 -55 42zM1512 322q3 133 -67.5 497.5t-92.5 434t-21 77.5q0 46 39 134q26 58 65 -10
q66 -111 94 -139q51 -50 24 -86l-44 -57q-3 -5 0 -23q77 -409 85.5 -522t7.5 -220q252 233 386 269q165 45 290 -152q21 -34 13 -80q-22 -141 -76.5 -237.5t-185.5 -127.5q-369 -88 -715 -110q-44 -1 -69.5 59t-22 121t61.5 65q105 4 139 9zM1952 439q-155 -3 -374 -201
q384 39 581 104q-93 98 -207 97z" />
    <glyph glyph-name="uniFC27" unicode="&#xfc27;" horiz-adv-x="2233" arabic-form="isolated" 
d="M504 436q203 -209 540 -221q100 -4 94.5 -124t-64.5 -121q-180 -2 -334 67q23 -195 -56 -266q-37 -32 -80 2q-132 107 -185 311q-111 -16 -187 -106q-5 -42 50 -244q201 -738 189 -860q-8 -78 -50 -78q-44 1 -57 91q-22 143 -147 577t-72.5 624t264.5 291q29 126 95 57z
M1272 322q3 133 -67.5 497.5t-92.5 434t-21 77.5q0 46 39 134q26 58 65 -10q66 -111 94 -139q51 -50 24 -86l-44 -57q-3 -5 0 -23q77 -409 85.5 -522t7.5 -220q252 233 386 269q165 45 290 -152q21 -34 13 -80q-22 -141 -76.5 -237.5t-185.5 -127.5q-369 -88 -715 -110
q-44 -1 -69.5 59t-22 121t61.5 65q105 4 139 9zM1712 439q-155 -3 -374 -201q384 39 581 104q-93 98 -207 97z" />
    <glyph glyph-name="uniFC28" unicode="&#xfc28;" horiz-adv-x="2233" arabic-form="isolated" 
d="M504 436q203 -209 540 -221q100 -4 94.5 -124t-64.5 -121q-180 -2 -334 67q23 -195 -56 -266q-37 -32 -80 2q-132 107 -185 311q-111 -16 -187 -106q-5 -42 50 -244q201 -738 189 -860q-8 -78 -50 -78q-44 1 -57 91q-22 143 -147 577t-72.5 624t264.5 291q29 126 95 57z
M1650 1128q10 17 34 10q88 -30 161 -88q19 -17 10 -37l-79 -155q-13 -21 -36 -4.5t-160 92.5q-22 13 -11 34zM1272 322q3 133 -67.5 497.5t-92.5 434t-21 77.5q0 46 39 134q26 58 65 -10q66 -111 94 -139q51 -50 24 -86l-44 -57q-3 -5 0 -23q77 -409 85.5 -522t7.5 -220
q252 233 386 269q165 45 290 -152q21 -34 13 -80q-22 -141 -76.5 -237.5t-185.5 -127.5q-369 -88 -715 -110q-44 -1 -69.5 59t-22 121t61.5 65q105 4 139 9zM1712 439q-155 -3 -374 -201q384 39 581 104q-93 98 -207 97z" />
    <glyph glyph-name="uniFC29" unicode="&#xfc29;" horiz-adv-x="1395" arabic-form="isolated" 
d="M799 -232q10 17 34 10q88 -30 161 -88q19 -17 10 -37l-79 -155q-13 -21 -36 -4.5t-160 92.5q-22 13 -11 34zM341 508q569 -28 812 6q61 4 56 -40l-18 -132q-4 -37 -48 -43q-454 -55 -687 -304q-152 -163 -136 -343q29 -318 318 -413.5t977 -57.5q40 2 45 -30
q5 -26 -12 -35q-231 -104 -362.5 -145.5t-246.5 -39.5q-432 12 -618.5 178t-197.5 438q-20 481 271 729l-381 3q-104 1 -53 91l72 130q9 17 209 8zM1102 957q26 13 57 -13.5t-4 -102.5q-1 -2 -33 -64q-16 -29 -47 -38q-528 -150 -620 -185l-238 -112q-66 -9 -85 36
q-10 23 10 48q65 89 295 194q-54 44 -84 86q-47 66 -19.5 173.5t134.5 208.5t214 93q153 -13 264 -149q26 -34 9.5 -61t-52.5 -15q-122 39 -200 37q-159 -5 -221 -100q97 -117 211 -127q187 -16 409 91z" />
    <glyph glyph-name="uniFC2A" unicode="&#xfc2a;" horiz-adv-x="2048" arabic-form="isolated" 
d="M504 436q203 -209 540 -221q100 -4 94.5 -124t-64.5 -121q-180 -2 -334 67q23 -195 -56 -266q-37 -32 -80 2q-132 107 -185 311q-111 -16 -187 -106q-5 -42 50 -244q201 -738 189 -860q-8 -78 -50 -78q-44 1 -57 91q-22 143 -147 577t-72.5 624t264.5 291q29 126 95 57z
M1875 508l-22 -165q-4 -27 -45.5 -45.5t-284.5 -120.5l-450 -207q-68 0 -103 100.5t62 142.5q76 33 115 51q-122 93 -107 223q31 276 248 384q55 27 139.5 -11t175.5 -122q49 -45 39.5 -71.5t-102.5 -1t-221.5 -4.5t-160.5 -121q-9 -25 67 -85q190 -148 492 58q42 28 70 47
q104 71 88 -52z" />
    <glyph glyph-name="uniFC2B" unicode="&#xfc2b;" horiz-adv-x="1395" arabic-form="isolated" 
d="M799 -232q10 17 34 10q88 -30 161 -88q19 -17 10 -37l-79 -155q-13 -21 -36 -4.5t-160 92.5q-22 13 -11 34zM341 508q569 -28 812 6q61 4 56 -40l-18 -132q-4 -37 -48 -43q-454 -55 -687 -304q-152 -163 -136 -343q29 -318 318 -413.5t977 -57.5q40 2 45 -30
q5 -26 -12 -35q-231 -104 -362.5 -145.5t-246.5 -39.5q-432 12 -618.5 178t-197.5 438q-20 481 271 729l-381 3q-104 1 -53 91l72 130q9 17 209 8zM462 1613q10 17 34 10q88 -30 161 -88q19 -17 10 -37l-79 -155q-13 -21 -36 -4.5t-160 92.5q-22 13 -11 34zM1102 957
q26 13 57 -13.5t-4 -102.5q-1 -2 -33 -64q-16 -29 -47 -38q-528 -150 -620 -185l-238 -112q-66 -9 -85 36q-10 23 10 48q65 89 295 194q-54 44 -84 86q-47 66 -19.5 173.5t134.5 208.5t214 93q153 -13 264 -149q26 -34 9.5 -61t-52.5 -15q-122 39 -200 37q-159 -5 -221 -100
q97 -117 211 -127q187 -16 409 91z" />
    <glyph glyph-name="uniFC2C" unicode="&#xfc2c;" horiz-adv-x="2048" arabic-form="isolated" 
d="M504 436q203 -209 540 -221q100 -4 94.5 -124t-64.5 -121q-180 -2 -334 67q23 -195 -56 -266q-37 -32 -80 2q-132 107 -185 311q-111 -16 -187 -106q-5 -42 50 -244q201 -738 189 -860q-8 -78 -50 -78q-44 1 -57 91q-22 143 -147 577t-72.5 624t264.5 291q29 126 95 57z
M1173 1228q10 17 34 10q88 -30 161 -88q19 -17 10 -37l-79 -155q-13 -21 -36 -4.5t-160 92.5q-22 13 -11 34zM1875 508l-22 -165q-4 -27 -45.5 -45.5t-284.5 -120.5l-450 -207q-68 0 -103 100.5t62 142.5q76 33 115 51q-122 93 -107 223q31 276 248 384q55 27 139.5 -11
t175.5 -122q49 -45 39.5 -71.5t-102.5 -1t-221.5 -4.5t-160.5 -121q-9 -25 67 -85q190 -148 492 58q42 28 70 47q104 71 88 -52z" />
    <glyph glyph-name="uniFC2D" unicode="&#xfc2d;" horiz-adv-x="1480" arabic-form="isolated" 
d="M799 -232q10 17 34 10q88 -30 161 -88q19 -17 10 -37l-79 -155q-13 -21 -36 -4.5t-160 92.5q-22 13 -11 34zM341 508q569 -28 812 6q61 4 56 -40l-18 -132q-4 -37 -48 -43q-454 -55 -687 -304q-152 -163 -136 -343q29 -318 318 -413.5t977 -57.5q40 2 45 -30
q5 -26 -12 -35q-231 -104 -362.5 -145.5t-246.5 -39.5q-432 12 -618.5 178t-197.5 438q-20 481 271 729l-381 3q-104 1 -53 91l72 130q9 17 209 8zM121 1638q10 17 34 10q88 -30 161 -88q19 -17 10 -37l-79 -155q-13 -21 -36 -4.5t-160 92.5q-22 13 -11 34zM223 997
q20 -72 71 -74q51 -1 62 50q-47 43 -81.5 47.5t-51.5 -23.5zM531 727q-8 43 -51 84q-95 -164 -224 -129q-151 41 -100 343q35 207 136 240q64 21 157 -76q125 -131 170 -421q15 -98 -23 -185q-96 -227 -369 -219q-86 3 -109.5 45.5t9.5 91t53 59.5t53 17q284 53 298 150z
" />
    <glyph glyph-name="uniFC2E" unicode="&#xfc2e;" horiz-adv-x="1480" arabic-form="isolated" 
d="M341 508q569 -28 812 6q61 4 56 -40l-18 -132q-4 -37 -48 -43q-454 -55 -687 -304q-152 -163 -136 -343q29 -318 318 -413.5t977 -57.5q40 2 45 -30q5 -26 -12 -35q-231 -104 -362.5 -145.5t-246.5 -39.5q-432 12 -618.5 178t-197.5 438q-20 481 271 729l-381 3
q-104 1 -53 91l72 130q9 17 209 8zM121 1638q10 17 34 10q88 -30 161 -88q19 -17 10 -37l-79 -155q-13 -21 -36 -4.5t-160 92.5q-22 13 -11 34zM223 997q20 -72 71 -74q51 -1 62 50q-47 43 -81.5 47.5t-51.5 -23.5zM531 727q-8 43 -51 84q-95 -164 -224 -129
q-151 41 -100 343q35 207 136 240q64 21 157 -76q125 -131 170 -421q15 -98 -23 -185q-96 -227 -369 -219q-86 3 -109.5 45.5t9.5 91t53 59.5t53 17q284 53 298 150z" />
    <glyph glyph-name="uniFC2F" unicode="&#xfc2f;" horiz-adv-x="1480" arabic-form="isolated" 
d="M898 918q10 17 34 10q88 -30 161 -88q19 -17 10 -37l-79 -155q-13 -21 -36 -4.5t-160 92.5q-22 13 -11 34zM341 508q569 -28 812 6q61 4 56 -40l-18 -132q-4 -37 -48 -43q-454 -55 -687 -304q-152 -163 -136 -343q29 -318 318 -413.5t977 -57.5q40 2 45 -30
q5 -26 -12 -35q-231 -104 -362.5 -145.5t-246.5 -39.5q-432 12 -618.5 178t-197.5 438q-20 481 271 729l-381 3q-104 1 -53 91l72 130q9 17 209 8zM121 1638q10 17 34 10q88 -30 161 -88q19 -17 10 -37l-79 -155q-13 -21 -36 -4.5t-160 92.5q-22 13 -11 34zM223 997
q20 -72 71 -74q51 -1 62 50q-47 43 -81.5 47.5t-51.5 -23.5zM531 727q-8 43 -51 84q-95 -164 -224 -129q-151 41 -100 343q35 207 136 240q64 21 157 -76q125 -131 170 -421q15 -98 -23 -185q-96 -227 -369 -219q-86 3 -109.5 45.5t9.5 91t53 59.5t53 17q284 53 298 150z
" />
    <glyph glyph-name="uniFC30" unicode="&#xfc30;" horiz-adv-x="1675" arabic-form="isolated" 
d="M504 436q203 -209 540 -221q100 -4 94.5 -124t-64.5 -121q-180 -2 -334 67q23 -195 -56 -266q-37 -32 -80 2q-132 107 -185 311q-111 -16 -187 -106q-5 -42 50 -244q201 -738 189 -860q-8 -78 -50 -78q-44 1 -57 91q-22 143 -147 577t-72.5 624t264.5 291q29 126 95 57z
M1027 1278q10 17 34 10q88 -30 161 -88q19 -17 10 -37l-79 -155q-13 -21 -36 -4.5t-160 92.5q-22 13 -11 34zM1147 656q-47 0 -41 -91q31 -10 79 -5t56 24q-55 72 -94 72zM1168 908q62 0 108 -41q183 -165 218 -449q20 -164 -30 -242q-139 -211 -389 -206q-50 1 -74 62
q-23 62 -16 120q8 60 57 63q255 18 360 128q-16 69 -26 79q-15 15 -26 -10q-30 -69 -90 -83q-196 -48 -227 106q-37 178 12 325.5t123 147.5z" />
    <glyph glyph-name="uniFC31" unicode="&#xfc31;" horiz-adv-x="1462" arabic-form="isolated" 
d="M868 295q137 14 272 -2t205 -74q45 -40 46 -119q-1 -139 -36.5 -193.5t-101.5 -110.5q-346 -291 -690 -266q-526 38 -444 634q22 166 103 289q24 34 51 14q26 -22 2 -66q-97 -181 -73 -319q52 -294 403 -296t651 277q-94 48 -386 48q-28 0 -37 23t-5 36zM737 1558
q10 17 34 10q88 -30 161 -88q19 -17 10 -37l-79 -155q-13 -21 -36 -4.5t-160 92.5q-22 13 -11 34zM916.5 781q-27.5 -1 -50.5 -35q-11 -17 17 -35q67 -45 122 11q7 9 -3 17q-58 43 -85.5 42zM1119 931q180 -228 134 -538q-41 -281 -377 -281q-93 6 -12 180q11 24 40 28
q252 37 294 124q16 33 -67 127q-27 -72 -72 -100q-121 -74 -216 52q-74 99 -30 254q65 233 168 237q71 2 138 -83z" />
    <glyph glyph-name="uniFC32" unicode="&#xfc32;" horiz-adv-x="1462" arabic-form="isolated" 
d="M863 -612q10 17 34 10q88 -30 161 -88q19 -17 11 -37l-79 -155q-14 -21 -35.5 -5.5t-116.5 69.5l-56 -110q-13 -21 -36 -4.5t-160 92.5q-22 13 -11 34l81 148q10 17 34 10q65 -22 121 -59zM868 295q137 14 272 -2t205 -74q45 -40 46 -119q-1 -139 -36.5 -193.5
t-101.5 -110.5q-346 -291 -690 -266q-526 38 -444 634q22 166 103 289q24 34 51 14q26 -22 2 -66q-97 -181 -73 -319q52 -294 403 -296t651 277q-94 48 -386 48q-28 0 -37 23t-5 36zM737 1558q10 17 34 10q88 -30 161 -88q19 -17 10 -37l-79 -155q-13 -21 -36 -4.5
t-160 92.5q-22 13 -11 34zM916.5 781q-27.5 -1 -50.5 -35q-11 -17 17 -35q67 -45 122 11q7 9 -3 17q-58 43 -85.5 42zM1119 931q180 -228 134 -538q-41 -281 -377 -281q-93 6 -12 180q11 24 40 28q252 37 294 124q16 33 -67 127q-27 -72 -72 -100q-121 -74 -216 52
q-74 99 -30 254q65 233 168 237q71 2 138 -83z" />
    <glyph glyph-name="uniFC33" unicode="&#xfc33;" horiz-adv-x="1480" arabic-form="isolated" 
d="M341 508q569 -28 812 6q61 4 56 -40l-18 -132q-4 -37 -48 -43q-454 -55 -687 -304q-152 -163 -136 -343q29 -318 318 -413.5t977 -57.5q40 2 45 -30q5 -26 -12 -35q-231 -104 -362.5 -145.5t-246.5 -39.5q-432 12 -618.5 178t-197.5 438q-20 481 271 729l-381 3
q-104 1 -53 91l72 130q9 17 209 8zM228 1684q10 17 34 10q88 -30 161 -88q19 -17 11 -37l-79 -155q-14 -21 -35.5 -5.5t-116.5 69.5l-56 -110q-13 -21 -36 -4.5t-160 92.5q-22 13 -11 34l81 148q10 17 34 10q65 -22 121 -59zM223 997q20 -72 71 -74q51 -1 62 50
q-47 43 -81.5 47.5t-51.5 -23.5zM531 727q-8 43 -51 84q-95 -164 -224 -129q-151 41 -100 343q35 207 136 240q64 21 157 -76q125 -131 170 -421q15 -98 -23 -185q-96 -227 -369 -219q-86 3 -109.5 45.5t9.5 91t53 59.5t53 17q284 53 298 150z" />
    <glyph glyph-name="uniFC34" unicode="&#xfc34;" horiz-adv-x="1675" arabic-form="isolated" 
d="M504 436q203 -209 540 -221q100 -4 94.5 -124t-64.5 -121q-180 -2 -334 67q23 -195 -56 -266q-37 -32 -80 2q-132 107 -185 311q-111 -16 -187 -106q-5 -42 50 -244q201 -738 189 -860q-8 -78 -50 -78q-44 1 -57 91q-22 143 -147 577t-72.5 624t264.5 291q29 126 95 57z
M1194 1324q10 17 34 10q88 -30 161 -88q19 -17 11 -37l-79 -155q-14 -21 -35.5 -5.5t-116.5 69.5l-56 -110q-13 -21 -36 -4.5t-160 92.5q-22 13 -11 34l81 148q10 17 34 10q65 -22 121 -59zM1147 656q-47 0 -41 -91q31 -10 79 -5t56 24q-55 72 -94 72zM1168 908
q62 0 108 -41q183 -165 218 -449q20 -164 -30 -242q-139 -211 -389 -206q-50 1 -74 62q-23 62 -16 120q8 60 57 63q255 18 360 128q-16 69 -26 79q-15 15 -26 -10q-30 -69 -90 -83q-196 -48 -227 106q-37 178 12 325.5t123 147.5z" />
    <glyph glyph-name="uniFC35" unicode="&#xfc35;" horiz-adv-x="1462" arabic-form="isolated" 
d="M868 295q137 14 272 -2t205 -74q45 -40 46 -119q-1 -139 -36.5 -193.5t-101.5 -110.5q-346 -291 -690 -266q-526 38 -444 634q22 166 103 289q24 34 51 14q26 -22 2 -66q-97 -181 -73 -319q52 -294 403 -296t651 277q-94 48 -386 48q-28 0 -37 23t-5 36zM833 1604
q10 17 34 10q88 -30 161 -88q19 -17 11 -37l-79 -155q-14 -21 -35.5 -5.5t-116.5 69.5l-56 -110q-13 -21 -36 -4.5t-160 92.5q-22 13 -11 34l81 148q10 17 34 10q65 -22 121 -59zM916.5 781q-27.5 -1 -50.5 -35q-11 -17 17 -35q67 -45 122 11q7 9 -3 17q-58 43 -85.5 42z
M1119 931q180 -228 134 -538q-41 -281 -377 -281q-93 6 -12 180q11 24 40 28q252 37 294 124q16 33 -67 127q-27 -72 -72 -100q-121 -74 -216 52q-74 99 -30 254q65 233 168 237q71 2 138 -83z" />
    <glyph glyph-name="uniFC36" unicode="&#xfc36;" horiz-adv-x="1462" arabic-form="isolated" 
d="M863 -612q10 17 34 10q88 -30 161 -88q19 -17 11 -37l-79 -155q-14 -21 -35.5 -5.5t-116.5 69.5l-56 -110q-13 -21 -36 -4.5t-160 92.5q-22 13 -11 34l81 148q10 17 34 10q65 -22 121 -59zM868 295q137 14 272 -2t205 -74q45 -40 46 -119q-1 -139 -36.5 -193.5
t-101.5 -110.5q-346 -291 -690 -266q-526 38 -444 634q22 166 103 289q24 34 51 14q26 -22 2 -66q-97 -181 -73 -319q52 -294 403 -296t651 277q-94 48 -386 48q-28 0 -37 23t-5 36zM833 1604q10 17 34 10q88 -30 161 -88q19 -17 11 -37l-79 -155q-14 -21 -35.5 -5.5
t-116.5 69.5l-56 -110q-13 -21 -36 -4.5t-160 92.5q-22 13 -11 34l81 148q10 17 34 10q65 -22 121 -59zM916.5 781q-27.5 -1 -50.5 -35q-11 -17 17 -35q67 -45 122 11q7 9 -3 17q-58 43 -85.5 42zM1119 931q180 -228 134 -538q-41 -281 -377 -281q-93 6 -12 180q11 24 40 28
q252 37 294 124q16 33 -67 127q-27 -72 -72 -100q-121 -74 -216 52q-74 99 -30 254q65 233 168 237q71 2 138 -83z" />
    <glyph glyph-name="uniFC37" unicode="&#xfc37;" horiz-adv-x="1589" arabic-form="isolated" 
d="M-15 1513q82 -207 141.5 -665.5t104 -534.5t136 -93t122.5 -152q22 -96 -51 -116q-22 -6 -48 -4q-105 10 -188 87q-134 123 -181 547q-24 227 -75 448.5t-75.5 290t-23 85.5t6.5 26l47 94q12 20 26 25q37 12 58 -38zM200 822q341 -90 461 -226q114 -130 129 -260
q37 -319 -174 -374q-91 -23 -227 -14q-51 6 -80.5 67.5t-17.5 125.5q16 89 72 81q201 -27 349 96q-160 188 -564 306q-45 13 -59 116q-12 87 1 126q57 194 439 437q387 246 579 318q104 39 92 -67l-14 -130q-6 -43 -44 -59q-240 -103 -539 -276.5t-403 -266.5z" />
    <glyph glyph-name="uniFC38" unicode="&#xfc38;" horiz-adv-x="1663" arabic-form="isolated" 
d="M799 -232q10 17 34 10q88 -30 161 -88q19 -17 10 -37l-79 -155q-13 -21 -36 -4.5t-160 92.5q-22 13 -11 34zM341 508q569 -28 812 6q61 4 56 -40l-18 -132q-4 -37 -48 -43q-454 -55 -687 -304q-152 -163 -136 -343q29 -318 318 -413.5t977 -57.5q40 2 45 -30
q5 -26 -12 -35q-231 -104 -362.5 -145.5t-246.5 -39.5q-432 12 -618.5 178t-197.5 438q-20 481 271 729l-381 3q-104 1 -53 91l72 130q9 17 209 8zM1357 1655l-27 -92q-15 -48 -78 -59q-811 -123 -1071 -264q180 -153 254 -238q158 -186 142 -380q-43 -270 -350 -258
q-87 4 -110.5 46.5t10.5 91.5t56.5 59.5t49.5 15.5q170 36 230 76q-54 104 -261 290l-23 -16q-35 -21 -80 26l-116 122q-32 34 -28 91q7 111 67 202q274 218 1256 380q29 4 48 -4q52 -20 31 -89z" />
    <glyph glyph-name="uniFC39" unicode="&#xfc39;" horiz-adv-x="1663" arabic-form="isolated" 
d="M341 508q569 -28 812 6q61 4 56 -40l-18 -132q-4 -37 -48 -43q-454 -55 -687 -304q-152 -163 -136 -343q29 -318 318 -413.5t977 -57.5q40 2 45 -30q5 -26 -12 -35q-231 -104 -362.5 -145.5t-246.5 -39.5q-432 12 -618.5 178t-197.5 438q-20 481 271 729l-381 3
q-104 1 -53 91l72 130q9 17 209 8zM1357 1655l-27 -92q-15 -48 -78 -59q-811 -123 -1071 -264q180 -153 254 -238q158 -186 142 -380q-43 -270 -350 -258q-87 4 -110.5 46.5t10.5 91.5t56.5 59.5t49.5 15.5q170 36 230 76q-54 104 -261 290l-23 -16q-35 -21 -80 26l-116 122
q-32 34 -28 91q7 111 67 202q274 218 1256 380q29 4 48 -4q52 -20 31 -89z" />
    <glyph glyph-name="uniFC3A" unicode="&#xfc3a;" horiz-adv-x="1663" arabic-form="isolated" 
d="M898 918q10 17 34 10q88 -30 161 -88q19 -17 10 -37l-79 -155q-13 -21 -36 -4.5t-160 92.5q-22 13 -11 34zM341 508q569 -28 812 6q61 4 56 -40l-18 -132q-4 -37 -48 -43q-454 -55 -687 -304q-152 -163 -136 -343q29 -318 318 -413.5t977 -57.5q40 2 45 -30
q5 -26 -12 -35q-231 -104 -362.5 -145.5t-246.5 -39.5q-432 12 -618.5 178t-197.5 438q-20 481 271 729l-381 3q-104 1 -53 91l72 130q9 17 209 8zM1357 1655l-27 -92q-15 -48 -78 -59q-811 -123 -1071 -264q180 -153 254 -238q158 -186 142 -380q-43 -270 -350 -258
q-87 4 -110.5 46.5t10.5 91.5t56.5 59.5t49.5 15.5q170 36 230 76q-54 104 -261 290l-23 -16q-35 -21 -80 26l-116 122q-32 34 -28 91q7 111 67 202q274 218 1256 380q29 4 48 -4q52 -20 31 -89z" />
    <glyph glyph-name="uniFC3B" unicode="&#xfc3b;" horiz-adv-x="2437" arabic-form="isolated" 
d="M1105 18q109 -476 -48 -608q-207 -171 -420.5 -176t-354.5 119t-138.5 333.5t133.5 418.5q16 24 47 22.5t47 -29.5t-1 -60q-135 -235 -55 -378q93 -164 356 -149q217 14 371 180l-268 1379q-14 73 -9 112l23 128q16 23 34 27q43 8 64 -56q2 -6 6 -22l121 -544
q93 -446 206 -496q77 -34 86 -94q1 -15 -1 -27t-9 -66q-12 -91 -60 -83q-73 14 -130 69zM1048 822q341 -90 461 -226q114 -130 129 -260q37 -319 -174 -374q-91 -23 -227 -14q-51 6 -80.5 67.5t-17.5 125.5q16 89 72 81q201 -27 349 96q-160 188 -564 306q-45 13 -59 116
q-12 87 1 126q57 194 439 437q387 246 579 318q104 39 92 -67l-14 -130q-6 -43 -44 -59q-240 -103 -539 -276.5t-403 -266.5z" />
    <glyph glyph-name="uniFC3C" unicode="&#xfc3c;" horiz-adv-x="1605" arabic-form="isolated" 
d="M218 199q-49 21 -37 75q28 119 41 137t19 23q30 27 122 -2q193 -60 349 -167q58 -40 44 -108q-21 -93 -24 -104q-16 -59 -65 -55q-206 26 -375 -17q-107 -27 -135 -61q6 -31 89.5 -319t93.5 -340q25 -142 5 -291q-5 -42 -39 -36.5t-39 99t-162 585.5q-52 164 -29.5 304.5
t59 192t83.5 84.5zM1289 1743l-23 -130q-7 -41 -51 -49q-729 -123 -940 -196q-77 -27 -116 -53q470 -438 455 -752q-6 -91 -70 -184q-39 -55 -150 -80q-55 -13 -100.5 -7.5t-66.5 51.5q-7 19 -6.5 51.5t39.5 49.5q187 75 237 125q-33 174 -294 399h-1l-61 -22
q-35 -11 -68 27l-136 167q-25 30 -17 77q25 147 99 231q37 41 121 88q248 145 1075 284q20 3 34 -1q50 -13 40 -76z" />
    <glyph glyph-name="uniFC3D" unicode="&#xfc3d;" horiz-adv-x="2010" arabic-form="isolated" 
d="M868 295q137 14 272 -2t205 -74q45 -40 46 -119q-1 -139 -36.5 -193.5t-101.5 -110.5q-346 -291 -690 -266q-526 38 -444 634q22 166 103 289q24 34 51 14q26 -22 2 -66q-97 -181 -73 -319q52 -294 403 -296t651 277q-94 48 -386 48q-28 0 -37 23t-5 36zM1596 1947
q17 6 31 6q50 -5 51 -68l2 -142q0 -39 -43 -55q-669 -257 -1010 -483q187 -126 277 -201q305 -256 310 -559q1 -90 -57 -149q-107 -109 -282 -154q-21 -6 -38.5 12t-11.5 44l38 123q90 34 236 112q-52 231 -375 429l-19 -54q-8 -26 -41 -20q-9 1 -53 28q-119 73 -158 149.5
t-14.5 207.5t69.5 175q276 262 1088 599z" />
    <glyph glyph-name="uniFC3E" unicode="&#xfc3e;" horiz-adv-x="2010" arabic-form="isolated" 
d="M863 -612q10 17 34 10q88 -30 161 -88q19 -17 11 -37l-79 -155q-14 -21 -35.5 -5.5t-116.5 69.5l-56 -110q-13 -21 -36 -4.5t-160 92.5q-22 13 -11 34l81 148q10 17 34 10q65 -22 121 -59zM868 295q137 14 272 -2t205 -74q45 -40 46 -119q-1 -139 -36.5 -193.5
t-101.5 -110.5q-346 -291 -690 -266q-526 38 -444 634q22 166 103 289q24 34 51 14q26 -22 2 -66q-97 -181 -73 -319q52 -294 403 -296t651 277q-94 48 -386 48q-28 0 -37 23t-5 36zM1596 1947q17 6 31 6q50 -5 51 -68l2 -142q0 -39 -43 -55q-669 -257 -1010 -483
q187 -126 277 -201q305 -256 310 -559q1 -90 -57 -149q-107 -109 -282 -154q-21 -6 -38.5 12t-11.5 44l38 123q90 34 236 112q-52 231 -375 429l-19 -54q-8 -26 -41 -20q-9 1 -53 28q-119 73 -158 149.5t-14.5 207.5t69.5 175q276 262 1088 599z" />
    <glyph glyph-name="uniFC3F" unicode="&#xfc3f;" horiz-adv-x="1429" arabic-form="isolated" 
d="M799 -232q10 17 34 10q88 -30 161 -88q19 -17 10 -37l-79 -155q-13 -21 -36 -4.5t-160 92.5q-22 13 -11 34zM341 508q569 -28 812 6q61 4 56 -40l-18 -132q-4 -37 -48 -43q-454 -55 -687 -304q-152 -163 -136 -343q29 -318 318 -413.5t977 -57.5q40 2 45 -30
q5 -26 -12 -35q-231 -104 -362.5 -145.5t-246.5 -39.5q-432 12 -618.5 178t-197.5 438q-20 481 271 729l-381 3q-104 1 -53 91l72 130q9 17 209 8zM510 657q-41 225 -131 557l-35 85q-11 34 2 58l59 113q30 45 62 -38q27 -67 101 -139q37 -36 13 -76l-36 -58
q-14 -19 -10 -35q112 -440 75 -571q-48 -170 -380 -189q-68 -4 -89 11.5t-28 25.5q-29 46 57 161q19 26 67 28q143 4 233 23q47 10 40 44z" />
    <glyph glyph-name="uniFC40" unicode="&#xfc40;" horiz-adv-x="1429" arabic-form="isolated" 
d="M341 508q569 -28 812 6q61 4 56 -40l-18 -132q-4 -37 -48 -43q-454 -55 -687 -304q-152 -163 -136 -343q29 -318 318 -413.5t977 -57.5q40 2 45 -30q5 -26 -12 -35q-231 -104 -362.5 -145.5t-246.5 -39.5q-432 12 -618.5 178t-197.5 438q-20 481 271 729l-381 3
q-104 1 -53 91l72 130q9 17 209 8zM510 657q-41 225 -131 557l-35 85q-11 34 2 58l59 113q30 45 62 -38q27 -67 101 -139q37 -36 13 -76l-36 -58q-14 -19 -10 -35q112 -440 75 -571q-48 -170 -380 -189q-68 -4 -89 11.5t-28 25.5q-29 46 57 161q19 26 67 28q143 4 233 23
q47 10 40 44z" />
    <glyph glyph-name="uniFC41" unicode="&#xfc41;" horiz-adv-x="1429" arabic-form="isolated" 
d="M898 918q10 17 34 10q88 -30 161 -88q19 -17 10 -37l-79 -155q-13 -21 -36 -4.5t-160 92.5q-22 13 -11 34zM341 508q569 -28 812 6q61 4 56 -40l-18 -132q-4 -37 -48 -43q-454 -55 -687 -304q-152 -163 -136 -343q29 -318 318 -413.5t977 -57.5q40 2 45 -30
q5 -26 -12 -35q-231 -104 -362.5 -145.5t-246.5 -39.5q-432 12 -618.5 178t-197.5 438q-20 481 271 729l-381 3q-104 1 -53 91l72 130q9 17 209 8zM510 657q-41 225 -131 557l-35 85q-11 34 2 58l59 113q30 45 62 -38q27 -67 101 -139q37 -36 13 -76l-36 -58
q-14 -19 -10 -35q112 -440 75 -571q-48 -170 -380 -189q-68 -4 -89 11.5t-28 25.5q-29 46 57 161q19 26 67 28q143 4 233 23q47 10 40 44z" />
    <glyph glyph-name="uniFC42" unicode="&#xfc42;" horiz-adv-x="904" arabic-form="isolated" 
d="M218 199q-49 21 -37 75q28 119 41 137t19 23q30 27 122 -2q193 -60 349 -167q58 -40 44 -108q-21 -93 -24 -104q-16 -59 -65 -55q-206 26 -375 -17q-107 -27 -135 -61q6 -31 89.5 -319t93.5 -340q25 -142 5 -291q-5 -42 -39 -36.5t-39 99t-162 585.5q-52 164 -29.5 304.5
t59 192t83.5 84.5zM208 1572q10 22 23 29q35 17 61 -32q34 -65 125 -128q48 -35 27 -83q-9 -21 -24 -49.5t-22 -42.5l107 -448q52 -232 5 -399l-21 -67q-26 -87 -146 -56q-83 23 -109 72q-31 69 70 93q84 21 115 65q-35 219 -116.5 500.5t-108.5 351.5t-19 100z" />
    <glyph glyph-name="uniFC43" unicode="&#xfc43;" horiz-adv-x="1472" arabic-form="isolated" 
d="M868 295q137 14 272 -2t205 -74q45 -40 46 -119q-1 -139 -36.5 -193.5t-101.5 -110.5q-346 -291 -690 -266q-526 38 -444 634q22 166 103 289q24 34 51 14q26 -22 2 -66q-97 -181 -73 -319q52 -294 403 -296t651 277q-94 48 -386 48q-28 0 -37 23t-5 36zM919 1173
q194 -646 199.5 -731.5t0.5 -126.5q-15 -129 -105 -166q-64 -25 -153 -34l-29 -2l-7 28q-11 44 0 83t33 53t74 36.5t69 30.5q-56 215 -140.5 486.5t-106.5 354.5l-40 113q-11 34 -6 55q17 74 21.5 102t40.5 29.5t57 -37.5q44 -84 106 -134q44 -38 14 -86z" />
    <glyph glyph-name="uniFC44" unicode="&#xfc44;" horiz-adv-x="1472" arabic-form="isolated" 
d="M863 -612q10 17 34 10q88 -30 161 -88q19 -17 11 -37l-79 -155q-14 -21 -35.5 -5.5t-116.5 69.5l-56 -110q-13 -21 -36 -4.5t-160 92.5q-22 13 -11 34l81 148q10 17 34 10q65 -22 121 -59zM868 295q137 14 272 -2t205 -74q45 -40 46 -119q-1 -139 -36.5 -193.5
t-101.5 -110.5q-346 -291 -690 -266q-526 38 -444 634q22 166 103 289q24 34 51 14q26 -22 2 -66q-97 -181 -73 -319q52 -294 403 -296t651 277q-94 48 -386 48q-28 0 -37 23t-5 36zM919 1173q194 -646 199.5 -731.5t0.5 -126.5q-15 -129 -105 -166q-64 -25 -153 -34l-29 -2
l-7 28q-11 44 0 83t33 53t74 36.5t69 30.5q-56 215 -140.5 486.5t-106.5 354.5l-40 113q-11 34 -6 55q17 74 21.5 102t40.5 29.5t57 -37.5q44 -84 106 -134q44 -38 14 -86z" />
    <glyph glyph-name="uniFC45" unicode="&#xfc45;" horiz-adv-x="1360" arabic-form="isolated" 
d="M799 -232q10 17 34 10q88 -30 161 -88q19 -17 10 -37l-79 -155q-13 -21 -36 -4.5t-160 92.5q-22 13 -11 34zM341 508q569 -28 812 6q61 4 56 -40l-18 -132q-4 -37 -48 -43q-454 -55 -687 -304q-152 -163 -136 -343q29 -318 318 -413.5t977 -57.5q40 2 45 -30
q5 -26 -12 -35q-231 -104 -362.5 -145.5t-246.5 -39.5q-432 12 -618.5 178t-197.5 438q-20 481 271 729l-381 3q-104 1 -53 91l72 130q9 17 209 8zM807 687q-364 -80 -545 -262q-57 -59 -112 -10q-59 57 38 161q150 160 403 260l-20 25q-33 43 -19 86q41 121 77.5 167.5
t87.5 21.5q168 -84 244 -152q37 -35 24 -93t-85 -164q-17 -24 -93 -40z" />
    <glyph glyph-name="uniFC46" unicode="&#xfc46;" horiz-adv-x="1360" arabic-form="isolated" 
d="M341 508q569 -28 812 6q61 4 56 -40l-18 -132q-4 -37 -48 -43q-454 -55 -687 -304q-152 -163 -136 -343q29 -318 318 -413.5t977 -57.5q40 2 45 -30q5 -26 -12 -35q-231 -104 -362.5 -145.5t-246.5 -39.5q-432 12 -618.5 178t-197.5 438q-20 481 271 729l-381 3
q-104 1 -53 91l72 130q9 17 209 8zM807 687q-364 -80 -545 -262q-57 -59 -112 -10q-59 57 38 161q150 160 403 260l-20 25q-33 43 -19 86q41 121 77.5 167.5t87.5 21.5q168 -84 244 -152q37 -35 24 -93t-85 -164q-17 -24 -93 -40z" />
    <glyph glyph-name="uniFC47" unicode="&#xfc47;" horiz-adv-x="1360" arabic-form="isolated" 
d="M129 1238q10 17 34 10q88 -30 161 -88q19 -17 10 -37l-79 -155q-13 -21 -36 -4.5t-160 92.5q-22 13 -11 34zM341 508q569 -28 812 6q61 4 56 -40l-18 -132q-4 -37 -48 -43q-454 -55 -687 -304q-152 -163 -136 -343q29 -318 318 -413.5t977 -57.5q40 2 45 -30
q5 -26 -12 -35q-231 -104 -362.5 -145.5t-246.5 -39.5q-432 12 -618.5 178t-197.5 438q-20 481 271 729l-381 3q-104 1 -53 91l72 130q9 17 209 8zM807 687q-364 -80 -545 -262q-57 -59 -112 -10q-59 57 38 161q150 160 403 260l-20 25q-33 43 -19 86q41 121 77.5 167.5
t87.5 21.5q168 -84 244 -152q37 -35 24 -93t-85 -164q-17 -24 -93 -40z" />
    <glyph glyph-name="uniFC48" unicode="&#xfc48;" horiz-adv-x="1867" arabic-form="isolated" 
d="M504 436q203 -209 540 -221q100 -4 94.5 -124t-64.5 -121q-180 -2 -334 67q23 -195 -56 -266q-37 -32 -80 2q-132 107 -185 311q-111 -16 -187 -106q-5 -42 50 -244q201 -738 189 -860q-8 -78 -50 -78q-44 1 -57 91q-22 143 -147 577t-72.5 624t264.5 291q29 126 95 57z
M1345 451q81 -71 195 -95q-8 88 -73 117t-122 -22zM1463 682q153 -2 257 -377q9 -34 -6 -57l-85 -131q-23 -35 -69 -25q-168 40 -290 147q-53 -266 -196 -269q-40 -1 -66 58.5t-33 109t35 69.5q15 7 33 8q110 5 172 114q19 33 96 210q62 144 152 143z" />
    <glyph glyph-name="uniFC49" unicode="&#xfc49;" horiz-adv-x="1766" arabic-form="isolated" 
d="M868 295q137 14 272 -2t205 -74q45 -40 46 -119q-1 -139 -36.5 -193.5t-101.5 -110.5q-346 -291 -690 -266q-526 38 -444 634q22 166 103 289q24 34 51 14q26 -22 2 -66q-97 -181 -73 -319q52 -294 403 -296t651 277q-94 48 -386 48q-28 0 -37 23t-5 36zM1148 554l-15 10
q-47 33 -31 90q34 127 76 190q25 36 75 28q106 -18 204 -87q131 -93 134 -172q2 -125 -54 -173q-22 -19 -68 -25.5t-50 -7.5q-222 -30 -352 -136.5t-188 -30.5q-11 13 -19 38q26 71 46 93q103 111 242 183z" />
    <glyph glyph-name="uniFC4A" unicode="&#xfc4a;" horiz-adv-x="1766" arabic-form="isolated" 
d="M863 -612q10 17 34 10q88 -30 161 -88q19 -17 11 -37l-79 -155q-14 -21 -35.5 -5.5t-116.5 69.5l-56 -110q-13 -21 -36 -4.5t-160 92.5q-22 13 -11 34l81 148q10 17 34 10q65 -22 121 -59zM868 295q137 14 272 -2t205 -74q45 -40 46 -119q-1 -139 -36.5 -193.5
t-101.5 -110.5q-346 -291 -690 -266q-526 38 -444 634q22 166 103 289q24 34 51 14q26 -22 2 -66q-97 -181 -73 -319q52 -294 403 -296t651 277q-94 48 -386 48q-28 0 -37 23t-5 36zM1148 554l-15 10q-47 33 -31 90q34 127 76 190q25 36 75 28q106 -18 204 -87
q131 -93 134 -172q2 -125 -54 -173q-22 -19 -68 -25.5t-50 -7.5q-222 -30 -352 -136.5t-188 -30.5q-11 13 -19 38q26 71 46 93q103 111 242 183z" />
    <glyph glyph-name="uniFC4B" unicode="&#xfc4b;" horiz-adv-x="1327" arabic-form="isolated" 
d="M799 -232q10 17 34 10q88 -30 161 -88q19 -17 10 -37l-79 -155q-13 -21 -36 -4.5t-160 92.5q-22 13 -11 34zM341 508q569 -28 812 6q61 4 56 -40l-18 -132q-4 -37 -48 -43q-454 -55 -687 -304q-152 -163 -136 -343q29 -318 318 -413.5t977 -57.5q40 2 45 -30
q5 -26 -12 -35q-231 -104 -362.5 -145.5t-246.5 -39.5q-432 12 -618.5 178t-197.5 438q-20 481 271 729l-381 3q-104 1 -53 91l72 130q9 17 209 8zM645 1555q10 17 34 10q88 -30 161 -88q19 -17 10 -37l-79 -155q-13 -21 -36 -4.5t-160 92.5q-22 13 -11 34zM101 462
q41 59 140 118q218 133 283.5 208.5t90.5 172.5t52.5 161t89 64t114.5 -69q72 -95 96 -385q3 -37 -24 -51q-10 -5 -22 -4q-46 1 -61 54q-38 163 -85 195q-15 9 -27 -12t-41 -95q-75 -205 -329 -358q-8 -5 -76 -49q-91 -57 -190 6l-28 19z" />
    <glyph glyph-name="uniFC4C" unicode="&#xfc4c;" horiz-adv-x="1327" arabic-form="isolated" 
d="M341 508q569 -28 812 6q61 4 56 -40l-18 -132q-4 -37 -48 -43q-454 -55 -687 -304q-152 -163 -136 -343q29 -318 318 -413.5t977 -57.5q40 2 45 -30q5 -26 -12 -35q-231 -104 -362.5 -145.5t-246.5 -39.5q-432 12 -618.5 178t-197.5 438q-20 481 271 729l-381 3
q-104 1 -53 91l72 130q9 17 209 8zM645 1555q10 17 34 10q88 -30 161 -88q19 -17 10 -37l-79 -155q-13 -21 -36 -4.5t-160 92.5q-22 13 -11 34zM101 462q41 59 140 118q218 133 283.5 208.5t90.5 172.5t52.5 161t89 64t114.5 -69q72 -95 96 -385q3 -37 -24 -51
q-10 -5 -22 -4q-46 1 -61 54q-38 163 -85 195q-15 9 -27 -12t-41 -95q-75 -205 -329 -358q-8 -5 -76 -49q-91 -57 -190 6l-28 19z" />
    <glyph glyph-name="uniFC4D" unicode="&#xfc4d;" horiz-adv-x="1327" arabic-form="isolated" 
d="M129 1238q10 17 34 10q88 -30 161 -88q19 -17 10 -37l-79 -155q-13 -21 -36 -4.5t-160 92.5q-22 13 -11 34zM341 508q569 -28 812 6q61 4 56 -40l-18 -132q-4 -37 -48 -43q-454 -55 -687 -304q-152 -163 -136 -343q29 -318 318 -413.5t977 -57.5q40 2 45 -30
q5 -26 -12 -35q-231 -104 -362.5 -145.5t-246.5 -39.5q-432 12 -618.5 178t-197.5 438q-20 481 271 729l-381 3q-104 1 -53 91l72 130q9 17 209 8zM645 1555q10 17 34 10q88 -30 161 -88q19 -17 10 -37l-79 -155q-13 -21 -36 -4.5t-160 92.5q-22 13 -11 34zM101 462
q41 59 140 118q218 133 283.5 208.5t90.5 172.5t52.5 161t89 64t114.5 -69q72 -95 96 -385q3 -37 -24 -51q-10 -5 -22 -4q-46 1 -61 54q-38 163 -85 195q-15 9 -27 -12t-41 -95q-75 -205 -329 -358q-8 -5 -76 -49q-91 -57 -190 6l-28 19z" />
    <glyph glyph-name="uniFC4E" unicode="&#xfc4e;" horiz-adv-x="1217" arabic-form="isolated" 
d="M218 199q-49 21 -37 75q28 119 41 137t19 23q30 27 122 -2q193 -60 349 -167q58 -40 44 -108q-21 -93 -24 -104q-16 -59 -65 -55q-206 26 -375 -17q-107 -27 -135 -61q6 -31 89.5 -319t93.5 -340q25 -142 5 -291q-5 -42 -39 -36.5t-39 99t-162 585.5q-52 164 -29.5 304.5
t59 192t83.5 84.5zM661 1259q10 17 34 10q88 -30 161 -88q19 -17 10 -37l-79 -155q-13 -21 -36 -4.5t-160 92.5q-22 13 -11 34zM1053 577q-7 -45 -46 -105t-60 -67q-55 -17 -82 46q-18 45 -76 51q-126 11 -386 -151q-102 -63 -161 18q-27 40 -8 64q33 38 151 119
q284 197 459 195q83 -1 152 -49t57 -121z" />
    <glyph glyph-name="uniFC4F" unicode="&#xfc4f;" horiz-adv-x="1504" arabic-form="isolated" 
d="M868 295q137 14 272 -2t205 -74q45 -40 46 -119q-1 -139 -36.5 -193.5t-101.5 -110.5q-346 -291 -690 -266q-526 38 -444 634q22 166 103 289q24 34 51 14q26 -22 2 -66q-97 -181 -73 -319q52 -294 403 -296t651 277q-94 48 -386 48q-28 0 -37 23t-5 36zM877 1428
q10 17 34 10q88 -30 161 -88q19 -17 10 -37l-79 -155q-13 -21 -36 -4.5t-160 92.5q-22 13 -11 34zM963 968q15 64 68 35q53 -30 118 -141q147 -249 103 -457q-19 -88 -67 -150q-110 -144 -319 -152q-14 0 -24 4q-37 16 -21 59l44 120q15 17 37 20q161 22 249 127
q-9 92 -68 172.5t-125 127.5q-38 30 -28 78z" />
    <glyph glyph-name="uniFC50" unicode="&#xfc50;" horiz-adv-x="1504" arabic-form="isolated" 
d="M863 -612q10 17 34 10q88 -30 161 -88q19 -17 11 -37l-79 -155q-14 -21 -35.5 -5.5t-116.5 69.5l-56 -110q-13 -21 -36 -4.5t-160 92.5q-22 13 -11 34l81 148q10 17 34 10q65 -22 121 -59zM868 295q137 14 272 -2t205 -74q45 -40 46 -119q-1 -139 -36.5 -193.5
t-101.5 -110.5q-346 -291 -690 -266q-526 38 -444 634q22 166 103 289q24 34 51 14q26 -22 2 -66q-97 -181 -73 -319q52 -294 403 -296t651 277q-94 48 -386 48q-28 0 -37 23t-5 36zM877 1428q10 17 34 10q88 -30 161 -88q19 -17 10 -37l-79 -155q-13 -21 -36 -4.5
t-160 92.5q-22 13 -11 34zM963 968q15 64 68 35q53 -30 118 -141q147 -249 103 -457q-19 -88 -67 -150q-110 -144 -319 -152q-14 0 -24 4q-37 16 -21 59l44 120q15 17 37 20q161 22 249 127q-9 92 -68 172.5t-125 127.5q-38 30 -28 78z" />
    <glyph glyph-name="uniFC51" unicode="&#xfc51;" horiz-adv-x="1427" arabic-form="isolated" 
d="M799 -232q10 17 34 10q88 -30 161 -88q19 -17 10 -37l-79 -155q-13 -21 -36 -4.5t-160 92.5q-22 13 -11 34zM341 508q569 -28 812 6q61 4 56 -40l-18 -132q-4 -37 -48 -43q-454 -55 -687 -304q-152 -163 -136 -343q29 -318 318 -413.5t977 -57.5q40 2 45 -30
q5 -26 -12 -35q-231 -104 -362.5 -145.5t-246.5 -39.5q-432 12 -618.5 178t-197.5 438q-20 481 271 729l-381 3q-104 1 -53 91l72 130q9 17 209 8zM1044 628q-168 24 -335 80q-63 -36 -280 -146.5t-245 -118.5t-43 4q-27 22 2.5 87.5t76 91.5t158.5 80.5t173 86.5
q-49 50 -41 121q17 156 67 255q-13 2 -36 4q-45 25 -40 61q22 113 52 137.5t69 24.5q76 0 282.5 -174t235.5 -280q46 -180 1 -267q-29 -57 -97 -47zM798 947q-30 83 -97.5 97.5t-113.5 -44.5q5 -23 53 -46.5t108 -35.5q52 17 50 29zM852 1018q8 -64 -20 -129
q128 -42 229 -56q-37 67 -209 185z" />
    <glyph glyph-name="uniFC52" unicode="&#xfc52;" horiz-adv-x="1996" arabic-form="isolated" 
d="M504 436q203 -209 540 -221q100 -4 94.5 -124t-64.5 -121q-180 -2 -334 67q23 -195 -56 -266q-37 -32 -80 2q-132 107 -185 311q-111 -16 -187 -106q-5 -42 50 -244q201 -738 189 -860q-8 -78 -50 -78q-44 1 -57 91q-22 143 -147 577t-72.5 624t264.5 291q29 126 95 57z
M1505 475q16 -77 -56 -150q197 -72 302 -74q19 0 7 24q-41 93 -253 200zM1358 360q64 34 62 45q-24 118 -79 128q-85 17 -136 -61q-17 -25 21 -48q61 -38 132 -64zM1328 161q-149 -190 -254 -191q-40 0 -66 48q-95 182 35 198q85 10 123 32q-67 48 -47 148t96 199
q-13 6 -37.5 9t-34 25.5t-8.5 37.5q28 203 131.5 202.5t324 -188.5t256.5 -306q44 -152 -39 -262q-48 -65 -126 -57q-155 17 -354 105z" />
    <glyph glyph-name="uniFC53" unicode="&#xfc53;" horiz-adv-x="1957" arabic-form="isolated" 
d="M868 295q137 14 272 -2t205 -74q45 -40 46 -119q-1 -139 -36.5 -193.5t-101.5 -110.5q-346 -291 -690 -266q-526 38 -444 634q22 166 103 289q24 34 51 14q26 -22 2 -66q-97 -181 -73 -319q52 -294 403 -296t651 277q-94 48 -386 48q-28 0 -37 23t-5 36zM1066 903
q28 203 131.5 202.5t315.5 -188.5t248 -306q43 -148 -39 -262q-42 -59 -109 -53q-170 16 -323 71q-196 -198 -382 -244q-46 -11 -63 32q-4 9 -8 67q-9 92 49 114q133 51 214 121q-58 56 -44 157t105 211q-13 6 -45 12t-41.5 29t-8.5 37zM1128 667q27 -42 168 -74q28 9 40 38
q-18 79 -72 96q-84 11 -136 -60zM1422 682q-2 -58 -29 -118q184 -60 249 -52q-28 60 -220 170z" />
    <glyph glyph-name="uniFC54" unicode="&#xfc54;" horiz-adv-x="1957" arabic-form="isolated" 
d="M863 -612q10 17 34 10q88 -30 161 -88q19 -17 11 -37l-79 -155q-14 -21 -35.5 -5.5t-116.5 69.5l-56 -110q-13 -21 -36 -4.5t-160 92.5q-22 13 -11 34l81 148q10 17 34 10q65 -22 121 -59zM868 295q137 14 272 -2t205 -74q45 -40 46 -119q-1 -139 -36.5 -193.5
t-101.5 -110.5q-346 -291 -690 -266q-526 38 -444 634q22 166 103 289q24 34 51 14q26 -22 2 -66q-97 -181 -73 -319q52 -294 403 -296t651 277q-94 48 -386 48q-28 0 -37 23t-5 36zM1066 903q28 203 131.5 202.5t315.5 -188.5t248 -306q43 -148 -39 -262q-42 -59 -109 -53
q-170 16 -323 71q-196 -198 -382 -244q-46 -11 -63 32q-4 9 -8 67q-9 92 49 114q133 51 214 121q-58 56 -44 157t105 211q-13 6 -45 12t-41.5 29t-8.5 37zM1128 667q27 -42 168 -74q28 9 40 38q-18 79 -72 96q-84 11 -136 -60zM1422 682q-2 -58 -29 -118q184 -60 249 -52
q-28 60 -220 170z" />
    <glyph glyph-name="uniFC55" unicode="&#xfc55;" horiz-adv-x="1327" arabic-form="isolated" 
d="M799 -232q10 17 34 10q88 -30 161 -88q19 -17 10 -37l-79 -155q-13 -21 -36 -4.5t-160 92.5q-22 13 -11 34zM341 508q569 -28 812 6q61 4 56 -40l-18 -132q-4 -37 -48 -43q-454 -55 -687 -304q-152 -163 -136 -343q29 -318 318 -413.5t977 -57.5q40 2 45 -30
q5 -26 -12 -35q-231 -104 -362.5 -145.5t-246.5 -39.5q-432 12 -618.5 178t-197.5 438q-20 481 271 729l-381 3q-104 1 -53 91l72 130q9 17 209 8zM1080 144q10 17 34 10q88 -30 161 -88q19 -17 11 -37l-79 -155q-14 -21 -35.5 -5.5t-116.5 69.5l-56 -110q-13 -21 -36 -4.5
t-160 92.5q-22 13 -11 34l81 148q10 17 34 10q65 -22 121 -59zM101 462q41 59 140 118q218 133 283.5 208.5t90.5 172.5t52.5 161t89 64t114.5 -69q72 -95 96 -385q3 -37 -24 -51q-10 -5 -22 -4q-46 1 -61 54q-38 163 -85 195q-15 9 -27 -12t-41 -95q-75 -205 -329 -358
q-8 -5 -76 -49q-91 -57 -190 6l-28 19z" />
    <glyph glyph-name="uniFC56" unicode="&#xfc56;" horiz-adv-x="1327" arabic-form="isolated" 
d="M341 508q569 -28 812 6q61 4 56 -40l-18 -132q-4 -37 -48 -43q-454 -55 -687 -304q-152 -163 -136 -343q29 -318 318 -413.5t977 -57.5q40 2 45 -30q5 -26 -12 -35q-231 -104 -362.5 -145.5t-246.5 -39.5q-432 12 -618.5 178t-197.5 438q-20 481 271 729l-381 3
q-104 1 -53 91l72 130q9 17 209 8zM1080 144q10 17 34 10q88 -30 161 -88q19 -17 11 -37l-79 -155q-14 -21 -35.5 -5.5t-116.5 69.5l-56 -110q-13 -21 -36 -4.5t-160 92.5q-22 13 -11 34l81 148q10 17 34 10q65 -22 121 -59zM101 462q41 59 140 118q218 133 283.5 208.5
t90.5 172.5t52.5 161t89 64t114.5 -69q72 -95 96 -385q3 -37 -24 -51q-10 -5 -22 -4q-46 1 -61 54q-38 163 -85 195q-15 9 -27 -12t-41 -95q-75 -205 -329 -358q-8 -5 -76 -49q-91 -57 -190 6l-28 19z" />
    <glyph glyph-name="uniFC57" unicode="&#xfc57;" horiz-adv-x="1327" arabic-form="isolated" 
d="M129 1238q10 17 34 10q88 -30 161 -88q19 -17 10 -37l-79 -155q-13 -21 -36 -4.5t-160 92.5q-22 13 -11 34zM341 508q569 -28 812 6q61 4 56 -40l-18 -132q-4 -37 -48 -43q-454 -55 -687 -304q-152 -163 -136 -343q29 -318 318 -413.5t977 -57.5q40 2 45 -30
q5 -26 -12 -35q-231 -104 -362.5 -145.5t-246.5 -39.5q-432 12 -618.5 178t-197.5 438q-20 481 271 729l-381 3q-104 1 -53 91l72 130q9 17 209 8zM1080 144q10 17 34 10q88 -30 161 -88q19 -17 11 -37l-79 -155q-14 -21 -35.5 -5.5t-116.5 69.5l-56 -110q-13 -21 -36 -4.5
t-160 92.5q-22 13 -11 34l81 148q10 17 34 10q65 -22 121 -59zM101 462q41 59 140 118q218 133 283.5 208.5t90.5 172.5t52.5 161t89 64t114.5 -69q72 -95 96 -385q3 -37 -24 -51q-10 -5 -22 -4q-46 1 -61 54q-38 163 -85 195q-15 9 -27 -12t-41 -95q-75 -205 -329 -358
q-8 -5 -76 -49q-91 -57 -190 6l-28 19z" />
    <glyph glyph-name="uniFC58" unicode="&#xfc58;" horiz-adv-x="1217" arabic-form="isolated" 
d="M218 199q-49 21 -37 75q28 119 41 137t19 23q30 27 122 -2q193 -60 349 -167q58 -40 44 -108q-21 -93 -24 -104q-16 -59 -65 -55q-206 26 -375 -17q-107 -27 -135 -61q6 -31 89.5 -319t93.5 -340q25 -142 5 -291q-5 -42 -39 -36.5t-39 99t-162 585.5q-52 164 -29.5 304.5
t59 192t83.5 84.5zM1093 -120q10 17 34 10q88 -30 161 -88q19 -17 11 -37l-79 -155q-14 -21 -35.5 -5.5t-116.5 69.5l-56 -110q-13 -21 -36 -4.5t-160 92.5q-22 13 -11 34l81 148q10 17 34 10q65 -22 121 -59zM1053 577q-7 -45 -46 -105t-60 -67q-55 -17 -82 46
q-18 45 -76 51q-126 11 -386 -151q-102 -63 -161 18q-27 40 -8 64q33 38 151 119q284 197 459 195q83 -1 152 -49t57 -121z" />
    <glyph glyph-name="uniFC59" unicode="&#xfc59;" horiz-adv-x="1504" arabic-form="isolated" 
d="M868 295q137 14 272 -2t205 -74q45 -40 46 -119q-1 -139 -36.5 -193.5t-101.5 -110.5q-346 -291 -690 -266q-526 38 -444 634q22 166 103 289q24 34 51 14q26 -22 2 -66q-97 -181 -73 -319q52 -294 403 -296t651 277q-94 48 -386 48q-28 0 -37 23t-5 36zM1416 -313
q10 17 34 10q88 -30 161 -88q19 -17 11 -37l-79 -155q-14 -21 -35.5 -5.5t-116.5 69.5l-56 -110q-13 -21 -36 -4.5t-160 92.5q-22 13 -11 34l81 148q10 17 34 10q65 -22 121 -59zM963 968q15 64 68 35q53 -30 118 -141q147 -249 103 -457q-19 -88 -67 -150
q-110 -144 -319 -152q-14 0 -24 4q-37 16 -21 59l44 120q15 17 37 20q161 22 249 127q-9 92 -68 172.5t-125 127.5q-38 30 -28 78z" />
    <glyph glyph-name="uniFC5A" unicode="&#xfc5a;" horiz-adv-x="1504" arabic-form="isolated" 
d="M863 -612q10 17 34 10q88 -30 161 -88q19 -17 11 -37l-79 -155q-14 -21 -35.5 -5.5t-116.5 69.5l-56 -110q-13 -21 -36 -4.5t-160 92.5q-22 13 -11 34l81 148q10 17 34 10q65 -22 121 -59zM868 295q137 14 272 -2t205 -74q45 -40 46 -119q-1 -139 -36.5 -193.5
t-101.5 -110.5q-346 -291 -690 -266q-526 38 -444 634q22 166 103 289q24 34 51 14q26 -22 2 -66q-97 -181 -73 -319q52 -294 403 -296t651 277q-94 48 -386 48q-28 0 -37 23t-5 36zM1416 -313q10 17 34 10q88 -30 161 -88q19 -17 11 -37l-79 -155q-14 -21 -35.5 -5.5
t-116.5 69.5l-56 -110q-13 -21 -36 -4.5t-160 92.5q-22 13 -11 34l81 148q10 17 34 10q65 -22 121 -59zM963 968q15 64 68 35q53 -30 118 -141q147 -249 103 -457q-19 -88 -67 -150q-110 -144 -319 -152q-14 0 -24 4q-37 16 -21 59l44 120q15 17 37 20q161 22 249 127
q-9 92 -68 172.5t-125 127.5q-38 30 -28 78z" />
    <glyph glyph-name="uniFC5B" unicode="&#xfc5b;" horiz-adv-x="923" arabic-form="isolated" 
d="M-41 2383q15 55 63 4q226 -222 206 -561q-4 -30 -23 -32q-40 -6 -48 32q-53 209 -201 367q-25 27 -20 59zM211 1328q10 17 34 10q88 -30 161 -88q19 -17 10 -37l-79 -155q-13 -21 -36 -4.5t-160 92.5q-22 13 -11 34zM296 584q-44 18 -26.5 89t37.5 119.5t61 26.5
q273 -150 360 -424q47 -146 22 -258q-15 -67 -51 -83q-203 -86 -357 -96q-223 -15 -191 245q6 50 33 50q20 1 38 -24.5t186 -3.5t258 68q-49 156 -370 291z" />
    <glyph glyph-name="uniFC5C" unicode="&#xfc5c;" horiz-adv-x="819" arabic-form="isolated" 
d="M-61 2383q15 55 63 4q226 -222 206 -561q-4 -30 -23 -32q-40 -6 -48 32q-53 209 -201 367q-25 27 -20 59zM411 604q7 55 82.5 -23.5t138.5 -231.5q137 -344 -46 -628q-106 -164 -284 -212q-67 -18 -116 3q-191 78 -297 128q-37 17 -28.5 41.5t43.5 14.5
q139 -41 223.5 -20.5t213.5 104.5q222 145 258 284q1 6 1 11q-31 96 -207 258q-17 16 -14 40z" />
    <glyph glyph-name="uniFC5D" unicode="&#xfc5d;" horiz-adv-x="1566" arabic-form="isolated" 
d="M297 1093q15 55 63 4q226 -222 206 -561q-4 -30 -23 -32q-40 -6 -48 32q-53 209 -201 367q-25 27 -20 59zM1292 564q-110 54 -278 -40q-137 -77 -154 -187q-3 -15 7 -32q45 -80 269 -91.5t249 -111.5q52 -197 -48 -285q-273 -243 -654 -258q-474 -19 -552 358
q-39 190 35 392q40 109 98 196q28 42 51 19t-4 -71q-147 -266 -60 -434q109 -212 419 -207q369 7 578 183q-50 17 -205 27q-200 14 -250.5 120t-24.5 223q58 253 231 391q147 116 269.5 84.5t94.5 -224.5q-12 -80 -71 -52z" />
    <glyph glyph-name="uniFC5E" unicode="&#xfc5e;" horiz-adv-x="600" arabic-form="isolated" 
d="M201 2431q-15 22 -43 8.5t-18 -23.5q18 -19 69 -45q7 38 -8 60zM30 2386q25 5 29 -25q2 -9 0 -17l-11 -48q-9 -45 -53 -30.5t-68 64.5t-16.5 120t73.5 152q151 192 240 152q35 -18 44.5 -66.5t-17 -82t-69.5 2t-98 -8t-78 -89.5q-42 -81 -6 -113q17 -13 30 -11zM193 2555
q37 9 59 -18q48 -60 15 -179q22 -13 32 -18q25 -16 14 -46l-15 -41q-13 -29 -76 4q-76 -113 -144 -154q-43 -23 -63.5 2t36.5 69.5t106 118.5q-101 54 -72 139q35 102 108 123zM353 2015q1 56 37 54q37 -2 45 -45q1 -6 1 -11q7 -112 -19 -188q-32 -93 -112 -100
q-47 -3 -95 40q-24 -43 -64 -66q-53 -29 -111 -8q-136 54 -71 305q12 45 52 33q3 -1 5 -1q34 -15 27 -61q-3 -23 -3 -41q-1 -65 37 -72q53 -7 78 96q6 27 11 60q6 43 39 39q2 0 4 -1q34 -8 35 -37q1 -4 0 -8v1q-1 -19 1 -34q5 -52 40 -57q4 0 8 -1q49 -1 54 79q1 11 1 24z
" />
    <glyph glyph-name="uniFC5F" unicode="&#xfc5f;" horiz-adv-x="600" arabic-form="isolated" 
d="M795 -932q35 26 58 19t14 -53l-13 -64q-8 -37 -33 -54l-331 -220q-22 -13 -43.5 -9t-20.5 43l2 39q2 35 34 58zM762 -727q30 21 53 15t18 -49l-9 -52q-7 -40 -42 -62l-336 -211q-37 -23 -60 -14q-22 9 -10 53l13 39q10 33 32 48zM353 2015q1 56 37 54q37 -2 45 -45
q1 -6 1 -11q7 -112 -19 -188q-32 -93 -112 -100q-47 -3 -95 40q-24 -43 -64 -66q-53 -29 -111 -8q-136 54 -71 305q12 45 52 33q3 -1 5 -1q34 -15 27 -61q-3 -23 -3 -41q-1 -65 37 -72q53 -7 78 96q6 27 11 60q6 43 39 39q2 0 4 -1q34 -8 35 -37q1 -4 0 -8v1q-1 -19 1 -34
q5 -52 40 -57q4 0 8 -1q49 -1 54 79q1 11 1 24z" />
    <glyph glyph-name="uniFC60" unicode="&#xfc60;" horiz-adv-x="600" arabic-form="isolated" 
d="M-18 2208l349 164q16 6 26 6q22 -4 23 -32l-1 -71q-1 -25 -19 -35h-1l-345 -126q-17 -6 -29 -5q-28 5 -28 38l1 28q1 23 24 33zM353 2015q1 56 37 54q37 -2 45 -45q1 -6 1 -11q7 -112 -19 -188q-32 -93 -112 -100q-47 -3 -95 40q-24 -43 -64 -66q-53 -29 -111 -8
q-136 54 -71 305q12 45 52 33q3 -1 5 -1q34 -15 27 -61q-3 -23 -3 -41q-1 -65 37 -72q53 -7 78 96q6 27 11 60q6 43 39 39q2 0 4 -1q34 -8 35 -37q1 -4 0 -8v1q-1 -19 1 -34q5 -52 40 -57q4 0 8 -1q49 -1 54 79q1 11 1 24z" />
    <glyph glyph-name="uniFC61" unicode="&#xfc61;" horiz-adv-x="600" arabic-form="isolated" 
d="M171 2635q38 10 67 -23q23 -29 31 -78q7 -48 -19 -141q32 -18 47 -26q25 -14 14 -46l-19 -51q-12 -30 -90 11q-96 -145 -182 -196q-47 -26 -68 -2q-19 27 33 69q86 68 151 166q-128 65 -95 167q43 124 130 150zM170 2483q-14 18 -40 6q-16 -8 -21 -14q20 -20 71 -47
q3 35 -10 55zM353 2015q1 56 37 54q37 -2 45 -45q1 -6 1 -11q7 -112 -19 -188q-32 -93 -112 -100q-47 -3 -95 40q-24 -43 -64 -66q-53 -29 -111 -8q-136 54 -71 305q12 45 52 33q3 -1 5 -1q34 -15 27 -61q-3 -23 -3 -41q-1 -65 37 -72q53 -7 78 96q6 27 11 60q6 43 39 39
q2 0 4 -1q34 -8 35 -37q1 -4 0 -8v1q-1 -19 1 -34q5 -52 40 -57q4 0 8 -1q49 -1 54 79q1 11 1 24z" />
    <glyph glyph-name="uniFC62" unicode="&#xfc62;" horiz-adv-x="600" arabic-form="isolated" 
d="M794 -635q26 17 48 10.5t15 -48.5l-12 -67q-6 -31 -43 -57l-371 -230q-15 -8 -26 -9q-30 4 -36 41l-4 35q0 31 35 59zM353 2015q1 56 37 54q37 -2 45 -45q1 -6 1 -11q7 -112 -19 -188q-32 -93 -112 -100q-47 -3 -95 40q-24 -43 -64 -66q-53 -29 -111 -8q-136 54 -71 305
q12 45 52 33q3 -1 5 -1q34 -15 27 -61q-3 -23 -3 -41q-1 -65 37 -72q53 -7 78 96q6 27 11 60q6 43 39 39q2 0 4 -1q34 -8 35 -37q1 -4 0 -8v1q-1 -19 1 -34q5 -52 40 -57q4 0 8 -1q49 -1 54 79q1 11 1 24z" />
    <glyph glyph-name="uniFC63" unicode="&#xfc63;" horiz-adv-x="600" arabic-form="isolated" 
d="M-90 2661q15 55 63 4q226 -222 206 -561q-4 -30 -23 -32q-40 -6 -48 32q-53 209 -201 367q-25 27 -20 59zM353 2015q1 56 37 54q37 -2 45 -45q1 -6 1 -11q7 -112 -19 -188q-32 -93 -112 -100q-47 -3 -95 40q-24 -43 -64 -66q-53 -29 -111 -8q-136 54 -71 305q12 45 52 33
q3 -1 5 -1q34 -15 27 -61q-3 -23 -3 -41q-1 -65 37 -72q53 -7 78 96q6 27 11 60q6 43 39 39q2 0 4 -1q34 -8 35 -37q1 -4 0 -8v1q-1 -19 1 -34q5 -52 40 -57q4 0 8 -1q49 -1 54 79q1 11 1 24z" />
    <glyph glyph-name="uniFC64" unicode="&#xfc64;" horiz-adv-x="1128" arabic-form="final" 
d="M-125 -314q-35 23 -29 49.5t48 17.5q201 -41 329 10q256 102 342 305q-8 36 -131 182q-16 19 -12 39l33 208q19 120 110 -30q119 -208 96 -444q-13 -138 -120 -292.5t-232 -168.5q-211 -24 -434 124zM907 1019q-107 -22 -151.5 -36.5t-162.5 -69.5q-36 -14 -59 13
q-34 46 50 109q-66 38 -81 84q-27 90 47 213t180 115q78 -6 80 -80.5t-16.5 -105t-27.5 -37.5q-28 -20 -52.5 10.5t-57.5 33.5t-46.5 -15t4.5 -34q73 -60 197 -64q20 0 60.5 10t62 9t35.5 -20q14 -20 9 -37q-32 -89 -71 -98zM908 613.5q12 -43.5 42.5 -173.5t66 -172.5
t95 -54t78.5 -63.5q9 -24 2 -78q-11 -102 -60 -102q-228 0 -276 390q-61 -160 -233 -158q-109 1 -142 104q-25 85 3 120q41 55 89 24q14 -9 21 -11q117 -9 159.5 28t67.5 156q8 45 41.5 39.5t45.5 -49z" />
    <glyph glyph-name="uniFC65" unicode="&#xfc65;" horiz-adv-x="1128" arabic-form="final" 
d="M177 1067q10 17 34 10q88 -30 161 -88q19 -17 10 -37l-79 -155q-13 -21 -36 -4.5t-160 92.5q-22 13 -11 34zM-125 -314q-35 23 -29 49.5t48 17.5q201 -41 329 10q256 102 342 305q-8 36 -131 182q-16 19 -12 39l33 208q19 120 110 -30q119 -208 96 -444
q-13 -138 -120 -292.5t-232 -168.5q-211 -24 -434 124zM907 1019q-107 -22 -151.5 -36.5t-162.5 -69.5q-36 -14 -59 13q-34 46 50 109q-66 38 -81 84q-27 90 47 213t180 115q78 -6 80 -80.5t-16.5 -105t-27.5 -37.5q-28 -20 -52.5 10.5t-57.5 33.5t-46.5 -15t4.5 -34
q73 -60 197 -64q20 0 60.5 10t62 9t35.5 -20q14 -20 9 -37q-32 -89 -71 -98zM908 613.5q12 -43.5 42.5 -173.5t66 -172.5t95 -54t78.5 -63.5q9 -24 2 -78q-11 -102 -60 -102q-228 0 -276 390q-61 -160 -233 -158q-109 1 -142 104q-25 85 3 120q41 55 89 24q14 -9 21 -11
q117 -9 159.5 28t67.5 156q8 45 41.5 39.5t45.5 -49z" />
    <glyph glyph-name="uniFC66" unicode="&#xfc66;" horiz-adv-x="1149" arabic-form="final" 
d="M363 -51q-49 21 -37 75q28 119 41 137t19 23q30 27 122 -2q193 -60 349 -167q58 -40 44 -108q-21 -93 -24 -104q-16 -59 -65 -55q-206 26 -375 -17q-107 -27 -135 -61q6 -31 89.5 -319t93.5 -340q25 -142 5 -291q-5 -42 -39 -36.5t-39 99t-162 585.5q-52 164 -29.5 304.5
t59 192t83.5 84.5zM877 819q-107 -22 -151.5 -36.5t-162.5 -69.5q-36 -14 -59 13q-34 46 50 109q-66 38 -81 84q-27 90 47 213t180 115q78 -6 80 -80.5t-16.5 -105t-27.5 -37.5q-28 -20 -52.5 10.5t-57.5 33.5t-46.5 -15t4.5 -34q73 -60 197 -64q20 0 60.5 10t62 9t35.5 -20
q14 -20 9 -37q-32 -89 -71 -98zM847 416q85 -1 206 -143q47 -53 75 -58q97 -18 107 -92q8 -54 -13.5 -103t-68.5 -50q-119 1 -227 146q-66 89 -205.5 72t-233.5 -98q-47 -41 -82 -7q-55 51 -34.5 83.5t92.5 84.5q239 167 384 165z" />
    <glyph glyph-name="uniFC67" unicode="&#xfc67;" horiz-adv-x="1559" arabic-form="final" 
d="M469 982q10 17 34 10q88 -30 161 -88q19 -17 10 -37l-79 -155q-13 -21 -36 -4.5t-160 92.5q-22 13 -11 34zM1136 271q25 -137 16.5 -216t-17.5 -119q-36 -150 -166 -263.5t-370 -114.5q-363 -1 -459.5 237t59.5 568q17 35 43.5 18.5t9.5 -57.5q-108 -262 -39 -369
q96 -149 362 -146q169 2 315 80t171 142q14 92 -126 319q-11 18 -7 47l18 129q9 65 50 34q103 -80 140 -289zM1324 903q-107 -22 -151.5 -36.5t-162.5 -69.5q-36 -14 -59 13q-34 46 50 109q-66 38 -81 84q-27 90 47 213t180 115q78 -6 80 -80.5t-16.5 -105t-27.5 -37.5
q-28 -20 -52.5 10.5t-57.5 33.5t-46.5 -15t4.5 -34q73 -60 197 -64q20 0 60.5 10t62 9t35.5 -20q14 -20 9 -37q-32 -89 -71 -98zM1558 -30q-107 16 -157.5 90.5t-110.5 282.5q-57 -83 -154 -97q-75 -9 -116 64q-29 54 -25.5 103.5t46.5 60.5q17 4 35 0q137 -24 188 131
q15 47 57.5 43t54.5 -58q58 -261 90.5 -315t71.5 -60q84 -14 82 -133q-1 -89 -30 -106q-14 -8 -32 -6z" />
    <glyph glyph-name="uniFC68" unicode="&#xfc68;" horiz-adv-x="1494" arabic-form="final" 
d="M911 -223q-186 66 -58 283q1 4 15 36q14 33 38 24q33 -12 18 -56q-15 -42 54 -75t214 -53t202 -39.5t88 -77t30.5 -118t-24.5 -104.5q-46 -78 -237 -178t-447 -129q-462 -52 -615 271q-50 105 -41 281q10 180 111 381q18 37 53.5 18.5t3.5 -81.5q-107 -221 -57 -359
q103 -289 483 -264q297 19 608 177q-46 8 -179 18q-168 13 -260 45zM1117 819q-107 -22 -151.5 -36.5t-162.5 -69.5q-36 -14 -59 13q-34 46 50 109q-66 38 -81 84q-27 90 47 213t180 115q78 -6 80 -80.5t-16.5 -105t-27.5 -37.5q-28 -20 -52.5 10.5t-57.5 33.5t-46.5 -15
t4.5 -34q73 -60 197 -64q20 0 60.5 10t62 9t35.5 -20q14 -20 9 -37q-32 -89 -71 -98zM1331 311q60 -83 131 -95q105 -18 94.5 -105t-10.5 -89q-13 -54 -49 -52q-147 9 -251 136q-60 74 -103.5 76.5t-129 -50t-92.5 -79.5q-23 -128 -57 -184q-16 -15 -30 -18q-22 -4 -31 38
q-18 83 47 217q63 132 162 221.5t169.5 91t149.5 -107.5z" />
    <glyph glyph-name="uniFC69" unicode="&#xfc69;" horiz-adv-x="1494" arabic-form="final" 
d="M919 -864q10 17 34 10q88 -30 161 -88q19 -17 11 -37l-79 -155q-14 -21 -35.5 -5.5t-116.5 69.5l-56 -110q-13 -21 -36 -4.5t-160 92.5q-22 13 -11 34l81 148q10 17 34 10q65 -22 121 -59zM911 -223q-186 66 -58 283q1 4 15 36q14 33 38 24q33 -12 18 -56q-15 -42 54 -75
t214 -53t202 -39.5t88 -77t30.5 -118t-24.5 -104.5q-46 -78 -237 -178t-447 -129q-462 -52 -615 271q-50 105 -41 281q10 180 111 381q18 37 53.5 18.5t3.5 -81.5q-107 -221 -57 -359q103 -289 483 -264q297 19 608 177q-46 8 -179 18q-168 13 -260 45zM1117 819
q-107 -22 -151.5 -36.5t-162.5 -69.5q-36 -14 -59 13q-34 46 50 109q-66 38 -81 84q-27 90 47 213t180 115q78 -6 80 -80.5t-16.5 -105t-27.5 -37.5q-28 -20 -52.5 10.5t-57.5 33.5t-46.5 -15t4.5 -34q73 -60 197 -64q20 0 60.5 10t62 9t35.5 -20q14 -20 9 -37
q-32 -89 -71 -98zM1331 311q60 -83 131 -95q105 -18 94.5 -105t-10.5 -89q-13 -54 -49 -52q-147 9 -251 136q-60 74 -103.5 76.5t-129 -50t-92.5 -79.5q-23 -128 -57 -184q-16 -15 -30 -18q-22 -4 -31 38q-18 83 47 217q63 132 162 221.5t169.5 91t149.5 -107.5z" />
    <glyph glyph-name="uniFC6A" unicode="&#xfc6a;" horiz-adv-x="1128" arabic-form="final" 
d="M-125 -314q-35 23 -29 49.5t48 17.5q201 -41 329 10q256 102 342 305q-8 36 -131 182q-16 19 -12 39l33 208q19 120 110 -30q119 -208 96 -444q-13 -138 -120 -292.5t-232 -168.5q-211 -24 -434 124zM853 -252q10 17 34 10q88 -30 161 -88q19 -17 10 -37l-79 -155
q-13 -21 -36 -4.5t-160 92.5q-22 13 -11 34zM908 613.5q12 -43.5 42.5 -173.5t66 -172.5t95 -54t78.5 -63.5q9 -24 2 -78q-11 -102 -60 -102q-228 0 -276 390q-61 -160 -233 -158q-109 1 -142 104q-25 85 3 120q41 55 89 24q14 -9 21 -11q117 -9 159.5 28t67.5 156
q8 45 41.5 39.5t45.5 -49z" />
    <glyph glyph-name="uniFC6B" unicode="&#xfc6b;" horiz-adv-x="1128" arabic-form="final" 
d="M177 1067q10 17 34 10q88 -30 161 -88q19 -17 10 -37l-79 -155q-13 -21 -36 -4.5t-160 92.5q-22 13 -11 34zM-125 -314q-35 23 -29 49.5t48 17.5q201 -41 329 10q256 102 342 305q-8 36 -131 182q-16 19 -12 39l33 208q19 120 110 -30q119 -208 96 -444
q-13 -138 -120 -292.5t-232 -168.5q-211 -24 -434 124zM853 -252q10 17 34 10q88 -30 161 -88q19 -17 10 -37l-79 -155q-13 -21 -36 -4.5t-160 92.5q-22 13 -11 34zM908 613.5q12 -43.5 42.5 -173.5t66 -172.5t95 -54t78.5 -63.5q9 -24 2 -78q-11 -102 -60 -102
q-228 0 -276 390q-61 -160 -233 -158q-109 1 -142 104q-25 85 3 120q41 55 89 24q14 -9 21 -11q117 -9 159.5 28t67.5 156q8 45 41.5 39.5t45.5 -49z" />
    <glyph glyph-name="uniFC6C" unicode="&#xfc6c;" horiz-adv-x="1149" arabic-form="final" 
d="M363 -51q-49 21 -37 75q28 119 41 137t19 23q30 27 122 -2q193 -60 349 -167q58 -40 44 -108q-21 -93 -24 -104q-16 -59 -65 -55q-206 26 -375 -17q-107 -27 -135 -61q6 -31 89.5 -319t93.5 -340q25 -142 5 -291q-5 -42 -39 -36.5t-39 99t-162 585.5q-52 164 -29.5 304.5
t59 192t83.5 84.5zM913 -452q10 17 34 10q88 -30 161 -88q19 -17 10 -37l-79 -155q-13 -21 -36 -4.5t-160 92.5q-22 13 -11 34zM847 416q85 -1 206 -143q47 -53 75 -58q97 -18 107 -92q8 -54 -13.5 -103t-68.5 -50q-119 1 -227 146q-66 89 -205.5 72t-233.5 -98
q-47 -41 -82 -7q-55 51 -34.5 83.5t92.5 84.5q239 167 384 165z" />
    <glyph glyph-name="uniFC6D" unicode="&#xfc6d;" horiz-adv-x="1559" arabic-form="final" 
d="M469 982q10 17 34 10q88 -30 161 -88q19 -17 10 -37l-79 -155q-13 -21 -36 -4.5t-160 92.5q-22 13 -11 34zM1136 271q25 -137 16.5 -216t-17.5 -119q-36 -150 -166 -263.5t-370 -114.5q-363 -1 -459.5 237t59.5 568q17 35 43.5 18.5t9.5 -57.5q-108 -262 -39 -369
q96 -149 362 -146q169 2 315 80t171 142q14 92 -126 319q-11 18 -7 47l18 129q9 65 50 34q103 -80 140 -289zM1256 -252q10 17 34 10q88 -30 161 -88q19 -17 10 -37l-79 -155q-13 -21 -36 -4.5t-160 92.5q-22 13 -11 34zM1558 -30q-107 16 -157.5 90.5t-110.5 282.5
q-57 -83 -154 -97q-75 -9 -116 64q-29 54 -25.5 103.5t46.5 60.5q17 4 35 0q137 -24 188 131q15 47 57.5 43t54.5 -58q58 -261 90.5 -315t71.5 -60q84 -14 82 -133q-1 -89 -30 -106q-14 -8 -32 -6z" />
    <glyph glyph-name="uniFC6E" unicode="&#xfc6e;" horiz-adv-x="1494" arabic-form="final" 
d="M911 -223q-186 66 -58 283q1 4 15 36q14 33 38 24q33 -12 18 -56q-15 -42 54 -75t214 -53t202 -39.5t88 -77t30.5 -118t-24.5 -104.5q-46 -78 -237 -178t-447 -129q-462 -52 -615 271q-50 105 -41 281q10 180 111 381q18 37 53.5 18.5t3.5 -81.5q-107 -221 -57 -359
q103 -289 483 -264q297 19 608 177q-46 8 -179 18q-168 13 -260 45zM1300 -672q10 17 34 10q88 -30 161 -88q19 -17 10 -37l-79 -155q-13 -21 -36 -4.5t-160 92.5q-22 13 -11 34zM1331 311q60 -83 131 -95q105 -18 94.5 -105t-10.5 -89q-13 -54 -49 -52q-147 9 -251 136
q-60 74 -103.5 76.5t-129 -50t-92.5 -79.5q-23 -128 -57 -184q-16 -15 -30 -18q-22 -4 -31 38q-18 83 47 217q63 132 162 221.5t169.5 91t149.5 -107.5z" />
    <glyph glyph-name="uniFC6F" unicode="&#xfc6f;" horiz-adv-x="1494" arabic-form="final" 
d="M919 -864q10 17 34 10q88 -30 161 -88q19 -17 11 -37l-79 -155q-14 -21 -35.5 -5.5t-116.5 69.5l-56 -110q-13 -21 -36 -4.5t-160 92.5q-22 13 -11 34l81 148q10 17 34 10q65 -22 121 -59zM911 -223q-186 66 -58 283q1 4 15 36q14 33 38 24q33 -12 18 -56q-15 -42 54 -75
t214 -53t202 -39.5t88 -77t30.5 -118t-24.5 -104.5q-46 -78 -237 -178t-447 -129q-462 -52 -615 271q-50 105 -41 281q10 180 111 381q18 37 53.5 18.5t3.5 -81.5q-107 -221 -57 -359q103 -289 483 -264q297 19 608 177q-46 8 -179 18q-168 13 -260 45zM1300 -672
q10 17 34 10q88 -30 161 -88q19 -17 10 -37l-79 -155q-13 -21 -36 -4.5t-160 92.5q-22 13 -11 34zM1331 311q60 -83 131 -95q105 -18 94.5 -105t-10.5 -89q-13 -54 -49 -52q-147 9 -251 136q-60 74 -103.5 76.5t-129 -50t-92.5 -79.5q-23 -128 -57 -184q-16 -15 -30 -18
q-22 -4 -31 38q-18 83 47 217q63 132 162 221.5t169.5 91t149.5 -107.5z" />
    <glyph glyph-name="uniFC70" unicode="&#xfc70;" horiz-adv-x="1128" arabic-form="final" 
d="M-125 -314q-35 23 -29 49.5t48 17.5q201 -41 329 10q256 102 342 305q-8 36 -131 182q-16 19 -12 39l33 208q19 120 110 -30q119 -208 96 -444q-13 -138 -120 -292.5t-232 -168.5q-211 -24 -434 124zM800 1174q10 17 34 10q88 -30 161 -88q19 -17 11 -37l-79 -155
q-14 -21 -35.5 -5.5t-116.5 69.5l-56 -110q-13 -21 -36 -4.5t-160 92.5q-22 13 -11 34l81 148q10 17 34 10q65 -22 121 -59zM908 613.5q12 -43.5 42.5 -173.5t66 -172.5t95 -54t78.5 -63.5q9 -24 2 -78q-11 -102 -60 -102q-228 0 -276 390q-61 -160 -233 -158
q-109 1 -142 104q-25 85 3 120q41 55 89 24q14 -9 21 -11q117 -9 159.5 28t67.5 156q8 45 41.5 39.5t45.5 -49z" />
    <glyph glyph-name="uniFC71" unicode="&#xfc71;" horiz-adv-x="1128" arabic-form="final" 
d="M177 1067q10 17 34 10q88 -30 161 -88q19 -17 10 -37l-79 -155q-13 -21 -36 -4.5t-160 92.5q-22 13 -11 34zM-125 -314q-35 23 -29 49.5t48 17.5q201 -41 329 10q256 102 342 305q-8 36 -131 182q-16 19 -12 39l33 208q19 120 110 -30q119 -208 96 -444
q-13 -138 -120 -292.5t-232 -168.5q-211 -24 -434 124zM800 1174q10 17 34 10q88 -30 161 -88q19 -17 11 -37l-79 -155q-14 -21 -35.5 -5.5t-116.5 69.5l-56 -110q-13 -21 -36 -4.5t-160 92.5q-22 13 -11 34l81 148q10 17 34 10q65 -22 121 -59zM908 613.5
q12 -43.5 42.5 -173.5t66 -172.5t95 -54t78.5 -63.5q9 -24 2 -78q-11 -102 -60 -102q-228 0 -276 390q-61 -160 -233 -158q-109 1 -142 104q-25 85 3 120q41 55 89 24q14 -9 21 -11q117 -9 159.5 28t67.5 156q8 45 41.5 39.5t45.5 -49z" />
    <glyph glyph-name="uniFC72" unicode="&#xfc72;" horiz-adv-x="1149" arabic-form="final" 
d="M363 -51q-49 21 -37 75q28 119 41 137t19 23q30 27 122 -2q193 -60 349 -167q58 -40 44 -108q-21 -93 -24 -104q-16 -59 -65 -55q-206 26 -375 -17q-107 -27 -135 -61q6 -31 89.5 -319t93.5 -340q25 -142 5 -291q-5 -42 -39 -36.5t-39 99t-162 585.5q-52 164 -29.5 304.5
t59 192t83.5 84.5zM760 974q10 17 34 10q88 -30 161 -88q19 -17 11 -37l-79 -155q-14 -21 -35.5 -5.5t-116.5 69.5l-56 -110q-13 -21 -36 -4.5t-160 92.5q-22 13 -11 34l81 148q10 17 34 10q65 -22 121 -59zM847 416q85 -1 206 -143q47 -53 75 -58q97 -18 107 -92
q8 -54 -13.5 -103t-68.5 -50q-119 1 -227 146q-66 89 -205.5 72t-233.5 -98q-47 -41 -82 -7q-55 51 -34.5 83.5t92.5 84.5q239 167 384 165z" />
    <glyph glyph-name="uniFC73" unicode="&#xfc73;" horiz-adv-x="1559" arabic-form="final" 
d="M469 982q10 17 34 10q88 -30 161 -88q19 -17 10 -37l-79 -155q-13 -21 -36 -4.5t-160 92.5q-22 13 -11 34zM1136 271q25 -137 16.5 -216t-17.5 -119q-36 -150 -166 -263.5t-370 -114.5q-363 -1 -459.5 237t59.5 568q17 35 43.5 18.5t9.5 -57.5q-108 -262 -39 -369
q96 -149 362 -146q169 2 315 80t171 142q14 92 -126 319q-11 18 -7 47l18 129q9 65 50 34q103 -80 140 -289zM1207 1058q10 17 34 10q88 -30 161 -88q19 -17 11 -37l-79 -155q-14 -21 -35.5 -5.5t-116.5 69.5l-56 -110q-13 -21 -36 -4.5t-160 92.5q-22 13 -11 34l81 148
q10 17 34 10q65 -22 121 -59zM1558 -30q-107 16 -157.5 90.5t-110.5 282.5q-57 -83 -154 -97q-75 -9 -116 64q-29 54 -25.5 103.5t46.5 60.5q17 4 35 0q137 -24 188 131q15 47 57.5 43t54.5 -58q58 -261 90.5 -315t71.5 -60q84 -14 82 -133q-1 -89 -30 -106q-14 -8 -32 -6z
" />
    <glyph glyph-name="uniFC74" unicode="&#xfc74;" horiz-adv-x="1494" arabic-form="final" 
d="M911 -223q-186 66 -58 283q1 4 15 36q14 33 38 24q33 -12 18 -56q-15 -42 54 -75t214 -53t202 -39.5t88 -77t30.5 -118t-24.5 -104.5q-46 -78 -237 -178t-447 -129q-462 -52 -615 271q-50 105 -41 281q10 180 111 381q18 37 53.5 18.5t3.5 -81.5q-107 -221 -57 -359
q103 -289 483 -264q297 19 608 177q-46 8 -179 18q-168 13 -260 45zM1011 974q10 17 34 10q88 -30 161 -88q19 -17 11 -37l-79 -155q-14 -21 -35.5 -5.5t-116.5 69.5l-56 -110q-13 -21 -36 -4.5t-160 92.5q-22 13 -11 34l81 148q10 17 34 10q65 -22 121 -59zM1331 311
q60 -83 131 -95q105 -18 94.5 -105t-10.5 -89q-13 -54 -49 -52q-147 9 -251 136q-60 74 -103.5 76.5t-129 -50t-92.5 -79.5q-23 -128 -57 -184q-16 -15 -30 -18q-22 -4 -31 38q-18 83 47 217q63 132 162 221.5t169.5 91t149.5 -107.5z" />
    <glyph glyph-name="uniFC75" unicode="&#xfc75;" horiz-adv-x="1494" arabic-form="final" 
d="M919 -864q10 17 34 10q88 -30 161 -88q19 -17 11 -37l-79 -155q-14 -21 -35.5 -5.5t-116.5 69.5l-56 -110q-13 -21 -36 -4.5t-160 92.5q-22 13 -11 34l81 148q10 17 34 10q65 -22 121 -59zM911 -223q-186 66 -58 283q1 4 15 36q14 33 38 24q33 -12 18 -56q-15 -42 54 -75
t214 -53t202 -39.5t88 -77t30.5 -118t-24.5 -104.5q-46 -78 -237 -178t-447 -129q-462 -52 -615 271q-50 105 -41 281q10 180 111 381q18 37 53.5 18.5t3.5 -81.5q-107 -221 -57 -359q103 -289 483 -264q297 19 608 177q-46 8 -179 18q-168 13 -260 45zM1011 974
q10 17 34 10q88 -30 161 -88q19 -17 11 -37l-79 -155q-14 -21 -35.5 -5.5t-116.5 69.5l-56 -110q-13 -21 -36 -4.5t-160 92.5q-22 13 -11 34l81 148q10 17 34 10q65 -22 121 -59zM1331 311q60 -83 131 -95q105 -18 94.5 -105t-10.5 -89q-13 -54 -49 -52q-147 9 -251 136
q-60 74 -103.5 76.5t-129 -50t-92.5 -79.5q-23 -128 -57 -184q-16 -15 -30 -18q-22 -4 -31 38q-18 83 47 217q63 132 162 221.5t169.5 91t149.5 -107.5z" />
    <glyph glyph-name="uniFC76" unicode="&#xfc76;" horiz-adv-x="1128" arabic-form="final" 
d="M-125 -314q-35 23 -29 49.5t48 17.5q201 -41 329 10q256 102 342 305q-8 36 -131 182q-16 19 -12 39l33 208q19 120 110 -30q119 -208 96 -444q-13 -138 -120 -292.5t-232 -168.5q-211 -24 -434 124zM619 1403q10 17 34 10q88 -30 161 -88q19 -17 10 -37l-79 -155
q-13 -21 -36 -4.5t-159 92.5q-23 13 -11 33zM792 1174q10 17 34 10q88 -30 161 -88q19 -17 11 -37l-79 -155q-13 -22 -34.5 -6.5t-101.5 61.5l-52 -102q-13 -21 -36 -4.5t-159 92.5q-23 13 -12 34l81 148q20 34 140 -39zM908 613.5q12 -43.5 42.5 -173.5t66 -172.5t95 -54
t78.5 -63.5q9 -24 2 -78q-11 -102 -60 -102q-228 0 -276 390q-61 -160 -233 -158q-109 1 -142 104q-25 85 3 120q41 55 89 24q14 -9 21 -11q117 -9 159.5 28t67.5 156q8 45 41.5 39.5t45.5 -49z" />
    <glyph glyph-name="uniFC77" unicode="&#xfc77;" horiz-adv-x="1128" arabic-form="final" 
d="M177 1067q10 17 34 10q88 -30 161 -88q19 -17 10 -37l-79 -155q-13 -21 -36 -4.5t-160 92.5q-22 13 -11 34zM-125 -314q-35 23 -29 49.5t48 17.5q201 -41 329 10q256 102 342 305q-8 36 -131 182q-16 19 -12 39l33 208q19 120 110 -30q119 -208 96 -444
q-13 -138 -120 -292.5t-232 -168.5q-211 -24 -434 124zM619 1403q10 17 34 10q88 -30 161 -88q19 -17 10 -37l-79 -155q-13 -21 -36 -4.5t-159 92.5q-23 13 -11 33zM792 1174q10 17 34 10q88 -30 161 -88q19 -17 11 -37l-79 -155q-13 -22 -34.5 -6.5t-101.5 61.5l-52 -102
q-13 -21 -36 -4.5t-159 92.5q-23 13 -12 34l81 148q20 34 140 -39zM908 613.5q12 -43.5 42.5 -173.5t66 -172.5t95 -54t78.5 -63.5q9 -24 2 -78q-11 -102 -60 -102q-228 0 -276 390q-61 -160 -233 -158q-109 1 -142 104q-25 85 3 120q41 55 89 24q14 -9 21 -11
q117 -9 159.5 28t67.5 156q8 45 41.5 39.5t45.5 -49z" />
    <glyph glyph-name="uniFC78" unicode="&#xfc78;" horiz-adv-x="1149" arabic-form="final" 
d="M363 -51q-49 21 -37 75q28 119 41 137t19 23q30 27 122 -2q193 -60 349 -167q58 -40 44 -108q-21 -93 -24 -104q-16 -59 -65 -55q-206 26 -375 -17q-107 -27 -135 -61q6 -31 89.5 -319t93.5 -340q25 -142 5 -291q-5 -42 -39 -36.5t-39 99t-162 585.5q-52 164 -29.5 304.5
t59 192t83.5 84.5zM579 1203q10 17 34 10q88 -30 161 -88q19 -17 10 -37l-79 -155q-13 -21 -36 -4.5t-159 92.5q-23 13 -11 33zM752 974q10 17 34 10q88 -30 161 -88q19 -17 11 -37l-79 -155q-13 -22 -34.5 -6.5t-101.5 61.5l-52 -102q-13 -21 -36 -4.5t-159 92.5
q-23 13 -12 34l81 148q20 34 140 -39zM847 416q85 -1 206 -143q47 -53 75 -58q97 -18 107 -92q8 -54 -13.5 -103t-68.5 -50q-119 1 -227 146q-66 89 -205.5 72t-233.5 -98q-47 -41 -82 -7q-55 51 -34.5 83.5t92.5 84.5q239 167 384 165z" />
    </font>
</defs>
</svg>
