<?xml version="1.0" encoding="UTF-8"?>
<svg width="125px" height="250px" viewBox="0 0 125 250" version="1.1" xmlns="http://www.w3.org/2000/svg" xmlns:xlink="http://www.w3.org/1999/xlink">
    <!-- Generator: Sketch 61 (89581) - https://sketch.com -->
    <title>6 Passive</title>
    <desc>Created with Sketch.</desc>
    <g id="Wireframes" stroke="none" stroke-width="1" fill="none" fill-rule="evenodd">
        <g id="02-Repair" transform="translate(-414.000000, -1652.000000)" stroke-width="0.5">
            <g id="Group-8" transform="translate(120.000000, 768.000000)">
                <g id="Group-10">
                    <g id="Group-21-Copy-4" transform="translate(248.000000, 822.000000)">
                        <g id="iPhone-8-Plus" transform="translate(46.000000, 62.000000)">
                            <g id="Group-11">
                                <g id="6-Passive">
                                    <g id="Body">
                                        <rect id="Outside" stroke="#333333" x="1.29388933" y="0.25" width="122.417969" height="248.98955" rx="16.7022293"></rect>
                                        <rect id="Inside" stroke="#CCCCCC" x="2.85972332" y="1.81583399" width="119.286301" height="245.857882" rx="15.6583399"></rect>
                                        <path d="M123.950886,48.0079368 L123.950886,64.2101661 L124.22283,64.2101661 C124.517152,64.2101661 124.755747,63.9715711 124.755747,63.6772491 L124.755747,48.5408538 C124.755747,48.2465319 124.517152,48.0079368 124.22283,48.0079368 L123.950886,48.0079368 Z" id="Botton-4" stroke="#333333"></path>
                                        <path d="M1.05486166,84.0440634 L1.05486166,67.8418341 L0.782916997,67.8418341 C0.488595067,67.8418341 0.25,68.0804292 0.25,68.3747511 L0.25,83.5111464 C0.25,83.8054683 0.488595067,84.0440634 0.782916997,84.0440634 L1.05486166,84.0440634 Z" id="Botton-3" stroke="#333333"></path>
                                        <path d="M1.05486166,64.2101661 L1.05486166,48.0079368 L0.782916997,48.0079368 C0.488595067,48.0079368 0.25,48.2465319 0.25,48.5408538 L0.25,63.6772491 C0.25,63.9715711 0.488595067,64.2101661 0.782916997,64.2101661 L1.05486166,64.2101661 Z" id="Botton-2" stroke="#333333"></path>
                                        <path d="M1.05486166,38.6348775 L1.05486166,29.7398736 L0.782916997,29.7398736 C0.488595067,29.7398736 0.25,29.9784686 0.25,30.2727906 L0.25,38.1019605 C0.25,38.3962825 0.488595067,38.6348775 0.782916997,38.6348775 L1.05486166,38.6348775 Z" id="Botton-1" stroke="#333333"></path>
                                    </g>
                                    <g id="Accessories-" transform="translate(39.145850, 7.307225)">
                                        <circle id="Sensor" stroke="#CCCCCC" cx="23.3570238" cy="1.1743755" r="1"></circle>
                                        <g id="Camera" transform="translate(0.000000, 6.002364)" stroke="#CCCCCC">
                                            <circle id="Outside" cx="2.08777866" cy="2.08777866" r="1.83777866"></circle>
                                            <circle id="Inside" cx="2.08777866" cy="2.08777866" r="1.05486166"></circle>
                                        </g>
                                        <rect id="Speaker" stroke="#CCCCCC" x="12.2547273" y="7.29625298" width="22.2045929" height="1.58777866" rx="0.79388933"></rect>
                                        <g id="Botton" transform="translate(14.875423, 217.650925)">
                                            <circle id="Outside" stroke="#333333" cx="8.74257314" cy="8.74257314" r="8.49257314"></circle>
                                            <circle id="Inside" stroke="#CCCCCC" cx="8.74257314" cy="8.74257314" r="7.44868381"></circle>
                                        </g>
                                    </g>
                                    <rect id="Screen_414x736" stroke="#333333" fill="#E3E3E3" x="8.86208697" y="28.9569566" width="107.542546" height="191.575637"></rect>
                                </g>
                            </g>
                        </g>
                    </g>
                </g>
            </g>
        </g>
    </g>
</svg>