<svg width="29" height="6" xmlns="http://www.w3.org/2000/svg">

 <g>
  <title>background</title>
  <rect fill="none" id="canvas_background" height="402" width="582" y="-1" x="-1"/>
 </g>
 <g>
  <title>Layer 1</title>
  <g transform="rotate(-180 14.499500274658203,3.009495735168457) " id="svg_1">
   <g id="svg_2">
    <path id="svg_3" d="m28.69,2.52l-2.666,-2.29c-0.156,-0.13 -0.276,-0.277 -0.513,-0.277a0.511,0.511 0 0 0 -0.514,0.513l0,1.54l-24.494,0a0.515,0.515 0 0 0 -0.514,0.514l0,0.98c0,0.282 0.231,0.513 0.514,0.513l24.494,0l0,1.54c0,0.249 0.193,0.513 0.514,0.513c0.237,0 0.357,-0.147 0.513,-0.277l2.666,-2.289c0.197,-0.16 0.32,-0.284 0.32,-0.513c0,-0.228 -0.123,-0.306 -0.32,-0.466l0,-0.001z" fill="#403c4b"/>
   </g>
  </g>
 </g>
</svg>