<svg width="66" height="6" xmlns="http://www.w3.org/2000/svg">
 <g>
  <title>background</title>
  <rect x="-1" y="-1" width="68" height="8" id="canvas_background" fill="none"/>
 </g>

 <g>
  <title>Layer 1</title>
  <g id="svg_1">
   <g id="svg_2">
    <path fill="#ffcb6d" d="m0.169,3.495l2.76,2.29c0.156,0.13 0.276,0.277 0.512,0.277c0.321,0 0.514,-0.265 0.514,-0.513l0,-1.54l61.594,0a0.515,0.515 0 0 0 0.513,-0.514l0,-0.964a0.515,0.515 0 0 0 -0.513,-0.513l-61.594,0l0,-1.54a0.511,0.511 0 0 0 -0.514,-0.514c-0.236,0 -0.356,0.147 -0.513,0.277l-2.76,2.289c-0.196,0.16 -0.32,0.222 -0.32,0.45c0,0.229 0.124,0.353 0.32,0.514l0.001,0.001z" id="svg_3"/>
   </g>
  </g>
 </g>
</svg>