<svg xmlns="http://www.w3.org/2000/svg" width="17" height="18" viewBox="0 0 17 18"><defs><clipPath id="2r3sa"><path fill="#fff" d="M12.063 10.993l4.75 4.755-1.475 1.502-4.755-4.756-.302.21A6.665 6.665 0 0 1 0 7.105 6.666 6.666 0 0 1 6.664.436a6.664 6.664 0 0 1 5.618 10.246zm-5.39-9.156A5.228 5.228 0 0 0 2.95 3.378 5.23 5.23 0 0 0 1.41 7.1a5.23 5.23 0 0 0 1.541 3.722 5.229 5.229 0 0 0 3.722 1.541 5.229 5.229 0 0 0 3.721-1.541A5.23 5.23 0 0 0 11.936 7.1a5.23 5.23 0 0 0-1.542-3.722 5.229 5.229 0 0 0-3.721-1.54z"/></clipPath></defs><g><g><path fill="none" stroke="#403c4b" stroke-miterlimit="50" stroke-width="2" d="M12.063 10.993l4.75 4.755-1.475 1.502-4.755-4.756-.302.21A6.665 6.665 0 0 1 0 7.105 6.666 6.666 0 0 1 6.664.436a6.664 6.664 0 0 1 5.618 10.246zm-5.39-9.156A5.228 5.228 0 0 0 2.95 3.378 5.23 5.23 0 0 0 1.41 7.1a5.23 5.23 0 0 0 1.541 3.722 5.229 5.229 0 0 0 3.722 1.541 5.229 5.229 0 0 0 3.721-1.541A5.23 5.23 0 0 0 11.936 7.1a5.23 5.23 0 0 0-1.542-3.722 5.229 5.229 0 0 0-3.721-1.54z" clip-path="url(&quot;#2r3sa&quot;)"/></g></g></svg>