<?xml version="1.0" encoding="UTF-8"?>
<svg width="349px" height="131px" viewBox="0 0 349 131" version="1.1" xmlns="http://www.w3.org/2000/svg" xmlns:xlink="http://www.w3.org/1999/xlink">
    <!-- Generator: Sketch 52.3 (67297) - http://www.bohemiancoding.com/sketch -->
    <title>Logo</title>
    <desc>Created with Sketch.</desc>
    <g id="Page-1" stroke="none" stroke-width="1" fill="none" fill-rule="evenodd">
        <g id="Logo">
            <path d="M18.8947,129.813 L10,129.813 L10,107.132 L19.0833,107.132 C22.5825,107.132 25.3169,108.155 27.2865,110.201 C29.277,112.247 30.2723,115.02 30.2723,118.519 C30.2723,122.017 29.2561,124.769 27.2236,126.774 C25.2121,128.8 22.4358,129.813 18.8947,129.813 Z M14.6516,111.49 L14.6516,125.455 L19.1147,125.455 C21.1053,125.455 22.6558,124.79 23.7663,123.46 C24.8769,122.13 25.4321,120.452 25.4321,118.426 C25.4321,116.462 24.8769,114.815 23.7663,113.485 C22.6558,112.155 21.1053,111.49 19.1147,111.49 L14.6516,111.49 Z" id="Shape" fill="#FFFFFF" fill-rule="nonzero"></path>
            <polygon id="Path" fill="#FFFFFF" points="58.7331 129.813 42.9867 129.813 42.9867 107.132 58.7331 107.132 58.7331 111.368 47.6698 111.368 47.6698 116.247 57.916 116.247 57.916 120.483 47.6698 120.483 47.6698 125.577 58.7331 125.577"></polygon>
            <polygon id="Path" fill="#FFFFFF" points="80.759 122.815 86.856 107.132 92.137 107.132 82.613 129.813 78.905 129.813 69.2556 107.132 74.6301 107.132"></polygon>
            <polygon id="Path" fill="#FFFFFF" points="119.458 129.813 103.712 129.813 103.712 107.132 119.458 107.132 119.458 111.368 108.395 111.368 108.395 116.247 118.641 116.247 118.641 120.483 108.395 120.483 108.395 125.577 119.458 125.577"></polygon>
            <polygon id="Path" fill="#FFFFFF" points="148.993 129.813 132.524 129.813 132.524 107.132 137.207 107.132 137.207 125.455 148.993 125.455"></polygon>
            <path d="M170.489,130.181 C167.031,130.181 164.161,129.066 161.877,126.836 C159.572,124.585 158.42,121.823 158.42,118.549 C158.42,115.255 159.583,112.462 161.908,110.171 C164.255,107.879 167.126,106.733 170.52,106.733 C173.915,106.733 176.775,107.879 179.101,110.171 C181.447,112.462 182.621,115.235 182.621,118.488 C182.621,121.741 181.447,124.503 179.101,126.774 C176.775,129.046 173.904,130.181 170.489,130.181 Z M177.781,118.488 C177.781,116.401 177.079,114.672 175.675,113.301 C174.25,111.91 172.532,111.214 170.52,111.214 C168.509,111.214 166.79,111.91 165.366,113.301 C163.962,114.672 163.26,116.401 163.26,118.488 C163.26,120.554 163.951,122.273 165.334,123.644 C166.738,125.015 168.467,125.7 170.52,125.7 C172.574,125.7 174.302,125.015 175.706,123.644 C177.11,122.273 177.801,120.554 177.781,118.488 Z" id="Shape" fill="#FFFFFF" fill-rule="nonzero"></path>
            <path d="M195.213,107.132 L203.794,107.132 C206.518,107.132 208.561,107.858 209.923,109.311 C211.305,110.743 211.997,112.513 211.997,114.621 C211.997,116.708 211.285,118.467 209.86,119.9 C208.435,121.291 206.298,121.987 203.448,121.987 L199.865,121.987 L199.865,129.813 L195.213,129.813 L195.213,107.132 Z M199.865,117.874 L203.605,117.874 C204.758,117.874 205.648,117.567 206.277,116.953 C206.926,116.319 207.251,115.521 207.251,114.559 C207.251,113.639 206.937,112.871 206.308,112.258 C205.7,111.644 204.883,111.337 203.857,111.337 L199.865,111.337 L199.865,117.874 Z" id="Shape" fill="#FFFFFF" fill-rule="nonzero"></path>
            <polygon id="Path" fill="#FFFFFF" points="228.676 129.813 224.087 129.813 224.087 107.132 227.167 107.132 236.282 119.992 245.302 107.132 248.445 107.132 248.445 129.813 243.794 129.813 243.794 116.953 237.036 126.437 235.433 126.437 228.676 116.953"></polygon>
            <polygon id="Path" fill="#FFFFFF" points="278.161 129.813 262.415 129.813 262.415 107.132 278.161 107.132 278.161 111.368 267.098 111.368 267.098 116.247 277.344 116.247 277.344 120.483 267.098 120.483 267.098 125.577 278.161 125.577"></polygon>
            <polygon id="Path" fill="#FFFFFF" points="306.439 121.158 306.439 107.132 311.028 107.132 311.028 129.813 307.853 129.813 295.816 115.91 295.816 129.813 291.227 129.813 291.227 107.132 294.181 107.132"></polygon>
            <polygon id="Path" fill="#FFFFFF" points="329.475 129.813 329.475 111.521 322.844 111.521 322.844 107.132 340.822 107.132 340.822 111.521 334.19 111.521 334.19 129.813"></polygon>
            <path d="M30.7622,83.733 C24.4716,83.733 18.651,82.422 13.3004,79.801 C7.9497,77.18 3.6476,73.4659 0.3938,68.66 L9.6128,57.4097 C14.9634,64.9099 22.0493,68.66 30.8706,68.66 C34.1967,68.66 36.9443,67.859 39.1135,66.257 C41.2826,64.655 42.3672,62.5797 42.3672,60.0311 C42.3672,56.6815 39.945,53.8781 35.1005,51.6207 C34.5221,51.3295 31.8829,50.2736 27.183,48.4532 C23.4954,46.9968 20.3502,45.5405 17.7472,44.0841 C9.2874,39.2054 5.0575,32.5062 5.0575,23.9866 C5.0575,17.2146 7.5882,11.6077 12.6496,7.1658 C17.7833,2.6511 24.3631,0.3938 32.389,0.3938 C42.8011,0.3938 51.5862,4.0347 58.7445,11.3164 L50.1762,23.1128 C48.0071,20.7826 45.2956,18.9622 42.0419,17.6515 C38.8604,16.268 35.7151,15.5762 32.606,15.5762 C29.4245,15.5762 26.8938,16.3044 25.0139,17.7607 C23.2062,19.1442 22.3024,21.0011 22.3024,23.3312 C22.3024,26.4624 24.4716,29.1202 28.8099,31.3047 L36.7274,34.8 C41.2103,36.6932 44.4641,38.1131 46.4886,39.0598 C55.5992,43.5016 60.1544,50.2008 60.1544,59.1573 C60.1544,66.3662 57.443,72.2644 52.02,76.8519 C46.5971,81.439 39.5112,83.733 30.7622,83.733 Z" id="Path" fill="#FFFFFF"></path>
            <path d="M78.424,1.7046 L108.033,1.7046 C117.433,1.7046 124.483,4.2896 129.182,9.4596 C133.955,14.5568 136.341,20.8555 136.341,28.3557 C136.341,35.7831 133.882,42.0453 128.965,47.1426 C124.049,52.0941 116.674,54.5699 106.84,54.5699 L94.476,54.5699 L94.476,82.423 L78.424,82.423 L78.424,1.7046 Z M94.476,39.9336 L107.382,39.9336 C111.359,39.9336 114.432,38.8414 116.601,36.6569 C118.843,34.3995 119.963,31.5597 119.963,28.1373 C119.963,24.8605 118.879,22.1298 116.71,19.9453 C114.613,17.7608 111.793,16.6685 108.25,16.6685 L94.476,16.6685 L94.476,39.9336 Z" id="Shape" fill="#FFFFFF" fill-rule="nonzero"></path>
            <polygon id="Path" fill="#FFFFFF" points="209.948 82.423 153.116 82.423 153.116 1.7046 169.276 1.7046 169.276 66.9124 209.948 66.9124"></polygon>
            <polygon id="Path" fill="#FF4141" points="225.796 82.423 249.934 1.7046 268.03 1.7046 243.893 82.423"></polygon>
            <polygon id="Path" fill="#FFFFFF" points="309.706 82.423 309.706 17.3239 286.821 17.3239 286.821 1.7046 348.86 1.7046 348.86 17.3239 325.975 17.3239 325.975 82.423"></polygon>
        </g>
    </g>
</svg>