<svg xmlns="http://www.w3.org/2000/svg" width="34" height="27" viewBox="0 0 34 27"><g><g><g><g><path fill="#d11742" d="M31.442 15.874H2.39a2.39 2.39 0 1 1 0-4.779h29.053a2.39 2.39 0 0 1 0 4.779z"/></g></g><g><g><path fill="#d11742" d="M31.444 15.874c-.799 0-1.58-.401-2.032-1.13L22.74 3.983a2.39 2.39 0 1 1 4.061-2.518l6.672 10.76a2.39 2.39 0 0 1-2.029 3.648z"/></g></g><g><g><path fill="#d11742" d="M24.769 26.633a2.39 2.39 0 0 1-2.028-3.649l6.67-10.759a2.39 2.39 0 1 1 4.062 2.518L26.8 25.503a2.388 2.388 0 0 1-2.032 1.13z"/></g></g></g></g></svg>