<svg xmlns="http://www.w3.org/2000/svg" width="1381" height="877" viewBox="0 0 1381 877">
    <g>
        <g>
            <path fill="#fff"
                  d="M883.115 342.397c102.252 3.408 182.444 86.946 179.115 186.588-3.328 99.642-88.918 177.655-191.17 174.248-102.252-3.408-182.444-86.946-179.115-186.588 3.328-99.642 88.918-177.655 191.17-174.248z"/>
        </g>
        <g>
            <path fill="#86b13e"
                  d="M99.544 319.392c52.988 1.743 94.504 45.664 92.73 98.1-1.775 52.438-46.168 93.533-99.156 91.79C40.13 507.537-1.387 463.616.388 411.18c1.774-52.437 46.168-93.532 99.156-91.788z"/>
        </g>
        <g>
            <path fill="#86b13e"
                  d="M970.549 161.785c66.808 2.202 119.154 57.685 116.916 123.925-2.237 66.24-58.21 118.152-125.019 115.95-66.808-2.202-119.154-57.685-116.916-123.925 2.237-66.239 58.21-118.152 125.019-115.95z"/>
        </g>
        <g>
            <path fill="#86b13e"
                  d="M728.469 250.79c66.809 2.203 119.154 57.686 116.917 123.925-2.238 66.24-58.21 118.152-125.02 115.95-66.808-2.202-119.153-57.685-116.916-123.925 2.237-66.239 58.21-118.152 125.019-115.95z"/>
        </g>
        <g>
            <path fill="#649621"
                  d="M663.965 279.81c101.429 12.764 173.547 103.257 161.08 202.12-12.466 98.864-104.796 168.66-206.224 155.896C517.392 625.06 445.274 534.568 457.74 435.705c12.466-98.863 104.796-168.66 206.225-155.895z"/>
        </g>
        <g>
            <path fill="#649621"
                  d="M1148.863 98.843c101.411 12.771 173.517 103.311 161.053 202.226-12.464 98.915-104.779 168.747-206.19 155.976-101.412-12.771-173.518-103.311-161.054-202.226 12.465-98.914 104.78-168.747 206.19-155.976z"/>
        </g>
        <g>
            <path fill="#fff"
                  d="M1091.586 392.407c101.378 12.771 173.46 103.305 161 202.214-12.46 98.91-104.744 168.739-206.122 155.968-101.378-12.77-173.46-103.305-161-202.214 12.46-98.91 104.744-168.738 206.122-155.968z"/>
        </g>
        <g>
            <path fill="#649621"
                  d="M887.826 232.633c62.228 7.85 106.473 63.504 98.825 124.307-7.648 60.802-64.294 103.727-126.522 95.877-62.227-7.85-106.473-63.504-98.825-124.306 7.649-60.803 64.294-103.729 126.522-95.878z"/>
        </g>
        <g>
            <path fill="#649621"
                  d="M298.139 293.604c46.32 5.831 79.254 47.186 73.559 92.368-5.695 45.182-47.862 77.082-94.182 71.25-46.32-5.832-79.254-47.186-73.559-92.368 5.695-45.182 47.862-77.082 94.182-71.25z"/>
        </g>
        <g>
            <path fill="#fff"
                  d="M1189.655.511C1087.438 3.92 1007.272 87.466 1010.6 187.12c3.328 99.652 88.889 177.674 191.106 174.266 102.218-3.407 182.383-86.955 179.056-186.607-3.328-99.652-88.89-177.675-191.107-174.267z"/>
        </g>
        <g>
            <path fill="#fff"
                  d="M1030.524 215.39c-73.417 2.436-130.997 62.135-128.606 133.343 2.39 71.207 63.844 126.958 137.262 124.523 73.418-2.435 130.997-62.134 128.607-133.342-2.39-71.207-63.845-126.958-137.263-124.524z"/>
        </g>
        <g>
            <path fill="#fff"
                  d="M899.932 287.367c-32.56 1.076-58.097 27.448-57.037 58.904 1.06 31.457 28.315 56.085 60.876 55.009 32.561-1.076 58.098-27.448 57.038-58.904-1.06-31.456-28.316-56.085-60.877-55.009z"/>
        </g>
        <g>
            <path fill="#fff"
                  d="M175.757 318.977c-60.723 2-108.347 51.05-106.37 109.554 1.977 58.505 52.806 104.31 113.529 102.31 60.723-2.002 108.347-51.05 106.37-109.555-1.977-58.504-52.806-104.31-113.53-102.31z"/>
        </g>
        <g>
            <path fill="#fff"
                  d="M675.757 280.977c-60.723 2-108.347 51.05-106.37 109.554 1.977 58.504 52.806 104.31 113.53 102.31 60.722-2.001 108.346-51.05 106.369-109.555-1.977-58.504-52.806-104.31-113.529-102.31z"/>
        </g>
        <g>
            <path fill="#fff"
                  d="M570.757 351.977c-60.723 2-108.347 51.05-106.37 109.554 1.977 58.505 52.806 104.31 113.53 102.31 60.722-2.001 108.346-51.05 106.369-109.555-1.977-58.505-52.806-104.31-113.529-102.309z"/>
        </g>
        <g>
            <path fill="#fff"
                  d="M775.581 300.006c-89.423 2.982-159.554 76.098-156.643 163.309 2.911 87.211 77.763 155.492 167.186 152.51 89.423-2.983 159.554-76.099 156.643-163.31-2.912-87.211-77.763-155.492-167.186-152.51z"/>
        </g>
        <g>
            <path fill="#fff"
                  d="M384.26 332.447c-154.265 5.135-275.25 131.02-270.228 281.173 5.023 150.153 134.15 267.714 288.415 262.579 154.265-5.135 275.25-131.02 270.227-281.173-5.022-150.153-134.15-267.713-288.414-262.579z"/>
        </g>
    </g>
</svg>