<?xml version="1.0" encoding="UTF-8"?>
<svg width="2223px" height="446px" viewBox="0 0 2223 446" version="1.1" xmlns="http://www.w3.org/2000/svg" xmlns:xlink="http://www.w3.org/1999/xlink">
    <!-- Generator: Sketch 59 (86127) - https://sketch.com -->
    <title>Group</title>
    <desc>Created with Sketch.</desc>
    <defs>
        <rect id="path-1" x="0" y="0" width="2223" height="446"></rect>
    </defs>
    <g id="Page-1" stroke="none" stroke-width="1" fill="none" fill-rule="evenodd">
        <g id="Artboard" transform="translate(-1868.000000, -1558.000000)">
            <g id="Group" transform="translate(1868.000000, 1558.000000)">
                <mask id="mask-2" fill="white">
                    <use xlink:href="#path-1"></use>
                </mask>
                <g id="Rectangle"></g>
                <g id="background-top" mask="url(#mask-2)" fill-rule="nonzero">
                    <g transform="translate(-138.000000, 0.000000)">
                        <path d="M307.912,9.083 C365.602,11.008 410.848,58.2 408.97,114.49 C407.091,170.778 358.801,214.849 301.11,212.924 C243.419,210.999 198.174,163.807 200.052,107.519 C201.93,51.23 250.22,7.159 307.912,9.084 L307.912,9.083 Z" id="Path" fill="#86B13E"></path>
                        <path d="M422.693,135.034 C459.953,136.27 489.173,166.579 487.96,202.73 C486.747,238.882 455.56,267.187 418.3,265.95 C381.042,264.714 351.82,234.405 353.033,198.254 C354.246,162.102 385.434,133.797 422.693,135.034 Z" id="Path" fill="#86B13E"></path>
                        <path d="M842.772,362.051 C888.58,363.583 924.471,402.186 922.936,448.275 C921.401,494.363 883.023,530.484 837.214,528.952 C791.407,527.421 755.516,488.817 757.051,442.729 C758.585,396.64 796.964,360.519 842.772,362.051 Z" id="Path" fill="#86B13E"></path>
                        <path d="M588.772,265.051 C634.58,266.583 670.471,305.186 668.936,351.275 C667.401,397.363 629.023,433.484 583.214,431.952 C537.407,430.421 501.516,391.817 503.051,345.729 C504.585,299.641 542.964,263.519 588.772,265.051 Z" id="Path" fill="#86B13E"></path>
                        <path d="M1131.772,380.052 C1177.58,381.582 1213.471,420.187 1211.936,466.275 C1210.401,512.363 1172.022,548.484 1126.215,546.953 C1080.406,545.421 1044.516,506.817 1046.051,460.729 C1047.585,414.64 1085.964,378.519 1131.772,380.052 L1131.772,380.052 Z" id="Path" fill="#86B13E"></path>
                        <path d="M1257.556,337.022 C1308.056,338.71 1347.622,381.259 1345.93,432.059 C1344.238,482.858 1301.928,522.669 1251.43,520.982 C1200.93,519.294 1161.364,476.745 1163.056,425.946 C1164.748,375.146 1207.057,335.334 1257.556,337.022 L1257.556,337.022 Z" id="Path" fill="#86B13E"></path>
                        <path d="M515.029,220.773 C570.747,227.803 610.364,277.641 603.516,332.09 C596.668,386.539 545.948,424.98 490.229,417.95 C434.511,410.92 394.894,361.08 401.742,306.631 C408.59,252.183 459.311,213.743 515.029,220.773 Z" id="Path" fill="#649621"></path>
                        <path d="M346.551,139.076 C418.161,148.12 469.077,212.234 460.275,282.279 C451.475,352.324 386.288,401.775 314.678,392.731 C243.068,383.687 192.153,319.573 200.954,249.528 C209.755,179.483 274.941,130.033 346.551,139.076 L346.551,139.076 Z" id="Path" fill="#649621"></path>
                        <path d="M654.803,336.603 C701.123,342.43 734.057,383.75 728.362,428.893 C722.667,474.037 680.5,505.91 634.18,500.083 C587.86,494.256 554.926,452.936 560.621,407.793 C566.316,362.649 608.483,330.776 654.803,336.603 Z" id="Path" fill="#649621"></path>
                        <path d="M1945.301,282.183 C1890.04,292.181 1853.141,344.096 1862.887,398.139 C1872.632,452.181 1925.331,487.886 1980.592,477.889 C2035.854,467.891 2072.752,415.976 2063.007,361.934 C2053.261,307.891 2000.563,272.186 1945.301,282.184 L1945.301,282.183 Z" id="Path" fill="#649621"></path>
                        <path d="M1707.301,281.183 C1652.04,291.181 1615.141,343.096 1624.887,397.139 C1634.632,451.181 1687.331,486.886 1742.592,476.889 C1797.854,466.891 1834.752,414.976 1825.007,360.933 C1815.261,306.891 1762.563,271.186 1707.301,281.183 Z" id="Path" fill="#649621"></path>
                        <path d="M1354.301,321.184 C1299.04,331.181 1262.141,383.096 1271.887,437.138 C1281.632,491.181 1334.331,526.887 1389.592,516.888 C1444.854,506.891 1481.752,454.976 1472.007,400.933 C1462.261,346.891 1409.563,311.186 1354.301,321.183 L1354.301,321.184 Z" id="Path" fill="#649621"></path>
                        <path d="M2115.305,137.162 C2044.282,150.02 1996.864,216.802 2009.392,286.325 C2021.92,355.847 2089.652,401.783 2160.674,388.925 C2231.696,376.067 2279.115,309.285 2266.587,239.762 C2254.058,170.24 2186.327,124.304 2115.305,137.162 L2115.305,137.162 Z" id="Path" fill="#649621"></path>
                        <path d="M192.196,0.802 C294.414,4.21 374.58,87.757 371.252,187.41 C367.924,287.063 282.362,365.084 180.145,361.676 C77.928,358.268 -2.238,274.721 1.09,175.07 C4.417,75.416 89.979,-2.606 192.196,0.802 Z" id="Path" fill="#A6CF4E"></path>
                        <path d="M351.327,215.682 C424.745,218.117 482.324,277.816 479.934,349.024 C477.544,420.231 416.089,475.982 342.671,473.547 C269.253,471.112 211.674,411.413 214.064,340.205 C216.454,268.998 277.909,213.247 351.327,215.682 L351.327,215.682 Z" id="Path" fill="#A6CF4E"></path>
                        <path d="M249.334791,253.076822 C322.752791,255.511822 380.331791,315.210822 377.941791,386.418822 C375.551791,457.625822 314.096791,513.376822 240.678791,510.941822 C167.260791,508.506822 109.681791,448.807822 112.071791,377.599822 C114.461791,306.392822 175.916791,250.641822 249.334791,253.076822 L249.334791,253.076822 Z" id="Path-Copy" fill="#A6CF4E"></path>
                        <path d="M481.919,369.334 C514.48,370.409 540.017,396.759 538.957,428.188 C537.897,459.618 510.641,484.225 478.08,483.15 C445.519,482.075 419.982,455.725 421.042,424.296 C422.102,392.866 449.358,368.259 481.919,369.334 Z" id="Path" fill="#A6CF4E"></path>
                        <path d="M782.919,369.313 C815.48,370.388 841.017,396.738 839.957,428.168 C838.897,459.598 811.641,484.205 779.08,483.13 C746.519,482.055 720.982,455.705 722.042,424.275 C723.102,392.846 750.358,368.239 782.919,369.313 Z" id="Path" fill="#A6CF4E"></path>
                        <path d="M1358.919,365.313 C1391.48,366.388 1417.017,392.738 1415.957,424.168 C1414.897,455.598 1387.641,480.204 1355.08,479.13 C1322.519,478.055 1296.982,451.705 1298.042,420.275 C1299.102,388.845 1326.358,364.239 1358.919,365.313 Z" id="Path" fill="#A6CF4E"></path>
                        <path d="M641.376,382.105 C749.566,385.71 834.417,474.101 830.895,579.532 C827.373,684.962 736.812,767.508 628.621,763.902 C520.431,760.297 435.581,671.906 439.102,566.475 C442.625,461.045 533.186,378.499 641.376,382.105 Z" id="Path" fill="#A6CF4E"></path>
                        <path d="M903.782,403.92 C984.925,406.617 1048.563,472.736 1045.922,551.601 C1043.28,630.466 975.359,692.211 894.216,689.515 C813.073,686.818 749.435,620.699 752.076,541.835 C754.718,462.969 822.639,401.224 903.782,403.921 L903.782,403.92 Z" id="Path" fill="#A6CF4E"></path>
                        <path d="M2338.32,8.802 C2236.102,12.21 2155.936,95.757 2159.264,195.41 C2162.592,295.062 2248.154,373.084 2350.371,369.676 C2452.588,366.268 2532.754,282.721 2529.426,183.069 C2526.098,83.416 2440.536,5.394 2338.319,8.802 L2338.32,8.802 Z" id="Path" fill="#A6CF4E"></path>
                        <path d="M2128.189,252.682 C2054.771,255.117 1997.192,314.816 1999.582,386.024 C2001.972,457.231 2063.427,512.982 2136.844,510.547 C2210.262,508.112 2267.841,448.413 2265.451,377.205 C2263.061,305.997 2201.606,250.247 2128.189,252.682 Z" id="Path" fill="#A6CF4E"></path>
                        <path d="M2339.67879,300.076823 C2266.26079,302.511823 2208.68179,362.210823 2211.07179,433.418823 C2213.46179,504.625823 2274.91679,560.376823 2348.33379,557.941823 C2421.75179,555.506823 2479.33079,495.807823 2476.94079,424.599823 C2474.55079,353.391823 2413.09579,297.641823 2339.67879,300.076823 Z" id="Path-Copy-2" fill="#A6CF4E"></path>
                        <path d="M1988.597,371.658 C1956.035,372.734 1930.499,399.106 1931.559,430.562 C1932.619,462.018 1959.874,486.647 1992.435,485.571 C2024.997,484.495 2050.533,458.123 2049.473,426.667 C2048.413,395.211 2021.158,370.582 1988.597,371.657 L1988.597,371.658 Z" id="Path" fill="#A6CF4E"></path>
                        <path d="M1056.421,398.268 C995.698,400.268 948.075,449.318 950.051,507.822 C952.028,566.327 1002.857,612.132 1063.581,610.132 C1124.304,608.13 1171.927,559.082 1169.951,500.577 C1167.973,442.072 1117.145,396.267 1056.421,398.267 L1056.421,398.268 Z" id="Path" fill="#A6CF4E"></path>
                        <path d="M1635.421,313.268 C1574.698,315.268 1527.075,364.318 1529.051,422.822 C1531.028,481.327 1581.857,527.132 1642.581,525.132 C1703.304,523.131 1750.927,474.082 1748.95,415.577 C1746.973,357.073 1696.144,311.267 1635.421,313.268 L1635.421,313.268 Z" id="Path" fill="#A6CF4E"></path>
                        <path d="M1478.421,343.268 C1417.698,345.268 1370.074,394.318 1372.051,452.822 C1374.028,511.327 1424.857,557.132 1485.581,555.132 C1546.304,553.131 1593.927,504.082 1591.95,445.577 C1589.973,387.072 1539.144,341.267 1478.421,343.267 L1478.421,343.268 Z" id="Path" fill="#A6CF4E"></path>
                        <path d="M1215.421,384.268 C1154.698,386.268 1107.075,435.318 1109.051,493.822 C1111.028,552.327 1161.857,598.132 1222.581,596.132 C1283.304,594.131 1330.927,545.082 1328.95,486.577 C1326.973,428.073 1276.144,382.267 1215.421,384.268 L1215.421,384.268 Z" id="Path" fill="#A6CF4E"></path>
                        <path d="M1810.995,339.093 C1734.551,341.651 1674.599,404.349 1677.088,479.133 C1679.576,553.917 1743.564,612.469 1820.008,609.912 C1896.451,607.354 1956.403,544.656 1953.914,469.872 C1951.426,395.088 1887.438,336.536 1810.994,339.093 L1810.995,339.093 Z" id="Path" fill="#A6CF4E"></path>
                    </g>
                </g>
            </g>
        </g>
    </g>
</svg>