<svg xmlns="http://www.w3.org/2000/svg" width="27" height="23" viewBox="0 0 27 23"><g><g><path fill="#fff" d="M12.325 6.353a.587.587 0 0 0-.514.411c-.069.228.01.473.2.62l4.362 3.537H1.12a.59.59 0 0 0-.465.189.571.571 0 0 0 .04.819.596.596 0 0 0 .425.15h15.254l-4.362 3.528a.57.57 0 0 0-.101.829.6.6 0 0 0 .849.067l5.634-4.56a.573.573 0 0 0 0-.895l-5.635-4.56a.596.596 0 0 0-.434-.135zM15.248.5C10.071.5 5.704 3.924 4.402 8.596a.576.576 0 0 0 .415.715c.152.04.314.02.45-.056a.585.585 0 0 0 .279-.351c1.163-4.176 5.056-7.246 9.702-7.246 5.566 0 10.071 4.399 10.071 9.842 0 5.443-4.505 9.842-10.07 9.842-4.647 0-8.54-3.08-9.703-7.255a.585.585 0 0 0-.278-.351.607.607 0 0 0-.45-.056.576.576 0 0 0-.415.715c1.3 4.672 5.668 8.105 10.845 8.105 6.201 0 11.252-4.929 11.252-11 0-6.07-5.05-11-11.252-11z"/></g></g></svg>