<svg xmlns="http://www.w3.org/2000/svg" width="62" height="64" viewBox="0 0 62 64"><g><g><path fill="#0091ff" d="M57.775 29.02H50.639a3.371 3.371 0 0 0-3.369 3.376v.366a3.373 3.373 0 0 0 3.372 3.378h7.133a3.381 3.381 0 0 0 3.378-3.378l-.004-.37a3.37 3.37 0 0 0-3.374-3.372z"/></g><g><path fill="#0091ff" d="M42.465 4.109h-9.027a.518.518 0 0 1-.519-.514c0-.289.235-.518.519-.518h9.027a.515.515 0 0 1 0 1.032zm-4.523 52.658a2.135 2.135 0 1 1 0 4.268 2.132 2.132 0 0 1-2.135-2.133 2.14 2.14 0 0 1 2.135-2.135zM57.782 20.6h-1.487V4.267A4.28 4.28 0 0 0 52.027 0h-28.16A4.28 4.28 0 0 0 19.6 4.267v11.718c-5.68 3.21-11.538 6.565-11.55 6.573C4.87 23.867.21 28.09.21 38.062c0 .89.059 1.713.14 2.507.027.232.056.456.087.68.082.584.185 1.142.308 1.672.044.189.078.386.126.567.165.613.356 1.189.57 1.736.108.271.226.518.344.772.126.268.253.531.39.777.157.297.315.582.488.854.041.063.086.12.129.185 4.106 6.208 11.683 6.236 11.683 6.236H19.6v4.848a4.279 4.279 0 0 0 4.267 4.265h28.159a4.28 4.28 0 0 0 4.268-4.265v-5.914h.65v-.004h.83c1.868 0 3.381-1.51 3.378-3.376l.003-.368a3.375 3.375 0 0 0-3.377-3.37H50.64a3.368 3.368 0 0 0-3.37 3.373v.374a3.376 3.376 0 0 0 3.373 3.374h2.68v2.284H22.57v-30.64c1.545-.98 2.975-1.923 3.79-2.554 4.134-3.197 8.057-5.742 8.588-8.05.691-2.996-1.608-5.52-5.597-3.448-1.257.653-3.836 2.083-6.781 3.737V6.762l30.756.005v13.83h-1.842v.004h-.837a3.377 3.377 0 0 0-3.379 3.377v.366a3.372 3.372 0 0 0 3.374 3.373h7.138a3.372 3.372 0 0 0 3.373-3.373v-.376a3.368 3.368 0 0 0-3.37-3.369z"/></g><g><path fill="#0091ff" d="M57.78 37.44h-7.136a3.378 3.378 0 0 0-3.374 3.377v.37a3.372 3.372 0 0 0 3.374 3.373H57.778a3.376 3.376 0 0 0 3.376-3.374v-.37a3.374 3.374 0 0 0-3.374-3.376z"/></g></g></svg>