<svg xmlns="http://www.w3.org/2000/svg" width="38" height="64" viewBox="0 0 38 64"><g><g><path fill="#0091ff" d="M25.245 44.45H13.163V32.464h12.082zm-3.198-24.555V17.36h-5.702v2.535h-5.168V46.5h16.038V19.895zM34.78 56H3.618V6.855h31.163zm-15.582 5.849a2.165 2.165 0 0 1-2.161-2.169 2.162 2.162 0 1 1 4.323 0c0 1.2-.97 2.169-2.162 2.169zM14.636 3.114h9.137a.522.522 0 1 1 0 1.042h-9.137a.522.522 0 1 1 0-1.042zM33.466 0H4.933A4.335 4.335 0 0 0 .61 4.323v55.352a4.336 4.336 0 0 0 4.323 4.323h28.533a4.334 4.334 0 0 0 4.323-4.323V4.323A4.335 4.335 0 0 0 33.466 0z"/></g></g></svg>