<?xml version="1.0" encoding="UTF-8"?>
<svg width="43px" height="44px" viewBox="0 0 43 44" version="1.1" xmlns="http://www.w3.org/2000/svg" xmlns:xlink="http://www.w3.org/1999/xlink">
    <!-- Generator: Sketch 61 (89581) - https://sketch.com -->
    <title>Group 43</title>
    <desc>Created with Sketch.</desc>
    <g id="Design" stroke="none" stroke-width="1" fill="none" fill-rule="evenodd">
        <g id="AF_logo-" transform="translate(-84.000000, -16.000000)" fill="#1B1B1B">
            <g id="Group">
                <g transform="translate(68.000000, 0.000000)" id="Group-43">
                    <g transform="translate(16.000000, 16.000000)">
                        <g transform="translate(0.250000, 0.740000)">
                            <path d="M42.74,21.37 C42.74,33.1723251 33.1723251,42.74 21.37,42.74 C9.5676749,42.74 -1.13686838e-13,33.1723251 -1.13686838e-13,21.37 C-1.13686838e-13,9.5676749 9.5676749,-1.0658141e-13 21.37,-1.0658141e-13 C33.1723251,-1.0658141e-13 42.74,9.5676749 42.74,21.37 Z M21.37,1.87999742 L21.37,1.87999742 C13.4861221,1.87595491 6.37629237,6.62197544 3.35645962,13.9045682 C0.336626864,21.187161 2.00163929,29.5717971 7.57495285,35.1479717 C13.1482664,40.7241463 21.5320469,42.3934616 28.8161886,39.3773668 C36.1003302,36.361272 40.85,29.2538789 40.85,21.37 C40.838976,10.6160627 32.1239373,1.90102403 21.37,1.89 L21.37,1.87999742 Z" id="Shape"></path>
                            <path d="M14.76,12.83 C14.0930109,13.1693122 13.519552,13.6672257 13.09,14.28 C12.35,15.28 12.67,15.78 13.29,16.57 C14.21,17.75 15.1133333,18.94 16,20.14 C17.12,21.65 16.68,21.75 14.92,24.06 C14.45,24.68 14.03,25.16 13.58,25.81 C12.87,26.81 11.71,27.72 14.3,29.67 C15.6,30.67 16.3,29.67 18.3,28.15 C18.92,27.68 19.49,27.27 20.13,26.78 C21.64,25.63 21.8,26.1 24.06,27.85 C24.64,28.3 25.2,28.72 25.82,29.18 C26.44,29.64 27.08,30.43 28.05,29.95 C28.6534299,29.5387764 29.2012851,29.0514205 29.68,28.5 C30.34,27.62 30.01,26.96 29.48,26.23 C28.55,24.97 27.7,23.85 26.77,22.65 C25.51,21.01 26.35,20.79 27.84,18.72 C28.9,17.24 30.41,15.89 30.01,14.72 C29.6971486,14.0412954 29.1977202,13.4655654 28.57,13.06 C27.5,12.4 27,12.72 26.21,13.33 C25.58,13.81 25.07,14.15 24.45,14.65 C21.11,17.3 21.84,17.49 16.97,13.65 C16.4,13.14 15.72,12.37 14.76,12.83 Z" id="Path"></path>
                        </g>
                    </g>
                </g>
            </g>
        </g>
    </g>
</svg>