<svg xmlns="http://www.w3.org/2000/svg" width="248" height="142" viewBox="0 0 248 142"><g><g opacity=".02"><path d="M255.825 185.072l-59.372-59.33c-2.692-2.69-6.281-4.17-10.107-4.17-1.618 0-3.188.28-4.67.789l-14.239-14.228a11.208 11.208 0 0 0-7.978-3.294c-3.02 0-5.853 1.17-7.978 3.293l-3.744 3.742-6.698-6.693 29.309-29.442c6.849 2.968 14.292 4.387 21.982 4.387h.005c14.756 0 28.631-5.59 39.068-16.019 13.983-13.972 19.438-34.434 14.236-53.523-.647-2.374-2.878-4.06-5.306-4.06-1.044 0-2.597.327-4.054 1.783-.2.197-19.942 19.785-26.466 26.305-.719.718-1.904.83-2.595.83-.496 0-.769-.052-.769-.052v.002l-.446-.051c-8.11-.745-17.839-2.243-20.294-3.375-1.17-2.472-2.578-12.427-3.33-20.662v-.11l-.176-.232c-.043-.364-.233-2.223 1.402-3.857 6.79-6.786 25.459-25.61 25.636-25.79 1.58-1.577 2.181-3.562 1.679-5.445-.602-2.258-2.524-3.523-4.114-3.952A55.55 55.55 0 0 0 192.33-30c-14.758 0-28.634 5.743-39.07 16.17-16.473 16.462-20.335 40.811-11.617 60.99L112.31 76.47 62.122 26.32c-.031-.032-.065-.057-.097-.087.474-1.93.683-3.934.595-5.974-.247-5.81-2.8-11.425-7.189-15.81L37.57-13.401c-.39-.39-2.496-2.337-5.615-2.337-1.45 0-3.613.438-5.702 2.525L6.677 6.349c-2.272 2.271-3.082 5.189-2.221 8.007.576 1.888 1.698 3.11 2.028 3.44L24.28 35.58c4.648 4.644 10.594 7.202 16.743 7.202 1.721 0 3.415-.211 5.056-.615.031.032.057.065.088.096l50.187 50.152-23.838 23.821a20.465 20.465 0 0 0-2.803 3.499 55.134 55.134 0 0 0-22.467-4.756c-14.76 0-28.636 5.744-39.073 16.173-13.982 13.973-19.437 34.512-14.236 53.6.646 2.374 2.877 4.098 5.305 4.098 1.045 0 2.598-.308 4.055-1.764.199-.197 19.942-19.775 26.467-26.295.718-.718 1.985-.825 2.675-.825.497 0 .846.054.852.054h-.001l.366.052c8.108.743 17.912 2.242 20.368 3.374 1.17 2.473 2.689 12.428 3.425 20.663l.053.377c.004.02.272 2.083-1.468 3.823-6.792 6.786-25.49 25.61-25.668 25.79-1.58 1.577-2.196 3.563-1.694 5.446.604 2.257 2.517 3.521 4.106 3.95a55.496 55.496 0 0 0 14.475 1.92c14.758 0 28.632-5.743 39.067-16.17 10.437-10.43 16.185-24.297 16.184-39.047 0-7.866-1.65-15.473-4.758-22.45a20.417 20.417 0 0 0 3.5-2.8l23.84-23.823 6.697 6.693-3.745 3.742a11.19 11.19 0 0 0-3.296 7.972c0 3.018 1.17 5.85 3.296 7.973l14.238 14.228a14.339 14.339 0 0 0-.79 4.667c0 3.823 1.483 7.41 4.174 10.099l59.373 59.33c2.69 2.69 6.28 4.171 10.106 4.171 3.825 0 7.414-1.482 10.105-4.17l30.583-30.562A14.177 14.177 0 0 0 260 195.169c-.002-3.82-1.483-7.407-4.175-10.097z"/></g></g></svg>