<?xml version="1.0" encoding="UTF-8"?>
<svg width="56px" height="56px" viewBox="0 0 56 56" version="1.1" xmlns="http://www.w3.org/2000/svg" xmlns:xlink="http://www.w3.org/1999/xlink">
    <!-- Generator: Sketch 61 (89581) - https://sketch.com -->
    <title>telephone</title>
    <desc>Created with Sketch.</desc>
    <g id="Wireframes" stroke="none" stroke-width="1" fill="none" fill-rule="evenodd">
        <g id="01-Home-Page" transform="translate(-307.000000, -1758.000000)" fill="#0091FF" fill-rule="nonzero">
            <g id="Group-14" transform="translate(165.000000, 1597.000000)">
                <g id="Group-12" transform="translate(0.000000, 118.000000)">
                    <g id="Group-9">
                        <g id="Group-8" transform="translate(99.000000, 0.000000)">
                            <g id="telephone" transform="translate(43.000000, 43.000000)">
                                <path d="M42.5360166,37.0112266 C40.708158,35.2066528 38.4262453,35.2066528 36.6100291,37.0112266 C35.2245821,38.3850312 33.8391351,39.7588358 32.476973,41.1559252 C32.1044158,41.5401247 31.7900707,41.6216216 31.3360166,41.3654886 C30.4395509,40.8765073 29.4848732,40.4806653 28.6233347,39.9451143 C24.6067027,37.418711 21.2420457,34.1704782 18.2615884,30.5147609 C16.7830021,28.6985447 15.4674096,26.754262 14.547659,24.5654886 C14.3613805,24.1230769 14.3963077,23.8320166 14.7572225,23.4711019 C16.1426694,22.1322245 17.4931892,20.75842 18.8553514,19.3846154 C20.7530644,17.4752599 20.7530644,15.2399168 18.8437089,13.3189189 C17.7609647,12.2245322 16.6782204,11.1534304 15.5954761,10.0590437 C14.4778046,8.94137214 13.3717755,7.81205821 12.2424615,6.70602911 C10.4146029,4.92474012 8.13269023,4.92474012 6.31647401,6.71767152 C4.91938462,8.09147609 3.58050728,9.5002079 2.16013306,10.8507277 C0.844540541,12.0964657 0.180923077,13.6216216 0.0412141372,15.4029106 C-0.179991684,18.3018711 0.530195426,21.0378378 1.53144283,23.7039501 C3.58050728,29.2224532 6.7006736,34.1239085 10.4844574,38.6178794 C15.5954761,44.6952183 21.6960998,49.5035343 28.8328981,52.972973 C32.0462037,54.5330561 35.3759335,55.7322245 38.9967235,55.9301455 C41.4881996,56.0698545 43.6536881,55.4411642 45.3884075,53.4968815 C46.5759335,52.1696466 47.9148108,50.9588358 49.1721913,49.6898129 C51.0349771,47.8037422 51.0466195,45.5218295 49.1954761,43.6590437 C46.9834179,41.435343 44.7597173,39.2232848 42.5360166,37.0112266 Z" id="Path"></path>
                                <path d="M40.312316,27.7322245 L44.6083659,26.9987526 C43.933106,23.0519751 42.0703202,19.4777547 39.2412141,16.6370062 C36.2491143,13.6449064 32.4653306,11.7588358 28.2973472,11.1767152 L27.6919418,15.4960499 C30.9168898,15.950104 33.8507775,17.4054054 36.1676175,19.7222453 C38.3563909,21.9110187 39.7884075,24.6819127 40.312316,27.7322245 Z" id="Path"></path>
                                <path d="M47.0299875,9.05779626 C42.0703202,4.0981289 35.7950603,0.966320166 28.8678254,0 L28.26242,4.31933472 C34.2466195,5.15758836 39.6719834,7.87027027 43.9563909,12.1430353 C48.0195925,16.206237 50.6857048,21.3405405 51.6520249,26.9871102 L55.9480748,26.2536383 C54.8187609,19.7106029 51.7335218,13.772973 47.0299875,9.05779626 Z" id="Path"></path>
                            </g>
                        </g>
                    </g>
                </g>
            </g>
        </g>
    </g>
</svg>