<?xml version="1.0" encoding="UTF-8"?>
<svg width="31px" height="56px" viewBox="0 0 31 56" version="1.1" xmlns="http://www.w3.org/2000/svg" xmlns:xlink="http://www.w3.org/1999/xlink">
    <!-- Generator: Sketch 61 (89581) - https://sketch.com -->
    <title>relaxing-walk</title>
    <desc>Created with Sketch.</desc>
    <g id="Wireframes" stroke="none" stroke-width="1" fill="none" fill-rule="evenodd" fill-opacity="0.85">
        <g id="01-Home-Page" transform="translate(-1090.000000, -1758.000000)" fill="#000000" fill-rule="nonzero">
            <g id="Group-14" transform="translate(165.000000, 1597.000000)">
                <g id="Group-12" transform="translate(0.000000, 118.000000)">
                    <g id="Group-11" transform="translate(770.000000, 0.000000)">
                        <g id="relaxing-walk" transform="translate(155.000000, 43.000000)">
                            <circle id="Oval" cx="14.450625" cy="5.369" r="5.369"></circle>
                            <path d="M29.224125,24.023125 C24.80275,21.46375 21.175,18.006625 18.12125,13.939625 C16.202375,11.241125 11.129125,11.382 9.067625,13.85475 C5.931625,16.905875 3.27075,20.050625 1.16025,23.197125 C0.2975,24.486 0.6405,26.229875 1.9285,27.092625 C2.408875,27.414625 2.9505,27.568625 3.488625,27.568625 C4.393375,27.568625 5.282375,27.132 5.823125,26.3235 C6.74975,24.943625 7.800625,23.559375 8.964375,22.18125 C8.91975,25.097625 9.065875,30.359875 9.139375,32.725 C9.163875,33.5125 8.9845,34.2825 8.61875,34.981625 C5.72425,40.509 3.87275,45.738875 1.99325,52.136875 C1.533,53.69875 2.428125,55.337625 3.989125,55.797 C4.342625,55.901125 4.699625,55.936125 5.044375,55.909875 C6.232625,55.818875 7.294875,55.0095 7.650125,53.80025 C9.384375,47.901 11.06,43.124375 13.673625,38.066875 C13.806625,38.072125 13.939625,38.072125 14.074375,38.066 C15.743,43.04475 17.4125,48.026125 19.08375,53.004875 C20.297375,56.6335 25.928,54.74875 24.710875,51.11925 C22.88475,45.675875 21.06125,40.235125 19.24125,34.792625 C19.135375,34.48025 18.879,33.257 18.843125,32.858 C18.542125,29.505 18.43275,26.1625 18.465125,22.815625 C21.027125,25.27 23.86825,27.398875 27.024375,29.227625 C30.17175,31.054625 32.3295,25.823 29.224125,24.023125 Z" id="Path"></path>
                        </g>
                    </g>
                </g>
            </g>
        </g>
    </g>
</svg>