<svg xmlns="http://www.w3.org/2000/svg" width="50" height="50" viewBox="0 0 50 50"><g><g><path d="M25 49c13.255 0 24-10.745 24-24S38.255 1 25 1 1 11.745 1 25s10.745 24 24 24z"/><path fill="none" stroke="#fa333c" stroke-miterlimit="50" d="M25 49c13.255 0 24-10.745 24-24S38.255 1 25 1 1 11.745 1 25s10.745 24 24 24z"/></g><g><g><path fill="#fff" d="M11.646 29.205c.163 0 .29.054.38.163.091.11.137.245.137.406a.624.624 0 0 1-.137.413.467.467 0 0 1-.38.164h-.365v-1.146zm.663 1.252c.167-.164.25-.39.25-.675 0-.287-.082-.514-.245-.68-.16-.168-.384-.252-.67-.252H10.9v1.856h.728c.29 0 .517-.083.681-.249z"/></g><g><path fill="#fff" d="M14.889 30.706H13.6V28.85h1.289v.347h-.906v.399h.839v.346h-.839v.417h.905z"/></g><g><path fill="#fff" d="M16.691 30.133l.499-1.283h.432l-.78 1.856h-.303l-.789-1.856h.44z"/></g><g><path fill="#fff" d="M19.858 30.706H18.57V28.85h1.288v.347h-.905v.399h.838v.346h-.838v.417h.905z"/></g><g><path fill="#fff" d="M22.267 30.706H20.92V28.85h.383v1.5h.964z"/></g><g><path fill="#fff" d="M24.446 30.185a.58.58 0 0 1-.421.167.579.579 0 0 1-.42-.167.565.565 0 0 1-.169-.418.578.578 0 0 1 .589-.59.577.577 0 0 1 .59.59.553.553 0 0 1-.169.418zm.286.265a.908.908 0 0 0 .288-.678.916.916 0 0 0-.288-.68.961.961 0 0 0-.702-.282.97.97 0 0 0-.704.281.925.925 0 0 0-.286.686.91.91 0 0 0 .283.678.968.968 0 0 0 .705.273c.279 0 .514-.092.704-.278z"/></g><g><path fill="#fff" d="M26.433 29.192h.324c.083 0 .15.026.199.078.05.052.076.117.076.194a.277.277 0 0 1-.08.203c-.05.051-.122.077-.216.077h-.303zm-.383 1.514h.38v-.64h.294c.233 0 .408-.058.524-.171a.588.588 0 0 0 .175-.432.6.6 0 0 0-.17-.435c-.111-.119-.278-.178-.501-.178h-.702z"/></g><g><path fill="#fff" d="M28.796 30.706h-.376V28.85h.252l.746 1.052.738-1.052h.257v1.856h-.38v-1.052l-.553.775h-.132l-.552-.775z"/></g><g><path fill="#fff" d="M32.839 30.706H31.55V28.85h1.289v.347h-.906v.399h.839v.346h-.839v.417h.905z"/></g><g><path fill="#fff" d="M35.155 29.998V28.85h.375v1.856h-.26l-.984-1.138v1.138h-.376V28.85h.242z"/></g><g><path fill="#fff" d="M37.043 30.706v-1.497H36.5v-.359h1.47v.36h-.542v1.496z"/></g><g><path fill="#fff" d="M12.595 26.929c-.515 0-.991-.108-1.429-.322a2.669 2.669 0 0 1-1.056-.912l.754-.92c.438.614 1.018.92 1.74.92.272 0 .497-.065.674-.196a.606.606 0 0 0 .266-.51c0-.274-.198-.503-.594-.688a15.26 15.26 0 0 0-.648-.259 6.46 6.46 0 0 1-.772-.357c-.692-.4-1.038-.948-1.038-1.645 0-.554.207-1.012.62-1.376.42-.37.959-.554 1.616-.554.852 0 1.57.298 2.156.894l-.701.965c-.177-.19-.4-.34-.665-.447a1.926 1.926 0 0 0-.773-.17c-.26 0-.467.06-.62.179a.545.545 0 0 0-.223.456c0 .256.178.473.533.652l.648.286c.367.155.633.271.799.349.745.363 1.118.911 1.118 1.644a1.81 1.81 0 0 1-.666 1.448c-.444.375-1.023.563-1.74.563z"/></g><g><path fill="#fff" d="M17.813 21.446h1.127c.29 0 .521.09.693.269a.915.915 0 0 1 .266.671c0 .28-.092.513-.275.698-.178.18-.43.269-.755.269h-1.056zM16.5 26.824h1.313v-2.279h1.012c.805 0 1.408-.202 1.81-.607.403-.417.604-.93.604-1.537 0-.614-.195-1.13-.586-1.547-.385-.423-.961-.634-1.73-.634H16.5z"/></g><g><path fill="#fff" d="M27.26 26.824h-4.65V20.22h1.322v5.335h3.328z"/></g><g><path fill="#ff4141" d="M28.56 26.824l1.975-6.604h1.48l-1.974 6.604z"/></g><g><path fill="#fff" d="M35.422 26.824v-5.326H33.55V20.22h5.076v1.278h-1.873v5.326z"/></g></g></g></svg>