<svg xmlns="http://www.w3.org/2000/svg" width="146" height="217" viewBox="0 0 146 217"><g><g><g/><g><path fill="none" stroke="#d11742" stroke-linecap="round" stroke-linejoin="round" stroke-miterlimit="50" stroke-width="5" d="M4051.529 102.698c0-17.138 13.893-31.03 31.032-31.03 17.138 0 31.031 13.892 31.031 31.03v4.176l-9.177 32.93v0l-14.442 14.104v0s-3.896 2.523-7.412 2.523c-3.472 0-6.58-1.559-8.662-4.015l-12.912-12.612v0l-9.177-32.93v0s-.28-1.907-.28-4.176z"/></g><g><path fill="none" stroke="#d11742" stroke-linecap="round" stroke-linejoin="round" stroke-miterlimit="50" stroke-width="5" d="M4052.345 111.314s-9.646 5.708 2.98 11.935"/></g><g><path fill="none" stroke="#d11742" stroke-linecap="round" stroke-linejoin="round" stroke-miterlimit="50" stroke-width="5" d="M4113.1 111.314s9.646 5.708-2.979 11.935"/></g><g><path fill="none" stroke="#d11742" stroke-linecap="round" stroke-linejoin="round" stroke-miterlimit="50" stroke-width="5" d="M4070.778 149.738c-2.136 6.625-5.543 11.887-12.499 11.887h.94v0h-19.25c-6.957 0-10.459 5.263-12.596 11.887l-5.855 17.793v0"/></g><g><path fill="none" stroke="#d11742" stroke-linecap="round" stroke-linejoin="round" stroke-miterlimit="50" stroke-width="5" d="M4094.343 149.738c2.136 6.625 5.543 11.887 12.499 11.887h-.939v0h19.25c6.956 0 10.458 5.263 12.595 11.887l5.855 17.793v0"/></g><g><g><path fill="none" stroke="#d11742" stroke-linecap="round" stroke-linejoin="round" stroke-miterlimit="50" stroke-width="5" d="M4157.885 109.74v0l-4.783 3.98v0l5.642 2.622v0l-5.11 3.55v0l5.395 3.099v0l-6.069 10.299v0l2.886 11.602v0l-8.772 8.121v0l-.577 11.94v0"/></g></g><g><g><path fill="none" stroke="#d11742" stroke-linecap="round" stroke-linejoin="round" stroke-miterlimit="50" stroke-width="5" d="M4019.07 74.103v0l20.749-3.331v0l7.35-19.688v0l20.085 6.17v0l15.307-14.391v0l19.483 15.502v0l24.808-2.158v0l7.65 23.704v0l21.887 11.889v0"/></g></g><g><g><path fill="none" stroke="#d11742" stroke-linecap="round" stroke-linejoin="round" stroke-miterlimit="50" stroke-width="5" d="M4018.166 166.415v0l1.241-13.314v0l-11.134-7.404v0l5.1-12.362v0l-8.473-10.344v0l8.27-8.858v0l-5.8-10.642v0L4017.602 97v0l-2.924-11.76v0"/></g></g><g><g><path fill="none" stroke="#d11742" stroke-linecap="round" stroke-linejoin="round" stroke-miterlimit="50" stroke-width="5" d="M4148.673 43.928v0l6.404 23.277v0l20.87 12.139v0l-4.059 23.796v0l13.733 19.851v0l-12.11 9.968v0l9.688 12.336v0l-13.981 7.108v0l6.77 14.149v0"/></g></g><g><g><path fill="none" stroke="#d11742" stroke-linecap="round" stroke-linejoin="round" stroke-miterlimit="50" stroke-width="5" d="M4023.838 39.329v0l17.808.858v0l10.12-14.68v0l16.713 6.21v0l14.082-10.932v0l10.495 10.455v0l12.57-7.84v0l7.863 12.556v0l14.021-4.78v0"/></g></g><g><g><path fill="none" stroke="#d11742" stroke-linecap="round" stroke-linejoin="round" stroke-miterlimit="50" stroke-width="5" d="M3989.541 166.362v0l5.937-13.814v0l-13.117-7.35v0l8.803-12.19v0l-11.214-10.017v0l12.23-16.936v0l-5.298-20.21v0l17.55-11.337v0l2.397-20.754v0"/></g></g><g><g><path fill="none" stroke="#d11742" stroke-linecap="round" stroke-linejoin="round" stroke-miterlimit="50" stroke-width="5" d="M4037.682 146.05v0l.62-6.657v0l-5.567-3.702v0l2.55-6.18v0l-4.236-5.173v0l4.134-4.429v0l-2.9-5.32v0l5.117-3.247v0l-1.462-5.88v0"/></g></g><g><g><path fill="none" stroke="#d11742" stroke-linecap="round" stroke-linejoin="round" stroke-miterlimit="50" stroke-width="5" d="M4123.74 143.89v0l6.055-2.834v0l-1.602-6.49v0l4.954-4.49v0l-3.435-5.738v0l3.549-4.912v0l-4.661-3.872v0l2.198-5.646v0l-5.488-2.568v0"/></g></g></g><g><g><path fill="none" stroke="#d11742" stroke-linecap="round" stroke-linejoin="round" stroke-miterlimit="50" stroke-width="5" d="M9.967 214.024L143.093 3"/></g><g><g><path fill="none" stroke="#d11742" stroke-linecap="round" stroke-linejoin="round" stroke-miterlimit="50" stroke-width="5" d="M62.965 162.38c-29.006-7.298-46.604-36.728-39.307-65.734C30.956 67.64 60.386 50.042 89.392 57.34c29.005 7.298 46.603 36.727 39.306 65.733-7.298 29.006-36.727 46.604-65.733 39.306z"/></g><g><path fill="none" stroke="#d11742" stroke-linecap="round" stroke-linejoin="round" stroke-miterlimit="50" stroke-width="5" d="M55.577 82.63c15.04-11.379 36.454-8.41 47.831 6.628 11.38 15.04 8.41 36.454-6.629 47.832s-36.454 8.41-47.832-6.629-8.409-36.454 6.63-47.832z"/></g><g><path fill="none" stroke="#d11742" stroke-linecap="round" stroke-linejoin="round" stroke-miterlimit="50" stroke-width="5" d="M151.871 110.872v0l-6.669.006c-.774 18.075-2.26 39.251-3.26 59.56-.15 3.02 2.222 5.673 5.596 5.673 3.373 0 5.746-2.653 5.597-5.673-.999-20.307-.574-41.492-1.264-59.566l4.585-66.356c.091-1.327-.538-2.519-1.7-3.167-1.162-.649-2.516-.572-3.587.216-14.115 10.372-8.764 50.55-6.659 64.53-2.105-13.98-7.456-54.158 6.66-64.53 1.07-.788 2.424-.865 3.586-.216 1.162.648 1.791 1.84 1.7 3.167l-4.585 66.356c.69 18.074.265 39.26 1.264 59.566.15 3.02-2.224 5.673-5.597 5.673-3.374 0-5.746-2.653-5.597-5.673 1-20.309 2.487-41.485 3.261-59.56z"/></g><g><path fill="none" stroke="#d11742" stroke-linecap="round" stroke-linejoin="round" stroke-miterlimit="50" stroke-width="5" d="M-1.917 44.906v0l-1.48 31.852c-.15 3.226 1.9 8.58 4.061 12.063 1.905 3.073 2.668 5.903 2.531 9.283-.976 24.05-2.188 48.182-3.374 72.253-.15 3.065 2.256 5.754 5.678 5.754 3.423 0 5.83-2.689 5.678-5.754-1.186-24.07-2.397-48.2-3.373-72.253-.137-3.382.624-6.21 2.531-9.283 2.161-3.484 4.21-8.837 4.06-12.063l-1.48-31.852v0l1.48 31.852c.15 3.226-1.899 8.58-4.06 12.063-1.907 3.073-2.668 5.901-2.53 9.283.975 24.052 2.186 48.182 3.372 72.253.151 3.065-2.255 5.754-5.678 5.754-3.422 0-5.828-2.689-5.678-5.754 1.186-24.07 2.398-48.203 3.374-72.253.137-3.38-.626-6.21-2.53-9.283-2.163-3.484-4.212-8.837-4.062-12.063z"/></g><g><path fill="none" stroke="#d11742" stroke-linecap="round" stroke-linejoin="round" stroke-miterlimit="50" stroke-width="5" d="M7.972 44.906V72.49"/></g><g><path fill="none" stroke="#d11742" stroke-linecap="round" stroke-linejoin="round" stroke-miterlimit="50" stroke-width="5" d="M3.027 44.906V72.49"/></g></g></g></g></svg>