<?xml version="1.0" encoding="UTF-8"?>
<svg width="699px" height="424px" viewBox="0 0 699 424" version="1.1" xmlns="http://www.w3.org/2000/svg" xmlns:xlink="http://www.w3.org/1999/xlink">
    <!-- Generator: Sketch 59 (86127) - https://sketch.com -->
    <title>bg</title>
    <desc>Created with Sketch.</desc>
    <g id="Wireframes" stroke="none" stroke-width="1" fill="none" fill-rule="evenodd" opacity="0.0430385045">
        <g id="portfolio" transform="translate(-437.000000, -179.000000)" fill="#2E3032">
            <g id="Banner">
                <g id="bg" transform="translate(786.500000, 391.000000) scale(-1, 1) translate(-786.500000, -391.000000) translate(437.500000, 179.500000)">
                    <polyline id="Fill-3" points="616.532532 296.667955 616.676588 296.74859 616.532532 296.833583 616.532532 296.667955"></polyline>
                    <polyline id="Fill-4" points="592.942951 296.7475 593.702521 296.315995 593.702521 297.185544 592.942951 296.7475"></polyline>
                    <polyline id="Fill-5" points="626.190124 277.134708 627.390593 276.446043 627.390593 277.827732 626.190124 277.134708"></polyline>
                    <polyline id="Fill-6" points="582.045603 276.773667 584.228274 277.86191 582.045603 278.952987 582.045603 276.773667"></polyline>
                    <polyline id="Fill-7" points="560.422245 317.091091 560.743097 316.905849 560.743097 317.276333 560.422245 317.091091"></polyline>
                    <polyline id="Fill-8" points="616.240782 257.159785 618.423453 258.248849 616.240782 259.339106 616.240782 257.159785"></polyline>
                    <polyline id="Fill-9" points="591.503844 258.612059 594.414072 257.159785 594.414072 260.065546 591.503844 258.612059"></polyline>
                    <polyline id="Fill-10" points="557.308664 277.499392 559.491336 276.047227 559.491336 278.952987 557.308664 277.499392"></polyline>
                    <polyline id="Fill-11" points="547.850423 295.661109 550.033094 296.749128 547.850423 297.840429 547.850423 295.661109"></polyline>
                    <polyline id="Fill-12" points="650.618578 276.924404 650.980901 277.137977 650.618578 277.349371 650.618578 276.924404"></polyline>
                    <polyline id="Fill-13" points="649.708404 236.819463 651.891075 238.273122 649.708404 239.725224 649.708404 236.819463"></polyline>
                    <polyline id="Fill-14" points="624.971466 238.997978 627.881694 236.819463 627.881694 241.178104 624.971466 238.997978"></polyline>
                    <polyline id="Fill-15" points="579.862932 235.366583 585.683388 238.273043 579.862932 241.178104 579.862932 235.366583"></polyline>
                    <polyline id="Fill-16" points="555.125993 238.2716 560.94645 234.640143 560.94645 241.904544 555.125993 238.2716"></polyline>
                    <polyline id="Fill-17" points="546.395309 255.706905 551.488208 258.611883 546.395309 261.518426 546.395309 255.706905"></polyline>
                    <polyline id="Fill-18" points="523.841042 296.387549 526.75127 294.934669 526.75127 297.840429 523.841042 296.387549"></polyline>
                    <polyline id="Fill-19" points="513.655244 316.001431 515.837915 317.089767 513.655244 318.180751 513.655244 316.001431"></polyline>
                    <polyline id="Fill-20" points="525.41875 336.707152 525.90112 336.42602 525.90112 336.983926 525.41875 336.707152"></polyline>
                    <polyline id="Fill-21" points="661.182705 258.974796 662.243484 258.366766 662.243484 259.585006 661.182705 258.974796"></polyline>
                    <polyline id="Fill-22" points="659.166645 219.386716 662.076873 217.205581 662.076873 221.564222 659.166645 219.386716"></polyline>
                    <polyline id="Fill-23" points="614.058111 216.479141 619.878567 219.384902 614.058111 222.290662 614.058111 216.479141"></polyline>
                    <polyline id="Fill-24" points="588.593616 219.747389 595.869186 215.752701 595.869186 223.743542 588.593616 219.747389"></polyline>
                    <polyline id="Fill-25" points="545.667752 213.573381 555.125993 218.659904 545.667752 223.743542 545.667752 213.573381"></polyline>
                    <polyline id="Fill-26" points="522.385928 258.610267 528.206384 254.980465 528.206384 262.244866 522.385928 258.610267"></polyline>
                    <polyline id="Fill-27" points="512.927687 275.320787 518.020586 278.227326 512.927687 281.132308 512.927687 275.320787"></polyline>
                    <polyline id="Fill-28" points="491.100977 315.997502 494.011205 313.822111 494.011205 318.180751 491.100977 315.997502"></polyline>
                    <polyline id="Fill-29" points="684.25754 258.963899 684.277184 258.974796 684.25754 258.987872 684.25754 258.963899"></polyline>
                    <polyline id="Fill-30" points="648.980847 197.591699 654.073746 200.49819 648.980847 203.40322 648.980847 197.591699"></polyline>
                    <polyline id="Fill-31" points="622.061238 199.409315 629.336808 195.412379 629.336808 203.40322 622.061238 199.409315"></polyline>
                    <polyline id="Fill-32" points="579.862932 194.685939 589.321173 200.135723 579.862932 205.58254 579.862932 194.685939"></polyline>
                    <polyline id="Fill-33" points="552.943322 200.49746 563.129121 194.685939 563.129121 206.30898 552.943322 200.49746"></polyline>
                    <polyline id="Fill-34" points="519.4757 218.658462 529.661498 212.846941 529.661498 224.469982 519.4757 218.658462"></polyline>
                    <polyline id="Fill-35" points="511.472573 233.187263 520.930814 238.273102 511.472573 243.357424 511.472573 233.187263"></polyline>
                    <polyline id="Fill-36" points="488.190749 277.498648 494.011205 273.867907 494.011205 281.132308 488.190749 277.498648"></polyline>
                    <polyline id="Fill-37" points="478.732508 294.208229 484.552964 297.837321 478.732508 301.47263 478.732508 294.208229"></polyline>
                    <polyline id="Fill-38" points="480.187622 334.162433 483.09785 336.342638 480.187622 338.521073 480.187622 334.162433"></polyline>
                    <polyline id="Fill-39" points="491.430561 356.322124 492.954065 355.441679 492.954065 357.196031 491.430561 356.322124"></polyline>
                    <polyline id="Fill-40" points="694.838037 238.635564 695.523396 238.238927 695.523396 239.0322 694.838037 238.635564"></polyline>
                    <polyline id="Fill-41" points="683.176026 217.205581 685.358697 218.296751 683.176026 219.384902 683.176026 217.205581"></polyline>
                    <polyline id="Fill-42" points="683.176026 177.977818 687.541368 180.520358 683.176026 183.062898 683.176026 177.977818"></polyline>
                    <polyline id="Fill-43" points="657.711531 180.160552 663.531987 177.251377 663.531987 183.062898 657.711531 180.160552"></polyline>
                    <polyline id="Fill-44" points="612.602997 175.798497 622.061238 180.885762 612.602997 185.968658 612.602997 175.798497"></polyline>
                    <polyline id="Fill-45" points="586.410945 180.88573 596.596743 175.072057 596.596743 186.695098 586.410945 180.88573"></polyline>
                    <polyline id="Fill-46" points="543.485081 173.619177 556.581107 180.886557 543.485081 188.147979 543.485081 173.619177"></polyline>
                    <polyline id="Fill-47" points="517.293029 179.432996 531.116612 171.439857 531.116612 187.421538 517.293029 179.432996"></polyline>
                    <polyline id="Fill-48" points="510.745016 192.506619 523.841042 199.77252 510.745016 207.03542 510.745016 192.506619"></polyline>
                    <polyline id="Fill-49" points="485.280521 238.271604 495.466319 232.460823 495.466319 244.083864 485.280521 238.271604"></polyline>
                    <polyline id="Fill-50" points="477.277394 253.527585 486.735635 258.611229 477.277394 263.697746 477.277394 253.527585"></polyline>
                    <polyline id="Fill-51" points="451.812899 296.750046 461.27114 292.028909 461.27114 301.47263 451.812899 296.750046"></polyline>
                    <polyline id="Fill-52" points="445.264886 312.369231 453.268013 317.088138 445.264886 321.812952 445.264886 312.369231"></polyline>
                    <polyline id="Fill-53" points="453.99557 337.070251 459.816026 334.162433 459.816026 339.973953 453.99557 337.070251"></polyline>
                    <polyline id="Fill-54" points="480.707098 374.547053 481.850817 375.207387 480.707098 375.865541 480.707098 374.547053"></polyline>
                    <polyline id="Fill-55" points="693.361824 200.135422 695.544495 199.04458 695.544495 201.2239 693.361824 200.135422"></polyline>
                    <polyline id="Fill-56" points="691.90671 160.908006 696.272052 158.363936 696.272052 163.449016 691.90671 160.908006"></polyline>
                    <polyline id="Fill-57" points="647.525733 156.184615 655.52886 160.90727 647.525733 165.628336 647.525733 156.184615"></polyline>
                    <polyline id="Fill-58" points="620.606124 160.180779 630.064365 154.731735 630.064365 165.628336 620.606124 160.180779"></polyline>
                    <polyline id="Fill-59" points="577.680261 153.278855 590.776287 160.544016 577.680261 167.807657 577.680261 153.278855"></polyline>
                    <polyline id="Fill-60" points="550.033094 160.179299 563.856678 152.552415 563.856678 167.807657 550.033094 160.179299"></polyline>
                    <polyline id="Fill-61" points="509.289902 151.825975 524.568599 160.180769 509.289902 168.534097 509.289902 151.825975"></polyline>
                    <polyline id="Fill-62" points="482.370293 199.047617 496.193876 191.053739 496.193876 207.03542 482.370293 199.047617"></polyline>
                    <polyline id="Fill-63" points="476.549837 211.394061 489.645863 219.023212 476.549837 226.649302 476.549837 211.394061"></polyline>
                    <polyline id="Fill-64" points="451.085342 258.248664 461.998697 251.348265 461.998697 265.150626 451.085342 258.248664"></polyline>
                    <polyline id="Fill-65" points="442.354658 270.962147 453.268013 277.500871 442.354658 284.038068 442.354658 270.962147"></polyline>
                    <polyline id="Fill-66" points="417.61772 315.998433 428.531075 309.46347 428.531075 322.539392 417.61772 315.998433"></polyline>
                    <polyline id="Fill-67" points="445.264886 353.776315 451.085342 356.682801 445.264886 359.587835 445.264886 353.776315"></polyline>
                    <polyline id="Fill-68" points="456.178241 375.569517 458.360912 374.116637 458.360912 377.022397 456.178241 375.569517"></polyline>
                    <polyline id="Fill-70" points="681.720912 138.023614 687.541368 141.655029 681.720912 145.288014 681.720912 138.023614"></polyline>
                    <polyline id="Fill-71" points="655.52886 141.292594 663.531987 136.570733 663.531987 146.014454 655.52886 141.292594"></polyline>
                    <polyline id="Fill-72" points="613.330554 134.391413 624.243909 140.929374 613.330554 147.467335 613.330554 134.391413"></polyline>
                    <polyline id="Fill-73" points="584.228274 140.929374 597.3243 133.664973 597.3243 148.193775 584.228274 140.929374"></polyline>
                    <polyline id="Fill-74" points="542.757524 132.212093 557.308664 140.566154 542.757524 148.920215 542.757524 132.212093"></polyline>
                    <polyline id="Fill-75" points="515.837915 141.653562 531.116612 132.938533 531.116612 150.373095 515.837915 141.653562"></polyline>
                    <polyline id="Fill-76" points="483.09785 161.268968 498.376547 152.552415 498.376547 169.986977 483.09785 161.268968"></polyline>
                    <polyline id="Fill-77" points="475.82228 171.439857 491.100977 180.160843 475.82228 188.874419 475.82228 171.439857"></polyline>
                    <polyline id="Fill-78" points="448.175114 219.748122 462.726254 211.394061 462.726254 228.102182 448.175114 219.748122"></polyline>
                    <polyline id="Fill-79" points="441.627101 231.007943 456.178241 239.362004 441.627101 247.716064 441.627101 231.007943"></polyline>
                    <polyline id="Fill-80" points="415.435049 277.498628 429.986189 269.509267 429.986189 285.490948 415.435049 277.498628"></polyline>
                    <polyline id="Fill-81" points="407.431922 288.396708 421.983062 296.750769 407.431922 305.10483 407.431922 288.396708"></polyline>
                    <polyline id="Fill-82" points="408.887036 329.803792 419.800391 336.70654 408.887036 343.606154 408.887036 329.803792"></polyline>
                    <polyline id="Fill-83" points="419.800391 356.319625 427.803518 351.596995 427.803518 361.040716 419.800391 356.319625"></polyline>
                    <polyline id="Fill-84" points="446.72 393.730519 448.902671 394.822639 446.72 395.909839 446.72 393.730519"></polyline>
                    <polyline id="Fill-85" points="458.387468 413.70871 459.061913 413.320791 459.061913 414.09445 458.387468 413.70871"></polyline>
                    <polyline id="Fill-89" points="691.90671 122.041932 697.727166 118.409732 697.727166 125.674132 691.90671 122.041932"></polyline>
                    <polyline id="Fill-90" points="647.525733 116.230411 656.983974 121.678712 647.525733 127.127013 647.525733 116.230411"></polyline>
                    <polyline id="Fill-91" points="619.878567 122.041932 630.791922 115.503971 630.791922 128.579893 619.878567 122.041932"></polyline>
                    <polyline id="Fill-92" points="577.680261 113.324651 591.503844 121.315492 577.680261 129.306333 577.680261 113.324651"></polyline>
                    <polyline id="Fill-93" points="550.033094 121.677969 564.584235 113.324651 564.584235 130.032773 550.033094 121.677969"></polyline>
                    <polyline id="Fill-94" points="510.017459 113.324651 525.296156 122.041932 510.017459 130.759213 510.017459 113.324651"></polyline>
                    <polyline id="Fill-95" points="482.370293 122.042649 498.376547 113.324651 498.376547 130.759213 482.370293 122.042649"></polyline>
                    <polyline id="Fill-96" points="475.82228 132.212093 491.828534 140.929374 475.82228 149.646655 475.82228 132.212093"></polyline>
                    <polyline id="Fill-97" points="448.175114 180.885676 464.181368 172.166297 464.181368 189.600859 448.175114 180.885676"></polyline>
                    <polyline id="Fill-98" points="441.627101 191.053739 457.633355 199.772415 441.627101 208.488301 441.627101 191.053739"></polyline>
                    <polyline id="Fill-99" points="413.252378 238.998049 429.986189 229.555063 429.986189 248.442504 413.252378 238.998049"></polyline>
                    <polyline id="Fill-100" points="408.159479 249.168945 424.89329 258.611943 408.159479 268.056386 408.159479 249.168945"></polyline>
                    <polyline id="Fill-101" points="379.057199 297.113989 396.518567 287.670268 396.518567 306.55771 379.057199 297.113989"></polyline>
                    <polyline id="Fill-102" points="374.691857 307.28415 392.153225 316.725086 374.691857 326.171592 374.691857 307.28415"></polyline>
                    <polyline id="Fill-103" points="381.23987 335.980777 395.79101 327.624472 395.79101 344.332594 381.23987 335.980777"></polyline>
                    <polyline id="Fill-104" points="411.069707 371.210877 419.072834 375.932737 411.069707 380.654597 411.069707 371.210877"></polyline>
                    <polyline id="Fill-105" points="420.527948 395.18671 425.620847 392.277639 425.620847 398.089159 420.527948 395.18671"></polyline>
                    <polyline id="Fill-109" points="680.993355 98.0694097 688.996482 102.789676 680.993355 107.513131 680.993355 98.0694097"></polyline>
                    <polyline id="Fill-110" points="654.801303 102.425899 664.259544 97.3429696 664.259544 107.513131 654.801303 102.425899"></polyline>
                    <polyline id="Fill-111" points="613.330554 95.1636494 624.971466 102.427288 613.330554 109.692451 613.330554 95.1636494"></polyline>
                    <polyline id="Fill-112" points="584.228274 101.700849 598.051857 93.7107692 598.051857 109.692451 584.228274 101.700849"></polyline>
                    <polyline id="Fill-113" points="543.485081 93.7107692 558.763779 102.427297 543.485081 111.145331 543.485081 93.7107692"></polyline>
                    <polyline id="Fill-114" points="515.837915 102.426571 531.116612 93.7107692 531.116612 111.145331 515.837915 102.426571"></polyline>
                    <polyline id="Fill-115" points="475.82228 93.7107692 491.100977 102.428776 475.82228 111.145331 475.82228 93.7107692"></polyline>
                    <polyline id="Fill-116" points="447.447557 141.655814 464.181368 132.212093 464.181368 151.099535 447.447557 141.655814"></polyline>
                    <polyline id="Fill-117" points="440.899544 151.099535 457.633355 160.544715 440.899544 169.986977 440.899544 151.099535"></polyline>
                    <polyline id="Fill-118" points="413.979935 200.134957 431.441303 190.327299 431.441303 209.941181 413.979935 200.134957"></polyline>
                    <polyline id="Fill-119" points="408.159479 207.76186 425.620847 218.658462 408.159479 229.555063 408.159479 207.76186"></polyline>
                    <polyline id="Fill-120" points="378.329642 258.611939 397.246124 247.716064 397.246124 269.509267 378.329642 258.611939"></polyline>
                    <polyline id="Fill-121" points="373.9643 267.329946 392.880782 278.588291 373.9643 289.849589 373.9643 267.329946"></polyline>
                    <polyline id="Fill-122" points="343.406906 317.451358 363.050945 305.83127 363.050945 329.077352 343.406906 317.451358"></polyline>
                    <polyline id="Fill-123" points="375.419414 348.691234 389.242997 356.682075 375.419414 364.672916 375.419414 348.691234"></polyline>
                    <polyline id="Fill-124" points="384.877655 375.569517 395.063453 369.757996 395.063453 381.381038 384.877655 375.569517"></polyline>
                    <polyline id="Fill-125" points="411.797264 411.165081 416.162606 413.708436 411.797264 416.250161 411.797264 411.165081"></polyline>
                    <polyline id="Fill-129" points="689.724039 83.1765931 697.727166 78.4555277 697.727166 87.8992487 689.724039 83.1765931"></polyline>
                    <polyline id="Fill-130" points="646.798176 77.0026476 656.983974 82.8134592 646.798176 88.6256887 646.798176 77.0026476"></polyline>
                    <polyline id="Fill-131" points="619.15101 82.8149453 630.791922 75.5497674 630.791922 90.0785689 619.15101 82.8149453"></polyline>
                    <polyline id="Fill-132" points="577.680261 74.8233274 591.503844 82.8111832 577.680261 90.8050089 577.680261 74.8233274"></polyline>
                    <polyline id="Fill-133" points="550.033094 83.9030802 564.584235 75.5497674 564.584235 92.2578891 550.033094 83.9030802"></polyline>
                    <polyline id="Fill-134" points="510.017459 75.5497674 524.568599 83.9045725 510.017459 92.2578891 510.017459 75.5497674"></polyline>
                    <polyline id="Fill-135" points="482.370293 83.9030784 496.921433 75.5497674 496.921433 92.2578891 482.370293 83.9030784"></polyline>
                    <polyline id="Fill-136" points="448.902671 102.426579 464.181368 93.7107692 464.181368 111.145331 448.902671 102.426579"></polyline>
                    <polyline id="Fill-137" points="441.627101 113.324651 457.633355 122.042635 441.627101 130.759213 441.627101 113.324651"></polyline>
                    <polyline id="Fill-138" points="413.252378 160.543957 430.713746 151.099535 430.713746 169.986977 413.252378 160.543957"></polyline>
                    <polyline id="Fill-139" points="408.159479 169.986977 425.620847 179.79601 408.159479 189.600859 408.159479 169.986977"></polyline>
                    <polyline id="Fill-140" points="377.602085 219.021682 397.246124 207.76186 397.246124 230.281503 377.602085 219.021682"></polyline>
                    <polyline id="Fill-141" points="372.509186 227.375742 394.335896 239.362004 372.509186 251.348265 372.509186 227.375742"></polyline>
                    <polyline id="Fill-142" points="342.679349 278.225824 364.506059 265.877066 364.506059 290.576029 342.679349 278.225824"></polyline>
                    <polyline id="Fill-143" points="338.314007 284.764508 360.868274 297.83894 338.314007 310.916351 338.314007 284.764508"></polyline>
                    <polyline id="Fill-144" points="339.769121 325.445152 358.685603 336.705692 339.769121 347.964794 339.769121 325.445152"></polyline>
                    <polyline id="Fill-145" points="346.317134 356.682802 363.050945 347.238354 363.050945 366.125796 346.317134 356.682802"></polyline>
                    <polyline id="Fill-146" points="376.874528 389.371878 386.332769 394.823157 376.874528 400.268479 376.874528 389.371878"></polyline>
                    <polyline id="Fill-147" points="386.332769 413.346694 392.153225 409.7122 392.153225 416.976601 386.332769 413.346694"></polyline>
                    <polyline id="Fill-153" points="680.265798 58.1152057 689.724039 63.1980378 680.265798 68.2853667 680.265798 58.1152057"></polyline>
                    <polyline id="Fill-154" points="654.801303 63.1965344 664.987101 57.3887657 664.987101 69.0118068 654.801303 63.1965344"></polyline>
                    <polyline id="Fill-155" points="613.330554 56.6623256 624.971466 63.9251957 613.330554 71.191127 613.330554 56.6623256"></polyline>
                    <polyline id="Fill-156" points="584.228274 63.562744 597.3243 55.9358855 597.3243 71.191127 584.228274 63.562744"></polyline>
                    <polyline id="Fill-157" points="542.757524 55.9358855 556.581107 63.5612977 542.757524 71.191127 542.757524 55.9358855"></polyline>
                    <polyline id="Fill-158" points="517.293029 63.5612701 531.116612 55.9358855 531.116612 71.191127 517.293029 63.5612701"></polyline>
                    <polyline id="Fill-159" points="476.549837 55.9358855 489.645863 63.5611895 476.549837 71.191127 476.549837 55.9358855"></polyline>
                    <polyline id="Fill-160" points="450.357785 63.9229114 461.998697 56.6623256 461.998697 71.191127 450.357785 63.9229114"></polyline>
                    <polyline id="Fill-161" points="442.354658 74.8233274 456.178241 82.8126768 442.354658 90.8050089 442.354658 74.8233274"></polyline>
                    <polyline id="Fill-162" points="413.979935 122.041932 429.986189 112.598211 429.986189 131.485653 413.979935 122.041932"></polyline>
                    <polyline id="Fill-163" points="408.159479 131.485653 424.89329 140.929374 408.159479 150.373095 408.159479 131.485653"></polyline>
                    <polyline id="Fill-164" points="378.329642 179.432892 397.246124 168.534097 397.246124 190.327299 378.329642 179.432892"></polyline>
                    <polyline id="Fill-165" points="372.509186 188.147979 392.153225 199.773939 372.509186 211.394061 372.509186 188.147979"></polyline>
                    <polyline id="Fill-166" points="341.951792 238.998784 364.506059 225.922862 364.506059 252.074705 341.951792 238.998784"></polyline>
                    <polyline id="Fill-167" points="338.314007 244.083864 361.595831 257.883986 338.314007 271.688587 338.314007 244.083864"></polyline>
                    <polyline id="Fill-168" points="306.301498 298.203649 330.310879 284.038068 330.310879 312.369231 306.301498 298.203649"></polyline>
                    <polyline id="Fill-169" points="304.846384 302.92551 328.855765 317.088138 304.846384 331.256673 304.846384 302.92551"></polyline>
                    <polyline id="Fill-170" points="307.756612 336.34398 330.310879 323.265832 330.310879 349.417674 307.756612 336.34398"></polyline>
                    <polyline id="Fill-171" points="341.224235 366.852236 357.230489 375.569517 341.224235 384.286798 341.224235 366.852236"></polyline>
                    <polyline id="Fill-172" points="349.954919 394.458512 361.595831 387.192558 361.595831 401.72136 349.954919 394.458512"></polyline>
                    <polyline id="Fill-178" points="689.724039 43.947369 697.727166 39.2277639 697.727166 48.6714848 689.724039 43.947369"></polyline>
                    <polyline id="Fill-179" points="646.798176 37.7748837 656.983974 43.5864043 646.798176 49.3979249 646.798176 37.7748837"></polyline>
                    <polyline id="Fill-180" points="619.878567 44.3113024 630.791922 37.7748837 630.791922 50.850805 619.878567 44.3113024"></polyline>
                    <polyline id="Fill-181" points="579.135375 37.0484436 590.776287 43.9480866 579.135375 50.850805 579.135375 37.0484436"></polyline>
                    <polyline id="Fill-182" points="552.215765 43.9488697 563.856678 37.0484436 563.856678 50.850805 552.215765 43.9488697"></polyline>
                    <polyline id="Fill-183" points="510.745016 37.7748837 521.658371 44.3113397 510.745016 50.850805 510.745016 37.7748837"></polyline>
                    <polyline id="Fill-184" points="485.280521 44.3128444 496.193876 37.7748837 496.193876 50.850805 485.280521 44.3128444"></polyline>
                    <polyline id="Fill-185" points="443.809772 37.7748837 453.99557 43.5864043 443.809772 49.3979249 443.809772 37.7748837"></polyline>
                    <polyline id="Fill-186" points="415.435049 82.8111124 429.258632 74.8233274 429.258632 90.8050089 415.435049 82.8111124"></polyline>
                    <polyline id="Fill-187" points="408.159479 93.7107692 423.438176 102.425827 408.159479 111.145331 408.159479 93.7107692"></polyline>
                    <polyline id="Fill-188" points="379.057199 141.655113 396.518567 132.212093 396.518567 151.099535 379.057199 141.655113"></polyline>
                    <polyline id="Fill-189" points="374.691857 149.646655 392.153225 160.544763 374.691857 171.439857 374.691857 149.646655"></polyline>
                    <polyline id="Fill-190" points="341.951792 199.77102 363.778502 187.421538 363.778502 212.120501 341.951792 199.77102"></polyline>
                    <polyline id="Fill-191" points="338.314007 206.30898 360.868274 219.386356 338.314007 232.460823 338.314007 206.30898"></polyline>
                    <polyline id="Fill-192" points="306.301498 258.611926 331.038436 244.083864 331.038436 273.141467 306.301498 258.611926"></polyline>
                    <polyline id="Fill-193" points="304.846384 263.697746 329.583322 278.225085 304.846384 292.755349 304.846384 263.697746"></polyline>
                    <polyline id="Fill-194" points="272.106319 316.72635 298.298371 301.47263 298.298371 331.983113 272.106319 316.72635"></polyline>
                    <polyline id="Fill-195" points="304.846384 343.606154 326.673094 355.956367 304.846384 368.305116 304.846384 343.606154"></polyline>
                    <polyline id="Fill-196" points="311.394397 375.206297 329.583322 364.672916 329.583322 385.739678 311.394397 375.206297"></polyline>
                    <polyline id="Fill-198" points="342.679349 408.25932 352.865147 414.434061 342.679349 420.608801 342.679349 408.25932"></polyline>
                    <polyline id="Fill-205" points="680.993355 18.8874419 688.996482 23.6093023 680.993355 28.3311628 680.993355 18.8874419"></polyline>
                    <polyline id="Fill-206" points="655.52886 24.6989624 664.987101 19.6138819 664.987101 29.7840429 655.52886 24.6989624"></polyline>
                    <polyline id="Fill-207" points="614.058111 18.8874419 623.516352 24.3364512 614.058111 29.7840429 614.058111 18.8874419"></polyline>
                    <polyline id="Fill-208" points="586.410945 24.6997065 596.596743 18.8874419 596.596743 30.510483 586.410945 24.6997065"></polyline>
                    <polyline id="Fill-209" points="545.667752 18.8874419 555.125993 24.3357424 545.667752 29.7840429 545.667752 18.8874419"></polyline>
                    <polyline id="Fill-210" points="519.4757 24.3342758 528.933941 18.8874419 528.933941 29.7840429 519.4757 24.3342758"></polyline>
                    <polyline id="Fill-211" points="477.277394 19.6138819 486.735635 24.6996974 477.277394 29.7840429 477.277394 19.6138819"></polyline>
                    <polyline id="Fill-212" points="451.812899 23.6085791 461.27114 18.8874419 461.27114 28.3311628 451.812899 23.6085791"></polyline>
                    <polyline id="Fill-213" points="418.345277 45.4010853 427.803518 39.9542039 427.803518 50.850805 418.345277 45.4010853"></polyline>
                    <polyline id="Fill-214" points="408.887036 56.6623256 420.527948 63.5612168 408.887036 70.4646869 408.887036 56.6623256"></polyline>
                    <polyline id="Fill-215" points="380.512313 102.427305 395.79101 93.7107692 395.79101 111.145331 380.512313 102.427305"></polyline>
                    <polyline id="Fill-216" points="374.691857 112.598211 391.425668 122.041932 374.691857 131.485653 374.691857 112.598211"></polyline>
                    <polyline id="Fill-217" points="344.86202 160.543256 363.778502 149.646655 363.778502 171.439857 344.86202 160.543256"></polyline>
                    <polyline id="Fill-218" points="339.769121 167.807657 359.41316 179.434308 339.769121 191.053739 339.769121 167.807657"></polyline>
                    <polyline id="Fill-219" points="307.756612 218.658462 331.038436 204.8561 331.038436 232.460823 307.756612 218.658462"></polyline>
                    <polyline id="Fill-220" points="304.846384 223.743542 329.583322 238.271604 304.846384 252.801145 304.846384 223.743542"></polyline>
                    <polyline id="Fill-221" points="272.106319 277.500107 298.298371 262.244866 298.298371 292.755349 272.106319 277.500107"></polyline>
                    <polyline id="Fill-222" points="269.196091 282.585188 295.388143 297.838209 269.196091 313.095671 269.196091 282.585188"></polyline>
                    <polyline id="Fill-223" points="270.651205 322.539392 295.388143 336.707888 270.651205 350.870555 270.651205 322.539392"></polyline>
                    <polyline id="Fill-224" points="274.28899 355.956367 296.843257 342.879714 296.843257 369.031556 274.28899 355.956367"></polyline>
                    <polyline id="Fill-225" points="306.301498 385.739678 323.035309 395.186302 306.301498 404.62712 306.301498 385.739678"></polyline>
                    <polyline id="Fill-227" points="315.032182 414.071552 328.128208 406.80644 328.128208 421.335242 315.032182 414.071552"></polyline>
                    <polyline id="Fill-236" points="690.451596 4.72186047 697.727166 0.726440072 697.727166 8.71728086 690.451596 4.72186047"></polyline>
                    <polyline id="Fill-237" points="647.525733 0 655.52886 4.72186047 647.525733 9.44372093 647.525733 0"></polyline>
                    <polyline id="Fill-238" points="622.061238 4.72407211 630.064365 0 630.064365 9.44372093 622.061238 4.72407211"></polyline>
                    <polyline id="Fill-239" points="580.590489 0 588.593616 4.72186047 580.590489 9.44372093 580.590489 0"></polyline>
                    <polyline id="Fill-240" points="554.398436 4.72260653 562.401564 0 562.401564 9.44372093 554.398436 4.72260653"></polyline>
                    <polyline id="Fill-241" points="512.20013 0 520.203257 4.72265929 512.20013 9.44372093 512.20013 0"></polyline>
                    <polyline id="Fill-242" points="486.735635 4.72353786 494.011205 0 494.011205 9.44372093 486.735635 4.72353786"></polyline>
                    <polyline id="Fill-243" points="445.264886 0.726440072 451.085342 4.72263733 445.264886 8.71728086 445.264886 0.726440072"></polyline>
                    <polyline id="Fill-244" points="420.527948 4.72263492 426.348404 0.726440072 426.348404 8.71728086 420.527948 4.72263492"></polyline>
                    <polyline id="Fill-245" points="411.069707 18.8874419 419.072834 23.6093023 411.069707 28.3311628 411.069707 18.8874419"></polyline>
                    <polyline id="Fill-246" points="384.150098 63.561185 395.063453 56.6623256 395.063453 70.4646869 384.150098 63.561185"></polyline>
                    <polyline id="Fill-247" points="374.691857 75.5497674 388.51544 83.1751559 374.691857 90.8050089 374.691857 75.5497674"></polyline>
                    <polyline id="Fill-248" points="346.317134 122.043399 363.050945 112.598211 363.050945 131.485653 346.317134 122.043399"></polyline>
                    <polyline id="Fill-249" points="339.769121 131.485653 357.230489 141.291886 339.769121 151.099535 339.769121 131.485653"></polyline>
                    <polyline id="Fill-250" points="309.211726 179.795385 331.038436 167.807657 331.038436 191.780179 309.211726 179.795385"></polyline>
                    <polyline id="Fill-251" points="304.846384 186.695098 327.400651 199.772505 304.846384 212.846941 304.846384 186.695098"></polyline>
                    <polyline id="Fill-252" points="272.106319 238.273075 296.843257 223.743542 296.843257 252.801145 272.106319 238.273075"></polyline>
                    <polyline id="Fill-253" points="269.196091 243.357424 295.388143 258.611922 269.196091 273.867907 269.196091 243.357424"></polyline>
                    <polyline id="Fill-254" points="237.91114 297.838209 264.103192 282.585188 264.103192 313.095671 237.91114 297.838209"></polyline>
                    <polyline id="Fill-255" points="235.000912 301.47263 261.192964 316.724852 235.000912 331.983113 235.000912 301.47263"></polyline>
                    <polyline id="Fill-256" points="238.638697 336.342494 263.375635 321.812952 263.375635 350.870555 238.638697 336.342494"></polyline>
                    <polyline id="Fill-257" points="271.378762 363.946476 293.205472 375.93347 271.378762 387.918998 271.378762 363.946476"></polyline>
                    <polyline id="Fill-258" points="277.199218 394.095146 294.660586 384.286798 294.660586 403.90068 277.199218 394.095146"></polyline>
                    <polyline id="Fill-262" points="385.605212 23.6093023 393.608339 18.8874419 393.608339 28.3311628 385.605212 23.6093023"></polyline>
                    <polyline id="Fill-263" points="376.874528 39.9542039 386.332769 45.4017884 376.874528 50.850805 376.874528 39.9542039"></polyline>
                    <polyline id="Fill-264" points="348.499805 83.1766363 361.595831 75.5497674 361.595831 90.8050089 348.499805 83.1766363"></polyline>
                    <polyline id="Fill-265" points="341.224235 93.7107692 356.502932 102.427297 341.224235 111.145331 341.224235 93.7107692"></polyline>
                    <polyline id="Fill-266" points="310.66684 141.291877 328.128208 131.485653 328.128208 151.099535 310.66684 141.291877"></polyline>
                    <polyline id="Fill-267" points="306.301498 149.646655 325.21798 160.542514 306.301498 171.439857 306.301498 149.646655"></polyline>
                    <polyline id="Fill-268" points="274.28899 200.49971 296.1157 187.421538 296.1157 213.573381 274.28899 200.49971"></polyline>
                    <polyline id="Fill-269" points="269.923648 204.8561 293.205472 218.658462 269.923648 232.460823 269.923648 204.8561"></polyline>
                    <polyline id="Fill-270" points="237.91114 258.611916 264.103192 243.357424 264.103192 273.867907 237.91114 258.611916"></polyline>
                    <polyline id="Fill-271" points="235.000912 262.244866 261.192964 277.500107 235.000912 292.755349 235.000912 262.244866"></polyline>
                    <polyline id="Fill-272" points="203.715961 316.726394 228.452899 302.19907 228.452899 331.256673 203.715961 316.726394"></polyline>
                    <polyline id="Fill-273" points="237.183583 342.879714 259.73785 355.956359 237.183583 369.031556 237.183583 342.879714"></polyline>
                    <polyline id="Fill-274" points="241.548925 375.206297 262.648078 363.220036 262.648078 387.192558 241.548925 375.206297"></polyline>
                    <polyline id="Fill-276" points="273.561433 404.62712 288.112573 413.344401 273.561433 422.061682 273.561433 404.62712"></polyline>
                    <polyline id="Fill-280" points="376.146971 0.726440072 383.422541 4.72186047 376.146971 8.71728086 376.146971 0.726440072"></polyline>
                    <polyline id="Fill-281" points="349.954919 45.4025045 359.41316 39.9542039 359.41316 50.850805 349.954919 45.4025045"></polyline>
                    <polyline id="Fill-282" points="342.679349 57.3887657 353.592704 63.9244632 342.679349 70.4646869 342.679349 57.3887657"></polyline>
                    <polyline id="Fill-283" points="313.577068 102.062587 328.128208 93.7107692 328.128208 110.418891 313.577068 102.062587"></polyline>
                    <polyline id="Fill-284" points="307.029055 113.324651 323.035309 122.043362 307.029055 130.759213 307.029055 113.324651"></polyline>
                    <polyline id="Fill-285" points="277.199218 160.544022 294.660586 149.646655 294.660586 171.439857 277.199218 160.544022"></polyline>
                    <polyline id="Fill-286" points="272.106319 168.534097 291.022801 179.795358 272.106319 191.053739 272.106319 168.534097"></polyline>
                    <polyline id="Fill-287" points="240.821368 219.384902 264.103192 206.30898 264.103192 232.460823 240.821368 219.384902"></polyline>
                    <polyline id="Fill-288" points="235.728469 224.469982 259.73785 238.634831 235.728469 252.801145 235.728469 224.469982"></polyline>
                    <polyline id="Fill-289" points="203.715961 278.227282 228.452899 263.697746 228.452899 292.755349 203.715961 278.227282"></polyline>
                    <polyline id="Fill-290" points="202.260847 283.311628 226.997785 297.841168 202.260847 312.369231 202.260847 283.311628"></polyline>
                    <polyline id="Fill-291" points="202.260847 322.539392 225.542671 336.342503 202.260847 350.144114 202.260847 322.539392"></polyline>
                    <polyline id="Fill-292" points="206.626189 355.229195 228.452899 342.153274 228.452899 368.305116 206.626189 355.229195"></polyline>
                    <polyline id="Fill-293" points="237.91114 383.560358 256.100065 394.096723 237.91114 404.62712 237.91114 383.560358"></polyline>
                    <polyline id="Fill-295" points="245.18671 414.071576 259.73785 405.35356 259.73785 422.788122 245.18671 414.071576"></polyline>
                    <polyline id="Fill-298" points="352.13759 4.72258493 359.41316 0.726440072 359.41316 8.71728086 352.13759 4.72258493"></polyline>
                    <polyline id="Fill-299" points="343.406906 18.8874419 351.410033 23.6100384 343.406906 28.3311628 343.406906 18.8874419"></polyline>
                    <polyline id="Fill-300" points="315.032182 63.9235973 325.945537 57.3887657 325.945537 70.4646869 315.032182 63.9235973"></polyline>
                    <polyline id="Fill-301" points="307.756612 75.5497674 319.397524 82.8126156 307.756612 90.0785689 307.756612 75.5497674"></polyline>
                    <polyline id="Fill-302" points="279.381889 122.041932 294.660586 113.324651 294.660586 130.759213 279.381889 122.041932"></polyline>
                    <polyline id="Fill-303" points="272.833876 132.212093 288.84013 140.929374 272.833876 149.646655 272.833876 132.212093"></polyline>
                    <polyline id="Fill-304" points="242.276482 179.433593 261.192964 168.534097 261.192964 190.327299 242.276482 179.433593"></polyline>
                    <polyline id="Fill-305" points="236.456026 188.874419 258.282736 200.862136 236.456026 212.846941 236.456026 188.874419"></polyline>
                    <polyline id="Fill-306" points="206.626189 238.271606 229.908013 224.469982 229.908013 252.074705 206.626189 238.271606"></polyline>
                    <polyline id="Fill-307" points="201.53329 244.083864 225.542671 258.248708 201.53329 272.415027 201.53329 244.083864"></polyline>
                    <polyline id="Fill-308" points="171.703453 297.838965 195.712834 284.038068 195.712834 311.642791 171.703453 297.838965"></polyline>
                    <polyline id="Fill-309" points="169.520782 304.37839 192.075049 317.451423 169.520782 330.530233 169.520782 304.37839"></polyline>
                    <polyline id="Fill-310" points="173.158567 335.61681 194.985277 322.539392 194.985277 348.691234 173.158567 335.61681"></polyline>
                    <polyline id="Fill-311" points="203.715961 363.946476 222.632443 375.204817 203.715961 386.466118 203.715961 363.946476"></polyline>
                    <polyline id="Fill-312" points="210.263974 395.184097 227.725342 385.739678 227.725342 404.62712 210.263974 395.184097"></polyline>
                    <polyline id="Fill-313" points="317.94241 23.6093023 325.945537 18.8874419 325.945537 28.3311628 317.94241 23.6093023"></polyline>
                    <polyline id="Fill-314" points="308.484169 38.5013238 317.94241 43.5849678 308.484169 48.6714848 308.484169 38.5013238"></polyline>
                    <polyline id="Fill-315" points="281.56456 83.5383654 292.477915 77.0026476 292.477915 90.0785689 281.56456 83.5383654"></polyline>
                    <polyline id="Fill-316" points="273.561433 95.1636494 286.657459 102.426569 273.561433 109.692451 273.561433 95.1636494"></polyline>
                    <polyline id="Fill-317" points="245.18671 141.655065 260.465407 132.938533 260.465407 150.373095 245.18671 141.655065"></polyline>
                    <polyline id="Fill-318" points="238.638697 151.099535 255.372508 160.54473 238.638697 169.986977 238.638697 151.099535"></polyline>
                    <polyline id="Fill-319" points="208.80886 200.861397 227.725342 189.600859 227.725342 212.120501 208.80886 200.861397"></polyline>
                    <polyline id="Fill-320" points="202.260847 207.03542 224.087557 219.384902 202.260847 231.734383 202.260847 207.03542"></polyline>
                    <polyline id="Fill-321" points="171.703453 257.885479 194.985277 244.083864 194.985277 271.688587 171.703453 257.885479"></polyline>
                    <polyline id="Fill-322" points="168.793225 263.697746 192.075049 277.498616 168.793225 291.302469 168.793225 263.697746"></polyline>
                    <polyline id="Fill-323" points="138.963388 316.725717 160.790098 304.37839 160.790098 329.077352 138.963388 316.725717"></polyline>
                    <polyline id="Fill-324" points="170.248339 344.332594 189.164821 355.59315 170.248339 366.852236 170.248339 344.332594"></polyline>
                    <polyline id="Fill-325" points="176.068795 375.570247 194.25772 365.399356 194.25772 385.739678 176.068795 375.570247"></polyline>
                    <polyline id="Fill-327" points="205.898632 406.08 220.449772 413.708334 205.898632 421.335242 205.898632 406.08"></polyline>
                    <polyline id="Fill-329" points="309.211726 0 316.487296 4.72269901 309.211726 9.44372093 309.211726 0"></polyline>
                    <polyline id="Fill-330" points="283.747231 43.9496243 293.205472 39.2277639 293.205472 48.6714848 283.747231 43.9496243"></polyline>
                    <polyline id="Fill-331" points="275.016547 58.1152057 284.474788 63.1988646 275.016547 68.2853667 275.016547 58.1152057"></polyline>
                    <polyline id="Fill-332" points="248.824495 102.789713 259.73785 95.8900894 259.73785 109.692451 248.824495 102.789713"></polyline>
                    <polyline id="Fill-333" points="239.366254 114.777531 252.46228 122.041932 239.366254 129.306333 239.366254 114.777531"></polyline>
                    <polyline id="Fill-334" points="211.719088 161.268955 226.997785 152.552415 226.997785 169.986977 211.719088 161.268955"></polyline>
                    <polyline id="Fill-335" points="204.443518 171.439857 221.904886 180.887126 204.443518 190.327299 204.443518 171.439857"></polyline>
                    <polyline id="Fill-336" points="174.613681 219.384902 194.25772 207.76186 194.25772 231.007943 174.613681 219.384902"></polyline>
                    <polyline id="Fill-337" points="168.793225 227.375742 190.619935 239.725224 168.793225 252.074705 168.793225 227.375742"></polyline>
                    <polyline id="Fill-338" points="138.963388 277.499373 161.517655 264.424186 161.517655 290.576029 138.963388 277.499373"></polyline>
                    <polyline id="Fill-339" points="134.598046 284.038068 156.424756 297.113989 134.598046 310.189911 134.598046 284.038068"></polyline>
                    <polyline id="Fill-340" points="136.05316 325.445152 154.969642 336.707181 136.05316 347.964794 136.05316 325.445152"></polyline>
                    <polyline id="Fill-341" points="143.32873 356.318855 160.790098 346.511914 160.790098 366.125796 143.32873 356.318855"></polyline>
                    <polyline id="Fill-342" points="172.43101 387.192558 186.98215 395.549599 172.43101 403.90068 172.43101 387.192558"></polyline>
                    <polyline id="Fill-344" points="180.434137 414.798803 192.802606 407.53288 192.802606 422.061682 180.434137 414.798803"></polyline>
                    <polyline id="Fill-346" points="284.474788 4.72258283 291.750358 0.726440072 291.750358 8.71728086 284.474788 4.72258283"></polyline>
                    <polyline id="Fill-347" points="275.744104 18.8874419 283.019674 23.6101385 275.744104 28.3311628 275.744104 18.8874419"></polyline>
                    <polyline id="Fill-348" points="250.279609 63.5612524 258.282736 58.8416458 258.282736 68.2853667 250.279609 63.5612524"></polyline>
                    <polyline id="Fill-349" points="241.548925 77.7290877 251.007166 82.8134362 241.548925 87.8992487 241.548925 77.7290877"></polyline>
                    <polyline id="Fill-350" points="213.901759 122.041932 224.815114 115.503971 224.815114 128.579893 213.901759 122.041932"></polyline>
                    <polyline id="Fill-351" points="206.626189 133.664973 218.267101 140.928612 206.626189 148.193775 206.626189 133.664973"></polyline>
                    <polyline id="Fill-352" points="176.796352 180.885678 192.802606 172.166297 192.802606 189.600859 176.796352 180.885678"></polyline>
                    <polyline id="Fill-353" points="170.975896 190.327299 188.437264 200.134938 170.975896 209.941181 170.975896 190.327299"></polyline>
                    <polyline id="Fill-354" points="139.690945 239.362722 161.517655 227.375742 161.517655 251.348265 139.690945 239.362722"></polyline>
                    <polyline id="Fill-355" points="134.598046 246.263184 156.424756 258.611236 134.598046 270.962147 134.598046 246.263184"></polyline>
                    <polyline id="Fill-356" points="106.223322 297.839697 128.050033 285.490948 128.050033 310.189911 106.223322 297.839697"></polyline>
                    <polyline id="Fill-357" points="102.585537 305.83127 122.229577 317.451395 102.585537 329.077352 102.585537 305.83127"></polyline>
                    <polyline id="Fill-358" points="108.405993 336.342501 127.322476 325.445152 127.322476 347.238354 108.405993 336.342501"></polyline>
                    <polyline id="Fill-359" points="137.508274 366.852236 152.059414 375.206297 137.508274 383.560358 137.508274 366.852236"></polyline>
                    <polyline id="Fill-360" points="145.511401 394.456959 158.607427 387.192558 158.607427 401.72136 145.511401 394.456959"></polyline>
                    <polyline id="Fill-361" points="251.734723 24.6989624 257.555179 21.0667621 257.555179 28.3311628 251.734723 24.6989624"></polyline>
                    <polyline id="Fill-362" points="242.276482 39.2277639 248.096938 42.8592471 242.276482 46.4921646 242.276482 39.2277639"></polyline>
                    <polyline id="Fill-363" points="216.08443 83.1765853 224.087557 78.4555277 224.087557 87.8992487 216.08443 83.1765853"></polyline>
                    <polyline id="Fill-364" points="206.626189 97.3429696 216.08443 102.062703 206.626189 106.786691 206.626189 97.3429696"></polyline>
                    <polyline id="Fill-365" points="181.161694 140.929374 192.075049 134.391413 192.075049 147.467335 181.161694 140.929374"></polyline>
                    <polyline id="Fill-366" points="172.43101 153.278855 185.527036 160.543998 172.43101 167.807657 172.43101 153.278855"></polyline>
                    <polyline id="Fill-367" points="142.601173 200.498163 160.062541 191.053739 160.062541 209.941181 142.601173 200.498163"></polyline>
                    <polyline id="Fill-368" points="136.780717 208.488301 155.697199 219.386357 136.780717 230.281503 136.780717 208.488301"></polyline>
                    <polyline id="Fill-369" points="106.223322 258.611203 128.050033 246.263184 128.050033 270.962147 106.223322 258.611203"></polyline>
                    <polyline id="Fill-370" points="101.85798 265.150626 123.684691 277.499378 101.85798 289.849589 101.85798 265.150626"></polyline>
                    <polyline id="Fill-371" points="73.4832573 317.453573 93.1272964 305.83127 93.1272964 329.077352 73.4832573 317.453573"></polyline>
                    <polyline id="Fill-372" points="103.313094 347.238354 119.319349 355.956347 103.313094 364.672916 103.313094 347.238354"></polyline>
                    <polyline id="Fill-373" points="112.043779 375.204813 125.867362 367.578676 125.867362 382.833918 112.043779 375.204813"></polyline>
                    <polyline id="Fill-374" points="140.418502 408.98576 149.876743 414.072295 140.418502 419.155921 140.418502 408.98576"></polyline>
                    <polyline id="Fill-375" points="242.276482 1.45288014 248.096938 4.36064302 242.276482 7.26440072 242.276482 1.45288014"></polyline>
                    <polyline id="Fill-376" points="218.994658 44.3121375 224.815114 41.4070841 224.815114 47.2186047 218.994658 44.3121375"></polyline>
                    <polyline id="Fill-377" points="208.081303 61.020966 213.901759 63.9232859 208.081303 66.8324866 208.081303 61.020966"></polyline>
                    <polyline id="Fill-378" points="183.344365 102.064105 190.619935 98.0694097 190.619935 106.06025 183.344365 102.064105"></polyline>
                    <polyline id="Fill-379" points="174.613681 116.956852 182.616808 121.680176 174.613681 126.400572 174.613681 116.956852"></polyline>
                    <polyline id="Fill-380" points="146.238958 160.18081 157.152313 153.278855 157.152313 167.081216 146.238958 160.18081"></polyline>
                    <polyline id="Fill-381" points="137.508274 171.439857 152.059414 179.430698 137.508274 187.421538 137.508274 171.439857"></polyline>
                    <polyline id="Fill-382" points="108.405993 218.658462 127.322476 207.76186 127.322476 229.555063 108.405993 218.658462"></polyline>
                    <polyline id="Fill-383" points="102.585537 227.375742 122.229577 238.999517 102.585537 250.621825 102.585537 227.375742"></polyline>
                    <polyline id="Fill-384" points="72.0281433 277.50084 93.8548534 265.150626 93.8548534 289.849589 72.0281433 277.50084"></polyline>
                    <polyline id="Fill-385" points="67.6628013 285.490948 89.4895114 297.474338 67.6628013 309.46347 67.6628013 285.490948"></polyline>
                    <polyline id="Fill-386" points="69.8454723 326.898032 87.3068404 336.707088 69.8454723 346.511914 69.8454723 326.898032"></polyline>
                    <polyline id="Fill-387" points="76.3934853 356.682816 91.6721824 347.964794 91.6721824 365.399356 76.3934853 356.682816"></polyline>
                    <polyline id="Fill-388" points="105.495765 389.371878 115.681564 395.186362 105.495765 400.994919 105.495765 389.371878"></polyline>
                    <polyline id="Fill-389" points="114.954007 412.981954 122.957134 408.25932 122.957134 417.703041 114.954007 412.981954"></polyline>
                    <polyline id="Fill-390" points="218.994658 5.08591381 224.087557 2.17932021 224.087557 7.99084079 218.994658 5.08591381"></polyline>
                    <polyline id="Fill-391" points="208.80886 21.0667621 213.174202 23.6093023 208.80886 26.1518426 208.80886 21.0667621"></polyline>
                    <polyline id="Fill-392" points="184.799479 63.5595814 189.164821 61.020966 189.164821 66.1060465 184.799479 63.5595814"></polyline>
                    <polyline id="Fill-393" points="175.341238 79.9084079 180.434137 82.8117896 175.341238 85.7199284 175.341238 79.9084079"></polyline>
                    <polyline id="Fill-394" points="149.876743 121.678712 157.152313 117.683292 157.152313 125.674132 149.876743 121.678712"></polyline>
                    <polyline id="Fill-395" points="140.418502 136.570733 149.876743 141.291879 140.418502 146.014454 140.418502 136.570733"></polyline>
                    <polyline id="Fill-396" points="112.043779 180.521092 125.867362 172.892737 125.867362 188.147979 112.043779 180.521092"></polyline>
                    <polyline id="Fill-397" points="103.313094 191.053739 119.319349 199.773804 103.313094 208.488301 103.313094 191.053739"></polyline>
                    <polyline id="Fill-398" points="73.4832573 239.361287 93.1272964 228.102182 93.1272964 250.621825 73.4832573 239.361287"></polyline>
                    <polyline id="Fill-399" points="67.6628013 246.989624 89.4895114 258.975168 67.6628013 270.962147 67.6628013 246.989624"></polyline>
                    <polyline id="Fill-400" points="37.8329642 297.113989 59.6596743 284.764508 59.6596743 309.46347 37.8329642 297.113989"></polyline>
                    <polyline id="Fill-401" points="35.6502932 304.37839 55.2943322 316.361704 35.6502932 328.350912 35.6502932 304.37839"></polyline>
                    <polyline id="Fill-402" points="41.4707492 336.344062 58.9321173 325.445152 58.9321173 347.238354 41.4707492 336.344062"></polyline>
                    <polyline id="Fill-403" points="72.0281433 368.305116 83.6690554 375.206297 72.0281433 382.107478 72.0281433 368.305116"></polyline>
                    <polyline id="Fill-404" points="80.7588274 394.822419 90.2170684 389.371878 90.2170684 400.268479 80.7588274 394.822419"></polyline>
                    <polyline id="Fill-405" points="186.254593 24.6996016 189.164821 23.2460823 189.164821 26.1518426 186.254593 24.6996016"></polyline>
                    <polyline id="Fill-406" points="175.341238 43.5864043 178.251466 45.0386109 175.341238 46.4921646 175.341238 43.5864043"></polyline>
                    <polyline id="Fill-407" points="152.059414 83.5389867 154.969642 81.361288 154.969642 85.7199284 152.059414 83.5389867"></polyline>
                    <polyline id="Fill-408" points="141.146059 100.24873 146.238958 102.789068 141.146059 105.33381 141.146059 100.24873"></polyline>
                    <polyline id="Fill-409" points="115.681564 141.291783 122.957134 136.570733 122.957134 146.014454 115.681564 141.291783"></polyline>
                    <polyline id="Fill-410" points="106.223322 154.731735 115.681564 160.179315 106.223322 165.628336 106.223322 154.731735"></polyline>
                    <polyline id="Fill-411" points="76.3934853 199.77102 92.3997394 191.053739 92.3997394 208.488301 76.3934853 199.77102"></polyline>
                    <polyline id="Fill-412" points="69.8454723 207.76186 87.3068404 218.658462 69.8454723 229.555063 69.8454723 207.76186"></polyline>
                    <polyline id="Fill-413" points="37.8329642 258.611944 59.6596743 246.263184 59.6596743 270.962147 37.8329642 258.611944"></polyline>
                    <polyline id="Fill-414" points="34.1951792 264.424186 56.7494463 277.50085 34.1951792 290.576029 34.1951792 264.424186"></polyline>
                    <polyline id="Fill-415" points="5.09289902 317.453577 26.9196091 305.10483 26.9196091 329.803792 5.09289902 317.453577"></polyline>
                    <polyline id="Fill-416" points="37.1054072 347.964794 52.3841042 356.682075 37.1054072 365.399356 37.1054072 347.964794"></polyline>
                    <polyline id="Fill-417" points="45.8360912 375.206297 57.4770033 368.305116 57.4770033 382.107478 45.8360912 375.206297"></polyline>
                    <polyline id="Fill-418" points="73.4832573 409.7122 79.3037134 413.345126 73.4832573 416.976601 73.4832573 409.7122"></polyline>
                    <polyline id="Fill-419" points="176.796352 3.63220036 178.979023 4.72244599 176.796352 5.81152057 176.796352 3.63220036"></polyline>
                    <polyline id="Fill-420" points="153.514528 44.6743153 155.697199 43.5864043 155.697199 45.7657245 153.514528 44.6743153"></polyline>
                    <polyline id="Fill-421" points="143.32873 61.7474061 145.511401 62.834785 143.32873 63.9267263 143.32873 61.7474061"></polyline>
                    <polyline id="Fill-422" points="118.591792 102.425631 121.50202 100.24873 121.50202 104.60737 118.591792 102.425631"></polyline>
                    <polyline id="Fill-423" points="107.678436 119.136172 112.771336 122.041932 107.678436 124.947692 107.678436 119.136172"></polyline>
                    <polyline id="Fill-424" points="80.7588274 160.543256 90.2170684 155.458175 90.2170684 165.628336 80.7588274 160.543256"></polyline>
                    <polyline id="Fill-425" points="71.3005863 173.619177 84.3966124 180.885833 71.3005863 188.147979 71.3005863 173.619177"></polyline>
                    <polyline id="Fill-426" points="41.4707492 218.659973 58.9321173 207.76186 58.9321173 229.555063 41.4707492 218.659973"></polyline>
                    <polyline id="Fill-427" points="35.6502932 227.375742 55.2943322 238.998784 35.6502932 250.621825 35.6502932 227.375742"></polyline>
                    <polyline id="Fill-428" points="4.36534202 276.772947 26.9196091 263.697746 26.9196091 289.849589 4.36534202 276.772947"></polyline>
                    <polyline id="Fill-429" points="0 284.764508 23.2818241 297.840429 0 310.916351 0 284.764508"></polyline>
                    <polyline id="Fill-430" points="1.45511401 325.445152 20.3715961 336.70719 1.45511401 347.964794 1.45511401 325.445152"></polyline>
                    <polyline id="Fill-431" points="8.73068404 355.956337 24.7369381 347.238354 24.7369381 364.672916 8.73068404 355.956337"></polyline>
                    <polyline id="Fill-432" points="38.5605212 390.098318 48.0187622 395.18485 38.5605212 400.268479 38.5605212 390.098318"></polyline>
                    <polyline id="Fill-433" points="48.7463192 413.345147 54.5667752 409.7122 54.5667752 416.976601 48.7463192 413.345147"></polyline>
                    <polyline id="Fill-434" points="153.514528 4.7227974 155.697199 3.63220036 155.697199 5.81152057 153.514528 4.7227974"></polyline>
                    <polyline id="Fill-435" points="143.002784 23.5413802 144.382232 24.3368321 143.002784 25.1301046 143.002784 23.5413802"></polyline>
                    <polyline id="Fill-436" points="120.419051 63.5613269 121.857431 62.7331853 121.857431 64.3938273 120.419051 63.5613269"></polyline>
                    <polyline id="Fill-437" points="108.405993 82.0877281 110.588664 83.1764809 108.405993 84.2670483 108.405993 82.0877281"></polyline>
                    <polyline id="Fill-438" points="83.6690554 122.406674 88.0343974 119.862612 88.0343974 124.947692 83.6690554 122.406674"></polyline>
                    <polyline id="Fill-439" points="73.4832573 138.023614 79.3037134 141.654314 73.4832573 145.288014 73.4832573 138.023614"></polyline>
                    <polyline id="Fill-440" points="44.3809772 180.887371 57.4770033 173.619177 57.4770033 188.147979 44.3809772 180.887371"></polyline>
                    <polyline id="Fill-441" points="36.3778502 191.053739 52.3841042 199.771729 36.3778502 208.488301 36.3778502 191.053739"></polyline>
                    <polyline id="Fill-442" points="5.09289902 239.362004 26.9196091 227.375742 26.9196091 251.348265 5.09289902 239.362004"></polyline>
                    <polyline id="Fill-443" points="0 245.536744 22.5542671 258.611221 0 271.688587 0 245.536744"></polyline>
                    <polyline id="Fill-444" points="3.63778502 368.305116 16.7338111 375.932737 3.63778502 383.560358 3.63778502 368.305116"></polyline>
                    <polyline id="Fill-445" points="12.3684691 394.822419 21.8267101 389.371878 21.8267101 400.268479 12.3684691 394.822419"></polyline>
                    <polyline id="Fill-446" points="120.94944 24.3357424 121.327042 24.1199897 121.327042 24.5514951 120.94944 24.3357424"></polyline>
                    <polyline id="Fill-447" points="109.362003 44.5213327 109.632655 44.6738851 109.362003 44.8307961 109.362003 44.5213327"></polyline>
                    <polyline id="Fill-448" points="86.2446072 83.1784779 87.6415166 82.3743087 87.6415166 83.9804677 86.2446072 83.1784779"></polyline>
                    <polyline id="Fill-449" points="74.9383713 101.70161 77.1210423 102.790623 74.9383713 103.88093 74.9383713 101.70161"></polyline>
                    <polyline id="Fill-450" points="48.7463192 141.655028 54.5667752 138.023614 54.5667752 145.288014 48.7463192 141.655028"></polyline>
                    <polyline id="Fill-451" points="38.5605212 155.458175 48.0187622 160.54401 38.5605212 165.628336 38.5605212 155.458175"></polyline>
                    <polyline id="Fill-452" points="8.73068404 199.773811 24.7369381 191.053739 24.7369381 208.488301 8.73068404 199.773811"></polyline>
                    <polyline id="Fill-453" points="2.18267101 208.488301 21.0991531 219.384179 2.18267101 230.281503 2.18267101 208.488301"></polyline>
                    <polyline id="Fill-454" points="6.54801303 409.7122 12.3684691 413.706844 6.54801303 417.703041 6.54801303 409.7122"></polyline>
                    <polyline id="Fill-455" points="109.289975 4.48540422 109.704683 4.72295013 109.289975 4.95831671 109.289975 4.48540422"></polyline>
                    <polyline id="Fill-456" points="76.0209762 63.5526097 76.0384375 63.5613269 76.0209762 63.5744029 76.0209762 63.5526097"></polyline>
                    <polyline id="Fill-457" points="50.9289902 102.788321 53.1116612 101.70161 53.1116612 103.88093 50.9289902 102.788321"></polyline>
                    <polyline id="Fill-458" points="41.4707492 120.589052 44.3809772 122.769174 41.4707492 124.947692 41.4707492 120.589052"></polyline>
                    <polyline id="Fill-459" points="12.3684691 160.542506 21.8267101 155.458175 21.8267101 165.628336 12.3684691 160.542506"></polyline>
                    <polyline id="Fill-460" points="2.91022801 173.619177 16.0062541 180.885069 2.91022801 188.147979 2.91022801 173.619177"></polyline>
                    <polyline id="Fill-461" points="86.9408792 4.72186047 86.9452446 4.72186047 86.9408792 4.72186047"></polyline>
                    <polyline id="Fill-462" points="41.5955252 82.9027938 42.0735302 83.1752089 41.5955252 83.4519825 41.5955252 82.9027938"></polyline>
                    <polyline id="Fill-463" points="16.7338111 122.768372 19.6440391 120.589052 19.6440391 124.947692 16.7338111 122.768372"></polyline>
                    <polyline id="Fill-464" points="5.82045603 138.750054 11.6409121 141.655814 5.82045603 144.561574 5.82045603 138.750054"></polyline>
                    <polyline id="Fill-465" points="18.3944599 83.1741192 18.7109472 82.995415 18.7109472 83.3593614 18.3944599 83.1741192"></polyline>
                    <polyline id="Fill-466" points="6.54801303 100.97517 8.73068404 102.063932 6.54801303 103.15449 6.54801303 100.97517"></polyline>
                    <polyline id="Fill-468" points="667.424417 396.147748 667.642684 396.271969 667.424417 396.39837 667.424417 396.147748"></polyline>
                    <polyline id="Fill-469" points="679.077334 377.386707 679.271591 377.271203 679.271591 377.500031 679.077334 377.386707"></polyline>
                    <polyline id="Fill-470" points="678.733563 416.61556 679.615362 416.10342 679.615362 417.123342 678.733563 416.61556"></polyline>
                </g>
            </g>
        </g>
    </g>
</svg>