<svg xmlns="http://www.w3.org/2000/svg" width="86" height="33" viewBox="0 0 86 33"><g><g><g><path fill="#0d0d0d" d="M4.937 27.61c.49 0 .87.163 1.142.49.272.326.41.73.41 1.212 0 .497-.138.91-.41 1.236-.272.326-.653.49-1.142.49H3.842V27.61zm1.99 3.751c.5-.492.75-1.167.75-2.026 0-.859-.246-1.54-.734-2.042-.484-.502-1.154-.753-2.014-.753H2.7v5.567h2.183c.87 0 1.551-.249 2.044-.746z"/></g><g><path fill="#0d0d0d" d="M14.665 32.107H10.8V26.54h3.865v1.04H11.95v1.197h2.515v1.04H11.95v1.25h2.715z"/></g><g><path fill="#0d0d0d" d="M20.063 30.39l1.497-3.85h1.296l-2.337 5.567h-.911L17.24 26.54h1.319z"/></g><g><path fill="#0d0d0d" d="M29.565 32.107H25.7V26.54h3.865v1.04h-2.716v1.197h2.515v1.04h-2.515v1.25h2.716z"/></g><g><path fill="#0d0d0d" d="M36.812 32.107H32.77V26.54h1.15v4.497h2.892z"/></g><g><path fill="#0d0d0d" d="M43.373 30.59c-.344.337-.769.506-1.273.506a1.75 1.75 0 0 1-1.273-.505c-.339-.337-.509-.759-.509-1.266 0-.512.173-.936.517-1.273.35-.341.772-.512 1.265-.512.494 0 .915.17 1.265.512.345.337.517.76.517 1.273.005.507-.165.93-.508 1.266zm.833.77a2.724 2.724 0 0 0 .864-2.035c0-.798-.288-1.479-.864-2.041-.57-.563-1.273-.844-2.106-.844s-1.537.281-2.113.844a2.776 2.776 0 0 0-.857 2.056c0 .804.283 1.482.849 2.034.56.548 1.265.821 2.114.821.838 0 1.542-.278 2.113-.836z"/></g><g><path fill="#0d0d0d" d="M49.301 27.572h.98c.252 0 .453.076.602.227a.766.766 0 0 1 .232.569c0 .238-.08.435-.24.591-.154.152-.372.228-.656.228h-.918zm-1.141 4.535h1.141v-1.92h.88c.7 0 1.224-.172 1.574-.513.35-.352.524-.784.524-1.296 0-.517-.169-.952-.51-1.303-.333-.357-.834-.535-1.503-.535H48.16z"/></g><g><path fill="#0d0d0d" d="M56.377 32.107H55.25V26.54h.756l2.237 3.156 2.214-3.156h.773v5.567h-1.142v-3.156l-1.66 2.327h-.393l-1.658-2.327z"/></g><g><path fill="#0d0d0d" d="M68.525 32.107H64.66V26.54h3.865v1.04H65.81v1.197h2.515v1.04H65.81v1.25h2.715z"/></g><g><path fill="#0d0d0d" d="M75.464 29.983V26.54h1.127v5.567h-.78l-2.954-3.412v3.412H71.73V26.54h.725z"/></g><g><path fill="#0d0d0d" d="M81.118 32.107v-4.49H79.49V26.54h4.413v1.077h-1.628v4.49z"/></g><g><path fill="#0d0d0d" d="M7.795 20.796c-1.545 0-2.974-.322-4.287-.965A8.006 8.006 0 0 1 .34 17.096l2.263-2.761c1.313 1.84 3.052 2.761 5.218 2.761.816 0 1.49-.196 2.023-.59.533-.393.799-.902.799-1.528 0-.822-.595-1.51-1.784-2.064-.142-.072-.79-.33-1.944-.778A19.38 19.38 0 0 1 4.6 11.064C2.523 9.866 1.485 8.222 1.485 6.131c0-1.662.621-3.038 1.863-4.129C4.608.894 6.223.34 8.193.34c2.556 0 4.713.894 6.47 2.681l-2.104 2.895c-.532-.571-1.198-1.018-1.996-1.34-.781-.34-1.553-.51-2.317-.51-.78 0-1.401.18-1.863.537-.443.34-.666.795-.666 1.367 0 .769.533 1.421 1.598 1.957l1.943.858c1.1.465 1.899.813 2.397 1.046 2.235 1.09 3.354 2.734 3.354 4.933 0 1.77-.666 3.217-1.997 4.343s-3.07 1.69-5.217 1.69z"/></g><g><path fill="#0d0d0d" d="M23.43 4.335h3.38c.87 0 1.563.268 2.078.803.532.536.798 1.205.798 2.008 0 .84-.275 1.536-.825 2.089-.533.536-1.287.803-2.263.803H23.43zm-3.94 16.138h3.94v-6.837h3.035c2.414 0 4.224-.608 5.43-1.823 1.208-1.251 1.811-2.788 1.811-4.611 0-1.841-.586-3.387-1.757-4.639C30.795 1.294 29.065.66 26.758.66H19.49z"/></g><g><path fill="#0d0d0d" d="M51.78 20.473H37.83V.66h3.966v16.006h9.983z"/></g><g><path fill="#ff4141" d="M55.67 20.473L61.595.66h4.442l-5.925 19.813z"/></g><g><path d="M76.267 20.473V4.493H70.65V.66h15.227v3.834H80.26v15.979z"/></g></g></g></svg>