<svg width="168" height="88" viewBox="0 0 168 88" fill="none" xmlns="http://www.w3.org/2000/svg">
<g clip-path="url(#clip0_260:2360)">
<path fill-rule="evenodd" clip-rule="evenodd" d="M47.8429 59.8791C49.4677 59.8791 50.7314 60.4114 51.8147 61.476C52.8076 62.5404 53.3492 63.7823 53.3492 65.2904C53.3492 66.8872 52.8076 68.1291 51.8147 69.1936C50.8218 70.2582 49.4677 70.7904 47.8429 70.7904H21.6649C20.5816 70.7017 19.5887 70.4356 18.7763 69.9033C17.9639 69.371 17.3321 68.7501 16.8807 67.9517C16.4294 67.1532 16.2488 66.2663 16.2488 65.2904C16.2488 64.3145 16.5196 63.3388 17.0612 62.3629L37.7328 30.1614H21.4845C20.0402 30.1614 18.6861 29.6291 17.6029 28.6533C16.5196 27.6776 15.978 26.3469 15.978 24.7501C15.978 23.242 16.5196 22.0001 17.6029 20.8469C18.6861 19.7823 19.9498 19.2501 21.4845 19.2501H47.6623C48.6552 19.3388 49.6483 19.605 50.4605 20.1372C51.273 20.6695 51.9951 21.3791 52.4465 22.1776C52.8978 22.976 53.1686 23.9517 53.1686 24.9276C53.1686 25.9033 52.8978 26.8791 52.2659 27.855L31.775 59.7904H47.8429V59.8791ZM77.3606 19.3388C79.8882 19.3388 82.2352 19.7823 84.4016 20.7582C86.568 21.7339 88.554 22.976 90.1788 24.6614C91.8035 26.3469 93.1576 28.2985 94.1505 30.4276C95.1436 32.6453 95.6851 35.0404 95.8657 37.6129V52.4276C95.7755 54.8226 95.2338 57.1291 94.2409 59.4356C93.2478 61.6532 91.9841 63.605 90.3594 65.2904C88.7344 66.976 86.8389 68.3066 84.5821 69.2823C82.3254 70.2582 79.9784 70.7904 77.3606 70.7904C74.8332 70.7904 72.4862 70.3469 70.2294 69.371C67.9727 68.3953 66.0772 67.1533 64.362 65.4679C62.6469 63.7823 61.2929 61.8307 60.2998 59.6129C59.3069 57.3953 58.7653 55.0001 58.5847 52.4276V37.6129C58.6751 35.2179 59.1263 32.9114 60.1194 30.605C61.1123 28.3872 62.4662 26.4357 64.0912 24.7501C65.7159 23.0645 67.7019 21.7339 69.9587 20.7582C72.3959 19.871 74.8332 19.3388 77.3606 19.3388ZM77.3606 59.8791C78.3537 59.8791 79.3466 59.7017 80.2493 59.3469C81.1519 58.992 81.9644 58.4598 82.5963 57.7501C83.3183 57.0404 83.86 56.242 84.221 55.355C84.6724 54.4679 84.8529 53.492 84.8529 52.4276V37.6129C84.8529 36.6372 84.6724 35.6614 84.221 34.6857C83.7698 33.7985 83.2281 33.0001 82.5963 32.2904C81.874 31.5807 81.1519 31.1372 80.2493 30.6936C79.3466 30.3388 78.3537 30.1614 77.3606 30.1614C76.2775 30.1614 75.2844 30.3388 74.3817 30.6936C73.479 31.0485 72.6668 31.5807 71.9445 32.2904C71.2224 33.0001 70.6808 33.7098 70.3198 34.6857C69.9587 35.5726 69.7781 36.5485 69.7781 37.6129V52.4276C69.7781 54.5566 70.5002 56.3307 72.0347 57.7501C73.3888 59.1694 75.1942 59.8791 77.3606 59.8791ZM126.557 59.5242C128.001 59.5242 129.265 60.0566 130.348 61.121C131.432 62.1856 131.973 63.4275 131.973 64.9356C131.973 66.5323 131.432 67.7742 130.348 68.8388C129.265 69.9032 128.001 70.4356 126.557 70.4356H105.976C104.351 70.4356 103.087 69.9032 102.004 68.8388C101.011 67.7742 100.379 66.5323 100.289 64.9356V24.3953C100.289 22.8872 100.831 21.6453 101.914 20.5807C102.997 19.5163 104.351 18.9839 105.886 18.9839C107.33 18.9839 108.594 19.5163 109.677 20.5807C110.76 21.6453 111.392 22.8872 111.392 24.3953V59.5242H126.557ZM167.539 35.3066C167.539 35.3066 167.539 35.3066 167.539 35.4839V41.9598V52.871V65.3791C167.539 66.8872 166.997 68.1291 165.914 69.1936C164.831 70.2582 163.567 70.7904 162.033 70.7904C160.408 70.7904 159.144 70.2582 158.061 69.1936C156.977 68.1291 156.436 66.8872 156.436 65.3791V55.976H145.694V65.3791C145.694 66.8872 145.152 68.1291 144.069 69.1936C142.986 70.2582 141.632 70.7904 140.097 70.7904C138.563 70.7904 137.299 70.2582 136.216 69.1936C135.223 68.1291 134.681 66.8872 134.681 65.3791V52.871V41.9598V35.4839V35.3066C134.681 33.0888 135.132 31.0485 136.035 29.0969C136.938 27.1453 138.111 25.4598 139.556 24.0404C141 22.621 142.805 21.4679 144.791 20.5807C146.777 19.7823 148.944 19.3388 151.11 19.3388C153.367 19.3388 155.443 19.7823 157.429 20.5807C159.415 21.3791 161.13 22.5323 162.664 24.0404C164.109 25.4598 165.282 27.1453 166.185 29.0969C166.997 31.0485 167.539 33.0888 167.539 35.3066ZM156.526 35.4839C156.526 34.0647 155.985 32.8226 154.901 31.7582C153.818 30.6936 152.554 30.1614 151.11 30.1614C149.666 30.1614 148.402 30.6936 147.319 31.7582C146.235 32.8226 145.784 34.0647 145.784 35.4839V45.0647H156.526V35.4839Z" fill="white"/>
<path fill-rule="evenodd" clip-rule="evenodd" d="M5.95772 30.6936C9.29767 30.6936 11.9154 28.0323 11.9154 24.8388C11.9154 21.5566 9.2074 18.9839 5.95772 18.9839C2.70807 18.9839 0 21.5566 0 24.8388C0 28.0323 2.70807 30.6936 5.95772 30.6936Z" fill="white"/>
<path fill-rule="evenodd" clip-rule="evenodd" d="M78.2638 11.7097C81.6037 11.7097 84.2215 9.04838 84.2215 5.85484C84.2215 2.57259 81.5135 0 78.2638 0C74.9239 0 72.2158 2.66129 72.2158 5.85484C72.2158 9.13709 74.9239 11.7097 78.2638 11.7097Z" fill="white"/>
<path fill-rule="evenodd" clip-rule="evenodd" d="M150.659 87.9999C153.999 87.9999 156.617 85.3387 156.617 82.145C156.617 78.8628 153.909 76.2903 150.659 76.2903C147.409 76.2903 144.701 78.9515 144.701 82.145C144.701 85.4274 147.319 87.9999 150.659 87.9999Z" fill="white"/>
</g>
<defs>
<clipPath id="clip0_260:2360">
<rect width="167.538" height="88" fill="white"/>
</clipPath>
</defs>
</svg>
