<svg xmlns="http://www.w3.org/2000/svg" viewBox="0 0 2874 2179"><path fill="#FF0101" d="M330-150c0 2 5 18 12 38 8 27 9 31 15 58 10 47 9 43 10 84 0 33 0 36-2 46-5 30-18 59-38 80-23 25-47 36-83 38-18 1-42 5-54 10-10 3-21 9-29 14-18 11-39 36-43 48l-1 2 2-1c1-1 7-7 13-13 7-6 14-12 17-14 13-7 33-15 47-18 3-1 12-2 19-2 11 0 15 0 35 3 13 1 25 3 26 3 7 0 37-19 54-33 30-25 51-62 58-103 2-12 3-43 2-59-3-32-14-74-29-112-13-34-30-72-31-69z m164 11c-11 25-28 66-33 82-14 42-20 71-20 103-1 29 1 47 8 69 11 33 30 61 56 82 15 12 44 29 50 29 1 0 13-2 25-3 21-3 24-3 36-3 18 1 31 4 51 13 14 6 20 10 34 24 6 6 12 11 12 11 1-1-3-8-6-13-5-7-16-20-23-27-13-11-32-22-49-26-12-4-33-7-48-8-21-1-35-5-50-12-36-18-65-62-72-109-1-7-1-16-1-39 0-39 0-41 10-91 5-24 5-25 15-56 8-24 12-35 11-37 0-1-3 4-6 11z m-179 11c0 1 1 5 2 9 2 7 2 10 2 37-1 29-1 30-3 39-5 21-14 39-31 66-8 12-8 12-6 11 3-2 12-12 19-21 10-13 16-24 22-36 10-20 14-35 15-54l0-11-1 4c-1 3-2 4-3 4-1 0-1-1-2-5-2-17-9-39-13-43-2-1-2-1-1 0z m199 0c-4 5-9 21-12 37-2 13-3 14-5 7l-2-5 1 11c0 12 2 24 6 34 5 18 21 45 36 64 5 6 14 15 14 14 1 0-2-4-5-9-17-26-26-45-31-65-4-13-4-19-4-46 0-23 0-26 2-34 1-5 2-9 2-9 0 0-1 1-2 1z m-175 108c0 25-2 39-5 53-5 19-11 30-21 40-7 7-10 9-29 19-54 29-89 55-106 78-7 9-11 19-11 24 1 2 1 1 7-7 8-10 9-12 22-20 12-9 26-18 37-23 17-7 43-17 62-22 25-8 33-11 38-13 9-5 20-23 25-41 1-6 2-10 2-26 0-17 0-19-1-19-1 0-1 0-6 20l-3 13-1-28c0-29-1-40-4-55-1-4-3-9-4-11l-1-4-1 22z m151-19c-2 3-4 13-6 20-2 14-2 23-3 48l0 27-4-14c-4-19-4-19-6-19-1 0-1 2-1 18 1 17 1 20 3 28 5 18 16 35 26 41 5 2 17 6 38 12 17 5 45 15 61 22 11 6 22 12 35 21 12 9 17 13 22 20 3 3 5 7 7 9l2 2-1-4c-1-10-8-21-20-34-20-21-50-41-95-65-20-11-24-14-32-22-7-7-12-16-16-29-6-18-8-33-8-64 0-11-1-20-1-20 0 0 0 1-1 3z m-162 33c-2 2-8 10-13 18-12 17-24 32-31 37-3 2-9 6-15 9-5 3-14 9-18 12-10 7-34 31-41 40-4 6-10 17-10 19 0 1 3-2 18-15 8-6 17-13 20-16 15-11 29-18 39-19l4-1 6-7c3-5 9-12 13-17 12-17 22-33 26-45 1-3 3-7 4-9 1-2 1-4 1-6l0-4-3 4z m171 0c0 1 1 4 2 6s3 6 4 9c5 14 13 28 31 52 13 17 14 17 17 17 1 0 6 1 9 3 13 4 25 12 48 31 7 6 15 13 17 15 4 2 4 2 3 0-5-17-42-54-68-69-5-2-11-6-14-8-7-5-18-18-32-38-17-24-17-23-17-18z m-35 195c0 1 0 4 1 8 2 6 2 11 3 26 0 22-1 33-4 47-6 27-14 44-46 93-14 21-22 36-21 37 1 0 6 2 11 4 7 3 10 5 10 6 0 0-3 3-6 5s-5 5-5 5c0 1 5 7 11 14 6 7 11 13 10 13 0 1-12-5-19-8-19-12-36-27-36-34 0-1 3-9 6-18s7-19 8-23c2-7 3-9 2-20 0-12 0-13-2-18-3-5-5-8-8-10-1 0-1 0 1 4 6 20 2 44-11 58-6 6-13 9-21 10-6 1-7 1-27-3l-2-1 2 3c1 1 4 3 7 4 6 3 10 7 12 12 2 4 9 10 19 18 33 26 61 42 81 44 15 2 29-3 35-15 3-5 3-7 0-4-7 6-19 4-36-7-6-4-14-11-16-14-1-2-1-3 1-5 2-4 10-11 17-15 7-3 7-3 14-3 6 0 9 1 11 2 1 0 3 1 3 0 1 0 1-2 1-5 0-4 0-5-2-6-4-3-18-4-33-2l-12 1 0-3c0-1 2-6 5-11 7-14 18-29 28-40 7-7 8-9 12-20 6-19 10-42 10-63 0-24-4-46-9-58-3-5-5-9-5-8z m-225 68c-41 4-91 21-131 44-19 12-42 30-58 46-8 9-24 30-35 46-8 12-16 27-15 28 0 1 5-3 11-9 21-20 39-33 58-46 12-7 35-19 39-20 3-1 3-1 2 1-1 1-9 10-18 20-26 26-44 50-58 78-19 41-31 78-33 112-1 10-1 14 1 33 1 12 2 23 2 24 1 2 1 1 6-10 2-8 8-21 12-31 8-22 9-26 16-39 15-27 32-52 34-50 0 0-3 11-7 23-13 39-15 53-16 91 0 28 1 41 4 59 4 21 10 41 18 62 5 14 16 36 19 39l2 2-1-2c0-1-2-9-4-17-8-33-9-50-9-89 1-29 2-37 7-63 4-19 9-35 12-35 0 0 0 1 0 3 0 13 10 45 22 78 13 31 35 70 53 93 6 8 38 40 49 50 12 11 31 23 47 33 13 7 45 23 59 29 12 4 22 8 31 10l3 0-2-2c-1-1-7-5-13-9-6-4-13-9-16-11-38-33-58-54-78-82-30-41-52-94-61-143-3-20-4-29-4-51 0-27 2-44 7-69 4-23 15-59 23-80 6-14 20-43 31-64 10-18 16-29 16-30-1 0-13 13-19 21-15 20-41 60-52 82-18 34-30 73-36 115-2 19-3 60 0 77 4 29 13 61 25 85 4 8 7 14 6 14-1 1-9-9-15-18-23-34-37-66-46-106-7-26-8-37-9-76l0-32-3 3c-5 4-13 16-22 36-14 27-19 35-18 28 2-11 6-23 18-50 11-26 19-42 29-53 3-3 6-7 7-8l2-3-7 1c-12 1-19 3-35 11-8 4-16 8-17 8l-3 1 4-7c12-17 37-46 60-72 22-23 30-31 41-39 22-16 25-18 25-19-1 0-17 3-28 6-22 5-28 6-40 6l-12 1 2-2c5-9 36-24 82-42 19-7 45-18 50-20l3-1-5 0c-2 0-8 0-12 1z m336-1c1 0 26 10 50 20 46 18 76 32 83 41l3 3-8 0c-10 1-20-1-41-6-10-2-19-4-22-5-2 0-5 0-6-1-1 0-1 0-1 1 0 0 8 6 17 13 18 13 24 20 48 46 17 17 27 29 40 45 11 13 24 31 23 31-1 1-10-2-20-8-6-3-13-6-17-8-6-2-21-4-23-3-1 0 2 4 7 9 11 13 19 27 30 53 4 11 9 24 11 30 4 11 7 22 6 23-1 1-3-3-13-24-14-27-19-35-24-41l-5-4-1 32c0 36-1 45-5 66-3 12-6 22-12 42-7 20-16 39-29 62-11 17-22 32-23 30 0-1 2-6 5-13 8-16 15-36 21-60 5-21 6-31 6-62 0-22 0-30-1-39-6-41-17-78-33-111-14-27-42-71-59-93-7-8-15-17-15-16 0 1 4 8 16 32 23 40 32 61 43 98 10 35 15 62 17 93 3 48-4 93-24 142-21 52-54 97-102 139-19 17-20 18-32 26-15 10-16 11-9 10 24-5 74-29 104-49 16-11 26-19 48-40 20-19 26-25 34-36 15-20 34-54 45-79 14-34 26-73 26-88 0-12 8 7 13 32 5 27 6 33 6 65 1 40-1 53-10 91-1 8-3 15-3 15 1 0 5-6 9-15 17-33 29-75 33-108 1-14 1-55-1-68-2-21-7-40-15-63-4-13-7-22-6-22 4 0 33 47 42 68 2 4 7 18 12 32 5 13 10 26 11 28 2 3 2 4 3 2 0-2 1-12 2-23 2-24 2-35-1-53-7-40-27-90-48-122-12-17-24-32-40-48-9-10-18-19-19-20l-1-3 2 1c7 2 36 17 53 29 11 8 30 24 44 36 6 6 11 11 12 10 0-1-8-17-16-28-11-18-26-37-35-46-8-9-23-22-35-30-44-34-108-58-162-61-4 0-8 0-8 0z m-235 265c-1 3-1 6-2 7 0 1 0 1 2 1 2 0 3 1 4 2 2 3 19 31 19 31 0 1-1 1-2 1-3 0-5 1-5 2 0 0 4 0 9 0h9l1-18 0-18 2 0c2 1 3 0 2-1 0-1-1-5-1-7-1-7-3-7-3 0l-1 5-4 0c-2 1-8 1-14 1-13 0-13 0-13-7 0-7-2-6-3 1z m27 25c0 10 0 16-1 16-1-1-18-31-18-33 0 0 3 0 9 0l10 0 0 17z m76-20c-9 3-13 9-14 18-1 9 2 15 10 19 5 3 13 4 19 2 6-1 6-1 6-6-1-5-2-6-2-2 0 2-3 5-6 6-1 0-4 0-7 0-4-1-5-1-7-3-4-4-5-7-5-13 0-9 4-16 12-18 4-1 10 0 13 2 2 1 3 1 2 0 0-4-14-7-21-5z m-198 2c0 0 1 1 2 1 1 0 2 0 2 1 0 1 1 8 1 17v15l-3 1c-1 1-2 1-2 2 0 0 4 0 8 0s9 0 9 0-1-1-2-2l-3-1v-15c0-8 0-14 0-14s5 7 9 16l9 16h6c6 0 8-1 4-2-2 0-3-3-3-17 0-15 1-17 3-17 1 0 2-1 2-1 0-1-2-1-8-1-8 0-11 1-7 2 2 0 2 0 2 15l1 15-2-3c-1-1-5-9-9-16l-7-13-6 0c-5 0-6 0-6 1z m46 0c0 0 1 1 2 1 3 0 3 1 3 18 0 12 0 14-1 15-1 1-2 2-3 2 0 0-1 0-1 0 0 1 4 1 9 1 8 0 11-1 6-2l-2 0v-7-7h9 9v6c0 7-1 9-3 9-1 0-2 0-2 0 0 1 4 1 9 1s9 0 9-1c0 0-1 0-2 0 0 0-1-1-2-2-1-1-1-3-1-15 0-17 0-18 3-18 1 0 2-1 2-1 0-2-17-2-18 0 0 0 1 1 2 1l3 0 0 8 0 8h-9-9l0-8 0-8 3 0c1 0 2-1 2-1-1-2-18-2-18 0z m92-1c-1 1 0 2 1 2 3 0 4 2 11 21 8 21 8 21 18-2 5-13 8-18 9-19 1-1 2-1 2-2 0 0-4 0-8 0-7 0-9 0-9 1 0 0 1 1 2 1 3 0 3 0 1 6l-2 4h-7-7l-1-4c-2-5-2-6 0-6 1 0 2-1 2-1 0-1-1-1-6-1-3 0-6 0-6 0z m24 14c0 2-6 14-6 13-1 0-6-10-6-12 0-1 2-1 6-1 3 0 6 0 6 0z m70-13c0 0 1 1 2 1 1 0 2 0 2 1 1 1 1 8 1 17v15h-5c-6 0-7-1-7-4 0-1 0-2-1-2s0 2-1 5l0 4h18 17l0-4c0-3-1-5-1-5s-1 1-1 2c0 3-1 4-6 4h-6l1-16 0-17 2 0c1 0 2-1 2-1 0-1-2-1-8-1-7 0-9 0-9 1z m30 0c0 0 1 1 2 1 2 0 2 0 2 17l0 17-2 0c-5 2-1 2 10 2 13 0 16-1 18-5 1-3 0-8-3-11-2-2-4-3-5-3-3-1-7 0-8 1 0 0 1 0 2 0 4-1 8 6 6 11-1 3-3 5-6 5-4 0-4-1-4-16 0-16 0-18 3-18 1 0 2-1 2-1 0-1-2-1-8-1-7 0-9 0-9 1z m34 0c0 0 1 1 2 1l3 0 0 17 0 16-2 1c-2 1-3 1-3 2 0 0 4 0 9 0s8 0 8 0-1-1-2-2l-3-1v-15c0-8 1-14 1-14 0 0 4 7 9 16l8 16h6c6 0 8-1 4-2-2 0-3-3-2-18 0-14 0-16 3-16 1 0 1-1 1-1 0-1-2-1-8-1-6 0-8 0-8 1 0 0 1 1 2 1 2 0 2 0 2 15l0 15-5-10c-3-5-7-12-9-16l-3-6-7 0c-4 0-6 0-6 1z m36 65c-7 2-12 6-15 11-4 7-5 10-5 19 0 8 2 14 7 19 3 4 11 8 17 9 10 2 32-1 30-4 0-1 0-4-1-7 0-5 0-6-2-6-1 0-1 1-1 4 0 2-1 4-2 5-7 6-21 6-29-1-4-4-6-9-6-16-2-21 15-35 35-28 7 3 7 3 6 0-2-4-8-6-20-7-7 0-10 0-14 2z m-336 1c0 1 1 2 2 2 3 0 4 2 4 4 0 2 0 2-8 3-15 1-21 7-22 20 0 5 0 7 2 10 3 6 13 10 25 10 3 0 4 0 3 1 0 2-2 4-5 4-1 0-2 0-2 1 0 2 1 2 14 2 12 0 13 0 13-1 0-1-1-2-3-2-3-1-4-2-4-4 0-1 2-1 7-2 4 0 9-1 11-1 13-4 17-21 7-32-5-4-9-6-19-7-5 0-6-1-6-2 0-2 1-3 4-4 2 0 3-1 3-2 0-1-1-1-13-1-13 0-14 0-13 1z m7 28v18l-5-1c-8-1-12-3-13-12-1-3-1-5 0-9 1-8 7-12 15-13l3 0v17z m21-15c7 3 9 8 9 18-1 9-5 14-13 14l-5 1-1-4c0-5 0-23 0-28 1-3 1-3 4-3 2 0 4 1 6 2z m31-14c0 1 1 2 3 2l2 2v24c0 26 0 26-5 27-2 0-3 1-3 2 0 1 1 1 22 1h21l0-2c0-5-1-10-2-10 0 0-1 1-1 3-1 3-1 4-5 4-5 1-13 1-14 0-2 0-2-2-2-10v-11l8 0 8 1 0 3c1 1 2 3 2 3 1 0 1-2 1-9 0-9 0-9-1-9-2 0-2 0-2 3 0 3-2 4-10 4h-6v-12-12l8 0c4 0 9 0 11 1 3 0 3 0 4 4 1 3 1 5 3 5 1 0 1 0 1-3-1-2-1-5-1-7l0-4h-21c-11 0-21 0-21 0z m50 1c0 1 1 2 2 2 2 0 3 1 4 1 0 1 0 12 0 25 0 25 0 26-4 26-2 0-2 0-2 1 0 2 0 2 12 2 13 0 13 0 13-2 0-1 0-1-3-1-4-1-4-2-4-13 0-8 0-9 2-9 2-1 23-1 25 0 1 0 1 2 1 7 0 3 0 8-1 10 0 4 0 4-3 5-3 0-3 0-3 1 0 2 0 2 13 2s12 0 12-2c0-1 0-1-3-1l-3-1 0-5c-1-7-1-33 0-40l0-5 3-1c2 0 3-1 3-2 1-1 0-1-12-1s-13 0-13 1c0 1 1 2 3 2 3 0 3 1 3 5 1 2 1 7 1 12l0 8h-14-14v-9c0-11 0-15 2-15 0-1 2-1 3-1s2-1 2-2c0-1-2-1-13-1-12 0-13 0-12 1z m70 0c0 1 1 1 3 2 1 0 2 0 3 1 0 0 1 1 1 2 1 4 1 44 0 46 0 2-1 2-4 3-2 0-3 0-3 1 0 2 1 2 13 2 13 0 13 0 13-2 0-1 0-1-2-1-2 0-3-1-4-1 0-1-1-8 0-23l0-22 13 24 13 25h9c9 0 9 0 9-2 0-1 0-1-3-1-3-1-3-1-3-5-1-6-1-37 0-42 0-4 0-5 3-5 2 0 3-1 3-2 0-1-1-1-13-1s-13 0-12 1c0 1 1 2 3 2l3 1 0 5c1 8 1 39 0 39 0 0-6-11-13-24l-12-24-10 0c-8 0-10 0-10 1z m70 0c0 1 1 1 3 2 1 0 2 0 3 1 0 0 1 1 1 2 1 4 1 44 0 46 0 2-1 2-4 3-2 0-3 0-3 1 0 2 1 2 13 2 12 0 13 0 13-2 0-1-1-1-2-1-4 0-5-1-5-14v-12l4 4c2 2 7 7 11 12 7 7 7 8 7 10l-1 3h9c8 0 9 0 9-2 0-1-1-1-3-1-4 0-8-3-19-14l-8-8 14-14c9-9 15-15 17-16 2 0 3-1 3-2 0-1-2-1-8-1-4 0-8 0-9 0-1 1-7 7-13 14l-12 14 0-11c-1-13-1-14 3-14 2 0 3-1 3-2 0-1-1-1-13-1-11 0-13 0-13 1z"/></svg>