<svg xmlns="http://www.w3.org/2000/svg" width="271" height="341" viewBox="0 0 271 341"><g><g><path fill="#fa3950" d="M132.269 68.954C132.269 30.865 163.134 0 201.223 0c38.09 0 68.955 30.865 68.955 68.954 0 38.09-30.866 68.955-68.955 68.955H132.27l20.194-20.194c-12.478-12.477-20.194-29.716-20.194-48.76z"/></g><g><path fill="#fff" d="M218.236 74.924a5.977 5.977 0 0 1-5.972-5.983 5.977 5.977 0 0 1 5.972-5.983 5.977 5.977 0 0 1 5.972 5.983 5.977 5.977 0 0 1-5.972 5.983z"/></g><g><path fill="#fff" d="M200.862 74.923a5.977 5.977 0 0 1-5.972-5.982 5.977 5.977 0 0 1 5.972-5.983 5.977 5.977 0 0 1 5.972 5.983 5.977 5.977 0 0 1-5.972 5.982z"/></g><g><path fill="#fff" d="M183.488 74.923a5.977 5.977 0 0 1-5.972-5.982 5.977 5.977 0 0 1 5.972-5.983 5.977 5.977 0 0 1 5.972 5.983 5.977 5.977 0 0 1-5.972 5.982z"/></g><g><path fill="#192a4c" d="M44.882 50.962c3.152 9.349 7.986 17.868 17.837 17.868 9.851 0 17.282-8.016 17.837-17.868.71-12.59-7.759-17.92-17.837-17.868-11.906.061-21.578 6.772-17.837 17.868z"/></g><g><path fill="#dca7a3" d="M85.943 139.242l-1.482 11.134-34.458-2.227 1.853-10.021z"/></g><g><path fill="#dca7a3" d="M69.64 73.547s-4.446 12.248 4.076 14.104c8.521 1.856-1.482 10.021-1.482 10.021l-13.339-.742-9.263-2.598-2.964-5.196s11.486-5.939 8.151-15.218z"/></g><g><path fill="#f6cecb" d="M43.704 122.168l-.74 28.208a26.639 26.639 0 0 1-7.781 9.279c-5.188 3.711-19.638 8.908-19.638 8.908s-13.338 16.33-15.19 5.196c-1.853-11.135 11.485-12.62 11.485-12.62s16.673-13.361 17.785-15.96c1.111-2.597 2.223-18.928 1.852-22.64-.37-3.711 12.227-.371 12.227-.371z"/></g><g><path fill="#f6cecb" d="M86.684 269.147l-8.893 43.796-9.263-1.484 2.224-42.312z"/></g><g><path fill="#f6cecb" d="M44.445 267.662L25.92 303.663l-8.521-2.969 9.633-40.827z"/></g><g><path fill="#f6cecb" d="M92.242 119.57l2.593 24.497 30.383 28.208s20.378 12.62 9.263 15.217c-11.116 2.599-16.303-10.392-16.303-10.392l-32.976-22.27s-1.482-32.661 0-34.146c1.482-1.484 7.04-1.113 7.04-1.113z"/></g><g><path fill="#005bfd" d="M45.927 88.022s8.893 5.196 17.785 3.34c8.892-1.855 10.374-4.453 10.374-4.453s11.486 1.855 12.598 6.31c1.111 4.453 0 11.134 0 11.134s10.004 10.763 1.482 23.754l-1.853 15.217s-25.195-3.711-31.123 0c-5.928 3.712-7.78.743-7.78.743l-4.076-18.187L30.366 97.3s0-3.71 7.04-5.938c7.04-2.227 8.521-3.34 8.521-3.34z"/></g><g><path fill="#005bfd" d="M35.182 93.96l-4.816 3.712s-4.817 26.352-.741 27.094c4.075.743 17.414 2.599 17.414 0 0-2.598-11.857-30.805-11.857-30.805z"/></g><g><path fill="#005bfd" d="M84.09 91.733h2.594s8.892 6.31 10.375 13.362c1.482 7.052 5.557 14.475 2.223 15.217-3.335.743-13.339 3.712-14.82 2.599-1.483-1.114-.371-31.178-.371-31.178z"/></g><g><path fill="#14213a" d="M49.124 145.192l36.82-.011 1.481 5.567s52.613 91.676 44.462 100.584c-8.151 8.907-10.004 2.969-11.857 8.907-1.852 5.939-13.338 18.558-20.748 17.445-7.41-1.114-30.383-5.568-43.721 0-13.339 5.567-47.055-8.537-47.055-12.991 0-4.454 39.645-114.316 39.645-114.316z"/></g><g><path fill="#14213a" d="M67.788 309.603l12.597 3.34s-4.076 8.165 0 12.248 8.522 15.217 1.853 15.589c-6.67.37-13.71-4.083-13.71-4.083v-4.083h-3.334l-3.335-1.856s.37-6.68 0-7.794c-.37-1.113 1.853-10.021 3.335-10.021s2.594-3.34 2.594-3.34z"/></g><g><path fill="#14213a" d="M16.287 298.096l12.968 4.083s-5.929 17.445-5.558 20.414c.37 2.97.74 18.558-6.299 18.186-7.04-.37-10.004-7.794-10.374-8.536-.37-.742 1.482-7.052 1.482-7.052l-1.482-2.227-1.112-1.485s.741-1.855 2.594-7.052c1.852-5.196 5.187-6.31 5.187-6.31z"/></g><g><path fill="#192a4c" d="M62.719 36.855c-3.889 0-7.041-3.158-7.041-7.053 0-3.896 3.152-7.053 7.04-7.053 3.89 0 7.042 3.157 7.042 7.053 0 3.895-3.153 7.053-7.041 7.053z"/></g><g><path fill="#192a4c" d="M71.168 26.04a7.06 7.06 0 0 0-1.819-4.73 7.037 7.037 0 0 0-4.517-2.287 7.035 7.035 0 0 1 5.683 2.03 7.06 7.06 0 0 1 0 9.975 7.035 7.035 0 0 1-5.683 2.03 7.037 7.037 0 0 0 4.517-2.286 7.06 7.06 0 0 0 1.82-4.731z"/></g><g><path fill="#f6cecb" d="M62.23 80.97c-8.594 0-15.561-6.979-15.561-15.588 0-8.61 6.967-15.589 15.561-15.589 8.595 0 15.562 6.98 15.562 15.589 0 8.61-6.967 15.588-15.562 15.588z"/></g><g><path fill="#192a4c" d="M67.898 46.025s.147-.82 5.897 1.34 9.197 18.1 6.322 27.46c-1.159 3.772-.216 6.491 1.322 8.394 5.773 7.14 3.5 17.866-4.908 21.538-.237.103-.48.206-.727.307l-3.593 2.16s4.58-6.038 2.288-13.762a39.668 39.668 0 0 1-.713-20.274c.263-1.132.562-2.298.901-3.487 2.875-10.08 1.477-8.916-8.586-18.996 0 0-5.75 4.32-10.78 6.48-5.032 2.16-9.345 4.32-5.75 11.52 3.593 7.2 12.218 13.68 6.468 23.04s-6.469 5.76-5.75 9.36l.719 3.6-4.313-4.32 2.875 5.76s-9.344 0-12.219-7.2l-1.437 1.44s-5.75-10.08 5.031-19.44c0 0 3.594-2.16-1.437-9.36-5.032-7.2-1.168-22.68 5.301-25.56 6.469-2.88 23.09 0 23.09 0z"/></g></g></svg>