<svg id="Layer_1" data-name="Layer 1" xmlns="http://www.w3.org/2000/svg" viewBox="0 0 1556.79 1297.32">
  <defs>
    <style>
      .cls-1, .cls-2, .cls-3 {
        fill: #126650;
      }

      .cls-1, .cls-2 {
        stroke: #126650;
        stroke-miterlimit: 10;
      }

      .cls-1 {
        stroke-width: 5px;
      }

      .cls-2 {
        stroke-width: 11.29px;
      }
    </style>
  </defs>
  <title>Artboard 3</title>
  <g>
    <path class="cls-1" d="M1096.05,462.76C1087.42,454.93,991.38,445,960.56,445c-2.57,0-4.63.07-6.22.22-14.87,1.22-24.91.73-44.46,2.87-.11,0-.17,0-.3,0-.3,0-.64.13-.94.15a4.35,4.35,0,0,1-.52.06c-.57.05-1.16.24-1.73.32-11.87,1.65-26.15,7.23-39.37,15.66-2.94,1.76-4.78,3-4.78,3S837.32,450.31,795,444.67c-33.43-4.45-61.35-4.78-86.25-7.32A222.11,222.11,0,0,0,685,436.08c-57.44,0-121,21.95-157.64,79.72-14.55,22.91-37.94,66.75-37.94,141.07,0,53.15,11,111.66,9,162.77-24.54,52.65-5,81.94,32.35,81.94a82.66,82.66,0,0,0,14.24-1.3c36.89-6.28,38.76-31,63.21-56.55,5.68-5.57,5.13-7.23,36.52-24.22a69.45,69.45,0,0,0,30.43,7.25c10.7,0,23-2.67,35.73-10.64,26-16.22,28.83-39.4,25.88-54.46,29.12-11.59,82.7-24.91,96.46-48a2.56,2.56,0,0,1,1.65-.56c6.49,0,21,19.32,47.25,29.82a16.75,16.75,0,0,0,6.28,1.24c11.17,0,18.66-11.79,3.15-18.88A81.89,81.89,0,0,1,863,703.47c1.84.18,3.76.3,5.77.3a67,67,0,0,0,9.4-.7c62.4-9.44,131.53-66.84,180.22-112.46C1081.57,569.13,1141.21,505.43,1096.05,462.76Zm-395.37,337c-17.31,10.8-33.17,8-42.54,4.54,3.43-9.54,7.49-22.23,20-29.39a48.65,48.65,0,0,1,25.38-6.56c4.86,0,9.21.49,13,.49.66,0,1.22-.11,1.84-.15C719.1,776.86,717.06,789.54,700.68,799.77ZM821.22,698.53a19.17,19.17,0,0,0-4.56,5.24C809.56,715.7,774,729,752.79,736.33c-14.46,5-27,5.67-36,15.22h-.25c-1.44,0-2.94-1.08-4.56-1.18-2.63-.16-5.43-.81-8.42-.81a67.13,67.13,0,0,0-35,8.88c-18,10.34-24.29,27.68-28.07,38.09-.33,1-.74,2-1.15,3.07a9.8,9.8,0,0,0-3.19,2.67c-29.16,15.76-34,20-39.86,26.12l-1.94,2c-8.86,9.23-14.92,18.07-20.28,25.89-10.06,14.69-15.1,22.06-32.34,25a63,63,0,0,1-10.94,1c-7.12,0-16.55-1.44-20.9-8.32-5.63-8.78-3.34-26.05,6-46.18a19.49,19.49,0,0,0,1.8-7.4c1.12-28.83-1.7-59.79-4.42-89.72-2.25-24.7-4.59-50.22-4.59-73.8,0-75.71,26.3-117.13,34.93-130.72C584.14,462.27,656,455.37,685,455.37a205.63,205.63,0,0,1,21.77,1.17c9.94,1,20.35,1.7,31.38,2.39,17,1.1,34.56,2.24,54.28,4.86,27.12,3.62,46.17,12.34,54.43,16.74a77.72,77.72,0,0,0-13.07,17.14c-13.8,25.67-20.53,59.86-20.53,104.55,0,51.38,8.76,78.36,16.75,92.39A21.36,21.36,0,0,0,821.22,698.53Zm224-122C975.22,642.15,919.64,677.3,875.48,684a48.34,48.34,0,0,1-6.69.5,34,34,0,0,1-3.71-.18,18,18,0,0,0-2.06-.12,19.33,19.33,0,0,0-13.2,5.37c-5.27-6.77-17.3-28.65-17.3-87.32,0-41.42,6-72.6,18.24-95.4,5.77-10.77,16.66-20.21,28.12-27.21,8-4.59,21.09-11,31.46-12.22,12-1.37,20.24-1.71,28.24-2,5.59-.22,11-.46,17.49-1,1.14-.11,2.64-.13,4.49-.13,31.62,0,108.23,8.9,124,14.23,6,6.27,8.74,13,8.7,21.09C1093.1,523.61,1068.38,555.05,1045.22,576.54Z"/>
    <path class="cls-1" d="M662.51,516.22c-3,.15-74.67,5.27-82.58,124a9.65,9.65,0,0,0,9,10.27c.21,0,.44,0,.66,0a9.64,9.64,0,0,0,9.61-9c6.7-100.73,62-105.91,64.42-106.08a9.62,9.62,0,0,0,9-10.13C672.38,520,668,515.6,662.51,516.22Z"/>
  </g>
  <path class="cls-2" d="M1253.78,649.94l55.4,58.68a28.38,28.38,0,0,1,6,17.16q0,9-8.91,16.39t-22,7.71q-13.11.36-21.19-8.31l-48.8-52.11-48.81,52.11q-8.39,9-21.26,8.61t-21.71-7.87q-8.82-7.47-8.82-16.53a28.37,28.37,0,0,1,6-17.16l55.1-58.68-55.1-60.19a28.59,28.59,0,0,1-6-17.36q0-9.28,8.75-17t21.71-8.24q12.95-.52,21.33,8.76l48.81,53.6,48.8-53.6q8.25-9,21.35-8.61t21.92,8q8.85,7.63,8.84,17a28.72,28.72,0,0,1-6,17.44Z"/>
  <path class="cls-3" d="M1214.26,704.09l-17.1,18.25c-35.06,203.06-212.46,358-425.38,358-238,0-431.69-193.66-431.69-431.69S533.74,217,771.78,217c213.31,0,391,155.53,425.58,359.14l16.9,18.56,17.68-19.42c-35.31-222.17-228.21-392.54-460.16-392.54-256.93,0-465.95,209-465.95,465.95s209,465.95,466,465.95c231.68,0,424.4-170,460-391.77Z"/>
</svg>
