<svg width="46" height="46" viewBox="0 0 46 46" fill="none" xmlns="http://www.w3.org/2000/svg">
<path d="M23 0C10.2974 0 0 10.2974 0 23C0 35.7026 10.2974 46 23 46C35.7026 46 46 35.7026 46 23C46 10.2974 35.7026 0 23 0ZM28.0902 13.1676C30.8232 13.1249 33.2948 14.6107 34.4665 17.1437C35.5503 20.4923 34.6433 23.899 32.7319 26.4663C31.4702 28.2073 29.9624 29.7087 28.4208 31.0206C27.0026 32.3408 23.8282 34.9533 22.9869 35.0258C22.2433 34.8836 21.4086 34.0415 20.8183 33.6087C17.5011 31.0871 13.931 28.0219 12.1205 24.6691C10.6024 21.4502 10.5997 17.4676 12.9623 14.9998C16.0257 12.238 20.6439 12.7786 22.9869 15.664C23.6161 14.8477 24.3901 14.2048 25.3084 13.7371C26.2391 13.3656 27.1792 13.1819 28.0902 13.1676Z" fill="#FCB3D4"/>
</svg>
