<svg xmlns="http://www.w3.org/2000/svg" width="32" height="32" viewBox="0 0 32 32"><g><g><path fill="#0091ff" d="M16 29.09C8.782 29.09 2.91 23.219 2.91 16S8.781 2.91 16 2.91 29.09 8.781 29.09 16 23.219 29.09 16 29.09zM16 0C7.178 0 0 7.178 0 16s7.178 16 16 16 16-7.178 16-16S24.822 0 16 0z"/></g><g><path fill="#0091ff" d="M15.999 6.79c-1.07 0-1.939.87-1.939 1.94 0 1.07.87 1.939 1.939 1.939 1.07 0 1.939-.87 1.939-1.939 0-1.07-.87-1.94-1.939-1.94z"/></g><g><path fill="#0091ff" d="M16.005 13.58c-.804 0-1.455.651-1.455 1.455v8.727a1.455 1.455 0 0 0 2.909 0v-8.727c0-.804-.651-1.455-1.454-1.455z"/></g></g></svg>