<svg xmlns="http://www.w3.org/2000/svg" width="38" height="64" viewBox="0 0 38 64"><g><g><path fill="#0091ff" d="M34.78 56H3.619V6.855h31.163zM19.2 61.849a2.165 2.165 0 0 1-2.162-2.169 2.162 2.162 0 1 1 4.323 0c0 1.2-.97 2.169-2.162 2.169zM14.635 3.114h9.137a.522.522 0 1 1 0 1.042h-9.137a.522.522 0 1 1 0-1.042zM33.466 0H4.933A4.335 4.335 0 0 0 .61 4.323v55.352a4.336 4.336 0 0 0 4.323 4.323h28.533a4.334 4.334 0 0 0 4.323-4.323V4.323A4.335 4.335 0 0 0 33.466 0z"/></g><g><path fill="#0091ff" d="M21.127 35.126c-2.033 0-3.681-1.687-3.681-3.768 0-2.081 1.648-3.768 3.681-3.768 2.033 0 3.681 1.687 3.681 3.768 0 2.081-1.648 3.768-3.68 3.768zm-5.8-6.295c0 .351-.28.64-.624.64h-1.66a.634.634 0 0 1-.624-.64v-.509c0-.352.28-.64.625-.64h1.659c.344 0 .625.288.625.64zm10.923-4.115h-2.906v-.82a.887.887 0 0 0-.875-.896H15.53a.887.887 0 0 0-.875.896v.82H11.75c-.965 0-1.75.803-1.75 1.791v9.702c0 .988.785 1.791 1.75 1.791h14.5c.965 0 1.75-.803 1.75-1.791v-9.702c0-.988-.785-1.791-1.75-1.791z"/></g></g></svg>