<svg xmlns="http://www.w3.org/2000/svg" width="223" height="142" viewBox="0 0 223 142"><g><g opacity=".04"><path fill="#010002" d="M151.742 53.43c-1.99 3.69-4.352 6.871-7.093 9.554-2.733 2.682-7.648 7.19-14.743 13.528-1.956 1.788-3.53 3.358-4.71 4.71-1.179 1.355-2.06 2.593-2.635 3.718a17.916 17.916 0 0 0-1.34 3.375c-.314 1.12-.788 3.097-1.43 5.922-1.092 5.994-4.521 8.99-10.285 8.99-2.997 0-5.515-.978-7.568-2.938-2.045-1.96-3.064-4.869-3.064-8.73 0-4.84.75-9.033 2.25-12.58 1.49-3.547 3.484-6.657 5.96-9.339 2.481-2.682 5.822-5.864 10.032-9.553 3.69-3.228 6.356-5.662 7.997-7.304a24.719 24.719 0 0 0 4.147-5.49c1.13-2.019 1.683-4.206 1.683-6.569 0-4.613-1.708-8.5-5.141-11.668-3.43-3.17-7.854-4.756-13.273-4.756-6.343 0-11.01 1.599-14.008 4.797-2.997 3.199-5.528 7.908-7.606 14.133-1.964 6.515-5.683 9.772-11.153 9.772-3.228 0-5.952-1.138-8.172-3.413-2.217-2.275-3.325-4.739-3.325-7.392 0-5.473 1.759-11.022 5.273-16.642 3.517-5.62 8.647-10.276 15.392-13.961 6.74-3.69 14.612-5.537 23.599-5.537 8.357 0 15.732 1.545 22.13 4.63 6.396 3.08 11.341 7.274 14.83 12.58 3.483 5.3 5.23 11.064 5.23 17.289.008 4.89-.987 9.185-2.977 12.874zm-32.292 80.053c-2.59 2.305-5.59 3.463-8.99 3.463-3.518 0-6.587-1.138-9.206-3.417-2.623-2.275-3.937-5.46-3.937-9.553 0-3.631 1.272-6.687 3.807-9.164 2.536-2.476 5.646-3.714 9.335-3.714 3.631 0 6.687 1.238 9.168 3.714 2.477 2.477 3.72 5.532 3.72 9.164-.005 4.033-1.303 7.203-3.897 9.507zM111.505-40C49.943-40 0 9.878 0 71.441 0 133.064 49.943 183 111.504 183 173.1 183 223 133.063 223 71.441 223 9.878 173.1-40 111.505-40z"/></g></g></svg>