<svg xmlns="http://www.w3.org/2000/svg" width="59" height="59" viewBox="0 0 59 59"><g><g><g><g><g><path fill="#fff" d="M29.484 4.778c13.624 0 24.707 11.084 24.707 24.706 0 13.623-11.083 24.707-24.707 24.707-13.623 0-24.706-11.084-24.706-24.707 0-13.622 11.083-24.706 24.706-24.706zm0-4.778C13.226 0 0 13.227 0 29.484 0 45.742 13.226 58.97 29.484 58.97c16.258 0 29.485-13.227 29.485-29.485C58.969 13.227 45.742 0 29.484 0z"/></g></g><g><g><path fill="#fff" d="M31.874 15.902v29.053a2.39 2.39 0 1 1-4.779 0V15.902a2.39 2.39 0 0 1 4.779 0z"/></g></g><g><g/></g><g><g><path fill="#fff" d="M31.874 15.9c0 .799-.401 1.58-1.13 2.032l-10.76 6.672a2.39 2.39 0 1 1-2.518-4.061l10.76-6.672a2.39 2.39 0 0 1 3.648 2.028z"/></g></g><g><g><path fill="#fff" d="M42.633 22.575a2.39 2.39 0 0 1-3.649 2.028l-10.759-6.67a2.39 2.39 0 1 1 2.519-4.062l10.759 6.671a2.388 2.388 0 0 1 1.13 2.033z"/></g></g></g></g></g></svg>