<?xml version="1.0" encoding="UTF-8"?>
<svg width="38px" height="44px" viewBox="0 0 38 44" version="1.1" xmlns="http://www.w3.org/2000/svg" xmlns:xlink="http://www.w3.org/1999/xlink">
    <!-- Generator: Sketch 60.1 (88133) - https://sketch.com -->
    <title>drag</title>
    <desc>Created with Sketch.</desc>
    <defs>
        <path d="M30.1460004,4 C30.1460004,4 30.1460004,3 30.1460004,3 C30.1460004,1.34300041 31.4890003,0 33.1460004,0 C34.8029995,0 36.1460004,1.34300041 36.1460004,3 C36.1460004,3 36.1460004,16.0009999 36.1460004,16.0009999 C36.1460004,20.4189997 32.5640001,24 28.1460004,24 C28.1460004,24 20.872,23.9989996 20.872,23.9989996 C17.69,23.9980001 14.6389999,22.7340002 12.3889999,20.4840002 C12.3889999,20.4840002 1.0249996,9.12100005 1.0249996,9.12100005 C-0.1469994,7.94899988 -0.1469994,6.05000019 1.0249996,4.87799978 C2.1969995,3.70600033 4.0959997,3.70600033 5.26799965,4.87799978 C5.26799965,4.87799978 12.145,11.755 12.145,11.755" id="path-1"></path>
    </defs>
    <g id="User-Flow" stroke="none" stroke-width="1" fill="none" fill-rule="evenodd">
        <g transform="translate(-1391.000000, -1428.000000)" id="drag">
            <g transform="translate(1373.000000, 1412.000000)">
                <g id="Clipped">
                    <g id="Group-Clipped">
                        <mask id="mask-2" fill="white">
                            <use xlink:href="#path-1"></use>
                        </mask>
                        <g id="path-7"></g>
                    </g>
                </g>
                <path d="M40.5389306,23.5846703 C40.5389306,27.1520329 37.647609,30.0433545 34.0802463,30.0433545 C30.5128837,30.0433545 27.6215621,27.1520329 27.6215621,23.5846703 C27.6215621,20.0173076 30.5128837,17.125986 34.0802463,17.125986 C37.647609,17.125986 40.5389306,20.0173076 40.5389306,23.5846703 Z" id="Path" stroke="#090590" stroke-width="1.96001601" fill="#090590" fill-rule="nonzero" stroke-linecap="round" stroke-linejoin="round"></path>
                <rect id="Rectangle" fill="#CBD5DB" fill-rule="nonzero" x="35" y="35" width="14" height="5"></rect>
                <g id="Path" stroke-linecap="round" stroke-linejoin="round" transform="translate(18.400042, 21.319872)" fill="#CBD5DB" fill-rule="nonzero" stroke="#030077" stroke-width="1.96001601">
                    <g id="Group" transform="translate(12.740104, 0.860447)">
                        <path d="M0,24.3806394 C0,24.3806394 8.20118928e-05,3.74460742 8.20118928e-05,3.74460742 C8.34138055e-05,2.12073409 1.31623515,0.804585736 2.94010844,0.804585736 C4.5639817,0.804585736 5.88013005,2.12073876 5.88013005,3.74461162 C5.88013005,3.74461162 5.88004804,14.8196813 5.88004804,14.8196813" id="Path"></path>
                    </g>
                    <g id="Group" transform="translate(18.620152, 10.290084)">
                        <path d="M0,5.39004403 C0,5.39004403 0,3.43002802 0,3.43002802 C0,1.80615481 1.31615081,0.490004003 2.94002402,0.490004003 C4.56389723,0.490004003 5.88004804,1.80615481 5.88004804,3.43002802 C5.88004804,3.43002802 5.88004804,5.39004403 5.88004804,5.39004403" id="Path"></path>
                    </g>
                    <g id="Group" transform="translate(24.500200, 11.270092)">
                        <path d="M0,4.41003603 C0,4.41003603 0,3.43002802 0,3.43002802 C0,1.80615481 1.31615081,0.490004003 2.94002402,0.490004003 C4.56389723,0.490004003 5.88004804,1.80615481 5.88004804,3.43002802 C5.88004804,3.43002802 5.88004804,5.39004403 5.88004804,5.39004403" id="Path"></path>
                    </g>
                    <g id="Group" transform="translate(0.836927, 13.720112)">
                        <path d="M29.5433213,2.94002402 C29.5433213,1.31615116 30.8594724,0 32.4833453,0 C34.1072181,0 35.4233693,1.31615116 35.4233693,2.94002402 C35.4233693,2.94002402 35.4233693,15.681108 35.4233693,15.681108 C35.4233693,20.0107832 31.9129808,23.5201921 27.5833052,23.5201921 C27.5833052,23.5201921 20.4547271,23.5192117 20.4547271,23.5192117 C17.3363416,23.5182323 14.3463371,22.2795022 12.1413191,20.0744842 C12.1413191,20.0744842 1.00450783,8.93865307 1.00450783,8.93865307 C-0.144060549,7.79008352 -0.144060549,5.92904862 1.00450783,4.78047884 C2.15307715,3.63190999 4.01411252,3.63190999 5.16268183,4.78047884 C5.16268183,4.78047884 10.0080687,9.62586565 11.4819359,11.0997328 C11.7463036,11.3641005 11.9021972,11.5199941 11.9021972,11.5199941 L11.9021972,2.94002402" id="Path"></path>
                    </g>
                </g>
            </g>
        </g>
    </g>
</svg>