<svg xmlns="http://www.w3.org/2000/svg" width="43" height="43" viewBox="0 0 43 43"><g><g><path fill="#de4c36" d="M41.415 19.546L23.253 1.385a2.68 2.68 0 0 0-3.789 0l-3.772 3.771 4.785 4.785a3.18 3.18 0 0 1 4.029 4.055l4.61 4.612a3.187 3.187 0 0 1 3.294 5.265 3.188 3.188 0 0 1-5.203-3.468l-4.3-4.3V27.42a3.188 3.188 0 1 1-2.621-.093V15.907a3.187 3.187 0 0 1-1.73-4.18l-4.717-4.718L1.385 19.462a2.68 2.68 0 0 0 0 3.79l18.163 18.163a2.68 2.68 0 0 0 3.789 0l18.078-18.078a2.68 2.68 0 0 0 0-3.79"/></g></g></svg>