<svg xmlns="http://www.w3.org/2000/svg" width="52" height="43" viewBox="0 0 52 43"><g><g><g><path fill="#fdbd39" d="M8.016 29.29l-2.721.994-.145 8.093 9.418-3.44c-3.233-1.083-5.59-2.991-6.552-5.647"/></g><g><path fill="#f69833" d="M9.442 20.73L0 24.179l5.297 6.107 2.72-.994c-.959-2.647-.367-5.636 1.425-8.562"/></g><g><path fill="#fecf33" d="M25.327 9.05C13.305 13.44 5.553 22.504 8.017 29.29L51.55 13.387C49.087 6.6 37.348 4.658 25.327 9.05"/></g><g><path fill="#ee6723" d="M34.244 33.62c12.022-4.39 19.787-13.413 17.31-20.24L8.02 29.28c2.477 6.83 14.202 8.732 26.224 4.34"/></g><g><path fill="#f69833" d="M51.552 13.38L8.02 29.283c.851 2.351 4.104 3.51 8.664 3.51 4.447 0 10.14-1.1 16.073-3.268C44.78 25.134 53.235 18.022 51.552 13.38"/></g><g><path fill="#fdbd39" d="M42.882 9.88c-4.445 0-10.14 1.1-16.074 3.267C14.786 17.54 6.33 24.65 8.014 29.29l43.534-15.903c-.854-2.35-4.104-3.507-8.666-3.507"/></g><g><g><path fill="#ee6723" d="M40.52 38.344v.236m.916-.052c1.576-1.106.374-4.847-.91-7.79l-.101-.23-.219.124c-.164.095-.34.192-.522.292l-.182.099.084.19c1.811 4.154 1.811 6.08 1.26 6.466a.64.64 0 0 1-.376.1c-.452 0-1.832-.31-4.897-3.169-2.844-2.651-6.107-6.545-9.193-10.97-3.084-4.42-5.614-8.831-7.125-12.419-1.625-3.857-1.59-5.655-1.067-6.022a.629.629 0 0 1 .367-.093c.545 0 2.217.412 6.02 4.244l.346.348.04-.49c.019-.25.04-.5.064-.75l.011-.109-.078-.075C21.43 4.799 19.518 4.07 18.54 4.07a1.605 1.605 0 0 0-.947.278c-1.203.847-.963 3.294.711 7.274 1.539 3.655 4.106 8.132 7.231 12.612 3.127 4.48 6.44 8.435 9.334 11.134 2.446 2.282 4.335 3.438 5.616 3.438.34.009.672-.089.951-.279z"/></g><g><path fill="#ee6723" d="M34.53 33.5l-.017.225c-.305 3.76-1.104 8.281-3.192 8.465-.043.004-.086.004-.127.004-1.418 0-2.76-2.031-3.985-6.036-1.163-3.79-2.064-8.877-2.537-14.325-.476-5.448-.47-10.615.02-14.55.53-4.288 1.542-6.527 3.007-6.657.044-.004.089-.006.132-.006 1.029 0 2.578 1.165 4.165 6.589l-1.036.199c-.53-1.811-1.106-3.285-1.679-4.3-.53-.936-1.046-1.453-1.45-1.453-.013 0-.026 0-.04.002-.636.056-1.561 1.595-2.075 5.753-.48 3.864-.487 8.955-.018 14.332.47 5.379 1.355 10.39 2.496 14.112.51 1.666 1.07 3.04 1.621 3.972.506.86.996 1.333 1.379 1.333.013 0 .026 0 .039-.002.607-.052 1.752-1.656 2.234-7.294z"/></g></g></g></g></svg>