<?xml version="1.0" encoding="UTF-8"?>
<svg width="137px" height="265px" viewBox="0 0 137 265" version="1.1" xmlns="http://www.w3.org/2000/svg" xmlns:xlink="http://www.w3.org/1999/xlink">
    <!-- Generator: Sketch 61 (89581) - https://sketch.com -->
    <title>X Passive</title>
    <desc>Created with Sketch.</desc>
    <g id="Wireframes" stroke="none" stroke-width="1" fill="none" fill-rule="evenodd">
        <g id="02-Repair" transform="translate(-897.000000, -815.000000)" stroke-width="0.5">
            <g id="Group-8" transform="translate(120.000000, 768.000000)">
                <g id="Group-10">
                    <g id="Group-18" transform="translate(736.000000, 0.000000)">
                        <g id="iPhone-XS-Copy" transform="translate(41.000000, 47.000000)">
                            <g id="X-Passive">
                                <g id="Body">
                                    <path d="M134.761328,66.3046699 L134.761328,98.2315078 L135.111825,98.2315078 C135.471222,98.2315078 135.76257,97.9401591 135.76257,97.5807623 L135.76257,66.9554154 C135.76257,66.5960186 135.471222,66.3046699 135.111825,66.3046699 L134.761328,66.3046699 Z" id="Botton-4" stroke="#333333"></path>
                                    <path d="M1.2512425,104.836975 L1.2512425,84.9200768 L0.900745498,84.9200768 C0.541348684,84.9200768 0.25,85.2114255 0.25,85.5708223 L0.25,104.186229 C0.25,104.545626 0.541348684,104.836975 0.900745498,104.836975 L1.2512425,104.836975 Z" id="Botton-3" stroke="#333333"></path>
                                    <path d="M1.2512425,79.6161008 L1.2512425,59.6992029 L0.900745498,59.6992029 C0.541348684,59.6992029 0.25,59.9905516 0.25,60.3499484 L0.25,78.9653553 C0.25,79.3247522 0.541348684,79.6161008 0.900745498,79.6161008 L1.2512425,79.6161008 Z" id="Botton-2" stroke="#333333"></path>
                                    <path d="M1.2512425,50.1917479 L1.2512425,39.8828019 L0.900745498,39.8828019 C0.541348684,39.8828019 0.25,40.1741506 0.25,40.5335474 L0.25,49.5410024 C0.25,49.9003992 0.541348684,50.1917479 0.900745498,50.1917479 L1.2512425,50.1917479 Z" id="Botton-1" stroke="#333333"></path>
                                    <rect id="Outside" stroke="#333333" x="1.450994" y="0.25" width="133.110582" height="264.319176" rx="21.617892"></rect>
                                    <rect id="Inside" stroke="#CCCCCC" x="3.85298199" y="2.651988" width="128.306606" height="259.5152" rx="19.215904"></rect>
                                </g>
                                <g id="Screen_375x812" transform="translate(5.404473, 4.203479)">
                                    <path d="M17.2642887,6.55521849 C11.3498325,6.55521849 6.55521849,11.3498325 6.55521849,17.2642887 L6.55521849,238.09706 C6.55521849,244.591896 11.820323,249.857 18.3151585,249.857 L106.888466,249.857 C113.383301,249.857 118.648406,244.591896 118.648406,238.09706 L118.648406,17.2642887 C118.648406,11.3498325 113.853792,6.55521849 107.939336,6.55521849 L99.0820048,6.55521849 C98.0593173,6.55521849 97.2302653,7.3842705 97.2302653,8.40695798 L97.2302653,8.48202011 C97.2302653,13.1996231 93.4818483,15.8066254 88.5733073,15.8066254 L36.6303169,15.8066254 C31.7279939,15.8066254 27.9733589,13.1973653 27.9733589,8.48202011 L27.9733589,8.10670948 C27.9733589,7.24984467 27.2787328,6.55521849 26.4218679,6.55521849 L17.2642887,6.55521849 Z" id="Inside" stroke="#333333" fill="#E3E3E3"></path>
                                    <rect id="Outside" stroke="#CCCCCC" x="0.25" y="0.25" width="124.703624" height="255.912218" rx="18.01491"></rect>
                                </g>
                                <g id="Accessories" transform="translate(45.938020, 10.808946)">
                                    <rect id="Botton" stroke="#333333" x="0.25" y="239.848303" width="43.6365294" height="1.301491" rx="0.650745498"></rect>
                                    <rect id="Speaker" stroke="#CCCCCC" x="14.061431" y="1.1507455" width="16.0136675" height="1.901988" rx="0.950993998"></rect>
                                    <g id="Camera" transform="translate(34.528577, 0.000000)" stroke="#CCCCCC">
                                        <circle id="Outside" cx="2.1017395" cy="2.1017395" r="1.8517395"></circle>
                                        <circle id="Inside" cx="2.1017395" cy="2.1017395" r="1"></circle>
                                    </g>
                                </g>
                            </g>
                        </g>
                    </g>
                </g>
            </g>
        </g>
    </g>
</svg>