<?xml version="1.0" encoding="UTF-8"?>
<svg width="143px" height="280px" viewBox="0 0 143 280" version="1.1" xmlns="http://www.w3.org/2000/svg" xmlns:xlink="http://www.w3.org/1999/xlink">
    <!-- Generator: Sketch 61 (89581) - https://sketch.com -->
    <title>XS Max Passive</title>
    <desc>Created with Sketch.</desc>
    <g id="Wireframes" stroke="none" stroke-width="1" fill="none" fill-rule="evenodd">
        <g id="02-Repair" transform="translate(-160.000000, -800.000000)" stroke-width="0.5">
            <g id="Group-8" transform="translate(120.000000, 768.000000)">
                <g id="Group-10">
                    <g id="Group-20">
                        <g id="iPhone-XS-Max" transform="translate(40.000000, 32.000000)">
                            <g id="XS-Max-Passive">
                                <g id="Body">
                                    <path d="M141.367605,63.9992262 L141.367605,94.7943008 L141.697144,94.7943008 C142.039178,94.7943008 142.316451,94.5170274 142.316451,94.1749932 L142.316451,64.6185338 C142.316451,64.2764996 142.039178,63.9992262 141.697144,63.9992262 L141.367605,63.9992262 Z" id="Botton-4" stroke="#333333"></path>
                                    <path d="M1.19884605,101.169223 L1.19884605,81.9649172 L0.86930763,81.9649172 C0.52727347,81.9649172 0.25,82.2421907 0.25,82.5842248 L0.25,100.549916 C0.25,100.89195 0.52727347,101.169223 0.86930763,101.169223 L1.19884605,101.169223 Z" id="Botton-3" stroke="#333333"></path>
                                    <path d="M1.19884605,76.8286098 L1.19884605,57.6243036 L0.86930763,57.6243036 C0.52727347,57.6243036 0.25,57.901577 0.25,58.2436112 L0.25,76.2093022 C0.25,76.5513364 0.52727347,76.8286098 0.86930763,76.8286098 L1.19884605,76.8286098 Z" id="Botton-2" stroke="#333333"></path>
                                    <path d="M1.19884605,48.4312273 L1.19884605,38.4995357 L0.86930763,38.4995357 C0.52727347,38.4995357 0.25,38.7768092 0.25,39.1188433 L0.25,47.8119196 C0.25,48.1539538 0.52727347,48.4312273 0.86930763,48.4312273 L1.19884605,48.4312273 Z" id="Botton-1" stroke="#333333"></path>
                                    <rect id="Outside" stroke="#333333" x="1.40907684" y="0.25" width="139.748298" height="279.417057" rx="20.8633831"></rect>
                                    <rect id="Inside" stroke="#CCCCCC" x="3.72723052" y="2.56815368" width="135.11199" height="274.780749" rx="18.5452294"></rect>
                                </g>
                                <g id="Screen_414x896" transform="translate(5.215846, 4.056769)">
                                    <path d="M17.6759218,6.33515341 C11.4125884,6.33515341 6.33515341,11.4125884 6.33515341,17.6759218 L6.33515341,254.127597 C6.33515341,260.390931 11.4125884,265.468365 17.6759218,265.468365 L114.458838,265.468365 C120.722171,265.468365 125.799606,260.390931 125.799606,254.127597 L125.799606,17.6759218 C125.799606,11.4125884 120.722171,6.33515341 114.458838,6.33515341 L101.419223,6.33515341 C100.437049,6.33515341 99.640839,7.13136326 99.640839,8.11353788 L99.640839,8.40330709 C99.640839,13.4099336 96.0218378,16.1873065 91.2773011,16.1873065 L40.8574586,16.1873065 C36.1189311,16.1873065 32.4939207,13.4075235 32.4939207,8.40330709 L32.4939207,7.82376867 C32.4939207,7.00162916 31.827445,6.33515341 31.0053055,6.33515341 L17.6759218,6.33515341 Z" id="Inside" stroke="#333333" fill="#E3E3E3"></path>
                                    <rect id="Outside" stroke="#CCCCCC" x="0.25" y="0.25" width="131.63476" height="271.303519" rx="17.3861526"></rect>
                                </g>
                                <g id="Accessories" transform="translate(49.840304, 10.431692)">
                                    <rect id="Botton" stroke="#333333" x="0.25" y="255.826443" width="42.3858431" height="1.23861526" rx="0.61930763"></rect>
                                    <rect id="Speaker" stroke="#CCCCCC" x="13.5793837" y="1.11930763" width="15.7270758" height="1.81815368" rx="0.90907684"></rect>
                                    <g id="Camera" transform="translate(33.613228, 0.000000)" stroke="#CCCCCC">
                                        <circle id="Outside" cx="2.02838447" cy="2.02838447" r="1.77838447"></circle>
                                        <circle id="Inside" cx="2.02838447" cy="2.02838447" r="1"></circle>
                                    </g>
                                </g>
                            </g>
                        </g>
                    </g>
                </g>
            </g>
        </g>
    </g>
</svg>