<?xml version="1.0" encoding="UTF-8"?>
<svg width="123px" height="239px" viewBox="0 0 123 239" version="1.1" xmlns="http://www.w3.org/2000/svg" xmlns:xlink="http://www.w3.org/1999/xlink">
    <!-- Generator: Sketch 61 (89581) - https://sketch.com -->
    <title>XS Passive</title>
    <desc>Created with Sketch.</desc>
    <g id="Wireframes" stroke="none" stroke-width="1" fill="none" fill-rule="evenodd">
        <g id="02-Repair" transform="translate(-660.000000, -841.000000)" stroke-width="0.5">
            <g id="Group-8" transform="translate(120.000000, 768.000000)">
                <g id="Group-10">
                    <g id="Group-18-Copy" transform="translate(492.000000, 0.000000)">
                        <g id="iPhone-XS-Copy" transform="translate(48.000000, 73.000000)">
                            <g id="XS-Passive">
                                <g id="Body">
                                    <path d="M121.310195,59.6992029 L121.310195,88.383357 L121.600642,88.383357 C121.910292,88.383357 122.161313,88.1323361 122.161313,87.8226861 L122.161313,60.2598738 C122.161313,59.9502238 121.910292,59.6992029 121.600642,59.6992029 L121.310195,59.6992029 Z" id="Botton-4" stroke="#333333"></path>
                                    <path d="M1.10111825,94.3282773 L1.10111825,76.4530691 L0.810670948,76.4530691 C0.501020934,76.4530691 0.25,76.7040901 0.25,77.0137401 L0.25,93.7676064 C0.25,94.0772564 0.501020934,94.3282773 0.810670948,94.3282773 L1.10111825,94.3282773 Z" id="Botton-3" stroke="#333333"></path>
                                    <path d="M1.10111825,71.6294908 L1.10111825,53.7542826 L0.810670948,53.7542826 C0.501020934,53.7542826 0.25,54.0053035 0.25,54.3149535 L0.25,71.0688198 C0.25,71.3784698 0.501020934,71.6294908 0.810670948,71.6294908 L1.10111825,71.6294908 Z" id="Botton-2" stroke="#333333"></path>
                                    <path d="M1.10111825,45.1475731 L1.10111825,35.9195217 L0.810670948,35.9195217 C0.501020934,35.9195217 0.25,36.1705427 0.25,36.4801927 L0.25,44.5869022 C0.25,44.8965522 0.501020934,45.1475731 0.810670948,45.1475731 L1.10111825,45.1475731 Z" id="Botton-1" stroke="#333333"></path>
                                    <rect id="Outside" stroke="#333333" x="1.3308946" y="0.25" width="119.749524" height="237.837259" rx="19.4561028"></rect>
                                    <rect id="Inside" stroke="#CCCCCC" x="3.49268379" y="2.4117892" width="115.425946" height="233.51368" rx="17.2943136"></rect>
                                </g>
                                <g id="Screen_375x812" transform="translate(4.864026, 3.783131)">
                                    <path d="M15.5378598,5.92469664 C10.2286564,5.92469664 5.92469664,10.2286564 5.92469664,15.5378598 L5.92469664,214.287354 C5.92469664,220.118899 10.6520978,224.8463 16.4836426,224.8463 L96.1996192,224.8463 C102.031164,224.8463 106.758565,220.118899 106.758565,214.287354 L106.758565,15.5378598 C106.758565,10.2286564 102.454605,5.92469664 97.145402,5.92469664 L89.1738043,5.92469664 C88.2671927,5.92469664 87.5322388,6.65965057 87.5322388,7.56626218 L87.5322388,7.6338181 C87.5322388,11.8958115 84.1459396,14.2509628 79.7159766,14.2509628 L32.9672852,14.2509628 C28.5429203,14.2509628 25.151023,11.893785 25.151023,7.6338181 L25.151023,7.29603854 C25.151023,6.53866732 24.5370524,5.92469664 23.7796812,5.92469664 L15.5378598,5.92469664 Z" id="Inside" stroke="#333333" fill="#E3E3E3"></path>
                                    <rect id="Outside" stroke="#CCCCCC" x="0.25" y="0.25" width="112.183262" height="230.270997" rx="16.213419"></rect>
                                </g>
                                <g id="Accessories" transform="translate(41.344218, 9.728051)">
                                    <rect id="Botton" stroke="#333333" x="0.25" y="215.888472" width="39.2228765" height="1.1213419" rx="0.560670948"></rect>
                                    <rect id="Speaker" stroke="#CCCCCC" x="12.6802879" y="1.06067095" width="14.3623007" height="1.6617892" rx="0.830894598"></rect>
                                    <g id="Camera" transform="translate(31.075720, 0.000000)" stroke="#CCCCCC">
                                        <circle id="Outside" cx="1.89156555" cy="1.89156555" r="1.64156555"></circle>
                                        <circle id="Inside" cx="1.89156555" cy="1.89156555" r="1"></circle>
                                    </g>
                                </g>
                            </g>
                        </g>
                    </g>
                </g>
            </g>
        </g>
    </g>
</svg>