<svg xmlns="http://www.w3.org/2000/svg" width="50" height="50" viewBox="0 0 50 50"><g><g><path d="M34.745 28.07c1.983 0 3.6-1.64 3.606-3.649 0-2.014-1.617-3.655-3.606-3.655-2.651 0-3.513 2.595-3.785 4.14l-.014.053-.305 1.45c1.254 1.03 2.632 1.66 4.104 1.66zm0-11.007c3.998 0 7.252 3.299 7.255 7.343 0 4.052-3.254 7.372-7.252 7.372-1.87 0-3.5-.577-4.92-1.498L28.212 38h-3.733l2.234-10.643c-1.055-1.345-1.922-2.857-2.632-4.355v1.613c0 3.938-3.162 7.17-7.046 7.17-3.884 0-7.047-3.232-7.034-7.17V15h3.646v9.615c0 1.895 1.523 3.44 3.394 3.44 1.87 0 3.394-1.545 3.394-3.44V15h3.645c.723 2.507 1.955 5.483 3.586 7.963 1.067-3.669 3.693-5.9 7.08-5.9zM24.826 0C11.137 0 0 11.137 0 24.826c0 13.688 11.137 24.826 24.826 24.826 13.688 0 24.826-11.138 24.826-24.826C49.652 11.137 38.516 0 24.826 0z"/></g></g></svg>