<svg xmlns="http://www.w3.org/2000/svg" width="146" height="40" viewBox="0 0 146 40"><g><g><g><g><g><g><path fill="#0d47a1" d="M20.12 5.93l11.695 6.094V27.08s.04.518-.08.837c-.12.318-.836.637-.836.637l-5.608 3.067s-.318.12-.318.359c0 .238.16.328.16.328l6.357 3.384s.165.103.364.111c.2.009.335-.064.367-.08.62-.304 7.005-3.442 7.27-3.783.279-.359.279-1.036.279-1.036V16.007l-2.85-5.385c-.755-1.425-2.55-3.123-4.016-3.793L19.882.87z"/></g><g><path fill="#2196f3" d="M.202 32.03c.08.16.208.347.208.347l9.324 7.348s.213.192.412.112c.2-.08.2-.398.2-.398V16.417s.039-.28.118-.439c.08-.159.271-.314.271-.314L21.533 8.22s.3-.235.595-.236c.293-.002.627.236.627.236l17.024 7.84-3.721-7.491s-.101-.217-.336-.436c-.234-.22-.517-.361-.517-.361L18.778.365s-.43-.27-.955-.28c-.525-.008-.955.36-.955.36L.432 11.916s-.221.147-.31.317c-.087.171-.079.439-.079.439v18.92s.08.278.16.437z"/></g></g></g><g><path fill="#0d47a1" d="M140.565 13.64v2.93c.76-2.04 2.147-3.06 4.163-3.06.455 0 .824.032 1.106.097v3.778a4.111 4.111 0 0 0-1.659-.326c-1.062 0-1.93.435-2.601 1.303-.673.869-1.009 1.954-1.009 3.257v8.533h-3.935l.033-16.512zm-11.395.065v2.931c.759-2.04 2.147-3.06 4.163-3.06.455 0 .824.032 1.106.097v3.778a4.111 4.111 0 0 0-1.659-.326c-1.062 0-1.93.434-2.602 1.303-.672.868-1.008 1.954-1.008 3.257v8.532h-3.935l.032-16.512zm-14.081 2.936c-1.25 0-2.208.514-2.876 1.544-.669 1.029-1.003 2.32-1.003 3.875 0 1.533.34 2.814 1.02 3.844.678 1.029 1.643 1.543 2.892 1.543 1.293 0 2.268-.503 2.925-1.51.658-1.008.986-2.289.986-3.844 0-1.598-.317-2.907-.953-3.925-.635-1.018-1.633-1.527-2.991-1.527zm.05 13.576c-2.474 0-4.405-.763-5.792-2.29-1.388-1.528-2.081-3.48-2.081-5.856 0-2.46.72-4.492 2.161-6.093 1.442-1.602 3.345-2.403 5.711-2.403 2.517 0 4.464.78 5.84 2.339 1.377 1.56 2.066 3.537 2.066 5.935 0 2.44-.694 4.444-2.082 6.014-1.387 1.57-3.328 2.354-5.824 2.354zm-14.336-13.41v8.2c0 .677.18 1.19.542 1.54.361.35.86.525 1.498.525.807 0 1.551-.223 2.231-.668v3.273c-.744.36-1.7.54-2.869.54-3.485 0-5.227-1.758-5.227-5.274v-8.135h-2.422v-2.86h2.422v-3.877h3.825v3.877h4.016v2.86zM81.849 13.77v2.822c.944-2.011 2.655-3.017 5.133-3.017 1.667 0 2.984.497 3.949 1.492.965.995 1.448 2.401 1.448 4.218v10.932H88.43V20.096c0-1.082-.263-1.898-.79-2.45-.526-.551-1.239-.827-2.138-.827-1.031 0-1.898.395-2.6 1.184-.702.79-1.053 1.92-1.053 3.39v8.824h-3.948V13.77zm-7.146 12.037v3.348c-1.11.708-2.714 1.062-4.81 1.062-2.538 0-4.54-.772-6.007-2.317-1.468-1.545-2.201-3.541-2.201-5.988 0-2.596.692-4.635 2.075-6.116 1.384-1.48 3.113-2.22 5.189-2.22 2.075 0 3.72.643 4.937 1.93 1.216 1.288 1.824 3.166 1.824 5.634 0 .6-.074 1.373-.22 2.317h-10c.272 1.18.843 2.082 1.714 2.704.87.623 1.954.934 3.254.934 1.677 0 3.092-.43 4.245-1.288zm-2.522-5.301v-.48c-.04-1.048-.313-1.886-.817-2.517-.505-.63-1.24-.945-2.207-.945-.885 0-1.651.337-2.3 1.01-.648.673-1.064 1.65-1.25 2.932zm-17.518-6.8v2.93c.759-2.04 2.147-3.06 4.163-3.06.455 0 .824.032 1.106.097v3.778a4.111 4.111 0 0 0-1.659-.326c-1.062 0-1.93.434-2.602 1.303-.672.868-1.008 1.954-1.008 3.257v8.532h-3.935l.032-16.512z"/></g></g></g></g></svg>