<svg xmlns="http://www.w3.org/2000/svg" viewBox="0 0 118.51 114.82">
  <defs>
    <style>
      .cls-1 {
        fill: none;
        stroke: #d11742;
        stroke-linecap: round;
        stroke-linejoin: round;
        stroke-width: 5px;
      }
    </style>
  </defs>
  <title>Headround</title>
  <g id="Слой_2" data-name="Слой 2">
    <g id="Layer_1" data-name="Layer 1">
      <g>
        <path class="cls-1" d="M33.46,112.32V86.14l-1.23-.86A46,46,0,1,1,105.28,41l10.33,30.32a3.62,3.62,0,0,1-3.41,4.84l-6.72.36c0,15-4.77,22.22-4.77,22.22-4.18,1.74-20.49,1-20.49,1l0,12.61"/>
        <path class="cls-1" d="M44.32,48.68C19.26,41.55,1.35,30.07,2.56,21,3.45,14.31,14.5,10.55,30.5,10.36"/>
        <path class="cls-1" d="M102.23,28.14c9.13,5.38,14.39,11.18,13.72,16.24-1.12,8.43-18.43,12.21-41.41,10"/>
        <path class="cls-1" d="M85.3,8.29c16.79-1.35,28.7,1.52,30,8.33,1.91,10.38-21.6,26-52.53,34.86S5.17,59.13,3.25,48.76c-.72-3.9,2.15-8.54,7.65-13.28"/>
      </g>
    </g>
  </g>
</svg>
