<svg xmlns="http://www.w3.org/2000/svg" width="21" height="18" viewBox="0 0 21 18"><defs><clipPath id="pr8da"><path fill="#fff" d="M5.707 4.86a.535.535 0 0 1 0-.75S6.934 2.882 9.322.563c.75-.75 1.705-.75 2.523 0 .478.477 3.615 3.41 3.752 3.547a.535.535 0 0 1 0 .75.52.52 0 0 1-.341.136.52.52 0 0 1-.341-.136c-.069-.068-3.274-3.07-3.752-3.547-.545-.477-.818-.34-1.16 0L6.458 4.86a.523.523 0 0 1-.253.14H5.96a.523.523 0 0 1-.252-.14zm15.317.617v3a.538.538 0 0 1-.545.546h-1.745v.068l-.955 7.705c-.068.682-.614 1.227-1.296 1.227H4.479c-.75 0-1.296-.613-1.296-1.295L2.228 9.09H.526a.538.538 0 0 1-.546-.545V5.545c0-.341.273-.546.546-.546h5.433c.08.019.165.019.245 0H20.48c.273 0 .477.205.545.478zm-3.313 3.546H3.25l.955 7.63c0 .205.137.342.273.342h12.004a.293.293 0 0 0 .273-.273v-.068zM20 8V6.022H1.01V8z"/></clipPath></defs><g><g><path fill="none" stroke="#403c4b" stroke-miterlimit="50" stroke-width="2" d="M5.707 4.86a.535.535 0 0 1 0-.75S6.934 2.882 9.322.563c.75-.75 1.705-.75 2.523 0 .478.477 3.615 3.41 3.752 3.547a.535.535 0 0 1 0 .75.52.52 0 0 1-.341.136.52.52 0 0 1-.341-.136c-.069-.068-3.274-3.07-3.752-3.547-.545-.477-.818-.34-1.16 0L6.458 4.86a.523.523 0 0 1-.253.14H5.96a.523.523 0 0 1-.252-.14zm15.317.617v3a.538.538 0 0 1-.545.546h-1.745v.068l-.955 7.705c-.068.682-.614 1.227-1.296 1.227H4.479c-.75 0-1.296-.613-1.296-1.295L2.228 9.09H.526a.538.538 0 0 1-.546-.545V5.545c0-.341.273-.546.546-.546h5.433c.08.019.165.019.245 0H20.48c.273 0 .477.205.545.478zm-3.313 3.546H3.25l.955 7.63c0 .205.137.342.273.342h12.004a.293.293 0 0 0 .273-.273v-.068zM20 8V6.022H1.01V8z" clip-path="url(&quot;#pr8da&quot;)"/></g></g></svg>