<svg xmlns="http://www.w3.org/2000/svg" width="34" height="42" viewBox="0 0 34 42"><g><g><path fill="#fff" d="M31.353 39.85a6.776 6.776 0 0 1-4.956 2.165H7.012a6.776 6.776 0 0 1-4.957-2.165C.781 38.474.351 36.612.495 34.742l1.634-24.009c.115-1.5 1.388-2.71 2.896-2.71h3.972v-.165c0-4.422 3.598-7.926 8.02-7.926s7.988 3.504 7.988 7.926v.165h3.941c1.509 0 2.78 1.21 2.896 2.713l1.29 24.003a6.777 6.777 0 0 1-1.779 5.11zM11.021 8.023h11.96v-.165c0-3.082-2.882-5.808-5.964-5.808-3.082 0-5.996 2.726-5.996 5.808zM30.71 34.335l-1.29-22.878a.477.477 0 0 0-.474-.442h-3.94v3.275c0 .67-.326 1.215-.997 1.215s-1.028-.544-1.028-1.215v-3.275h-11.96v3.337c0 .671-.357 1.215-1.028 1.215-.67 0-.996-.544-.996-1.215v-3.337H5.025a.476.476 0 0 0-.473.438L2.918 34.338c-.093 1.211.093 2.373.92 3.267a4.281 4.281 0 0 0 3.174 1.386h19.385a4.281 4.281 0 0 0 3.173-1.386 4.281 4.281 0 0 0 1.14-3.27zm-8.532-11.891l-6.284 6.284a1.212 1.212 0 0 1-1.718 0l-2.946-2.945a1.215 1.215 0 1 1 1.718-1.718l2.087 2.086 5.425-5.426a1.215 1.215 0 1 1 1.718 1.719z"/></g></g></svg>