<svg xmlns="http://www.w3.org/2000/svg" width="23.44897959183671" height="5.8367346938775455" style=""><rect id="backgroundrect" width="100%" height="100%" x="0" y="0" fill="none" stroke="none" class="selected" style=""/>
  <defs>
    <style>
      .cls-1 {
        fill: #ffcb6d;
        fill-rule: evenodd;
      }
    </style>
  </defs>
  
<g class="currentLayer" style=""><title>Layer 1</title><path id="Rectangle_7_copy_4" data-name="Rectangle 7 copy 4" class="cls-1" d="M-5.230020572952926,2.566999990940094 L-2.564020572952926,0.2769999909400941 A0.774,0.774 0 0 1 -2.0510205729529263,-9.059905936581458e-9 A0.511,0.511 0 0 1 -1.5400205729529262,0.5129999909400942 v1.54 H22.959979427047074 a0.515,0.515 0 0 1 0.513,0.513 V3.546999990940094 a0.515,0.515 0 0 1 -0.513,0.513 H-1.5400205729529262 v1.54 a0.511,0.511 0 0 1 -0.513,0.513 a0.773,0.773 0 0 1 -0.514,-0.277 L-5.230020572952926,3.546999990940094 A0.6390000000000003,0.6390000000000003 0 0 1 -5.551020572952926,3.0329999909400938 A0.5680000000000003,0.5680000000000003 0 0 1 -5.230020572952926,2.566999990940094 z"/><rect fill="#4a90d6" stroke="#222222" stroke-width="2" stroke-linejoin="round" stroke-dashoffset="" fill-rule="nonzero" id="svg_1" x="27" y="4" width="4" height="0" style="color: rgb(0, 0, 0);"/></g></svg>