<svg xmlns="http://www.w3.org/2000/svg" width="3.8979591836734926" height="6.040816326530603"><rect id="backgroundrect" width="100%" height="100%" x="0" y="0" fill="none" stroke="none" class="" style=""/>
  <defs>
    <style>
      .cls-1 {
        fill: #ffcb6d;
        fill-rule: evenodd;
      }
    </style>
  </defs>
  
<g class="currentLayer" style=""><title>Layer 1</title><path id="Rectangle_7_copy_4" data-name="Rectangle 7 copy 4" class="cls-1" d="M0.3209999747946859,2.566999990940094 L2.986999974794686,0.276999990940094 A0.774,0.774 0 0 1 3.4999999747946857,-9.059905936581458e-9 A0.511,0.511 0 0 1 4.010999974794686,0.512999990940094 v1.54 H28.510999974794686 a0.515,0.515 0 0 1 0.513,0.513 V3.546999990940094 a0.515,0.515 0 0 1 -0.513,0.513 H4.010999974794686 v1.54 a0.511,0.511 0 0 1 -0.513,0.513 a0.773,0.773 0 0 1 -0.514,-0.277 L0.3209999747946859,3.546999990940094 A0.6390000000000001,0.6390000000000001 0 0 1 -2.520531416222438e-8,3.0329999909400938 A0.5680000000000001,0.5680000000000001 0 0 1 0.3209999747946859,2.566999990940094 z"/><rect fill="#4a90d6" stroke="#222222" stroke-width="2" stroke-linejoin="round" stroke-dashoffset="" fill-rule="nonzero" id="svg_1" x="27" y="4" width="4" height="0" style="color: rgb(0, 0, 0);"/></g></svg>