<svg xmlns="http://www.w3.org/2000/svg" width="4.0612244897959044" height="7.6530612244897895"><rect id="backgroundrect" width="100%" height="100%" x="0" y="0" fill="none" stroke="none" class="selected" style=""/>
  <defs>
    <style>
      .cls-1 {
        fill: #ffcb6d;
        fill-rule: evenodd;
      }
    </style>
  </defs>
  
<g class="currentLayer" style=""><title>Layer 1</title><path id="Rectangle_7_copy_4" data-name="Rectangle 7 copy 4" class="cls-1" d="M3.710408555865289,3.3567346972227097 L1.0444085558652887,1.0667346972227096 A0.774,0.774 0 0 0 0.531408555865287,0.7897346972227097 A0.511,0.511 0 0 0 0.02040855586528778,1.3027346972227096 v1.54 H-24.479591444134712 a0.515,0.515 0 0 0 -0.513,0.513 V4.33673469722271 A0.515,0.515 0 0 0 -24.479591444134712,4.8497346972227104 H0.02040855586528778 v1.54 a0.511,0.511 0 0 0 0.513,0.513 a0.773,0.773 0 0 0 0.514,-0.277 L3.710408555865289,4.33673469722271 a0.6390000000000002,0.6390000000000002 0 0 0 0.3210000000000001,-0.514 A0.5680000000000002,0.5680000000000002 0 0 0 3.710408555865289,3.3567346972227097 z"/></g></svg>