<svg id="Layer_1" data-name="Layer 1" xmlns="http://www.w3.org/2000/svg" viewBox="0 0 1556.79 1297.32">
  <defs>
    <style>
      .cls-1 {
        fill: #427a15;
      }
    </style>
  </defs>
  <title>Artboard 10</title>
  <g>
    <path class="cls-1" d="M1034,455.92l-441.15.15c-25.34,0-43-15-43-28.45a23.82,23.82,0,0,0-47.64,0c0,41.95,40.66,76.08,90.63,76.08h418.37v545.17h-477a76.49,76.49,0,0,1-76.41-76.4V406a76.5,76.5,0,0,1,76.41-76.41H1035a23.82,23.82,0,0,0,0-47.64H534.15A124.19,124.19,0,0,0,410.1,406v566.5a124.18,124.18,0,0,0,124,124H1035a23.82,23.82,0,0,0,23.82-23.82v-593a23.76,23.76,0,0,0-7.35-17.2A23.48,23.48,0,0,0,1034,455.92Z"/>
    <rect class="cls-1" x="707.94" y="640.58" width="53.05" height="333.06" rx="18"/>
    <rect class="cls-1" x="707.94" y="640.58" width="53.05" height="333.06" rx="18" transform="translate(1541.58 72.65) rotate(90)"/>
  </g>
</svg>
