<svg id="Layer_1" data-name="Layer 1" xmlns="http://www.w3.org/2000/svg" viewBox="0 0 1556.79 1297.32">
  <defs>
    <style>
      .cls-1 {
        fill: #427a15;
      }
    </style>
  </defs>
  <title>Artboard 4</title>
  <g>
    <path class="cls-1" d="M812.28,794.47c-80.4,0-145.81-65.41-145.81-145.81s65.41-145.81,145.81-145.81,145.81,65.41,145.81,145.81S892.68,794.47,812.28,794.47Zm0-262.21a116.4,116.4,0,1,0,116.4,116.4A116.54,116.54,0,0,0,812.28,532.26Z"/>
    <path class="cls-1" d="M812.28,486.11a79.55,79.55,0,1,1,56.27-135.79h0a79.53,79.53,0,0,1-56.27,135.79Zm0-129.69a50.15,50.15,0,1,0,35.47,14.69h0A49.86,49.86,0,0,0,812.28,356.42Z"/>
    <path class="cls-1" d="M641.1,557.05a79.57,79.57,0,1,1,79.57-79.57A79.66,79.66,0,0,1,641.1,557.05Zm0-129.72a50.16,50.16,0,1,0,50.16,50.15A50.21,50.21,0,0,0,641.1,427.33Z"/>
    <path class="cls-1" d="M570.2,728.23a79.57,79.57,0,1,1,56.27-23.3A79,79,0,0,1,570.2,728.23Zm0-129.73a49.86,49.86,0,0,0-35.47,14.69h0A50.17,50.17,0,1,0,570.2,598.5Zm-45.86,4.3h0Z"/>
    <path class="cls-1" d="M641.1,899.41a79.57,79.57,0,1,1,79.57-79.57A79.67,79.67,0,0,1,641.1,899.41Zm0-129.73a50.16,50.16,0,1,0,50.16,50.16A50.21,50.21,0,0,0,641.1,769.68Z"/>
    <path class="cls-1" d="M812.28,970.31A79.57,79.57,0,1,1,868.54,947,79.08,79.08,0,0,1,812.28,970.31Zm0-129.7a50.14,50.14,0,0,0-35.47,85.6h0a50.16,50.16,0,1,0,35.47-85.6Z"/>
    <path class="cls-1" d="M983.46,899.41A79.57,79.57,0,1,1,1063,819.84,79.66,79.66,0,0,1,983.46,899.41Zm0-129.73a50.16,50.16,0,1,0,50.15,50.16A50.21,50.21,0,0,0,983.46,769.68Z"/>
    <path class="cls-1" d="M1054.36,728.23a79.57,79.57,0,1,1,56.26-23.3h0A79,79,0,0,1,1054.36,728.23Zm0-129.73a50.16,50.16,0,1,0,35.47,85.63h0a50.16,50.16,0,0,0-35.47-85.63Z"/>
    <path class="cls-1" d="M983.46,557.05A79.57,79.57,0,1,1,1063,477.48,79.65,79.65,0,0,1,983.46,557.05Zm0-129.72a50.16,50.16,0,1,0,50.15,50.15A50.21,50.21,0,0,0,983.46,427.33Z"/>
    <g>
      <path class="cls-1" d="M812.28,310.31A53.5,53.5,0,1,1,850.11,219h0a53.5,53.5,0,0,1-37.83,91.32Zm0-77.57a24.08,24.08,0,1,0,17,7A24,24,0,0,0,812.28,232.74Z"/>
      <path class="cls-1" d="M535.2,425.08a53.5,53.5,0,1,1,53.5-53.5A53.55,53.55,0,0,1,535.2,425.08Zm0-77.58a24.09,24.09,0,1,0,24.09,24.08A24.1,24.1,0,0,0,535.2,347.5Z"/>
      <path class="cls-1" d="M420.43,702.13a53.49,53.49,0,0,1-37.83-91.3h0a53.5,53.5,0,1,1,37.82,91.3Zm-17-70.5a24.09,24.09,0,1,0,34.07,0,24.11,24.11,0,0,0-34.07,0Z"/>
      <path class="cls-1" d="M535.2,979.24a53.5,53.5,0,1,1,53.5-53.5A53.55,53.55,0,0,1,535.2,979.24Zm0-77.59a24.09,24.09,0,1,0,24.09,24.09A24.11,24.11,0,0,0,535.2,901.65Z"/>
      <path class="cls-1" d="M812.28,1094a53.33,53.33,0,0,1-37.83-15.64h0A53.57,53.57,0,1,1,812.28,1094Zm-17-36.44a24.09,24.09,0,1,0,0-34.06,24.11,24.11,0,0,0,0,34.06Z"/>
      <path class="cls-1" d="M1089.36,979.24a53.5,53.5,0,1,1,53.5-53.5A53.56,53.56,0,0,1,1089.36,979.24Zm0-77.59a24.09,24.09,0,1,0,24.08,24.09A24.12,24.12,0,0,0,1089.36,901.65Z"/>
      <path class="cls-1" d="M1204.13,702.13A53.45,53.45,0,1,1,1242,686.49h0A53.33,53.33,0,0,1,1204.13,702.13Zm27.43-26h0Zm-27.43-51.5a24.07,24.07,0,1,0,17,7A24,24,0,0,0,1204.13,624.59Z"/>
      <path class="cls-1" d="M1089.36,425.08a53.5,53.5,0,1,1,53.5-53.5A53.56,53.56,0,0,1,1089.36,425.08Zm0-77.58a24.09,24.09,0,1,0,24.08,24.08A24.11,24.11,0,0,0,1089.36,347.5Z"/>
    </g>
  </g>
</svg>
