<svg id="Layer_1" data-name="Layer 1" xmlns="http://www.w3.org/2000/svg" viewBox="0 0 1556.79 1297.32">
  <defs>
    <style>
      .cls-1 {
        fill: #427a15;
      }

      .cls-2 {
        fill: none;
        stroke: #427a15;
        stroke-linecap: round;
        stroke-linejoin: round;
        stroke-width: 17px;
      }
    </style>
  </defs>
  <title>Artboard 6</title>
  <path class="cls-1" d="M1109.25,333.12c-30-35.29-67.21-53.19-110.37-53.19-101,0-147.28,49.64-174.94,79.3-6.41,6.87-15.13,16.26-16.79,17.3a15.54,15.54,0,0,0-5.42-2.24c-50.4-10.51-62.82-72.05-63-72.94,0-.69.28-1.33.28-2,0-31.59-32.59-56.36-74.17-56.36s-74.2,24.77-74.2,56.36c0,1.12.33,2.16.42,3.28a13.94,13.94,0,0,0-.27,3.64c14.35,103.27,74,142.36,109.7,165.74,5.15,3.37,9.9,6.47,14.09,9.51,41.87,30.33,77.12,65.47,48.72,160.73C734.07,740.3,638.56,774.87,451,755.31c-55.91-5.81-98.64,9-130.63,43.11-63.09,67.29-56.14,186.6-55.8,191.66,0,.29.18.56.23.86,1.38,28.89,33.95,51.28,75.47,51.28,42.46,0,75.74-23.35,75.74-53.14a38.63,38.63,0,0,0-.71-5c16.62-64.57,37.06-82.52,45.89-82.52,5.07,0,9.46,6.09,11.14,8.71,35.29,55.72,147.74,144.1,299.25,144.1,170.07,0,361.8-125.32,406.84-405.29C1191.61,567,1178.86,414.82,1109.25,333.12ZM708.19,299.33c0,12.09-17.82,25.55-43.36,25.55s-43.39-13.46-43.39-25.55,17.81-25.55,43.39-25.55S708.19,287.24,708.19,299.33ZM295.35,989.08c0-10.33,19.63-22.33,44.93-22.33s44.92,12,44.92,22.33-19.61,22.32-44.92,22.32S295.35,999.4,295.35,989.08ZM1148,644.19c-42.14,262.06-219.43,379.34-376.4,379.34-131.74,0-239.1-75.88-273.24-129.78-9.4-14.86-22.57-23-37.15-23-16.57,0-45.54,11.44-68.29,79.91-13.55-9.11-32-14.72-52.63-14.72a99.81,99.81,0,0,0-43.84,9.67c3.25-37.46,13.72-91.2,46.42-126.11,25.19-26.86,59.73-40.48,105-35.79,34.24,3.55,66,3.1,94.31,3.1h0c142.47,0,222.13-42.32,250.69-138,34.11-114.5-13.19-159.28-60.19-193.35-4.51-3.28-9.69-6.1-15.28-9.78-28-18.33-64-42-84-95.52a95.63,95.63,0,0,0,31.41,5.43c21.57,0,40.59-6.67,54-17.5,11.07,24.57,32.86,56.12,74,65.78a27.9,27.9,0,0,0,13.17,3.4c15.25,0,26.36-11.91,40.41-27,25.78-27.68,64.78-69.5,152.4-69.5,33.74,0,63,14.26,86.94,42.37C1148.35,426.52,1159.9,570.2,1148,644.19Z"/>
  <g id="_25-Settings" data-name="25-Settings">
    <g>
      <circle class="cls-2" cx="894.82" cy="804.49" r="54.26"/>
      <path class="cls-2" d="M999.76,777.28h0l31.85,4.55a137.5,137.5,0,0,1,0,45.32l-31.85,4.55h0a107.28,107.28,0,0,1-11.49,27.77l19.29,25.72a139.67,139.67,0,0,1-32,32.05l-25.72-19.29h0A107.49,107.49,0,0,1,922,909.43h0l-4.55,31.85a137.5,137.5,0,0,1-45.32,0l-4.55-31.85h0a107.42,107.42,0,0,1-27.77-11.49h0l-25.72,19.29a139.48,139.48,0,0,1-32-32.05l19.28-25.72a108,108,0,0,1-11.49-27.77h0L758,827.15a138.23,138.23,0,0,1,0-45.32l31.85-4.55h0a108.13,108.13,0,0,1,11.49-27.77L782.08,723.8a139.28,139.28,0,0,1,32-32L839.85,711a108.06,108.06,0,0,1,27.76-11.49h0l4.55-31.85a138.23,138.23,0,0,1,45.32,0L922,699.54h0A108,108,0,0,1,949.79,711l25.72-19.28a139.48,139.48,0,0,1,32,32l-19.29,25.71A107.42,107.42,0,0,1,999.76,777.28Z"/>
    </g>
    <g>
      <path class="cls-2" d="M1032.9,558.19a69.36,69.36,0,0,1,0,30.39v0l18.68,14.66a92.21,92.21,0,0,1-17.89,30.94l-22.07-8.86a70.25,70.25,0,0,1-26.25,15.24h0L982,664.06a91.5,91.5,0,0,1-35.72,0l-3.36-23.52h0a70.25,70.25,0,0,1-26.25-15.24l-22.07,8.86a92.21,92.21,0,0,1-17.89-30.94l18.68-14.66v0a69.36,69.36,0,0,1,0-30.39h0l-18.68-14.66a92.21,92.21,0,0,1,17.89-30.94l22.07,8.86h0a70.25,70.25,0,0,1,26.25-15.24h0l3.36-23.52a91.5,91.5,0,0,1,35.72,0l3.36,23.52h0a70.18,70.18,0,0,1,26.25,15.24h0l22.07-8.86a92.21,92.21,0,0,1,17.89,30.94l-18.68,14.66Z"/>
      <circle class="cls-2" cx="964.15" cy="573.37" r="35.22" transform="translate(65.46 1244.71) rotate(-67.5)"/>
    </g>
  </g>
</svg>
