<svg id="Layer_1" data-name="Layer 1" xmlns="http://www.w3.org/2000/svg" viewBox="0 0 1556.79 1297.32">
  <defs>
    <style>
      .cls-1 {
        fill: #427a15;
      }
    </style>
  </defs>
  <title>Artboard 11</title>
  <g>
    <path class="cls-1" d="M725.05,1125.76a15.83,15.83,0,0,1-15.84-15.84V999.06H566.68c-78.59,0-142.53-63.93-142.53-142.52a142.33,142.33,0,0,1,53-110.86h-5.53c-78.59,0-142.52-63.93-142.52-142.53s63.93-142.53,142.52-142.53H742.55a110.53,110.53,0,0,1-33.34-79.18V223.08a15.84,15.84,0,1,1,31.67,0V381.44a79.28,79.28,0,0,0,79.19,79.18h285a15.84,15.84,0,1,1,0,31.68H471.66a110.86,110.86,0,0,0,0,221.71H1010.1a15.84,15.84,0,1,1,0,31.67H566.68a110.86,110.86,0,0,0,0,221.71H725.05a15.82,15.82,0,0,1,15.83,15.84v126.69A15.83,15.83,0,0,1,725.05,1125.76Z"/>
    <path class="cls-1" d="M851.74,1125.76a15.84,15.84,0,0,1-15.84-15.84V951.55a79.28,79.28,0,0,0-79.18-79.18h-190a15.84,15.84,0,0,1,0-31.67H1010.1a110.86,110.86,0,1,0,0-221.71H471.66a15.84,15.84,0,0,1,0-31.67h633.46a110.86,110.86,0,1,0,0-221.72H851.74a15.83,15.83,0,0,1-15.84-15.83V223.08a15.84,15.84,0,0,1,31.68,0V333.93h237.54c78.6,0,142.53,63.94,142.53,142.53S1183.72,619,1105.12,619h-5.52a142.35,142.35,0,0,1,53,110.85c0,78.6-63.93,142.53-142.53,142.53H834.23a110.52,110.52,0,0,1,33.35,79.18v158.37A15.84,15.84,0,0,1,851.74,1125.76Z"/>
  </g>
</svg>
