<svg id="Layer_1" data-name="Layer 1" xmlns="http://www.w3.org/2000/svg" viewBox="0 0 1556.79 1297.32">
  <defs>
    <style>
      .cls-1 {
        fill: none;
        stroke-width: 42.81px;
      }

      .cls-1, .cls-2 {
        stroke: #427a15;
        stroke-miterlimit: 10;
      }

      .cls-2 {
        fill: #427a15;
        stroke-width: 9.97px;
      }
    </style>
  </defs>
  <title>Artboard 7</title>
  <g>
    <path class="cls-1" d="M778.39,1124.14s368.29-135,368.29-400.31V371.55S981.83,259.47,778.39,259.47,410.11,371.55,410.11,371.55V723.83C410.11,989.11,778.39,1124.14,778.39,1124.14Z"/>
    <path class="cls-2" d="M777.65,348.15c-36.19,0-72.22,15.44-99.62,42.83-27.18,27.19-42.91,63.48-42.91,99.75L635.4,805c-.3,38.16,14.67,73.75,41.77,100.86A141.06,141.06,0,0,0,778,947.63a138.48,138.48,0,0,0,41.13-6.42l1.85-.63a125.37,125.37,0,0,0,17.11-6.77L842.5,932c2-1.18,15.91-9.29,15.91-9.29a158.21,158.21,0,0,0,20.4-16.8c26.8-26.8,41.49-62.67,41.77-100.86l-.21-314.32c.26-38.2-14.91-73.89-41.87-100.8A141,141,0,0,0,777.65,348.15ZM902.3,805.37c0,31.8-13.38,63.34-36.93,86.88s-55.35,37.22-87.14,37.2a124.12,124.12,0,0,1-124.06-124V657.26l248.23.1Zm-.25-314.68-.25,147.88-248.13,0,0-148.07c0-31.7,13.38-63.34,36.92-86.88s55.44-37.14,87.14-37.18A124.48,124.48,0,0,1,902.05,490.69ZM697.85,740.63c-2.39,47.54-.51,77.28,5.87,93.35,11.17,30.44,42.13,52,72,50.14A9.58,9.58,0,0,0,774.53,865c-18.75,1.15-43.63-12.6-52.9-37.85-5.34-13.47-6.85-41.46-4.62-85.55a9.59,9.59,0,0,0-19.16-1Z"/>
  </g>
</svg>
