<svg xmlns="http://www.w3.org/2000/svg" width="48" height="50" viewBox="0 0 48 50"><g><g><g><path fill="#44b2d9" d="M15.8 3.878a22.04 22.04 0 0 1 8.762-1.799c3.04 0 5.987.605 8.762 1.799a22.447 22.447 0 0 1 7.155 4.903c.51.519.994 1.06 1.449 1.62h-5.089c-.566 0-1.025.467-1.025 1.04 0 .576.46 1.04 1.025 1.04h7.136c.073 0 .14-.008.208-.021l.038-.01.061-.016c.004 0 .006-.004.01-.004a1.036 1.036 0 0 0 .708-.988V4.16c0-.575-.459-1.04-1.025-1.04-.564 0-1.022.467-1.022 1.04v4.262C38.455 3.255 31.883 0 24.562 0 11.036 0 .057 11.227 0 24.96 0 25.536.457 26 1.023 26c.564 0 1.028-.466 1.028-1.04 0-3.09.595-6.085 1.77-8.906a22.837 22.837 0 0 1 4.824-7.273A22.47 22.47 0 0 1 15.8 3.878z"/></g><g><path fill="#44b2d9" d="M46.977 24c-.566 0-1.03.466-1.03 1.04 0 3.089-.595 6.085-1.768 8.905a22.867 22.867 0 0 1-4.824 7.273 22.43 22.43 0 0 1-7.157 4.905 22.062 22.062 0 0 1-8.761 1.798c-3.04 0-5.987-.607-8.761-1.798a22.442 22.442 0 0 1-7.155-4.905 22.882 22.882 0 0 1-1.449-1.62h5.089a1.03 1.03 0 0 0 1.022-1.039c0-.575-.456-1.041-1.022-1.041H4.025c-.071 0-.14.008-.208.021-.011.004-.023.006-.038.01a.343.343 0 0 0-.06.018c-.003 0-.007.004-.011.004a1.04 1.04 0 0 0-.708.988v7.281c0 .575.459 1.041 1.025 1.041.566 0 1.024-.464 1.024-1.041v-4.26C9.547 46.745 16.12 50 23.44 50 36.963 50 47.941 38.776 48 25.041c0-.575-.457-1.041-1.023-1.041z"/></g><g><path fill="#44b2d9" d="M31.874 29.76a10.382 10.382 0 0 1-7.368 3.035 10.39 10.39 0 0 1-7.37-3.034 10.26 10.26 0 0 1-3.052-7.327c0-2.768 1.085-5.37 3.052-7.327a10.382 10.382 0 0 1 7.37-3.035c2.784 0 5.4 1.076 7.368 3.035a10.254 10.254 0 0 1 3.052 7.327c0 2.766-1.082 5.369-3.052 7.327zm-.009 4.134c-.351.35-.724.67-1.115.965v-1.666a12.516 12.516 0 0 0 3.52-3.012 10.309 10.309 0 0 1-2.405 3.713zm-8.397 2.97a10.428 10.428 0 0 1-3.135-.805v-1.913a12.63 12.63 0 0 0 3.135.662zm2.076-2.052c1.09-.09 2.141-.316 3.133-.664v1.92c-.99.427-2.042.701-3.133.808zm-7.292-1.62v1.667a10.677 10.677 0 0 1-1.118-.965 10.304 10.304 0 0 1-2.402-3.713 12.542 12.542 0 0 0 3.52 3.012zM24.5 10C17.597 10 12 15.564 12 22.428v4.142C12 33.434 17.597 39 24.501 39 31.403 39 37 33.436 37 26.57v-4.142C37 15.564 31.403 10 24.501 10z"/></g><g><path fill="#44b2d9" d="M24 16c-.552 0-1 .485-1 1.085v10.833c0 .597.448 1.082 1 1.082s1-.485 1-1.082V17.084c0-.6-.448-1.084-1-1.084z"/></g></g></g></svg>