<svg xmlns="http://www.w3.org/2000/svg" width="27" height="30" viewBox="0 0 27 30"><g><g opacity="1"><path fill="#469ad4" d="M.942 2.426A1.875 1.875 0 0 1 1.115.97 1.84 1.84 0 0 1 3.64.287l22.4 13.037c.72.42 1.054 1.255.875 2.033-.105.495-.41.944-.877 1.216L3.967 29.407a1.852 1.852 0 0 1-.708.354 1.853 1.853 0 0 1-2.14-.865 1.893 1.893 0 0 1-.177-1.469zm3.715 2.758V24.67l16.749-9.738z"/><path fill="#469ad4" d="M.942 2.426A1.875 1.875 0 0 1 1.115.97 1.84 1.84 0 0 1 3.64.287l22.4 13.037c.72.42 1.054 1.255.875 2.033-.105.495-.41.944-.877 1.216L3.967 29.407a1.852 1.852 0 0 1-.708.354 1.853 1.853 0 0 1-2.14-.865 1.893 1.893 0 0 1-.177-1.469zm3.715 2.758V24.67l16.749-9.738z"/></g></g></svg>
