<svg xmlns="http://www.w3.org/2000/svg" width="43" height="50" viewBox="0 0 43 50"><g><g><g><path fill="#44b2d9" d="M22.005 6.692c3.264.002 6.395 1.3 8.703 3.61a12.314 12.314 0 0 1 3.61 8.703c0 3.264-1.299 6.397-3.606 8.706a12.322 12.322 0 0 1-8.707 3.605 12.323 12.323 0 0 1-8.707-3.605 12.322 12.322 0 0 1-3.605-8.706c0-3.265 1.298-6.398 3.605-8.707a12.322 12.322 0 0 1 8.707-3.605zM22 33a14.018 14.018 0 0 0 14-14c0-3.714-1.475-7.273-4.101-9.899a13.997 13.997 0 0 0-19.798 0 13.996 13.996 0 0 0 0 19.798 13.996 13.996 0 0 0 9.899 4.1z"/></g><g><path fill="#44b2d9" d="M21.505 1.712A16.822 16.822 0 0 1 38.306 18.51 16.8 16.8 0 0 1 9.624 30.386a16.8 16.8 0 0 1 0-23.755 16.81 16.81 0 0 1 11.881-4.919zM21.5 37A18.519 18.519 0 0 0 40 18.508 18.5 18.5 0 1 0 21.5 37z"/></g><g><path fill="#44b2d9" d="M21.974 22.533a.916.916 0 0 0-.413.091l-4.04 2.002.773-4.243a.8.8 0 0 0-.255-.728l-3.276-3.01 4.523-.621a.875.875 0 0 0 .668-.447l2.02-3.862 2.02 3.862c.132.244.38.412.667.447l4.524.62-3.276 3.011a.8.8 0 0 0-.255.728l.773 4.243-4.04-2.002a.916.916 0 0 0-.413-.09zm5.62 4.422a.919.919 0 0 0 .571-.14.804.804 0 0 0 .352-.827l-1.002-5.463 4.225-3.868a.788.788 0 0 0 .215-.845.865.865 0 0 0-.707-.56l-5.823-.826-2.635-4.96A.887.887 0 0 0 22 9a.887.887 0 0 0-.79.467l-2.635 4.959-5.823.826a.865.865 0 0 0-.707.56.788.788 0 0 0 .215.845l4.225 3.91-1.002 5.462c-.059.31.077.626.347.812.27.186.63.21.927.064l5.217-2.62 5.217 2.579c.125.06.263.09.404.09z"/></g><g><path fill="#44b2d9" d="M30.877 50a.836.836 0 0 1-.73-.432l-7.035-12.512a.88.88 0 0 1 .31-1.182.83.83 0 0 1 1.149.32l6.23 11.114 2.71-5.937a.835.835 0 0 1 .838-.492l6.307.526-6.256-11.08a.89.89 0 0 1-.107-.668.864.864 0 0 1 .394-.542.829.829 0 0 1 .654-.082c.22.067.402.22.51.43L42.885 42a.887.887 0 0 1-.016.897.83.83 0 0 1-.78.397l-7.313-.612-3.145 6.825a.837.837 0 0 1-.721.492z"/></g><g><path fill="#44b2d9" d="M12.124 50a.837.837 0 0 1-.721-.492l-3.136-6.826-7.312.613a.833.833 0 0 1-.815-.375.888.888 0 0 1-.023-.92L7.15 29.464a.848.848 0 0 1 .51-.43.828.828 0 0 1 .654.082c.197.12.34.313.394.542a.89.89 0 0 1-.107.669L2.398 41.44l6.305-.527a.835.835 0 0 1 .838.492l2.709 5.877 6.18-11.088a.83.83 0 0 1 1.148-.32.88.88 0 0 1 .31 1.183l-7.034 12.512a.835.835 0 0 1-.73.431z"/></g></g></g></svg>