<svg xmlns="http://www.w3.org/2000/svg" width="50" height="50" viewBox="0 0 50 50"><g><g><g><path fill="#44b2d9" d="M7.757 35.342h5.171v10.355H7.757zm9.08.862c2.859.005 5.678.669 8.236 1.946a6.079 6.079 0 0 0 2.72.643h6.689a1.292 1.292 0 0 1 1.276 1.151 1.29 1.29 0 0 1-.992 1.402c-.112.011-.224.035-.338.035H24.136v1.725h10.346c.017 0 .034-.004.051-.004a5.35 5.35 0 0 0 1.99-.423l7.207-3.062h.002c.343-.147.73-.147 1.074 0 .357.15.638.442.776.804.146.369.137.783-.022 1.145-.153.354-.442.63-.8.766l-13.318 5.081a13.189 13.189 0 0 1-9.701-.103l-7.09-2.95v-8.156zm2.124-6.273c0-6.206 2.534-14.353 9.653-17h9.998c7.12 2.646 9.653 10.794 9.653 17a10.22 10.22 0 0 1-3.23 7.959 3.068 3.068 0 0 0-1.986.138l-5.59 2.372a2.63 2.63 0 0 0 .033-.316 3.016 3.016 0 0 0-3.017-3.017h-6.686c-.677 0-1.342-.16-1.948-.462a20.19 20.19 0 0 0-5.94-1.879 11.817 11.817 0 0 1-.94-4.795zM37.923 8.62v2.586h-8.62V8.62zM26.718 1.724h1.367l1.471 1.475a.862.862 0 0 0 1.22 0l1.471-1.475h2.735l1.471 1.475h-.002a.862.862 0 0 0 1.22 0l1.472-1.475h1.366v3.558l-2.026 1.624h-9.739L26.72 5.282zM6.895 47.41h6.895a.863.863 0 0 0 .862-.862v-.327l6.434 2.672a14.908 14.908 0 0 0 10.97.12l13.314-5.077a3.14 3.14 0 0 0 1.76-1.678 3.171 3.171 0 0 0-.558-3.442 11.95 11.95 0 0 0 3.417-8.885c0-6.637-2.734-15.318-10.342-18.432V8.172l2.262-1.81a.858.858 0 0 0 .323-.673V.862A.863.863 0 0 0 41.37 0h-2.585a.863.863 0 0 0-.61.252l-1.114 1.114L35.947.252a.863.863 0 0 0-.61-.252H31.89a.863.863 0 0 0-.61.252l-1.114 1.114L29.052.252a.863.863 0 0 0-.61-.252h-2.585a.862.862 0 0 0-.862.862v4.827c0 .263.118.509.323.673l2.262 1.81v3.325c-7.608 3.116-10.342 11.799-10.342 18.432v.002a14.137 14.137 0 0 0 .715 4.582c-.37-.02-.743-.033-1.116-.033h-2.185a.863.863 0 0 0-.862-.862H6.895a.862.862 0 0 0-.862.862H0v1.724h6.033v8.62H0v1.725h6.033a.863.863 0 0 0 .862.862z"/></g><g><path fill="#44b2d9" d="M9 42h2v2H9z"/></g><g><path fill="#44b2d9" d="M32.4 29.286h.226V31h1.748v-1.714h.225c1.176 0 2.18-.836 2.37-1.976.188-1.138-.494-2.244-1.611-2.606l-3.16-1.033a.638.638 0 0 1-.44-.707.645.645 0 0 1 .643-.535H34.6c.358 0 .649.285.649.638v.562h1.748v-.562c0-1.298-1.073-2.35-2.397-2.353h-.226V19h-1.748v1.714H32.4c-1.176 0-2.18.836-2.37 1.976-.188 1.138.494 2.244 1.611 2.606l3.16 1.033c.305.098.49.398.44.707a.645.645 0 0 1-.643.535h-2.198a.643.643 0 0 1-.65-.638v-.562h-1.748v.562c0 1.298 1.073 2.35 2.398 2.353z"/></g><g><path fill="#44b2d9" d="M33.495 17.727a7.768 7.768 0 1 1-7.768 7.768 7.776 7.776 0 0 1 7.768-7.768zM33.5 35a9.5 9.5 0 1 0-9.5-9.5 9.506 9.506 0 0 0 9.5 9.5z"/></g></g></g></svg>