<svg xmlns="http://www.w3.org/2000/svg" width="32" height="32" viewBox="0 0 32 32"><g><g><path fill="#fff" d="M19.065 16.003a3.062 3.062 0 1 1-6.125 0 3.062 3.062 0 0 1 6.125 0z"/></g><g><path fill="#fff" d="M23.48 12.29c.045.968.054 1.259.054 3.712 0 2.453-.01 2.744-.053 3.713-.041.896-.19 1.382-.317 1.706a3.042 3.042 0 0 1-1.743 1.743c-.324.126-.81.276-1.706.317-.969.044-1.26.053-3.713.053-2.453 0-2.744-.01-3.712-.053-.896-.041-1.383-.19-1.706-.317-.4-.147-.76-.382-1.057-.687a2.847 2.847 0 0 1-.687-1.056c-.126-.324-.276-.81-.316-1.706-.044-.97-.054-1.26-.054-3.713 0-2.453.01-2.744.054-3.712.04-.896.19-1.383.316-1.706.147-.4.382-.76.687-1.057.297-.305.658-.54 1.057-.687.323-.126.81-.276 1.706-.317.968-.044 1.259-.053 3.712-.053 2.453 0 2.744.01 3.713.054.896.04 1.382.19 1.706.316.399.147.76.382 1.056.687.305.297.54.658.687 1.057.126.323.276.81.317 1.706zm-2.76 3.712a4.718 4.718 0 1 0-9.435 0 4.718 4.718 0 0 0 9.435 0zm1.29-4.904a1.103 1.103 0 1 0-2.206 0 1.103 1.103 0 0 0 2.205 0z"/></g><g><path fill="#fff" d="M32 16c0 8.835-7.165 16-16 16S0 24.835 0 16 7.165 0 16 0s16 7.165 16 16zm-6.813 0c0-2.495-.01-2.808-.055-3.788-.044-.978-.2-1.646-.427-2.23a4.502 4.502 0 0 0-1.06-1.627 4.504 4.504 0 0 0-1.627-1.06c-.584-.227-1.252-.382-2.23-.427-.98-.045-1.293-.056-3.788-.056s-2.808.011-3.788.056c-.978.045-1.646.2-2.23.427a4.5 4.5 0 0 0-1.627 1.06 4.5 4.5 0 0 0-1.06 1.627c-.227.584-.383 1.252-.427 2.23-.045.98-.056 1.293-.056 3.788s.011 2.808.056 3.788c.045.978.2 1.646.427 2.23.23.613.592 1.168 1.06 1.627.459.468 1.014.83 1.627 1.06.584.227 1.252.382 2.23.427.98.045 1.293.055 3.788.055s2.808-.01 3.788-.055c.978-.045 1.646-.2 2.23-.427a4.698 4.698 0 0 0 2.687-2.687c.227-.584.383-1.252.427-2.23.045-.98.055-1.293.055-3.788z"/></g></g></svg>