<svg xmlns="http://www.w3.org/2000/svg" width="32" height="32" viewBox="0 0 32 32"><g><g><path fill="#fff" d="M32 16c0 8.822-7.178 16-16 16S0 24.822 0 16 7.178 0 16 0c8.823 0 16 7.178 16 16zm-7.027-5.566c-.658.294-1.37.49-2.115.58a3.699 3.699 0 0 0 1.621-2.038 7.35 7.35 0 0 1-2.339.894 3.683 3.683 0 0 0-6.275 3.36 10.457 10.457 0 0 1-7.59-3.85 3.666 3.666 0 0 0-.499 1.853 3.68 3.68 0 0 0 1.638 3.064 3.668 3.668 0 0 1-1.667-.46v.047a3.683 3.683 0 0 0 2.953 3.61 3.679 3.679 0 0 1-1.663.062 3.686 3.686 0 0 0 3.44 2.558 7.391 7.391 0 0 1-5.452 1.525 10.416 10.416 0 0 0 5.645 1.653c6.775 0 10.479-5.61 10.479-10.476 0-.16-.004-.32-.011-.478a7.407 7.407 0 0 0 1.835-1.904z"/></g></g></svg>