<?xml version="1.0" standalone="no"?>
<!DOCTYPE svg PUBLIC "-//W3C//DTD SVG 1.1//EN" "http://www.w3.org/Graphics/SVG/1.1/DTD/svg11.dtd" >
<svg xmlns="http://www.w3.org/2000/svg" xmlns:xlink="http://www.w3.org/1999/xlink" version="1.1">
<metadata>
Created by FontForge 20170731 at Thu Jan 24 16:00:08 2019
 By Aleksey,,,
Typeface (c) Abo Daniel 2019. All Rights Reserved
</metadata>
<defs>
<font id="RomanticallyFreeForPersonal" horiz-adv-x="3593" >
  <font-face 
    font-family="Romantically Free For Personal"
    font-weight="400"
    font-stretch="normal"
    units-per-em="2048"
    panose-1="2 0 5 0 0 0 0 0 0 0"
    ascent="1638"
    descent="-410"
    x-height="640"
    cap-height="3860"
    bbox="-9088 -3581 17169 5247"
    underline-thickness="150"
    underline-position="-442"
    unicode-range="U+001D-E500"
  />
<missing-glyph horiz-adv-x="1024" 
d="M100 0v1434h824v-1434h-824zM150 50q353 159 724 0v1334q-384 -118 -724 0v-1334zM419 334l57 58q11 10 20 10q10 0 22 -11l56 -60q9 -11 9 -20q0 -11 -10 -22l-56 -62q-14 -14 -21 -14q-11 0 -20 10l-61 71q-7 9 -7 18q0 10 11 22zM413 1191q53 30 112 30
q92 0 148 -47.5t56 -127.5q0 -49 -23 -98.5t-87 -129.5q-63 -80 -99 -132t-36 -99q0 -38 24 -133h-32q-35 97 -35 148q0 76 81.5 218t81.5 217q0 57 -33 90t-91 33q-8 0 -16 -1l32 -51q7 -12 5 -21q-2 -11 -14 -20l-66 -50q-17 -11 -24 -10q-10 2 -17 14l-47 81q-5 10 -3 19
q1 10 28.5 32.5t54.5 37.5z" />
    <glyph glyph-name="a.swsh" unicode="a__" horiz-adv-x="8547" 
d="M-4514 -1451q-61 0 -127 30t-100 83q-16 25 -16 50q0 28 19 57q69 86 276 173.5t517 188.5q626 205 1484 378t1792.5 302.5t1790.5 201.5q881 74 1507 74q287 0 500 -19q347 -32 436 -133q29 -36 29 -81q0 -19 -6 -37q-31 -86 -145 -150q856 123 1831 181
q1264 75 2432 75q509 0 764 -15q60 -1 60 -40q0 -15 -13 -29q-16 -19 -49 -19h-10q-478 42 -1064 42q-127 0 -563.5 -7t-1460.5 -72q-526 -34 -1057 -98q-928 -112 -1165 -181q-76 -22 -143 -36q-361 -139 -1006 -321q-43 -12 -75 -12q-61 0 -61 33q0 4 4.5 21.5t82.5 68.5
q315 193 1023 329l100 38q172 61 273 111l4 3q75 40 117 77q34 31 34 55t-45 41q-210 77 -751 77q-673 0 -1567 -78q-850 -73 -1767 -207t-1768 -308q-422 -88 -794 -198t-675 -213q-378 -121 -504 -209q-73 -51 -73 -94q0 -28 40 -62q23 -19 23 -30q0 -20 -115 -40z" />
    <glyph glyph-name="b.swsh" unicode="b__" horiz-adv-x="5292" 
d="M4537 -1304q-14 0 -26 6q-24 13 -24 38q0 3 1.5 20t51.5 42l81 41q80 40 189 106.5t203 147.5q145 129 178 230q2 10 2 20q0 48 -49 98.5t-107 78.5q-394 176 -1030 231q-380 33 -813 33q-292 0 -607 -15q-783 -38 -1632 -127q-1049 -110 -2450 -299q-595 -81 -1113 -143
q-588 -71 -971 -88q-255 -16 -448 -16q-404 0 -518 153q-30 50 -30 105q0 57 32 120q35 62 73 62q35 0 56 -30q14 -20 14 -41q0 -11 -4 -23q-29 -54 -29 -77q0 -14 8 -25q34 -56 124 -83q178 -48 514 -48q449 0 1340 105q617 72 1328 165q1206 157 2064 250q849 92 1637 129
q338 17 686 17q110 0 397.5 -4t702.5 -65t714 -204q83 -39 137 -114q39 -54 39 -124q0 -27 -6 -56q-24 -81 -82 -152.5t-133 -137.5q-102 -88 -205.5 -159t-175.5 -113l-73 -42q-26 -12 -46 -12z" />
    <glyph glyph-name="c.swsh" unicode="c__" horiz-adv-x="10249" 
d="M8982 -897q-27 0 -46 12q-27 17 -27 42q0 6 4.5 25.5t71.5 43.5l130 42q370 118 652 262l30 16q202 98 263 176q21 26 21 53q0 24 -27.5 61t-185.5 80q-1076 274 -3260 274q-1399 0 -3269 -125q-1196 -81 -2393 -175l-947 -73q-342 -25 -676 -51q-1210 -93 -2263 -165
q-1594 -109 -2394 -109q-741 0 -1020 86q-188 58 -190 191q6 70 60 128q12 12 27 12q33 0 56 -38q11 -18 11 -38q0 -8 -3.5 -18t-3.5 -23q0 -23 20 -58.5t67 -55.5q70 -27 190 -46q229 -33 649 -33q896 0 2252 96q856 60 1846 139q660 52 1362 106q1412 108 2860.5 199.5
t2790.5 128.5q599 16 1157 16q2062 0 3081 -268q169 -43 242 -118q46 -51 46 -120q0 -37 -15 -70q-43 -87 -140 -156t-223 -132q-170 -87 -345 -157t-297 -112l-123 -42q-23 -6 -41 -6z" />
    <glyph glyph-name="d.swsh" unicode="d__" horiz-adv-x="7892" 
d="M-6712 -2593q-31 0 -70 12l-53 41q-53 40 -129 109q-164 148 -250 291q-69 116 -69 216q0 47 20 110.5t96 126.5q334 260 1107 467q757 201 1805.5 345t2269.5 233q1974 143 4022 143q1726 0 3134 -104q1001 -74 1687 -203q339 -64 577.5 -141.5t368.5 -178.5
q57 -45 60 -112q-5 -64 -46 -106q-80 -84 -205 -144q-82 -41 -160.5 -69t-131.5 -42l-53 -15q-31 -9 -54 -9t-38 9q-22 15 -22 35q0 8 7.5 28t70.5 38l58 19q181 59 304 107q190 74 190 143q0 64 -126 124q-218 103 -800 215q-615 116 -1692 196q-1244 91 -2883 91
q-2244 0 -4259 -146q-1218 -89 -2262 -233q-1157 -156 -1796 -326q-755 -206 -1078 -454q-53 -42 -66 -85q-6 -21 -6 -45q0 -23 6 -50q22 -84 157 -240q119 -134 304 -217l65 -29q53 -32 53 -68q0 -4 -3.5 -26.5t-54.5 -44.5q-24 -11 -55 -11z" />
    <glyph glyph-name="e.swsh" unicode="e__" horiz-adv-x="9425" 
d="M-6711 -1909q-225 0 -414 12q-302 19 -505 78t-297 182q-57 80 -57 177q0 209 267 497q16 16 33 16q11 0 32 -12.5t25 -86.5q-5 -74 -51.5 -137.5t-96.5 -112.5q-95 -95 -95 -161q0 -57 42 -107q57 -77 237 -133q286 -89 879 -89q1043 0 3390 301q1039 133 2234 295
q1538 209 3254.5 424.5t3521 389t3609.5 257.5q49 -4 66 -29q9 -13 9 -25q0 -11 -8 -21q-11 -14 -36 -14q-13 0 -30 4q-1740 -81 -3482.5 -252t-3407 -385t-3171.5 -424q-1368 -191 -2544 -341q-2348 -303 -3404 -303z" />
    <glyph glyph-name="f.swsh" unicode="f__" horiz-adv-x="5267" 
d="M2392 -2881l-20 1q-451 60 -927 178q-808 199 -1555 464l-259 91q-68 22 -68 62q0 35 78 35l496 30q1405 85 2751 236q1378 154 1925 317q307 92 307 178q0 16 -21 53.5t-213 111.5q-679 250 -1587 369q-940 122 -1987 122q-1737 0 -3181 -277q-617 -119 -1080.5 -259.5
t-716.5 -295.5q-118 -77 -147 -153q-24 -64 -24 -117l1 -19q0 -44 -42 -79q-31 -26 -64 -26q-13 0 -42 7.5t-41 107.5q0 205 295 384q274 167 745 308q971 289 2417 433q948 94 1932 94q1095 0 2035 -133q844 -120 1495 -368q308 -117 308 -263q0 -70 -64 -127
q-302 -269 -2236 -490q-1025 -113 -1912 -166.5t-1187 -53.5q123 -67 504 -175.5t841 -218t818 -180.5q317 -62 413 -62q12 0 21 1q25 11 46 11q17 0 38.5 -12.5t21.5 -46.5q0 -28 -28.5 -50t-85.5 -22zM3082 -2959q34 0 54.5 13t38.5 35q22 27 64 55q-19 36 -63 53
q-59 22 -96 22q-34 0 -69 -23t-42 -62v-6q0 -34 31 -58q39 -29 82 -29z" />
    <glyph glyph-name="g.swsh" unicode="g__" horiz-adv-x="8601" 
d="M-6845 -2465q-9 0 -16 3q-202 166 -202 340q0 21 3 42q34 201 319 358q559 322 2191 571q3536 546 12086 656q68 -3 88 -40q9 -17 9 -33q0 -18 -12 -34q-15 -20 -48 -20q-16 0 -36 5l-624 1q-2393 0 -4583 -88t-3967.5 -242.5t-2893.5 -325.5q-829 -127 -1362 -268
q-772 -204 -975 -426q-67 -73 -67 -131q0 -39 61 -108q30 -33 56 -73q37 -55 37 -108q0 -28 -12 -48q-19 -31 -52 -31zM8407 -661q34 0 54.5 13t38.5 35q22 28 64 55q-19 36 -64 53q-59 22 -96 22q-34 0 -68.5 -22.5t-41.5 -62.5v-6q0 -34 31 -58q39 -29 82 -29z" />
    <glyph glyph-name="h.swsh" unicode="h__" horiz-adv-x="9329" 
d="M1546 -2525q-16 0 -34 4q-311 123 -465 236q-165 119 -169 247q0 68 41 124q108 144 480 249q848 239 2929 378q693 47 1388 83l2052 97q1242 60 1242 103q0 1 -6 13.5t-101 39.5q-166 47 -476 97q-751 120 -1848 183q-1242 70 -2727 70q-2683 0 -5368 -204
q-1695 -129 -3192 -343t-2590 -517q-132 -37 -139 -99l-1 -20q0 -16 2.5 -29t2.5 -23q0 -8 -2 -19t-25 -18q-239 46 -239 148q0 68 97 98q808 249 1888 442q2087 372 4926 556q2331 151 4606 151q1537 0 2768 -71q993 -56 1681 -158q685 -98 982 -250l2 -1q9 -4 19 -12
q26 -21 26 -53q0 -34 -15 -53q-27 -30 -69 -37q-88 -25 -304 -45q-480 -44 -1858 -105q-616 -28 -1295 -62q-1323 -68 -2536 -171q-563 -48 -1026 -111q-830 -113 -1120 -293q-96 -64 -96 -115q0 -26 37.5 -73t104.5 -98q134 -99 438 -221q64 -30 64 -65q0 -25 -26 -41
q-20 -12 -49 -12z" />
    <glyph glyph-name="i.swsh" unicode="i__" horiz-adv-x="10850" 
d="M-8775 -2466q-95 0 -236 15q-77 22 -77 71q0 29 39 46q2308 724 5741 1144q2926 358 6350 510q2685 118 5244 118q1038 0 1671.5 -11t753.5 -17q71 -7 71 -41q0 -13 -15 -25t-40 -12l-312 12q-1037 36 -2003 36q-365 0 -1199.5 -7t-2433.5 -62t-3383.5 -170.5
t-3581.5 -306.5t-3435 -473t-2944 -670q20 -35 20 -63q0 -20 -18 -49t-126 -41q-37 -4 -86 -4z" />
    <glyph glyph-name="j.swsh" unicode="j__" horiz-adv-x="11326" 
d="M-1554 -2472q-30 0 -212 2t-447 64t-438 195q-46 32 -60 87q-1 11 -1 22q0 44 25 80q59 80 200 139q285 128 894 258.5t1490 253.5q1409 196 3155 312q62 45 112.5 92t98.5 117q25 48 25 90q0 88 -108 148q-103 56 -311 94q-800 146 -1740 146q-703 0 -1483.5 -75
t-1601.5 -218.5t-1581.5 -322.5t-1417.5 -371t-1165.5 -371.5t-822.5 -319.5q-88 -40 -149 -84t-107 -84q-67 -61 -133 -92q-21 -8 -39 -8q-20 0 -43.5 16.5t-23.5 58.5q0 36 29 74q101 95 416 231q320 143 832 323q1146 405 2595 747q1535 360 2971 509q854 89 1670 89
q947 0 1805 -154q218 -40 344 -105q185 -90 185 -246q0 -130 -152 -272q2191 145 3388 145q593 0 1456.5 -36.5t2308.5 -210.5q126 -24 126 -70q0 -16 -22 -28q-18 -9 -47 -9t-68 9q-1461 178 -2545 227q-553 26 -1108 26q-534 0 -1348 -36t-2302 -149
q-263 -186 -683 -372.5t-940 -357.5q-572 -187 -1185 -326t-1188 -200q-346 -37 -654 -37zM-1512 -2347q279 0 600 34q565 60 1173 198t1174 323q874 288 1407 595q-1619 -114 -2929 -296q-877 -122 -1482 -252.5t-867 -249.5l-7 -3q-87 -33 -129 -72q-14 -13 -14 -25
q0 -10 10 -20q310 -232 1064 -232zM11120 -1414q37 0 58 13.5t39 35.5q22 27 64 55q-19 36 -63 53q-59 22 -96 22q-34 0 -69 -23t-42 -62v-6q0 -34 31 -58q40 -30 78 -30z" />
    <glyph glyph-name="at2" unicode="at" horiz-adv-x="2952" 
d="M2510 -1657q-75 0 -205 536q-77 315 -125 757q-39 359 -39 792q0 273 16 569q8 161 33 456q-219 -581 -489 -1007q-227 -368 -474 -484q-79 -35 -146 -35q-46 0 -116 29t-111 171q-26 100 -26 181q0 104 30 194q10 32 10 41q0 3 -1 3q-3 0 -9 -9q-29 -50 -67 -100
l-55 -75q-88 -127 -212 -250q-153 -158 -308 -158q-80 0 -147 39t-92 117q-8 29 -8 62q0 54 29.5 136.5t137.5 193.5q68 69 165 127.5t211 87.5q66 16 134 16q48 0 97 -8q33 -10 59 -27t37 -56l7 12q25 45 60 85q26 24 61 24q25 0 41 -19q13 -20 13 -65q0 -55 -24 -212
q-27 -157 -28 -286q4 -120 66 -168q30 -22 70 -22q45 0 103 27q115 56 211.5 159t230.5 298q167 242 304.5 553t258.5 659q15 97 22 202q-547 -33 -949 -72.5t-510 -73.5l13 -11q8 -11 8 -21t-12 -18q-31 -23 -111 -23q-15 0 -56.5 2.5t-95.5 21.5t-59 50q0 28 49 49
q81 35 229 53q705 86 1504 123q45 376 84 571q14 107 47 167t69 61q28 0 46 -32q25 -45 34 -101q6 -41 6 -138q0 -243 -72 -518q6 1 13 1l62 3q968 37 1683 43q35 -13 35 -37q0 -14 -15 -32l-17 -16q-169 5 -364 5q-601 0 -1419 -45q-30 -100 -82 -216q-10 -22 -19 -45
l-7 -36q-59 -306 -78 -920q-7 -264 -7 -485q0 -299 18 -602t108 -658q28 -106 66.5 -184.5t74.5 -138.5q71 -115 71 -171q0 -17 -4 -34q-21 -68 -68 -68zM242 37q64 4 120.5 34.5t114.5 79.5q172 145 328 421q-23 -6 -40 -6q-42 0 -70 43q-11 15 -25 26.5t-38 11.5
q-9 0 -20 -3q-142 -38 -255.5 -114t-177.5 -177q-56 -89 -56 -190l1 -28q5 -41 36 -69.5t79 -28.5h3z" />
    <glyph glyph-name="bt" unicode="bt" horiz-adv-x="2275" 
d="M1821 -1642q-74 0 -205 536q-77 315 -125 757q-39 359 -39 792q0 99 2 202q13 481 37 722l1 17q0 13 -4 13q-5 0 -15 -19q-252 -445 -558 -867q-24 -32 -24 -56q0 -23 16 -63q25 -71 25 -163q0 -74 -17 -160q-53 -218 -204 -405.5t-340 -286.5q-98 -51 -165 -51
q-19 0 -53 6.5t-56 58.5q-8 23 -8 47q0 37 23 90q31 72 105 159q16 19 34 43q82 108 175 228q338 434 338 460q0 22 -30 42q-65 48 -173 48q-89 0 -165 -54t-120.5 -133.5t-103.5 -261.5q-25 -75 -36.5 -149.5t-14.5 -124.5l-3 -51q-10 -34 -37 -49q-16 -9 -31 -9
q-11 0 -29.5 8t-26.5 51q-5 35 -5 105l1 67q8 483 76 1305q29 348 52 555l1 10q0 10 -11 10l-15 -2q-88 -14 -125 -27l12 -11q9 -12 9 -21q0 -11 -12 -19q-32 -22 -112 -22q-84 0 -151 24q-59 21 -59 51q0 48 163 82q85 17 271 38q27 3 36.5 10.5t11.5 25.5q28 205 91 540
q-52 39 -52 107q0 128 151 374q34 57 72 57q31 0 53 -27t25 -51q-156 -510 -221 -1002v-3q0 -10 14 -10h15q615 60 1271 89q45 371 84 565q14 106 47.5 167t70.5 61q44 0 70 -100q5 -17 8 -33q6 -41 6 -137q0 -245 -71 -514q941 35 1637 41q36 -11 36 -34q0 -17 -15 -34
l-17 -16q-175 4 -367 4q-575 0 -1295 -38q-40 -137 -103 -267q-24 -104 -48.5 -315t-36.5 -641q-7 -264 -7 -485q0 -300 18 -602.5t108 -657.5q28 -107 66.5 -185.5t74.5 -137.5q71 -117 71 -172q0 -17 -4 -33q-21 -68 -68 -68zM123 155q95 230 235 341q128 97 267 97
q99 0 181 -59q17 -13 29 -13q16 0 33 26l3 5q409 569 639 1023q10 100 18 157q7 46 11 85l8 94q-796 -46 -1277 -102h-8q-21 0 -21 -14q-31 -254 -59 -582q-39 -498 -52 -877q-5 -145 -7 -181zM225 -537q33 0 91 26q145 75 262.5 223t177.5 290q49 146 49 243q0 27 -4 51
q-2 34 -11 36q-6 0 -12 -9q-201 -270 -375 -496q-127 -165 -151 -200q-67 -90 -67 -130q0 -34 40 -34z" />
    <glyph glyph-name="ct" unicode="ct" horiz-adv-x="2487" 
d="M2107 -1642q-74 0 -205 536q-77 315 -125 757q-39 359 -39 792q0 277 16 571q9 164 33 459q-235 -605 -510 -1014.5t-578 -575.5l-16 -10q-240 -124 -428 -124q-217 0 -281 201q-21 72 -21 144q0 155 95 321q62 108 142 195q121 132 245 197q71 39 135 39q53 0 99 -37
q26 -28 26 -70q0 -21 -3 -40q-15 -113 -72 -216q-17 -27 -53 -27t-67 26t-34 76q2 45 62 127q23 29 23 36q0 2 -2 2q-11 0 -57 -27q-98 -51 -209 -170q-108 -119 -166 -263q-36 -90 -36 -175q0 -51 13 -101q29 -95 85 -126q46 -27 103 -27q154 0 382 108
q309 174 606.5 628.5t539.5 1131.5q13 94 21 194q-501 -33 -862 -69.5t-460 -68.5l12 -11q9 -12 9 -21q0 -11 -12 -19q-32 -22 -112 -22q-84 0 -151 24q-59 21 -59 51q0 27 49 48q85 35 228 53q641 78 1368 116q46 380 85 578q14 106 47.5 167t70.5 61q44 0 70 -100
q5 -17 8 -33q6 -44 6 -141q0 -245 -74 -521l212 10q968 36 1683 42q36 -11 36 -34q0 -17 -15 -34l-17 -16q-167 5 -360 5q-649 0 -1561 -53q-37 -122 -91 -234l-8 -19l-20 -147q-18 -119 -34 -288t-31 -521q-12 -304 -12 -552q0 -258 20 -548t111 -645q28 -107 66.5 -185.5
t74.5 -137.5q71 -117 71 -172q0 -17 -4 -33q-21 -68 -68 -68z" />
    <glyph glyph-name="dt" unicode="dt" horiz-adv-x="2898" 
d="M2532 -1642q-74 0 -205 536q-77 315 -125 757q-39 359 -39 792q0 99 2 202q11 447 33 680l-10 -39q-220 -858 -374 -1352q-175 -562 -301 -719q-42 -52 -88 -52q-52 0 -89 43q-64 78 -90 239q-18 117 -31 364q-14 232 -14 423q0 255 37 745v9q0 7 -2 7q-3 0 -8 -9
q-139 -246 -251 -405q-208 -304 -407.5 -511t-444.5 -287q-35 -10 -69 -10q-24 0 -65 9t-79 53q-53 65 -53 157q0 129 90 268q116 179 289 292q132 85 269 85q80 0 141 -33q52 -28 83 -81q17 -27 17 -53q0 -24 -14 -47q-25 -33 -60 -33q-1 0 -19.5 1t-49.5 29q-19 19 -32 43
q-21 41 -44 47q-12 1 -25 1q-149 0 -334 -177q-139 -141 -179 -284q-7 -32 -7 -56q0 -50 23 -78q39 -47 98 -47q25 0 54 8q157 51 271.5 139t213.5 214t212 290l71 103q92 133 171.5 284t160.5 322q25 242 78 603q-644 -58 -797 -103l12 -12q9 -9 9 -19l-2 -9
q-4 -14 -39 -23.5t-83 -9.5q-14 0 -55.5 2.5t-95.5 21t-59 50.5q0 28 48 49q86 36 230 53q374 47 848 90q10 58 21 115q54 268 87.5 392.5t74.5 234.5q64 172 111 228q34 39 63 39q45 0 61 -113q10 -105 10 -198q0 -67 -9 -169t-58 -300q-27 -110 -56 -203q315 25 609 41
q45 373 84 568q14 106 47.5 167t70.5 61q44 0 70 -100q5 -17 7 -33q7 -41 7 -138q0 -245 -71 -514q966 36 1680 42q36 -11 36 -34q0 -17 -16 -34l-16 -16q-142 4 -307 4q-569 0 -1401 -48q-28 -94 -78 -204l-22 -53l-20 -147q-18 -119 -34 -288t-31 -521q-12 -304 -12 -552
q0 -258 20 -548t111 -645q28 -107 66.5 -185.5t74.5 -137.5q71 -117 71 -172q0 -17 -4 -33q-21 -68 -68 -68zM1483 1931l103 9q38 120 63 214.5t45 220.5q26 162 26 253q0 75 -18 75q-8 0 -19 -16l-9 -22q-41 -82 -92 -269q-32 -121 -85 -386zM1426 -779q11 0 42 32
q60 73 136 260q179 443 428 1427q95 370 201 747q2 21 6 45q9 56 18 168q-330 -21 -630 -45q-67 -192 -196 -453l-32 -67l-19 -181q-71 -647 -71 -991q0 -164 10 -340l1 -26q8 -141 15 -239q28 -281 77 -330q7 -7 14 -7zM1433 1570q4 0 15 22q59 118 107 257l-86 -7
l-36 -243q-2 -15 -2 -22t2 -7z" />
    <glyph glyph-name="et" unicode="et" horiz-adv-x="2448" 
d="M1976 -1642q-74 0 -205 536q-77 315 -125 757q-39 359 -39 792q0 277 16 571q9 164 34 459q-232 -593 -514 -1061q-132 -220 -254.5 -384.5t-248.5 -263.5l-19 -16q-134 -110 -297 -134q-18 -2 -35 -2q-136 0 -232 102q-104 109 -104 316l1 34q11 172 52.5 296.5
t99.5 205t120 120.5q55 39 115 39h12q73 -12 102.5 -59t29.5 -92v-13q-11 -103 -81 -161q-75 -63 -139 -76q-34 -7 -64 -7q-28 0 -53 6l-8 1q-11 0 -14 -13q-35 -109 -47 -254l-1 -31q0 -181 66 -258q63 -73 154 -73l30 1q135 15 241 97q247 195 523 650q332 550 587 1259
q13 93 21 192q-491 -32 -843.5 -68.5t-450.5 -67.5l12 -11q9 -11 9 -22q0 -10 -12 -18q-31 -22 -112 -22q-14 0 -55.5 2.5t-95 21.5t-59.5 50q0 28 49 49q86 35 229 53q627 77 1339 114q46 382 85 580q15 106 48 167t69 61q44 0 71 -100q14 -41 14 -167q0 -252 -74 -529
q121 5 241 11q968 36 1683 42q36 -11 36 -34q0 -17 -16 -34l-16 -16q-164 5 -351 5q-704 0 -1599 -55q-41 -134 -99 -251q-10 -81 -20 -147q-18 -119 -34 -288t-30 -521q-13 -305 -13 -552q0 -258 20.5 -548t111.5 -645q27 -107 65.5 -185.5t75 -138.5t57.5 -109
q13 -33 13 -64q0 -16 -3 -31q-22 -68 -69 -68zM214 379q75 0 143 67q52 54 52 115q0 50 -46 50q-56 0 -136 -104q-35 -46 -60 -92q-6 -10 -6 -17q0 -5 4.5 -10t19 -7t29.5 -2z" />
    <glyph glyph-name="ft" unicode="ft" horiz-adv-x="1909" 
d="M372 -2467h-8q-136 10 -248 130q-112 117 -197 318t-129 474q-33 203 -33 439q0 81 4.5 164t22.5 237l2 20q0 17 -6.5 22.5t-25.5 5.5h-21q-252 0 -584 -94q-62 -34 -120 -69q-48 -29 -86 -50q-70 -36 -112 -36q-14 0 -25 4q-38 14 -38 50q0 6 4.5 33.5t70.5 74.5
q60 45 238 84l85 19q328 214 668 479q23 18 32 34q5 9 17 47q93 376 220 625q130 255 255 383l43 44q23 12 42 12q23 0 46 -24.5t32 -84.5q6 -35 6 -70q0 -25 -3 -49q-14 -83 -66 -83q-47 0 -90 111q-53 -74 -145 -266q-91 -181 -176 -471l-2 -4q-8 -28 -8 -39q0 -5 2 -5
q7 0 34 28q252 230 457 458.5t362.5 491t269.5 593.5l5 34q9 61 18 177l14 108q-913 -68 -1100 -130l13 -11q9 -11 9 -22q0 -10 -12 -18q-32 -22 -112 -22q-15 0 -56.5 2.5t-95 21.5t-59.5 50q0 28 49 49q86 35 229 53q537 66 1144 103q38 300 71 463q14 106 47.5 167
t70.5 61q44 0 70 -100q5 -17 8 -33q6 -44 6 -140q0 -193 -46 -405q772 44 1636 53l102 2q36 -13 36 -34q0 -18 -15 -35l-17 -16q-174 5 -366 5q-628 0 -1393 -49q-43 -193 -132 -376l-20 -147q-18 -119 -34 -288t-31 -521q-12 -304 -12 -552q0 -258 20 -548t111 -645
q28 -107 66.5 -185.5t74.5 -137.5q71 -117 71 -172q0 -17 -4 -33q-21 -68 -68 -68q-74 0 -205 536q-77 315 -125 757q-39 359 -39 792q0 276 16 568q8 159 33 454q-124 -309 -291 -553.5t-378.5 -460.5t-466.5 -438q-13 -44 -47 -243q-30 -172 -30 -190q0 -14 7 -22t40 -12
q491 -68 749 -406q151 -212 180 -462q9 -79 9 -156q0 -166 -43 -323q-60 -228 -189 -379q-64 -75 -145 -118q-76 -41 -163 -41zM-637 -605l15 1q192 28 364 34q35 0 49.5 13t16.5 43l21 129q23 135 23 142q0 13 -6 13q-9 0 -24 -12q-233 -179 -440 -332q-29 -20 -29 -27
q0 -4 10 -4zM432 -2357q66 0 128 35t104 91q48 61 89 131.5t68 169.5q42 145 42 303q0 62 -15 208.5t-173 379.5q-117 164 -300 253t-405 110q-14 2 -28 2q-18 0 -26 -8t-10 -30q-23 -211 -23 -391q0 -228 36.5 -455.5t115.5 -411.5q78 -187 171 -280q99 -94 188 -105
q19 -2 38 -2z" />
    <glyph glyph-name="it" unicode="it" horiz-adv-x="2095" 
d="M1623 -1642q-75 0 -205 536q-77 315 -125 757q-39 359 -39 792q0 273 16 568q8 161 33 456q-217 -580 -456 -1002q-87 -156 -175 -278q-73 -99 -161 -189q-147 -138 -284 -138q-63 0 -108 31q-39 26 -62 64q-42 76 -50 171q-10 81 -10 163q0 51 4 103q-15 17 -15 41
q0 32 27 77q24 42 76 42q25 0 51 -14.5t26 -47.5q-6 -45 -14 -95q-23 -136 -23 -205q0 -25 2 -49q11 -82 34 -122q11 -19 30 -38q27 -28 74 -28q52 0 106 29q196 120 421 512q282 499 530 1208q13 90 21 185q-1014 -69 -1199 -129l13 -11q8 -11 8 -21q0 -3 -2 -8
q-4 -14 -39 -23.5t-83 -9.5q-14 0 -56 2.5t-95.5 21.5t-58.5 50q0 28 49 49q85 36 229 53q583 72 1243 109q46 385 86 585q14 106 47.5 167t70.5 61q44 0 70 -100q5 -17 8 -33q6 -44 6 -142q0 -249 -76 -526q1063 50 1900 58q36 -11 36 -34q0 -17 -15 -34l-17 -16
q-165 5 -346 5q-619 0 -1580 -61q-33 -109 -98 -245l-19 -147q-18 -119 -34 -288t-31 -521q-13 -305 -13 -552q0 -258 20.5 -548t111.5 -645q28 -107 66.5 -185.5t74.5 -137.5q71 -117 71 -172q0 -17 -4 -33q-21 -68 -68 -68zM79 840h-2q-28 0 -60 30q-17 23 -17 52
q0 32 28 89t101 110q-10 -27 -10 -42v-11q0 -17 26 -31q32 -16 32 -57q0 -33 -19 -89q-8 -17 -28.5 -33.5t-50.5 -17.5z" />
    <glyph glyph-name="jt" unicode="jt" horiz-adv-x="1726" 
d="M-1105 -2726q-122 0 -198 75q-70 77 -77 206l-1 52q0 634 804 1637q207 256 454 534q122 139 204 237q26 30 26 64q0 24 -9 51q-21 80 -43 127q-14 0 -26 -4q-7 -2 -14 -2h-6.5t-9.5 11t-7 38.5t-2 77.5q0 90 40 117q8 5 19 5q19 0 44 -16t46 -98q9 -33 18 -56
q20 -43 39 -109q3 -8 4 -15q9 -32 16 -32q9 0 28 30q205 265 409 651t342 832q15 104 23 203q-428 -32 -733.5 -67t-398.5 -65l12 -11q9 -10 9 -21q0 -3 -1 -8q-4 -14 -39.5 -23.5t-82.5 -9.5q-15 0 -57 2.5t-95.5 21.5t-58.5 50q0 28 49 49q85 36 229 53q551 68 1176 105
q46 388 86 589q15 106 48 167t70 61q44 0 70 -100q6 -17 9 -33q6 -40 6 -135q0 -256 -77 -537q203 11 404 20q838 35 1435 42q36 -11 36 -34q0 -17 -15 -34l-17 -16q-165 5 -349 5q-659 0 -1514 -57q-36 -115 -85 -218l-14 -31q-10 -81 -20 -147q-18 -119 -34 -288t-30 -521
q-13 -305 -13 -552q0 -258 20.5 -548t111.5 -645q27 -107 65.5 -185.5t75 -138.5t57.5 -109q14 -33 14 -64q0 -16 -4 -31q-21 -68 -69 -68q-74 0 -205 536q-77 315 -125 757q-39 359 -39 792q0 538 45 984q-145 -392 -332 -724.5t-371 -564.5q-31 -39 -31 -72q0 -23 4 -41
q27 -177 27 -356q0 -428 -147 -950q-124 -418 -327.5 -730t-445.5 -524q-117 -103 -239 -149q-113 -42 -213 -42zM-24 840h-2q-28 0 -60 30q-17 23 -17 53q0 31 27.5 88t100.5 110q-10 -27 -10 -42l1 -11q1 -16 25 -31q33 -15 33 -58q0 -33 -19 -88q-8 -17 -29 -33.5
t-50 -17.5zM-1108 -2626q68 0 169.5 49t212.5 143q232 196 420.5 494.5t304.5 693.5q80 277 121 552q34 221 34 389q0 40 -1.5 75.5t-13.5 143.5q-4 49 -17 49q-9 0 -32 -29q-435 -501 -620 -728q-224 -276 -402.5 -571.5t-280.5 -573.5q-92 -252 -92 -458q0 -80 26 -132
q20 -43 37 -61q19 -17 57 -26.5t77 -9.5z" />
    <glyph glyph-name="lt" unicode="lt" horiz-adv-x="1938" 
d="M1548 -1642q-74 0 -205 536q-77 315 -125 757q-39 359 -39 792q0 99 2 202q13 493 36 713q-292 -1030 -539 -1641q-206 -511 -364 -598q-27 -14 -53 -14q-76 0 -134 106q-78 160 -96 368q-29 298 -31 621q4 821 83 1585q13 131 20 169l1 4l25 271q43 382 82 643
q18 106 54.5 168.5t72.5 63.5q27 -3 45 -36q30 -55 35 -96q7 -57 7 -133q0 -384 -186 -863q-66 -587 -99.5 -975.5t-33.5 -753.5q0 -363 15 -647q13 -234 69 -374q11 -26 25 -39q24 -24 43 -24q14 0 30 9q133 68 336 568q296 742 624 1943l7 49q9 59 14 123
q-465 -52 -607 -97l12 -11q9 -10 9 -21q0 -3 -2 -8q-4 -14 -39 -23.5t-83 -9.5q-14 0 -56 2.5t-95.5 21.5t-58.5 50q0 28 49 49q85 35 228 53q310 39 650 67q49 414 91 627q15 106 48 167t70 61q44 0 70 -100q14 -41 14 -166q0 -267 -85 -573q465 34 935 54q303 12 502 26
q204 13 469 16q36 -11 36 -34q0 -17 -15 -34l-17 -16q-169 5 -342 5q-728 0 -1588 -86q-24 -76 -56 -142q-17 -36 -34 -78l-20 -147q-18 -119 -34 -288t-30 -521q-13 -310 -13 -562q0 -251 20 -539.5t111 -643.5q28 -107 66.5 -185.5t74.5 -137.5q71 -117 71 -172
q0 -17 -4 -33q-21 -68 -68 -68z" />
    <glyph glyph-name="mt" unicode="mt" horiz-adv-x="3091" 
d="M2682 -1802q-74 0 -205 536q-77 315 -125 757q-39 359 -39 792q0 99 2 202q10 418 27 609q-89 -265 -178 -502q-166 -442 -305 -608q-88 -107 -206 -107q-63 0 -128 39q-110 65 -217 274q-41 83 -73 135q-30 53 -56 53q-44 0 -117 -165l-13 -30q-17 -38 -30 -75
q-35 -97 -63 -134.5t-74 -37.5l-11 1q-55 10 -83 67q-39 81 -67 300q-18 156 -46 251q-24 80 -61 80q-2 0 -22.5 -1.5t-83.5 -115.5q-51 -101 -101 -238l-35 -89q-24 -62 -56 -150q-72 -196 -100 -253q-48 -113 -126 -122q-42 0 -70 30q-50 54 -62 131q-9 53 -9 112
q0 28 2 57q8 125 78 428q11 45 18 81q22 97 44 186q-19 33 -19 72q0 62 35 134q74 150 143 150q11 0 21 -3q35 -12 35 -50l-1 -14l-45 -149q-71 -241 -156 -654q-28 -137 -28 -210q0 -14 1 -44t9.5 -61.5t26.5 -31.5h1q42 13 85 109t78 196q57 163 165 404q33 78 81 135
q53 62 130 62q60 0 97 -50q60 -79 91 -331l4 -28q24 -186 41 -223l6 -15q11 -12 21 -12q7 0 20 9q20 16 55 95l6 15q37 87 86 165q31 52 62.5 84t78.5 32q37 0 62 -22q63 -54 132 -199l23 -44q32 -68 70.5 -132t94.5 -114q37 -30 72 -30q15 0 30 5q178 56 418 711
q96 259 193 548l49 144q7 80 18 172q13 107 23 215q-1068 -71 -1256 -133l12 -11q9 -10 9 -21q0 -3 -2 -8q-4 -14 -39 -23.5t-83 -9.5q-14 0 -56 2.5t-95.5 21.5t-58.5 50q0 28 48 49q85 35 229 53q610 75 1301 112q46 383 86 582q14 106 47.5 167t70.5 61q43 0 70 -100
q5 -17 7 -33q7 -44 7 -141q0 -245 -75 -524l279 13q969 36 1683 42q36 -11 36 -34q0 -17 -16 -34l-16 -16q-167 5 -358 5q-688 0 -1630 -57q-31 -103 -67 -203q-21 -57 -40 -115q-8 -65 -16 -118q-17 -124 -31 -279t-29 -490q-14 -310 -14 -562q0 -251 21 -539.5t112 -643.5
q28 -107 66.5 -185.5t74.5 -137.5q71 -117 71 -172q0 -17 -4 -33q-21 -68 -68 -68z" />
    <glyph glyph-name="nt" unicode="nt" horiz-adv-x="2519" 
d="M2106 -1642q-76 0 -206 536q-77 315 -125 757q-39 359 -39 792q0 270 16 570q8 164 33 459q-239 -619 -514 -1085q-162 -272 -305 -405q-104 -99 -213 -99q-89 0 -146 145q-39 114 -51 232q-18 120 -32 191q-5 26 -21 36q-5 4 -11 4q-19 0 -46 -37q-64 -90 -141 -254
q-53 -111 -93 -216l-12 -29q-28 -74 -68 -109q-22 -18 -47 -18q-29 0 -51 17q-27 22 -39 61q-19 66 -19 185q0 287 99 632q-37 51 -37 100q0 104 170 236q43 25 69 25q16 0 26 -10q20 -19 20 -49q0 -11 -3 -23q-89 -176 -139 -366q-78 -299 -78 -535q0 -110 24 -110
q4 0 16 9q21 16 78 156q18 45 31 72q94 199 165 294q62 81 122 81q37 0 62 -31q32 -39 43 -85q20 -78 31 -170l5 -40q22 -163 66 -254q34 -68 64 -68h4q46 11 112 70q133 124 294 393q325 551 588 1284q14 94 21 195q-484 -32 -833.5 -69.5t-449.5 -69.5l12 -11q9 -12 9 -21
q0 -11 -12 -19q-31 -22 -111 -22q-85 0 -152 24q-59 21 -59 51q0 27 48.5 47.5t114 34t114.5 19.5q623 76 1328 114q46 382 86 580q14 106 47 166t69 62q45 -3 67 -86q9 -19 13 -47q6 -44 6 -141q0 -245 -74 -523q974 46 1798 54q36 -11 36 -34q0 -17 -15 -34l-17 -16
q-163 5 -348 5q-651 0 -1475 -51v-1q-28 -95 -93 -238l-7 -16l-20 -147q-18 -119 -34 -288t-31 -521q-12 -305 -12 -552q0 -258 20 -548t111 -645q28 -107 66.5 -185.5t74.5 -137.5q71 -117 71 -172q0 -17 -4 -33q-20 -68 -67 -68z" />
    <glyph glyph-name="tt" unicode="tt" horiz-adv-x="1883" 
d="M1536 -1772q-34 0 -55 48q-89 209 -172 554t-133 805q-40 370 -40 801q0 104 2 211q10 420 27 615l-89 -401q-187 -857 -309 -1284q-211 -745 -399 -745q-112 0 -193 149q-40 74 -67 179q-106 454 -106 1187q0 145 4 300q19 583 35 707l14 154q6 68 13.5 114t10.5 85
t6 71q-715 -57 -880 -105l12 -11q9 -12 9 -21q0 -10 -12 -19q-30 -22 -112 -22q-84 0 -151 24q-59 21 -59 51q0 27 49 48q155 67 1154 142l6 44q42 351 80 536q10 61 40 124t68 81q7 3 14 3q30 0 57 -61q7 -18 13 -43q10 -47 10 -147q0 -231 -67 -496q-3 -13 -7 -25
q351 24 924 51l4 37q62 520 93 673q12 68 48 137.5t77 69.5q29 0 55 -60q7 -18 13 -42q9 -43 9 -138q0 -151 -26.5 -335t-67.5 -335q838 26 1454 32q36 -13 36 -34q0 -17 -15 -34l-17 -17q-165 4 -351 4q-490 0 -1129 -30q-20 -61 -47 -114q-20 -40 -39 -89l-19 -147
q-18 -118 -34 -287t-31 -522q-9 -232 -9 -439q0 -353 33 -713.5t126 -724.5q43 -162 141 -323q71 -115 71 -171q0 -17 -4 -34q-21 -68 -68 -68zM370 -1109q24 1 57 32q188 188 442 1285q76 331 148 660q100 463 187 811q3 25 8 55q10 65 13 117q-495 -25 -939 -58
q-29 -97 -87 -223l-12 -25q-30 -146 -45.5 -336.5t-27.5 -507.5q-18 -393 -18 -674q0 -112 7 -325.5t75 -507.5q16 -75 47 -153q59 -150 142 -150h3z" />
    <glyph glyph-name="ml" unicode="ml" horiz-adv-x="3219" 
d="M2826 -1675q-32 0 -53 49q-98 279 -157 788q-63 534 -63 1190q0 341 15.5 627t47.5 612q-273 -745 -537 -1198q-182 -315 -341 -409q-92 -56 -187 -56q-93 0 -163 94q-53 81 -92 164q-42 83 -74 135q-29 53 -56 53q-46 0 -116 -165q-29 -62 -44 -105q-32 -92 -64 -134
q-24 -38 -72 -38q-36 0 -63 27q-44 41 -64 137q-23 102 -39 238q-17 131 -41 217q-24 80 -62 80q-2 0 -22 -1t-84 -116q-51 -101 -101 -238q-17 -46 -34 -89q-25 -62 -57 -150q-76 -203 -99 -252q-25 -57 -64 -95q-26 -27 -67 -27q-38 0 -65 29q-51 54 -63 131q-8 51 -8 109
q0 29 2 60q8 125 78 428l18 82q21 97 44 185q-20 34 -20 75q0 12 5 46t30.5 85t49.5 84.5t29 37.5q34 28 65 28q11 0 21 -3q34 -11 34 -50l-1 -14l-44 -149q-45 -150 -91 -352q-7 -36 -18 -82q-75 -330 -75 -421q0 -17 1 -49.5t9 -64.5t26 -32h1q42 13 85 109t78 196
q163 441 247 539q48 57 126 63q31 0 57.5 -14.5t42.5 -36.5q62 -82 91 -331l4 -28q24 -183 42 -223l6 -15q10 -12 21 -12q7 0 19 9q21 17 55 96l7 14q40 92 85 166l6 9q26 43 57 74.5t79 31.5q37 0 63 -21q61 -52 131 -200l4 -9q41 -84 84 -148q37 -58 93 -83q18 -7 37 -7
q40 0 88 29q147 94 320 389q304 526 612 1412q15 107 31 318q51 428 94 647q15 106 48 166.5t71 60.5q43 0 69 -99q15 -42 15 -165q0 -385 -186 -864q-18 -164 -37 -321q-37 -306 -63 -608q-24 -280 -24 -588v-429l-1 -105q0 -206 11 -398.5t67 -546.5q29 -177 105 -351
q43 -98 43 -142l-1 -16q-14 -69 -57 -69z" />
    <glyph glyph-name="nl" unicode="nl" horiz-adv-x="2316" 
d="M1709 1556q-76 -218 -175 -451q-163 -385 -337.5 -689t-321.5 -416q-70 -49 -125 -49q-19 0 -61.5 14.5t-77.5 94.5q-48 110 -62 228q-18 120 -32 191q-8 40 -32 40q-20 0 -46 -37q-64 -90 -141 -254q-53 -111 -93 -216l-12 -29q-28 -74 -68 -109q-23 -18 -48 -18
q-29 0 -50 17q-58 46 -58 246q0 287 99 632q-38 51 -38 100q0 104 171 236q43 25 69 25q16 0 26 -9q19 -19 19 -50q0 -11 -2 -23q-89 -176 -139 -366q-79 -299 -79 -535q0 -109 24 -109q4 0 16 8q21 16 79 156q18 45 31 72q94 199 165 294q62 81 122 81q38 0 62 -31
q32 -39 43 -85q20 -78 31 -169l5 -41l4 -27q7 -63 23 -133t54 -110q10 -10 27 -10q24 0 61 23q127 94 303 396q173 301 335 684q157 370 257 701q4 32 7 48l1 4l9 89q6 67 15 183q51 428 94 647q16 113 52 174q31 53 65 53q4 0 25.5 -4t45.5 -95q15 -42 15 -165
q0 -385 -186 -864q-18 -164 -37 -322q-37 -305 -63 -607q-24 -280 -24 -588v-429l-1 -105q0 -206 11 -398.5t67 -546.5q29 -177 105 -351q43 -98 43 -142l-1 -16q-14 -69 -57 -69q-32 0 -53 49q-98 279 -157 788q-63 534 -63 1187q0 373 19 682q14 244 40 525z" />
    <glyph glyph-name="ol" unicode="ol" horiz-adv-x="1776" 
d="M1384 -1695q-31 0 -52 49q-99 279 -158.5 787.5t-62.5 1147.5q0 381 17 685.5t51 649.5q-117 -240 -255.5 -430.5t-276.5 -319.5q-163 -154 -294 -201q84 -135 104 -379q2 -32 2 -65q0 -145 -38 -239q-29 -71 -71 -105q-28 -21 -58.5 -36t-68.5 -15h-5q-79 8 -124 64
q-47 51 -73 134q-21 88 -21 196q0 308 109 531q16 27 29 27q10 0 19 -16q19 4 38 4q67 0 118 -51q10 2 20 6q113 39 274 188q157 147 315 377.5t278 523.5q9 67 23 224q21 243 102 738q40 227 118 227q42 0 70 -99q13 -47 13 -165q0 -385 -185 -864l-36 -321
q-37 -306 -63 -608q-26 -281 -26 -589l2 -315l-1 -244q0 -190 10.5 -377.5t66.5 -541.5q29 -177 105 -351q43 -98 43 -142l-1 -16q-14 -69 -57 -69zM262 -80q37 0 63 28.5t38 68.5q33 104 33 208q0 38 -4 76q-9 105 -37 201.5t-70 155.5h-14q-60 0 -96 40q-36 -134 -50 -308
q-5 -54 -5 -107q0 -117 23 -228q23 -69 51.5 -99t42.5 -33t25 -3z" />
    <glyph glyph-name="pl" unicode="pl" horiz-adv-x="2456" 
d="M216 -2544q-41 0 -71 68q-45 124 -65.5 280t-31.5 302q-1 17 -3 33q-89 653 -89 1213q0 72 7 417t91 1049q-4 5 -9 9q-35 30 -35 67q0 18 10 54t65 121q28 45 62 45q26 0 44 -17t18 -38v-6q-129 -972 -129 -2002v-121q25 547 104 911q139 657 464 917q38 28 71 28
q11 0 37 -8t52 -52t30 -100q2 -33 2 -70q0 -59 -5 -127q-9 -118 -9 -271q0 -44 1.5 -109.5t15.5 -128.5q12 -51 32 -79q29 -43 60 -43q30 0 73 33q132 110 302 450q163 331 314.5 748.5t252.5 792.5l8 56l18 182q22 281 75 581l26 157q39 218 116 228h2q43 0 70 -100
q14 -47 14 -165q0 -385 -186 -864l-36 -321q-37 -306 -63 -608q-25 -291 -25 -610l1 -294l-1 -244q0 -190 10.5 -377.5t67.5 -541.5q31 -183 104 -350q43 -101 43 -141l-1 -18q-14 -69 -56 -69q-32 0 -53 49q-99 279 -158 788q-63 534 -63 1170q0 632 55 1171
q-100 -325 -225 -653q-326 -850 -576 -1064q-84 -65 -154 -65q-21 0 -75 16q-114 34 -114 462q0 91 9 216q6 76 6 135q0 35 -2.5 63.5t-17 38t-31.5 9.5q-36 0 -90 -52t-121 -175t-123 -272t-87 -290q-58 -278 -78 -529.5t-26 -434.5q0 -15 -1 -29v-34q0 -302 18 -543
t44 -410t47 -255l20 -87v-7q0 -85 -52 -85z" />
    <glyph glyph-name="ql" unicode="ql" horiz-adv-x="2475" 
d="M901 -3129q-367 2 -506 920q-27 206 -27 421q0 490 129 1069q-100 68 -239 68q-41 -22 -76 -43q-85 -52 -130 -60q-2 0 -3 -1q-5 -1 -12 -1q-32 0 -54 20t-22 52q0 23 18 48l1 2q73 100 190 112q6 1 13 1q45 0 97 -14q240 227 373 390q96 336 175 546l-66 -56
q-152 -131 -238 -179q-160 -90 -302 -109q-18 -2 -36 -2q-50 0 -98 19q-65 32 -93 103q-11 31 -11 63q0 52 27 112q38 84 109 160.5t159 133.5q140 89 341 89q18 0 79 -2.5t148 -56.5q29 -20 60 -66q20 24 38 54q30 49 63 49q4 0 20.5 -1.5t33.5 -26.5q10 -15 10 -34
q0 -12 -4 -26l-63 -156q-64 -157 -153 -411q429 544 677 971.5t358 713.5q11 101 17 134v4q11 92 25 272q51 428 94 647q14 106 46.5 166t69.5 61q45 0 72 -99q14 -48 14 -165q0 -385 -186 -864l-36 -321q-37 -306 -63 -608q-25 -291 -25 -635q1 -149 1 -382l-1 -112
q0 -202 10.5 -393t67.5 -545q30 -180 104 -351q43 -98 43 -140l-1 -18q-14 -69 -56 -69q-32 0 -53 49q-99 279 -158.5 787.5t-61.5 1147.5q0 375 14.5 652.5t43.5 589.5q-326 -740 -1069 -1652q-106 -321 -173 -610q329 -256 556 -708q123 -247 175 -525q27 -141 27 -284
q0 -140 -26 -282q-50 -258 -167 -429q-125 -184 -290 -190zM237 121q80 0 185 49q54 25 77 39q210 120 339 298q-36 -15 -58 -15q-6 0 -20 3q-26 5 -44 61q-12 42 -33 50q-33 13 -77 13q-111 0 -258 -85q-75 -44 -136 -107q-60 -66 -86 -125q-18 -42 -18 -85q0 -10 2 -16
q23 -61 77 -74q24 -6 50 -6zM512 -638q30 121 93 329q-51 -61 -188 -201l-53 -55q66 -20 148 -73zM939 -3007q118 0 203 117q179 256 179 668q0 414 -199 799q-165 319 -390 543q-69 68 -124 107q-70 -333 -101 -710q-13 -158 -13 -309q0 -427 108 -793q89 -305 205 -381
q63 -41 132 -41z" />
    <glyph glyph-name="rl" unicode="rl" horiz-adv-x="2176" 
d="M1785 -1697q-31 0 -52 48q-99 280 -158 789q-63 534 -63 1172q0 575 44 1047q-203 -849 -476 -1446q-82 -179 -184 -301q-52 -65 -124 -106q-49 -23 -94 -23q-125 0 -175 141q-31 97 -47 228q-15 112 -33 325q-3 46 -33.5 61t-116.5 27q-51 8 -128 23q-87 12 -125.5 26
t-71.5 54q-36 49 -36 108q0 26 15 86t100 110q34 16 64 16q76 0 101 -79q7 -19 7 -42q0 -39 -20 -88q-14 -36 -14 -60q0 -63 143 -65q45 -3 89 -10q109 -17 134 -114q13 -54 19 -141l1 -5q18 -255 74 -433q26 -68 86 -68q4 0 39 3t96 73q100 118 185 296q288 606 566 1835
q6 44 10 66l25 274q50 428 94 647q14 107 47 167.5t71 60.5q43 0 70 -100q5 -17 7.5 -33.5t3.5 -38.5t1 -45q0 -356 -184 -911l-36 -322q-37 -306 -63 -608q-25 -280 -25 -588l1 -316l-1 -244q0 -190 10.5 -377t66.5 -542q32 -182 105 -350q43 -98 43 -142l-1 -16
q-14 -69 -57 -69z" />
    <glyph glyph-name="sl" unicode="sl" horiz-adv-x="2306" 
d="M1914 -1675q-32 0 -53 49q-99 279 -159 788q-61 526 -61 1192q0 335 14.5 616t45.5 599q-167 -444 -427.5 -890.5t-554.5 -766.5q47 -59 60 -145q3 -21 3 -43q0 -64 -29 -130q-67 -127 -189 -163q-31 -11 -62 -11q-56 0 -93 34q-32 30 -32 81q0 87 106 210q51 62 116 132
q-65 25 -168 42h-2q-65 11 -153 37.5t-156.5 76t-100.5 127.5q-19 46 -19 105q0 41 9 87q27 119 94 198.5t155.5 120t177.5 40.5q141 0 212 -101q35 -62 34 -163q0 -102 -48 -151l-11 -5q-24 -12 -52 -12q-7 0 -20.5 1t-33.5 13t-36 39q-11 21 -11 43q0 44 49 113
q25 37 25 49q0 3 -1 5q-26 41 -111 43q-88 0 -177.5 -63t-122.5 -196q-9 -43 -9 -77q0 -33 13 -68t57 -66q112 -78 325 -122q83 -13 154 -45q333 363 620.5 883.5t435.5 997.5q4 34 7 52q9 77 18 181l20 210q12 135 34 299q53 399 163 456h2q43 0 70 -99q14 -47 14 -165
q0 -385 -186 -864l-36 -322q-37 -305 -63 -607q-25 -291 -25 -610l1 -294v-113l-1 -112q0 -202 10.5 -393t67.5 -545q30 -180 104 -351q43 -99 43 -139q0 -10 -1 -19q-13 -69 -56 -69zM490 -474q17 0 47 16t64 48.5t48 58.5q23 40 33 101q3 15 3 29q0 42 -26 71
q-50 -50 -80 -82q-58 -62 -96 -122q-31 -51 -31 -83q0 -20 15 -31q10 -6 23 -6z" />
    <glyph glyph-name="tl" unicode="tl" horiz-adv-x="1870" 
d="M1477 -1677q-32 0 -53 49q-98 279 -157 788q-63 534 -63 1173q0 574 44 1046q-231 -832 -453 -1435q-206 -563 -372 -757q-75 -88 -159 -88q-48 0 -94 49t-85 185q-49 176 -72 577q-17 282 -17 572q0 273 15 608q9 212 30 411l18 197q4 43 12 114l9 75
q-726 -59 -902 -112l13 -11q9 -12 9 -20q0 -3 -2 -8q-3 -14 -39 -24t-85 -10q-82 0 -149 24q-59 21 -59 51q0 27 48.5 48t114 34.5t114.5 19.5q446 55 946 89l2 20q51 428 94 647q15 113 51 174q32 54 66 54q4 0 25.5 -4.5t45.5 -95.5q5 -17 8 -33q6 -40 6 -136
q0 -279 -96 -597l-4 -16q325 20 649 34q174 9 202 9q81 0 81 -44q0 -13 -13 -24.5t-37 -11.5q-19 0 -46 7q-21 9 -95 9q-37 0 -118.5 -4t-267 -20t-315.5 -28l-65 -6q-35 -75 -61 -143l-10 -24q-17 -166 -33 -270q-17 -108 -30 -252.5t-21 -433.5q-7 -268 -7 -490
q0 -171 6.5 -407t51.5 -501q5 -34 25 -90.5t52 -97.5q23 -30 52 -30q38 0 92 63q152 176 361 738q268 736 538 1747q13 127 20 165q1 1 1 3l25 272q50 428 93 647q15 106 48 166.5t71 60.5q43 0 69 -99q15 -42 15 -165q0 -385 -186 -864q-18 -164 -37 -322
q-37 -305 -63 -607q-24 -280 -24 -588v-429l-1 -105q0 -206 11 -398.5t67 -546.5q29 -177 105 -351q43 -98 43 -142l-1 -16q-14 -69 -57 -69z" />
    <glyph glyph-name="ul" unicode="ul" horiz-adv-x="2384" 
d="M1991 -1675q-31 0 -52 49q-99 279 -159 788q-61 525 -61 1170q0 633 54 1173q-336 -1165 -595 -1524q-65 -90 -138 -120q-22 -8 -45 -8q-37 0 -78 21q-78 43 -117 120q-83 162 -83 413q0 46 -10 46l-4 -3q-7 -5 -28 -87q-112 -430 -276 -617q-58 -68 -136 -88
q-16 -3 -30 -3q-68 0 -123 57q-51 56 -76 152q-34 129 -34 300q0 106 17 241q7 60 10 112q-9 17 -9 33q0 23 12 43q21 33 29 33q25 22 50 22q4 0 20.5 -2t33.5 -21q14 -16 14 -32l-17 -99q-36 -193 -36 -332q0 -89 18 -198t64 -172q27 -31 59 -31q47 0 101 49t91 117t85 200
q21 57 127 418q20 124 56 168q25 30 75 30q22 0 49 -6q33 -10 33 -66q0 -34 -7 -68q-9 -42 -13 -95q-8 -101 -8 -162q0 -30 2 -77t11 -93q8 -55 36 -120.5t83 -102.5q16 -9 33 -9q142 0 366 576q125 322 234 677t187 630q15 105 32 326q10 82 19 170q22 223 64 477
q51 220 127 227q27 -3 45 -36q27 -50 34 -95t7 -136q0 -383 -186 -861q-17 -164 -36 -322q-37 -305 -63 -607q-25 -291 -25 -610l1 -294l-1 -218q0 -206 10.5 -398.5t67.5 -546.5q31 -187 105 -351q21 -50 34 -88q9 -28 9 -54l-1 -16q-14 -69 -58 -69z" />
    <glyph glyph-name="all" unicode="all" horiz-adv-x="3610" 
d="M3237 -1793q-31 0 -52 49q-100 287 -168 847t-72 1206q0 506 31 907q-199 -1049 -350 -1625q-153 -576 -289 -729q-45 -54 -101 -54q-151 0 -215 278q-50 240 -73 546q-27 366 -27 721q0 488 65 1110q-170 -443 -371 -842q-156 -302 -296 -499q-64 -96 -165 -182
q-40 -33 -103 -47q-21 -5 -41 -5q-41 0 -90.5 23.5t-80.5 117.5q-21 73 -21 162q0 11 2 69t16.5 147t26.5 127q10 32 10 41q0 3 -2 3t-8 -9q-21 -36 -67 -100l-55 -75q-88 -127 -212 -250q-60 -62 -134 -106q-85 -52 -173 -52q-81 0 -147.5 42t-90.5 120q-9 30 -9 63
q0 53 29.5 132t136.5 191q89 89 200 144q177 87 327 87q102 0 153 -42q16 -18 21 -43l2 -6q0 1 1 1q40 71 69 99q18 19 49 20q16 -1 31 -5q27 -7 27 -55q0 -45 -28 -189q-48 -231 -48 -373q0 -71 11 -135q17 -78 78 -78q43 0 94 41q184 152 435 648q255 508 448 1054
q14 100 31 315q51 429 94 647q15 114 51 174q32 54 65 54q4 0 26 -4.5t46 -94.5q5 -18 7 -34q7 -41 7 -132q0 -384 -186 -863q-18 -172 -38 -336q-37 -301 -63 -600q-23 -268 -23 -560q0 -323 17 -644q14 -244 54 -500q18 -101 44 -158q45 -99 98 -99q20 0 53 34
q126 142 275 705q161 617 375 1754q46 243 85 438q7 55 11 80l9 93l16 182q52 428 94 647q16 83 48 149q35 71 74 71q35 0 66 -91q5 -18 7.5 -34t3 -38t0.5 -45q0 -192 -47.5 -424.5t-103.5 -440.5q-28 -108 -48 -190l-20 -179q-37 -305 -63 -607q-25 -291 -25 -610
q0 -579 17 -895q15 -278 79 -681q29 -177 105 -351q43 -98 43 -142l-1 -16q-14 -69 -57 -69zM247 69q63 4 120 35t114 79q120 101 213 237q53 77 96 150q10 18 20 34q-34 -10 -55 -10l-15 1q-22 2 -44 37q-9 17 -24.5 30.5t-55.5 13.5q-158 -35 -350 -228
q-132 -130 -132 -256q0 -61 35 -96q27 -27 74 -27h4z" />
    <glyph glyph-name="ab" unicode="ab" horiz-adv-x="3314" 
d="M1888 -690q-19 0 -52.5 6.5t-55.5 58.5q-7 23 -7 47q0 51 38 117t102 113q91 66 195 119t211 102q120 54 232 113q26 22 43 66q49 147 49 243q0 28 -4 51q-18 124 -68 164q-65 48 -170 48q-91 0 -167 -54t-121 -133.5t-104 -260.5q-24 -76 -35 -150q-10 -61 -19 -176
q-10 -34 -37 -49q-15 -9 -30 -9q-12 0 -30.5 8t-25.5 52q-5 39 -5 121q0 437 76 1356q29 348 52 556q-229 -721 -475 -1199q-189 -369 -339 -516q-74 -71 -155 -93q-18 -5 -34 -5q-63 0 -96 71q-25 62 -25 154q0 7 1.5 61t16.5 145.5t27 129.5q10 33 10 41q0 3 -2 3t-8 -9
q-27 -45 -68 -99l-54 -76q-282 -407 -519 -407q-81 0 -147.5 42t-90.5 120q-9 30 -9 63q0 53 29.5 132t136.5 190q89 90 200 144q180 87 329 87q99 0 151 -42q15 -17 23 -49v2q47 77 67 95q1 2 3 3q12 17 56 20l24 -4q27 -7 27 -62t-30 -219q-41 -221 -41 -326
q0 -48 8 -83.5t40 -35.5q29 0 91 55q137 131 325 495q155 300 310 714t284 901l44 245q54 316 110 499q32 38 61 38q32 0 53.5 -26.5t24.5 -50.5q-126 -413 -188 -786q-117 -702 -163 -1905q-2 -44 -2 -71q96 233 234 342q128 97 267 97q99 0 182 -60q97 -74 119 -221
q4 -29 4 -60q0 -78 -23 -171q-6 -24 -6 -38q0 -15 11 -15q8 0 572 258q16 7 27 7q10 0 17 -6q13 -11 13 -29q0 -3 -2.5 -16t-25.5 -29l-160 -63q-160 -64 -488 -210q-67 -106 -180.5 -244.5t-217.5 -223.5q-132 -103 -250 -162q-103 -51 -166 -51zM258 102q110 7 236 115
q120 101 213 236q63 91 115 184q-33 -10 -53 -10l-16 1q-23 3 -44 38q-9 16 -24.5 29.5t-55.5 13.5q-157 -35 -351 -227q-132 -133 -132 -259q0 -57 36 -94q27 -27 76 -27zM1879 -555q49 0 119 29q104 51 229 148q122 98 212 200q35 37 35 44l-2 1q-26 -6 -123 -52
q-265 -125 -394 -215q-121 -90 -121 -129q0 -26 45 -26z" />
    <glyph glyph-name="bb" unicode="bb" horiz-adv-x="2940" 
d="M1504 -690q-19 0 -53 6.5t-56 58.5q-7 23 -7 47q0 50 38.5 116.5t101.5 113.5q92 66 195.5 119t211.5 102q119 54 232 113q28 25 42 66q49 147 49 243q0 28 -4 51q-16 123 -67 164q-66 48 -170 48q-91 0 -167.5 -54t-121.5 -133.5t-104 -260.5q-24 -76 -35.5 -150
t-14.5 -125l-3 -51q-10 -34 -37 -49q-16 -9 -31 -9q-11 0 -29.5 8t-26.5 52q-5 35 -5 105q0 460 76 1372q31 375 57 594.5t86 543.5q-275 -561 -550 -1081q-194 -371 -314 -609l10 -7q97 -74 119 -221q6 -34 6 -74q0 -71 -20 -161q-44 -178 -158.5 -341.5t-286.5 -263.5
q-62 -32 -100 -32q-16 0 -28 6q-29 16 -29 52q0 12 3 26q64 313 388 955q-59 27 -137 27q-6 0 -51 -0.5t-118.5 -53.5t-118.5 -132.5t-104 -260.5q-25 -76 -36 -150t-14 -125l-4 -51q-10 -34 -37 -49q-16 -9 -31 -9q-11 0 -29.5 8t-25.5 52q-5 39 -5 121q0 123 11 374
q3 70 5 147q7 179 19 391q22 394 98 827q38 219 103 542q-52 39 -52 107q0 14 7.5 66t55.5 148q56 110 98 178q32 38 61 38q2 0 18.5 -1.5t36.5 -27t23 -48.5q-125 -425 -180.5 -743t-86.5 -598q-61 -525 -81 -1031q-2 -44 -2 -71q96 233 234 342q127 97 266 97
q63 0 121 -24q187 364 314 607q409 780 641 1272q44 242 91 387q31 38 60 38q32 0 54 -26.5t24 -50.5q-125 -413 -187.5 -786t-106.5 -918q-39 -497 -52 -877q-2 -57 -5 -110l-2 -71q96 233 234 342q129 97 267 97q100 0 182 -60q97 -74 119 -221q4 -29 4 -60
q0 -78 -23 -171q-6 -24 -6 -38q0 -15 11 -15q7 0 18 4l555 254q15 7 26 7t18 -6q12 -11 12 -28q0 -4 -2 -17t-26 -29l-159 -63q-160 -64 -488 -210q-67 -106 -181 -244.5t-217 -223.5q-133 -103 -251 -162q-103 -51 -165 -51zM436 -215q20 0 63 33q59 46 139.5 157
t134.5 264q16 51 24 119q6 47 6 81q0 15 -1 27q-13 95 -53 149q-224 -445 -330 -755q-7 -20 -7 -41v-16q0 -13 19 -17zM1494 -555q49 0 120 29q173 86 344 249q131 125 131 143l-1 1q-27 -6 -124 -52q-260 -122 -394 -215q-121 -90 -121 -129q0 -26 45 -26z" />
    <glyph glyph-name="hh" unicode="hh" horiz-adv-x="3606" 
d="M1979 -500q-19 0 -37 14.5t-19 44.5l8 381q7 380 34 968.5t84 1243.5q-230 -898 -482 -1537q-178 -439 -337 -680q-61 -93 -129 -133q-27 -16 -53 -16q-39 0 -75 36q-119 131 -147 371q-12 103 -16 200l-4 66q-13 208 -47 249q-13 15 -47 15q-40 0 -83.5 -44.5
t-83.5 -119.5q-110 -196 -217.5 -432.5t-176.5 -415.5l-69 -179q-14 -32 -46 -32q-19 0 -37.5 14.5t-18.5 44.5l4 231q3 231 19 623.5t51.5 889t98.5 1036.5q-20 -5 -36 -5q-54 0 -54 61q0 13 9.5 77t133.5 257q37 55 75 55q23 0 37 -17.5t14 -39.5q0 -8 -2 -16
q-92 -615 -145 -1182t-77.5 -1012.5t-30.5 -694.5q2 -25 11 -25q20 0 67 93q68 133 117 261q108 263 218 460q121 228 250 228q30 0 63 -10q60 -32 83 -92q23 -55 32 -121q13 -105 13 -149q8 -155 32.5 -308t97.5 -248q8 -7 19 -7q31 0 84 63q141 167 348 669
q315 800 581 1949q15 133 19 202q6 90 15.5 170.5t30.5 125.5q36 55 69 55q29 0 46 -24q10 -15 10 -35l-1 -15q-92 -621 -147.5 -1273.5t-82 -1182.5t-31.5 -786q1 -25 10 -25q20 0 67 93q68 133 117 261q108 263 219 460q33 64 72 121t87 86q29 18 62 18q21 0 43 -7
q60 -32 83 -92q23 -55 32 -121q13 -105 13 -149q8 -158 34 -313.5t101 -248.5q55 -56 146 -56q42 0 77 15q114 54 195 146q95 109 180 248l29 48q12 33 39 33q12 0 19 -8t7 -19t-5 -24l-32 -51q-32 -52 -84 -125q-113 -160 -222 -251q-132 -109 -264 -109q-15 0 -66 3.5
t-112 66.5q-99 119 -128.5 275t-35.5 304q-1 30 -3 58q-13 208 -47 249q-10 12 -29 12q-49 0 -134 -156q-2 -2 -3 -5q-110 -196 -217.5 -432.5t-176.5 -415.5l-69 -179q-14 -32 -46 -32z" />
    <glyph glyph-name="th" unicode="th" horiz-adv-x="2479" 
d="M366 -1560q-76 0 -205 536q-77 315 -125 756q-39 360 -39 792q0 254 14 567q9 210 30 412l12 128q8 98 12 122l8 68q-1035 -130 -1191 -199l13 -11q10 -10 10 -22q0 -8 -10 -16.5t-28 -14.5q-46 -16 -121 -16q-63 0 -114 15q-55 15 -62 46q0 29 46 52q85 42 224 68
q582 109 1243 189q47 444 102 724q14 107 47 167t69 61q45 0 72 -99q5 -17 8 -33q6 -51 6 -136q0 -145 -27 -304q-34 -207 -86 -357q329 38 521 56q72 5 100 29.5t31 96.5q25 292 59 575q4 46 7 95q6 90 15 170.5t30 125.5q36 55 70 55q30 0 45 -24q11 -15 11 -34
q0 -8 -2 -16q-68 -455 -115 -939q-3 -24 -3 -42q0 -43 16.5 -53t52.5 -10q18 0 78 6q737 60 1408 107l474 35q20 -5 29 -13.5t9 -21.5q0 -17 -13 -32l-15 -17q-728 -19 -1896 -138q-102 -6 -135 -27.5t-35 -107.5q-56 -658 -83 -1194.5t-33 -794.5q2 -25 11 -25q18 0 67 93
q57 112 117 261q108 263 218 460q34 64 73 121q71 104 149 104q21 0 43 -7q60 -32 83 -92q22 -55 31 -121q13 -95 13 -149q8 -158 34 -313.5t102 -248.5q55 -56 146 -56q42 0 77 15q114 53 195 145q92 107 179 249l30 48q13 33 39 33q11 0 18.5 -8t7.5 -20q0 -10 -5 -24
l-32 -51q-32 -51 -84 -124q-117 -163 -222 -251q-133 -109 -264 -109q-15 0 -66 3.5t-113 66.5q-99 119 -128.5 275t-34.5 304l-4 58q-12 208 -46 249q-10 12 -30 12q-28 0 -61 -42t-73 -114l-2 -5q-110 -196 -218 -432.5t-176 -415.5l-69 -179q-15 -32 -46 -32
q-19 0 -37.5 14t-18.5 44l6 322q5 321 26.5 832.5t65.5 1104.5q3 18 3 32q0 31 -11.5 46t-47.5 15q-29 0 -607 -69l-47 -105q-17 -166 -33 -269q-17 -108 -30 -252.5t-21 -434.5q-8 -266 -8 -489q0 -297 18.5 -598.5t108.5 -657.5q42 -160 141 -322q71 -117 71 -172
q0 -17 -4 -33q-21 -68 -68 -68z" />
    <glyph glyph-name="ant" unicode="ant" horiz-adv-x="4315" 
d="M3923 -1641q-74 0 -205 536q-77 315 -125 757q-39 359 -39 792q0 279 16 571q9 163 33 458q-239 -619 -514 -1084q-162 -272 -305 -406q-107 -99 -213 -99q-92 0 -145 145q-39 114 -52 232q-17 120 -32 191q-5 26 -20 36q-6 4 -12 4q-11 0 -25 -13q-17 -17 -45 -59
q-108 -172 -210 -435l-12 -28q-28 -75 -68 -110q-23 -18 -48 -18q-29 0 -50 17q-26 22 -38 61q-20 64 -20 179q0 292 98 632q-41 -48 -101 -133q-87 -126 -213.5 -278.5t-290.5 -272.5q-70 -48 -143 -48q-29 0 -96 17.5t-142 139.5q-66 110 -111 256q-15 44 -26 44
q-6 0 -12.5 -10.5t-14.5 -21.5l-111 -170q-11 -15 -20 -29q-57 -90 -139 -184q-52 -57 -129 -103q-89 -54 -178 -54q-81 0 -147.5 42t-90.5 120q-9 30 -9 63q0 53 29.5 132t136.5 191q90 88 193 136q163 75 287 75q41 0 78 -8q84 -19 94 -77l2 -6l1 1q44 75 66 95l4 5
q16 19 39 19l12 -1q18 0 28 -28q8 -22 34 -133q41 -188 78 -270q60 -141 147 -169q13 -4 26 -4q40 0 89 33q181 133 296 280t197 282q91 152 186 254v-2q34 42 77 42q16 0 33 -7q33 -14 33 -50v-10q-163 -387 -163 -777q0 -36 2 -67q8 -39 22 -39q3 0 16 8q20 14 78 156
q15 36 26 60l5 12q94 200 165 294q63 81 123 81q104 0 135 -285q18 -187 71 -295q32 -67 63 -67h5q47 11 113 70q132 123 294 392q324 552 587 1284q12 88 22 196q-484 -33 -834 -70.5t-450 -69.5l12 -11q9 -11 9 -21l-2 -7q-4 -14 -39.5 -24t-83.5 -10q-14 0 -55.5 2.5
t-95 21.5t-58.5 50q0 28 48.5 49t114 34.5t115.5 18.5q622 76 1328 114q46 382 85 580q15 107 47.5 167t68.5 61q29 -2 44 -29t24 -56l4 -14q14 -44 14 -167q0 -252 -74 -531q126 7 251 12q901 37 1548 43q35 -13 35 -34q0 -18 -16 -35l-16 -16q-171 5 -365 5
q-631 0 -1458 -51v-1q-20 -67 -42 -121q-35 -86 -58 -133q-10 -81 -20 -147q-18 -119 -34 -288t-30 -521q-13 -305 -13 -552q0 -257 20 -547.5t112 -645.5q27 -106 65.5 -184.5t75 -138.5t57.5 -109q13 -32 13 -62q0 -17 -4 -34q-21 -68 -68 -68zM190 -47q135 8 245 119
q54 58 84.5 100t61.5 90l17 27q43 66 71 119q17 31 35 60q-30 -9 -50 -9q-43 0 -69 44q-25 39 -58 39q-8 0 -17 -2q-87 -18 -160.5 -73t-141.5 -134q-131 -151 -131 -263q0 -54 35 -89q27 -28 75 -28h3z" />
    <glyph glyph-name="ar" unicode="ar" horiz-adv-x="2981" 
d="M2368 -267q-26 0 -73 14t-88 133q-46 152 -74 485l-6 68q-3 46 -33.5 61t-116.5 27q-51 8 -128 23q-33 4 -59 10q-67 -133 -165 -275q-228 -331 -457 -414q-70 -26 -133 -26q-51 0 -105 29t-94 128q-22 64 -22 154q0 7 1 61.5t15 145.5t26 129q9 33 9 41q0 3 -1 3
q-3 0 -8 -9q-27 -45 -68 -99q-21 -28 -54 -76q-89 -127 -213 -250q-152 -157 -307 -157q-80 0 -146.5 42t-90.5 120q-9 30 -9 64q0 52 29 131t136 191q89 89 200 143q181 87 330 87q99 0 150 -42q15 -15 23 -49l1 2q24 39 43 67q11 16 26 31q17 20 50 20q15 -1 30 -4
q27 -7 27 -61q0 -60 -29 -221q-41 -223 -41 -321q0 -50 8 -89q28 -136 124 -136q196 0 415 270q145 178 249 381q-47 12 -87 59q-36 49 -36 108q0 26 15 86t100 110q31 16 60 16q65 0 97 -58q14 -26 14 -61q0 -39 -19 -90q-14 -36 -14 -60q0 -62 143 -66q45 -2 89 -9
q109 -17 134 -114q14 -54 19 -141l1 -5q17 -255 74 -433q28 -80 102 -80q65 0 157 69q122 94 190.5 170.5t124.5 153.5q33 45 73 95q20 17 37 17t17 -18q0 -9 -4 -22q-116 -160 -201.5 -251t-199.5 -182q-75 -63 -156 -101q-53 -25 -101 -25zM239 21q64 4 120.5 35t114.5 80
q170 145 308 387l20 33q-33 -10 -54 -10l-16 1q-25 4 -43 38q-9 16 -25 30t-50 14l-5 -1q-156 -35 -351 -227q-132 -132 -132 -257q0 -59 36 -95q26 -28 74 -28h3z" />
    <glyph glyph-name="er" unicode="er" horiz-adv-x="2357" 
d="M1800 -510q-127 0 -177 140q-41 135 -69 548q-6 88 -11 146q-3 46 -33.5 61t-116.5 27q-51 8 -128 23q-63 9 -89 16q-171 -264 -314 -451q-157 -200 -339 -317q-125 -81 -238 -81q-136 0 -230 101q-105 111 -105 321l1 30q11 171 52.5 296t100 205.5t120.5 120.5
q53 39 112 39l14 -1q74 -12 104 -61q28 -44 28 -87v-15q-10 -103 -80 -162q-75 -63 -140 -76q-34 -7 -64 -7q-28 0 -53 6l-8 1q-10 0 -13 -13q-35 -108 -48 -254l-1 -31q0 -180 67 -258q32 -37 72 -57q31 -15 80 -15q172 0 376 207q185 187 311 388q89 142 120 203
q-17 12 -33 32q-37 49 -37 108q0 26 15.5 86t101.5 110q30 16 59 16q65 0 97 -58q14 -26 14 -61q0 -40 -19 -90q-15 -35 -15 -59q0 -63 144 -67q45 -2 89 -9q110 -18 134 -114q14 -54 19 -141q1 -2 1 -5q26 -417 74 -574q25 -67 83 -67q5 0 40.5 3.5t97.5 71.5
q222 240 373 616q26 52 55 52q22 0 22 -39v-13q-100 -205 -203 -380q-135 -231 -254 -341q-76 -70 -159 -70zM210 368q78 0 145 68q28 29 41 64q10 26 10 48q0 52 -45 52q-33 0 -66.5 -28.5t-69 -75t-60.5 -92.5q-6 -10 -6 -17q0 -4 4 -9.5t18.5 -7.5t28.5 -2z" />
    <glyph glyph-name="ir" unicode="ir" horiz-adv-x="2149" 
d="M99 913h-2q-28 0 -60 30q-16 23 -16 52q0 32 27.5 89t100.5 110q-10 -27 -10 -43v-10q0 -17 26 -31q33 -16 33 -57q0 -34 -20 -89q-8 -17 -28.5 -34t-50.5 -17zM1601 -510q-127 0 -177 140q-40 135 -69 548q-6 88 -11 146q-3 46 -33.5 61t-116.5 27q-51 8 -128 23l-79 13
q-139 -266 -313 -485q-71 -89 -147 -155q-119 -105 -257 -105q-130 0 -201 125q-49 87 -64 208q-9 94 -9 229q0 67 3 117q-14 16 -14 39q0 33 27 79q25 42 75 42q26 0 52 -14.5t26 -48.5l-8 -58q-29 -219 -29 -313q0 -35 4 -78q7 -67 22 -110q62 -152 160 -152q20 0 42 7
q120 35 272 225q165 208 302 466q-32 15 -61 49q-36 49 -36 108q0 26 15 86t101 110q30 16 59 16q65 0 97 -58q15 -26 15 -61q0 -40 -20 -90q-14 -35 -14 -59q0 -63 143 -67q45 -2 89 -9q110 -18 135 -114q13 -54 18 -141q1 -2 1 -5q26 -417 74 -574q26 -67 84 -67
q4 0 39.5 3.5t97.5 71.5q222 240 373 616q27 52 55 52q23 0 23 -39l-1 -13q-100 -205 -202 -380q-135 -231 -255 -341q-75 -70 -159 -70z" />
    <glyph glyph-name="or" unicode="or" horiz-adv-x="2190" 
d="M1658 -420q-127 0 -177 140q-28 90 -43.5 246.5t-25.5 301.5q-6 88 -11 146q-3 46 -33.5 61t-116.5 27q-51 8 -128 23q-55 8 -75 13q-97 -144 -205 -224t-190 -111t-176 -34v-8q-40 -335 -169 -459q-63 -58 -134 -58q-40 0 -75 24q-88 59 -126 207q-18 76 -18 156
q0 148 59 348q-54 84 -54 175q0 114 87 186q82 67 181 67q40 0 87 -21t87 -75q47 -60 69 -142q14 -67 14 -160q0 -92 -4 -171v-3q79 3 150 31q210 76 358 289q-34 15 -63 50q-36 49 -36 108q0 26 15 86t100 110q31 16 60 16q65 0 97 -58q15 -26 15 -61q0 -40 -20 -90
q-14 -35 -14 -59q0 -63 143 -67q45 -2 89 -9q108 -17 134 -114q14 -54 19 -141l1 -5q26 -417 74 -574q26 -67 83 -67q5 0 40 3.5t98 71.5q222 240 345 533q27 52 55 52q22 0 22 -39v-13q-72 -122 -175 -297q-131 -226 -255 -341q-74 -70 -158 -70zM407 240q2 49 2 103
q0 126 -14 196q-10 43 -41 97q-50 87 -125 87q-41 0 -87 -41q-30 -28 -47 -85q-8 -27 -8 -55q0 -32 10 -66q77 -206 310 -236zM215 -256q62 0 110 108q46 98 76 310q-173 20 -289 104q-31 -137 -31 -240q0 -70 14 -124q22 -80 51.5 -115.5t43.5 -39t25 -3.5z" />
    <glyph glyph-name="ur" unicode="ur" horiz-adv-x="2838" 
d="M2278 -510q-127 0 -177 140q-41 135 -69 548q-6 88 -11 146q-3 46 -33.5 61t-116.5 27q-51 8 -128 23q-68 10 -98 18q-74 -178 -191.5 -333t-271.5 -239q-68 -35 -149 -35q-61 0 -114 26q-78 43 -123 108q-99 140 -99 430v16q-8 -8 -32 -90q-135 -409 -234.5 -546.5
t-177.5 -158.5q-15 -3 -30 -3q-68 0 -123 57q-110 121 -110 459q0 115 37 485q7 60 10 112q-9 19 -9 35q0 32 31 65q8 9 9 9q26 22 51 22q4 0 20.5 -2t39 -19.5t22.5 -33.5q0 -3 -0.5 -5t-17.5 -94.5t-64 -479.5q-5 -53 -5 -105q0 -88 18 -196.5t64 -171.5q27 -31 59 -31
q47 0 124.5 101.5t146.5 278.5q23 62 133 405q10 93 46 137q24 30 75 30q22 0 49 -6q31 -9 33 -50q0 -49 -8.5 -148.5t-8.5 -162.5q0 -104 11 -170q10 -53 43 -107q68 -112 186 -112q35 0 68 11q103 42 191 139.5t152.5 206.5t95.5 187q-24 14 -46 41q-36 49 -36 108
q0 26 15 86t100 110q31 16 60 16q65 0 97 -58q15 -26 15 -61q0 -40 -20 -90q-14 -35 -14 -59q0 -63 143 -67q45 -2 89 -9q109 -17 134 -114q14 -54 23 -180q27 -396 71 -540q26 -67 83 -67q5 0 40 3.5t98 71.5q222 240 373 616q27 52 55 52q23 0 23 -39l-1 -13
q-267 -546 -457 -721q-76 -70 -159 -70z" />
    <glyph glyph-name="dd" unicode="dd" horiz-adv-x="3645" 
d="M3405 -1233q-51 0 -83 33q-54 93 -79 176t-52 182q-14 70 -31 138q-37 186 -55 320q-17 124 -31 360q-12 208 -12 379q0 236 34 683l1 6q0 9 -3 9q-2 0 -7 -9q-222 -388 -418 -648q-283 -375 -518 -446q-33 -9 -65 -9q-22 0 -58.5 8t-72.5 48q-33 41 -43 94
q-53 -69 -105 -132q-77 -92 -151 -152q-122 -96 -194 -96q-18 0 -63.5 18.5t-75.5 193.5q-18 97 -21 182l-1 111l1 124q0 260 37 755q0 12 -2 12q-3 0 -8 -9q-584 -1033 -1103 -1203q-36 -11 -71 -11q-24 0 -64 9t-79 53q-52 65 -52 157q0 41 10 87q44 179 212 345
q214 214 426 214q154 0 224 -114q17 -27 17 -54q0 -24 -14 -47q-25 -32 -58 -32h-21q-19 1 -51 30q-18 18 -31 43q-24 41 -44 47q-12 1 -25 1q-33 0 -73 -8q-117 -31 -261 -169q-140 -141 -179 -285q-7 -32 -7 -57q0 -52 23 -76q39 -47 98 -47q25 0 53 8q158 51 272.5 139
t213.5 213.5t211 290.5l72 103q92 132 171.5 283.5t160.5 322.5q40 410 115 808q53 267 86.5 392t75.5 234q96 267 173 267q8 0 29 -9.5t33 -102.5q10 -105 10 -198q0 -67 -9 -169t-59 -301q-56 -228 -125.5 -398.5t-156.5 -347.5l-32 -67l-19 -182q-71 -634 -71 -991
q0 -117 5 -241q14 -182 64 -221q15 -12 35 -12q39 0 106 51q118 97 291 335l5 31q41 162 195 313q69 71 187.5 129.5t239.5 70.5q142 -7 142 -72q0 -36 -46.5 -67.5t-118.5 -31.5q-25 0 -52 4q-11 1 -23 1q-73 0 -129 -29t-118 -85q-129 -129 -165 -260q-6 -29 -6 -51
q0 -47 21 -70q36 -43 90 -43q23 0 49 8q176 62 356 295q78 102 151 210l122 173q84 120 157 258t148 293q36 373 105 735q49 243 79.5 356.5t69.5 212.5q87 244 159 244q7 0 26.5 -9t30.5 -94q9 -95 9 -180q0 -60 -8.5 -153t-54.5 -274q-51 -207 -115 -363
q-71 -172 -173 -376l-17 -166q-65 -576 -65 -901q0 -148 9 -308q12 -222 24 -342.5t37 -245.5l16 -83q54 -239 141 -340l60 -68q29 -41 29 -69q0 -68 -73 -74zM1536 1684q2 1 13 22q66 131 118 286q153 464 153 747q0 77 -16 77q-8 0 -20 -16q-19 -38 -29 -68
q-114 -294 -209 -935q-6 -46 -12 -84q-2 -15 -2 -22t2 -7h2zM3275 1577l2 1q2 0 12 19q61 119 108 261q141 421 141 679q0 70 -15 70q-7 0 -18 -15q-18 -34 -27 -62q-105 -267 -192 -850q-5 -42 -11 -76l-1 -21q0 -6 1 -6z" />
    <glyph glyph-name="cc" unicode="cc" horiz-adv-x="2370" 
d="M246 -574q-19 0 -64.5 2.5t-90.5 27.5q-83 52 -119 162q-43 135 -43 287q0 95 31 277.5t218 441.5q65 84 167.5 170.5t171.5 116.5q73 32 135 32q50 0 100 -30q26 -29 26 -75q0 -18 -4 -35q-15 -113 -72 -216q-17 -27 -53 -27t-67 26t-34 76q2 48 63 127q22 30 22 36
q0 3 -3 3q-9 0 -56 -28q-50 -26 -132.5 -102t-151.5 -174q-135 -206 -189 -447q-30 -131 -30 -245q0 -95 21 -177q46 -143 201 -143q28 0 55 7q144 41 363 227q141 118 478 470q7 130 69 258q80 160 181 256q44 44 102 69q27 12 56 12q33 0 68 -15q30 -20 40 -51
q18 -47 18 -135q0 -70 -17 -140q-13 -45 -69 -45q-73 0 -100 74l-2 125q-142 -132 -213 -328q-16 -57 -16 -112q0 -123 78 -239q37 -56 96.5 -78t120.5 -22t113 15q209 63 358.5 184t296.5 281q11 19 29 19q10 0 16 -10q3 -5 3 -13q0 -11 -6 -27l-60 -58
q-136 -142 -286 -266t-347 -198q-78 -27 -156 -27q-42 0 -123.5 15.5t-159.5 115.5q-84 117 -91 281l-323 -336q-163 -175 -332 -289q-157 -106 -287 -106z" />
    <glyph glyph-name="ce" unicode="ce" horiz-adv-x="2245" 
d="M256 -520q-16 0 -60 3t-89 28q-83 52 -119 162q-43 135 -43 285q0 96 31 279t218 441q65 85 167.5 171.5t170.5 116.5q74 32 136 32q50 0 99 -31q14 -15 20 -31.5t6 -44.5q0 -17 -3 -33q-15 -114 -72 -216q-17 -27 -53 -27t-67 26t-34 75q2 45 62 127q23 30 23 37
q0 2 -2 2t-10 -2.5t-47 -25.5q-50 -26 -133 -101.5t-151 -174.5q-135 -205 -190 -446q-29 -130 -29 -243q0 -96 21 -179q47 -143 201 -143q90 0 233 95q177 117 326 266q332 326 506 486q80 211 209 294q55 39 114 39l13 -1q73 -12 103 -61q30 -44 30 -87l-1 -15
q-11 -103 -80 -162q-76 -62 -140 -76q-33 -7 -64 -7q-28 0 -53 6l-7 1q-11 0 -15 -13q-35 -108 -47 -253v-31q0 -181 65 -259q63 -72 153 -72l31 1q240 27 426 289q76 104 114 236q14 49 29 74q9 15 37 15q18 0 31 -9t13 -23q0 -7 -3 -15l-17 -47q-18 -48 -54.5 -120
t-93.5 -151q-86 -120 -211.5 -215t-274.5 -116q-17 -2 -34 -2q-138 0 -233 102q-103 109 -103 316v34q8 139 38 247q-182 -163 -468 -457q-160 -172 -332 -289q-156 -107 -293 -107zM1571 400q77 0 143 68q52 52 52 115q0 49 -44 49q-34 0 -70 -29q-32 -28 -67 -74
q-66 -87 -66 -110q0 -4 4 -9.5t19 -7.5t29 -2z" />
    <glyph glyph-name="co" unicode="co" horiz-adv-x="2536" 
d="M196 -675q-16 0 -60 3t-89 28q-83 52 -119 162q-43 135 -43 285q0 395 279 780q65 85 167.5 171.5t170.5 116.5q74 32 136 32q50 0 99 -31q26 -26 26 -69q0 -21 -3 -40q-15 -113 -72 -216q-17 -27 -53 -27t-67 26t-34 75q1 45 62 127q23 30 23 37q0 2 -3 2l-9 -2
q-63 -21 -180 -127q-241 -219 -371 -681q-29 -130 -29 -243q0 -96 21 -179q46 -143 200 -143q28 0 55 7q125 37 271.5 136.5t233.5 177.5q512 493 606 586l7 25q-53 82 -53 173q0 116 86 188q82 67 181 67q2 0 53 -1t121 -94q47 -61 69 -143q14 -68 14 -189q0 -75 -4 -158
l59 -1q406 0 587 130q18 12 34 12q16 -7 16 -19q0 -14 -24 -34q-246 -139 -631 -150l-45 1q-40 -332 -169 -459q-63 -58 -133 -58q-72 0 -129 74q-90 115 -90 310q0 113 31 246q-161 -150 -573 -558q-383 -356 -625 -356zM1814 197q3 57 3 111q0 27 -1 83t-14 113
q-10 43 -41 97q-50 87 -125 87q-41 0 -87 -40q-30 -29 -46 -86q-8 -27 -8 -55q0 -32 10 -66q37 -127 115.5 -175t193.5 -69zM1622 -291q63 0 110 109q49 106 76 309q-173 20 -289 104q-31 -137 -31 -240q0 -70 14 -124q23 -80 51.5 -115.5t42.5 -39t26 -3.5z" />
    <glyph glyph-name="mm" unicode="mm" horiz-adv-x="4397" 
d="M71 -297q-33 0 -53 21q-43 48 -54 114q-7 43 -7 90q0 26 2 53q18 286 78.5 543.5t111.5 362.5q24 10 43 11q18 0 31.5 -6t22 -13.5t12.5 -13.5l4 -7q5 -18 5 -41q0 -69 -63 -280q-35 -116 -69.5 -256.5t-50.5 -296.5q-2 -25 -2 -54l1 -34q2 -49 21 -49q37 0 131 215
q67 150 130 318q43 117 105 246q146 308 272 322q34 0 61.5 -19t41.5 -43q54 -94 69 -386q11 -184 23 -271l1 -6q13 -43 23 -43q9 0 26 41q17 29 57 129q21 51 40 90q47 88 108 93l21 1q74 0 113 -50q42 -57 72 -122l25 -50q30 -68 69.5 -124.5t98.5 -58.5q107 7 252.5 97.5
t287.5 217.5t239 243q23 18 45 18q15 0 29 -9q42 -35 42 -88q0 -15 -7 -58q-11 -72 -33 -160q-49 -202 -49 -307q0 -61 13 -93q6 -8 15 -8q16 0 47.5 37t72 106t66.5 119q75 147 149 264q96 155 196 179h10q46 0 82 -25q73 -57 103 -222q18 -88 36 -141q20 -67 49 -67
q1 0 16 1t52 44.5t78 105.5t84 114q55 66 102 66q31 0 67 -26q59 -48 89 -179q19 -84 46 -140q25 -92 82 -110q19 -4 41 -4q50 0 132 26q135 43 345 187q34 20 45 20q4 0 7 -2q9 -5 9 -14q0 -16 -20 -23q-193 -137 -353 -205q-78 -33 -144 -48q-34 -10 -67 -10
q-180 0 -240 274q-19 74 -35 110q-21 44 -42 44q-16 0 -46 -30q-20 -20 -133 -169q-55 -77 -94 -105q-26 -21 -57 -21l-17 1q-82 18 -114 117q-30 89 -40 156q-23 104 -47 140q-8 10 -22 10q-42 0 -86 -44q-70 -72 -162 -258q-16 -31 -31 -57q-29 -54 -55 -107
q-43 -89 -87 -152q-64 -93 -139 -93q-38 0 -68 31q-49 53 -58 123q-4 36 -4 72q0 37 4 75q17 133 49 260l12 59q6 22 6 41q0 16 -9 16q-4 0 -11 -3q-82 -49 -236 -176q-317 -265 -445 -300q-36 -13 -73 -13q-27 0 -54 7q-84 30 -132.5 97t-80.5 137l-9 18q-13 27 -25 56
q-39 91 -64 100l-10 1q-23 0 -52 -54q-47 -99 -76 -196q-14 -44 -28 -81q-20 -60 -57 -86q-22 -12 -43 -12l-13 1q-60 12 -84 78q-34 91 -48 349q-9 187 -31 302l-2 11q-10 66 -41 80l-7 1q-25 0 -61 -48q-65 -86 -154 -288q-38 -86 -105 -246q-129 -305 -167 -399
q-49 -136 -137 -160z" />
    <glyph glyph-name="amm" unicode="amm" horiz-adv-x="6281" 
d="M1916 -320q-31 0 -51 21q-43 48 -53 114q-8 45 -8 95q0 23 2 47q11 189 44.5 374.5t74.5 328.5q-355 -452 -625 -664q-179 -141 -304 -141q-143 0 -190 195q-12 62 -12 127q0 60 15 155t32 148q10 33 10 41q0 3 -2 3t-8 -9q-31 -51 -67 -99q-21 -28 -55 -76
q-88 -127 -212 -250q-155 -157 -310 -157q-79 0 -144.5 42t-89.5 120q-9 30 -9 64q0 52 29 131t136 190q89 90 200 144q180 87 330 87q41 0 77 -7q84 -18 94 -77l2 -7l1 2q42 71 66 95q2 1 3 3q17 20 50 20q42 -3 49.5 -18t7.5 -47q0 -51 -29 -221q-41 -223 -41 -321
q0 -89 26 -141q30 -58 84 -58q28 0 64 13q146 56 370 282q178 183 319.5 359.5t188.5 241.5l15 34q24 10 43 10q33 0 53 -19l17 -20q5 -18 5 -41q0 -71 -63 -280q-35 -117 -69.5 -257.5t-50.5 -296.5q-2 -25 -2 -54l1 -34q2 -49 21 -49q36 0 131 215q76 172 130 319
q112 303 236 467q76 100 144 100q33 0 59.5 -18.5t40.5 -43.5q54 -94 69 -386q10 -170 23 -270l1 -7q12 -43 24 -43q10 0 34 61q28 60 48.5 110t39.5 90q48 87 108 92l21 1q74 0 114 -50q41 -57 71 -122l25 -49q30 -69 69.5 -125t98.5 -58q107 6 252.5 97t287.5 218t239 242
q23 18 45 18q15 0 29 -8q42 -35 42 -89q0 -17 -3 -36l-4 -21q-9 -59 -25 -129q-4 -15 -7 -31q-50 -200 -50 -308q0 -60 13 -93q6 -8 14 -8q17 0 48.5 37t72.5 106.5t66 118.5q76 148 149 264q96 155 196 179l13 1q137 0 182 -248q21 -96 36 -140q21 -67 50 -67h16
q30 1 128 149q42 64 85 116q55 65 100 65q14 0 33 -6q58 -22 85 -80.5t44 -135.5q18 -72 42 -122q11 -40 31 -70q30 -45 95 -45q103 0 282 92t252 139q14 8 23 8q5 0 8 -2q9 -5 9 -14q0 -2 -1 -9t-19 -13q-172 -109 -392 -212q-141 -58 -211 -58q-81 0 -137 56
q-70 70 -103 218q-19 75 -35 111q-21 44 -41 44q-16 0 -47 -30.5t-133 -169.5q-53 -74 -94 -105q-26 -21 -57 -21l-17 1q-50 12 -77 48q-43 57 -72 200l-5 26q-23 104 -48 140q-6 9 -21 9q-78 0 -172 -160q-33 -58 -106 -199q-30 -53 -56 -106q-43 -89 -87 -152
q-34 -50 -81 -78q-25 -15 -58 -15q-37 0 -68 30q-49 53 -58 124q-5 35 -5 72q0 36 5 74q17 134 49 261l12 58q7 27 7 40q0 17 -10 17q-5 0 -11 -3q-82 -48 -235 -176q-122 -100 -244 -189t-202 -110q-37 -14 -74 -14q-26 0 -53 7q-84 31 -132 98q-67 93 -115 210
q-38 91 -64 101q-4 1 -10 1q-24 0 -52 -54q-46 -97 -76 -197q-14 -43 -28 -80q-19 -60 -57 -86q-18 -13 -43 -13q-98 0 -123 188q-16 114 -24 281q-19 328 -72 352l-8 1q-48 0 -139 -177q-61 -119 -126 -277l-54 -127q-120 -282 -167 -399q-50 -138 -137 -160zM225 15
q64 4 120.5 35t114.5 80q170 145 308 387l20 33q-33 -10 -54 -10l-16 1q-24 2 -43 38q-10 16 -25 29.5t-56 13.5q-155 -35 -350 -227q-132 -132 -132 -257q0 -58 35 -96q27 -27 75 -27h3z" />
    <glyph glyph-name="ee" unicode="ee" horiz-adv-x="1972" 
d="M287 -407q-137 0 -232 102q-104 109 -104 316l1 34q12 177 67.5 336t115.5 245q110 154 230 160l16 -1q74 -12 104 -61q29 -44 29 -87l-1 -15q-13 -113 -85 -181q-73 -63 -131 -84.5t-136 -26.5l-8 1q-10 0 -13 -13l-5 -14q-17 -55 -35 -127q-24 -94 -24 -170
q0 -181 66 -259q32 -37 72 -57q31 -15 80 -15q100 0 215 70q154 93 347 277l21 19q80 74 149 140q7 126 53.5 263t157.5 230q24 19 62 36.5t71 17.5h4q74 -11 104 -57q10 -15 10 -34q0 -29 -32 -82q-52 -85 -246 -274l-52 -51q-8 -53 -8 -104q0 -165 66 -237q32 -35 72 -54
q32 -14 82 -14l30 1q237 25 424 262q78 103 111 173q20 42 36 65q9 18 30 18q11 0 18.5 -6t7.5 -15q0 -7 -4 -17l-18 -44q-17 -45 -43 -91t-82 -120q-85 -104 -210 -193t-274 -109q-19 -2 -37 -2q-128 0 -230 95q-93 93 -104 260l-123 -117q-217 -207 -376 -306
q-133 -83 -239 -83zM242 439q77 0 144 68q51 53 51 111q0 53 -44 53q-34 0 -67.5 -28.5t-69 -75t-60.5 -92.5q-6 -10 -6 -17q0 -5 4 -10t19 -7t29 -2zM1179 330l11 11q83 76 151 155q63 73 63 104q0 17 -20 22q-78 -6 -145 -127q-8 -13 -28 -65q-17 -39 -32 -100z" />
    <glyph glyph-name="oo" unicode="oo" horiz-adv-x="2285" 
d="M174 -433q-42 0 -79 24q-90 59 -132 218q-19 80 -19 164q0 154 62 364q-56 87 -56 181q0 123 90 198q86 69 189 69q108 0 184 -100q49 -63 72 -148q15 -73 15 -200q0 -79 -5 -148q59 -9 118 -9q91 0 215.5 26.5t228.5 100.5q16 12 30 33q30 160 85 264q18 28 31 28
q11 0 20 -17q20 4 39 4q89 0 157.5 -93t100.5 -278q162 -57 336 -57q55 0 178.5 13t246.5 114q18 13 31 13q22 0 23 -27q0 -16 -14 -34q-175 -141 -459 -141q-184 0 -332 51q9 -71 9 -138q0 -146 -40 -244q-30 -75 -74 -110q-29 -22 -61 -38t-72 -16h-5q-83 8 -130 67
q-51 54 -77 141q-21 90 -21 202q0 80 11 171q-236 -107 -530 -107l-49 1q-12 -97 -32 -186q-45 -199 -145 -295q-66 -61 -140 -61zM418 192q2 51 2 108q0 28 -0.5 86.5t-14.5 118.5q-10 45 -43 102q-52 90 -132 90q-43 0 -90 -42q-32 -30 -48 -90q-9 -28 -9 -58
q0 -33 11 -68q43 -120 122 -170.5t202 -76.5zM1444 281q-26 113 -69.5 190t-100.5 80q-10 0 -22 -4q-4 -19 -4 -38q0 -76 66 -139q50 -50 130 -89zM1335 -276q37 0 64 30t40 72q35 109 35 218q0 60 -16 162q-182 76 -246 201q-28 -155 -28 -308q0 -122 24 -233
q30 -93 83 -130q18 -12 44 -12zM217 -328q65 0 115 113q51 110 79 324q-181 21 -303 110q-32 -144 -32 -253q0 -73 15 -130q32 -111 83 -150q18 -14 43 -14z" />
    <glyph glyph-name="on" unicode="on" horiz-adv-x="2499" 
d="M168 -383h-4q-71 5 -124 74q-91 114 -91 311q0 147 58 350q-53 86 -53 175q0 114 87 186q81 67 178 67q3 0 55 -1t122 -94q46 -61 69 -143q19 -87 19 -181q0 -58 -7 -118q109 17 236 108.5t239 219.5t177 257q8 59 45.5 131.5t103.5 128.5q27 17 57 17q54 0 54 -62v-12
q-88 -176 -139 -366q-78 -296 -78 -541q0 -35 2 -64q9 -40 22 -40q4 0 16 9q24 18 78 155q19 48 32 73q88 194 164 294q63 81 123 81q37 0 62 -31q31 -39 43 -85q20 -78 30 -170l6 -40q32 -268 126 -326q39 -18 75 -18q50 0 125 37q92 42 188 115q101 75 165 138l65 62
q19 14 33 14q9 0 17.5 -5.5t8.5 -16.5q0 -12 -13 -32l-69 -67q-187 -182 -394 -277q-101 -44 -175 -44q-35 0 -69 10q-60 21 -98 63q-84 95 -110 330q-17 120 -32 191q-5 26 -20 36q-5 4 -11 4q-20 0 -46 -37q-63 -88 -142 -254q-69 -148 -104 -245q-29 -76 -69 -109
q-21 -18 -47 -18q-30 0 -51 17q-27 23 -38 61q-20 63 -20 179q0 274 89 600q-128 -216 -297 -359.5t-364 -187.5q-12 -94 -33 -193q-42 -205 -139 -299q-60 -58 -133 -58zM401 233q3 49 3 98l-2 75q-3 111 -55 203q-49 87 -126 87q-41 0 -86 -40q-29 -29 -46 -86
q-8 -27 -8 -55q0 -32 10 -66q43 -117 123.5 -165.5t186.5 -50.5zM209 -283q65 0 109 109q44 97 77 329h-16q-161 0 -273 84q-31 -138 -31 -243q0 -68 13 -121q23 -80 52.5 -115.5t43 -39t25.5 -3.5z" />
    <glyph glyph-name="om" unicode="om" horiz-adv-x="3142" 
d="M162 -411h-4q-69 5 -124 74q-91 116 -91 313q0 148 59 348q-53 82 -53 173q0 116 86 188q82 67 181 67q1 0 52.5 -1t122.5 -94q45 -61 68 -143q20 -87 20 -180q0 -58 -8 -119q107 17 230.5 104.5t234 211.5t179.5 250q18 87 81 175q44 61 91 61q28 0 45 -18
q11 -13 11 -33q0 -8 -1 -16l-45 -149q-44 -149 -89 -352l-19 -82q-76 -330 -76 -421q0 -17 1.5 -49.5t9.5 -64.5t26 -32h1q42 13 85 109.5t78 195.5q164 443 246 540q49 56 127 62q61 0 101 -51q61 -84 90 -331l4 -28q23 -179 42 -223l6 -15q10 -12 20 -12q7 0 20 10
q22 17 68 123q34 79 79 152q28 47 62 83q30 30 77 33q39 0 65 -22q61 -52 132 -199q20 -51 88 -158q85 -146 190 -146q92 0 200 111q86 88 183 232l35 51q10 11 20 11q20 0 27 -24q1 -4 1 -9q0 -12 -9 -24l-38 -51q-37 -51 -93 -118t-115 -121q-76 -71 -168 -107
q-45 -17 -91 -17q-49 0 -100 20q-91 41 -144 119t-91 160q-43 85 -74 138.5t-58 53.5q-46 0 -116 -165l-14 -29q-17 -39 -30 -76q-31 -91 -63 -134q-29 -38 -73 -38q-35 0 -63 28q-45 43 -64 136q-23 104 -39.5 236.5t-40.5 219.5q-25 80 -63 80q-1 0 -21 -1.5t-83 -116.5
q-52 -100 -102 -238q-17 -46 -34 -89q-25 -62 -57 -149q-73 -198 -98.5 -254t-64.5 -94q-26 -27 -67 -27q-36 0 -65 29q-51 54 -63 131q-8 51 -8 109q0 29 2 60q8 125 78 428q38 177 62 267q3 12 3 17q0 4 -2 4t-8 -8q-127 -211 -294.5 -351.5t-360.5 -183.5
q-11 -94 -32 -193q-41 -203 -139 -299q-63 -58 -134 -58zM396 205q2 44 2 88l-1 83q-2 113 -55 205q-50 87 -125 87q-41 0 -87 -40q-30 -29 -46 -86q-8 -27 -8 -55q0 -32 10 -66q43 -117 123.5 -165.5t186.5 -50.5zM202 -311q64 0 111 109q46 102 76 329h-16q-161 0 -273 84
q-31 -137 -31 -240q0 -70 14 -124q23 -80 51.5 -115.5t42.5 -39t25 -3.5z" />
    <glyph glyph-name="ss" unicode="ss" horiz-adv-x="2306" 
d="M283 -867q-57 0 -93 35q-23 22 -29 54q-2 17 -2 34q0 220 385 610l24 25q-32 8 -74 14q-133 24 -222 50q-198 58 -257 203q-19 46 -19 105q0 41 9 88q27 119 102.5 218t171.5 158.5t183 61.5q89 -1 89 -88q0 -18 -10 -50t-38 -47q-6 -4 -13 -4q-20 0 -40 37
q-90 -3 -189 -89.5t-133 -222.5q-9 -44 -9 -77q0 -34 13 -69t57 -66q96 -67 256 -106q102 -24 179 -48q245 203 429 366q1 13 4 26q28 117 105.5 183t162.5 88q57 16 99 16q20 0 37 -4q55 0 113.5 -25.5t103.5 -75.5q35 -61 34 -162q0 -102 -48 -152l-11 -5q-23 -11 -58 -11
q-4 0 -16 1t-32 12.5t-36 38.5q-11 22 -11 44q0 43 49 112q24 36 24 48l-1 6q-47 62 -127 62q-6 0 -52.5 -2.5t-122.5 -58.5q-99 -74 -99 -220q0 -175 395 -254q86 -14 158 -48q135 115 275 211.5t319 173.5q41 -1 41 -25q0 -16 -24 -35q-319 -128 -563 -366q57 -87 57 -191
q0 -62 -28 -120q-35 -66 -86 -106q-83 -68 -165 -68q-58 0 -94 35q-31 29 -31 80q0 49 28 101q47 88 165 203l35 36q-69 26 -177 45q-199 34 -310 113q-109 80 -118 217q-55 -45 -112 -87q-115 -83 -262 -224q98 -52 98 -197l-3 -50q-5 -93 -81 -239q-119 -232 -342 -307
q-32 -11 -63 -11zM274 -760q106 0 246 136q89 86 149 240q17 44 17 107q0 111 -66 146q-65 -57 -142.5 -142.5t-143 -178.5t-93.5 -174q-12 -36 -12 -65q0 -37 19 -63q10 -6 26 -6zM1538 -475q17 0 46.5 15.5t64 48.5t48.5 58q22 40 33 101q2 14 2 28q0 43 -25 73
q-30 -30 -80 -82q-61 -65 -96 -122q-32 -53 -32 -83q0 -37 39 -37z" />
    <glyph glyph-name="zz" unicode="zz" horiz-adv-x="3213" 
d="M-187 -457q-17 0 -32.5 2t-33 9t-32 28.5t-14.5 44.5q0 54 47 103q117 129 564 420q121 78 245.5 147.5t214.5 130.5q71 46 105 74t36 58q-2 40 -71 40q-102 0 -297 -47q-165 -44 -310 -109q-19 -10 -20 -25q0 -17 4.5 -32t4.5 -30q-2 -35 -78 -47q-64 0 -99 3
q-66 6 -95 38q-16 18 -16 46q0 25 10 40q77 77 252 127q152 47 324 75q154 26 259 26q84 0 163 -18q67 -21 86 -77q4 -13 4 -24q0 -4 -2 -12q-6 -27 -24 -45q-42 -52 -191 -153q-119 -82 -436 -290q-263 -173 -446 -314q-88 -63 -88 -90q0 -18 38 -18q113 0 511 122l24 8
q255 75 486 91q34 3 68 3q64 0 143 -12t154 -61q19 -18 19 -33q0 -26 -30 -36q-9 -3 -18 -3q-10 0 -20 5q-41 29 -125 56q-74 25 -167 25q-253 0 -677 -144q-290 -102 -440 -102zM2416 -1695q-60 0 -114 37q-109 78 -109 290q0 75 17 184q30 194 156 438q16 29 16 65
q0 12 -26 32q-148 109 -335 170q-146 48 -292 48q-61 0 -144 -13q-89 -13 -129 -13q-17 0 -33 2t-33.5 9t-32 28.5t-14.5 44.5q0 54 47 103q29 31 92 87q309 277 677 531q146 101 264.5 188.5t132.5 123.5q-2 40 -72 40q-69 0 -144 -23q-59 -19 -202 -71q-25 -11 -53 -22
q-245 -109 -245 -142q0 -18 10 -42.5t10 -42.5q0 -36 -72 -47q-64 0 -99 3q-65 5 -94 38q-17 17 -17 46q0 124 266 218q168 63 320 98q183 48 322 50q52 0 92 -11q66 -19 77 -51q5 -13 5 -26q0 -19 -14.5 -46t-36.5 -50q-63 -77 -178 -169t-243 -186q-259 -191 -534 -424
q-130 -107 -154 -135q-10 -15 -10 -24q0 -17 37 -17q31 0 59 4q60 12 156 12q155 0 330 -46.5t331 -158.5q26 -20 40 -20q4 0 12 3.5t30 46.5q91 150 279 391t453 469q9 3 17 3q10 0 18 -4q12 -10 12 -22q0 -11 -10 -22q-260 -224 -445 -461.5t-277 -388.5q-28 -42 -28 -62
q0 -17 17 -34q165 -166 218 -381q19 -80 19 -158q0 -132 -55 -258q-73 -154 -186 -207q-52 -25 -101 -25zM2415 -1632q35 0 74 19q89 41 156 176q47 106 47 214q0 66 -32 188t-176 274q-20 21 -32 21q-16 0 -29 -36q-166 -315 -166 -594q0 -103 29 -165q44 -97 129 -97z" />
    <glyph glyph-name="al" unicode="al" horiz-adv-x="2710" 
d="M2317 -1675q-32 0 -53 49q-98 279 -157 788q-63 534 -63 1190q0 340 15.5 625t46.5 609q-322 -845 -676 -1360q-246 -352 -409 -352q-62 0 -109 52q-59 75 -75 169q-10 62 -10 127q0 97 37 323q5 30 5 37l-1 2q-1 0 -4 -4q-26 -45 -68 -100q-21 -28 -54 -75
q-88 -127 -212 -250q-153 -158 -307 -158q-81 0 -147.5 42t-90.5 121q-9 30 -9 62q0 53 29.5 132t136.5 191q89 89 200 144q178 87 328 87q101 0 152 -42q16 -18 21 -43l2 -5q44 73 68 96.5t59 23.5q24 0 42 -20q10 -16 10 -52q0 -56 -34 -225q-45 -228 -45 -344
q0 -52 11 -106q22 -114 91 -114h2q123 13 333 315q190 273 388.5 686.5t360.5 884.5q14 91 32 322q51 428 94 647q15 106 48 167t70 61q44 0 70 -100q15 -42 15 -165q0 -385 -186 -864q-18 -164 -37 -321q-37 -306 -63 -608q-24 -280 -24 -588v-534q0 -206 10.5 -398.5
t66.5 -546.5q30 -177 105 -351q43 -98 43 -142l-1 -16q-14 -69 -57 -69zM246 80q65 4 121.5 35t114.5 79q120 101 213 237q63 91 115 184q-32 -9 -54 -9q-46 0 -69 46q-20 37 -50 37q-9 0 -20 -2q-155 -35 -351 -228q-131 -132 -131 -259q0 -57 35 -93q27 -27 76 -27z" />
    <glyph glyph-name="bl" unicode="bl" horiz-adv-x="2196" 
d="M1804 -1675q-32 0 -53 49q-99 279 -158 788q-62 526 -62 1189q0 358 17 655.5t51 645.5q-290 -613 -731 -1178q14 -23 25 -54q25 -72 25 -165q0 -73 -17 -158q-52 -218 -203.5 -405.5t-339.5 -286.5q-99 -51 -166 -51q-19 0 -52.5 6.5t-55.5 58.5q-8 23 -8 48q0 37 23 89
q33 79 105 159l34 43q81 108 175 228q337 433 337 460q0 23 -29 42q-65 48 -173 48q-89 0 -165 -54t-121 -133.5t-104 -261.5q-24 -75 -35.5 -149.5t-14.5 -124.5l-3 -51q-10 -34 -37 -49q-16 -9 -31 -9q-11 0 -29.5 8t-26.5 52q-5 34 -5 104q0 460 76 1372q31 366 55 581
q40 306 108 663q-52 39 -52 107q0 14 7.5 66t55.5 147.5t88 160.5q34 57 71 57q31 0 53 -27t25 -51q-156 -510 -220 -1002q-42 -313 -74 -701q-39 -498 -52 -878q-6 -114 -6 -148l-1 -32q95 231 234 341q129 97 268 97q99 0 181 -59l12 -9q11 -10 28 -29
q200 257 414.5 601.5t373.5 723.5l5 32l9 89q6 67 15 183q51 428 94 647q14 106 47.5 167t70.5 61q44 0 70 -100q14 -48 14 -168q0 -383 -186 -861q-17 -164 -36 -322q-37 -305 -63 -607q-24 -280 -24 -588v-429l-1 -105q0 -206 11 -398.5t67 -546.5q31 -187 105 -351
q21 -50 34 -88q9 -28 9 -54l-1 -16q-14 -69 -57 -69zM212 -509q32 0 90 27q145 74 263 222t178 290q49 146 49 243q0 27 -4 51q-5 35 -12 36q-5 0 -12 -9q-200 -270 -374 -496q-127 -165 -151 -200q-68 -90 -68 -130q0 -34 41 -34z" />
    <glyph glyph-name="cl" unicode="cl" horiz-adv-x="2700" 
d="M1862 -861q-39 0 -91 40.5t-95 174t-56 296.5q-14 183 -14 427q0 183 8 399q-431 -302 -738 -618q-374 -395 -626 -395q-16 0 -60 3t-88 27q-84 52 -119 162q-43 135 -43 286q0 96 31 279t218 441q65 84 167 170.5t171 117.5q75 32 135 32q49 0 100 -31q14 -15 19 -30
q7 -21 7 -47q0 -17 -3 -32q-15 -114 -72 -216q-17 -27 -53 -27t-67.5 25.5t-34.5 75.5q2 48 63 127q23 31 23 37q0 2 -3 2q-10 0 -56 -28q-50 -26 -133 -102t-152 -174q-134 -205 -189 -447q-29 -130 -29 -242q0 -96 21 -179q46 -144 198 -144q92 0 236 96q177 117 326 266
q322 312 753 621q27 679 73 1146q13 131 20 169q4 7 18 185l8 90q50 428 93 647q15 106 48 167t71 61q43 0 70 -100q14 -47 14 -165q0 -384 -186 -863q-46 -433 -87 -1076q-34 -546 -34 -950q0 -71 1 -137q11 -390 149 -465q15 -7 28 -7q52 0 148 109q54 61 89 107
q131 182 349 525l216 345q17 25 34 25q22 0 22 -28q0 -8 -2 -19l-63 -101q-64 -102 -157 -248q-239 -372 -353 -535q-35 -49 -96 -120q-135 -155 -227 -155z" />
    <glyph glyph-name="dl" unicode="dl" horiz-adv-x="3091" 
d="M2697 -1625q-31 0 -52 49q-99 279 -159 788q-63 534 -63 1171q0 611 51 1124q-104 -373 -241 -814q-487 -1576 -740 -1576q-27 0 -57.5 12.5t-50.5 35.5q-68 77 -99 328q-28 244 -28 548q0 446 43 1014v9q0 7 -2 8q-2 0 -8 -10q-140 -246 -251 -405
q-208 -304 -407.5 -510.5t-443.5 -286.5q-37 -11 -72 -11q-23 0 -63 9t-79 53q-53 64 -53 156q0 41 11 87q43 178 212 345q75 75 157 129q131 85 267 85q156 0 226 -113q16 -27 16 -53q0 -25 -14 -48q-26 -33 -60 -33q-1 0 -19.5 1t-49.5 29q-18 19 -32 43q-9 17 -19.5 30
t-24 16t-28.5 3q-145 0 -331 -178q-139 -141 -178 -284q-8 -33 -8 -58q0 -48 23 -76q38 -47 98 -47q25 0 54 8q158 51 272 139t213 214t212 290q34 50 72 103q92 133 171 284t160 322q40 410 115 808q175 845 315 1009q40 48 66 48q47 0 58 -121q5 -71 5 -142
q0 -264 -104 -680q-56 -229 -126 -399q-68 -165 -189 -415q-50 -477 -76 -984q-15 -274 -15 -521q0 -364 26 -524q30 -193 97 -209h3q18 0 50 27q138 127 350 684q303 815 610 1958q7 58 12 84v3q3 33 25 272q50 428 94 647q15 113 51 174q30 53 64 53q5 0 27 -4t46 -95
q13 -47 13 -165q0 -385 -185 -864l-36 -322q-37 -305 -63 -607q-26 -281 -26 -589l2 -315l-1 -244q0 -190 10.5 -377.5t66.5 -541.5q29 -177 105 -351q43 -98 43 -142l-1 -16q-14 -69 -57 -69zM1498 1649q3 1 14 22q111 222 201 562q44 170 83 418q23 150 23 227
q0 51 -15 53q-12 0 -24 -31q-91 -189 -220 -811q-15 -77 -51 -328l-13 -84q-2 -15 -2 -22q0 -6 1 -6h3z" />
    <glyph glyph-name="el" unicode="el" horiz-adv-x="2261" 
d="M1870 -1675q-31 0 -52 49q-99 279 -159 788q-61 526 -61 1190q0 343 15.5 630.5t47.5 615.5q-121 -314 -273 -627q-239 -494 -516 -880q-157 -219 -353 -365q-113 -86 -219 -86q-139 0 -235 102q-104 109 -104 316l1 34q20 318 152 502q115 159 235 159h12
q73 -12 103 -61q30 -44 30 -87l-1 -15q-11 -104 -80 -162q-76 -63 -140 -76q-34 -7 -64 -7q-28 0 -53 6l-8 1q-11 0 -14 -13q-35 -109 -47 -254l-1 -31q0 -180 67 -258q28 -33 60.5 -53t80.5 -20q143 0 331 184q196 191 394 512q196 316 368.5 687.5t298.5 728.5
q13 93 24 227q20 270 101 738q14 106 46.5 166.5t71.5 60.5q42 0 70 -99q14 -47 14 -165q0 -385 -186 -864l-36 -322q-37 -305 -63 -607q-25 -291 -25 -610l1 -294v-113l-1 -112q0 -202 10.5 -393t67.5 -545q31 -187 105 -351q21 -50 34 -88q9 -28 9 -54l-1 -16
q-14 -69 -58 -69zM222 407q75 0 143 67q52 52 52 115q0 50 -46 50q-32 0 -68 -29q-74 -67 -128 -167q-6 -10 -6 -17q0 -5 4.5 -10t19 -7t29.5 -2z" />
    <glyph glyph-name="fl" unicode="fl" horiz-adv-x="1833" 
d="M419 -2319h-8q-136 10 -248 130q-112 117 -197 318t-129 474q-33 204 -33 439q0 214 26 395q2 13 2 23q0 14 -6 23t-41 9q-256 0 -589 -95q-62 -34 -120 -69q-48 -29 -85 -50q-70 -36 -113 -36q-14 0 -25 4q-38 14 -38 50q0 7 5 34t70 75q61 44 238 83q46 10 85 20
q236 137 409.5 254t298.5 238q104 425 229 692q130 255 255 383l43 44q23 12 42 12q23 0 46 -25q38 -40 38 -151q0 -26 -3 -52q-14 -83 -66 -83q-47 0 -90 111q-55 -78 -124 -222l-21 -43q-96 -192 -185 -503q-4 -14 -4 -21q0 -6 3 -6q6 0 22 15q533 521 913 1158
q153 256 223 411q13 122 20 158v3q11 92 25 272q51 428 94 647q14 106 47 166.5t72 60.5q42 0 69 -99q14 -47 14 -165q0 -385 -186 -864l-36 -322q-37 -305 -63 -607q-25 -291 -25 -610l2 -294l-1 -113v-112q0 -202 10 -393t67 -545q31 -187 105 -351q21 -50 34 -88
q9 -28 9 -54l-1 -16q-14 -69 -57 -69q-32 0 -53 49q-99 279 -158 788q-62 526 -62 1191q0 332 14.5 611t44.5 592q-95 -184 -255 -435q-380 -596 -889 -1072q-18 -15 -27.5 -26t-14.5 -30t-37 -201q-30 -172 -30 -193q0 -14 5.5 -23t44.5 -10q486 -68 746 -406
q151 -212 180 -462q9 -80 9 -157q0 -166 -42 -322q-61 -227 -190 -379q-136 -159 -308 -159zM-621 -462q230 35 405 40q35 0 51.5 11.5t20.5 43.5q14 88 32 180q5 26 5 40q0 17 -8 17q-10 0 -36 -22q-211 -161 -470 -310zM479 -2209q66 0 128 35t104 92q48 60 89 130.5
t68 169.5q42 145 42 303q0 62 -15 208.5t-173 379.5q-118 165 -302.5 254.5t-408.5 109.5l-18 1q-16 0 -27.5 -6t-12.5 -37q-23 -206 -23 -386q0 -228 36.5 -455t115 -412.5t171.5 -279.5q99 -94 188 -105q19 -2 38 -2z" />
    <glyph glyph-name="gl" unicode="gl" horiz-adv-x="2530" 
d="M-137 -2760q-61 0 -116 24q-163 81 -163 330q0 242 82 493q237 730 1218 1916q25 31 25 58q0 24 -15 58q-34 97 -69 163q-42 79 -74 111q-14 13 -33 13q-56 0 -144 -102l-50 -57q-59 -66 -133 -162q-134 -184 -221 -227q-32 -16 -66 -16q-32 0 -62 18q-57 43 -68 123
q-11 62 -11 120q0 79 28.5 177t100.5 189q44 58 117.5 116t159.5 84q34 10 67 10q53 0 106 -25q47 -30 82 -85q22 -36 22 -71q0 -19 -7 -38q69 51 124 51q43 0 78 -30q86 -87 153 -272q16 -44 29 -44l7 1q7 1 34 43q262 346 432 625q278 454 444 887q12 121 19 157v3
q11 92 25 272q51 428 94 647q14 106 47 166.5t72 60.5q42 0 69 -99q14 -47 14 -165q0 -385 -186 -864l-36 -322q-37 -305 -63 -607q-25 -291 -25 -610l1 -294v-113l-1 -112q0 -202 10.5 -393t67.5 -545q31 -187 105 -351q21 -50 34 -88q9 -28 9 -54l-1 -16q-14 -69 -57 -69
q-32 0 -53 49q-99 279 -158 788q-62 525 -62 1169q0 641 56 1189q-260 -626 -848 -1396q-28 -33 -28 -56q0 -20 11 -53q10 -38 19 -77l12 -72q43 -238 43 -504q0 -549 -207 -1013q-189 -410 -402.5 -668.5t-413.5 -366.5q-134 -74 -244 -74zM181 -57q57 0 136 120l31 43
l63 84q85 124 183 220l-11 -3q-17 -5 -36 -5q-51 0 -51 52l2 35q0 37 -7 62q-8 32 -59 32q-73 -4 -135 -66q-209 -209 -209 -415q0 -46 9 -95q5 -25 24 -40l17 -13q23 -11 43 -11zM-169 -2645q83 0 216 69q172 92 375 336t387 640q98 222 146 497q49 287 49 553
q0 256 -38 440l-1 3q-9 55 -23 55q-11 0 -31 -27q-176 -211 -338 -436l-43 -60q-150 -210 -304.5 -439t-284.5 -466q-284 -519 -284 -913q0 -190 121 -243q23 -9 53 -9z" />
    <glyph glyph-name="hl" unicode="hl" horiz-adv-x="2352" 
d="M1939 -1675q-32 0 -53 49q-98 279 -157.5 787.5t-62.5 1147.5q0 587 71 1320q-232 -761 -398 -1195q-159 -413 -285 -567q-97 -117 -190 -117q-49 0 -88 35q-63 62 -83 169.5t-28 255.5l-1 9q-1 20 -1 63q-1 49 -3 107t-8.5 102t-19.5 52q-7 2 -15 2q-95 0 -292 -419
q-125 -264 -238 -552l-40 -101q-15 -32 -46 -32q-19 0 -37.5 14t-18.5 44l25 396q25 395 78.5 1023t137.5 1353q-20 -5 -36 -5q-54 0 -54 61q0 13 9.5 77t132.5 257q43 62 83 62q41 0 41 -73v-7q-138 -930 -208 -1685t-79 -1136q2 -25 11 -25q6 0 24 24q26 36 122 246
q82 182 157 314q150 262 265 262q16 0 32 -5q46 -19 66 -69q28 -70 28 -222v-21q0 -55 3 -97q10 -141 24 -226q26 -159 100 -170h4q37 0 98 71q200 259 497 1183q109 341 207 662q26 88 52 170q10 91 16 123l25 274q50 428 94 647q17 90 51 159q36 73 74 73q36 0 63 -104
q14 -47 14 -165q0 -384 -186 -863q-144 -998 -144 -1709v-401l-1 -105q0 -206 11 -398.5t67 -546.5q29 -177 105 -351q43 -98 43 -142l-1 -16q-14 -69 -57 -69z" />
    <glyph glyph-name="il" unicode="il" horiz-adv-x="1950" 
d="M1557 -1675q-31 0 -53 49q-98 279 -157 788q-63 534 -63 1190q0 342 15.5 628.5t47.5 613.5q-234 -623 -515 -1108q-165 -283 -328 -448q-146 -149 -293 -149q-52 0 -95 30q-97 67 -111 235q-10 84 -10 170q0 48 3 96q-14 16 -14 40q0 33 27 79q25 41 76 41
q25 0 51 -14.5t26 -47.5q-6 -45 -14 -95q-23 -128 -23 -203q0 -26 2 -51q10 -82 34 -121q36 -65 90 -65q94 0 212 111q291 274 630 1041q152 344 277 700q11 81 32 318q50 428 93 647q15 106 48 166.5t71 60.5q43 0 69 -99q15 -42 15 -165q0 -385 -186 -864
q-18 -164 -37 -321q-37 -306 -63 -608q-24 -280 -24 -588v-429v-105q0 -206 10.5 -398.5t66.5 -546.5q30 -177 105 -351q43 -98 43 -142l-1 -16q-13 -69 -57 -69zM82 960h-2q-29 0 -60 30q-17 23 -17 53q0 31 27.5 88t100.5 110q-10 -27 -10 -43v-10q0 -15 26 -31
q33 -16 33 -57q0 -34 -20 -89q-8 -17 -28.5 -34t-49.5 -17z" />
    <glyph glyph-name="jl" unicode="jl" horiz-adv-x="1674" 
d="M-1098 -2702q-121 0 -197 76q-78 85 -78 245q0 230 114 478.5t311 513.5t423 535l30 37q167 202 291 350q179 211 304 371q39 48 39 87q0 18 -5 42q-31 161 -70 249q-15 -1 -25 -4t-16 -3q-11 0 -16 12q-9 20 -9 116q0 91 41 116q9 6 20 6q48 0 70 -55q10 -28 18.5 -60.5
t18.5 -54.5q32 -99 61 -224q10 -49 22 -49q13 0 41 37q334 452 515.5 824t271.5 707q0 10 6 58q24 269 45 445q51 428 94 647q15 106 47.5 166t68.5 61q46 0 72 -99q14 -40 14 -148q0 -193 -48.5 -461.5t-154.5 -547.5l-31 -281q-35 -286 -56 -552q-19 -234 -19 -603l1 -207
q0 -96 -1 -175l-1 -105q0 -206 11 -398.5t67 -546.5q31 -187 105 -351q43 -98 43 -142l-1 -16q-14 -69 -57 -69q-32 0 -53 49q-99 279 -158 787.5t-62 1147.5q0 598 43 1067q-216 -626 -746 -1333q-41 -54 -41 -118q0 -17 2 -35q7 -83 7 -176q0 -459 -146 -970
q-124 -418 -327 -730.5t-445 -524.5q-118 -103 -239 -148q-115 -43 -215 -43zM-1100 -2602q68 0 169.5 49.5t212.5 143.5q232 195 420.5 493.5t305.5 693.5q154 526 154 960l-1 65q0 57 -12 57t-260 -308q-141 -176 -337 -408q-231 -268 -427 -543q-422 -591 -422 -985
q0 -66 26 -120q20 -43 38 -61t56.5 -27.5t76.5 -9.5zM-43 863h-2q-28 0 -60 30q-17 23 -17 52q0 31 27.5 88.5t100.5 110.5q-10 -27 -10 -43v-10q0 -15 26 -31q32 -18 32 -58q0 -33 -19 -88q-8 -18 -28.5 -34.5t-49.5 -16.5z" />
    <glyph glyph-name="kl" unicode="kl" horiz-adv-x="2543" 
d="M20 -42l1 113q-17 -27 -17 -76v-17q0 -14 16 -20zM1476 127q-110 -63 -234 -111q-278 -109 -555 -154q-208 -34 -376 -34q-104 0 -153 10l-24 3q-1 -146 -5 -270q-5 -114 -5 -226q3 -325 30 -647q16 -143 66 -268q11 -32 11 -42q0 -20 -15 -34q-20 -20 -49 -20
q-2 0 -20 0.5t-39 33.5q-34 103 -52 314q-36 409 -36 1112v72q-71 21 -110 80q-20 40 -20 83q0 20 4 41q20 130 133 320q19 817 62 1447q35 520 98 971q-47 33 -47 100q0 17 9.5 73t113.5 209q44 67 86 67q39 0 39 -60q0 -16 -3 -36q-177 -826 -228 -2576
q121 164 270.5 299.5t311.5 198.5q15 6 32 6q49 0 74 -38q18 -29 18 -62q0 -40 -9 -88q-22 -37 -62 -37q-8 0 -40 5.5t-52 60.5q-129 -65 -248 -189q-171 -177 -301 -387q-1 -82 -4 -173q-5 -137 -7 -254q128 -28 255 -28q150 0 391 39l13 1q261 39 487 149q99 48 189 106
q-1 85 -1 175q0 373 18.5 681.5t55.5 677.5q16 163 21 173q16 166 24 272q51 428 94 647q15 106 48 166.5t71 60.5q43 0 69 -99q15 -42 15 -165q0 -385 -186 -864q-18 -164 -37 -321q-37 -306 -63 -608q-24 -280 -24 -588v-133q56 43 108 90q14 13 25 13q27 0 27 -37
q0 -18 -14 -30q-69 -60 -146 -113q1 -359 7 -554q6 -250 40 -511q5 -41 20 -109q39 -179 119 -184q216 12 540 804q137 336 243 686q7 19 26 19q12 0 21.5 -7.5t9.5 -20.5v-5q-107 -369 -247 -709q-179 -436 -354 -662q-122 -158 -244 -163q-94 3 -143 96
q-129 240 -142 1255z" />
    <glyph glyph-name="ll" unicode="ll" horiz-adv-x="1686" 
d="M1315 -1793q-31 0 -52 48q-100 287 -167 848q-72 593 -72 1237q0 486 31 876q-76 -401 -165 -830q-267 -1288 -474 -1525q-47 -53 -99 -53q-152 0 -217 277q-50 240 -73 546q-27 364 -27 714q0 295 18.5 576.5t56.5 650.5q13 131 20 169l1 4l25 272q50 428 93 647
q16 113 52 174q31 53 65 53q5 0 26 -4t45 -95q6 -17 9 -33q6 -43 6 -132q0 -385 -186 -864q-19 -172 -38 -335q-37 -302 -63 -601q-23 -268 -23 -560q0 -341 17 -644q13 -244 54 -500q17 -101 44 -157q46 -99 96 -99q22 0 55 34q63 71 135 257q157 417 340 1312
q95 468 174 889q46 243 85 438q10 80 12 84l9 89q6 67 15 183q52 428 94 647q17 82 50 148q35 71 74 71q35 0 64 -91q13 -35 13 -110q0 -316 -153 -872q-28 -108 -47 -190q-10 -90 -21 -178q-37 -306 -63 -608q-24 -280 -24 -588l1 -261q0 -378 15.5 -656t79.5 -681
q31 -185 105 -350q21 -51 34 -89q9 -28 9 -54l-1 -16q-13 -68 -58 -68z" />
    <glyph glyph-name=".notdef" horiz-adv-x="1024" 
d="M100 0v1434h824v-1434h-824zM150 50q353 159 724 0v1334q-384 -118 -724 0v-1334zM419 334l57 58q11 10 20 10q10 0 22 -11l56 -60q9 -11 9 -20q0 -11 -10 -22l-56 -62q-14 -14 -21 -14q-11 0 -20 10l-61 71q-7 9 -7 18q0 10 11 22zM413 1191q53 30 112 30
q92 0 148 -47.5t56 -127.5q0 -49 -23 -98.5t-87 -129.5q-63 -80 -99 -132t-36 -99q0 -38 24 -133h-32q-35 97 -35 148q0 76 81.5 218t81.5 217q0 57 -33 90t-91 33q-8 0 -16 -1l32 -51q7 -12 5 -21q-2 -11 -14 -20l-66 -50q-17 -11 -24 -10q-10 2 -17 14l-47 81q-5 10 -3 19
q1 10 28.5 32.5t54.5 37.5z" />
    <glyph glyph-name=".null" horiz-adv-x="0" 
 />
    <glyph glyph-name=".null" horiz-adv-x="0" 
 />
    <glyph glyph-name="nonmarkingreturn" horiz-adv-x="508" 
 />
    <glyph glyph-name="space" unicode=" " horiz-adv-x="1494" 
 />
    <glyph glyph-name="space" unicode="&#xa0;" horiz-adv-x="1494" 
 />
    <glyph glyph-name="exclam" unicode="!" horiz-adv-x="1091" 
d="M547 484q-17 0 -32 24q19 114 100 2132q12 99 35 100q65 -14 74 -91q-142 -2078 -162 -2159q-8 -6 -15 -6zM543 -219q57 0 57 80v9q0 45 -26 66t-57 21q-42 0 -60.5 -20.5t-18.5 -43.5q0 -51 44 -88q29 -24 61 -24z" />
    <glyph glyph-name="quotedbl" unicode="&#x22;" horiz-adv-x="838" 
d="M375 1710q-5 0 -11 2q-12 9 -21 43q-4 15 -4 35q0 35 11 86q7 46 7 92q0 86 -22 172q-12 36 -12 64q0 45 31 69l7 1q53 -1 71 -67q18 -72 18 -166q0 -124 -36 -274q-15 -57 -39 -57zM606 1746q-5 0 -10 3q-9 9 -13 41q-1 7 -1 15q0 34 17 93q16 73 16 148q0 45 -6 91
q-4 26 -4 46q0 50 31 72l6 1q43 -5 51 -66q5 -35 5 -75q0 -142 -57 -320q-17 -49 -35 -49z" />
    <glyph glyph-name="numbersign" unicode="#" horiz-adv-x="2197" 
d="M643 349q31 163 65 363q-562 0 -578 7q-43 16 -43 34q0 28 61 41q314 -10 572 -14q43 260 89 579q16 38 62 48q81 0 81 -77q-66 -297 -123 -551h115q110 0 207 1q46 268 96 594q17 39 53 47q82 0 82 -71l-1 -7q-67 -302 -125 -560q388 10 538 49q39 -2 60 -11
q27 -10 27 -24l-1 -5q-9 -74 -58 -74q-8 0 -17 2q-227 -5 -565 -7q-44 -196 -83 -365q265 3 592 14q42 -8 58 -30q4 -6 4 -11q0 -17 -43 -34q-19 -8 -627 -9q-82 -353 -139 -582q-2 -58 -67 -58l-23 2q-16 0 -29 35q80 173 171 603h-339q-85 -362 -144 -596q-23 -56 -79 -56
h-8q-21 1 -21 29q0 21 11 56q70 148 155 568q-311 1 -525 6q-9 -2 -17 -2q-35 0 -50 37q-9 21 -9 42q0 14 27 24q20 9 59 10q149 -38 529 -47zM814 712q-44 -195 -83 -365q89 -1 190 -1q71 0 148 1q34 165 70 366q-152 -1 -325 -1z" />
    <glyph glyph-name="dollar" unicode="$" horiz-adv-x="1808" 
d="M624 1073q17 399 35 876q-32 -6 -57 -15q-53 -17 -113 -60q-131 -87 -158 -217q-4 -23 -4 -45q0 -53 25.5 -121t100.5 -179q82 -121 171 -239zM613 -445q23 -1 45 -1q89 0 178 14q190 30 315.5 116t136.5 223v10q0 133 -166 362q-149 201 -393 475q-20 23 -39 45
q-37 -602 -77 -1244zM701 973q45 -58 92 -115q250 -310 385 -519q174 -269 174 -425v-10q-12 -161 -161 -267q-210 -143 -536 -143q-22 0 -45 1q-14 -221 -28 -447q-44 -78 -67 -78q-24 0 -26 86q24 97 51 444q-69 7 -149 21q-157 27 -307 136q-74 59 -84 133q-2 20 -2 40
q0 50 17 96q15 42 33 74.5t32 52.5l14 19q25 18 45 18h12t15 -15l1 -5q0 -14 -22 -35l-12 -17q-72 -101 -72 -190q0 -14 2 -28q6 -53 61 -96q135 -98 328 -132q46 -8 92 -13q34 465 72 1327q-176 210 -273 354q-148 221 -148 374q0 27 4 53q29 153 184 256q126 83 279 113
q7 189 14 389q8 42 40 61q13 4 23 4q44 0 50 -63q-11 -186 -23 -378q24 2 48 2q126 0 232 -49q73 -34 123.5 -96.5t65.5 -151.5q0 -34 -19 -53q-15 -15 -32 -15q-5 0 -18 3t-21 42q-11 75 -40.5 121t-89.5 73q-88 41 -197 41q-28 0 -57 -2z" />
    <glyph glyph-name="percent" unicode="%" horiz-adv-x="1905" 
d="M1338 -658q-45 0 -90 16q-142 51 -216 154q-43 67 -43 121q0 66 62 113q48 37 144 74q102 43 102 70q0 22 -36 22q-107 0 -496 -211q-97 -57 -258 -114q-94 -33 -159 -33q-101 0 -130 81q-7 20 -7 41t7 43q58 90 156 362.5t280 801.5t319 1216q14 44 14 66q0 8 -2 13
q-4 12 -28 12q-30 0 -90 -19q-217 -55 -461 -152q-78 -31 -235 -137q-114 -79 -114 -133q0 -7 2.5 -13.5t6.5 -12.5t17 -6q29 0 104 24q113 34 164 34q108 0 144 -101q16 -47 16 -96q0 -112 -69 -227q-51 -82 -123 -108q-22 -8 -47 -8q-27 0 -57 9q-78 32 -111 126
q-27 76 -27 203q0 51 7 87h-8q-51 0 -69 50q-7 20 -7 40q0 89 137 181q195 129 412 206q290 102 512 128q69 -15 69 -86q-206 -750 -409 -1361q-89 -229 -379 -1143q-2 -7 -2 -14q0 -36 54 -36q47 0 98 19q128 45 250 112q253 137 392 187q77 27 127 27q68 0 86 -50
q7 -19 7 -36q0 -34 -28 -59q129 -121 175 -250q12 -34 12 -66q0 -46 -24 -89q-33 -50 -83 -68q-29 -10 -68 -10zM268 1293q67 0 125 90q32 51 47 112q12 48 12 88t-12 73q-14 40 -41 51q-19 8 -46 8q-12 0 -40.5 -3t-103.5 -27q-66 -19 -91 -22q39 -15 39 -52
q0 -20 -8.5 -50t-8.5 -65q0 -51 20 -109q33 -94 108 -94zM1339 -599q11 0 21 1q50 0 80 49q14 24 14 53q0 26 -11 56q-32 91 -83 123q-78 46 -78 85q0 18 16 37q-26 -14 -154 -71q-97 -46 -97 -109q0 -5 5 -30q22 -64 104 -124q99 -70 183 -70z" />
    <glyph glyph-name="ampersand" unicode="&#x26;" horiz-adv-x="3395" 
d="M3547 -1355h-2q-34 0 -79 57q-156 226 -287 472q-71 133 -144 271q-126 243 -252.5 467t-252.5 389q-22 -69 -36 -136q-18 -93 -57.5 -198t-142.5 -237q-167 -220 -512 -308q-99 -27 -199 -27q-83 0 -218 30t-300 186l-1 1q-307 318 -307 679q0 44 5 89q22 190 108 370
q160 331 541 744q-126 60 -200 176q-106 165 -106 382q0 94 29 219.5t130 249.5q65 75 162.5 134t209.5 73q23 3 47 3q88 0 175 -43q128 -74 181 -222q25 -72 25 -152q0 -298 -354 -696q-310 -342 -499 -599q-303 -411 -303 -738q0 -140 58.5 -309t199.5 -304
q194 -178 433 -178q11 0 73 2t167 31q149 36 224 80t171 174q191 254 191 494q0 52 -10 100q-107 121 -280.5 204t-360.5 113q-48 5 -48 56q0 54 51 69q25 3 51 3q115 0 267 -61t306 -179t249 -256q97 -130 195.5 -321t198.5 -405q223 -477 307 -574q41 -49 86 -93
q65 -64 120 -138q34 -52 34 -90q0 -6 -4 -29.5t-40 -24.5zM1501 1596l41 45l60 66q282 309 333 456q25 84 25 161q0 67 -30.5 162t-124.5 150q-64 36 -143 36q-167 0 -319 -180q-85 -100 -122 -245q-18 -76 -18 -156q0 -182 70 -265q36 -43 84 -81q34 -28 71 -63t73 -86z
" />
    <glyph glyph-name="quotesingle" unicode="'" horiz-adv-x="710" 
d="M375 1710q-5 0 -11 2q-12 9 -21 43q-4 15 -4 35q0 35 11 86q7 46 7 92q0 86 -22 172q-12 36 -12 64q0 45 31 69l7 1q53 -1 71 -67q18 -72 18 -166q0 -124 -36 -274q-15 -57 -39 -57z" />
    <glyph glyph-name="parenleft" unicode="(" horiz-adv-x="1128" 
d="M604 -607q-68 0 -135 117q-258 368 -367 963q-58 314 -58 635q0 1021 612 1911q36 36 70 36q33 0 57 -22q7 -17 7 -33q0 -38 -41 -70q-438 -576 -559 -1195q-68 -308 -68 -699q0 -405 87 -779.5t222.5 -555.5t177.5 -224q23 -31 23 -51q0 -23 -28 -33z" />
    <glyph glyph-name="parenright" unicode=")" horiz-adv-x="1128" 
d="M230 3055q68 0 135 -117q258 -368 367 -963q58 -314 58 -635q0 -1021 -612 -1911q-36 -36 -70 -36q-33 0 -57 22q-7 17 -7 33q0 38 41 70q438 576 559 1195q68 308 68 699q0 405 -87 779.5t-222.5 555.5t-177.5 224q-22 31 -22 51q0 23 27 33z" />
    <glyph glyph-name="asterisk" unicode="*" horiz-adv-x="1216" 
d="M619 882q-16 0 -27 10.5t-11 26.5q-10 144 -18 246q-184 -170 -226 -244q-9 -22 -35 -22q-16 0 -27.5 11.5t-11.5 27.5q0 54 239 277q-223 0 -377 -21q-16 0 -28 11.5t-12 27.5t10.5 27t24.5 11q155 23 350 23q-117 65 -174 86q-31 7 -31 34q0 42 34 42q13 0 29 -7
q86 -30 222 -114q-11 105 -28 177q-9 36 -12 38q-5 10 -5 20q0 37 40 40q10 0 20 -5q37 -26 65 -278l200 173q6 5 26 9q17 0 28 -11.5t11 -26.5q0 -16 -14 -31q-100 -84 -174 -149l256 -12q16 0 27.5 -11t11.5 -29q0 -16 -12 -27t-31 -11q-121 6 -218 10q125 -85 178 -124
q18 -16 18 -34q0 -17 -13 -29t-30 -12q-16 0 -24 8q-68 51 -230 160l19 -259q0 -16 -12 -27.5t-28 -11.5z" />
    <glyph glyph-name="plus" unicode="+" horiz-adv-x="1249" 
d="M622 -16q-15 0 -27 26q6 95 6 196q0 116 -8 239q-110 -3 -188 -3q-45 0 -139.5 1.5t-124.5 17.5q-23 11 -23 30t23 47q57 13 164 13q115 0 288 -15q-10 167 -10 281q0 100 8 159q15 14 36 14t47 -14q23 -57 23 -233q0 -98 -5 -209q130 -13 255 -13q83 0 164 6
q28 -15 28 -30q0 -16 -33 -32q-213 -17 -418 -17q0 -60 -32 -438q-18 -26 -34 -26z" />
    <glyph glyph-name="comma" unicode="," horiz-adv-x="711" 
d="M379 -425q-10 0 -21 7q-26 19 -26 58q0 46 35 117q63 133 64 193q-29 51 -29 84l1 9q0 105 81 127q21 5 38 5h9q60 -20 60 -95q0 -15 -2 -33q-16 -194 -156 -423q-32 -49 -54 -49z" />
    <glyph glyph-name="hyphen" unicode="-" horiz-adv-x="1442" 
d="M388 565q-139 0 -187 27q-23 19 -23 37q0 19 22 37q26 10 73 10q40 0 94 -7q112 -8 218 -8q52 0 103 2q203 5 252 5q24 0 29 -36l1 -9q0 -28 -34 -31q-4 1 -14 1q-30 0 -182 -9q-218 -19 -352 -19z" />
    <glyph glyph-name="hyphen" unicode="&#xad;" horiz-adv-x="1442" 
d="M388 565q-139 0 -187 27q-23 19 -23 37q0 19 22 37q26 10 73 10q40 0 94 -7q112 -8 218 -8q52 0 103 2q203 5 252 5q24 0 29 -36l1 -9q0 -28 -34 -31q-4 1 -14 1q-30 0 -182 -9q-218 -19 -352 -19z" />
    <glyph glyph-name="period" unicode="." horiz-adv-x="1303" 
d="M473 34q-50 0 -73 48q-11 24 -11 49q0 66 76 90q27 8 46 8q61 0 61 -76q0 -64 -49 -101q-24 -18 -50 -18z" />
    <glyph glyph-name="slash" unicode="/" horiz-adv-x="1582" 
d="M37 -584q-30 0 -30 38q0 24 13 64q212 283 1395 3313q24 38 73 42q78 -10 78 -75q0 -10 -2 -21q-642 -1498 -1425 -3314q-70 -47 -102 -47z" />
    <glyph glyph-name="zero" unicode="0" horiz-adv-x="1197" 
d="M292 -449q-93 0 -161 80q-131 162 -131 524q0 402 194 922q85 226 192 414q70 120 130 213l-5 51h37l28 42q59 89 86 121q14 12 32 12q12 0 36 -10.5t40 -42.5q5 -11 5 -21q0 -22 -20 -44q-24 -33 -62 -90q69 -20 125 -64q107 -89 160 -237q69 -189 69 -428
q0 -124 -18 -249q-60 -375 -253 -737q-210 -394 -438 -451q-23 -5 -46 -5zM316 -365q9 0 18 2q107 23 200.5 125.5t182 267.5t149.5 355q104 324 104 619q0 43 -4.5 151.5t-51.5 239.5q-55 134 -142 205q-51 42 -117 54q-88 -130 -148 -232q-261 -449 -351 -807
q-56 -238 -56 -460q0 -143 23 -256q30 -141 82.5 -202.5t110.5 -61.5z" />
    <glyph glyph-name="one" unicode="1" horiz-adv-x="953" 
d="M339 -539q-20 0 -40 13q-33 23 -33 88v4q11 719 115.5 1339.5t292.5 1021.5q-473 -485 -638 -958l-10 -10q-7 -7 -13 -7q-13 0 -13 29v8l46 106q45 105 136 269q227 408 544 703q21 15 34 15q30 0 40 -46l3 -29q-187 -374 -287.5 -1010t-112.5 -1457q-1 -55 -35 -72
q-15 -7 -29 -7z" />
    <glyph glyph-name="two" unicode="2" horiz-adv-x="1458" 
d="M1253 -399q-17 0 -32 13q-231 201 -574 206l-82 1q-287 0 -471 -38q-94 5 -94 53q0 30 36 76l102 121q348 458 589 871q331 579 331 867q0 36 -5 62q-26 103 -118 131q-30 9 -64 9q-70 0 -155 -39t-198 -171q-81 -199 -148 -253q-23 -15 -48 -28q-19 -9 -35 -9
q-6 0 -15 3q-17 6 -17 44l1 15l22 45q59 124 166 249q104 120 230 174q79 34 169 34q71 0 148 -26q127 -52 155 -180q9 -44 9 -92q0 -87 -28 -187q-76 -282 -314 -698q-179 -306 -351 -551q-239 -373 -319 -475q233 34 432 34q442 0 721 -165q12 -19 12 -37q0 -42 -39 -56
q-8 -3 -16 -3z" />
    <glyph glyph-name="three" unicode="3" horiz-adv-x="1262" 
d="M257 -405q-2 0 -52 0.5t-120 62.5q-85 78 -85 234q0 101 35 233q13 31 47 31q24 0 44 -14.5t20 -37.5v-8q-55 -162 -55 -252q0 -5 1 -52.5t41 -81.5q43 -39 128 -39q191 0 401 207q123 121 215 291q134 248 134 559q0 158 -45 263q-57 130 -166 178q-81 35 -184 35
q-29 0 -62 -4q-55 -8 -60 -8q-31 0 -44 20q-5 8 -5 16q0 23 31 52l36 36q36 36 85 92.5t91 123.5q62 100 62 173q0 55 -33 115q-28 51 -80 68q-15 5 -31 5q-44 0 -101 -33q-64 -39 -154 -174q-33 -121 -87 -194l-19 -26q-3 -11 -19 -18.5t-35 -7.5q-20 0 -31.5 11.5
t-11.5 32.5l1 10l13 38q13 37 39 94q88 186 228 270q68 36 141 36q133 0 207 -98q51 -66 51 -158q0 -103 -56 -197q-35 -54 -101 -122.5t-117 -100.5q39 4 83 4q30 0 84.5 -2.5t110.5 -27.5q65 -27 126 -71t100 -130q52 -125 52 -300q0 -340 -144 -600
q-99 -179 -234.5 -304.5t-275.5 -185.5q-104 -44 -199 -44z" />
    <glyph glyph-name="four" unicode="4" horiz-adv-x="930" 
d="M642 -561q-5 0 -20 2.5t-21 34.5l56 838l-94 -21q-95 -22 -218 -46q-202 -41 -285 -41q-43 0 -54 11q-6 6 -6 21q0 48 90 314q77 224 174 561t169 754q34 70 90 70q25 0 43.5 -18t18.5 -48q0 -15 -4 -33l-479 -1530q2 -22 66 -22q91 0 299 42l198 45l46 756q0 27 20 37
q10 6 19 6q30 0 30 -38l-74 -1637q0 -29 -25 -45q-19 -13 -39 -13z" />
    <glyph glyph-name="five" unicode="5" horiz-adv-x="1321" 
d="M49 -676q-15 0 -27 8q-22 13 -22 35q0 8 7 28.5t76 41.5q61 8 182 55.5t259.5 153.5t255.5 292.5t173 478.5q30 176 30 306q0 152 -41 240q-38 75 -94 115q-94 68 -221 68q-78 0 -168 -26q-60 -17 -98 -32l-37 -16l-6 -2q-10 -3 -23 -3q-48 0 -48 49l1 11l17 100
q96 543 141 600q38 27 362 76l328 44q20 7 35 7q19 0 28.5 -12t9.5 -28q0 -51 -61 -65l-651 -61l-87 -602q65 16 161 23l41 1q78 0 164 -20q189 -48 279 -223q61 -122 61 -306q0 -115 -25 -262q-60 -308 -187 -511t-278 -319t-282.5 -168t-203.5 -62q-29 -15 -51 -15z" />
    <glyph glyph-name="six" unicode="6" horiz-adv-x="1106" 
d="M48 -611q-2 0 -14.5 0.5t-26.5 20.5q-7 10 -7 24q0 13 6 28l45 65q45 64 122 155q-15 35 -25 73q-37 138 -37 298q0 4 0.5 88.5t33.5 248.5q55 267 168.5 560.5t242.5 545.5t233 393q27 29 48 29q3 0 15.5 -3.5t21.5 -29.5q3 -10 3 -20q0 -17 -8 -35q-5 -70 -35.5 -118
t-72.5 -91q-35 -38 -70 -85q-136 -254 -263 -570q-229 -570 -229 -983q0 -123 26 -221l5 -17q71 74 160 143q184 143 351 143q20 0 40 -2q131 -23 166 -129q9 -34 9 -69q0 -69 -35 -139q-33 -71 -91.5 -131.5t-139 -99t-176.5 -38.5q-72 0 -133 26q-99 41 -159 138
q-62 -75 -97 -126l-35 -52q-20 -20 -42 -20zM514 -478q73 0 143 37t123.5 91t79.5 111t26 100q0 49 -30 74q-25 20 -71 20q-72 0 -162 -43t-183 -115.5t-168 -151.5q24 -44 54 -75q34 -32 84 -40t104 -8z" />
    <glyph glyph-name="seven" unicode="7" horiz-adv-x="1238" 
d="M46 -724q-46 0 -46 54q0 20 6 47l529 1305q-81 5 -134 5h-50q-68 -2 -110 -19q-29 -9 -48 -10q-121 6 -121 47q0 16 23 31q32 21 88 21h376l455 1132l-523 -73q-43 -25 -129 -41q-25 -4 -49 -4q-61 0 -118 26q-21 7 -34 25q-9 13 -9 27q0 5 3 17.5t35 29.5l137 12
q475 40 663 40q92 0 98 -12q-3 -55 -217 -611l-220 -568l192 -4q9 -10 9 -21q0 -37 -44 -49l-182 -1l-504 -1352q-14 -33 -48 -48q-15 -6 -28 -6z" />
    <glyph glyph-name="eight" unicode="8" horiz-adv-x="1397" 
d="M463 -580q-96 0 -169 58q-57 44 -91 122q-20 52 -20 119q0 51 12 111q23 147 83 333q59 173 141 367q-120 70 -202 129.5t-141 138.5q-76 110 -76 231q0 115 52 218q113 213 322 314q264 118 584 118h10q38 69 74 130t61 101l24 39q36 33 66 33q3 0 21 -2t29 -30
q4 -9 4 -19q0 -20 -15 -43l-113 -206l52 -3q65 -15 65 -50q0 -28 -73 -49l-4 5q-4 5 -13.5 11t-24.5 10.5t-37 5.5q-2 -5 -5 -9q-310 -566 -521 -1045q7 -5 15 -9l25 -17q137 -85 244 -201.5t132 -286.5q3 -30 3 -59q0 -146 -77.5 -280t-210.5 -215q-111 -70 -226 -70z
M461 622q79 176 165 352q67 141 124 266q91 201 179 369q-30 2 -61 2q-115 0 -258 -27.5t-281 -114t-213 -244.5q-36 -81 -36 -170q0 -9 2 -62.5t61 -140.5q38 -51 101.5 -95t141.5 -90zM465 -521q80 0 172 55q110 70 181 210q59 117 59 242q0 23 -2 46q-19 137 -109.5 236
t-237.5 191l-11 7q-233 -532 -233 -770q0 -70 10 -97q25 -58 60 -85q46 -35 111 -35z" />
    <glyph glyph-name="nine" unicode="9" horiz-adv-x="1361" 
d="M199 -481q-76 0 -131 66q-44 56 -61 120l-6 22l-1 14q0 53 49 53t49 -47l5 -17q5 -17 15 -39q32 -68 76 -73q14 -5 30 -5q35 0 91.5 29t144 143t192 338t222.5 588q102 315 154 536q-49 -62 -109 -129q-111 -126 -246.5 -220t-254.5 -94q-77 0 -117 47q-38 49 -38 133
q0 83 34 183q40 126 116.5 248t178.5 206q142 111 292 153q48 13 96 13q39 0 79 -9q52 -16 85.5 -42.5t49.5 -48.5l16 -22l1 -10q0 -33 -50 -60q-27 -15 -46 -15q-17 0 -21 11l-7 14q-6 13 -20.5 31.5t-38.5 35.5q-25 10 -60 10t-102.5 -14.5t-211.5 -124.5
q-85 -69 -156 -181q-104 -165 -132 -321q-4 -26 -4 -51q0 -32 10.5 -73t66.5 -53l17 -1q85 0 190 73q122 88 223.5 220t159.5 237l59 105q9 23 40 23q22 0 41 -13q13 -11 13 -28q0 -8 -3 -18l-24 -109q-24 -109 -70.5 -285.5t-115.5 -387.5t-158 -425t-198.5 -391
t-239.5 -276q-46 -35 -97 -53q-42 -16 -77 -16z" />
    <glyph glyph-name="colon" unicode=":" horiz-adv-x="710" 
d="M463 34q-44 0 -64 48q-10 24 -10 49q6 93 49 93q8 0 18 -3q24 8 40 8q54 0 54 -76q0 -64 -43 -101q-21 -18 -44 -18zM481 495q-37 0 -54 43q-8 21 -8 44q0 59 56 81q20 7 34 7q45 0 45 -68q0 -58 -36 -91q-18 -16 -37 -16z" />
    <glyph glyph-name="semicolon" unicode=";" horiz-adv-x="711" 
d="M472 401q-49 0 -72 48q-11 24 -11 49q0 66 76 90q26 8 46 8q60 0 60 -76q0 -64 -48 -101q-24 -18 -51 -18zM379 -425q-10 0 -21 7q-26 19 -26 58q0 46 35 117q63 133 64 193q-29 51 -29 84l1 9q0 105 81 127q21 5 38 5h9q60 -20 60 -95q0 -15 -2 -33q-16 -194 -156 -423
q-32 -49 -54 -49z" />
    <glyph glyph-name="semicolon" unicode="&#x37e;" horiz-adv-x="711" 
d="M472 401q-49 0 -72 48q-11 24 -11 49q0 66 76 90q26 8 46 8q60 0 60 -76q0 -64 -48 -101q-24 -18 -51 -18zM379 -425q-10 0 -21 7q-26 19 -26 58q0 46 35 117q63 133 64 193q-29 51 -29 84l1 9q0 105 81 127q21 5 38 5h9q60 -20 60 -95q0 -15 -2 -33q-16 -194 -156 -423
q-32 -49 -54 -49z" />
    <glyph glyph-name="less" unicode="&#x3c;" horiz-adv-x="1204" 
d="M1025 22q-213 97 -339 160.5t-292 142t-297 165.5q-24 18 -24 43q0 33 38 78q290 249 901 470q33 17 61 19q29 -3 45 -48q3 -14 3 -24q0 -32 -32 -37q-12 -5 -31 -16q-835 -336 -835 -417q0 -39 269 -169q251 -123 412.5 -198.5t172.5 -109.5q5 -16 5 -30q0 -24 -57 -29z
" />
    <glyph glyph-name="equal" unicode="=" horiz-adv-x="941" 
d="M298 565q-139 0 -187 27q-23 19 -23 37q0 19 22 37q26 10 73 10q40 0 94 -7q112 -8 218 -8q52 0 103 2q203 5 252 5q24 0 29 -36l1 -9q0 -28 -34 -31q-4 1 -14 1q-30 0 -182 -9q-218 -19 -352 -19zM304 231q-139 0 -187 27q-23 19 -23 37q0 19 22 37q26 10 73 10
q40 0 94 -7q112 -8 218 -8q52 0 103 2q203 5 252 5q24 0 29 -36l1 -9q0 -28 -34 -31q-4 1 -14 1q-30 0 -182 -9q-218 -19 -352 -19z" />
    <glyph glyph-name="greater" unicode="&#x3e;" horiz-adv-x="1204" 
d="M169 1100q213 -97 339 -160.5t292 -142t297 -165.5q24 -18 24 -43q0 -33 -38 -78q-290 -249 -901 -470q-33 -17 -61 -19q-29 3 -45 48q-3 14 -3 24q0 32 32 37q12 5 31 16q836 336 836 417q0 39 -269 170q-252 122 -413.5 197.5t-172.5 109.5q-4 16 -4 30q0 24 56 29z
" />
    <glyph glyph-name="question" unicode="?" horiz-adv-x="2011" 
d="M621 631h-5q-17 0 -28 14q-3 5 -4 11q0 8 5 18l98 146q99 146 235 379q337 576 440 1017q45 205 45 377q0 524 -436 596q-21 3 -45 3q-69 0 -212 -28q-126 -23 -184 -23q-75 0 -75 48q0 20 10 35q20 26 196 42q114 11 214 11q67 0 127 -5q222 -36 346 -177
q155 -179 155 -499q0 -388 -232 -886q-225 -479 -524 -913l-104 -153q-9 -12 -22 -13zM532 -162q-50 0 -73 48q-11 24 -11 49q0 66 76 90q27 8 46 8q61 0 61 -76q0 -64 -49 -101q-24 -18 -50 -18z" />
    <glyph glyph-name="at" unicode="@" horiz-adv-x="3359" 
d="M906 -557q-135 0 -267 30q-290 65 -457 293q-180 260 -180 559q0 245 106 481q116 258 330.5 469t502.5 342q231 104 449 154q232 53 426 53q197 0 430 -51q268 -72 440.5 -226.5t213.5 -364.5q8 -51 8 -102q0 -220 -151 -449q-85 -130 -197 -239q-170 -166 -362 -255
q-144 -66 -264 -66q-52 0 -102 13q-161 47 -222 161q-47 86 -47 200q0 48 11 106q-70 -47 -162 -87q-131 -59 -256 -59q-146 0 -228 91q-49 59 -49 142q0 71 37 144q142 270 404 365q124 44 251 44q154 0 261 -67q57 -35 85 -95q16 -35 16 -72q0 -29 -10 -60q0 -15 -21 -24
q-17 -6 -36 -6q-5 0 -20.5 1t-31.5 18q-12 11 -12 32q0 9 3 20.5t2 21.5q0 10 -7 24q-13 44 -50 75q-25 25 -75 42q-28 10 -76 10q-37 0 -86 -6q-125 -18 -265.5 -110t-223.5 -254q-23 -52 -23 -93q0 -3 1 -25.5t20.5 -45.5t64.5 -37q29 -9 68 -9q104 0 205 57
q132 75 234 185l36 39q33 32 68 32q3 0 23.5 -1.5t36.5 -39.5q5 -13 5 -30q0 -34 -20 -81l-19 -40q-60 -133 -60 -245q0 -129 82 -193q65 -50 171 -50q133 0 258 54q169 78 326 230q204 204 267 426q21 74 21 155q0 63 -13 131q-33 164 -177 295t-385 197q-168 46 -369 46
q-90 0 -294.5 -19.5t-558.5 -175.5q-267 -122 -466 -318q-332 -327 -401 -752q-14 -82 -14 -163q0 -84 22 -206t120 -263q73 -100 170 -159q179 -109 454 -109q10 0 87 0.5t201 18.5q162 25 292.5 72t208.5 87l79 40q32 16 54 16q17 0 29 -9q21 -16 21 -43q0 -8 -4.5 -32
t-49.5 -47l-85 -33q-85 -33 -226 -73q-301 -87 -578 -87z" />
    <glyph glyph-name="A" unicode="A" horiz-adv-x="3946" 
d="M68 -2553q-14 0 -36 7q-52 17 -52 83q0 203 451 1404q8 25 16.5 46t17.5 44q3 30 8 62q7 42 9 79q0 250 -63 485q-48 176 -134 299q-18 26 -53 59q-206 -15 -240 -15q-53 0 -86 7q-35 4 -58 37q-12 17 -12 45q0 8 2 15q10 23 21 31l1 2q92 79 191 80q111 0 206 -83
q63 -12 115 -12q28 0 57 5q227 10 464 55q117 304 248 648q98 260 161 423q710 1827 1530 2490q157 129 301 129q121 0 189 -120q21 -55 23 -144q0 -33 -24 -73q-14 -21 -43 -38q-17 -10 -38 -10q-15 0 -37 6t-53 59q-13 24 -13 55q0 30 11 72q9 29 9 51q0 39 -44 39
q-67 0 -191 -99q-386 -314 -770 -963.5t-736 -1558.5l-373 -960q311 28 654 78q178 25 633 79q310 34 589 74q-4 272 -4 527q0 332 7 635q20 905 74 1565l19 226q12 47 48 47q22 0 45 -17t32 -49q9 -25 18 -95q7 -43 7 -75q0 -31 -4.5 -73.5t-43.5 -42.5
q-91 -1071 -91 -2251q0 -189 2 -381q224 23 567.5 81.5t346.5 58.5q44 0 44 -33q0 -28 -42 -39l-916 -131q0 -149 -1 -284q-1 -72 -1 -148q0 -198 9 -426q17 -355 77 -835q10 -63 39 -129q46 -116 50 -193q0 -36 -31 -67q-28 -26 -57 -26q-8 0 -26 3t-31 76
q-115 940 -139 2012q-318 -46 -676 -91l-484 -63q-513 -71 -744 -101q-293 -747 -453 -1173q-38 -464 -159 -838q-210 -634 -333 -642zM553 -741q73 192 143 394q78 225 157 433q-104 -13 -211 -28q-142 -22 -305 -38q53 -65 100 -204.5t79 -294.5q30 -151 37 -262z" />
    <glyph glyph-name="B" unicode="B" horiz-adv-x="3520" 
d="M-352 -2952q-237 0 -384 109q-100 74 -151.5 183t-51.5 237q0 250 174 499q333 461 948 885q35 824 85 1770q94 1762 247 2836q-63 14 -84 67q-7 19 -7 44q0 47 31.5 137t147.5 274q32 51 66 51q8 0 16 -3q41 -13 41 -67v-5q-99 -509 -167.5 -1172t-115 -1400
t-81.5 -1468q172 1055 368 1673q157 503 328 817q150 270 253 342q125 98 232 107h2q117 0 171 -103q34 -73 34 -175q0 -34 -10 -127t-75 -296q-122 -371 -294.5 -664.5t-348.5 -523.5q341 202 683 233q48 4 94 4q205 0 400.5 -85.5t310.5 -302.5q157 -316 157 -683
q0 -72 -6 -144q232 69 850 245q12 2 21 2q37 0 37 -34q0 -12 -9.5 -30t-39.5 -19l-128 -34q-403 -106 -731 -206q-40 -259 -146 -537t-254 -522q-296 -476 -697 -868t-810 -645q-651 -401 -1106 -401zM362 -907q328 208 671 376q726 356 1492 586q13 111 13 227
q0 106 -16.5 275t-111.5 366q-88 181 -256 266q-132 67 -337 67q-55 0 -116 -5q-183 -13 -362 -94.5t-379 -255.5q-27 -25 -54 -56q-78 -88 -151 -124h-9q-25 0 -49 16q-31 19 -33 70q4 47 39.5 82.5t86.5 71.5l6 3q124 156 263 361q327 480 486 976q74 242 74 399
q0 74 -16 107q-24 47 -31 59q-26 35 -75 35q-20 0 -57.5 -8.5t-98.5 -60.5q-100 -83 -220 -297q-136 -259 -299 -796q-139 -449 -273 -1184t-187 -1462zM-378 -2829q89 0 197 16q361 58 869 369q395 244 787 627.5t679 843.5q134 222 227.5 472.5t136.5 479.5
q-748 -220 -1477 -564q-346 -164 -683 -385l-8 -77q-49 -432 -87 -888q-7 -28 -53 -28q-47 0 -72 35q-14 33 -14 99q0 125 37 333q6 110 13 219q7 102 10 175q-266 -175 -499 -402.5t-397 -457.5q-77 -112 -117.5 -237.5t-40.5 -228.5q4 -100 57 -184.5t130 -139.5
q108 -77 305 -77z" />
    <glyph glyph-name="C" unicode="C" horiz-adv-x="3962" 
d="M1504 -1896q-255 0 -496 97t-442 302q-406 414 -533 1167q-33 212 -33 434q0 306 85.5 750.5t365.5 964.5q229 410 562 735q-35 7 -102 16q-292 35 -337 81l-3 8q-7 13 -7 29q0 7 2.5 17.5t14 23t35.5 20.5q26 15 75 21q13 2 27 2q40 0 98 -17.5t136 -82.5
q93 -19 147 -29q492 454 1102 579q201 39 457 39q366 0 586 -76q157 -55 180 -153q2 -10 2 -20q0 -108 -245 -228q-233 -118 -619 -207q-307 -70 -670 -89q-89 -5 -180 -5q-277 0 -566 44q-345 -325 -581 -751q-272 -507 -378 -1056q-62 -320 -62 -619q0 -214 32 -417
q115 -674 535 -1096q186 -190 414 -290q204 -89 433 -89l55 1q436 27 860 297.5t804 735.5t687 1076q20 32 42 32q2 0 15 -1.5t26 -26.5q6 -12 6 -24q0 -15 -8 -31q-394 -729 -813 -1201.5t-836 -707.5q-452 -255 -873 -255zM1784 2565q79 0 291 11.5t495 76.5
q384 84 607 189l17 9q83 42 134 79q45 32 45 67q0 36 -55 70q-149 94 -579 94q-254 0 -509 -40q-548 -112 -998 -505q281 -51 552 -51z" />
    <glyph glyph-name="D" unicode="D" horiz-adv-x="3277" 
d="M-342 -2724q-254 0 -413 146q-164 154 -164 408q0 149 56 336q50 167 162 330q200 275 441.5 481.5t499.5 381.5l1 79q0 43 2 96q47 1618 188 3911q-80 24 -89 124q-2 21 -2 43q0 82 27 192t62 203t42 104q22 39 72 39q17 0 33 -7q20 -10 20 -32v-8l-48 -789
q-47 -790 -100 -1844q-10 -192 -16 -372q-5 -139 -12 -287q192 981 594 1716q243 431 541 566q141 65 283 65q6 0 84 -2t211 -72q270 -144 427 -504q146 -337 146 -821v-69q-29 -757 -277 -1481l173 32q376 74 669 111h3q26 0 38 -14q7 -8 7 -18q0 -7 -6.5 -20t-45.5 -19
q-312 -33 -864 -144q-186 -508 -480 -988t-690 -898t-889 -739q-374 -236 -686 -236zM384 -552q300 188 632 326t659 237t614 171q262 738 291 1512l1 81q0 288 -61.5 541.5t-178.5 437t-264 261.5q-99 54 -229 75q-34 5 -69 5q-98 0 -198 -42q-257 -117 -492 -531
q-607 -1116 -705 -3074zM-374 -2607q111 0 272.5 43.5t377.5 181.5q469 305 849 698.5t665.5 846t469.5 933.5q-466 -102 -963 -287t-919 -446q-9 -247 -9 -485q0 -253 10 -497q-2 -53 -55 -53q-113 0 -130 240q-2 28 -2 60q0 145 41 377q0 129 3 263
q-140 -91 -297.5 -207.5t-309 -258.5t-271.5 -309q-128 -189 -168 -344q-38 -147 -38 -255v-17q0 -241 157 -377q85 -79 230 -101q42 -6 87 -6z" />
    <glyph glyph-name="E" unicode="E" horiz-adv-x="4650" 
d="M1055 -2869q-294 0 -562 146q-258 148 -377 379q-116 225 -116 498q0 299 80.5 642.5t246.5 664.5q361 675 838 1125t1053 732q-106 25 -266 49l-37 5q-518 64 -801 166q-293 106 -388 297q-39 77 -39 169q0 35 6 73q67 379 500 671q377 254 908 397q467 125 844 125
l56 -1q309 -6 440 -117q77 -66 77 -181q0 -103 -54 -176q-24 -34 -41.5 -46t-43.5 -20q-11 -4 -26.5 -10t-32.5 -6q-58 0 -89 48q-13 21 -13 51q0 17 4 37q13 49 37.5 79.5t49 51t41 42t16.5 52.5q-6 48 -110 69q-110 23 -264 23q-174 0 -396.5 -39t-461 -104.5t-475.5 -167
t-422 -227.5q-186 -123 -314.5 -266t-159.5 -309q-3 -20 -3 -39q0 -78 52 -149q108 -151 318 -212q102 -30 286 -69q305 -63 554 -91q281 -40 350 -45q31 4 56 4q44 0 81 -15.5t50 -42.5q7 -14 7 -24t-7 -17q-27 -24 -78 -41l-51 -16q-339 -172 -666 -421
q-697 -532 -1232 -1475q-171 -309 -261 -640q-92 -339 -92 -609q0 -583 407 -812q269 -144 542 -144q37 0 211 12.5t497 162.5q326 149 660 398.5t641 545.5q593 568 1071 1192q317 426 482 821q9 23 28 23q3 0 14 -1.5t24 -17.5q9 -10 9 -23q0 -7 -2 -14
q-48 -110 -179.5 -331t-344.5 -502t-484.5 -591t-582.5 -609.5t-644.5 -547.5t-674.5 -404t-674 -176q-36 -2 -72 -2z" />
    <glyph glyph-name="F" unicode="F" horiz-adv-x="2620" 
d="M-824 2353h-9q-31 0 -56.5 7t-70.5 25q-12 6 -27 12q-175 61 -207 210l-1 10q0 48 72 89q107 67 483 180q482 147 1220 295q525 102 1128 170.5t1195 75.5q302 -2 579 -33q88 -10 125 -68q9 -16 9 -37q0 -25 -13 -58q-13 -13 -35 -13q-36 0 -123 39q-50 21 -107 40
q-316 27 -653 27q-1000 0 -2086 -213q-580 -116 -1198 -306q-178 -55 -439 -164q-35 -14 -45 -35q-2 -5 -2 -9q0 -17 24 -36.5t56 -22.5q16 -1 33 -1t34.5 1.5t35.5 1.5q50 0 107 -16q72 -28 72 -80q0 -30 -26 -59t-75 -32zM920 -2823h-15q-266 24 -433 472
q-161 426 -214 1186q-16 269 -16 571q0 422 31 909q-104 10 -189 10q-71 0 -165 -11q-164 -19 -305 -96q-63 -32 -97 -32t-51 26q-12 17 -12 38q0 23 14 51q31 49 130 97.5t201 74.5q213 88 391 157q55 21 107 42q104 1140 350 2317q12 35 55 35q57 0 67 -61
q27 -177 27 -269q0 -75 -25 -122.5t-88 -92.5q-77 -430 -149 -909t-109 -852q390 141 807 260q522 145 942 248t657 124q41 0 59 -23q12 -16 12 -32q0 -9 -5.5 -26t-45.5 -23q-9 -1 -20 -1q-20 0 -46.5 4t-54.5 4l-22 -1q-298 -26 -584 -94t-608 -163q-152 -43 -318.5 -89
t-329 -104t-317.5 -118q-68 -26 -134 -50q-7 -82 -10 -157q-2 -56 -6 -113q627 -218 916 -818q186 -412 186 -1001q0 -240 -34 -472q-53 -375 -188 -628q-145 -268 -361 -268zM277 391l5 87q2 55 7 113q-217 -88 -446 -200q86 19 199 19h69q64 0 166 -19zM942 -2741
q81 0 139 42q34 27 70 77q99 136 183 368q112 311 112 760q0 164 -27 447.5t-155 566.5q-103 216 -248 369.5t-305.5 250t-313.5 143.5q-29 -473 -29 -883q0 -294 15 -556q48 -752 195 -1153q81 -210 172 -320q103 -112 192 -112z" />
    <glyph glyph-name="G" unicode="G" horiz-adv-x="3984" 
d="M3490 -2516q-26 0 -45 16q-279 279 -301 876q-3 75 -3 151q0 198 23 447q27 293 116 858q92 557 92 782q0 93 -14 149q-12 44 -26 56q-12 15 -36 15q-23 0 -46 -8q-80 -30 -338 -365q-229 -298 -447 -532q-408 -436 -947 -728q-242 -127 -485 -127q-228 0 -431.5 105
t-350.5 311t-212 497q-39 177 -39 382q0 131 28 384.5t197 681.5q268 659 644 1116t801 728q681 434 1361 434q4 0 143 -0.5t398 -109.5q215 -94 337 -274t122 -423v-4q-6 -65 -56 -93q-28 -15 -55 -15q-22 0 -56.5 15t-36.5 95l3 28q14 113 14 202q0 16 -2 74t-59.5 139.5
t-202.5 157.5q-206 106 -526 106q-658 0 -1312 -423q-409 -264 -774 -710.5t-627 -1088.5q-163 -414 -201 -760q-15 -134 -15 -257q0 -491 228 -809q132 -184 319.5 -284t406.5 -100q210 0 418 109q712 384 1235 1043q83 103 151 191q86 110 211 262q53 67 105 117.5
t106 53.5q69 -1 117 -49q43 -46 58 -112q18 -79 18 -183q0 -67 -7 -143q-25 -282 -88 -659q-25 -157 -49 -323q-87 -567 -87 -959q0 -73 3 -145q13 -377 142 -629q37 -58 95 -96q30 -21 55 -44q21 -28 21 -52q0 -15 -14 -39t-55 -35q-13 -3 -24 -3z" />
    <glyph glyph-name="H" unicode="H" horiz-adv-x="3531" 
d="M413 -2760h-4q-31 0 -54 29q-12 19 -13 29l-1 3q-17 67 -17 351q0 244 8 618q12 426 62 1618q-49 126 -111.5 213.5t-141.5 174.5l-6 7q-259 302 -683 320l-36 -7q-184 -33 -271 -33q-30 0 -54 4q-41 8 -53 46q-3 8 -3 16q0 30 34 64q89 67 366 67q84 0 163 -9
q117 11 292 27q218 18 537 49q63 1423 106 3025q-62 73 -72 153q-2 25 -2 49q0 55 17.5 117.5t44 110t35.5 52.5q28 45 75 45q53 0 53 -51l-20 -411q-19 -410 -48.5 -1395t-59.5 -1682l948 93l1256 121q71 1739 136 2422q14 148 24 194q8 75 44 105q36 14 57 14q14 0 22 -6
q18 -14 18 -42q0 -35 -11 -83q-32 -152 -72 -822l-32 -462q-45 -606 -78 -1309l842 81q23 0 36 -21q10 -15 10 -33q0 -9 -5 -28.5t-46 -36.5q-9 -3 -18 -3q-11 0 -30 7q-27 11 -63 11l-27 -1q-176 -17 -414 -37q-171 -14 -289 -26q-38 -670 -60 -1096q-45 -884 -45 -1690
q1 -169 50 -336q15 -58 15 -69q0 -46 -27 -65q-20 -13 -40 -13q-11 0 -32.5 7.5t-28.5 56.5q-14 115 -14 474q0 283 8 677q19 926 63 2043q-257 -16 -665 -60q-219 -25 -572 -59q-322 -30 -513 -45q-184 -13 -455 -39q-4 -96 -5.5 -162.5t-5.5 -160.5l-20 -594
q200 -547 200 -1279q0 -14 -2 -184t-38 -443q-53 -421 -151 -602q-29 -61 -86 -93q-11 -5 -27 -6zM405 67q2 68 2 140v96q0 73 2 144q4 83 11 301q-116 -9 -263.5 -24t-269 -31t-159.5 -27q133 -49 255.5 -137.5t213.5 -186.5q134 -143 208 -275zM480 -2530q14 0 26 24
q35 77 63.5 202.5t44.5 258.5q40 300 40 650q0 426 -96 852q-33 145 -56 207q-9 -272 -21 -680q-28 -999 -28 -1304v-138q0 -72 27 -72z" />
    <glyph glyph-name="I" unicode="I" horiz-adv-x="2056" 
d="M1376 -2205q-38 0 -80 42q-66 87 -99 213q-52 193 -52 519q0 481 129 1354q74 506 174 1113q83 510 146 981q84 628 84 1016q0 267 -42 444q-29 116 -81.5 207.5t-111.5 112.5q-24 8 -53 8q-52 0 -141 -30.5t-221 -147.5q-132 -123 -266 -320t-254 -432
q-192 -373 -296 -859q-85 -398 -85 -815q0 -93 4 -186q101 -158 119 -303q6 -51 6 -95q0 -143 -60 -201q-28 -28 -60 -28q-30 0 -49 49q-87 381 -87 747q0 74 12.5 329t124 646.5t279.5 714.5q256 486 547 752q251 234 452 234q44 0 86 -12q101 -32 164 -122
q138 -200 138 -690q0 -83 -4 -173q-31 -802 -194 -1849q-70 -426 -145 -837q-107 -569 -177 -1066q-56 -370 -56 -569q0 -100 12 -199q23 -161 57.5 -232.5t68.5 -106.5q25 -28 43 -63q21 -49 21 -83q0 -62 -53 -63z" />
    <glyph glyph-name="J" unicode="J" horiz-adv-x="2335" 
d="M-268 -2749q-131 0 -237 65q-181 119 -254 364q-53 172 -53 380q0 84 19 285t159 536q147 353 430.5 669.5t711.5 537t1006 286.5q148 829 148 1562q0 479 -72 818q-66 313 -187 439q-74 76 -181 76q-114 0 -248 -92q-97 -67 -195 -184t-178 -244q-94 -154 -143.5 -343
t-62.5 -369q86 -175 86 -293q0 -88 -28 -140q-33 -69 -80 -69q-27 0 -36 22q-73 185 -73 381q0 18 3.5 134t73.5 323t184 386q172 273 397 424q100 68 216 99q60 17 122 17q58 0 119 -15q132 -44 210.5 -182.5t122.5 -342.5q95 -422 95 -906q0 -702 -133 -1488q81 2 161 2
q402 0 527 -33q37 -12 37 -48q0 -15 -9.5 -29t-29.5 -14q-18 0 -38.5 14.5t-54.5 21.5q-158 27 -372 27q-110 0 -235 -7q-86 -437 -252 -940q-148 -445 -347 -809t-408 -635q-424 -547 -712 -650q-111 -36 -209 -36zM-304 -2630q92 0 204 36q96 33 272.5 188.5t379.5 418.5
t391.5 620t332.5 790q130 402 225 875q-628 -31 -1159 -348q-604 -362 -924 -1082q-175 -410 -175 -816q0 -197 48 -346q40 -121 99.5 -188t126.5 -105q78 -43 179 -43z" />
    <glyph glyph-name="K" unicode="K" horiz-adv-x="2344" 
d="M225 -2117h-1q-26 0 -52 59q-23 69 -23 219q0 350 54 969l17 203q-55 346 -226 521q-123 132 -246 152q-44 6 -84 6q-44 0 -100 -12t-142 -71q-49 -30 -102 -30q-44 0 -54 23q-2 4 -2 9q0 25 55 67q50 36 110 61q459 392 929 762q48 466 93 920q73 736 125 1219
q-52 33 -52 88q0 11 7 52.5t87 147.5q34 51 76 51q1 0 24.5 -1t24.5 -59q-100 -892 -247 -2312q605 468 1161 865t995.5 692.5t698.5 460.5l260 165q28 13 45 13q4 0 15 -3q19 -4 19 -40q0 -21 -8 -35q-19 -32 -46.5 -48.5t-60.5 -27.5q-39 -12 -81 -36
q-365 -204 -1111.5 -712t-1663.5 -1206q184 -408 440 -739.5t547 -588.5t581 -440.5t541 -295.5t427 -155q95 -22 158 -32q53 -7 63 -12q24 -16 38 -39q8 -14 8 -25q0 -27 -38 -27q-12 0 -28 2l-112 33q-111 33 -302 106.5t-435 195t-512.5 298.5t-534.5 415.5t-502 546.5
t-413 693q-50 -39 -94 -74l-73 -58q-71 -724 -137 -1600q21 -193 21 -451q0 -367 -32 -645q-11 -115 -50 -185q-27 -53 -55 -55zM256 -455q15 172 26 363q15 242 36 476q8 83 14 161q7 86 16 177q-392 -312 -777 -640q31 7 65 7q66 0 129 -18q252 -71 403 -344
q55 -98 88 -182z" />
    <glyph glyph-name="L" unicode="L" horiz-adv-x="2260" 
d="M-502 -2399q-114 0 -114 44q0 27 32 62q71 78 173.5 145.5t232.5 136.5q290 492 560 1758q128 597 241 1223q68 379 131 746q72 417 140 785q123 664 234 997q49 144 106 232q63 94 171 97q110 -6 158 -121q11 -34 11 -60q0 -25 -11 -42q-24 -32 -71 -32q-24 0 -50 7
q-35 8 -70 8q-74 -2 -127 -169q-27 -84 -63 -235l-20 -82q-78 -318 -158 -740.5t-166 -903.5l-92 -510q-112 -626 -240 -1226t-278 -1084q-89 -275 -242 -585q142 65 310.5 136t346.5 128q425 134 916 247.5t979 181.5q654 87 1185 87q266 0 501 -22q348 -37 559 -143
q222 -100 222 -273v-23q-15 -97 -69 -97q-17 0 -31 13q-26 22 -26 83l1 9q0 66 -56 131.5t-120 97.5q-85 43 -207 82q-255 80 -855 80q-86 0 -336.5 -5t-729.5 -69q-792 -113 -1894 -468q-393 -126 -766 -320q-5 -8 -9.5 -18.5t-9.5 -18.5q-91 -140 -201 -213
q-92 -57 -198 -57z" />
    <glyph glyph-name="M" unicode="M" horiz-adv-x="3862" 
d="M99 -1998q-74 0 -91 110q-17 94 -17 302q0 197 17 480q52 872 214 1912q189 1216 468 2147q326 1088 747 1552q22 21 43 21q51 0 51 -77q0 -13 -2 -29q-33 -234 -162 -333q-58 -45 -121 -76q-407 -755 -700 -2135q-218 -1028 -337 -2121q-83 -766 -83 -1115l-1 -89
q1 -40 13 -40q1 0 9.5 3t17.5 44q30 162 67 374q153 907 320 1577q123 485 300 1088t332 977q205 478 407 667q134 125 246 125q9 0 46 -4t84 -79q84 -152 84 -840q0 -415 -21 -807q-26 -442 -26 -699q0 -49 3 -201.5t37 -196.5q9 -12 19 -12q65 0 296 619.5t362 946.5
q84 200 171 326q98 144 209 147q73 -2 126 -50q26 -26 50 -98q74 -223 75 -653q0 -275 -12 -579.5t-13 -621.5q1 -177 17 -439t58 -480.5t105 -343.5q133 -227 321 -227q109 0 243 70q20 17 39 17q41 0 47 -43q0 -35 -38 -72q-138 -49 -257 -49q-262 0 -448 259
q-82 140 -129.5 358t-63 485.5t-18.5 447.5l-1 247q0 313 9 582q7 249 7 459t-17 380q-31 253 -112 253h-5q-139 -15 -287 -384q-136 -336 -369 -958t-333 -715q-45 -45 -87 -45q-2 0 -25.5 1t-55 78t-39.5 252q-6 135 -6 269q0 243 23 676q21 379 21 814q0 638 -70 769
q-23 46 -77 46q-16 0 -65.5 -10t-174.5 -162q-149 -197 -295 -544q-251 -607 -620 -2061q-154 -616 -257.5 -1170t-154.5 -912l-52 -358q-6 -27 -23.5 -39.5t-37.5 -12.5z" />
    <glyph glyph-name="N" unicode="N" horiz-adv-x="3895" 
d="M252 -2434q-31 0 -59 24q-102 100 -146 344q-47 250 -47 616q0 677 117 1587q121 940 327 1883.5t458 1644.5q22 52 65 52q20 0 36 -14q20 -19 20 -57v-11q-96 -737 -96 -1445q0 -659 72.5 -1252t201.5 -1086q198 -745 462 -1160q132 -204 272 -313q146 -114 272 -114
q135 0 235 53q286 153 466 566q222 503 336 1396q79 605 79 1277q0 61 -2.5 234.5t-12.5 346.5t-10 175v6q0 28 19 48q15 17 34 17q8 0 26.5 -5.5t38.5 -67.5q2 -2 19 -64q25 -89 25 -137q0 -41 -19 -41q-7 0 -16 4v-49q0 -876 -113 -1761q-51 -389 -137 -756
q-190 -813 -545 -1151q-97 -91 -209 -142.5t-253 -51.5q-320 0 -611 463q-278 439 -477 1195q-174 657 -251 1487q-40 429 -40 888q0 429 35 884l1 22q0 35 -11 35q-20 0 -50 -99q-187 -619 -334 -1398.5t-239 -1505.5q-100 -800 -100 -1531v-101q5 -269 58 -539
q37 -165 150 -278q27 -32 27 -58q0 -48 -59 -59z" />
    <glyph glyph-name="O" unicode="O" 
d="M1126 -2357q-222 5 -403.5 122.5t-317 310.5t-227 433.5t-136.5 502.5q-42 240 -42 475q0 21 2 159t60 361q24 84 57 162q-88 297 -88 597q0 171 41.5 507.5t256.5 772.5q175 363 405 626t516 397q273 127 571 127q332 0 649 -218q320 -231 493.5 -579t223.5 -768
q25 -206 25 -419q0 -223 -40 -564t-174 -785q-278 -908 -776 -1545q-244 -310 -521.5 -491t-574.5 -184zM1144 -2290q296 0 548.5 171.5t488.5 466.5q244 302 436 698.5t323.5 833t176.5 882.5q23 215 23 422q0 220 -26 429q-104 877 -706 1326q-265 191 -562 191
q-128 0 -268 -39q-418 -119 -757 -512q-225 -261 -385 -601q-256 -542 -307 -1122q-8 -103 -8 -207q0 -207 34 -416q43 68 108 150.5t140 151.5t149 97q10 3 18 3q23 0 34 -23q7 -12 7 -29q0 -24 -14 -58q-91 -209 -205 -209q-13 0 -27 3q-113 -142 -157 -281
q80 -294 244.5 -543.5t426.5 -415.5q38 -25 38 -53q-1 -29 -25 -40q-7 -3 -16 -3q-19 0 -45 18q-455 365 -650 954q-55 -230 -55 -483q0 -213 39 -442q44 -252 132 -482t214 -410t285 -300t341 -128h7z" />
    <glyph glyph-name="P" unicode="P" horiz-adv-x="1456" 
d="M69 -2214q-11 0 -32 5.5t-29 45.5q-8 225 -8 459q0 433 35 1166q28 586 34 1153l-12 -1q-16 0 -27.5 8t-15.5 21.5t-4 25.5l4 41q19 15 50 15h13q16 236 29 470q21 380 52 762q109 1242 210 2158q103 936 134 1078q12 54 52 54q18 0 40.5 -17t30.5 -63q1 -14 6 -45
q18 -112 18 -175q0 -46 -9 -82q-11 -41 -45 -41q-8 0 -18 2q-102 -823 -222 -2149q-10 -116 -21 -230q102 450 246 820.5t337 701.5q187 320 412 525.5t462 299.5q204 81 397 81q199 0 367 -86q141 -72 243 -202q186 -239 186 -619q0 -50 -3 -101q-31 -410 -195 -789.5
t-419 -717.5t-560 -624q-418 -393 -835.5 -664.5t-742.5 -403.5q-76 -1080 -96 -2824q0 -33 -27 -48q-18 -10 -37 -10zM236 780q308 134 701 393t784 625q297 282 544 617q599 810 599 1636q0 103 -16.5 227.5t-117.5 270.5q-96 133 -224 202q-147 78 -316 78
q-170 0 -377.5 -83.5t-424.5 -278t-396 -499.5q-161 -275 -283 -556.5t-210.5 -621t-146.5 -788.5q-65 -535 -116 -1222z" />
    <glyph glyph-name="Q" unicode="Q" horiz-adv-x="3286" 
d="M3613 -1657q-41 0 -82 2q-267 16 -554.5 94.5t-575.5 184.5q-161 57 -319 110q-153 51 -297 103q-217 -198 -420 -261q-130 -40 -244 -40q-65 0 -125 13q-107 23 -189.5 72t-134.5 113q-69 83 -69 170q0 60 39 113q116 142 351 142q172 0 382 -58q150 -41 372 -120
q98 93 198 228q305 439 493.5 910.5t282 934.5t114.5 877q8 170 8 325q0 221 -17 412q-44 467 -231.5 807.5t-467.5 462.5q-143 61 -311 61q-161 0 -335 -89q-119 -61 -259 -156q-323 -221 -565 -585q-253 -392 -390 -803q-199 -596 -199 -1209q0 -171 17 -331
q36 -371 149 -664.5t303 -462.5q118 -97 323 -166q63 -26 63 -68q0 -39 -40 -65q-28 -17 -65 -17q-18 0 -39 4q-306 116 -506 490t-256 912q-17 164 -17 339q0 203 32.5 513.5t174 730.5t404.5 825q375 566 828 797q162 86 353 108q46 6 93 6q144 0 289 -54
q219 -93 383 -293.5t264.5 -479t129.5 -602.5q18 -199 18 -429q0 -156 -14.5 -453t-110.5 -770t-289.5 -955.5t-507.5 -934.5q-66 -89 -132 -155l-40 -43q129 -47 269 -102q159 -62 313 -118q84 -30 170 -62q249 -94 495 -169q278 -86 511 -86q171 0 292 36.5t208 121
t166 215.5q30 44 66 44q29 0 43 -24q5 -10 5 -22q0 -20 -14 -46q-256 -384 -786 -384zM1076 -1363q273 0 571 245q-216 74 -303 98l-82 22q-260 72 -365 72q-80 0 -150.5 -38.5t-88.5 -109.5q-4 -13 -4 -27q0 -61 66 -131q88 -84 272 -123q40 -8 84 -8z" />
    <glyph glyph-name="R" unicode="R" horiz-adv-x="2544" 
d="M74 -2333h-5q-55 2 -60 96q-9 254 -9 555q0 373 14 818l15 446q14 426 109 1324q232 2112 757 2937q23 28 47 28q12 0 23 -6q34 -17 35 -69v-21q-29 -258 -83 -386q-38 -89 -91 -89q-26 0 -52 17q-346 -895 -512 -2428q0 -6 1 -6q2 0 3 14q110 592 324 1154t581 1094
q467 671 903 868q162 74 318 74q35 0 114 -2q103 -4 265 -125q130 -111 201 -291q83 -207 83 -468q0 -453 -235 -938q-199 -394 -478 -668q-494 -484 -1161 -718q-274 -97 -464 -136.5t-241 -43.5q18 -72 84 -193.5t129 -220.5q115 -183 302 -404q421 -494 973 -843
q639 -406 1336 -429l64 -1q191 0 345 37q123 30 250 98q19 7 34 7q24 -1 44 -19q28 -26 28 -61v-2q-1 -9 -3.5 -32.5t-72.5 -43.5q-287 -59 -554 -59q-140 0 -407 25q-213 20 -553 145.5t-634 310.5q-541 341 -962 831q-381 441 -500 767q-9 21 -29 22q-10 -1 -12 -9
q-87 -546 -123 -1121.5t-57 -1189.5l-23 -556q-10 -87 -61 -89zM437 808q356 12 700 139q335 124 641 336.5t545.5 479t383.5 555.5q223 457 223 891l-1 52q-27 427 -259 643q-124 109 -308 109q-127 0 -259 -56q-186 -78 -410 -288t-463 -553q-245 -355 -412 -729
q-301 -671 -460 -1557q16 11 31 11q20 -1 48 -33z" />
    <glyph glyph-name="S" unicode="S" horiz-adv-x="3620" 
d="M1542 -2398q-42 0 -83 4q-188 17 -287 131q-46 55 -46 138q0 140 129 353q186 308 564 687q185 185 236 235q-253 205 -578 415l-59 39q-240 153 -479.5 321t-442.5 360q-214 203 -344 450q-152 286 -152 638q0 365 135 737.5t394.5 722t587.5 626.5q370 313 770.5 499.5
t770.5 202.5l43 1q220 0 411 -77q219 -94 319 -341q80 -197 80 -455q0 -271 -108 -609q-139 -443 -362 -780q-235 -357 -460 -412l-9 -1q-32 0 -50 37q-7 16 -7 34q0 71 110 193q154 171 357 200q201 302 326 710q66 209 106 418q25 131 25 246q0 70 -9 134
q-25 183 -97.5 317t-251.5 215q-149 63 -327 63q-108 0 -324 -42t-556.5 -226.5t-658 -453.5t-577 -619t-407.5 -739q-133 -351 -133 -701q0 -307 139 -536q120 -199 324 -389q158 -149 351 -280.5t395 -255.5q121 -75 237 -149l128 -83q327 -207 484 -336
q329 307 707 581.5t759 495.5q18 8 31 8q11 0 19 -7q15 -13 15 -32q0 -3 -1.5 -15.5t-25.5 -24.5q-320 -150 -727 -441.5t-739 -600.5q17 -16 40 -36q44 -39 90 -82q123 -117 202 -260t79 -300q0 -165 -91 -344q-113 -209 -294.5 -343.5t-383.5 -194.5q-154 -46 -294 -46z
M1566 -2287q37 0 109 4t163 30q182 53 350.5 162.5t266.5 288.5q52 105 58 213q2 28 2 55q0 75 -13 139q-17 76 -76.5 160.5t-129.5 159.5q-31 35 -169 160l-35 32q-41 -40 -80 -76q-84 -77 -161 -158q-361 -383 -532 -674q-66 -110 -86 -215q-5 -28 -5 -54q0 -71 45 -136
t194 -86q45 -5 99 -5z" />
    <glyph glyph-name="T" unicode="T" horiz-adv-x="1440" 
d="M328 -2270h-3q-45 0 -47 60l165 2827q-167 948 -631 1292q-446 312 -1117 318q-66 0 -335 -14q-217 -11 -741 -177q-22 -8 -42 -8q-23 0 -36 13q-17 17 -17 42q0 10 5.5 31.5t45.5 38.5q145 58 322 100q155 37 300 89q1049 391 2403 725l11 257q-10 20 -26 33
q-32 29 -32 65q0 20 11 59t64 133q41 64 75 65q7 0 13 -2q36 -11 38 -58l-26 -520q721 178 1466.5 327t1479.5 248.5t1413 123.5q51 -6 52 -30q0 -1 -1 -15.5t-31 -48.5q-39 -46 -88 -46q-41 0 -81 36q-1001 -49 -2085 -225.5t-2133 -435.5l-150 -2325q39 -329 39 -700
q0 -144 -5 -321q0 -420 -131 -1436q-31 -230 -80 -458q-19 -61 -65 -63zM459 912l134 2089q-1280 -324 -2311 -699q156 17 309 17q319 0 681.5 -104.5t574.5 -271.5q255 -192 402 -493t210 -538zM473 -1020q63 420 63 929q0 62 -1 123z" />
    <glyph glyph-name="U" unicode="U" horiz-adv-x="3580" 
d="M773 -2591q-27 0 -53 3q-207 28 -351.5 187.5t-228.5 415.5q-140 441 -140 1090q0 887 231 1996q199 954 550 1910q26 49 61 49q6 0 31 -6t26 -87q5 -107 5 -190q0 -107 -10 -196q-14 -127 -76 -127q-19 0 -41 11q-277 -841 -436 -1641q-189 -952 -189 -1768
q0 -236 21 -502t98 -503.5t190 -370.5t274 -156q45 -6 87 -6q134 0 266 72.5t304 269.5q359 404 754 1208q547 1123 1049 3130q72 291 140 599q88 406 202 846q14 54 56 54q26 0 47 -20t21 -48l-2 -15q-103 -478 -216 -924q-548 -2209 -548 -3543q0 -96 9.5 -376t100.5 -514
q9 -26 9 -44q0 -27 -20 -38q-15 -9 -34 -9q-79 0 -111 83q-80 275 -80 810q0 446 66 1070q44 365 136 917q-402 -1257 -767 -2006q-397 -809 -773 -1229q-356 -402 -658 -402z" />
    <glyph glyph-name="V" unicode="V" horiz-adv-x="3237" 
d="M847 -2590q-81 1 -135.5 71t-89.5 147q-48 100 -102 261q-153 449 -259 1089q-255 1524 -261 2715q0 417 42.5 738.5t146.5 509.5q18 28 43 28q10 0 35 -9t31 -81l1 -26q10 -233 10 -396q0 -266 -61 -266q-21 0 -50 26q-24 -258 -24 -572q0 -397 25 -848t83.5 -916
t123.5 -880.5t151 -740.5t170 -503q42 -88 76 -125q50 -51 97 -51q2 0 28 1t56 39q147 187 249 367.5t192 364.5l57 114q167 332 337 719.5t353 820.5q94 224 194 458q333 782 645 1544q305 746 557.5 1336t421.5 891q26 40 50 40q22 0 33 -22q4 -10 4 -21q0 -17 -9 -38
q-175 -314 -458.5 -967.5t-626.5 -1474.5q-629 -1510 -1031 -2406q-365 -812 -655 -1345q-120 -219 -276 -443q-31 -45 -80 -93.5t-94 -55.5z" />
    <glyph glyph-name="W" unicode="W" horiz-adv-x="4439" 
d="M618 -2606q-200 0 -338 168q-280 350 -280 1257q0 42 4 291.5t77.5 769.5t209 1056.5t329 1041.5t442 930t548.5 724q11 13 25 13q31 0 54 -40q10 -19 10 -43q0 -10 -1 -20q-69 -278 -155 -390q-76 -101 -175 -101q-12 0 -24 2q-280 -419 -502.5 -948.5t-378.5 -1106.5
t-235.5 -1142t-79.5 -1025q0 -394 58 -710q59 -323 179 -474q64 -77 150 -114q60 -25 127 -25q27 0 56 4q120 21 206 81.5t161.5 159t164.5 235.5q281 432 536 988q257 572 458 1091q101 256 152 350q31 50 85 63q9 2 18 2q42 0 77 -48q34 -57 63 -149q53 -170 143 -582
q38 -169 78 -341q107 -466 206 -728q59 -145 112 -217q72 -97 144 -97q13 0 61.5 11.5t111.5 113.5q184 305 271 627t141 688q52 335 52 675q0 201 -16 387q-23 248 -92 454t-159 316q-12 18 -12 34q0 31 32 39l7 1q17 0 34 -18q111 -135 171 -342q94 -326 94 -783
q0 -352 -61 -772q-114 -831 -422 -1345q-59 -94 -140 -140q-60 -34 -123 -34q-20 0 -72.5 10t-120.5 98q-125 167 -242 596q-62 228 -176 734q-50 229 -93 406q-59 231 -89 231q-6 0 -19 -10q-30 -24 -163 -323q-53 -110 -196 -438q-123 -283 -264 -592q-125 -272 -260 -531
q-302 -578 -565 -835q-189 -184 -394 -184z" />
    <glyph glyph-name="X" unicode="X" horiz-adv-x="2329" 
d="M-1811 -3581q-16 0 -16 18q0 14 8 39q148 433 505 1072t856 1392.5t1073 1528.5l55 75q-472 718 -719 1392q-67 -46 -107 -46q-69 0 -69 193q0 33 4.5 131.5t47.5 392.5q16 103 64 103t60 -87q62 -471 275 -978t537 -1004q833 1105 1623 1954t1415 1357q13 7 23 7
q12 0 24 -13t12 -38t-16 -41q-801 -648 -1512.5 -1425.5t-1522.5 -1867.5q249 -396 622.5 -818t769.5 -759q239 -207 466 -364.5t557 -316.5q70 -44 70 -77q0 -30 -51 -30q-27 0 -62 14q-709 390 -1328.5 962.5t-1136.5 1291.5q-7 -11 -29 -39q-800 -1050 -1417.5 -2051
t-936.5 -1747q3 -15 3 -31q0 -21 -8 -53.5t-66 -93.5q-48 -43 -73 -43z" />
    <glyph glyph-name="Y" unicode="Y" horiz-adv-x="3574" 
d="M1550 -3403q-41 0 -79 17q-69 38 -98 116q-37 94 -37 249q0 414 231 1067q118 328 291 664t399 642t501 544q19 288 19 531q0 194 -12 360q-21 265 -54 395q-21 68 -43 94q-13 19 -26 19l-12 -3q-23 -6 -128 -218q-51 -98 -134 -289q-213 -505 -474 -915
q-226 -354 -479 -554q-126 -100 -269 -168q-167 -81 -323 -81q-218 0 -387 114.5t-271 331.5q-165 347 -165 894q0 515 144 1089q114 454 308.5 872.5t461.5 741.5q29 29 51 29q13 0 24 -10q23 -20 23 -70q0 -14 -2 -30q-32 -168 -66 -247.5t-74 -102.5q-36 -20 -81 -20h-12
q-266 -455 -440 -1001q-212 -663 -212 -1247q0 -204 31 -428t122.5 -417t249.5 -301q139 -96 318 -96q24 0 50 2q309 32 541 235q362 316 639 883q187 378 361 812q51 134 101 222t120 94q35 0 63 -19q75 -52 109 -179q39 -154 60 -422q13 -176 13 -383q0 -191 -11 -408
q146 107 328 202t351 145q11 3 20 3q18 0 29 -10.5t11 -23.5q0 -6 -4 -19t-42 -23q-404 -114 -696 -352l-8 -97q-15 -228 -31 -358q-60 -513 -190.5 -1033.5t-343.5 -970t-522 -750.5l-2 -1q-135 -121 -242 -121zM1536 -3278q78 0 173 89q287 279 492.5 714t335 946.5
t189.5 1016.5q25 231 35 339q-300 -267 -508 -550t-356.5 -588t-272.5 -635q-203 -546 -203 -999q0 -59 4 -112q5 -46 19.5 -96t25.5 -76q21 -49 64 -49h2z" />
    <glyph glyph-name="Z" unicode="Z" horiz-adv-x="3163" 
d="M-1068 -2711l-22 1q-96 17 -116 91q-8 29 -8 60q0 46 19 95q65 153 168 286q474 631 939 1134.5t945 982.5q206 208 418 425q652 662 1258 1246q282 272 511 498l283 278q283 276 390 390q137 150 137 231q0 34 -33 65q-65 59 -407 59q-403 0 -914 -79
q-362 -57 -738 -131q-618 -128 -1274 -447q-42 -23 -58 -38.5t-16 -31.5q0 -9 4 -20t4 -25q0 -5 -1.5 -17t-31.5 -45q-28 -27 -113 -64t-167 -53q-26 -5 -45 -5q-44 0 -58 25q-6 18 -6 36q0 51 58 128q98 136 354 255q246 115 585 210q743 209 1689 318q360 41 706 41
q152 0 302 -8q203 -7 310 -72q60 -36 60 -103l-1 -17q-16 -83 -124 -206q-32 -38 -68 -84q-125 -162 -504 -521l-131 -126q-784 -762 -1823 -1802q-554 -549 -1167.5 -1199t-1174.5 -1353q-102 -135 -102 -200q0 -60 81 -60q98 0 298 100l102 53q208 109 482 243.5
t601 268.5q872 360 1710 464q276 34 568 34q219 0 599 -32t955 -220q49 -21 50 -60q0 -40 -30 -67q-20 -17 -44 -17q-14 0 -29 5q-562 185 -1083 237q-277 28 -540 28q-1056 0 -2140 -446q-479 -197 -1021 -487l-141 -73q-334 -179 -455 -179z" />
    <glyph glyph-name="bracketleft" unicode="[" horiz-adv-x="913" 
d="M375 -659q-51 0 -98 35q-24 18 -35 54q-44 134 -44 557q0 161 7 346q32 1842 55 2006q21 202 165 218q47 6 93 6l40 -1q110 0 148 -51l2 -19q0 -41 -34 -41q-14 0 -35 8q-50 36 -83 36l-27 1q-52 0 -91 -13q-38 -28 -45 -91q-31 -133 -68 -2064q-7 -230 -7 -348
q0 -324 26 -464q13 -81 50 -95q22 -5 43 -5q62 0 118 44q28 78 65 78q7 0 14 -3q27 -25 27 -55q0 -29 -25 -61q-86 -78 -261 -78z" />
    <glyph glyph-name="backslash" unicode="\" horiz-adv-x="1582" 
d="M1536 -584q-32 0 -102 47q-783 1816 -1425 3314q-2 11 -2 21q0 65 78 75q49 -4 73 -42q1183 -3030 1395 -3313q13 -40 13 -64q0 -38 -30 -38z" />
    <glyph glyph-name="bracketright" unicode="]" horiz-adv-x="913" 
d="M531 2563q51 0 98 -35q24 -18 35 -54q44 -134 44 -557q0 -161 -7 -346q-32 -1842 -55 -2006q-21 -202 -165 -218q-47 -6 -93 -6l-40 1q-110 0 -148 51l-2 19q0 41 34 41q14 0 35 -8q50 -36 83 -36l27 -1q52 0 91 13q38 28 45 91q31 133 68 2064q7 230 7 348
q0 324 -26 464q-13 81 -50 95q-22 5 -43 5q-62 0 -118 -44q-28 -78 -65 -78q-7 0 -14 3q-27 25 -27 55q0 29 25 61q86 78 261 78z" />
    <glyph glyph-name="asciicircum" unicode="^" horiz-adv-x="1033" 
d="M709 4092q-22 0 -45 32q-231 299 -266 299q-7 0 -10 -5q-37 -12 -317 -325h-4q-11 0 -22 12t-11 33l1 10q341 403 387 403h5q38 0 187 -174t154 -213q0 -30 -28 -57q-15 -15 -31 -15z" />
    <glyph glyph-name="underscore" unicode="_" horiz-adv-x="1547" 
d="M462 -437q-228 0 -307 27q-38 19 -38 37q0 19 36 37q43 10 120 10q65 0 155 -7q184 -8 357 -8q86 0 170 2q332 5 413 5q39 0 49 -36l1 -9q0 -28 -56 -31q-6 1 -23 1q-49 0 -299 -9q-358 -19 -578 -19z" />
    <glyph glyph-name="grave" unicode="`" horiz-adv-x="819" 
d="M487 4020q-11 0 -20 3q-125 134 -403 400q-14 8 -14 19q0 14 25.5 33t53.5 19q16 0 32 -7q79 -77 348 -410q7 -15 7 -26q0 -12 -7.5 -21t-21.5 -10z" />
    <glyph glyph-name="a" unicode="a" horiz-adv-x="1637" 
d="M1068 -140q-143 7 -208 152q-35 95 -35 214q0 9 1.5 79.5t8 112t18.5 79.5q10 33 10 41q0 3 -2 3t-8 -9q-21 -36 -67 -99q-21 -28 -55 -76q-282 -407 -522 -407q-79 0 -145 42t-90 120q-9 30 -9 63q0 53 29.5 132t136.5 190q89 90 200 144q180 87 329 87q99 0 151 -42
q15 -17 23 -49q0 6 43 69q20 28 27 31q17 20 50 20q15 -1 30 -4q28 -7 28 -61q0 -55 -31 -221q-25 -120 -25 -276q0 -48 7 -85q31 -174 155 -174q159 0 372 212q102 118 146 184q12 13 29 13q31 0 31 -21q0 -23 -25 -48q-228 -293 -470 -391q-61 -22 -133 -25zM235 32
q66 4 122.5 35t114.5 80q170 145 308 387l20 33q-33 -10 -54 -10q-4 0 -16 1.5t-23.5 12t-20.5 26.5t-25.5 29t-49.5 13h-5q-159 -36 -350 -227q-132 -132 -132 -257q0 -60 35 -96q27 -27 76 -27z" />
    <glyph glyph-name="b" unicode="b" horiz-adv-x="1495" 
d="M56 -683q-20 0 -54 6.5t-56 58.5q-7 23 -7 46q0 51 38.5 117.5t101.5 113.5q92 66 195.5 119t211.5 102q119 54 232 113q29 26 42 66q49 146 49 243q0 27 -4 51q-17 123 -67 164q-65 48 -174 48q-88 0 -164 -54t-120.5 -133.5t-104.5 -261.5q-24 -75 -35.5 -149.5
t-14.5 -124.5l-3 -51q-10 -34 -37 -49q-16 -9 -31 -9q-11 0 -29.5 8t-26.5 51q-5 35 -5 105l1 67q8 503 76 1305q32 399 60.5 629.5t101.5 614.5q-53 39 -53 107q0 128 152 374q34 57 71 57q3 0 19.5 -2t36.5 -27.5t22 -48.5q-125 -413 -187 -786t-107 -917
q-39 -498 -52 -878q-2 -57 -5 -110q0 -34 -2 -70q94 229 234 341q129 97 267 97q100 0 182 -59q97 -74 120 -222q3 -28 3 -58q0 -78 -22 -172q-8 -25 -8 -39q0 -15 12 -15q7 0 18 4l555 254q15 7 26 7q10 0 18 -6q11 -10 11 -27q0 -4 -1.5 -17.5t-25.5 -28.5l-160 -63
q-159 -64 -487 -211q-67 -106 -181 -244.5t-217 -222.5q-133 -103 -250 -162q-100 -51 -165 -51zM46 -549q47 0 119 29q103 52 229 149q57 45 116 103q130 125 130 140q0 1 -1 1q-26 -6 -124 -51q-261 -122 -393 -216q-122 -90 -122 -129q0 -25 46 -26z" />
    <glyph glyph-name="c" unicode="c" horiz-adv-x="1143" 
d="M227 -246q-27 0 -65 3.5t-79 27.5q-84 52 -119 162q-22 72 -22 149q0 161 115 356q62 108 143 195q121 132 244 197q72 39 136 39q52 0 99 -37q14 -16 20 -32.5t6 -44.5q0 -17 -3 -33q-15 -113 -72 -216q-17 -27 -53 -27t-67 26t-34 76q1 46 62 127q23 31 23 36q0 2 -3 2
q-11 0 -56 -27q-98 -51 -208 -170t-167 -263q-56 -129 -56 -214q0 -52 13 -102q29 -94 83 -122q44 -22 97 -22l27 1q174 7 387 130q238 139 356 252q55 52 105 116q9 8 21 8q25 0 37 -24q3 -6 3 -13q0 -13 -12 -29l-67 -64q-187 -179 -428 -317q-247 -146 -466 -146z" />
    <glyph glyph-name="d" unicode="d" horiz-adv-x="1913" 
d="M1682 -1375h-9q-46 0 -81 36q-59 102 -86 193.5t-57 199.5q-15 78 -34 152q-40 205 -59 352q-19 137 -34 396q-13 229 -13 417q0 260 37 751v7q0 9 -2 9t-8 -9q-319 -564 -659 -916q-200 -207 -444 -287q-36 -11 -71 -11q-24 0 -64 9t-79 53q-52 65 -52 158q0 40 10 86
q44 179 212 345q75 75 157 129q131 85 269 85q154 0 224 -114q17 -27 17 -54q0 -24 -14 -47q-24 -32 -58 -32q-2 0 -21 0.5t-51 29.5q-18 18 -31 43q-24 41 -44 47q-12 1 -25 1q-33 0 -73 -8q-117 -31 -261 -169q-140 -141 -179 -285q-7 -32 -7 -56q0 -53 23 -77
q39 -47 98 -47q25 0 53 8q158 51 272.5 139t213.5 213.5t211 290.5l72 103q92 132 171.5 283.5t160.5 322.5q40 410 115 808q53 267 86.5 392t75.5 234q43 119 77 179q52 88 96 88q8 0 29 -9.5t33 -102.5q11 -105 11 -198q0 -67 -9.5 -169t-59.5 -301
q-56 -228 -125.5 -398.5t-156.5 -347.5l-32 -67l-19 -182q-71 -634 -71 -990q0 -164 10 -340q13 -244 26.5 -376.5t40.5 -269.5l17 -91q59 -263 154 -374l65 -75q32 -45 32 -76q0 -21 -13.5 -49t-66.5 -32zM1543 1715q2 1 13 22q66 131 118 287q153 463 153 746q0 77 -16 77
q-8 0 -20 -16q-19 -38 -29 -68q-40 -103 -72 -223q-72 -271 -137 -712q-6 -46 -12 -84q-2 -15 -2 -22t2 -7h2z" />
    <glyph glyph-name="e" unicode="e" horiz-adv-x="1129" 
d="M254 -311q-135 0 -212 92q-75 106 -75 251l1 35q5 186 54 331q78 234 219 325q56 39 127 39q73 -12 103 -61q30 -44 30 -88q-8 -114 -82.5 -176.5t-138.5 -75.5q-34 -7 -64 -7q-11 0 -60 7q-12 0 -15 -14q-35 -108 -47 -253v-31q-2 -26 -2 -50q0 -107 37 -179
q44 -62 134 -62l34 1q187 0 542 289q278 235 293 260q8 7 17 7q16 0 24 -14q6 -8 6 -17q0 -20 -26 -44l-258 -232q-183 -151 -315.5 -232t-290.5 -99q-17 -2 -35 -2zM229 416q78 0 143 67q52 52 52 115q-3 50 -44 50q-33 0 -70 -30q-32 -28 -67.5 -74t-60.5 -92
q-5 -10 -5 -17q0 -5 4 -10t19 -7t29 -2z" />
    <glyph glyph-name="f" unicode="f" horiz-adv-x="1162" 
d="M373 -2430h-8q-135 10 -247.5 128.5t-197.5 319.5t-129 474q-32 199 -32 431q0 188 22 374l9 82l-58 1q-248 0 -581 -94q-62 -34 -120 -69l-86 -50q-70 -36 -112 -36q-15 0 -26 4q-37 14 -37 49q0 7 4.5 34.5t70.5 74.5q57 44 237 84l86 19q101 58 209 135
q117 83 277 179q38 21 76 44q62 37 128 74q176 799 501 1136l43 44q24 12 42 12q24 0 46.5 -24.5t32.5 -84.5q6 -33 6 -66q0 -27 -4 -53q-14 -83 -65 -83q-47 0 -90 111q-56 -78 -124 -222q-138 -264 -245 -696q265 142 552.5 261t593.5 181l18 1q27 0 37 -14q8 -11 8 -21
q0 -9 -5 -17q-8 -16 -30 -16l-13 1q-316 -63 -608 -180.5t-569 -269.5q-35 -181 -61 -365q530 -60 800 -414q152 -212 180 -462q9 -80 9 -157q0 -166 -42 -322q-60 -228 -189 -379q-138 -159 -309 -159zM-667 -573q280 40 436 40l33 -1q13 99 44 279l1 3q-134 -71 -436 -270
zM433 -2320q66 0 128.5 35t104.5 91q48 61 89 131.5t68 169.5q42 145 42 303q0 62 -15 208.5t-173 379.5q-126 175 -325 265t-440 103l-4 -39q-24 -215 -24 -398q0 -226 37 -452t115.5 -411.5t171.5 -278.5q99 -94 187 -105q19 -2 38 -2z" />
    <glyph glyph-name="g" unicode="g" horiz-adv-x="1653" 
d="M-155 -2772q-61 0 -115 24q-163 82 -163 323q0 606 493 1287q379 523 816 896l79 71q-62 285 -147 442q-42 79 -74 111q-14 13 -33 13q-56 0 -144 -102q-26 -31 -50 -57q-59 -66 -133 -162q-50 -67 -107 -133q-96 -110 -180 -110q-33 0 -62 18q-57 43 -68 123
q-11 62 -11 120q0 79 28.5 177t100.5 189q44 58 117 116t160 84q33 10 67 10q53 0 106 -25q47 -30 82 -85q22 -36 22 -71q0 -20 -7 -39q68 51 124 51q42 0 77 -30q51 -50 96 -139q80 -155 139 -403q127 109 261.5 199t229.5 145l95 55q15 8 27 8t24.5 -11.5t12.5 -32.5
t-23 -25l-98 -53q-98 -54 -239 -146t-278 -211q42 -234 42 -511q0 -543 -206 -1007q-189 -409 -402.5 -667.5t-413.5 -366.5q-134 -75 -245 -75zM164 -68q56 0 136 119l31 44q35 45 63 84q85 123 183 220l-11 -3q-18 -5 -37 -5q-50 0 -50 52l2 35q0 36 -7 62q-8 32 -63 32
q-32 0 -73.5 -23t-86 -73t-77.5 -94q-57 -75 -86 -172q-17 -56 -17 -119q0 -46 9 -95q5 -25 24 -40l17 -14q23 -10 43 -10zM-186 -2656q83 0 216 69q172 91 375 335.5t387 640.5q195 439 195 985q0 210 -24 383q-491 -456 -835 -933q-488 -677 -488 -1235q0 -183 121 -236
q23 -9 53 -9z" />
    <glyph glyph-name="h" unicode="h" horiz-adv-x="1710" 
d="M46 -499h-8q-19 0 -38 14t-19 44q-9 244 -9 501q0 1454 232 2632q-20 -5 -36 -5q-35 1 -35 62q0 13 9.5 77t133.5 257q37 55 75 55q23 0 37 -17.5t14 -40.5l-2 -15q-107 -587 -185 -1256.5t-113 -1225.5q-26 -408 -26 -628q0 -158 13 -158q20 0 67 93q68 133 117 261
q108 264 219 461q83 161 179 211q32 17 70 17q30 0 63 -11q60 -32 83 -92q23 -55 32 -121q13 -105 13 -148q8 -159 33.5 -314t101.5 -249q55 -56 145 -56q42 0 78 16q114 53 195 145q100 116 209 297q12 32 39 32q12 0 19 -8t7 -19q0 -10 -5 -24l-32 -51
q-157 -250 -306 -375q-131 -110 -265 -110q-14 0 -65 3.5t-112 66.5q-100 119 -129 275t-35 304q-1 30 -3 58q-13 208 -47 249q-13 16 -47 16q-77 0 -167 -165q-110 -196 -217.5 -432t-176.5 -415l-69 -179q-12 -28 -37 -32z" />
    <glyph glyph-name="i" unicode="i" horiz-adv-x="910" 
d="M132 844q-45 0 -66 44q-10 21 -10 44q0 60 93 140q22 17 45 17v-12q0 -42 18 -81q10 -21 10 -44q0 -58 -44 -92q-22 -16 -46 -16zM217 -204q-50 0 -95 30q-38 26 -60 64q-43 76 -51 172q-10 83 -10 229q0 67 4 117q-15 16 -15 40q0 32 27 78q24 42 75 42q26 0 52 -14.5
t27 -48.5q-38 -236 -38 -369q0 -119 36 -182.5t95 -63.5q91 0 300 121q173 116 278 229l52 61q20 27 41 27q18 0 25 -15q2 -5 2 -10q0 -14 -14 -33l-215 -200q-53 -51 -152 -116q-257 -158 -364 -158z" />
    <glyph glyph-name="j" unicode="j" horiz-adv-x="885" 
d="M-29 785q-24 0 -46 16q-44 34 -44 92q0 23 10 44q21 45 67 45q23 0 45 -17q44 -32 44 -92q0 -23 -10 -44q-21 -44 -66 -44zM-1103 -2682q-119 0 -197 76q-70 76 -77 206l-1 46q0 236 108.5 504t307.5 551t444 549q330 355 668 629q-6 114 -33.5 235t-57.5 188
q-15 -1 -24.5 -3.5t-15.5 -2.5q-12 0 -17 11q-9 20 -9 116q0 90 41 117q8 5 19 5q49 0 71 -55q10 -28 19 -60t18 -55q66 -144 97 -413q343 264 623 372q10 3 17 3q14 0 23.5 -8.5t9.5 -21.5q0 -4 -1.5 -14t-23.5 -20q-335 -123 -644 -362q9 -97 9 -200q0 -427 -148 -947
q-124 -418 -327 -730.5t-445 -524.5q-118 -102 -239 -148q-115 -43 -215 -43zM-1108 -2582q70 0 172 49.5t213 143.5q232 196 421 495q311 492 426 1244q33 218 33 384q0 43 -2 83q-312 -263 -626 -605q-240 -262 -431.5 -549t-299.5 -560q-99 -251 -99 -457q0 -78 25 -130
q20 -43 38 -61t56.5 -27t73.5 -10z" />
    <glyph glyph-name="k" unicode="k" horiz-adv-x="1666" 
d="M142 -1710q-3 0 -20.5 0.5t-38.5 34.5q-34 102 -52 314q-36 389 -36 1053v130q-71 21 -110 80q-20 40 -20 83q0 20 4 41q18 123 132 320q19 830 57 1348q32 434 104 875q-47 34 -47 99q0 17 9.5 74t113.5 210q23 40 58 40q25 0 45 -17t20 -47l-1 -5q-94 -428 -148.5 -975
t-77.5 -1338q-2 -35 -2 -69q121 164 270.5 300t311.5 198q15 6 32 6q50 0 73 -38q19 -28 19 -70q0 -33 -4 -57l-5 -23q-22 -37 -62 -37q-9 0 -40.5 6t-51.5 60q-129 -65 -249 -189q-168 -174 -300 -387l-5 -173q-4 -137 -6 -254q125 -28 249 -28q160 0 397 39l13 2
q261 39 486 148t403 271q14 14 26 14q5 0 16 -7t11 -30q0 -18 -16 -31q-205 -181 -483 -289.5t-555 -152.5q-208 -35 -378 -35q-92 0 -151 10l-24 3q-1 -145 -6 -270q-4 -104 -4 -205q0 -59 1 -116q9 -324 29 -552q10 -90 30 -159q22 -75 42 -129q5 -12 5 -23q0 -19 -15 -33
q-20 -20 -49 -20zM-5 -86l2 113q-6 -7 -12.5 -32.5t-5.5 -50.5q0 -24 16 -30z" />
    <glyph glyph-name="l" unicode="l" horiz-adv-x="1129" 
d="M290 -863q-38 0 -89.5 40.5t-94 174t-60.5 295.5q-45 427 -45 863q0 115 9 449.5t71 844t146 912.5q8 37 31 99q61 164 122 164q33 0 63 -84q15 -42 15 -166q0 -384 -186 -863q-122 -630 -146 -1355q-3 -100 -3 -201q0 -302 29 -607l4 -44q6 -75 19 -161.5t42 -158
t84 -100.5q14 -7 27 -7q53 0 149 108q54 61 88 108q119 160 350 525l215 344q18 25 34 25q23 0 23 -28q0 -8 -2 -19l-220 -348q-228 -358 -354 -536q-34 -49 -96 -119.5t-122 -116.5q-56 -38 -103 -38z" />
    <glyph glyph-name="m" unicode="m" horiz-adv-x="2105" 
d="M85 -354q-40 0 -69 29q-51 54 -63 131q-8 52 -8 110q0 29 2 60q8 124 78 427q38 177 62 267q-20 35 -20 75q0 60 36 131q25 51 49 85q46 65 94 65q11 0 21 -3q34 -11 34 -50l-1 -14l-44 -149q-45 -149 -91 -352q-7 -36 -18 -81q-75 -333 -75 -422q0 -17 1 -49.5t9 -64.5
t26 -32h1q42 14 85 110t78 196q71 192 165 403q33 79 81.5 135.5t126.5 62.5h4q29 0 54.5 -14.5t41.5 -35.5q63 -85 91 -331q28 -210 46 -252l6 -15q10 -12 20 -12q8 0 20 10q23 17 68 123q34 79 79 152q30 50 61 81.5t78 34.5q39 0 65 -22q63 -53 131 -199l5 -10
q43 -83 84 -148q85 -145 191 -145q92 0 199 110q79 81 183 232l35 51q11 11 21 11q19 0 26 -24l1 -8q0 -12 -10 -25l-37 -51q-37 -51 -93 -118t-115 -121q-76 -71 -168 -107q-45 -17 -90 -17q-50 0 -101 20q-91 41 -144 119.5t-91 159.5q-43 85 -76 139q-29 54 -55 54
q-48 0 -117 -166l-14 -29q-17 -39 -30 -76q-32 -92 -64 -134q-26 -38 -72 -38q-35 0 -63 28q-44 41 -64 136q-23 104 -39.5 236.5t-40.5 219.5q-24 80 -62 80q-2 0 -22 -1.5t-84 -116.5q-51 -100 -101 -238q-17 -46 -34 -89q-25 -62 -57 -149q-73 -198 -99 -253
q-49 -113 -127 -122z" />
    <glyph glyph-name="n" unicode="n" horiz-adv-x="1465" 
d="M90 -215q-31 0 -51 17q-28 23 -39 61q-19 66 -19 185q0 287 99 632q-38 51 -38 101q0 102 171 235q43 25 69 25q16 0 26 -10q20 -19 20 -49q0 -11 -3 -23q-89 -177 -139 -366q-79 -296 -79 -541q0 -35 2 -64q9 -40 23 -40q4 0 16 9q24 19 77 155q20 48 32 73
q94 199 165 294q62 81 121 81q38 0 63 -31q32 -39 43 -86q20 -77 30 -169l6 -40q33 -267 127 -326q39 -18 75 -18q49 0 125 37q91 42 187 115q154 130 256 267q20 14 34 14q9 0 17.5 -5.5t8.5 -16.5q0 -12 -14 -32q-282 -316 -489 -411q-100 -44 -174 -44q-36 0 -70 10
q-110 39 -156 161q-39 113 -51 232q-18 119 -32 191q-9 40 -32 40q-19 0 -46 -37q-64 -90 -141 -254q-53 -111 -93 -216l-12 -29q-29 -76 -69 -109q-20 -18 -46 -18z" />
    <glyph glyph-name="o" unicode="o" horiz-adv-x="1111" 
d="M171 -375h-5q-71 5 -124 74q-91 114 -91 311q0 147 58 350q-53 86 -53 175q0 114 87 186q82 67 181 67q2 0 53 -1t121 -94q46 -61 69 -143q14 -67 14 -159t-3 -185q45 -2 89 -2q144 0 295 28.5t250 99.5q19 9 33 9q16 0 24 -14q3 -7 3 -13q0 -21 -32 -44
q-262 -129 -599 -129l-68 1q-12 -92 -31 -177q-44 -190 -138 -282q-63 -58 -133 -58zM402 210q4 60 4 114q0 126 -15 196q-11 43 -41 97q-49 87 -123 87q-7 0 -29 -2t-61 -38q-29 -29 -46 -86q-8 -27 -8 -55q0 -32 13 -87q71 -191 306 -226zM211 -275q65 0 109 109
q47 97 77 309q-173 20 -289 104q-31 -138 -31 -243q0 -68 13 -121q23 -80 52.5 -115.5t43 -39t25.5 -3.5z" />
    <glyph glyph-name="p" unicode="p" horiz-adv-x="1465" 
d="M149 -2419h-6q-42 0 -71 69q-46 140 -73.5 357t-36.5 376q-32 330 -32 740q0 137 9.5 501t121.5 1177q-4 5 -9 9q-35 31 -35 65q0 19 12 56t68 120q29 44 63 44q26 0 43.5 -18t17.5 -39v-6q-83 -536 -127 -1018t-56 -1053q38 538 126 907q155 653 487 906q37 26 69 26
q12 0 38.5 -8.5t51.5 -53.5t28 -101q1 -49 1 -104q0 -118 -8 -263q-9 -116 -9 -214q0 -205 32 -253q35 -49 84 -49q89 0 220 127q85 82 143 156q80 102 142 241l22 48q16 18 33 18q14 0 22.5 -7t8.5 -21v-9l-26 -46q-73 -131 -172 -255q-218 -281 -445 -332q-12 -2 -23 -2
q-30 0 -62.5 16.5t-53.5 48.5q-36 64 -42 148q-8 88 -8 186t8 205q10 136 10 256q0 52 -2 95q-4 48 -50 48q-35 0 -89.5 -50.5t-124.5 -171.5q-228 -394 -301 -958q-22 -170 -32 -303q-5 -59 -11 -114q-4 -138 -4 -265q0 -169 9 -373t29.5 -388t37.5 -282l18 -99
q0 -84 -46 -90z" />
    <glyph glyph-name="q" unicode="q" horiz-adv-x="1689" 
d="M890 -3140q-177 0 -307 227q-128 218 -199 693q-27 206 -27 421q0 488 129 1069q-100 68 -232 68h-7q-41 -22 -77 -43q-100 -63 -151 -63q-25 0 -47 20t-22 52q0 16 8 34q4 10 11 17q73 100 190 112l13 1q45 0 96 -14q56 30 110 55q82 36 196 103q164 573 243 778
l-67 -56q-144 -126 -237 -179q-160 -91 -302 -109q-18 -2 -36 -2q-143 0 -191 122q-11 31 -11 63q0 53 27 112q38 84 109 160q160 174 343 208q75 15 157 15q18 0 78.5 -2.5t148.5 -56.5q30 -20 60 -66q20 24 37 53l16 24q23 26 48 26q4 0 20 -1.5t33 -26.5q11 -16 11 -35
q0 -12 -4 -25l-52 -130q-52 -130 -127.5 -339t-153.5 -458q208 105 415 247.5t548 418.5q13 8 25 8q31 0 43 -32q3 -7 3 -13q0 -11 -9 -21q-524 -373 -1055 -694q-42 -156 -79 -324q330 -257 556 -707q123 -247 175 -526q27 -140 27 -283q0 -140 -26 -283
q-50 -257 -167 -428q-128 -186 -290 -190zM225 110q33 0 82 12q87 21 181 76q210 120 339 298q-35 -15 -58 -15q-6 0 -20 3q-29 6 -44 61q-6 17 -13 31q-16 32 -92 32q-115 0 -263 -85q-75 -44 -136 -107q-60 -66 -87 -126q-17 -44 -17 -84q0 -10 1 -16q24 -62 78 -75
q24 -5 49 -5zM501 -649l13 55q14 66 28 119q-43 -25 -107 -58q-51 -26 -82 -43q66 -20 148 -73zM929 -3018q117 0 202 117q49 70 93 174q86 202 86 497q0 409 -199 796q-162 315 -391 543q-68 68 -123 107q-70 -333 -102 -710q-13 -155 -13 -303q0 -210 26 -405
q67 -443 184 -650q90 -153 196 -163q21 -3 41 -3z" />
    <glyph glyph-name="r" unicode="r" horiz-adv-x="1210" 
d="M652 -513q-128 0 -176 140q-31 97 -47.5 228t-26.5 250q-3 40 -7 75q-2 47 -32.5 62t-116.5 27q-51 8 -128 22l-40 7q-46 6 -85 20t-72 54q-37 50 -37 109q0 25 15 84.5t101 109.5q33 17 63 17q77 0 102 -80q7 -19 7 -42q0 -39 -20 -87q-14 -36 -14 -60q0 -62 143 -66
q45 -2 89 -9q109 -17 133 -114q14 -54 20 -141v-5q21 -268 75 -433q26 -68 82 -68q5 0 40.5 3.5t98.5 71.5q222 240 373 616q26 52 54 52q23 0 23 -40v-12q-228 -468 -400 -663q-71 -76 -124 -106q-49 -22 -93 -22z" />
    <glyph glyph-name="s" unicode="s" horiz-adv-x="1292" 
d="M537 -630q-58 0 -94 34q-23 22 -30 55q-4 25 -4 50q0 109 67 219q57 83 104 129l-33 16q-33 15 -84 36q-124 46 -238 110q-230 128 -230 376q0 38 5 79q24 119 91 199t155 120t175 40q86 -1 175 -43t145 -121q36 -59 36 -158q0 -2 -0.5 -54t-48.5 -102l-11 -5
q-11 -5 -27 -8t-31 -3q-4 0 -16.5 1t-32.5 12.5t-36 38.5q-13 26 -13 51q0 24 16 60.5t40.5 69t24.5 60.5q0 12 -5 35.5t-45 48.5t-126 25q-63 0 -134.5 -36t-130.5 -101q-86 -97 -86 -231q0 -74 36.5 -144t126.5 -128.5t205 -102.5q84 -33 168 -72q349 272 648 407
q6 3 12 3q8 0 17 -7q13 -10 13 -27q0 -10 -8 -17q-360 -156 -625 -388l3 -1q108 -70 108 -212q0 -13 -3.5 -52.5t-28.5 -88.5q-34 -66 -85 -106q-83 -67 -165 -67zM523 -524q18 0 48 16t64 48.5t48.5 58t26.5 64.5q5 19 5 38q0 22 -9.5 55t-68.5 71q-84 -84 -114 -132
q-31 -52 -42 -120q-3 -18 -3 -32q0 -42 23 -61q10 -6 22 -6z" />
    <glyph glyph-name="t" unicode="t" horiz-adv-x="961" 
d="M245 -1028q-18 0 -65 11.5t-83 122.5q-38 134 -66 376q-34 284 -34 687q0 202 5 424q13 544 97 1115q8 43 17 160q-820 -68 -1044 -134l13 -11q8 -11 8 -19q0 -13 -11 -20q-33 -23 -112 -23q-15 0 -56.5 2.5t-95 21.5t-59.5 50q0 28 49 49q83 35 229 53q511 63 1087 99
q47 392 88 595q11 68 47 137.5t77 69.5q29 0 55 -60q7 -18 13 -42q10 -46 10 -152q0 -263 -72 -534q307 16 902 42q389 19 769 25q36 -13 36 -34q0 -15 -16 -35l-16 -16q-166 5 -345 5q-598 0 -1348 -53v-1l-1 -2q-27 -81 -61 -150q-22 -46 -44 -100q-10 -81 -20 -147
q-18 -119 -34 -288t-30 -521q-13 -302 -13 -551q0 -345 25 -589q20 -198 57 -384q6 -32 21 -68q19 -46 47 -46q30 0 97 69q103 104 311 502q152 292 286 723q6 11 20 11t25 -7t11 -17v-4q-221 -714 -550 -1175q-50 -72 -115 -124q-55 -43 -111 -43z" />
    <glyph glyph-name="u" unicode="u" horiz-adv-x="1565" 
d="M119 -306q-34 0 -68 15q-87 59 -87 260q0 124 71 569q-6 14 -6 27q0 42 36 73l11 9q28 22 52 22q33 0 53 -24q12 -14 12 -29l-42 -210q-57 -275 -57 -422q0 -183 75 -183q55 0 153 104q191 266 354 661q47 195 159 195q20 0 40 -8q18 -10 18 -47t-15 -82
q-11 -56 -26 -200q-7 -80 -7 -123q0 -320 213 -320h10q99 0 264 124q129 101 226 225q14 17 29 17q1 0 10.5 -0.5t15.5 -14.5q2 -4 2 -9q0 -13 -10 -25l-28 -34q-84 -101 -204 -192l-37 -29q-183 -149 -344 -149q-53 0 -108 26q-133 79 -166 255q-13 88 -13 193q0 33 2 78
l1 15q0 10 -3 10q-7 0 -40 -88q-37 -103 -240 -428q-164 -261 -306 -261z" />
    <glyph glyph-name="v" unicode="v" horiz-adv-x="1279" 
d="M310 -848h-7q-13 0 -23 3q-34 14 -53 45l-2 3q-76 118 -133 428q-52 278 -52 547q0 72 5 137q-38 0 -57 42q-8 18 -8 41q0 39 27.5 110.5t157.5 194.5q21 18 50 20q30 0 46 -21q8 -12 8 -33q0 -19 -7 -46l-17 -47q-71 -174 -79 -345q0 -295 50 -579q24 -154 61 -260
q9 -24 16 -36q15 -40 33 -40q13 0 36 26q35 41 106 225q33 84 90 234q93 251 204 515q119 287 155 366q96 211 234 415q82 122 163 193q25 14 43 14q31 0 31 -27q0 -9 -7.5 -32.5t-68.5 -79.5q-51 -49 -117 -144q-130 -186 -243 -429q-55 -118 -132 -300
q-163 -389 -316 -782q-104 -268 -129 -316q-9 -19 -35 -35q-14 -7 -30 -7z" />
    <glyph glyph-name="w" unicode="w" horiz-adv-x="1748" 
d="M980 -521h-6q-127 0 -201 150q-62 128 -99 285q-55 216 -72 271q-2 4 -3 9q-16 51 -27 62h-1q-13 0 -42 -40q-43 -52 -122 -184l-2 -3q-112 -187 -180 -225q-22 -12 -55 -12q-28 0 -52 15q-53 38 -74 101q-43 125 -43 339q0 279 68 492q23 73 59 126q36 57 104 76
q68 -10 81 -52q5 -16 5 -33q0 -28 -17.5 -70.5t-53.5 -83t-66 -47.5q-55 -162 -55 -411q0 -230 56 -314q17 -17 35 -17q10 0 29 9q35 18 92 110q5 9 10 16q117 176 152 264q13 33 28 53q18 24 51 24q92 0 142 -165q30 -98 74 -278q39 -155 90 -259q48 -89 95 -94
q115 5 193 173q79 161 157 497q100 443 100 913q0 128 -9 239v6q0 43 39 43q38 0 44 -33q5 -86 5 -174q0 -378 -124 -1016q-28 -151 -72 -281q-97 -283 -194 -399q-63 -77 -139 -82z" />
    <glyph glyph-name="x" unicode="x" horiz-adv-x="1882" 
d="M-482 -838q-2 0 -16.5 1t-24.5 25q-2 6 -2 12q0 21 22 50l26 16q71 46 231 207q208 210 533 629q-113 136 -153 171q-36 31 -82 31l-14 -1q-18 0 -42 15.5t-45 94t-22 181.5q5 58 44 84q17 11 32 11q38 0 123 -144q46 -85 204 -299q3 -3 9.5 -12t15 -18.5t13.5 -15.5
q91 77 479 557l387 483q19 12 34 12q19 0 32 -21q18 -28 18 -65q0 -11 -2 -23q-15 -55 -51 -86q-24 -20 -48 -20q-11 0 -23 5q-114 -124 -274.5 -306.5t-302 -350t-199.5 -245.5l5 -6q98 -123 224 -252t278 -207q60 -31 122 -31q31 0 93 15.5t156.5 83.5t185.5 156
q279 259 393 427q10 15 26 15q14 0 21 -12q3 -5 3 -12q0 -11 -7 -27q-161 -204 -403 -429q-335 -311 -529 -311q-51 0 -101 18q-244 88 -554 476l-767 -858q-22 -24 -48 -24z" />
    <glyph glyph-name="y" unicode="y" horiz-adv-x="1445" 
d="M-323 -2787q-83 0 -155 37q-97 53 -144 170q-40 95 -40 230q0 184 74 441q87 287 318 633q429 641 1057 1221q-33 331 -83 492q-14 47 -27 47q-25 0 -69 -83q-31 -57 -65 -125q-35 -72 -72.5 -140.5t-77 -127t-86.5 -100.5q-46 -44 -112 -53h-5q-67 0 -118 53
q-73 82 -84 190q-5 44 -5 87q0 62 10 122q15 102 35 172l20 70q3 16 22 26q8 4 18 4q11 0 28.5 -7t35.5 -48q12 -45 12 -109q0 -49 -10.5 -86.5t-34.5 -37.5h-2q-7 -50 -7 -97q0 -39 7.5 -99t44.5 -100q40 -36 78 -36q67 0 133 102q40 62 59 104q40 80 72 141q71 131 96 205
q14 41 30.5 71.5t47.5 48.5q14 9 33 9q17 0 37 -15q60 -56 105 -261q20 -99 46 -322q274 206 531 294q14 6 26 6q8 0 19.5 -5t10.5 -22q0 -17 -23 -32q-306 -114 -554 -308l5 -43l11 -118q17 -186 17 -419q0 -106 -7 -293t-57 -443t-154 -479q-215 -437 -480.5 -682
t-505.5 -280q-31 -5 -61 -5zM-337 -2662q26 0 57 4q118 16 277 120.5t322 298.5t293 476q137 316 178 699q26 248 26 495q0 143 -11 330l-6 114q-254 -216 -489 -481q-302 -344 -533.5 -700t-310.5 -616q-55 -201 -55 -349q0 -10 2.5 -92.5t37.5 -164.5q25 -65 89 -105
q48 -29 123 -29z" />
    <glyph glyph-name="z" unicode="z" horiz-adv-x="1424" 
d="M-171 -457q-17 0 -33 2t-33.5 9t-32 28.5t-14.5 44.5q0 54 47 103q117 129 564 420q121 78 245 147q195 109 328.5 210.5t133.5 151.5q0 9 -5.5 17t-35.5 8q-63 0 -224 -36q-342 -79 -519 -204q-17 -13 -17 -33q0 -13 4 -27.5t4 -28.5q-2 -33 -80 -45q-64 0 -99 3
q-64 5 -95 38q-16 20 -16 47q0 25 10 39l18 18q114 84 313.5 155t405.5 110q164 31 282 31q30 0 57 -2q67 -21 87 -78q3 -11 3 -20q0 -19 -8 -33q-62 -123 -287 -282q-194 -133 -436 -290q-246 -162 -420 -293l-26 -21q-87 -63 -87 -90q0 -18 42 -18q110 0 506 123l24 7
q255 76 486 91q36 3 72 3q62 0 140 -12t153 -61q19 -18 19 -33q0 -25 -30 -36q-9 -3 -18 -3q-10 0 -20 5q-41 29 -125 57q-74 24 -166 24q-86 0 -233 -23q-175 -29 -445 -121q-147 -52 -259 -77q-118 -25 -180 -25z" />
    <glyph glyph-name="braceleft" unicode="{" horiz-adv-x="1116" 
d="M963 3170q12 0 20 -4t8 -10q0 -16 -42 -24q-156 -35 -260 -136q-186 -179 -229 -530q-19 -154 -28 -314q-2 -41 -5 -81l-9 -136q-9 -141 -21 -269t-36 -233q-52 -230 -209 -280q226 -120 280 -355q31 -143 31 -326q0 -142 -8 -290q-9 -164 -9 -321t27 -292
q56 -261 322 -358q52 -25 53 -47q0 -20 -29 -27q-11 -3 -23 -3q-22 0 -49 9q-274 108 -337 419q-28 138 -28 324q0 140 8 285q1 6 1 13q8 147 8 288q0 15 -0.5 100.5t-30 216.5t-103 224t-210.5 140q-30 8 -30 23q0 8 10 16t29 8l25 -1q78 0 124 54q92 108 120 417
q12 128 21 270q18 301 46 490q27 176 85 328q126 337 449 408q17 4 29 4z" />
    <glyph glyph-name="bar" unicode="|" horiz-adv-x="1582" 
d="M825 -742q-32 0 -89 85q-23 1978 -38 3608q2 11 6 20q19 44 66 44q16 0 35 -5q43 -23 51 -67q-35 -1515 -35 -2399q0 -1013 46 -1196q-6 -90 -42 -90z" />
    <glyph glyph-name="braceright" unicode="}" horiz-adv-x="1116" 
d="M53 -866q-12 0 -20 3.5t-8 9.5q0 16 42 25q156 34 260 135q186 180 229 530q19 154 28 314q2 41 5 81l9 136q9 141 21 269.5t36 232.5q51 230 209 281q-226 119 -280 354q-31 143 -31 326q0 143 8 290q9 165 9 321q0 157 -27 292q-56 261 -322 358q-53 26 -53 48
q0 19 29 27q11 3 23 3q22 0 49 -10q273 -108 337 -418q28 -139 28 -324q0 -141 -8 -285q-1 -7 -1 -13q-8 -148 -8 -288q0 -16 0.5 -101.5t30 -216.5t103 -224t210.5 -139q30 -8 30 -23q0 -9 -10 -16.5t-29 -7.5l-25 1q-78 0 -124 -55q-93 -107 -121 -417q-11 -127 -20 -270
q-18 -301 -47 -490q-26 -176 -84 -328q-126 -337 -449 -408q-17 -3 -29 -3z" />
    <glyph glyph-name="asciitilde" unicode="~" horiz-adv-x="1443" 
d="M751 193q-97 5 -161.5 42t-107.5 77l-3 3q-46 40 -79 59.5t-59 19.5q-61 -9 -102.5 -40.5t-74.5 -68.5q-13 -15 -27 -28l-15 -2q-15 -3 -26 -3q-18 0 -30 12l9 19q27 58 61 97q78 98 218 117l23 1q73 0 129 -34q69 -43 95 -73q44 -38 92 -65q56 -31 121 -31q45 0 96 12
q75 19 138 97l43 59q15 2 24 2q18 0 30 -18l-10 -22q-29 -66 -84 -116q-124 -116 -300 -116z" />
    <glyph glyph-name="exclamdown" unicode="&#xa1;" horiz-adv-x="1091" 
d="M462 666q16 0 31 -24q-19 -114 -100 -2132q-12 -99 -35 -100q-65 14 -74 91q142 2078 162 2159q8 6 16 6zM465 1369q-56 0 -56 -81l-1 -8q0 -45 26 -66.5t58 -21.5q41 0 59.5 21t18.5 44q0 51 -43 87q-29 25 -62 25z" />
    <glyph glyph-name="sterling" unicode="&#xa3;" horiz-adv-x="2535" 
d="M382 -394q-38 0 -38 38q0 51 82 138q130 99 197 188.5t99 182.5q28 84 28 230q0 137 -60 395q-33 139 -56 264l-371 -19q-48 -60 -123 -60q-40 0 -87 21q-44 9 -44 55q0 63 66 77l555 5l-4 68q0 196 51 374q74 238 183 369t264 147q45 7 89 7q247 0 501 -232l4 -3
q3 -3 3 -12q0 -14 -27 -28q-21 -10 -67 -20q-101 29 -184 98q-68 51 -146 88q-58 25 -133 25q-164 0 -265 -166q-81 -134 -118 -263t-37 -371q0 -43 3 -76l702 21q74 -3 74 -23q0 -2 -5 -16t-84 -23l-678 -34q6 -37 43 -177q19 -69 26 -106q36 -172 36 -407
q-3 -93 -59.5 -231t-138.5 -231q178 134 349 210.5t279 87.5q74 9 162 9h77q158 -1 443 -164l71 -37q66 -52 66 -88q0 -38 -44 -38q-28 0 -73 19q-75 39 -138 77q-119 72 -213 106q-127 42 -274 42q-34 0 -144.5 -6t-291.5 -105q-127 -68 -392 -303l-105 -91
q-32 -12 -53 -12z" />
    <glyph glyph-name="copyright" unicode="&#xa9;" horiz-adv-x="1701" 
d="M1432 823q-48 664 -564 664q-272 0 -544 -225q-221 -257 -221 -532q0 -25 2 -51q60 -257 189.5 -371t348.5 -140q273 0 520 163q217 143 261 407q-175 -133 -395 -238q-247 -122 -466 -122q-27 0 -65 3t-79 23q-84 43 -119 135q-22 60 -22 125q0 134 115 296
q62 90 143 163q121 110 244 164q72 33 136 33q52 0 99 -31q14 -13 20 -27t6 -37q0 -14 -3 -28q-15 -94 -72 -180q-17 -22 -53 -22t-67 21.5t-34 63.5q1 38 62 106q23 26 23 30q0 1 -3 1q-11 0 -56 -22q-98 -43 -208 -142t-167 -219q-56 -108 -56 -179q0 -43 13 -85
q29 -79 83 -102q44 -18 97 -18l27 1q174 6 387 108q238 116 356 210q32 26 62 54zM650 31q-244 0 -432 201q-218 238 -218 554v34q33 304 253 522q255 252 564 252q304 0 519 -218.5t215 -532.5l-1 -23q-28 -288 -254.5 -491.5t-522.5 -285.5q-63 -12 -123 -12z" />
    <glyph glyph-name="ordfeminine" unicode="&#xaa;" horiz-adv-x="1173" 
d="M652 1778q-85 4 -123 90q-21 56 -21 126q0 108 17 160q6 20 6 25q0 1 -2 1q-1 0 -4 -5q-13 -21 -40 -58l-32 -45q-167 -241 -309 -241q-47 0 -86 25t-53 71q-5 18 -5 37q0 31 17.5 78t80.5 112q53 54 118 85q107 52 195 52q89 0 102 -54q0 4 26 41q12 16 16 18
q10 12 29 12l18 -2q17 -4 17 -36q0 -33 -19 -131q-14 -71 -14 -163q0 -28 4 -50q18 -103 92 -103q93 0 219 125q60 70 86 109q7 8 17 8q19 0 19 -13t-15 -28q-135 -173 -278 -231q-36 -13 -78 -15zM172 1913q34 2 62 17q116 64 214 237l10 17q-17 -5 -27 -5h-8
q-12 2 -23 21.5t-37 19.5h-3q-80 -18 -177 -115q-67 -67 -67 -130q0 -30 18 -49q13 -13 38 -13z" />
    <glyph glyph-name="registered" unicode="&#xae;" horiz-adv-x="1295" 
d="M477 1101q-109 0 -194 91q-98 107 -98 248q10 147 114 250q114 113 253 113q136 0 232.5 -98t96.5 -239v-11q-1 -1 -1 -3q-4 -88 -64 -127q-81 -46 -153 -46q-5 0 -45.5 2t-97.5 33q-47 27 -94 72q-11 -56 -19 -124l-19 -7q-9 -3 -20 -3q-16 0 -19 14q0 77 24 196
q31 132 88 189q9 4 15 4q10 0 14.5 -9t4.5 -19l-1 -11q28 24 75 43q21 9 42 9q24 0 48 -12q35 -26 35 -65t-31 -75.5t-71.5 -56t-78.5 -28.5q-12 -3 -18.5 -4t-12 -1.5t-11.5 -1.5q27 -30 75.5 -58.5t109.5 -28.5q22 0 46 4q104 18 104 110v11q0 274 -217 274
q-114 0 -220.5 -88t-108.5 -233q15 -133 68 -178t167 -45q79 0 150 34q24 19 57 19q21 0 33.5 -6.5t12.5 -15.5q0 -5 -3 -11q-92 -77 -213 -105q-28 -6 -55 -6zM458 1482q17 0 41 6q80 19 119 64q17 26 17 39q0 7 -1 10q-5 8 -25 8q-28 0 -70 -33q-52 -35 -81 -94z" />
    <glyph glyph-name="plusminus" unicode="&#xb1;" horiz-adv-x="1249" 
d="M622 -16q-15 0 -27 26q6 95 6 196q0 116 -8 239q-110 -3 -188 -3q-45 0 -139.5 1.5t-124.5 17.5q-23 11 -23 30t23 47q57 13 164 13q115 0 288 -15q-10 167 -10 281q0 100 8 159q15 14 36 14t47 -14q23 -57 23 -233q0 -98 -5 -209q130 -13 255 -13q83 0 164 6
q28 -15 28 -30q0 -16 -33 -32q-213 -17 -418 -17q0 -60 -32 -438q-18 -26 -34 -26zM390 -209q-166 0 -224 24q-28 17 -28 34t27 33q31 9 88 9q47 0 112 -6q135 -7 261 -7q63 0 124 1q243 5 302 5q29 0 35 -33l1 -8q0 -25 -40 -28q-5 1 -17 1q-36 0 -218 -8
q-262 -17 -423 -17z" />
    <glyph glyph-name="uni00B2" unicode="&#xb2;" horiz-adv-x="665" 
d="M490 1686q-11 0 -26 7q-48 29 -116 54q-87 31 -173 31q-55 0 -106 -13q-36 -9 -45 -9q-24 0 -24 22q0 17 21 40l39 33q111 92 206 199q122 138 122 203q0 8 -2.5 27t-33.5 32q-22 5 -41 5q-30 0 -63.5 -14.5t-62 -44t-43.5 -54.5l-14 -25q-7 -9 -22 -9t-25 10q-5 6 -5 15
q0 7 3 16l15 20q44 57 118 93q46 22 105 22q28 0 58 -7q74 -18 74 -87q0 -27 -12 -55q-40 -89 -127 -186q-117 -133 -199 -209q44 13 93 13h7q182 -13 284 -73q20 -14 20 -33q0 -13 -12 -20q-5 -3 -13 -3z" />
    <glyph glyph-name="uni00B3" unicode="&#xb3;" horiz-adv-x="606" 
d="M117 1681q-41 0 -76 18q-41 26 -41 78q0 30 15 66q17 24 37 24q12 0 19 -11q4 -6 4 -13q0 -10 -6 -22q-29 -38 -29 -51q0 -6 7 -19q11 -19 49 -26q10 -2 22 -2q17 0 38 5q74 22 147 85q95 83 95 181q0 119 -118 119q-23 0 -45.5 -6t-31.5 -6q-24 0 -24 18q0 15 16 31
l14 9q14 9 33 24q53 41 53 70q0 18 -31 27q-14 3 -27 3q-21 0 -42 -10q-41 -17 -63 -57l-19 -42q-6 -14 -21 -14t-26 11q-7 7 -7 17l1 10l13 22q50 85 150 99l13 1q54 0 91 -27q27 -22 27 -51q0 -20 -10.5 -37.5t-25.5 -32.5q-7 -6 -16.5 -12t-15.5 -10l16 1q79 0 130 -71
q24 -36 24 -89q0 -128 -104 -212q-77 -62 -163 -86q-38 -12 -72 -12z" />
    <glyph glyph-name="acute" unicode="&#xb4;" horiz-adv-x="819" 
d="M79 4020q-14 1 -21.5 10t-7.5 21q0 11 7 26q269 333 348 410q16 7 32 7q28 0 53.5 -19t25.5 -33q0 -11 -14 -19q-278 -266 -403 -400q-9 -3 -20 -3z" />
    <glyph glyph-name="uni00B9" unicode="&#xb9;" horiz-adv-x="477" 
d="M120 1651q-31 0 -33 24q5 170 52 356.5t116 309.5q-53 -48 -103 -110.5t-84 -111.5l-33 -49q-6 -13 -15 -13q-12 0 -18 17q-2 5 -2 10q0 10 7 21l32 48q33 47 98 112t161 124q3 2 6 2q4 0 10 -3q11 -5 11 -17q0 -6 -5 -13q-71 -96 -114.5 -283.5t-48.5 -400.5
q-3 -13 -19 -20q-9 -3 -18 -3z" />
    <glyph glyph-name="ordmasculine" unicode="&#xba;" horiz-adv-x="531" 
d="M151 1654q-64 0 -104 64q-47 72 -47 179q0 127 113 345q2 2 3 5l-4 13l12 2q2 8 5 11.5t4 6.5q12 23 29 43l6 1q7 0 16 -7q17 -15 17 -33q0 -6 -3 -11q-1 0 -1 -0.5t-1 -1.5q67 -4 111 -46q74 -79 74 -192q0 -99 -44 -203q-23 -55 -57 -99q-59 -77 -129 -77zM173 1703
q11 0 21 4q39 18 61 53t42.5 84.5t30.5 105.5q8 44 8 79q0 51 -18 102q-14 40 -38 64q-40 39 -85 39l-18 -1l-12 -22q-49 -87 -80 -179q-26 -74 -26 -133q0 -142 79 -185q18 -11 35 -11z" />
    <glyph glyph-name="questiondown" unicode="&#xbf;" horiz-adv-x="2011" 
d="M947 549h5q17 0 28 -14q3 -5 4 -11q0 -8 -5 -18l-98 -146q-99 -146 -235 -379q-337 -576 -440 -1017q-45 -205 -45 -377q0 -524 436 -596q21 -3 45 -3q69 0 212 28q126 23 184 23q75 0 75 -49q0 -19 -10 -34q-20 -26 -196 -42q-114 -11 -214 -11q-67 0 -127 5
q-222 36 -346 177q-155 179 -155 498q0 389 232 887q225 479 524 913l104 153q9 12 22 13zM1036 1342q50 0 73 -49q11 -23 11 -48q0 -66 -76 -90q-27 -8 -46 -8q-61 0 -61 76q0 64 49 101q24 18 50 18z" />
    <glyph glyph-name="Agrave" unicode="&#xc0;" horiz-adv-x="4042" 
d="M164 -2553q-14 0 -36 7q-52 17 -52 83q0 203 451 1404q8 25 16.5 46t17.5 44q3 30 8 62q7 42 9 79q0 250 -63 485q-48 176 -134 299q-18 26 -53 59q-206 -15 -240 -15q-53 0 -86 7q-35 4 -58 37q-12 17 -12 45q0 8 2 15q10 23 21 31l1 2q92 79 191 80q111 0 206 -83
q63 -12 115 -12q28 0 57 5q227 10 464 55q117 304 248 648q98 260 161 423q710 1827 1530 2490q157 129 301 129q121 0 189 -120q21 -55 23 -144q0 -33 -24 -73q-14 -21 -43 -38q-17 -10 -38 -10q-15 0 -37 6t-53 59q-13 24 -13 55q0 30 11 72q9 29 9 51q0 39 -44 39
q-67 0 -191 -99q-386 -314 -770 -963.5t-736 -1558.5l-373 -960q311 28 654 78q178 25 633 79q310 34 589 74q-4 272 -4 527q0 332 7 635q20 905 74 1565l19 226q12 47 48 47q22 0 45 -17t32 -49q9 -25 18 -95q7 -43 7 -75q0 -31 -4.5 -73.5t-43.5 -42.5
q-91 -1071 -91 -2251q0 -189 2 -381q224 23 567.5 81.5t346.5 58.5q44 0 44 -33q0 -28 -42 -39l-916 -131q0 -149 -1 -284q-1 -72 -1 -148q0 -198 9 -426q17 -355 77 -835q10 -63 39 -129q46 -116 50 -193q0 -36 -31 -67q-28 -26 -57 -26q-8 0 -26 3t-31 76
q-115 940 -139 2012q-318 -46 -676 -91l-484 -63q-513 -71 -744 -101q-293 -747 -453 -1173q-38 -464 -159 -838q-210 -634 -333 -642zM649 -741q73 192 143 394q78 225 157 433q-104 -13 -211 -28q-142 -22 -305 -38q53 -65 100 -204.5t79 -294.5q30 -151 37 -262z
M3128 4040q-11 0 -20 3q-125 134 -403 400q-14 8 -14 19q0 14 25.5 33t53.5 19q16 0 32 -7q79 -77 348 -410q7 -15 7 -26q0 -12 -7.5 -21t-21.5 -10z" />
    <glyph glyph-name="Aacute" unicode="&#xc1;" horiz-adv-x="4042" 
d="M164 -2553q-14 0 -36 7q-52 17 -52 83q0 203 451 1404q8 25 16.5 46t17.5 44q3 30 8 62q7 42 9 79q0 250 -63 485q-48 176 -134 299q-18 26 -53 59q-206 -15 -240 -15q-53 0 -86 7q-35 4 -58 37q-12 17 -12 45q0 8 2 15q10 23 21 31l1 2q92 79 191 80q111 0 206 -83
q63 -12 115 -12q28 0 57 5q227 10 464 55q117 304 248 648q98 260 161 423q710 1827 1530 2490q157 129 301 129q121 0 189 -120q21 -55 23 -144q0 -33 -24 -73q-14 -21 -43 -38q-17 -10 -38 -10q-15 0 -37 6t-53 59q-13 24 -13 55q0 30 11 72q9 29 9 51q0 39 -44 39
q-67 0 -191 -99q-386 -314 -770 -963.5t-736 -1558.5l-373 -960q311 28 654 78q178 25 633 79q310 34 589 74q-4 272 -4 527q0 332 7 635q20 905 74 1565l19 226q12 47 48 47q22 0 45 -17t32 -49q9 -25 18 -95q7 -43 7 -75q0 -31 -4.5 -73.5t-43.5 -42.5
q-91 -1071 -91 -2251q0 -189 2 -381q224 23 567.5 81.5t346.5 58.5q44 0 44 -33q0 -28 -42 -39l-916 -131q0 -149 -1 -284q-1 -72 -1 -148q0 -198 9 -426q17 -355 77 -835q10 -63 39 -129q46 -116 50 -193q0 -36 -31 -67q-28 -26 -57 -26q-8 0 -26 3t-31 76
q-115 940 -139 2012q-318 -46 -676 -91l-484 -63q-513 -71 -744 -101q-293 -747 -453 -1173q-38 -464 -159 -838q-210 -634 -333 -642zM649 -741q73 192 143 394q78 225 157 433q-104 -13 -211 -28q-142 -22 -305 -38q53 -65 100 -204.5t79 -294.5q30 -151 37 -262z
M3221 4040q-14 1 -21 10t-7 21q0 11 6 26q269 333 348 410q16 7 32 7q28 0 54 -19t26 -33q0 -11 -15 -19q-278 -266 -403 -400q-9 -3 -20 -3z" />
    <glyph glyph-name="Acircumflex" unicode="&#xc2;" horiz-adv-x="4042" 
d="M164 -2553q-14 0 -36 7q-52 17 -52 83q0 203 451 1404q8 25 16.5 46t17.5 44q3 30 8 62q7 42 9 79q0 250 -63 485q-48 176 -134 299q-18 26 -53 59q-206 -15 -240 -15q-53 0 -86 7q-35 4 -58 37q-12 17 -12 45q0 8 2 15q10 23 21 31l1 2q92 79 191 80q111 0 206 -83
q63 -12 115 -12q28 0 57 5q227 10 464 55q117 304 248 648q98 260 161 423q710 1827 1530 2490q157 129 301 129q121 0 189 -120q21 -55 23 -144q0 -33 -24 -73q-14 -21 -43 -38q-17 -10 -38 -10q-15 0 -37 6t-53 59q-13 24 -13 55q0 30 11 72q9 29 9 51q0 39 -44 39
q-67 0 -191 -99q-386 -314 -770 -963.5t-736 -1558.5l-373 -960q311 28 654 78q178 25 633 79q310 34 589 74q-4 272 -4 527q0 332 7 635q20 905 74 1565l19 226q12 47 48 47q22 0 45 -17t32 -49q9 -25 18 -95q7 -43 7 -75q0 -31 -4.5 -73.5t-43.5 -42.5
q-91 -1071 -91 -2251q0 -189 2 -381q224 23 567.5 81.5t346.5 58.5q44 0 44 -33q0 -28 -42 -39l-916 -131q0 -149 -1 -284q-1 -72 -1 -148q0 -198 9 -426q17 -355 77 -835q10 -63 39 -129q46 -116 50 -193q0 -36 -31 -67q-28 -26 -57 -26q-8 0 -26 3t-31 76
q-115 940 -139 2012q-318 -46 -676 -91l-484 -63q-513 -71 -744 -101q-293 -747 -453 -1173q-38 -464 -159 -838q-210 -634 -333 -642zM649 -741q73 192 143 394q78 225 157 433q-104 -13 -211 -28q-142 -22 -305 -38q53 -65 100 -204.5t79 -294.5q30 -151 37 -262z
M3398 4045q-22 0 -45 28q-231 257 -266 257q-6 0 -10 -4q-37 -11 -316 -280h-5q-10 0 -21.5 10.5t-11.5 28.5l1 8q341 347 387 347h6q37 0 186 -149.5t154 -183.5q0 -26 -28 -49q-15 -13 -31 -13z" />
    <glyph glyph-name="Atilde" unicode="&#xc3;" horiz-adv-x="4042" 
d="M164 -2553q-14 0 -36 7q-52 17 -52 83q0 203 451 1404q8 25 16.5 46t17.5 44q3 30 8 62q7 42 9 79q0 250 -63 485q-48 176 -134 299q-18 26 -53 59q-206 -15 -240 -15q-53 0 -86 7q-35 4 -58 37q-12 17 -12 45q0 8 2 15q10 23 21 31l1 2q92 79 191 80q111 0 206 -83
q63 -12 115 -12q28 0 57 5q227 10 464 55q117 304 248 648q98 260 161 423q710 1827 1530 2490q157 129 301 129q121 0 189 -120q21 -55 23 -144q0 -33 -24 -73q-14 -21 -43 -38q-17 -10 -38 -10q-15 0 -37 6t-53 59q-13 24 -13 55q0 30 11 72q9 29 9 51q0 39 -44 39
q-67 0 -191 -99q-386 -314 -770 -963.5t-736 -1558.5l-373 -960q311 28 654 78q178 25 633 79q310 34 589 74q-4 272 -4 527q0 332 7 635q20 905 74 1565l19 226q12 47 48 47q22 0 45 -17t32 -49q9 -25 18 -95q7 -43 7 -75q0 -31 -4.5 -73.5t-43.5 -42.5
q-91 -1071 -91 -2251q0 -189 2 -381q224 23 567.5 81.5t346.5 58.5q44 0 44 -33q0 -28 -42 -39l-916 -131q0 -149 -1 -284q-1 -72 -1 -148q0 -198 9 -426q17 -355 77 -835q10 -63 39 -129q46 -116 50 -193q0 -36 -31 -67q-28 -26 -57 -26q-8 0 -26 3t-31 76
q-115 940 -139 2012q-318 -46 -676 -91l-484 -63q-513 -71 -744 -101q-293 -747 -453 -1173q-38 -464 -159 -838q-210 -634 -333 -642zM649 -741q73 192 143 394q78 225 157 433q-104 -13 -211 -28q-142 -22 -305 -38q53 -65 100 -204.5t79 -294.5q30 -151 37 -262z
M3138 4112q-111 0 -189 61q-64 50 -108 105q-86 105 -136 108q-66 -8 -112 -44.5t-84 -79.5q-15 -19 -29.5 -35.5t-37.5 -16.5q-39 0 -39 23v2q97 247 321 251q90 0 188 -93q78 -81 135 -125q73 -59 140 -59q32 0 93 18q88 28 185 159q8 7 18 7q36 0 36 -26v-4
q-20 -64 -82 -124q-131 -127 -299 -127z" />
    <glyph glyph-name="Adieresis" unicode="&#xc4;" horiz-adv-x="4042" 
d="M164 -2553q-14 0 -36 7q-52 17 -52 83q0 203 451 1404q8 25 16.5 46t17.5 44q3 30 8 62q7 42 9 79q0 250 -63 485q-48 176 -134 299q-18 26 -53 59q-206 -15 -240 -15q-53 0 -86 7q-35 4 -58 37q-12 17 -12 45q0 8 2 15q10 23 21 31l1 2q92 79 191 80q111 0 206 -83
q63 -12 115 -12q28 0 57 5q227 10 464 55q117 304 248 648q98 260 161 423q710 1827 1530 2490q157 129 301 129q121 0 189 -120q21 -55 23 -144q0 -33 -24 -73q-14 -21 -43 -38q-17 -10 -38 -10q-15 0 -37 6t-53 59q-13 24 -13 55q0 30 11 72q9 29 9 51q0 39 -44 39
q-67 0 -191 -99q-386 -314 -770 -963.5t-736 -1558.5l-373 -960q311 28 654 78q178 25 633 79q310 34 589 74q-4 272 -4 527q0 332 7 635q20 905 74 1565l19 226q12 47 48 47q22 0 45 -17t32 -49q9 -25 18 -95q7 -43 7 -75q0 -31 -4.5 -73.5t-43.5 -42.5
q-91 -1071 -91 -2251q0 -189 2 -381q224 23 567.5 81.5t346.5 58.5q44 0 44 -33q0 -28 -42 -39l-916 -131q0 -149 -1 -284q-1 -72 -1 -148q0 -198 9 -426q17 -355 77 -835q10 -63 39 -129q46 -116 50 -193q0 -36 -31 -67q-28 -26 -57 -26q-8 0 -26 3t-31 76
q-115 940 -139 2012q-318 -46 -676 -91l-484 -63q-513 -71 -744 -101q-293 -747 -453 -1173q-38 -464 -159 -838q-210 -634 -333 -642zM649 -741q73 192 143 394q78 225 157 433q-104 -13 -211 -28q-142 -22 -305 -38q53 -65 100 -204.5t79 -294.5q30 -151 37 -262z
M2673 4124q-45 0 -66 44q-10 21 -10 44q0 60 93 140q22 17 45 17v-12q0 -42 18 -81q10 -21 10 -44q0 -58 -44 -92q-22 -16 -46 -16zM3181 4127q-45 0 -66 44q-10 21 -10 44q0 60 93 140q22 17 45 17v-12q0 -42 18 -81q10 -21 10 -44q0 -58 -44 -92q-22 -16 -46 -16z" />
    <glyph glyph-name="Aring" unicode="&#xc5;" horiz-adv-x="4042" 
d="M164 -2553q-14 0 -36 7q-52 17 -52 83q0 203 451 1404q8 25 16.5 46t17.5 44q3 30 8 62q7 42 9 79q0 250 -63 485q-48 176 -134 299q-18 26 -53 59q-206 -15 -240 -15q-53 0 -86 7q-35 4 -58 37q-12 17 -12 45q0 8 2 15q10 23 21 31l1 2q92 79 191 80q111 0 206 -83
q63 -12 115 -12q28 0 57 5q227 10 464 55q117 304 248 648q98 260 161 423q710 1827 1530 2490q157 129 301 129q121 0 189 -120q21 -55 23 -144q0 -33 -24 -73q-14 -21 -43 -38q-17 -10 -38 -10q-15 0 -37 6t-53 59q-13 24 -13 55q0 30 11 72q9 29 9 51q0 39 -44 39
q-67 0 -191 -99q-386 -314 -770 -963.5t-736 -1558.5l-373 -960q311 28 654 78q178 25 633 79q310 34 589 74q-4 272 -4 527q0 332 7 635q20 905 74 1565l19 226q12 47 48 47q22 0 45 -17t32 -49q9 -25 18 -95q7 -43 7 -75q0 -31 -4.5 -73.5t-43.5 -42.5
q-91 -1071 -91 -2251q0 -189 2 -381q224 23 567.5 81.5t346.5 58.5q44 0 44 -33q0 -28 -42 -39l-916 -131q0 -149 -1 -284q-1 -72 -1 -148q0 -198 9 -426q17 -355 77 -835q10 -63 39 -129q46 -116 50 -193q0 -36 -31 -67q-28 -26 -57 -26q-8 0 -26 3t-31 76
q-115 940 -139 2012q-318 -46 -676 -91l-484 -63q-513 -71 -744 -101q-293 -747 -453 -1173q-38 -464 -159 -838q-210 -634 -333 -642zM649 -741q73 192 143 394q78 225 157 433q-104 -13 -211 -28q-142 -22 -305 -38q53 -65 100 -204.5t79 -294.5q30 -151 37 -262z
M3056 3973q-78 0 -137 64q-70 76 -70 176q2 99 82 178t178 79q97 0 165.5 -69.5t68.5 -169.5q-2 -91 -82 -163q-72 -65 -166 -91q-20 -4 -39 -4zM3068 4052q79 0 146.5 46t67.5 125q0 173 -149 173q-78 0 -147 -65t-69 -143q0 -79 36.5 -107.5t114.5 -28.5z" />
    <glyph glyph-name="AE" unicode="&#xc6;" horiz-adv-x="7230" 
d="M3649 -2879q-295 0 -565 146q-258 148 -376 377.5t-118 505.5q0 290 82 637q80 343 246 665q87 164 181 313q4 180 12 355q-320 -40 -681 -79q-460 -51 -755 -87q-256 -31 -481 -55l-150 -330q-192 -418 -377 -836q-64 -454 -212 -836q-154 -394 -272 -559
q-34 -45 -59 -62q-21 -15 -43 -15q-43 0 -67 30q-14 23 -14 45v9q0 90 120 400q155 403 420 1005l40 89q4 30 12 61q17 73 17 211q0 178 -36.5 355.5t-113.5 301.5q-19 28 -39 47l-11 13l-68 -5q-90 -6 -148 -7q-83 0 -116 11q-28 3 -49 36q-9 15 -9 36q0 14 4 25
q10 23 22 31l2 1q94 77 191 77q113 0 204 -88q63 -12 116 -12q23 0 44 2h12q244 10 465 48q137 303 289 644l188 420q825 1817 1686 2465q160 124 306 124q123 0 183 -124q15 -48 15 -111q-1 -102 -72 -142q-19 -11 -41 -11q-9 0 -30.5 4t-49.5 50v-19q0 -144 -58 -144
q-36 -258 -92 -772q141 211 381 371q375 254 908 398q471 125 849 125q351 0 491 -119q77 -65 77 -180q0 -103 -54 -176q-25 -34 -42 -46t-43 -20q-11 -4 -26 -10t-33 -6q-58 0 -89 48q-13 21 -13 51q0 17 4 37q13 49 37.5 79t49 51t41 42.5t16.5 52.5q-6 48 -110 69
q-111 23 -264 23q-173 0 -396 -39.5t-461.5 -104.5t-475.5 -167t-423 -227q-158 -106 -277 -227t-172 -258q-10 -92 -19 -189q36 -119 180 -219q75 -51 182 -82t230 -57q301 -64 574 -99q56 -6 150 -21q150 -22 236 -28q31 4 56 4q44 0 80.5 -15.5t50.5 -43.5q7 -13 7 -23
t-7 -17q-27 -24 -78 -41l-51 -16q-341 -173 -669 -424t-638 -613l482 72q45 0 45 -32q0 -30 -44 -40l-539 -68q-277 -336 -535 -791q-171 -309 -261 -640q-92 -335 -92 -609q0 -162 37.5 -315t127 -282t242.5 -215q269 -144 542 -144q37 0 211 12t498.5 162t658.5 400
q604 452 1224 1150q275 309 487 587q317 424 483 821q9 22 30 22t36 -18q10 -10 10 -24q0 -6 -3 -14q-48 -109 -179 -330q-272 -457 -829 -1093q-614 -701 -1227 -1157q-732 -544 -1349 -581q-34 -2 -69 -2zM1231 -15q337 26 705 72q318 36 588 62q311 30 592 65
q72 1451 240 2793l58 469q15 47 53 47q20 0 43 -18t31 -68h2q4 18 10 35q12 33 12 57q0 22 -24 32q-8 2 -22 2q-65 0 -193 -95q-404 -308 -828.5 -951t-834.5 -1547l-54 -119q-81 -181 -184 -407.5t-194 -428.5zM3227 197q87 8 197 21q566 685 1385 1091q-127 29 -303 54
q-516 63 -801 166q-257 93 -362 251q-74 -764 -116 -1583zM3210 -66q78 113 161 219l-149 -19zM682 -936q84 192 167 393q93 224 185 431q-104 -11 -212 -25q-129 -17 -232 -26l-76 -6q50 -66 88 -207t59.5 -296t20.5 -264z" />
    <glyph glyph-name="Ccedilla" unicode="&#xc7;" horiz-adv-x="3946" 
d="M1784 2565q78 0 290.5 11.5t495.5 76.5q384 84 607 189l17 9q83 42 134 79q44 32 44 67q0 36 -54 70q-149 94 -579 94q-254 0 -509 -40q-548 -112 -998 -505q280 -51 552 -51zM1452 -1895q-80 -160 -80 -196q0 -11 7 -11q8 0 25 15q85 80 139 80q26 0 50 -18
q37 -28 39 -78q-1 -64 -26.5 -122t-64.5 -96q-56 -57 -130 -69h-8q-80 0 -85 63q0 16 14 33q7 11 21 11q23 0 62 -29q13 0 33.5 3t43 24.5t40.5 70.5q12 31 12 61q0 18 -4 36q-2 5 -14 15t-33 10q-27 0 -73 -39q-20 -20 -41.5 -40.5t-45.5 -20.5q-54 0 -54 60q0 23 8 55
q32 104 71 189q-179 20 -350 89q-241 97 -442 302q-406 414 -533 1167q-33 212 -33 434q0 306 85.5 750.5t365.5 964.5q229 410 562 735q-35 7 -102 16q-292 35 -337 81l-3 8q-7 13 -7 29q0 7 2.5 17.5t14 23t35.5 20.5q26 15 75 21q13 2 27 2q39 0 97.5 -17.5t136.5 -82.5
q93 -19 147 -29q492 454 1102 579q200 39 456 39q367 0 587 -76q157 -55 180 -153q2 -10 2 -20q0 -108 -245 -228q-233 -118 -619 -207q-307 -70 -670 -89q-90 -5 -180 -5q-278 0 -566 44q-345 -325 -581 -751q-272 -507 -378 -1056q-62 -320 -62 -619q0 -214 32 -417
q115 -674 535 -1096q186 -190 414 -290q204 -89 433 -89l55 1q436 27 860 297.5t804 735.5t687 1076q20 32 42 32q2 0 15 -1.5t26 -26.5q6 -12 6 -24q0 -15 -8 -31q-394 -729 -813 -1201.5t-836 -707.5q-452 -255 -873 -255q-26 0 -52 1z" />
    <glyph glyph-name="Egrave" unicode="&#xc8;" horiz-adv-x="4650" 
d="M1055 -2869q-294 0 -562 146q-258 148 -377 379q-116 225 -116 498q0 299 80.5 642.5t246.5 664.5q361 675 838 1125t1053 732q-106 25 -266 49l-37 5q-518 64 -801 166q-293 106 -388 297q-39 77 -39 169q0 35 6 73q67 379 500 671q377 254 908 397q467 125 844 125
l56 -1q309 -6 440 -117q77 -66 77 -181q0 -103 -54 -176q-24 -34 -41.5 -46t-43.5 -20q-11 -4 -26.5 -10t-32.5 -6q-58 0 -89 48q-13 21 -13 51q0 17 4 37q13 49 37.5 79.5t49 51t41 42t16.5 52.5q-6 48 -110 69q-110 23 -264 23q-174 0 -396.5 -39t-461 -104.5t-475.5 -167
t-422 -227.5q-186 -123 -314.5 -266t-159.5 -309q-3 -20 -3 -39q0 -78 52 -149q108 -151 318 -212q102 -30 286 -69q305 -63 554 -91q281 -40 350 -45q31 4 56 4q44 0 81 -15.5t50 -42.5q7 -14 7 -24t-7 -17q-27 -24 -78 -41l-51 -16q-339 -172 -666 -421
q-697 -532 -1232 -1475q-171 -309 -261 -640q-92 -339 -92 -609q0 -583 407 -812q269 -144 542 -144q37 0 211 12.5t497 162.5q326 149 660 398.5t641 545.5q593 568 1071 1192q317 426 482 821q9 23 28 23q3 0 14 -1.5t24 -17.5q9 -10 9 -23q0 -7 -2 -14
q-48 -110 -179.5 -331t-344.5 -502t-484.5 -591t-582.5 -609.5t-644.5 -547.5t-674.5 -404t-674 -176q-36 -2 -72 -2zM2441 3599q-11 0 -20 3q-125 134 -403 400q-15 8 -15 19q0 14 26 33t54 19q16 0 32 -7q79 -77 348 -410q6 -15 6 -26q0 -12 -7 -21t-21 -10z" />
    <glyph glyph-name="Eacute" unicode="&#xc9;" horiz-adv-x="4650" 
d="M1055 -2869q-294 0 -562 146q-258 148 -377 379q-116 225 -116 498q0 299 80.5 642.5t246.5 664.5q361 675 838 1125t1053 732q-106 25 -266 49l-37 5q-518 64 -801 166q-293 106 -388 297q-39 77 -39 169q0 35 6 73q67 379 500 671q377 254 908 397q467 125 844 125
l56 -1q309 -6 440 -117q77 -66 77 -181q0 -103 -54 -176q-24 -34 -41.5 -46t-43.5 -20q-11 -4 -26.5 -10t-32.5 -6q-58 0 -89 48q-13 21 -13 51q0 17 4 37q13 49 37.5 79.5t49 51t41 42t16.5 52.5q-6 48 -110 69q-110 23 -264 23q-174 0 -396.5 -39t-461 -104.5t-475.5 -167
t-422 -227.5q-186 -123 -314.5 -266t-159.5 -309q-3 -20 -3 -39q0 -78 52 -149q108 -151 318 -212q102 -30 286 -69q305 -63 554 -91q281 -40 350 -45q31 4 56 4q44 0 81 -15.5t50 -42.5q7 -14 7 -24t-7 -17q-27 -24 -78 -41l-51 -16q-339 -172 -666 -421
q-697 -532 -1232 -1475q-171 -309 -261 -640q-92 -339 -92 -609q0 -583 407 -812q269 -144 542 -144q37 0 211 12.5t497 162.5q326 149 660 398.5t641 545.5q593 568 1071 1192q317 426 482 821q9 23 28 23q3 0 14 -1.5t24 -17.5q9 -10 9 -23q0 -7 -2 -14
q-48 -110 -179.5 -331t-344.5 -502t-484.5 -591t-582.5 -609.5t-644.5 -547.5t-674.5 -404t-674 -176q-36 -2 -72 -2zM2356 3589q-14 1 -21.5 10t-7.5 21q0 11 7 26q269 333 348 410q16 7 32 7q28 0 53.5 -19t25.5 -33q0 -11 -14 -19q-278 -266 -403 -400q-9 -3 -20 -3z" />
    <glyph glyph-name="Ecircumflex" unicode="&#xca;" horiz-adv-x="4650" 
d="M1055 -2869q-294 0 -562 146q-258 148 -377 379q-116 225 -116 498q0 299 80.5 642.5t246.5 664.5q361 675 838 1125t1053 732q-106 25 -266 49l-37 5q-518 64 -801 166q-293 106 -388 297q-39 77 -39 169q0 35 6 73q67 379 500 671q377 254 908 397q467 125 844 125
l56 -1q309 -6 440 -117q77 -66 77 -181q0 -103 -54 -176q-24 -34 -41.5 -46t-43.5 -20q-11 -4 -26.5 -10t-32.5 -6q-58 0 -89 48q-13 21 -13 51q0 17 4 37q13 49 37.5 79.5t49 51t41 42t16.5 52.5q-6 48 -110 69q-110 23 -264 23q-174 0 -396.5 -39t-461 -104.5t-475.5 -167
t-422 -227.5q-186 -123 -314.5 -266t-159.5 -309q-3 -20 -3 -39q0 -78 52 -149q108 -151 318 -212q102 -30 286 -69q305 -63 554 -91q281 -40 350 -45q31 4 56 4q44 0 81 -15.5t50 -42.5q7 -14 7 -24t-7 -17q-27 -24 -78 -41l-51 -16q-339 -172 -666 -421
q-697 -532 -1232 -1475q-171 -309 -261 -640q-92 -339 -92 -609q0 -583 407 -812q269 -144 542 -144q37 0 211 12.5t497 162.5q326 149 660 398.5t641 545.5q593 568 1071 1192q317 426 482 821q9 23 28 23q3 0 14 -1.5t24 -17.5q9 -10 9 -23q0 -7 -2 -14
q-48 -110 -179.5 -331t-344.5 -502t-484.5 -591t-582.5 -609.5t-644.5 -547.5t-674.5 -404t-674 -176q-36 -2 -72 -2zM2643 3624q-22 0 -45 28q-231 257 -266 257q-6 0 -10 -4q-37 -11 -316 -280h-5q-10 0 -21.5 10.5t-11.5 28.5l1 8q341 347 387 347h6q37 0 186 -149.5
t154 -183.5q0 -26 -28 -49q-15 -13 -31 -13z" />
    <glyph glyph-name="Edieresis" unicode="&#xcb;" horiz-adv-x="4650" 
d="M1055 -2869q-294 0 -562 146q-258 148 -377 379q-116 225 -116 498q0 299 80.5 642.5t246.5 664.5q361 675 838 1125t1053 732q-106 25 -266 49l-37 5q-518 64 -801 166q-293 106 -388 297q-39 77 -39 169q0 35 6 73q67 379 500 671q377 254 908 397q467 125 844 125
l56 -1q309 -6 440 -117q77 -66 77 -181q0 -103 -54 -176q-24 -34 -41.5 -46t-43.5 -20q-11 -4 -26.5 -10t-32.5 -6q-58 0 -89 48q-13 21 -13 51q0 17 4 37q13 49 37.5 79.5t49 51t41 42t16.5 52.5q-6 48 -110 69q-110 23 -264 23q-174 0 -396.5 -39t-461 -104.5t-475.5 -167
t-422 -227.5q-186 -123 -314.5 -266t-159.5 -309q-3 -20 -3 -39q0 -78 52 -149q108 -151 318 -212q102 -30 286 -69q305 -63 554 -91q281 -40 350 -45q31 4 56 4q44 0 81 -15.5t50 -42.5q7 -14 7 -24t-7 -17q-27 -24 -78 -41l-51 -16q-339 -172 -666 -421
q-697 -532 -1232 -1475q-171 -309 -261 -640q-92 -339 -92 -609q0 -583 407 -812q269 -144 542 -144q37 0 211 12.5t497 162.5q326 149 660 398.5t641 545.5q593 568 1071 1192q317 426 482 821q9 23 28 23q3 0 14 -1.5t24 -17.5q9 -10 9 -23q0 -7 -2 -14
q-48 -110 -179.5 -331t-344.5 -502t-484.5 -591t-582.5 -609.5t-644.5 -547.5t-674.5 -404t-674 -176q-36 -2 -72 -2zM2173 3614q-45 0 -66 44q-10 21 -10 44q0 60 93 140q22 17 45 17v-12q0 -42 18 -81q10 -21 10 -44q0 -58 -44 -92q-22 -16 -46 -16zM2681 3617
q-45 0 -66 44q-10 21 -10 44q0 60 93 140q22 17 45 17v-12q0 -42 18 -81q10 -21 10 -44q0 -58 -44 -92q-22 -16 -46 -16z" />
    <glyph glyph-name="Igrave" unicode="&#xcc;" horiz-adv-x="2056" 
d="M1376 -2205q-38 0 -80 42q-66 87 -99 213q-52 193 -52 519q0 481 129 1354q74 506 174 1113q83 510 146 981q84 628 84 1016q0 267 -42 444q-29 116 -81.5 207.5t-111.5 112.5q-24 8 -53 8q-52 0 -141 -30.5t-221 -147.5q-132 -123 -266 -320t-254 -432
q-192 -373 -296 -859q-85 -398 -85 -815q0 -93 4 -186q101 -158 119 -303q6 -51 6 -95q0 -143 -60 -201q-28 -28 -60 -28q-30 0 -49 49q-87 381 -87 747q0 74 12.5 329t124 646.5t279.5 714.5q256 486 547 752q251 234 452 234q44 0 86 -12q101 -32 164 -122
q138 -200 138 -690q0 -83 -4 -173q-31 -802 -194 -1849q-70 -426 -145 -837q-107 -569 -177 -1066q-56 -370 -56 -569q0 -100 12 -199q23 -161 57.5 -232.5t68.5 -106.5q25 -28 43 -63q21 -49 21 -83q0 -62 -53 -63zM1333 4148q-11 0 -20 3q-125 134 -403 400q-15 8 -15 19
q0 14 26 33t54 19q16 0 32 -7q79 -77 348 -410q6 -15 6 -26q0 -12 -7 -21t-21 -10z" />
    <glyph glyph-name="Iacute" unicode="&#xcd;" horiz-adv-x="2056" 
d="M1376 -2205q-38 0 -80 42q-66 87 -99 213q-52 193 -52 519q0 481 129 1354q74 506 174 1113q83 510 146 981q84 628 84 1016q0 267 -42 444q-29 116 -81.5 207.5t-111.5 112.5q-24 8 -53 8q-52 0 -141 -30.5t-221 -147.5q-132 -123 -266 -320t-254 -432
q-192 -373 -296 -859q-85 -398 -85 -815q0 -93 4 -186q101 -158 119 -303q6 -51 6 -95q0 -143 -60 -201q-28 -28 -60 -28q-30 0 -49 49q-87 381 -87 747q0 74 12.5 329t124 646.5t279.5 714.5q256 486 547 752q251 234 452 234q44 0 86 -12q101 -32 164 -122
q138 -200 138 -690q0 -83 -4 -173q-31 -802 -194 -1849q-70 -426 -145 -837q-107 -569 -177 -1066q-56 -370 -56 -569q0 -100 12 -199q23 -161 57.5 -232.5t68.5 -106.5q25 -28 43 -63q21 -49 21 -83q0 -62 -53 -63zM1304 4160q-14 1 -21.5 10t-7.5 21q0 11 7 26
q269 333 348 410q16 7 32 7q28 0 53.5 -19t25.5 -33q0 -11 -14 -19q-278 -266 -403 -400q-9 -3 -20 -3z" />
    <glyph glyph-name="Icircumflex" unicode="&#xce;" horiz-adv-x="2056" 
d="M1376 -2205q-38 0 -80 42q-66 87 -99 213q-52 193 -52 519q0 481 129 1354q74 506 174 1113q83 510 146 981q84 628 84 1016q0 267 -42 444q-29 116 -81.5 207.5t-111.5 112.5q-24 8 -53 8q-52 0 -141 -30.5t-221 -147.5q-132 -123 -266 -320t-254 -432
q-192 -373 -296 -859q-85 -398 -85 -815q0 -93 4 -186q101 -158 119 -303q6 -51 6 -95q0 -143 -60 -201q-28 -28 -60 -28q-30 0 -49 49q-87 381 -87 747q0 74 12.5 329t124 646.5t279.5 714.5q256 486 547 752q251 234 452 234q44 0 86 -12q101 -32 164 -122
q138 -200 138 -690q0 -83 -4 -173q-31 -802 -194 -1849q-70 -426 -145 -837q-107 -569 -177 -1066q-56 -370 -56 -569q0 -100 12 -199q23 -161 57.5 -232.5t68.5 -106.5q25 -28 43 -63q21 -49 21 -83q0 -62 -53 -63zM1613 4139q-22 0 -45 28q-231 257 -266 257q-7 0 -10 -4
q-37 -11 -317 -280h-4q-11 0 -22 10.5t-11 28.5l1 8q341 347 387 347h5q38 0 187 -149.5t154 -183.5q0 -26 -28 -49q-15 -13 -31 -13z" />
    <glyph glyph-name="Idieresis" unicode="&#xcf;" horiz-adv-x="2056" 
d="M1376 -2205q-38 0 -80 42q-66 87 -99 213q-52 193 -52 519q0 481 129 1354q74 506 174 1113q83 510 146 981q84 628 84 1016q0 267 -42 444q-29 116 -81.5 207.5t-111.5 112.5q-24 8 -53 8q-52 0 -141 -30.5t-221 -147.5q-132 -123 -266 -320t-254 -432
q-192 -373 -296 -859q-85 -398 -85 -815q0 -93 4 -186q101 -158 119 -303q6 -51 6 -95q0 -143 -60 -201q-28 -28 -60 -28q-30 0 -49 49q-87 381 -87 747q0 74 12.5 329t124 646.5t279.5 714.5q256 486 547 752q251 234 452 234q44 0 86 -12q101 -32 164 -122
q138 -200 138 -690q0 -83 -4 -173q-31 -802 -194 -1849q-70 -426 -145 -837q-107 -569 -177 -1066q-56 -370 -56 -569q0 -100 12 -199q23 -161 57.5 -232.5t68.5 -106.5q25 -28 43 -63q21 -49 21 -83q0 -62 -53 -63zM1070 4153q-45 0 -66 44q-10 21 -10 44q0 60 93 140
q22 17 45 17v-12q0 -42 18 -81q10 -21 10 -44q0 -58 -44 -92q-22 -16 -46 -16zM1578 4156q-45 0 -66 44q-10 21 -10 44q0 60 93 140q22 17 45 17v-12q0 -42 18 -81q10 -21 10 -44q0 -58 -44 -92q-22 -16 -46 -16z" />
    <glyph glyph-name="Eth" unicode="&#xd0;" horiz-adv-x="4196" 
d="M546 -2607q111 0 272 43.5t377 181.5q469 305 849 698.5t665.5 846t469.5 933.5q-466 -102 -963 -287t-919 -446q-8 -247 -8 -485q0 -253 9 -497q-2 -53 -55 -53q-113 0 -130 240q-2 28 -2 60q0 145 41 377q0 129 3 263q-140 -91 -297 -207q-369 -273 -581 -568
q-128 -189 -168 -344q-38 -147 -38 -272q0 -241 157 -377q85 -79 230 -101q42 -6 88 -6zM1303 -552q300 188 632 326t659 237t614 171q262 738 291 1512l1 81q0 288 -61.5 541.5t-178.5 437t-264 261.5q-99 54 -229 75q-34 5 -68 5q-98 0 -199 -42q-257 -117 -492 -531
q-416 -764 -593 -1924q547 10 753 10q68 0 78 -71q0 -45 -87 -49q-11 2 -36 2q-78 0 -469 -14q-124 -7 -258 -12q-66 -476 -93 -1016zM577 -2724q-254 0 -413 146q-164 154 -164 408q1 149 57 336q49 167 161 330q200 275 441.5 481.5t499.5 381.5l1 79q0 149 34 1020
q-305 -8 -658 -8l-216 1q-359 0 -482 42q-60 30 -60 59t57 57q67 17 188 17q102 0 242 -12q651 -15 935 -17q53 1263 150 2848q-80 24 -89 124q-2 21 -2 43q0 82 27 192t62 203t42 104q23 39 72 39q18 0 33 -7q21 -10 21 -32q-1 -8 -48.5 -797.5t-100.5 -1843.5
q-10 -192 -16 -372q-5 -139 -12 -287q192 981 594 1716q243 431 541 566q142 65 283 65q7 0 84.5 -2t210.5 -72q270 -144 427 -504q147 -337 147 -821l-1 -69q-29 -757 -277 -1481l173 32q376 74 671 111q28 0 39 -14q7 -8 7 -18q0 -7 -6.5 -20t-45.5 -19
q-311 -33 -864 -144q-186 -508 -480 -988t-690 -898t-889 -739q-374 -236 -686 -236z" />
    <glyph glyph-name="Ntilde" unicode="&#xd1;" horiz-adv-x="3895" 
d="M252 -2434q-31 0 -59 24q-102 100 -146 344q-47 250 -47 616q0 677 117 1587q121 940 327 1883.5t458 1644.5q22 52 65 52q20 0 36 -14q20 -19 20 -57v-11q-96 -737 -96 -1445q0 -659 72.5 -1252t201.5 -1086q198 -745 462 -1160q132 -204 272 -313q146 -114 272 -114
q135 0 235 53q286 153 466 566q222 503 336 1396q79 605 79 1277q0 61 -2.5 234.5t-12.5 346.5t-10 175v6q0 28 19 48q15 17 34 17q8 0 26.5 -5.5t38.5 -67.5q2 -2 19 -64q25 -89 25 -137q0 -41 -19 -41q-7 0 -16 4v-49q0 -876 -113 -1761q-51 -389 -137 -756
q-190 -813 -545 -1151q-97 -91 -209 -142.5t-253 -51.5q-320 0 -611 463q-278 439 -477 1195q-174 657 -251 1487q-40 429 -40 888q0 429 35 884l1 22q0 35 -11 35q-20 0 -50 -99q-187 -619 -334 -1398.5t-239 -1505.5q-100 -800 -100 -1531v-101q5 -269 58 -539
q37 -165 150 -278q27 -32 27 -58q0 -48 -59 -59zM2581 3897q-111 0 -190 61q-63 50 -107 105q-86 105 -136 108q-66 -8 -112.5 -44.5t-83.5 -79.5q-15 -19 -29.5 -35.5t-37.5 -16.5q-39 0 -39 23v2q97 247 320 251q90 0 189 -93q78 -81 135 -125q73 -59 139 -59q32 0 94 18
q87 28 185 159q7 7 18 7q36 0 36 -26v-4q-20 -64 -82 -124q-131 -127 -299 -127z" />
    <glyph glyph-name="Ograve" unicode="&#xd2;" 
d="M1126 -2357q-222 5 -403.5 122.5t-317 310.5t-227 433.5t-136.5 502.5q-42 240 -42 475q0 21 2 159t60 361q24 84 57 162q-68 297 -68 597q0 171 41.5 492.5t236.5 737.5q165 353 400 626t521 427q273 147 571 147q332 0 649 -218q320 -231 493.5 -579t223.5 -768
q25 -206 25 -419q0 -223 -40 -564t-174 -785q-278 -908 -776 -1545q-244 -310 -521.5 -491t-574.5 -184zM1144 -2290q296 0 548.5 171.5t488.5 466.5q244 302 436 698.5t323.5 833t176.5 882.5q23 215 23 422q0 220 -26 429q-104 877 -706 1326q-265 191 -562 191
q-128 0 -268 -39q-418 -119 -757 -512q-225 -261 -385 -601q-256 -542 -307 -1122q-8 -103 -8 -207q0 -207 34 -416q43 68 108 150.5t140 151.5t149 97q10 3 18 3q23 0 34 -23q7 -12 7 -29q0 -24 -14 -58q-91 -209 -205 -209q-13 0 -27 3q-113 -142 -157 -281
q80 -294 244.5 -543.5t426.5 -415.5q38 -25 38 -53q-1 -29 -25 -40q-7 -3 -16 -3q-19 0 -45 18q-455 365 -650 954q-55 -230 -55 -483q0 -213 39 -442q44 -252 132 -482t214 -410t285 -300t341 -128h7zM1723 3608q-11 0 -20 3q-125 134 -403 400q-14 8 -14 19q0 14 25.5 33
t53.5 19q16 0 32 -7q79 -77 348 -410q7 -15 7 -26q0 -12 -7.5 -21t-21.5 -10z" />
    <glyph glyph-name="Oacute" unicode="&#xd3;" 
d="M1126 -2357q-222 5 -403.5 122.5t-317 310.5t-227 433.5t-136.5 502.5q-42 240 -42 475q0 21 2 159t60 361q24 84 57 162q-68 297 -68 597q0 171 41.5 492.5t236.5 737.5q165 353 400 626t521 427q273 147 571 147q332 0 649 -218q320 -231 493.5 -579t223.5 -768
q25 -206 25 -419q0 -223 -40 -564t-174 -785q-278 -908 -776 -1545q-244 -310 -521.5 -491t-574.5 -184zM1144 -2290q296 0 548.5 171.5t488.5 466.5q244 302 436 698.5t323.5 833t176.5 882.5q23 215 23 422q0 220 -26 429q-104 877 -706 1326q-265 191 -562 191
q-128 0 -268 -39q-418 -119 -757 -512q-225 -261 -385 -601q-256 -542 -307 -1122q-8 -103 -8 -207q0 -207 34 -416q43 68 108 150.5t140 151.5t149 97q10 3 18 3q23 0 34 -23q7 -12 7 -29q0 -24 -14 -58q-91 -209 -205 -209q-13 0 -27 3q-113 -142 -157 -281
q80 -294 244.5 -543.5t426.5 -415.5q38 -25 38 -53q-1 -29 -25 -40q-7 -3 -16 -3q-19 0 -45 18q-455 365 -650 954q-55 -230 -55 -483q0 -213 39 -442q44 -252 132 -482t214 -410t285 -300t341 -128h7zM1494 3608q-14 1 -21 10t-7 21q0 11 6 26q269 333 348 410q16 7 32 7
q28 0 54 -19t26 -33q0 -11 -15 -19q-278 -266 -403 -400q-9 -3 -20 -3z" />
    <glyph glyph-name="Ocircumflex" unicode="&#xd4;" 
d="M1126 -2357q-222 5 -403.5 122.5t-317 310.5t-227 433.5t-136.5 502.5q-42 240 -42 475q0 21 2 159t60 361q24 84 57 162q-68 297 -68 597q0 171 41.5 492.5t236.5 737.5q165 353 400 626t521 427q273 147 571 147q332 0 649 -218q320 -231 493.5 -579t223.5 -768
q25 -206 25 -419q0 -223 -40 -564t-174 -785q-278 -908 -776 -1545q-244 -310 -521.5 -491t-574.5 -184zM1144 -2290q296 0 548.5 171.5t488.5 466.5q244 302 436 698.5t323.5 833t176.5 882.5q23 215 23 422q0 220 -26 429q-104 877 -706 1326q-265 191 -562 191
q-128 0 -268 -39q-418 -119 -757 -512q-225 -261 -385 -601q-256 -542 -307 -1122q-8 -103 -8 -207q0 -207 34 -416q43 68 108 150.5t140 151.5t149 97q10 3 18 3q23 0 34 -23q7 -12 7 -29q0 -24 -14 -58q-91 -209 -205 -209q-13 0 -27 3q-113 -142 -157 -281
q80 -294 244.5 -543.5t426.5 -415.5q38 -25 38 -53q-1 -29 -25 -40q-7 -3 -16 -3q-19 0 -45 18q-455 365 -650 954q-55 -230 -55 -483q0 -213 39 -442q44 -252 132 -482t214 -410t285 -300t341 -128h7zM1942 3677q-22 0 -44 28q-231 257 -267 257q-6 0 -9 -4
q-38 -11 -317 -280h-5q-10 0 -21.5 10.5t-11.5 28.5l1 8q341 347 387 347h6q38 0 186.5 -149.5t153.5 -183.5q0 -26 -28 -49q-14 -13 -31 -13z" />
    <glyph glyph-name="Otilde" unicode="&#xd5;" 
d="M1126 -2357q-222 5 -403.5 122.5t-317 310.5t-227 433.5t-136.5 502.5q-42 240 -42 475q0 21 2 159t60 361q24 84 57 162q-68 297 -68 597q0 171 41.5 492.5t236.5 737.5q165 353 400 626t521 427q273 147 571 147q332 0 649 -218q320 -231 493.5 -579t223.5 -768
q25 -206 25 -419q0 -223 -40 -564t-174 -785q-278 -908 -776 -1545q-244 -310 -521.5 -491t-574.5 -184zM1144 -2290q296 0 548.5 171.5t488.5 466.5q244 302 436 698.5t323.5 833t176.5 882.5q23 215 23 422q0 220 -26 429q-104 877 -706 1326q-265 191 -562 191
q-128 0 -268 -39q-418 -119 -757 -512q-225 -261 -385 -601q-256 -542 -307 -1122q-8 -103 -8 -207q0 -207 34 -416q43 68 108 150.5t140 151.5t149 97q10 3 18 3q23 0 34 -23q7 -12 7 -29q0 -24 -14 -58q-91 -209 -205 -209q-13 0 -27 3q-113 -142 -157 -281
q80 -294 244.5 -543.5t426.5 -415.5q38 -25 38 -53q-1 -29 -25 -40q-7 -3 -16 -3q-19 0 -45 18q-455 365 -650 954q-55 -230 -55 -483q0 -213 39 -442q44 -252 132 -482t214 -410t285 -300t341 -128h7zM1993 3639q-111 0 -189 61q-64 50 -108 105q-86 105 -136 108
q-66 -8 -112 -44.5t-83 -79.5q-16 -19 -30.5 -35.5t-36.5 -16.5q-40 0 -40 23v2q97 247 321 251q90 0 188 -93q78 -81 135 -125q73 -59 140 -59q32 0 93 18q88 28 185 159q8 7 19 7q36 0 36 -26l-1 -4q-20 -64 -82 -124q-131 -127 -299 -127z" />
    <glyph glyph-name="Odieresis" unicode="&#xd6;" 
d="M1126 -2357q-222 5 -403.5 122.5t-317 310.5t-227 433.5t-136.5 502.5q-42 240 -42 475q0 21 2 159t60 361q24 84 57 162q-68 297 -68 597q0 171 41.5 492.5t236.5 737.5q165 353 400 626t521 427q273 147 571 147q332 0 649 -218q320 -231 493.5 -579t223.5 -768
q25 -206 25 -419q0 -223 -40 -564t-174 -785q-278 -908 -776 -1545q-244 -310 -521.5 -491t-574.5 -184zM1144 -2290q296 0 548.5 171.5t488.5 466.5q244 302 436 698.5t323.5 833t176.5 882.5q23 215 23 422q0 220 -26 429q-104 877 -706 1326q-265 191 -562 191
q-128 0 -268 -39q-418 -119 -757 -512q-225 -261 -385 -601q-256 -542 -307 -1122q-8 -103 -8 -207q0 -207 34 -416q43 68 108 150.5t140 151.5t149 97q10 3 18 3q23 0 34 -23q7 -12 7 -29q0 -24 -14 -58q-91 -209 -205 -209q-13 0 -27 3q-113 -142 -157 -281
q80 -294 244.5 -543.5t426.5 -415.5q38 -25 38 -53q-1 -29 -25 -40q-7 -3 -16 -3q-19 0 -45 18q-455 365 -650 954q-55 -230 -55 -483q0 -213 39 -442q44 -252 132 -482t214 -410t285 -300t341 -128h7zM1457 3653q-45 0 -66 44q-10 21 -10 44q0 60 93 140q22 17 45 17v-12
q0 -42 18 -81q10 -21 10 -44q0 -58 -44 -92q-22 -16 -46 -16zM1965 3656q-45 0 -66 44q-10 21 -10 44q0 60 93 140q22 17 45 17v-12q0 -42 18 -81q10 -21 10 -44q0 -58 -44 -92q-22 -16 -46 -16z" />
    <glyph glyph-name="multiply" unicode="&#xd7;" horiz-adv-x="1249" 
d="M288 116q-32 0 -38 58q58 48 133 124q80 82 190 193q-241 212 -321 311q2 41 58 59q57 -23 163 -153q70 -69 164 -156q202 192 300 307q16 5 26 5q21 0 21 -22q0 -12 -6 -30q-137 -164 -288 -318q50 -34 298 -322q2 -11 2 -19q0 -28 -23 -28q-9 0 -22 4
q-136 153 -312 303q-105 -114 -228 -235q-81 -81 -117 -81z" />
    <glyph glyph-name="Oslash" unicode="&#xd8;" 
d="M1144 -2290q296 0 548.5 171.5t488.5 466.5q244 302 436 698.5t324 833.5q198 658 198 1304q0 220 -25 429q-97 820 -630 1266q-757 -2344 -1641 -5074q139 -88 294 -95h7zM780 -2149q447 1327 1614 5098q-259 181 -548 181q-129 0 -268 -39q-418 -119 -757 -512
q-225 -261 -385 -601q-256 -542 -307 -1122q-9 -103 -9 -207q0 -207 35 -416q43 68 108 150.5t140 151.5t149 97q9 3 17 3q23 0 35 -23q7 -12 7 -29q0 -24 -14 -58q-91 -209 -205 -209q-13 0 -27 3q-113 -142 -157 -281q80 -294 244.5 -543.5t426.5 -415.5q38 -25 38 -53
q-1 -29 -25 -40q-7 -3 -16 -3q-20 0 -45 18q-455 365 -650 954q-55 -230 -55 -483q0 -213 39 -442q44 -252 132 -482q175 -456 483 -697zM526 -2973q-11 0 -11 23q0 39 30 147q59 137 201 554q-12 7 -23 15q-182 117 -317.5 310t-227 433.5t-136.5 502.5q-42 240 -42 475
q0 21 2 159t60 361q24 84 57 162q-68 297 -68 597q0 171 41.5 492.5t236.5 737.5q165 353 400 626t521 427q273 147 570 147q303 0 594 -181l178 576q31 77 75 109q10 3 19 3q33 0 33 -53q0 -17 -4 -40q-3 -28 -208 -660q293 -223 457 -551q248 -499 248 -1187
q0 -223 -40 -564t-174 -785q-278 -908 -776 -1545q-244 -310 -521.5 -491t-574.5 -184q-167 4 -312 72l-179 -554q-85 -134 -109 -134z" />
    <glyph glyph-name="Ugrave" unicode="&#xd9;" horiz-adv-x="3888" 
d="M773 -2591q-27 0 -53 3q-207 28 -351.5 187.5t-228.5 415.5q-140 441 -140 1090q0 887 231 1996q199 954 550 1910q26 49 61 49q6 0 31 -6t26 -87q5 -107 5 -190q0 -107 -10 -196q-14 -127 -76 -127q-19 0 -41 11q-277 -841 -436 -1641q-189 -952 -189 -1768
q0 -236 21 -502t98 -503.5t190 -370.5t274 -156q45 -6 87 -6q134 0 266 72.5t304 269.5q359 404 754 1208q547 1123 1049 3130q72 291 140 599q88 406 202 846q14 54 56 54q26 0 47 -20t21 -48l-2 -15q-103 -478 -216 -924q-548 -2209 -548 -3543q0 -96 9.5 -376t100.5 -514
q9 -26 9 -44q0 -27 -20 -38q-15 -9 -34 -9q-79 0 -111 83q-80 275 -80 810q0 446 66 1070q44 365 136 917q-402 -1257 -767 -2006q-397 -809 -773 -1229q-356 -402 -658 -402zM2177 3623q-11 0 -20 3q-125 134 -403 400q-14 8 -14 19q0 14 25.5 33t53.5 19q16 0 32 -7
q79 -77 348 -410q7 -15 7 -26q0 -12 -7.5 -21t-21.5 -10z" />
    <glyph glyph-name="Uacute" unicode="&#xda;" horiz-adv-x="3888" 
d="M773 -2591q-27 0 -53 3q-207 28 -351.5 187.5t-228.5 415.5q-140 441 -140 1090q0 887 231 1996q199 954 550 1910q26 49 61 49q6 0 31 -6t26 -87q5 -107 5 -190q0 -107 -10 -196q-14 -127 -76 -127q-19 0 -41 11q-277 -841 -436 -1641q-189 -952 -189 -1768
q0 -236 21 -502t98 -503.5t190 -370.5t274 -156q45 -6 87 -6q134 0 266 72.5t304 269.5q359 404 754 1208q547 1123 1049 3130q72 291 140 599q88 406 202 846q14 54 56 54q26 0 47 -20t21 -48l-2 -15q-103 -478 -216 -924q-548 -2209 -548 -3543q0 -96 9.5 -376t100.5 -514
q9 -26 9 -44q0 -27 -20 -38q-15 -9 -34 -9q-79 0 -111 83q-80 275 -80 810q0 446 66 1070q44 365 136 917q-402 -1257 -767 -2006q-397 -809 -773 -1229q-356 -402 -658 -402zM2052 3613q-14 1 -21 10t-7 21q0 11 6 26q269 333 348 410q16 7 32 7q28 0 54 -19t26 -33
q0 -11 -15 -19q-278 -266 -403 -400q-9 -3 -20 -3z" />
    <glyph glyph-name="Ucircumflex" unicode="&#xdb;" horiz-adv-x="3888" 
d="M773 -2591q-27 0 -53 3q-207 28 -351.5 187.5t-228.5 415.5q-140 441 -140 1090q0 887 231 1996q199 954 550 1910q26 49 61 49q6 0 31 -6t26 -87q5 -107 5 -190q0 -107 -10 -196q-14 -127 -76 -127q-19 0 -41 11q-277 -841 -436 -1641q-189 -952 -189 -1768
q0 -236 21 -502t98 -503.5t190 -370.5t274 -156q45 -6 87 -6q134 0 266 72.5t304 269.5q359 404 754 1208q547 1123 1049 3130q72 291 140 599q88 406 202 846q14 54 56 54q26 0 47 -20t21 -48l-2 -15q-103 -478 -216 -924q-548 -2209 -548 -3543q0 -96 9.5 -376t100.5 -514
q9 -26 9 -44q0 -27 -20 -38q-15 -9 -34 -9q-79 0 -111 83q-80 275 -80 810q0 446 66 1070q44 365 136 917q-402 -1257 -767 -2006q-397 -809 -773 -1229q-356 -402 -658 -402zM2378 3629q-22 0 -44 28q-231 257 -267 257q-6 0 -9 -4q-38 -11 -317 -280h-4q-11 0 -22.5 10.5
t-11.5 28.5l1 8q341 347 387 347h6q38 0 186.5 -149.5t153.5 -183.5q0 -26 -27 -49q-15 -13 -32 -13z" />
    <glyph glyph-name="Udieresis" unicode="&#xdc;" horiz-adv-x="3888" 
d="M773 -2591q-27 0 -53 3q-207 28 -351.5 187.5t-228.5 415.5q-140 441 -140 1090q0 887 231 1996q199 954 550 1910q26 49 61 49q6 0 31 -6t26 -87q5 -107 5 -190q0 -107 -10 -196q-14 -127 -76 -127q-19 0 -41 11q-277 -841 -436 -1641q-189 -952 -189 -1768
q0 -236 21 -502t98 -503.5t190 -370.5t274 -156q45 -6 87 -6q134 0 266 72.5t304 269.5q359 404 754 1208q547 1123 1049 3130q72 291 140 599q88 406 202 846q14 54 56 54q26 0 47 -20t21 -48l-2 -15q-103 -478 -216 -924q-548 -2209 -548 -3543q0 -96 9.5 -376t100.5 -514
q9 -26 9 -44q0 -27 -20 -38q-15 -9 -34 -9q-79 0 -111 83q-80 275 -80 810q0 446 66 1070q44 365 136 917q-402 -1257 -767 -2006q-397 -809 -773 -1229q-356 -402 -658 -402zM1904 3614q-45 0 -66 44q-10 21 -10 44q0 60 93 140q22 17 45 17v-12q0 -42 18 -81
q10 -21 10 -44q0 -58 -44 -92q-22 -16 -46 -16zM2412 3617q-45 0 -66 44q-10 21 -10 44q0 60 93 140q22 17 45 17v-12q0 -42 18 -81q10 -21 10 -44q0 -58 -44 -92q-22 -16 -46 -16z" />
    <glyph glyph-name="Yacute" unicode="&#xdd;" horiz-adv-x="3574" 
d="M1550 -3403q-41 0 -79 17q-69 38 -98 116q-37 94 -37 249q0 414 231 1067q118 328 291 664t399 642t501 544q19 288 19 531q0 194 -12 360q-21 265 -54 395q-21 68 -43 94q-13 19 -26 19l-12 -3q-23 -6 -128 -218q-51 -98 -134 -289q-213 -505 -474 -915
q-226 -354 -479 -554q-126 -100 -269 -168q-167 -81 -323 -81q-218 0 -387 114.5t-271 331.5q-165 347 -165 894q0 515 144 1089q114 454 308.5 872.5t461.5 741.5q29 29 51 29q13 0 24 -10q23 -20 23 -70q0 -14 -2 -30q-32 -168 -66 -247.5t-74 -102.5q-36 -20 -81 -20h-12
q-266 -455 -440 -1001q-212 -663 -212 -1247q0 -204 31 -428t122.5 -417t249.5 -301q139 -96 318 -96q24 0 50 2q309 32 541 235q362 316 639 883q187 378 361 812q51 134 101 222t120 94q35 0 63 -19q75 -52 109 -179q39 -154 60 -422q13 -176 13 -383q0 -191 -11 -408
q146 107 328 202t351 145q11 3 20 3q18 0 29 -10.5t11 -23.5q0 -6 -4 -19t-42 -23q-404 -114 -696 -352l-8 -97q-15 -228 -31 -358q-60 -513 -190.5 -1033.5t-343.5 -970t-522 -750.5l-2 -1q-135 -121 -242 -121zM1536 -3278q78 0 173 89q287 279 492.5 714t335 946.5
t189.5 1016.5q25 231 35 339q-300 -267 -508 -550t-356.5 -588t-272.5 -635q-203 -546 -203 -999q0 -59 4 -112q5 -46 19.5 -96t25.5 -76q21 -49 64 -49h2zM2101 3378q-14 1 -21.5 10t-7.5 21q0 11 7 26q269 333 348 410q16 7 32 7q28 0 53.5 -19t25.5 -33q0 -11 -14 -19
q-278 -266 -403 -400q-9 -3 -20 -3z" />
    <glyph glyph-name="Thorn" unicode="&#xde;" horiz-adv-x="2703" 
d="M-4 -2418q-24 0 -41 49q103 693 103 2145q6 790 6 1420q0 976 -26 1597q-10 711 -70 1085l-1 27q0 73 84 82q79 0 96 -109q15 -130 15 -306l-2 -141q63 -3 171 -3q210 0 407 -115q768 -462 904 -2282q8 -205 8 -477q0 -2333 -1447 -2434q-63 0 -81 3q4 -52 4 -104
q0 -183 -50 -361q-46 -76 -80 -76zM137 -1719q5 2 285 31q329 43 609 320q434 409 470 1707q0 216 -12 457q0 109 -6 225q-119 2215 -1159 2245q-112 0 -145 -9q11 -206 11 -414q-20 -4198 -53 -4562z" />
    <glyph glyph-name="germandbls" unicode="&#xdf;" horiz-adv-x="1893" 
d="M-333 -1839q-14 1 -24 20.5t-10 48.5q0 22 12 38q11 12 31 12q7 0 16 -2q50 69 119.5 238t124 469.5t62.5 758.5q2 140 2 273q0 438 -24 1082q-16 452 -16 627q0 120 6 291t54 323q60 180 169 294t242 152q59 16 135 16q219 -8 378 -215q113 -155 114 -333
q0 -183 -88 -353q-150 -283 -473 -459l54 1q300 0 540 -163q163 -112 267 -295.5t127 -430.5q4 -56 4 -110q0 -190 -60 -384t-185.5 -360.5t-281.5 -258.5q-146 -86 -294 -86h-20q-182 12 -283 123q-142 152 -142 456q0 36 3 73l3 37l13 10q7 3 14 3q15 0 24 -20h1
q17 0 28 -84q3 -26 3 -59q0 -70 -16 -168q25 -121 106 -213q85 -90 179 -90q132 0 272.5 82.5t261 241t185.5 368.5q51 164 51 346q0 52 -5 105q-18 235 -92 396.5t-224 266.5q-232 163 -495 163q-97 0 -202 -22q-13 -4 -21 -4q-23 0 -23 19q0 17 30 35q204 74 331 203.5
t208 291.5q55 109 62 225q2 28 2 56q0 85 -21.5 178t-63.5 172q-37 69 -103.5 120.5t-146.5 69.5q-31 7 -63 7q-47 0 -93 -16q-211 -84 -325 -427q-45 -140 -54 -375q-3 -103 -3 -222q0 -173 16 -625q23 -644 23 -1085q0 -133 -1 -273q-5 -308 -41.5 -539.5t-87.5 -399
t-98 -284.5q-71 -174 -125 -248q-38 -81 -68 -88z" />
    <glyph glyph-name="agrave" unicode="&#xe0;" horiz-adv-x="1674" 
d="M1063 -203q-143 7 -208 152q-35 95 -35 214q0 9 1.5 79.5t15.5 161.5t26 129q10 33 10 41q0 3 -2 3t-8 -9q-21 -36 -67 -99q-21 -28 -55 -76q-282 -407 -522 -407q-79 0 -145 42t-90 120q-9 30 -9 63q0 53 29.5 132t136.5 190q89 90 200 144q180 87 329 87q99 0 151 -42
q15 -17 23 -49q0 6 43 69q20 28 27 31q17 20 50 20q15 -1 30 -4q28 -7 28 -61q0 -55 -31 -221q-40 -219 -40 -375q0 -48 7 -85q31 -174 155 -174q159 0 372 212q148 167 192 233q12 13 29 13q31 0 31 -21q0 -23 -25 -48q-274 -342 -516 -440q-61 -22 -133 -25zM245 68
q66 4 122.5 35t114.5 80q170 145 308 387l20 33q-33 -10 -54 -10q-4 0 -16 1.5t-23.5 12t-20.5 26.5t-25.5 29t-49.5 13h-5q-159 -36 -350 -227q-132 -132 -132 -257q0 -60 35 -96q27 -27 76 -27zM607 880q-11 0 -20 3q-125 134 -272 253q-15 8 -15 19q0 14 26 33t54 19
q16 0 32 -7q79 -77 217 -263q6 -15 6 -26q0 -12 -7 -21t-21 -10z" />
    </font>
</defs>
</svg>
