<svg id="Layer_1" data-name="Layer 1" xmlns="http://www.w3.org/2000/svg" viewBox="0 0 1556.79 1297.32">
  <defs>
    <style>
      .cls-1 {
        fill: #126650;
      }
    </style>
  </defs>
  <title>mans</title>
  <g>
    <path class="cls-1" d="M671.21,448.67a101,101,0,1,1,101-101A101.09,101.09,0,0,1,671.21,448.67Zm0-164.22a63.25,63.25,0,1,0,63.26,63.25A63.32,63.32,0,0,0,671.21,284.45Z"/>
    <path class="cls-1" d="M705.3,1088.53H607.21a18.87,18.87,0,0,1-18.46-15L546.11,872h-23a18.87,18.87,0,0,1-18.74-16.72L475.27,602a78,78,0,0,1,.86-38.93c7.63-61.37,84.57-107.42,180.12-107.42s172.49,46.05,180.1,107.42a77.82,77.82,0,0,1,.84,38.93l-29.1,253.28A18.87,18.87,0,0,1,789.35,872h-23l-42.62,201.54A18.88,18.88,0,0,1,705.3,1088.53Zm-82.8-37.73H690l42.63-201.55a18.86,18.86,0,0,1,18.46-15h21.44l27.32-237.78a16.73,16.73,0,0,1,.48-2.6,39.49,39.49,0,0,0-.55-21.42,18.85,18.85,0,0,1-.76-3.73c-4.17-41.55-68.22-75.35-142.77-75.35s-138.61,33.8-142.79,75.36a19.65,19.65,0,0,1-.76,3.72,39.59,39.59,0,0,0-.55,21.45,17.1,17.1,0,0,1,.47,2.57l27.32,237.77H561.4a18.88,18.88,0,0,1,18.46,15Z"/>
  </g>
  <g>
    <path class="cls-1" d="M1030.5,1088.53a14.28,14.28,0,0,1-12.2-6.86l-47-77.45-49.58,77.71a14.27,14.27,0,0,1-26.28-6.76L888.88,974a49.8,49.8,0,0,1-47.64-63.72l33-112.71c14.07-45.19,52.58-75.39,95.89-75.39s81.81,30.2,95.82,75.15l33,113A49.77,49.77,0,0,1,1051.28,974l-6.53,101.15a14.26,14.26,0,0,1-14.25,13.36ZM970.09,750.76c-30.74,0-58.29,22.13-68.55,55.08L868.66,918.31A21.22,21.22,0,0,0,889,945.46h13.25a14.28,14.28,0,0,1,14.25,13.37l4.57,70.93,38.43-60.24a14.28,14.28,0,0,1,24.24.26l35.42,58.31,4.47-69.26a14.28,14.28,0,0,1,14.25-13.37h13.26a21.21,21.21,0,0,0,20.37-27.13l-33-112.72C1028.37,772.9,1000.82,750.76,970.09,750.76Z"/>
    <path class="cls-1" d="M970.76,703.82a77.82,77.82,0,1,1,77.8-77.84A77.91,77.91,0,0,1,970.76,703.82Zm0-127.08A49.26,49.26,0,1,0,1020,626,49.31,49.31,0,0,0,970.76,576.74Z"/>
  </g>
</svg>
