<svg xmlns="http://www.w3.org/2000/svg" width="20" height="17" viewBox="0 0 20 17"><g><g opacity="1"><path fill="#fff" d="M1.677 0h16.645c.656 0 1.189.543 1.189 1.213s-.533 1.213-1.19 1.213H1.678A1.201 1.201 0 0 1 .488 1.213C.488.543 1.021 0 1.678 0zm0 14.558h16.645c.656 0 1.189.543 1.189 1.213s-.533 1.213-1.19 1.213H1.678a1.201 1.201 0 0 1-1.189-1.213c0-.67.533-1.213 1.19-1.213zm0-7.28h16.645c.656 0 1.189.544 1.189 1.214 0 .67-.533 1.213-1.19 1.213H1.678A1.201 1.201 0 0 1 .488 8.492c0-.67.533-1.213 1.19-1.213z"/><path fill="#469ad4" d="M1.677 0h16.645c.656 0 1.189.543 1.189 1.213s-.533 1.213-1.19 1.213H1.678A1.201 1.201 0 0 1 .488 1.213C.488.543 1.021 0 1.678 0zm0 14.558h16.645c.656 0 1.189.543 1.189 1.213s-.533 1.213-1.19 1.213H1.678a1.201 1.201 0 0 1-1.189-1.213c0-.67.533-1.213 1.19-1.213zm0-7.28h16.645c.656 0 1.189.544 1.189 1.214 0 .67-.533 1.213-1.19 1.213H1.678A1.201 1.201 0 0 1 .488 8.492c0-.67.533-1.213 1.19-1.213z"/></g></g></svg>
