<svg xmlns="http://www.w3.org/2000/svg" xmlns:xlink="http://www.w3.org/1999/xlink" width="86.23mm" height="27.72mm" viewBox="0 0 244.42 78.58"><defs><style>.cls-1{fill:none;}.cls-2{clip-path:url(#clip-path);}.cls-3{fill:#fff;}.cls-4{fill:#3a3a3a;}.cls-5{fill:#6798d1;}</style><clipPath id="clip-path" transform="translate(-183.91 -356.83)"><rect class="cls-1" width="612" height="792"/></clipPath></defs><title>buttton</title><g id="Слой_2" data-name="Слой 2"><g id="Слой_1-2" data-name="Слой 1"><g class="cls-2"><path class="cls-3" d="M227.81,431.29h163.5c18.26,0,33.11-15.89,33.11-35.41s-14.85-35.4-33.11-35.4H227.81Z" transform="translate(-183.91 -356.83)"/><path class="cls-4" d="M389,435.41H223.93V356.83H389a39.29,39.29,0,0,1,0,78.58m-157.78-7.33H389a32,32,0,0,0,0-63.91H231.26Z" transform="translate(-183.91 -356.83)"/><path class="cls-5" d="M258.83,396.12A35.63,35.63,0,1,1,223.2,360.5a35.63,35.63,0,0,1,35.63,35.62" transform="translate(-183.91 -356.83)"/><path class="cls-4" d="M223.2,435.41a39.29,39.29,0,1,1,39.29-39.29,39.33,39.33,0,0,1-39.29,39.29m0-71.24a32,32,0,1,0,32,31.95,32,32,0,0,0-32-31.95" transform="translate(-183.91 -356.83)"/><path class="cls-3" d="M215.63,401.88l-10.9,2.92a2.46,2.46,0,0,1-3-1.74l-2.28-8.52a2.45,2.45,0,0,1,1.74-3l10.89-2.92Z" transform="translate(-183.91 -356.83)"/><path class="cls-3" d="M213.27,414.58h0a3.42,3.42,0,0,1-4.46-1.91L205,403.1l6.38-2.55,3.82,9.57a3.44,3.44,0,0,1-1.92,4.46" transform="translate(-183.91 -356.83)"/><polygon class="cls-3" points="50.07 45.26 31.71 45.05 28.16 31.78 43.95 22.42 50.07 45.26"/><path class="cls-3" d="M235.75,403.13h0a1.44,1.44,0,0,1-1.76-1l-6.13-22.9a1.43,1.43,0,1,1,2.77-.74l6.14,22.89a1.44,1.44,0,0,1-1,1.76" transform="translate(-183.91 -356.83)"/><path class="cls-3" d="M244.79,388l-6.16,1.65a.75.75,0,0,1-.39-1.45l6.16-1.65a.75.75,0,0,1,.39,1.45" transform="translate(-183.91 -356.83)"/><path class="cls-3" d="M246.3,395.27h-6.38a.75.75,0,1,1,0-1.5h6.38a.75.75,0,0,1,0,1.5" transform="translate(-183.91 -356.83)"/><path class="cls-3" d="M237.32,384.07l5.53-3.19a.75.75,0,0,0,.27-1,.74.74,0,0,0-1-.27l-5.53,3.19a.75.75,0,0,0,.75,1.3" transform="translate(-183.91 -356.83)"/><path class="cls-4" d="M270,399.64h3.93a2.24,2.24,0,0,0,2.46,2c1.28,0,2.26-.58,2.26-1.71,0-.67-.38-1.3-1.91-1.8l-2.05-.63c-3.81-1-4.54-3.36-4.54-5,0-3.11,2.66-5.21,6.09-5.21s5.84,2,5.84,5.34H278.1a2,2,0,0,0-4-.2c0,.35.1,1.13,1.71,1.58l1.8.55c2.46.75,5,2,5,5.16,0,3.71-3.21,5.29-6.37,5.29-3.68,0-6.24-2.15-6.24-5.34" transform="translate(-183.91 -356.83)"/><polygon class="cls-4" points="114.1 34.09 109.54 34.09 109.54 47.93 105.6 47.93 105.6 34.09 101.04 34.09 101.04 30.65 114.1 30.65 114.1 34.09"/><path class="cls-4" d="M309.75,400.75h-6.07l-1.28,4h-4.21l6.4-17.28h4.28l6.37,17.28h-4.19Zm-1.1-3.41-2-6-1.93,6Z" transform="translate(-183.91 -356.83)"/><polygon class="cls-4" points="147.41 30.65 147.41 47.93 143.95 47.93 138.28 38 138.28 47.93 134.35 47.93 134.35 30.65 137.96 30.65 143.47 40.46 143.47 30.65 147.41 30.65"/><path class="cls-4" d="M336.54,387.48h6.82c5,0,7.88,3.76,7.88,8.68s-2.89,8.6-7.88,8.6h-6.82Zm6.82,13.84c2.59,0,3.91-2.48,3.91-5.16s-1.32-5.24-3.91-5.24h-2.88v10.4Z" transform="translate(-183.91 -356.83)"/><path class="cls-4" d="M368.62,399.79c0,2.36-1.53,5-5.59,5h-7.5V387.48h7c3.16,0,5.19,1.91,5.19,4.47a3.48,3.48,0,0,1-2.43,3.58,4,4,0,0,1,3.33,4.26m-9.15-8.87v3.31h2.76a1.66,1.66,0,0,0,0-3.31Zm5.19,8.47a1.93,1.93,0,0,0-2.11-1.93h-3.08v3.86h3.08a1.93,1.93,0,0,0,2.11-1.93" transform="translate(-183.91 -356.83)"/><polygon class="cls-4" points="203.42 30.65 196.68 40.2 196.68 47.93 192.71 47.93 192.71 40.13 186 30.65 190.68 30.65 194.67 37.02 198.73 30.65 203.42 30.65"/><path class="cls-4" d="M387.19,402.75a2.2,2.2,0,0,1,2.26-2.18,2.21,2.21,0,1,1-2.26,2.18" transform="translate(-183.91 -356.83)"/><path class="cls-4" d="M395.27,402.75a2.19,2.19,0,0,1,2.25-2.18,2.21,2.21,0,1,1,0,4.41,2.2,2.2,0,0,1-2.25-2.23" transform="translate(-183.91 -356.83)"/><path class="cls-4" d="M403.34,402.75a2.2,2.2,0,0,1,2.26-2.18,2.21,2.21,0,1,1,0,4.41,2.21,2.21,0,0,1-2.26-2.23" transform="translate(-183.91 -356.83)"/></g></g></g></svg>