<svg xmlns="http://www.w3.org/2000/svg" width="36" height="35" viewBox="0 0 36 35"><g><g><g><g><path fill="#030077" d="M18.08 2.845c8.112 0 14.711 6.6 14.711 14.71 0 8.112-6.599 14.71-14.71 14.71S3.37 25.668 3.37 17.556c0-8.11 6.599-14.71 14.71-14.71zm0 32.266c9.681 0 17.556-7.875 17.556-17.555S27.761 0 18.081 0 .525 7.875.525 17.556c0 9.68 7.876 17.555 17.556 17.555z"/></g></g><g><g><path fill="#030077" d="M9.993 18.978h17.3a1.423 1.423 0 1 0 0-2.845h-17.3a1.423 1.423 0 1 0 0 2.845z"/></g></g><g><g/></g><g><g><path fill="#030077" d="M9.992 18.978c.476 0 .941-.239 1.21-.673l3.973-6.406a1.423 1.423 0 1 0-2.418-1.5l-3.973 6.407a1.423 1.423 0 0 0 1.208 2.172z"/></g></g><g><g><path fill="#030077" d="M13.967 25.385a1.423 1.423 0 0 0 1.208-2.172l-3.973-6.407a1.423 1.423 0 1 0-2.418 1.5l3.973 6.405c.269.435.734.674 1.21.674z"/></g></g></g></g></svg>