<svg xmlns="http://www.w3.org/2000/svg" width="36" height="35" viewBox="0 0 36 35"><g><g><g><g><path fill="#030077" d="M33.123 17.556c0 8.11-6.599 14.71-14.71 14.71s-14.71-6.6-14.71-14.71c0-8.112 6.599-14.71 14.71-14.71s14.71 6.598 14.71 14.71zm2.845 0C35.968 7.876 28.093 0 18.413 0S.857 7.875.857 17.556c0 9.68 7.876 17.555 17.556 17.555s17.555-7.875 17.555-17.555z"/></g></g><g><g><path fill="#030077" d="M26.5 18.978H9.202a1.423 1.423 0 1 1 0-2.845H26.5a1.423 1.423 0 1 1 0 2.845z"/></g></g><g><g/></g><g><g><path fill="#030077" d="M26.502 18.978c-.476 0-.941-.239-1.21-.673L21.318 11.9a1.423 1.423 0 1 1 2.418-1.5l3.972 6.407a1.423 1.423 0 0 1-1.207 2.172z"/></g></g><g><g><path fill="#030077" d="M22.527 25.385a1.423 1.423 0 0 1-1.208-2.172l3.972-6.407a1.423 1.423 0 1 1 2.418 1.5l-3.972 6.405c-.27.435-.734.674-1.21.674z"/></g></g></g></g></svg>