<svg xmlns="http://www.w3.org/2000/svg" viewBox="0 0 164.87 216.02">
  <defs>
    <style>
      .cls-1 {
        fill: none;
        stroke: #d11742;
        stroke-linecap: round;
        stroke-linejoin: round;
        stroke-width: 5px;
      }
    </style>
  </defs>
  <title>No Dinner_1</title>
  <g id="Слой_2" data-name="Слой 2">
    <g id="Layer_1" data-name="Layer 1">
      <g>
        <line class="cls-1" x1="15.87" y1="213.52" x2="149" y2="2.5"/>
        <g>
          <circle class="cls-1" cx="82.08" cy="109.36" r="54.16" transform="translate(-44 162.28) rotate(-75.88)"/>
          <path class="cls-1" d="M61.48,82.13A34.14,34.14,0,1,1,54.85,130,34.14,34.14,0,0,1,61.48,82.13Z"/>
          <path class="cls-1" d="M157.78,110.37h-6.67c-.78,18.07-2.26,39.25-3.26,59.56a5.6,5.6,0,1,0,11.19,0c-1-20.31-.57-41.49-1.26-59.57L162.36,44a3.3,3.3,0,0,0-1.7-3.17,3.26,3.26,0,0,0-3.59.22c-14.11,10.37-8.76,50.55-6.66,64.52-2.1-14-7.45-54.15,6.66-64.52a3.26,3.26,0,0,1,3.59-.22,3.3,3.3,0,0,1,1.7,3.17l-4.58,66.35c.69,18.08.26,39.26,1.26,59.57a5.6,5.6,0,1,1-11.19,0c1-20.31,2.48-41.49,3.26-59.56Z"/>
          <path class="cls-1" d="M4,44.41,2.51,76.26c-.15,3.22,1.9,8.58,4.06,12.06A15.43,15.43,0,0,1,9.1,97.6c-1,24.05-2.19,48.19-3.37,72.26a5.51,5.51,0,0,0,5.67,5.75,5.51,5.51,0,0,0,5.68-5.75c-1.18-24.07-2.4-48.2-3.37-72.26a15.36,15.36,0,0,1,2.53-9.28c2.16-3.48,4.21-8.84,4.06-12.06L18.82,44.41,20.3,76.26c.15,3.22-1.9,8.58-4.06,12.06a15.36,15.36,0,0,0-2.53,9.28c1,24.06,2.19,48.19,3.37,72.26a5.51,5.51,0,0,1-5.68,5.75,5.51,5.51,0,0,1-5.67-5.75C6.91,145.79,8.12,121.65,9.1,97.6a15.43,15.43,0,0,0-2.53-9.28c-2.16-3.48-4.21-8.84-4.06-12.06Z"/>
          <path class="cls-1" d="M13.88,44.41v0Z"/>
          <path class="cls-1" d="M8.93,44.41v0Z"/>
        </g>
      </g>
    </g>
  </g>
</svg>
