<svg xmlns="http://www.w3.org/2000/svg" width="130" height="40" viewBox="0 0 130 40"><g><g><g><g><text dominant-baseline="text-before-edge" style="font-kerning:normal" fill="#232323" font-family="PTRootUI-Medium" font-size="18.38" letter-spacing="-.56" transform="translate(49 7)"><tspan font-family="PTRootUI-Regular">Apple</tspan></text></g></g><g><g><path fill="#151616" d="M39.564 19.881c0 10.87-8.812 19.682-19.682 19.682S.2 30.751.2 19.881 9.012.2 19.882.2s19.682 8.812 19.682 19.681M19.882 1.937c-9.91 0-17.945 8.034-17.945 17.944 0 9.91 8.035 17.945 17.945 17.945s17.944-8.034 17.944-17.945c0-9.91-8.033-17.944-17.944-17.944"/></g><g><path fill="#151616" d="M13.8 12.005c-.589.25-1.16.836-1.538 1.34-.678.907-.385 1.378.184 2.107a160.861 160.861 0 0 1 2.5 3.29c1.03 1.392.626 1.482-.996 3.615-.432.57-.818 1.012-1.233 1.603-.66.94-1.724 1.767.66 3.558 1.201.903 1.864.012 3.685-1.395.568-.44 1.096-.811 1.689-1.264 1.388-1.062 1.531-.63 3.615.987.535.415 1.05.796 1.619 1.223.524.394 1.166 1.154 2.052.709.32-.16 1.267-1.016 1.505-1.333.612-.818.308-1.426-.184-2.096a178.278 178.278 0 0 0-2.493-3.297c-1.162-1.507-.394-1.715.982-3.62.981-1.359 2.364-2.6 1.997-3.717-.182-.553-.868-1.245-1.32-1.525-.987-.612-1.451-.316-2.18.241-.581.445-1.043.758-1.622 1.219-3.074 2.441-2.397 2.618-6.885-.936-.524-.415-1.15-1.087-2.037-.709"/></g></g></g></g></svg>