<svg xmlns="http://www.w3.org/2000/svg" viewBox="0 0 114.16 146.54">
  <defs>
    <style>
      .cls-1 {
        fill: none;
        stroke: #d11742;
        stroke-linecap: round;
        stroke-linejoin: round;
        stroke-width: 5px;
      }
    </style>
  </defs>
  <title>Man</title>
  <g id="Слой_2" data-name="Слой 2">
    <g id="Layer_1" data-name="Layer 1">
      <g>
        <circle class="cls-1" cx="57.13" cy="15.55" r="13.05"/>
        <path class="cls-1" d="M10.88,31.94h92.64a8.14,8.14,0,1,1,0,16.28H71.93v30.9l10.86,55.58s.1.94.1,1.34a7.4,7.4,0,0,1-7.4,7.4c-3.91,0-6.24-1.81-7.26-5.9h0l-9-46-.14-.63c-.25-1.3-1-2.22-2.22-2.22s-2,1-2.23,2.22l-.29,1.24-9,46h0c-1,4.09-3.35,5.9-7.26,5.9a7.4,7.4,0,0,1-7.4-7.4c0-.4.1-1.34.1-1.34L41.54,79.73l0-.62V48.21H10.64a8.14,8.14,0,0,1,0-16.28Z"/>
        <circle class="cls-1" cx="20.3" cy="40.27" r="2.29"/>
        <circle class="cls-1" cx="61.73" cy="70.18" r="2.29"/>
        <circle class="cls-1" cx="61.73" cy="70.18" r="5.37"/>
        <circle class="cls-1" cx="20.3" cy="40.27" r="5.37"/>
      </g>
    </g>
  </g>
</svg>
