<svg xmlns="http://www.w3.org/2000/svg" viewBox="0 0 117.6 122.91">
  <defs>
    <style>
      .cls-1 {
        fill: none;
        stroke: #d11742;
        stroke-linecap: round;
        stroke-linejoin: round;
        stroke-width: 5px;
      }
    </style>
  </defs>
  <title>Splitpower</title>
  <g id="Слой_2" data-name="Слой 2">
    <g id="Layer_1" data-name="Layer 1">
      <g>
        <polyline class="cls-1" points="84.47 35.32 77.86 50.22 74.16 38.27 67.34 53.65"/>
        <polyline class="cls-1" points="58.41 105.34 56.54 89.15 65.79 97.56 63.86 80.86"/>
        <polyline class="cls-1" points="50.26 61.05 43.65 46.15 39.95 58.09 33.13 42.72"/>
        <path class="cls-1" d="M23.21,17.91l14.62,5.33a6.31,6.31,0,0,0,8.55-2.54l3.4-6.25A6.31,6.31,0,0,0,47.24,5.9L41,2.5S21.36,3.66,16.23,7.83,3,70,3,70-.5,95.26,10.73,108s57.69,18.14,78.39,4l26,8.39"/>
        <path class="cls-1" d="M27.3,19.4S20.86,55,30.11,79.83c0,0-4.85,14.75-8.81,19.81"/>
        <path class="cls-1" d="M30.11,79.83l8.36-1.16s.06,12.08,7.63,19.83"/>
        <path class="cls-1" d="M38.47,78.67s9.25-16.24,30.17-7.87c0,0,6.64,14.53,22.24,15.85s18.49,6.45,18.49,6.45"/>
        <path class="cls-1" d="M68.64,70.8s20.15-28.06,44.75-11.28"/>
      </g>
    </g>
  </g>
</svg>
