<svg xmlns="http://www.w3.org/2000/svg" viewBox="0 0 210.67 175.52">
  <defs>
    <style>
      .cls-1 {
        fill: none;
        stroke: #d11742;
        stroke-linecap: round;
        stroke-linejoin: round;
        stroke-width: 5px;
      }
    </style>
  </defs>
  <title>Magneto</title>
  <g id="Слой_2" data-name="Слой 2">
    <g id="Layer_1" data-name="Layer 1">
      <g>
        <path class="cls-1" d="M74.08,84.41a31,31,0,1,1,62.06,0v4.18L127,121.52l-14.44,14.1s-3.89,2.53-7.41,2.53a11.31,11.31,0,0,1-8.66-4L83.54,121.52,74.36,88.59A32.26,32.26,0,0,1,74.08,84.41Z"/>
        <path class="cls-1" d="M74.89,93s-9.64,5.71,3,11.93"/>
        <path class="cls-1" d="M135.65,93s9.65,5.71-3,11.93"/>
        <path class="cls-1" d="M93.33,131.45c-2.14,6.63-5.55,11.89-12.5,11.89H62.52c-7,0-10.46,5.26-12.6,11.89L44.07,173"/>
        <path class="cls-1" d="M116.89,131.45c2.14,6.63,5.55,11.89,12.5,11.89H147.7c7,0,10.46,5.26,12.6,11.89L166.15,173"/>
        <polyline class="cls-1" points="180.43 91.46 175.65 95.44 181.29 98.06 176.18 101.61 181.58 104.71 175.51 115 178.4 126.61 169.62 134.73 169.05 146.67"/>
        <polyline class="cls-1" points="41.62 55.82 62.37 52.49 69.72 32.8 89.8 38.97 105.11 24.58 124.59 40.08 149.4 37.92 157.05 61.63 178.94 73.52"/>
        <polyline class="cls-1" points="40.72 148.13 41.96 134.82 30.82 127.41 35.92 115.05 27.45 104.71 35.72 95.85 29.92 85.21 40.15 78.71 37.23 66.95"/>
        <polyline class="cls-1" points="171.22 25.64 177.63 48.92 198.5 61.06 194.44 84.86 208.17 104.71 196.06 114.67 205.75 127.01 191.77 134.12 198.54 148.27"/>
        <polyline class="cls-1" points="46.39 21.04 64.19 21.9 74.31 7.22 91.03 13.43 105.11 2.5 115.61 12.96 128.18 5.12 136.04 17.67 150.06 12.89"/>
        <polyline class="cls-1" points="12.09 148.08 18.03 134.26 4.91 126.91 13.71 114.72 2.5 104.71 14.73 87.77 9.43 67.56 26.98 56.22 29.38 35.47"/>
        <polyline class="cls-1" points="60.23 127.77 60.85 121.11 55.28 117.41 57.84 111.23 53.6 106.05 57.73 101.62 54.83 96.3 59.95 93.06 58.49 87.18"/>
        <polyline class="cls-1" points="146.29 125.61 152.34 122.77 150.74 116.28 155.7 111.79 152.26 106.05 155.81 101.14 151.15 97.27 153.35 91.62 147.86 89.06"/>
      </g>
    </g>
  </g>
</svg>
