<svg xmlns="http://www.w3.org/2000/svg" width="60" height="60" viewBox="0 0 60 60"><g><g transform="rotate(-270 30 30)"><g><path fill="#24406f" d="M30 60c16.569 0 30-13.431 30-30C60 13.431 46.569 0 30 0 13.431 0 0 13.431 0 30c0 16.569 13.431 30 30 30z"/></g><g><g><path fill="#fff" d="M39.684 31.186l-6.553 6.025a1.087 1.087 0 0 1-1.473 0 .905.905 0 0 1 0-1.374l4.763-4.362H21.053c-.58 0-1.053-.433-1.053-.963s.474-.964 1.053-.964H36.42l-4.79-4.386a.905.905 0 0 1 0-1.373 1.118 1.118 0 0 1 1.5 0l6.553 6.025c.421.384.421 1.011 0 1.372z"/></g></g></g></g></svg>