<svg id="Layer_1" data-name="Layer 1" xmlns="http://www.w3.org/2000/svg" viewBox="0 0 1556.79 1297.32">
  <defs>
    <style>
      .cls-1, .cls-2, .cls-3 {
        fill: #126650;
        stroke: #126650;
        stroke-miterlimit: 10;
      }

      .cls-1 {
        stroke-width: 9.29px;
      }

      .cls-2 {
        stroke-width: 27.87px;
      }

      .cls-3 {
        stroke-width: 11.29px;
      }
    </style>
  </defs>
  <title>pill</title>
  <g>
    <path class="cls-1" d="M554,451.27c-23.86,23.82-37.41,57.75-37.41,93.86,0,35.83,13.55,70.1,37.45,94L761.32,846.06c24.94,25.34,58.26,38.93,94,38.93a131.47,131.47,0,0,0,94-39,129.13,129.13,0,0,0,22.87-31.33l.8-1.64a116.64,116.64,0,0,0,6.82-15.73l1.67-4.08c.51-2.06,4.36-16.61,4.36-16.61a146.77,146.77,0,0,0,2.37-24.5c0-35.33-13.95-68.64-38.93-94L742,451.16c-25-25.34-58.5-38.86-94-38.83A131.34,131.34,0,0,0,554,451.27ZM937.41,670.4c21,20.94,32.91,50.55,32.91,81.59s-12,61-32.91,81.93A115.68,115.68,0,0,1,774,834L676.3,736.32,839.93,572.81ZM729.89,463.22l97.28,97.61L663.67,724.34l-97.54-97.6c-20.86-20.91-32.91-50.54-32.91-81.58s12-61,32.91-81.91a116,116,0,0,1,163.76,0ZM760,762.46c29.75,32.91,50.58,51.26,65.37,57.65,27.43,12.69,62,6.5,80.48-14.4a8.93,8.93,0,0,0-13.38-11.83c-11.59,13.12-37,20.46-59.8,9.93-12.39-5.37-31.83-22.81-59.41-53.33a8.94,8.94,0,1,0-13.26,12Z"/>
    <path class="cls-2" d="M752.57,1129.81a13.93,13.93,0,1,1,0-27.86,460.43,460.43,0,0,0,54.64-3.28,13.93,13.93,0,1,1,3.33,27.66,486.63,486.63,0,0,1-58,3.48Zm-56.28-3.33a13.52,13.52,0,0,1-1.68-.1A481.8,481.8,0,0,1,637.45,1116a13.93,13.93,0,0,1,6.64-27.06,453.12,453.12,0,0,0,53.83,9.77,13.93,13.93,0,0,1-1.63,27.77Zm168.06-10.17a13.94,13.94,0,0,1-3.31-27.47,451.63,451.63,0,0,0,52.23-16.27,13.93,13.93,0,0,1,9.9,26,478.15,478.15,0,0,1-55.48,17.29A13.63,13.63,0,0,1,864.35,1116.31Zm-277.48-16.65a13.82,13.82,0,0,1-4.94-.91,480.37,480.37,0,0,1-53-23.86,13.93,13.93,0,1,1,13-24.67,451.81,451.81,0,0,0,49.91,22.47,13.94,13.94,0,0,1-4.93,27Zm382.78-23.33a13.93,13.93,0,0,1-6.5-26.26,454,454,0,0,0,46.79-28.36,13.93,13.93,0,0,1,15.85,22.92,482.75,482.75,0,0,1-49.66,30.1A14,14,0,0,1,969.65,1076.33Zm-482.53-29a13.88,13.88,0,0,1-7.91-2.47A484.46,484.46,0,0,1,433.49,1009,13.93,13.93,0,1,1,452,988.11a455,455,0,0,0,43.09,33.77,13.94,13.94,0,0,1-7.93,25.4Zm575.12-35a13.93,13.93,0,0,1-9.25-24.36,457.5,457.5,0,0,0,38.7-38.71,13.93,13.93,0,0,1,20.86,18.48,485.39,485.39,0,0,1-41.07,41.08A13.88,13.88,0,0,1,1062.24,1012.29ZM402.82,972.61a13.89,13.89,0,0,1-10.43-4.69,484.11,484.11,0,0,1-35.87-45.67,13.93,13.93,0,0,1,22.91-15.86,459.21,459.21,0,0,0,33.8,43,13.93,13.93,0,0,1-10.41,23.18ZM1136.93,928a13.93,13.93,0,0,1-11.45-21.86,454.37,454.37,0,0,0,28.36-46.82,13.93,13.93,0,1,1,24.66,13,483.31,483.31,0,0,1-30.1,49.7A13.91,13.91,0,0,1,1136.93,928Zm-798.19-48a14,14,0,0,1-12.34-7.44,482,482,0,0,1-23.91-53,13.93,13.93,0,0,1,26.05-9.9,450.72,450.72,0,0,0,22.52,49.87,13.94,13.94,0,0,1-12.32,20.43Zm850.62-51.76a13.95,13.95,0,0,1-13-18.88,450.32,450.32,0,0,0,16.27-52.27,13.93,13.93,0,0,1,27.06,6.64,480.47,480.47,0,0,1-17.27,55.51A14,14,0,0,1,1189.36,828.29ZM298.7,774.79a14,14,0,0,1-13.52-10.6A480.18,480.18,0,0,1,274.73,707a13.93,13.93,0,1,1,27.66-3.35,453.35,453.35,0,0,0,9.85,53.83A13.94,13.94,0,0,1,302,774.38,14.26,14.26,0,0,1,298.7,774.79Zm917.55-55.89a13.76,13.76,0,0,1-1.68-.1,13.94,13.94,0,0,1-12.17-15.5,460.3,460.3,0,0,0,3.26-54.64v-.76a13.93,13.93,0,0,1,13.88-14h0a13.93,13.93,0,0,1,13.93,13.89v.9a488.81,488.81,0,0,1-3.45,57.92A13.94,13.94,0,0,1,1216.25,718.9ZM285.15,663a13.94,13.94,0,0,1-13.93-13.94v-.4a486.16,486.16,0,0,1,3.41-57.55,13.93,13.93,0,1,1,27.67,3.3,458.2,458.2,0,0,0-3.22,54.25v.4A13.93,13.93,0,0,1,285.15,663Zm13.38-111.81a14.16,14.16,0,0,1-3.33-.4A13.94,13.94,0,0,1,285,533.94a478.48,478.48,0,0,1,17.23-55.52,13.93,13.93,0,0,1,26.06,9.86,450.39,450.39,0,0,0-16.22,52.29A13.94,13.94,0,0,1,298.53,551.19Zm39.84-105.38a13.78,13.78,0,0,1-6.46-1.6A13.93,13.93,0,0,1,326,425.4a485.54,485.54,0,0,1,30.06-49.73A13.94,13.94,0,0,1,379,391.5a453.75,453.75,0,0,0-28.32,46.85A13.93,13.93,0,0,1,338.37,445.81Zm64-92.71a13.94,13.94,0,0,1-10.43-23.17,486.76,486.76,0,0,1,41-41.11,13.93,13.93,0,0,1,18.51,20.83,459.1,459.1,0,0,0-38.67,38.75A13.9,13.9,0,0,1,402.35,353.1Zm659.36-40.66a13.88,13.88,0,0,1-9.22-3.49,456.59,456.59,0,0,0-43.12-33.73,13.93,13.93,0,1,1,15.82-22.94A485.75,485.75,0,0,1,1071,288.07a13.93,13.93,0,0,1-9.24,24.37ZM486.56,278.31a13.93,13.93,0,0,1-7.95-25.38,485.53,485.53,0,0,1,49.63-30.14,13.93,13.93,0,1,1,13,24.65,455.55,455.55,0,0,0-46.76,28.39A13.83,13.83,0,0,1,486.56,278.31ZM969,248.51a13.89,13.89,0,0,1-6.46-1.59,452,452,0,0,0-49.94-22.43,13.93,13.93,0,1,1,9.85-26.06,479.46,479.46,0,0,1,53,23.81A13.93,13.93,0,0,1,969,248.51Zm-382.82-22.7a13.94,13.94,0,0,1-5-27,479.21,479.21,0,0,1,55.45-17.33,13.93,13.93,0,0,1,6.69,27A451.93,451.93,0,0,0,591.1,224.9,13.88,13.88,0,0,1,586.15,225.81Zm277.44-17.12a14.08,14.08,0,0,1-3.32-.4,452.81,452.81,0,0,0-53.84-9.73,13.93,13.93,0,1,1,3.29-27.67,482.19,482.19,0,0,1,57.17,10.33,13.93,13.93,0,0,1-3.3,27.47Zm-168.14-9.88A13.94,13.94,0,0,1,693.79,171a486.4,486.4,0,0,1,58-3.53h0a13.93,13.93,0,0,1,0,27.86,462.15,462.15,0,0,0-54.63,3.33A14,14,0,0,1,695.45,198.81Z"/>
    <g>
      <rect class="cls-3" x="1155.53" y="339.83" width="34.37" height="225.72" rx="15.23"/>
      <rect class="cls-3" x="1155.53" y="339.83" width="34.37" height="225.72" rx="15.23" transform="translate(1625.4 -720.02) rotate(90)"/>
    </g>
  </g>
</svg>
