<svg id="Layer_1" data-name="Layer 1" xmlns="http://www.w3.org/2000/svg" viewBox="0 0 1556.79 1297.32">
  <defs>
    <style>
      .cls-1 {
        fill: #126650;
        stroke: #126650;
        stroke-miterlimit: 10;
        stroke-width: 5px;
      }
    </style>
  </defs>
  <title>Artboard 9</title>
  <g>
    <path class="cls-1" d="M1017.39,1110.38H607.17a52.88,52.88,0,0,1-52.83-52.83V581.34a14.18,14.18,0,0,1,4.16-10l85.77-85.77a94.32,94.32,0,0,0,27.79-67.11,14.18,14.18,0,1,1,28.35,0,122.47,122.47,0,0,1-36.1,87.17L582.7,587.21v470.34A24.5,24.5,0,0,0,607.17,1082h410.22a24.5,24.5,0,0,0,24.47-24.47V587.21L960.25,505.6a122.47,122.47,0,0,1-36.1-87.17,14.18,14.18,0,1,1,28.36,0,94.28,94.28,0,0,0,27.79,67.11l85.76,85.77a14.18,14.18,0,0,1,4.16,10v476.21A52.88,52.88,0,0,1,1017.39,1110.38Z"/>
    <path class="cls-1" d="M950.21,432.61H674.35a45.14,45.14,0,0,1-45.09-45.08V306.66a45.13,45.13,0,0,1,45.09-45.08H950.21a45.14,45.14,0,0,1,45.1,45.08v80.87A45.14,45.14,0,0,1,950.21,432.61ZM674.35,289.93a16.76,16.76,0,0,0-16.74,16.73v80.87a16.75,16.75,0,0,0,16.74,16.72H950.21A16.75,16.75,0,0,0,967,387.53V306.66a16.76,16.76,0,0,0-16.74-16.73Z"/>
    <path class="cls-1" d="M1056,967.69H812.28a14.17,14.17,0,0,1-14.18-14.18V680a14.17,14.17,0,0,1,14.18-14.18H1056A14.18,14.18,0,0,1,1070.22,680V953.51A14.18,14.18,0,0,1,1056,967.69ZM826.46,939.33h215.4V694.22H826.46Z"/>
  </g>
</svg>
