<svg xmlns="http://www.w3.org/2000/svg" width="34" height="27" viewBox="0 0 34 27"><g><g><g><g><path fill="#d11742" d="M2.39 11.095h29.053a2.39 2.39 0 1 1 0 4.779H2.389a2.39 2.39 0 0 1 0-4.779z"/></g></g><g><g><path fill="#d11742" d="M2.387 11.095c.8 0 1.58.401 2.033 1.13l6.671 10.76a2.39 2.39 0 1 1-4.06 2.518L.358 14.743a2.39 2.39 0 0 1 2.028-3.648z"/></g></g><g><g><path fill="#d11742" d="M9.063.335a2.39 2.39 0 0 1 2.028 3.649l-6.67 10.76a2.39 2.39 0 1 1-4.062-2.519L7.03 1.466A2.388 2.388 0 0 1 9.063.336z"/></g></g></g></g></svg>